<?xml version="1.0" encoding="UTF-8" standalone="no"?>
<!DOCTYPE svg PUBLIC "-//W3C//DTD SVG 1.1//EN" "http://www.w3.org/Graphics/SVG/1.1/DTD/svg11.dtd">
<svg xmlns="http://www.w3.org/2000/svg" version="1.1" viewBox="0.00 0.00 688.00 255.00">
<path fill="#ffffff" d="
  M 688.00 109.41
  L 688.00 116.85
  C 686.55 139.99 674.41 160.28 656.34 174.08
  C 644.04 183.47 628.53 185.93 612.72 186.02
  Q 604.97 186.06 592.94 184.25
  Q 582.71 182.71 573.16 181.98
  A 0.12 0.09 37.9 0 1 573.10 181.78
  Q 573.18 181.78 573.19 181.77
  A 0.15 0.01 0.3 0 1 573.33 181.76
  Q 582.37 182.26 588.89 180.64
  C 592.64 179.70 599.88 177.27 603.95 174.70
  Q 612.71 169.18 616.95 165.17
  Q 633.11 149.87 641.07 142.61
  Q 644.85 139.15 648.97 132.26
  C 655.89 120.67 654.91 106.80 650.50 94.00
  Q 645.21 78.64 635.45 65.75
  A 0.31 0.31 0.0 0 0 634.91 65.85
  C 629.97 81.84 617.39 92.94 601.67 97.61
  Q 575.92 105.26 552.65 93.43
  Q 542.29 88.17 535.77 77.27
  C 526.73 62.16 529.02 43.83 539.14 29.34
  C 552.53 10.17 582.97 -4.82 606.36 2.39
  C 612.47 4.27 620.45 9.09 621.97 15.72
  A 1.10 1.06 -83.1 0 0 622.52 16.45
  Q 654.64 33.53 673.35 63.89
  Q 686.15 84.67 688.00 109.41
  Z
  M 601.69 24.46
  C 588.59 28.41 569.56 37.92 564.87 52.03
  C 560.08 66.45 579.70 67.53 588.29 66.01
  C 594.39 64.93 603.69 60.58 605.59 54.10
  Q 608.17 45.30 603.59 37.71
  Q 599.56 31.05 602.08 24.90
  A 0.33 0.32 -86.8 0 0 601.69 24.46
  Z"
/>
<path fill="#ffffff" d="
  M 80.26 255.00
  L 78.09 255.00
  Q 67.59 253.67 63.69 245.02
  Q 60.84 238.69 58.24 226.73
  Q 56.68 219.59 54.82 214.11
  C 44.25 183.00 31.00 148.51 19.09 115.33
  C 10.44 91.25 4.25 67.56 0.91 43.61
  C 0.21 38.54 1.39 30.91 6.14 27.85
  C 14.84 22.24 21.83 33.83 24.38 40.69
  C 38.08 77.54 49.13 107.68 63.51 139.43
  A 0.27 0.27 0.0 0 0 64.01 139.41
  C 69.51 124.08 77.71 107.01 93.58 101.95
  Q 99.53 100.05 106.04 101.26
  C 126.42 105.05 140.18 125.38 149.68 142.14
  Q 153.94 149.64 159.28 161.64
  C 165.97 176.65 173.03 192.17 179.07 207.96
  Q 181.49 214.31 178.98 220.97
  C 173.59 235.30 160.80 236.18 150.76 225.63
  Q 148.79 223.56 146.18 216.85
  Q 141.37 204.48 132.02 183.72
  Q 124.87 167.82 116.89 149.34
  C 113.61 141.73 109.42 133.22 103.42 127.70
  A 0.77 0.77 0.0 0 0 102.19 127.97
  Q 95.17 145.38 91.42 163.48
  Q 87.12 184.24 89.20 206.63
  C 89.88 213.94 93.16 222.07 95.06 228.47
  Q 96.61 233.64 96.46 236.78
  C 96.02 246.34 90.03 253.67 80.26 255.00
  Z"
/>
<path fill="#ffffff" d="
  M 395.11 64.86
  C 399.81 45.85 413.85 26.40 435.60 26.89
  C 451.89 27.25 466.57 36.86 476.61 49.42
  C 488.79 64.65 496.11 83.90 502.64 101.54
  Q 504.69 107.06 506.30 114.50
  C 506.75 116.56 505.85 123.54 504.75 125.86
  Q 502.36 130.96 497.99 133.42
  C 492.85 136.30 486.19 134.37 482.09 130.65
  Q 476.05 125.17 473.29 117.41
  C 465.56 95.64 460.71 79.76 451.05 63.48
  C 448.06 58.43 441.95 51.26 435.78 50.83
  C 421.07 49.82 416.73 74.16 416.71 85.04
  Q 416.68 98.12 418.13 108.95
  Q 420.97 130.16 425.79 146.26
  Q 428.48 155.24 428.18 158.93
  C 427.44 167.95 420.11 175.27 410.72 175.06
  C 402.93 174.89 396.19 168.76 394.69 161.42
  Q 391.86 147.58 390.95 144.12
  Q 379.51 100.88 377.22 94.29
  Q 370.28 74.34 370.25 74.27
  C 367.64 67.46 367.60 59.15 375.14 55.88
  Q 378.40 54.47 382.91 55.76
  C 388.15 57.26 391.21 60.77 394.49 64.99
  A 0.35 0.35 0.0 0 0 395.11 64.86
  Z"
/>
<path fill="#ffffff" d="
  M 295.83 132.20
  A 0.35 0.35 0.0 0 0 295.21 132.37
  C 291.87 156.79 279.19 178.72 253.18 183.60
  C 228.55 188.21 200.05 176.76 194.33 150.54
  C 191.99 139.82 194.42 127.97 199.00 118.02
  C 211.67 90.47 244.95 66.89 274.57 85.87
  A 0.71 0.71 0.0 0 0 275.41 85.81
  C 286.30 76.20 297.60 86.50 305.29 94.58
  Q 320.38 110.44 325.69 116.90
  Q 334.90 128.10 347.35 144.50
  Q 351.47 149.93 353.26 155.28
  Q 356.05 163.59 352.86 171.06
  Q 350.54 176.49 345.34 176.87
  C 337.73 177.42 330.88 174.26 325.36 168.80
  C 320.99 164.49 316.93 159.04 312.94 153.90
  Q 311.38 151.89 295.83 132.20
  Z
  M 270.40 93.54
  Q 265.51 93.24 262.40 94.19
  C 248.37 98.51 236.31 112.90 229.95 125.67
  Q 226.71 132.16 226.04 137.52
  Q 225.42 142.46 226.15 144.51
  C 227.85 149.27 234.52 151.44 238.97 152.11
  C 249.31 153.66 261.08 152.22 265.57 141.27
  Q 268.78 133.45 269.83 123.92
  Q 271.28 110.77 270.53 97.32
  C 270.48 96.31 270.78 95.18 270.94 94.23
  A 0.59 0.58 7.0 0 0 270.40 93.54
  Z"
/>
<path fill="#ffffff" d="
  M 572.51 181.63
  C 572.38 181.63 572.25 181.63 572.12 181.63
  C 572.25 181.61 572.39 181.62 572.51 181.63
  Z"
/>
</svg>
