<?xml version="1.0" encoding="UTF-8" standalone="no"?>
<!DOCTYPE svg PUBLIC "-//W3C//DTD SVG 1.1//EN" "http://www.w3.org/Graphics/SVG/1.1/DTD/svg11.dtd">
<svg xmlns="http://www.w3.org/2000/svg" version="1.1" viewBox="0.00 0.00 609.00 223.00">
<path fill="#ffffff" d="
  M 510.18 172.79
  C 516.65 174.30 520.80 171.73 526.19 168.87
  C 532.17 165.69 538.46 158.95 544.96 155.16
  C 565.91 142.96 593.07 119.71 587.04 92.01
  C 584.74 81.43 577.67 70.03 570.92 60.84
  Q 560.31 46.39 547.15 29.62
  A 0.19 0.19 0.0 0 0 546.81 29.76
  C 548.65 50.33 548.71 74.47 531.74 89.50
  C 519.98 99.91 502.39 101.28 488.87 93.68
  C 473.54 85.07 467.38 65.34 470.70 48.34
  C 473.83 32.35 483.31 17.72 498.10 10.42
  C 508.34 5.37 519.56 6.54 528.58 13.78
  A 0.33 0.33 0.0 0 0 529.11 13.50
  C 528.72 8.13 531.42 1.90 537.08 0.79
  C 544.65 -0.70 559.12 16.24 563.47 21.60
  Q 576.68 37.91 589.21 54.03
  C 599.48 67.24 607.29 80.78 608.17 97.75
  C 608.90 111.83 603.57 125.47 595.52 137.02
  C 586.04 150.62 573.19 161.63 558.84 170.34
  Q 550.39 175.47 542.54 176.50
  Q 532.92 177.76 531.00 177.49
  C 523.79 176.51 517.58 175.69 510.18 172.79
  Z
  M 529.25 18.28
  A 0.80 0.79 -77.5 0 0 528.85 17.64
  Q 523.78 14.60 518.39 16.64
  C 499.43 23.80 484.87 46.66 491.51 66.98
  C 493.87 74.21 499.42 78.48 507.19 78.99
  C 525.92 80.21 530.20 59.70 530.44 45.75
  Q 530.65 33.42 529.25 18.28
  Z"
/>
<path fill="#ffffff" d="
  M 74.01 223.00
  L 72.35 223.00
  Q 65.08 221.68 63.21 215.07
  C 61.49 208.99 58.29 200.40 53.16 185.82
  C 45.70 164.63 40.76 145.49 35.12 122.64
  Q 29.94 101.65 24.41 83.12
  Q 14.91 51.31 1.63 21.87
  Q 0.79 20.02 0.55 16.94
  C 0.17 12.13 3.87 8.97 8.57 10.67
  C 12.60 12.14 15.85 17.37 18.88 22.37
  C 24.17 31.12 28.75 40.42 32.46 49.81
  Q 41.47 72.61 49.60 102.89
  Q 58.69 136.74 58.91 137.52
  A 0.15 0.15 0.0 0 0 59.20 137.52
  Q 60.76 132.30 61.45 130.44
  Q 68.29 111.82 84.18 99.97
  C 92.48 93.77 103.65 90.03 114.00 93.52
  C 130.56 99.11 140.96 115.37 148.08 130.33
  Q 161.16 157.80 169.46 179.80
  C 170.91 183.66 173.68 192.15 171.99 196.95
  Q 170.44 201.36 167.75 204.09
  A 3.73 3.71 -59.0 0 1 163.98 205.04
  Q 159.33 203.58 156.01 200.02
  Q 153.91 197.78 151.92 191.56
  Q 149.29 183.36 147.22 178.30
  Q 134.97 148.39 123.00 125.53
  C 119.98 119.77 114.08 111.78 107.60 110.18
  C 101.40 108.66 95.05 112.74 90.42 116.94
  Q 75.51 130.44 74.17 151.43
  Q 72.93 170.87 76.97 190.15
  C 78.40 196.98 80.87 203.21 83.05 210.11
  A 3.97 3.82 36.8 0 1 83.23 211.21
  Q 83.46 220.81 74.01 223.00
  Z"
/>
<path fill="#ffffff" d="
  M 364.94 51.01
  A 1.26 1.26 0.0 0 0 365.78 50.16
  C 369.69 36.79 379.87 19.75 392.66 15.01
  C 411.96 7.86 425.49 32.65 432.20 47.01
  Q 439.48 62.56 459.08 106.36
  Q 460.91 110.45 460.97 110.53
  A 2.52 2.45 25.7 0 1 461.35 111.57
  Q 462.26 118.78 458.98 123.07
  C 457.22 125.37 453.27 125.77 450.49 124.74
  Q 444.31 122.44 441.48 116.27
  Q 430.74 92.82 411.97 51.12
  C 408.96 44.44 404.71 35.68 398.99 31.26
  A 1.52 1.52 0.0 0 0 397.22 31.19
  C 384.41 39.54 380.46 59.32 381.04 73.51
  A 3.55 3.46 35.5 0 0 381.21 74.45
  Q 382.82 79.59 383.34 81.68
  Q 388.02 100.42 393.01 119.26
  C 393.88 122.54 394.98 128.35 393.54 131.51
  C 390.41 138.36 382.08 140.36 376.78 134.72
  Q 373.93 131.69 372.28 127.23
  Q 363.36 103.12 362.38 77.34
  Q 362.16 71.55 362.99 63.98
  A 2.81 2.77 -50.5 0 0 362.90 62.96
  C 361.81 59.03 359.31 52.68 364.94 51.01
  Z"
/>
<path fill="#ffffff" d="
  M 326.99 144.82
  Q 315.35 147.88 306.05 141.31
  C 301.94 138.41 298.25 132.81 295.46 128.73
  A 0.24 0.24 0.0 0 0 295.02 128.85
  Q 293.95 148.43 282.16 162.01
  C 270.77 175.14 253.96 180.89 236.99 177.49
  Q 222.45 174.57 212.80 163.98
  C 198.23 147.99 198.79 123.64 209.27 105.22
  C 218.16 89.61 233.13 75.98 250.64 70.92
  Q 258.24 68.73 266.46 69.96
  A 0.64 0.64 0.0 0 0 267.17 69.47
  C 269.10 60.37 280.19 58.53 285.15 66.53
  Q 286.19 68.21 286.96 70.20
  Q 293.00 85.71 304.78 105.78
  Q 311.66 117.49 318.33 125.71
  C 322.13 130.40 322.99 136.27 324.70 141.77
  Q 325.34 143.81 327.01 144.46
  A 0.19 0.19 0.0 0 1 326.99 144.82
  Z
  M 268.23 79.15
  Q 263.16 80.35 257.67 83.39
  C 240.16 93.12 224.82 109.59 222.14 129.79
  C 220.52 142.08 226.21 153.59 238.70 157.03
  Q 249.16 159.90 258.26 155.48
  C 272.65 148.48 276.17 131.87 276.06 117.28
  C 275.99 108.09 274.93 98.07 272.67 89.36
  C 271.80 86.03 269.88 82.59 268.94 79.55
  A 0.60 0.60 0.0 0 0 268.23 79.15
  Z"
/>
<path fill="#ffffff" d="
  M 510.18 172.79
  Q 509.74 172.74 509.32 172.58
  A 0.11 0.10 -28.9 0 1 509.38 172.38
  Q 509.80 172.46 510.18 172.79
  Z"
/>
</svg>
