<?xml version="1.0" encoding="UTF-8" standalone="no"?>
<!DOCTYPE svg PUBLIC "-//W3C//DTD SVG 1.1//EN" "http://www.w3.org/Graphics/SVG/1.1/DTD/svg11.dtd">
<svg xmlns="http://www.w3.org/2000/svg" version="1.1" viewBox="0.00 0.00 668.00 265.00">
<path fill="#ffffff" d="
  M 556.91 200.40
  Q 566.76 200.39 576.11 195.57
  C 579.64 193.75 583.48 192.22 586.33 190.41
  Q 605.97 177.96 622.85 161.59
  C 629.31 155.32 635.24 148.09 638.43 139.33
  C 641.95 129.68 640.15 116.92 637.47 107.29
  C 630.26 81.42 616.48 56.94 599.72 36.21
  A 0.21 0.21 0.0 0 0 599.35 36.37
  C 600.51 44.37 600.96 51.77 599.28 59.70
  C 594.24 83.40 572.36 95.82 549.01 89.48
  C 529.43 84.15 516.59 67.99 514.75 47.83
  C 512.52 23.31 529.87 -1.23 556.50 0.22
  Q 558.78 0.34 564.01 2.00
  Q 570.82 4.17 575.05 9.92
  A 0.30 0.30 0.0 0 0 575.58 9.81
  Q 577.16 2.91 584.51 1.60
  C 588.11 0.97 593.24 5.05 596.34 7.52
  Q 609.90 18.30 622.89 32.95
  Q 650.78 64.40 663.45 104.06
  Q 665.64 110.91 666.89 119.92
  C 668.98 134.88 666.09 149.67 658.16 161.95
  C 643.15 185.22 617.97 197.30 590.88 200.94
  C 586.69 201.50 583.05 201.41 577.25 201.60
  Q 559.56 202.20 556.77 201.34
  A 0.48 0.48 0.0 0 1 556.91 200.40
  Z
  M 576.02 16.10
  L 575.40 16.11
  A 1.64 1.60 -30.5 0 1 574.58 15.91
  Q 570.30 13.57 568.71 12.78
  C 564.05 10.47 557.57 11.76 553.21 14.29
  Q 544.60 19.30 540.91 28.69
  C 536.05 41.04 537.60 57.50 550.48 63.95
  C 561.49 69.46 581.97 67.50 583.82 51.85
  Q 584.39 46.98 584.03 43.97
  Q 582.85 34.11 576.85 16.69
  A 0.86 0.86 0.0 0 0 576.02 16.10
  Z"
/>
<path fill="#ffffff" d="
  M 78.26 161.65
  Q 78.46 160.90 79.57 156.29
  Q 84.61 135.44 99.11 120.75
  Q 108.85 110.88 117.42 108.57
  Q 127.73 105.80 138.75 112.31
  C 158.64 124.05 173.92 142.98 186.65 162.89
  C 194.68 175.46 203.41 190.73 211.58 205.42
  C 215.89 213.16 217.87 222.59 210.60 229.07
  Q 209.08 230.42 206.39 230.83
  C 199.31 231.90 192.84 227.14 188.95 221.63
  Q 184.06 214.68 181.63 210.20
  Q 175.09 198.11 160.68 169.84
  Q 152.07 152.93 140.21 136.81
  Q 136.02 131.12 131.25 127.06
  C 128.55 124.77 124.86 121.82 121.36 123.35
  Q 116.32 125.56 112.64 130.38
  Q 96.99 150.89 97.56 176.49
  C 97.74 184.31 99.26 193.18 101.34 201.15
  Q 107.41 224.42 113.79 242.44
  Q 116.02 248.74 115.67 251.69
  Q 114.93 257.80 109.45 261.70
  C 101.65 267.23 92.34 263.36 88.49 255.01
  C 68.64 211.99 49.55 163.22 34.19 126.36
  Q 20.48 93.45 18.57 88.49
  Q 11.71 70.63 5.23 49.76
  Q 2.14 39.83 1.33 35.95
  Q 0.54 32.16 0.96 28.51
  C 1.62 22.81 7.26 20.56 11.70 24.50
  Q 14.42 26.91 16.11 29.77
  Q 28.69 50.99 42.56 80.65
  Q 51.86 100.53 78.06 161.67
  A 0.11 0.10 -49.8 0 0 78.26 161.65
  Z"
/>
<path fill="#ffffff" d="
  M 399.30 79.61
  A 0.30 0.30 0.0 0 0 399.85 79.51
  Q 404.34 58.30 417.62 40.86
  C 421.92 35.22 426.65 29.97 434.39 31.47
  Q 439.47 32.46 444.04 35.60
  C 459.21 46.04 470.67 61.90 481.26 77.87
  Q 491.32 93.03 497.31 102.91
  Q 500.06 107.45 500.78 112.08
  C 502.10 120.43 498.26 127.70 488.97 127.47
  A 4.36 4.30 -34.1 0 1 487.52 127.20
  Q 479.45 124.32 475.15 117.84
  C 463.53 100.32 449.71 74.25 442.21 61.79
  Q 436.90 52.99 432.04 46.88
  A 0.54 0.53 -47.3 0 0 431.18 46.92
  C 423.24 58.69 420.12 73.51 419.59 87.68
  Q 418.99 103.79 422.61 119.31
  Q 423.31 122.33 424.20 124.13
  Q 429.63 135.16 432.24 141.60
  A 4.93 4.77 30.0 0 1 432.54 142.65
  Q 434.30 153.09 425.63 158.86
  C 418.07 163.90 408.97 160.20 405.44 152.05
  Q 404.04 148.80 401.03 137.06
  Q 399.13 129.68 396.22 122.20
  C 388.87 103.36 385.02 93.05 377.79 79.25
  C 375.51 74.88 372.12 67.21 376.62 63.70
  C 381.06 60.23 387.16 64.11 390.36 67.67
  Q 395.26 73.15 399.30 79.61
  Z"
/>
<path fill="#ffffff" d="
  M 317.08 165.11
  Q 315.46 181.29 303.13 191.67
  C 295.19 198.36 284.72 201.90 274.30 200.82
  C 255.77 198.92 242.89 184.78 237.93 167.29
  Q 230.70 141.82 243.14 117.61
  C 252.12 100.13 273.25 82.86 293.97 92.28
  C 302.18 96.01 309.52 106.36 313.21 114.41
  A 9.16 9.09 15.0 0 0 314.07 115.89
  Q 320.21 124.49 333.21 141.71
  Q 342.30 153.77 344.00 156.72
  Q 348.11 163.88 350.20 173.92
  A 3.08 2.52 85.2 0 0 352.53 176.33
  Q 353.80 176.46 355.56 174.40
  A 0.05 0.05 0.0 0 1 355.64 174.41
  Q 355.70 174.51 355.61 174.65
  Q 353.28 178.38 349.49 180.08
  Q 346.15 181.58 341.37 180.95
  C 330.88 179.56 323.55 173.31 317.42 165.02
  A 0.19 0.19 0.0 0 0 317.08 165.11
  Z
  M 287.85 110.82
  C 271.01 115.04 262.62 130.92 261.97 147.35
  C 261.76 152.52 263.11 159.28 265.11 163.63
  C 268.05 169.98 272.39 174.46 279.82 174.33
  Q 288.27 174.18 293.68 167.60
  C 296.78 163.83 297.43 158.53 296.93 153.75
  Q 295.98 144.68 294.13 132.00
  A 2.57 2.52 26.0 0 0 293.78 131.01
  C 290.60 125.84 285.33 118.24 288.27 111.31
  A 0.36 0.36 0.0 0 0 287.85 110.82
  Z"
/>
<path fill="#ffffff" d="
  M 550.84 200.61
  Q 550.71 200.65 550.25 200.25
  A 0.12 0.11 55.8 0 1 550.28 200.06
  Q 550.44 200.01 550.77 200.02
  A 0.30 0.30 0.0 0 1 550.84 200.61
  Z"
/>
<path fill="#ffffff" d="
  M 552.02 200.43
  Q 551.92 200.43 551.75 200.41
  A 0.05 0.04 -47.4 0 1 551.75 200.32
  Q 551.90 200.28 552.03 200.28
  A 0.08 0.07 -42.6 0 1 552.02 200.43
  Z"
/>
</svg>
