<?xml version="1.0" encoding="UTF-8" standalone="no"?>
<!DOCTYPE svg PUBLIC "-//W3C//DTD SVG 1.1//EN" "http://www.w3.org/Graphics/SVG/1.1/DTD/svg11.dtd">
<svg xmlns="http://www.w3.org/2000/svg" version="1.1" viewBox="0.00 0.00 692.00 237.00">
<path fill="#ffffff" d="
  M 54.16 126.53
  A 0.46 0.45 56.6 0 0 54.93 126.69
  C 67.96 112.01 85.97 100.83 106.32 107.70
  Q 120.10 112.35 131.97 122.05
  Q 162.95 147.37 180.61 183.67
  C 182.00 186.52 184.00 192.50 184.11 195.76
  C 184.46 205.85 176.65 217.45 164.99 215.60
  Q 153.60 213.79 148.17 203.07
  Q 142.44 191.78 140.09 187.39
  Q 130.67 169.78 117.19 152.78
  C 111.92 146.14 107.15 140.09 101.34 134.66
  C 98.56 132.06 94.17 128.49 90.14 129.35
  C 84.95 130.45 79.63 136.42 76.61 140.44
  Q 66.05 154.49 67.07 170.80
  Q 67.50 177.70 70.11 188.23
  Q 71.35 193.21 75.24 206.81
  Q 77.52 214.79 76.97 218.00
  C 73.60 237.96 48.81 242.33 39.14 223.64
  Q 38.35 222.10 37.27 216.73
  Q 36.73 214.01 35.56 209.77
  Q 31.50 195.10 23.17 162.62
  Q 19.67 148.99 17.10 133.77
  Q 8.70 84.24 6.20 69.44
  C 4.98 62.21 4.09 52.48 3.69 46.99
  Q 2.60 31.62 1.17 16.00
  Q 0.97 13.74 1.20 9.51
  C 1.38 5.97 3.98 0.39 8.24 0.97
  C 12.75 1.58 15.64 6.36 17.35 10.16
  Q 23.76 24.40 29.42 36.81
  Q 36.11 51.50 40.77 71.23
  Q 45.50 91.25 50.27 111.73
  Q 52.56 121.58 54.16 126.53
  Z"
/>
<path fill="#ffffff" d="
  M 576.66 204.72
  A 0.26 0.26 0.0 0 1 576.63 204.37
  A 0.21 0.21 0.0 0 1 576.92 204.33
  Q 589.78 213.84 602.24 203.97
  Q 611.70 196.47 612.77 195.63
  Q 618.12 191.42 620.10 190.28
  Q 625.94 186.93 627.85 185.62
  C 651.07 169.76 658.16 146.11 650.10 119.62
  Q 640.98 89.66 618.12 67.91
  A 0.59 0.59 0.0 0 0 617.12 68.36
  C 617.54 81.31 616.93 95.51 610.25 106.84
  C 599.61 124.87 579.14 130.52 559.35 125.59
  Q 534.94 119.52 525.43 98.09
  Q 516.87 78.81 524.79 57.75
  Q 533.73 33.94 556.22 23.25
  Q 566.69 18.28 577.78 18.32
  C 590.20 18.36 601.31 25.52 611.31 32.32
  Q 614.27 34.33 615.59 36.58
  Q 616.51 38.17 616.53 38.20
  A 1.53 1.49 77.4 0 0 617.42 38.78
  Q 626.07 40.66 634.47 45.29
  C 664.35 61.73 682.69 95.20 689.12 127.57
  C 691.55 139.82 691.93 154.03 688.29 166.48
  C 681.01 191.42 663.00 211.24 640.25 223.51
  Q 635.89 225.86 632.79 226.54
  Q 621.48 228.99 611.05 226.49
  Q 597.43 223.22 587.06 213.93
  Q 580.32 207.89 576.66 204.72
  Z
  M 598.37 41.12
  Q 590.56 41.92 583.85 43.71
  Q 563.80 49.05 557.03 69.49
  Q 555.54 73.97 556.39 79.60
  C 557.29 85.57 560.63 88.75 566.53 90.18
  Q 572.97 91.73 579.92 90.19
  C 586.94 88.63 588.37 82.93 589.01 76.74
  C 589.84 68.90 589.23 60.09 591.66 52.16
  Q 593.22 47.11 598.60 41.59
  A 0.28 0.28 0.0 0 0 598.37 41.12
  Z"
/>
<path fill="#ffffff" d="
  M 438.85 61.98
  A 0.45 0.44 47.2 0 0 438.11 61.95
  Q 434.43 66.94 433.15 74.38
  Q 429.97 92.74 430.01 116.00
  Q 430.04 130.74 430.09 152.50
  Q 430.10 158.55 429.76 161.26
  C 428.11 174.55 414.51 183.90 401.66 176.98
  Q 390.74 171.09 390.88 158.25
  C 391.04 143.68 389.94 130.66 390.88 116.77
  Q 391.77 103.76 393.51 87.01
  C 394.39 78.57 398.70 69.24 408.86 70.22
  A 0.84 0.82 -76.5 0 0 409.71 69.69
  C 415.14 55.81 424.98 39.69 442.05 40.35
  C 462.65 41.15 476.40 62.55 484.88 78.62
  Q 503.54 114.01 503.88 114.62
  Q 508.86 123.59 510.01 131.96
  C 511.86 145.53 498.27 156.07 485.41 150.93
  C 478.64 148.23 473.53 140.36 470.01 133.49
  C 459.89 113.73 452.90 94.81 444.84 73.72
  Q 442.77 68.32 438.85 61.98
  Z"
/>
<path fill="#ffffff" d="
  M 305.08 95.76
  C 311.97 95.66 317.07 100.13 321.33 105.18
  Q 336.37 123.00 345.23 145.77
  C 347.82 152.41 350.39 159.62 349.35 166.28
  C 348.05 174.53 343.12 182.44 333.58 180.35
  C 319.26 177.22 314.46 162.41 310.66 150.26
  A 0.20 0.19 -44.7 0 0 310.29 150.26
  C 302.59 173.40 283.16 187.37 258.68 187.11
  C 233.72 186.84 214.62 168.17 212.55 143.30
  C 211.08 125.67 219.33 107.59 231.84 95.82
  C 245.87 82.61 268.34 72.13 287.82 77.17
  C 294.25 78.83 300.25 82.97 303.41 89.04
  Q 304.39 90.94 304.37 95.06
  A 0.70 0.69 -0.0 0 0 305.08 95.76
  Z
  M 295.83 102.11
  C 283.91 105.68 272.25 109.49 262.28 116.99
  C 254.10 123.15 247.50 133.98 250.69 144.33
  Q 252.62 150.58 259.20 152.80
  C 269.90 156.40 282.60 154.72 292.86 150.59
  Q 299.04 148.09 301.76 143.93
  A 3.79 3.68 -23.6 0 0 302.28 142.66
  C 303.68 135.84 303.55 130.82 300.52 123.92
  C 297.86 117.87 294.93 111.89 295.48 105.08
  C 295.55 104.12 296.29 103.27 296.37 102.55
  A 0.42 0.42 0.0 0 0 295.83 102.11
  Z"
/>
</svg>
