<?xml version="1.0" encoding="UTF-8" standalone="no"?>
<!DOCTYPE svg PUBLIC "-//W3C//DTD SVG 1.1//EN" "http://www.w3.org/Graphics/SVG/1.1/DTD/svg11.dtd">
<svg xmlns="http://www.w3.org/2000/svg" version="1.1" viewBox="0.00 0.00 601.00 225.00">
<path fill="#ffffff" d="
  M 56.34 106.83
  C 63.74 90.18 80.90 69.16 101.57 73.15
  C 124.75 77.63 145.02 98.69 157.93 117.86
  Q 173.27 140.65 185.66 164.58
  C 187.36 167.87 189.87 173.06 189.53 176.97
  C 189.06 182.41 186.65 188.14 181.36 190.31
  C 176.11 192.47 168.58 189.30 165.02 185.28
  Q 162.62 182.57 159.84 177.43
  C 155.42 169.26 151.18 160.94 147.83 154.11
  Q 136.48 131.00 124.89 114.44
  Q 119.61 106.90 111.28 99.76
  C 107.93 96.89 101.87 93.87 98.20 93.30
  Q 93.95 92.65 90.74 96.29
  C 78.73 109.95 72.23 129.19 71.23 147.28
  Q 71.03 150.88 71.80 153.23
  Q 80.16 178.51 86.72 198.58
  Q 89.31 206.52 89.42 207.62
  C 90.29 216.57 82.02 225.18 72.79 223.42
  C 64.15 221.78 61.17 214.77 57.27 207.95
  Q 46.71 189.49 45.68 168.29
  C 45.59 166.41 44.81 163.90 44.00 161.58
  Q 23.69 103.24 16.24 78.29
  Q 6.71 46.36 2.13 17.88
  C 1.18 12.01 1.23 5.41 6.32 1.74
  C 10.00 -0.92 15.05 2.20 17.33 5.19
  Q 20.06 8.77 22.07 13.69
  Q 29.56 32.04 37.14 51.59
  C 44.58 70.79 48.65 85.07 55.73 106.80
  A 0.33 0.33 0.0 0 0 56.34 106.83
  Z"
/>
<path fill="#ffffff" d="
  M 556.08 45.20
  C 555.93 52.97 556.15 61.78 554.58 70.19
  C 550.95 89.52 534.01 100.76 515.06 101.09
  C 496.84 101.40 475.77 93.12 468.00 75.54
  C 461.03 59.80 469.25 42.22 481.76 31.69
  Q 497.44 18.47 517.96 16.84
  Q 532.97 15.64 544.90 24.52
  A 0.54 0.54 0.0 0 0 545.67 24.38
  C 550.43 17.08 556.48 24.75 559.55 28.76
  Q 573.52 46.98 583.87 64.56
  Q 597.73 88.11 599.40 114.00
  Q 600.37 129.02 594.79 144.82
  Q 584.28 174.52 556.86 190.36
  C 548.23 195.35 538.75 197.08 528.25 196.98
  Q 506.05 196.75 484.73 187.23
  A 0.17 0.17 0.0 0 1 484.64 187.02
  L 484.64 187.01
  A 0.20 0.20 0.0 0 1 484.86 186.89
  Q 491.48 188.47 495.28 188.03
  Q 510.31 186.31 523.05 177.79
  Q 533.03 171.12 539.23 167.34
  Q 549.62 161.02 553.85 156.98
  Q 565.44 145.89 569.46 128.49
  Q 574.06 108.59 570.75 88.49
  Q 568.50 74.81 563.91 61.39
  C 562.02 55.85 559.50 51.34 556.38 45.14
  A 0.16 0.16 0.0 0 0 556.08 45.20
  Z
  M 543.71 32.67
  Q 536.35 31.73 534.21 32.22
  Q 515.57 36.52 500.85 48.59
  C 497.36 51.44 491.16 58.53 491.74 63.10
  C 492.37 68.04 499.06 71.70 502.76 73.25
  C 511.64 76.97 524.59 79.36 534.81 77.58
  Q 542.37 76.26 543.88 68.65
  Q 544.70 64.51 544.85 60.48
  Q 545.35 46.68 544.36 33.36
  A 0.76 0.75 -88.6 0 0 543.71 32.67
  Z"
/>
<path fill="#ffffff" d="
  M 385.39 52.80
  A 0.93 0.91 -53.1 0 0 384.05 53.00
  Q 380.97 57.53 379.92 62.47
  Q 377.15 75.39 379.92 88.30
  Q 384.85 111.30 390.08 132.44
  Q 390.61 134.59 391.37 136.78
  Q 394.33 145.29 389.15 151.79
  C 383.10 159.40 373.00 158.99 366.60 152.00
  Q 364.59 149.80 363.40 145.03
  Q 359.57 129.74 359.23 127.50
  Q 356.70 110.54 354.85 97.20
  C 353.36 86.53 351.37 77.26 349.70 66.53
  C 348.99 62.00 348.70 57.75 351.49 54.33
  Q 356.18 48.57 362.99 50.77
  A 0.65 0.64 23.9 0 0 363.76 50.48
  Q 364.57 49.07 365.88 46.60
  C 369.83 39.20 377.55 32.38 386.81 33.45
  C 403.54 35.39 416.16 53.55 424.13 67.68
  Q 436.65 89.85 445.45 107.32
  C 448.87 114.09 450.68 122.22 446.03 128.93
  C 440.68 136.64 430.73 131.78 426.03 126.18
  Q 421.82 121.15 418.64 114.82
  Q 406.75 91.13 397.76 71.75
  C 394.58 64.89 390.31 56.78 385.39 52.80
  Z"
/>
<path fill="#ffffff" d="
  M 278.95 120.66
  C 280.16 128.17 279.68 135.79 276.49 143.01
  C 270.26 157.15 257.35 166.95 241.36 164.93
  C 220.31 162.27 207.02 144.60 206.63 123.92
  Q 206.12 97.62 221.76 76.15
  Q 226.37 69.81 233.29 64.85
  C 243.34 57.64 258.73 54.98 267.20 65.94
  Q 268.99 68.26 269.13 71.62
  A 0.59 0.59 0.0 0 0 269.64 72.18
  Q 276.59 73.10 281.24 77.59
  Q 285.64 81.84 293.20 92.16
  Q 293.44 92.49 312.93 118.91
  Q 317.46 125.05 318.70 131.01
  Q 319.87 136.64 320.51 139.15
  A 2.46 2.46 0.0 0 0 323.41 141.02
  L 323.78 140.95
  A 0.19 0.19 0.0 0 1 323.93 141.29
  Q 319.05 144.69 313.24 145.06
  C 303.78 145.67 296.59 141.99 290.17 134.80
  Q 284.09 127.99 279.55 120.44
  A 0.33 0.33 0.0 0 0 278.95 120.66
  Z
  M 259.72 80.90
  Q 251.28 82.34 246.90 87.63
  Q 235.93 100.90 234.35 120.03
  C 234.17 122.20 234.57 126.08 235.08 127.93
  Q 237.67 137.35 246.51 138.25
  C 253.09 138.92 264.26 137.15 268.88 131.63
  C 274.17 125.31 272.05 112.29 269.70 104.96
  A 13.49 13.17 -70.1 0 0 268.45 102.21
  Q 264.08 94.97 262.26 91.27
  Q 260.12 86.89 260.21 81.32
  A 0.42 0.42 0.0 0 0 259.72 80.90
  Z"
/>
</svg>
