<?xml version="1.0" encoding="UTF-8" standalone="no"?>
<!DOCTYPE svg PUBLIC "-//W3C//DTD SVG 1.1//EN" "http://www.w3.org/Graphics/SVG/1.1/DTD/svg11.dtd">
<svg xmlns="http://www.w3.org/2000/svg" version="1.1" viewBox="0.00 0.00 614.00 234.00">
<path fill="#ffffff" d="
  M 13.42 0.00
  Q 19.87 1.54 22.40 6.85
  Q 24.45 11.12 27.50 20.49
  Q 36.89 49.29 44.58 76.19
  Q 46.47 82.78 49.30 91.50
  C 54.67 108.03 59.56 121.89 68.45 148.11
  A 0.22 0.22 0.0 0 0 68.87 148.08
  Q 70.01 142.18 72.11 135.13
  C 77.05 118.53 84.96 102.37 97.95 91.97
  C 108.00 83.91 120.36 82.63 132.62 86.89
  C 147.72 92.14 160.10 103.80 168.88 116.87
  Q 180.67 134.42 187.39 154.11
  Q 189.75 161.04 196.83 183.16
  Q 199.00 189.94 198.39 193.28
  Q 197.09 200.40 190.33 204.05
  C 182.00 208.55 172.72 202.95 170.07 194.36
  Q 161.68 167.14 152.64 142.84
  C 147.42 128.79 137.78 112.54 122.12 109.14
  Q 116.57 107.93 112.44 113.05
  C 101.64 126.42 97.16 143.52 95.11 162.29
  C 93.13 180.48 93.97 197.14 94.82 216.75
  C 95.26 226.72 86.28 235.59 76.10 233.36
  C 69.48 231.91 66.45 226.56 63.92 220.36
  Q 58.17 206.28 53.11 191.91
  Q 36.06 143.57 25.50 109.77
  C 16.39 80.62 10.49 53.08 2.47 21.30
  Q 1.50 17.47 0.85 11.67
  A 4.51 4.43 47.3 0 1 0.89 10.34
  Q 2.28 2.65 9.65 0.00
  L 13.42 0.00
  Z"
/>
<path fill="#ffffff" d="
  M 568.84 78.52
  Q 565.44 94.02 552.96 100.86
  Q 538.11 109.00 520.71 105.95
  C 489.12 100.42 476.96 68.02 492.67 41.35
  Q 504.09 21.95 524.34 13.64
  C 532.75 10.19 541.06 9.42 548.99 12.52
  Q 556.70 15.54 563.56 20.39
  Q 566.06 22.16 566.29 24.96
  A 0.82 0.81 72.7 0 1 565.88 25.75
  L 564.35 26.63
  A 0.49 0.49 0.0 0 0 564.24 27.39
  Q 598.84 64.60 610.30 113.66
  C 615.77 137.07 614.69 160.62 600.82 180.07
  C 587.64 198.55 566.19 212.05 545.05 219.81
  C 536.58 222.93 528.44 223.66 519.30 221.79
  Q 506.96 219.27 498.15 214.59
  Q 491.38 211.00 480.07 201.66
  A 0.09 0.08 76.3 0 1 480.15 201.51
  Q 480.18 201.52 480.20 201.51
  A 0.12 0.04 38.7 0 1 480.29 201.54
  C 484.11 204.42 490.12 207.10 495.09 206.83
  C 497.07 206.72 500.11 207.05 502.62 206.48
  Q 509.87 204.82 515.20 201.92
  Q 523.81 197.22 532.44 193.79
  Q 544.59 188.95 548.84 186.65
  C 564.55 178.12 581.51 165.52 583.81 146.68
  C 586.62 123.74 579.81 100.01 569.16 78.48
  A 0.17 0.17 0.0 0 0 568.84 78.52
  Z
  M 538.05 34.79
  A 0.60 0.60 0.0 0 0 537.21 34.29
  Q 523.93 39.97 516.74 51.69
  C 511.90 59.57 509.46 72.63 520.01 77.36
  C 526.24 80.16 534.68 79.73 540.57 77.11
  Q 542.76 76.14 543.23 74.48
  Q 544.20 71.09 543.81 66.76
  Q 542.53 52.52 538.40 38.06
  C 538.19 37.35 538.14 35.82 538.05 34.79
  Z"
/>
<path fill="#ffffff" d="
  M 375.90 66.25
  A 0.40 0.40 0.0 0 0 376.60 66.18
  Q 383.83 48.96 397.92 36.97
  C 415.51 21.99 437.02 33.50 448.96 49.03
  C 459.48 62.71 466.42 79.24 471.71 96.28
  Q 474.37 104.83 475.06 108.94
  A 11.74 10.02 82.4 0 1 475.24 110.59
  C 475.30 112.07 475.04 116.81 474.49 118.56
  Q 472.11 126.06 464.97 129.40
  A 4.41 4.39 -48.9 0 1 461.81 129.62
  C 451.90 126.61 448.35 119.12 445.33 108.90
  Q 441.68 96.55 436.00 81.72
  C 431.84 70.84 426.90 60.06 419.93 51.11
  C 416.96 47.30 413.65 43.48 408.91 47.19
  C 400.53 53.75 395.17 63.89 392.97 74.01
  Q 388.36 95.11 391.90 116.82
  Q 396.00 141.99 396.77 145.81
  Q 398.18 152.88 397.26 156.14
  C 395.50 162.44 389.69 167.31 382.94 167.15
  C 374.93 166.97 369.46 160.66 368.49 152.66
  Q 364.72 121.50 364.52 113.71
  Q 364.03 95.29 362.45 76.01
  Q 362.16 72.54 363.66 68.15
  C 365.42 62.99 372.59 61.47 375.90 66.25
  Z"
/>
<path fill="#ffffff" d="
  M 300.53 143.57
  A 0.23 0.23 0.0 0 0 300.15 143.60
  Q 291.86 158.96 274.97 164.70
  Q 268.86 166.77 263.50 166.74
  Q 239.25 166.56 223.83 150.44
  C 208.96 134.90 211.81 110.17 225.77 95.52
  Q 241.87 78.63 265.89 79.04
  C 273.93 79.18 282.24 82.41 288.55 87.26
  A 2.17 2.15 -29.3 0 0 290.11 87.69
  C 299.66 86.65 304.94 93.87 308.61 101.63
  Q 316.26 117.81 327.20 130.79
  Q 331.40 135.78 340.76 145.76
  Q 342.76 147.89 345.00 155.04
  C 346.27 159.08 344.43 165.32 340.55 167.78
  C 334.15 171.83 329.11 170.53 322.95 167.40
  Q 320.59 166.19 315.83 161.16
  Q 306.31 151.11 300.53 143.57
  Z
  M 278.33 102.77
  Q 268.41 103.54 259.42 106.64
  C 251.06 109.53 241.45 117.45 243.05 127.28
  A 3.38 3.15 28.9 0 0 243.37 128.26
  C 246.86 135.08 255.74 137.79 263.04 137.81
  C 272.24 137.85 276.83 131.86 278.89 123.65
  Q 281.34 113.88 278.95 103.23
  A 0.60 0.59 -7.9 0 0 278.33 102.77
  Z"
/>
<path fill="#ffffff" d="
  M 479.14 200.94
  Q 478.97 200.98 478.74 200.85
  A 0.18 0.17 72.5 0 1 478.90 200.54
  Q 479.18 200.68 479.22 200.79
  A 0.11 0.11 0.0 0 1 479.14 200.94
  Z"
/>
</svg>
