<?xml version="1.0" encoding="UTF-8" standalone="no"?>
<!DOCTYPE svg PUBLIC "-//W3C//DTD SVG 1.1//EN" "http://www.w3.org/Graphics/SVG/1.1/DTD/svg11.dtd">
<svg xmlns="http://www.w3.org/2000/svg" version="1.1" viewBox="0.00 0.00 586.00 218.00">
<path fill="#ffffff" d="
  M 469.75 214.39
  Q 481.99 215.81 493.88 211.89
  Q 507.92 207.27 518.68 197.17
  Q 527.43 188.97 537.91 177.40
  Q 548.16 166.08 552.86 150.86
  Q 561.78 121.95 549.99 94.25
  Q 543.37 78.68 533.19 65.01
  A 0.18 0.18 0.0 0 0 532.87 65.10
  Q 529.53 89.76 505.49 94.30
  Q 489.57 97.31 474.12 90.45
  C 450.20 79.83 441.13 53.59 451.90 29.73
  Q 455.54 21.68 461.68 15.46
  C 472.16 4.85 492.40 -4.74 506.92 3.61
  Q 513.59 7.44 514.82 15.89
  A 0.49 0.49 0.0 0 0 515.35 16.32
  C 519.78 15.93 523.37 17.88 526.80 20.79
  Q 546.46 37.47 561.39 57.37
  C 575.26 75.87 584.38 97.48 585.46 120.50
  Q 587.09 155.15 569.17 183.69
  Q 561.20 196.38 551.26 204.22
  Q 543.22 210.56 530.99 214.00
  Q 516.29 218.13 500.87 217.53
  Q 487.14 217.00 469.75 214.39
  Z
  M 504.41 23.46
  C 492.79 23.83 480.23 31.20 477.02 42.63
  Q 472.28 59.49 488.68 65.88
  C 492.98 67.55 507.29 71.08 508.02 63.26
  Q 508.43 59.02 507.91 53.76
  Q 506.69 41.43 504.56 32.19
  Q 503.51 27.58 504.89 24.15
  A 0.50 0.50 0.0 0 0 504.41 23.46
  Z"
/>
<path fill="#ffffff" d="
  M 332.80 73.14
  Q 339.78 49.14 356.59 31.90
  Q 359.29 29.13 364.31 25.82
  Q 369.08 22.68 376.04 22.93
  C 393.65 23.55 408.51 51.17 414.99 65.29
  Q 424.08 85.10 431.10 106.63
  Q 433.13 112.87 433.36 118.71
  Q 433.80 130.21 425.57 137.82
  A 2.75 2.73 -53.4 0 1 422.53 138.28
  Q 409.80 132.17 405.20 118.52
  Q 394.63 87.16 387.66 69.38
  C 384.14 60.39 380.13 51.15 374.24 43.95
  A 0.99 0.99 0.0 0 0 372.80 43.84
  C 354.98 60.09 347.69 87.66 349.04 111.07
  Q 349.22 114.19 349.71 119.92
  Q 350.00 123.31 351.05 128.69
  Q 351.34 130.15 353.87 143.56
  Q 354.88 148.93 353.83 152.39
  C 350.10 164.64 333.98 166.88 327.26 155.35
  Q 325.82 152.88 325.32 146.87
  Q 322.57 113.39 312.52 79.45
  C 310.67 73.20 310.17 65.06 317.93 62.71
  C 323.99 60.88 330.03 68.40 332.19 73.19
  A 0.33 0.32 -49.2 0 0 332.80 73.14
  Z"
/>
<path fill="#ffffff" d="
  M 56.25 128.02
  A 0.28 0.28 0.0 0 0 56.77 128.01
  C 60.65 116.85 67.16 104.65 76.42 97.44
  Q 83.63 91.82 92.22 92.89
  C 105.55 94.56 119.00 110.22 126.67 120.86
  C 139.60 138.79 148.80 157.94 157.41 178.19
  Q 160.83 186.22 161.22 188.04
  C 162.63 194.48 162.39 200.50 157.23 205.06
  C 152.56 209.19 146.38 209.48 141.16 205.90
  Q 138.85 204.31 136.46 200.92
  Q 134.69 198.40 133.14 194.83
  Q 122.87 171.09 112.67 149.81
  C 107.14 138.26 100.76 126.46 91.48 118.30
  A 0.73 0.73 0.0 0 0 90.40 118.44
  C 82.18 130.66 77.79 145.20 77.84 159.75
  C 77.87 170.61 79.55 182.59 81.72 193.36
  Q 83.31 201.23 82.55 204.35
  C 80.39 213.19 71.00 218.55 62.36 214.36
  Q 56.14 211.35 53.60 204.16
  C 46.55 184.26 40.26 166.59 33.19 146.00
  Q 22.70 115.47 10.58 83.62
  C 8.14 77.21 4.96 70.18 2.53 63.73
  C 0.74 58.99 -0.52 51.01 5.00 48.71
  C 12.54 45.56 20.11 55.99 23.35 60.96
  C 36.86 81.75 47.18 105.06 56.25 128.02
  Z"
/>
<path fill="#ffffff" d="
  M 285.68 150.57
  A 0.29 0.29 0.0 0 1 285.85 151.11
  Q 280.82 153.88 274.69 153.04
  Q 261.47 151.23 253.54 140.43
  A 0.34 0.34 0.0 0 0 252.94 140.53
  Q 249.15 152.32 240.39 159.36
  C 227.03 170.11 208.89 171.91 193.37 164.86
  Q 184.37 160.78 178.81 153.56
  C 166.54 137.63 168.78 116.60 180.05 100.52
  C 190.13 86.13 208.32 75.13 226.20 75.88
  Q 238.44 76.39 245.31 86.48
  A 1.82 1.72 86.1 0 0 245.95 87.07
  L 250.06 89.32
  A 2.96 2.83 79.9 0 1 250.58 89.70
  Q 253.37 92.24 256.78 96.80
  Q 263.94 106.39 274.12 122.17
  Q 281.15 133.05 282.26 144.42
  Q 282.28 144.61 283.81 149.45
  A 1.28 1.24 9.0 0 0 284.31 150.12
  Q 285.09 150.64 285.68 150.57
  Z
  M 229.49 99.68
  C 220.19 100.21 211.08 106.00 205.33 113.06
  C 199.72 119.96 194.85 133.29 205.16 138.86
  C 213.67 143.47 225.13 142.28 233.52 138.43
  C 240.56 135.19 243.61 130.17 242.06 122.76
  A 2.82 2.76 23.8 0 0 241.70 121.86
  Q 235.66 112.06 231.84 105.42
  Q 231.43 104.72 230.17 100.17
  A 0.67 0.66 -9.1 0 0 229.49 99.68
  Z"
/>
</svg>
