<?xml version="1.0" encoding="UTF-8" standalone="no"?>
<!DOCTYPE svg PUBLIC "-//W3C//DTD SVG 1.1//EN" "http://www.w3.org/Graphics/SVG/1.1/DTD/svg11.dtd">
<svg xmlns="http://www.w3.org/2000/svg" version="1.1" viewBox="0.00 0.00 649.00 257.00">
<path fill="#ffffff" d="
  M 568.11 0.00
  Q 577.27 0.24 584.53 5.02
  Q 589.03 7.99 591.08 9.19
  Q 597.46 12.94 603.86 19.44
  C 618.41 34.22 629.79 52.04 638.97 70.78
  C 645.70 84.52 649.46 99.28 648.25 114.23
  C 644.16 164.99 592.40 193.86 548.70 204.25
  Q 541.53 205.95 537.18 205.93
  C 528.51 205.89 524.88 205.41 515.83 204.02
  C 509.16 203.00 503.69 201.32 496.80 199.79
  A 4.72 4.48 -24.7 0 1 495.86 199.47
  Q 490.40 196.97 484.24 194.76
  Q 478.21 192.59 464.97 184.03
  Q 469.00 185.71 472.94 187.60
  Q 474.09 188.15 480.74 189.35
  Q 485.21 190.15 488.70 189.82
  C 492.75 189.44 495.78 189.83 499.74 189.13
  Q 512.66 186.83 523.96 182.41
  Q 532.72 178.99 541.52 176.48
  Q 552.85 173.27 559.23 171.00
  C 586.39 161.34 619.23 141.51 619.49 108.49
  Q 619.57 98.28 613.80 83.86
  Q 604.76 61.29 589.48 42.90
  A 0.29 0.28 -59.2 0 0 588.98 43.03
  Q 582.48 74.59 554.05 85.71
  C 541.86 90.48 529.91 91.04 517.98 86.86
  C 505.70 82.54 497.96 71.94 498.75 58.75
  Q 499.27 50.19 504.65 40.87
  Q 515.31 22.39 536.03 9.79
  Q 549.93 1.32 564.89 0.00
  L 568.11 0.00
  Z
  M 562.73 29.27
  Q 549.12 33.43 538.50 44.03
  C 533.85 48.67 530.13 53.14 527.95 58.93
  A 0.82 0.82 0.0 0 0 528.56 60.03
  Q 536.86 61.57 545.63 59.06
  Q 558.06 55.49 561.59 42.77
  Q 563.41 36.24 563.30 29.68
  A 0.44 0.43 -8.9 0 0 562.73 29.27
  Z"
/>
<path fill="#ffffff" d="
  M 62.44 129.21
  A 0.33 0.33 0.0 0 0 63.04 129.29
  C 68.62 119.77 77.92 110.71 88.96 109.62
  C 101.03 108.44 113.47 115.38 122.79 123.00
  C 144.32 140.59 161.42 163.03 173.37 188.10
  Q 176.16 193.97 177.12 198.57
  C 178.78 206.50 175.27 216.58 165.39 216.16
  C 158.86 215.88 152.68 209.21 149.45 203.78
  Q 148.50 202.18 139.39 185.84
  C 130.47 169.83 119.80 153.68 106.89 140.86
  C 102.98 136.98 97.75 132.63 92.43 131.34
  A 1.90 1.85 35.5 0 0 91.05 131.55
  Q 88.25 133.24 86.39 135.70
  C 78.74 145.86 76.28 157.12 75.39 169.73
  Q 75.06 174.52 76.19 178.29
  Q 85.09 207.89 95.51 236.96
  A 5.60 5.40 34.1 0 1 95.84 238.52
  Q 96.68 250.40 86.29 255.05
  Q 82.49 256.75 77.13 255.33
  C 71.54 253.85 69.08 249.45 66.02 243.58
  Q 57.25 226.76 53.53 209.23
  Q 52.67 205.16 51.66 198.82
  Q 51.04 194.90 49.15 188.54
  Q 42.40 165.73 40.89 159.38
  Q 29.53 111.60 15.72 56.88
  C 12.12 42.62 7.94 30.85 2.42 15.57
  Q 0.95 11.52 0.82 7.48
  A 3.34 3.23 -40.0 0 1 0.92 6.53
  Q 2.44 0.61 8.58 1.51
  A 2.28 2.27 65.3 0 1 9.47 1.84
  Q 15.12 5.40 18.97 12.34
  Q 31.92 35.62 41.46 62.82
  Q 51.62 91.77 62.44 129.21
  Z"
/>
<path fill="#ffffff" d="
  M 371.73 84.88
  Q 371.90 84.53 374.02 76.77
  Q 374.92 73.48 377.20 67.99
  C 381.24 58.29 387.62 48.53 397.63 45.01
  C 405.66 42.19 414.07 45.46 420.45 50.46
  C 432.13 59.61 440.60 73.08 447.97 86.30
  Q 459.13 106.36 465.71 117.80
  C 469.83 124.96 473.86 133.33 470.27 141.16
  Q 467.65 146.88 461.46 146.90
  C 453.10 146.93 447.25 140.42 443.26 133.83
  C 434.30 119.06 429.01 106.61 419.98 86.78
  Q 416.36 78.81 410.54 70.71
  Q 407.98 67.15 404.85 65.03
  A 0.58 0.58 0.0 0 0 404.08 65.13
  Q 401.91 67.71 400.56 71.32
  C 391.24 96.30 389.89 124.56 395.01 150.75
  Q 396.10 156.31 397.87 164.47
  Q 399.13 170.29 398.03 174.01
  C 395.48 182.67 385.31 187.73 377.12 182.78
  Q 370.43 178.73 369.45 170.79
  Q 367.46 154.66 366.08 145.69
  Q 362.03 119.32 353.98 94.64
  C 353.26 92.41 352.16 88.31 352.25 85.91
  C 352.60 76.83 363.01 73.55 368.51 80.92
  Q 370.65 83.78 371.04 84.85
  A 0.38 0.37 47.5 0 0 371.73 84.88
  Z"
/>
<path fill="#ffffff" d="
  M 263.17 108.47
  Q 269.73 101.11 278.73 105.21
  A 4.39 4.08 -12.1 0 1 279.60 105.73
  Q 284.96 109.90 286.14 111.20
  Q 307.41 134.76 326.33 161.25
  Q 329.27 165.35 331.22 170.82
  C 333.05 175.93 331.28 183.62 328.94 188.48
  Q 328.12 190.18 325.48 190.20
  Q 315.90 190.24 310.11 185.97
  Q 306.45 183.28 300.19 174.33
  Q 292.85 163.84 283.60 152.74
  A 0.24 0.24 0.0 0 0 283.19 152.82
  Q 282.07 156.43 279.12 160.69
  Q 267.08 178.01 245.67 183.42
  C 228.90 187.65 209.88 183.28 199.83 168.67
  C 191.30 156.27 191.24 140.94 197.39 127.49
  Q 206.66 107.23 226.03 96.86
  C 233.38 92.92 243.71 90.52 251.59 93.66
  Q 261.54 97.62 262.74 108.33
  A 0.25 0.25 0.0 0 0 263.17 108.47
  Z
  M 259.99 113.80
  C 258.33 111.50 256.41 110.67 253.31 111.24
  C 237.62 114.15 226.79 125.43 221.97 140.23
  C 219.65 147.37 221.09 155.08 230.01 155.93
  Q 244.30 157.31 255.34 148.27
  Q 260.45 144.09 260.99 137.44
  Q 261.48 131.35 259.61 118.48
  A 4.31 4.24 -44.6 0 1 259.63 117.18
  L 260.11 114.31
  A 0.66 0.66 0.0 0 0 259.99 113.80
  Z"
/>
<path fill="#ffffff" d="
  M 463.49 183.01
  Q 463.22 182.91 462.98 182.73
  A 0.12 0.10 76.6 0 1 463.08 182.53
  Q 463.30 182.68 463.49 183.01
  Z"
/>
<path fill="#ffffff" d="
  M 464.97 184.03
  Q 464.02 183.74 463.49 183.01
  Q 464.47 183.27 464.97 184.03
  Z"
/>
</svg>
