<?xml version="1.0" encoding="UTF-8" standalone="no"?>
<!DOCTYPE svg PUBLIC "-//W3C//DTD SVG 1.1//EN" "http://www.w3.org/Graphics/SVG/1.1/DTD/svg11.dtd">
<svg xmlns="http://www.w3.org/2000/svg" version="1.1" viewBox="0.00 0.00 716.00 247.00">
<path fill="#ffffff" d="
  M 655.85 20.19
  Q 661.29 20.47 665.44 24.43
  Q 675.43 33.96 683.08 43.19
  Q 706.34 71.23 713.58 106.32
  Q 719.52 135.06 704.24 159.51
  C 694.25 175.48 680.29 187.18 661.88 192.61
  Q 649.11 196.38 635.69 197.62
  C 629.08 198.22 619.31 198.76 610.76 198.27
  Q 595.70 197.42 577.25 197.68
  Q 576.93 197.68 576.72 197.63
  A 0.10 0.10 0.0 0 1 576.75 197.43
  Q 577.74 197.49 578.48 197.40
  Q 586.69 196.36 589.74 195.73
  C 595.86 194.48 602.01 191.64 607.78 189.22
  Q 611.26 187.77 614.73 185.60
  C 630.94 175.46 645.23 164.07 660.86 150.85
  Q 669.01 143.95 673.71 134.67
  Q 683.43 115.50 679.13 93.85
  C 676.43 80.21 670.87 66.74 665.21 54.35
  Q 664.90 53.66 664.95 53.55
  Q 665.08 53.23 664.97 53.08
  A 0.26 0.26 0.0 0 0 664.51 53.20
  C 664.15 55.97 664.15 61.10 663.23 64.92
  Q 659.39 80.83 646.54 91.59
  C 630.20 105.27 604.42 110.16 585.72 97.45
  C 569.39 86.34 565.82 66.50 572.61 48.00
  C 583.56 18.13 619.88 -12.50 652.76 7.44
  C 656.35 9.62 662.39 14.16 658.24 18.76
  Q 657.99 19.05 655.80 19.86
  A 0.17 0.17 0.0 0 0 655.85 20.19
  Z
  M 652.53 20.89
  C 644.27 22.08 635.63 27.78 629.16 32.40
  Q 614.47 42.87 607.74 59.22
  C 606.99 61.03 606.49 64.20 606.57 66.34
  A 3.18 3.17 -80.1 0 0 608.54 69.16
  Q 622.33 74.77 636.17 69.48
  Q 647.12 65.30 647.57 53.78
  Q 647.57 53.59 648.23 36.00
  Q 648.49 29.00 650.61 23.38
  Q 650.87 22.71 652.68 21.25
  A 0.20 0.20 0.0 0 0 652.53 20.89
  Z"
/>
<path fill="#ffffff" d="
  M 0.00 31.00
  L 0.00 27.80
  C 1.01 20.16 7.73 14.96 15.42 16.48
  A 4.31 3.98 -25.5 0 1 16.32 16.76
  Q 23.46 19.85 28.43 27.61
  Q 42.07 48.90 50.52 68.51
  Q 60.40 91.43 68.08 113.76
  A 0.29 0.29 0.0 0 0 68.59 113.83
  Q 71.53 109.50 73.79 106.81
  C 83.81 94.90 97.96 86.50 113.49 88.12
  C 129.64 89.80 142.76 103.79 152.66 115.70
  Q 186.03 155.84 206.25 204.61
  C 208.04 208.93 209.92 215.78 208.34 221.13
  C 205.67 230.20 198.83 237.13 188.84 235.50
  C 178.23 233.76 173.51 227.07 169.27 217.00
  Q 161.13 197.70 151.66 181.56
  Q 148.21 175.69 140.33 162.91
  C 132.84 150.78 125.04 138.99 115.73 129.06
  Q 113.60 126.79 110.72 125.18
  A 0.89 0.89 0.0 0 0 109.76 125.24
  Q 100.21 132.29 98.33 144.33
  Q 96.92 153.38 97.42 164.01
  C 98.26 182.07 101.30 199.05 103.69 216.51
  C 104.33 221.15 105.38 227.30 104.15 231.48
  C 100.86 242.71 89.74 249.04 78.58 245.57
  C 69.91 242.87 66.17 236.39 63.35 227.96
  C 50.89 190.70 37.57 144.80 29.30 118.45
  Q 16.36 77.25 9.57 59.64
  Q 3.32 43.44 1.39 37.86
  Q 0.46 35.19 0.00 31.00
  Z"
/>
<path fill="#ffffff" d="
  M 465.91 68.68
  Q 456.48 91.67 455.28 113.75
  Q 454.66 125.21 457.74 139.38
  Q 459.25 146.34 458.94 148.76
  C 456.49 167.59 433.02 173.38 422.41 156.77
  Q 420.79 154.24 419.34 147.82
  Q 416.64 135.85 415.15 130.81
  Q 407.94 106.37 403.24 80.52
  C 402.35 75.61 403.73 68.67 408.69 66.18
  C 414.56 63.23 419.76 67.13 423.76 71.85
  A 0.33 0.33 0.0 0 0 424.33 71.73
  Q 428.06 59.20 433.81 49.80
  C 438.10 42.77 443.19 37.06 451.11 33.14
  C 455.73 30.86 458.97 30.98 464.55 30.84
  A 6.67 6.61 -39.3 0 1 466.13 30.99
  C 493.09 36.70 509.55 66.27 519.54 89.21
  Q 527.15 106.69 529.50 112.87
  C 530.49 115.49 530.89 117.44 531.50 120.01
  C 533.68 129.17 529.63 142.01 518.88 143.59
  C 512.87 144.47 505.74 140.05 502.16 135.62
  Q 498.29 130.83 495.92 124.81
  Q 490.73 111.66 484.02 95.74
  C 479.90 85.95 474.45 75.51 466.76 68.48
  A 0.54 0.53 -57.9 0 0 465.91 68.68
  Z"
/>
<path fill="#ffffff" d="
  M 326.53 159.87
  A 0.29 0.28 -60.2 0 0 326.06 160.00
  C 317.02 191.96 279.72 200.81 253.02 184.43
  C 239.30 176.02 231.22 163.25 229.51 147.34
  Q 228.53 138.17 231.54 128.35
  C 237.42 109.17 253.16 93.93 272.73 88.74
  C 286.09 85.19 303.19 87.95 311.97 98.86
  A 3.49 3.47 -11.0 0 0 313.73 100.04
  Q 322.11 102.54 327.26 108.08
  Q 348.33 130.74 352.26 135.23
  Q 356.00 139.51 358.59 145.87
  C 361.52 153.06 362.32 166.66 352.20 168.65
  C 342.64 170.52 333.40 166.56 326.53 159.87
  Z
  M 294.83 123.37
  Q 289.71 122.59 285.74 122.92
  C 277.99 123.57 271.19 131.00 269.03 138.00
  Q 266.99 144.63 270.38 148.92
  C 273.98 153.48 283.40 154.86 289.18 153.85
  C 295.56 152.74 296.25 146.73 296.35 141.26
  Q 296.50 133.49 295.62 124.20
  A 0.94 0.93 1.6 0 0 294.83 123.37
  Z"
/>
</svg>
