<?xml version="1.0" encoding="UTF-8" standalone="no"?>
<!DOCTYPE svg PUBLIC "-//W3C//DTD SVG 1.1//EN" "http://www.w3.org/Graphics/SVG/1.1/DTD/svg11.dtd">
<svg xmlns="http://www.w3.org/2000/svg" version="1.1" viewBox="0.00 0.00 669.00 245.00">
<path fill="#ffffff" d="
  M 9.71 0.00
  C 14.34 0.85 16.96 4.42 18.45 8.78
  C 22.28 19.99 25.08 29.51 28.67 39.64
  Q 41.50 75.85 51.53 112.23
  A 0.31 0.31 0.0 0 0 52.09 112.32
  C 69.52 85.58 103.26 70.57 127.93 99.86
  C 138.41 112.30 145.60 127.96 151.64 143.01
  Q 161.49 167.59 172.01 189.11
  A 4.92 4.61 -65.8 0 1 172.37 190.16
  Q 174.40 199.20 170.13 207.71
  A 1.95 1.93 88.3 0 1 169.42 208.47
  Q 168.06 209.29 166.20 208.80
  C 160.20 207.24 155.17 204.92 151.29 200.03
  Q 149.99 198.39 146.13 190.23
  C 136.69 170.28 128.11 148.40 120.16 129.60
  Q 116.05 119.90 109.60 111.98
  Q 101.69 102.26 89.72 107.19
  Q 85.29 109.01 81.17 112.68
  Q 64.10 127.88 62.35 151.03
  Q 62.26 152.20 62.99 155.03
  Q 70.39 184.08 82.60 227.18
  C 84.88 235.22 79.48 244.44 70.86 244.62
  Q 64.40 244.76 60.83 239.44
  Q 56.33 232.71 51.95 222.29
  C 43.50 202.19 38.80 181.03 38.53 158.37
  Q 38.51 156.47 37.96 154.16
  Q 34.81 140.81 28.34 118.13
  Q 18.58 83.91 6.50 41.75
  Q 3.36 30.79 1.10 17.85
  Q 0.15 12.43 1.47 7.16
  Q 2.99 1.04 8.96 0.00
  L 9.71 0.00
  Z"
/>
<path fill="#ffffff" d="
  M 493.53 193.57
  Q 495.44 193.65 497.71 194.19
  A 5.28 4.64 48.7 0 0 498.79 194.33
  Q 510.22 194.52 521.87 191.62
  C 526.90 190.37 532.42 188.21 538.18 186.94
  Q 539.62 186.62 541.44 185.93
  Q 570.03 175.09 596.36 160.34
  C 620.00 147.09 649.76 125.05 646.86 93.59
  C 644.64 69.39 627.32 49.55 610.48 33.38
  A 0.26 0.26 0.0 0 0 610.04 33.54
  C 606.77 61.43 584.15 79.26 556.99 81.65
  C 541.72 83.00 522.50 78.73 514.52 64.07
  C 506.32 49.00 512.67 33.24 524.82 22.28
  C 541.36 7.36 571.26 -4.13 591.38 11.31
  A 0.29 0.29 0.0 0 0 591.84 11.11
  Q 592.21 7.14 593.52 5.54
  C 598.25 -0.24 604.18 1.17 609.24 5.38
  Q 616.30 11.27 631.22 25.53
  C 650.35 43.83 666.11 65.53 668.57 92.64
  C 671.53 125.40 648.43 153.06 622.26 169.53
  Q 600.43 183.28 574.83 189.85
  Q 572.06 190.56 562.87 192.62
  C 557.56 193.80 552.75 194.06 547.71 194.96
  Q 544.00 195.62 536.64 195.67
  Q 533.38 195.69 525.52 196.07
  Q 519.66 196.35 499.77 194.98
  C 498.40 194.88 495.96 194.34 493.50 193.78
  A 0.11 0.11 0.0 0 1 493.53 193.57
  Z
  M 592.29 21.67
  C 572.92 16.80 552.80 23.35 539.33 37.79
  C 535.78 41.59 530.54 49.81 535.33 54.43
  C 537.63 56.65 541.22 58.15 544.26 58.81
  Q 560.14 62.25 575.01 55.75
  Q 589.01 49.62 592.03 34.58
  Q 593.46 27.52 592.96 22.45
  A 0.89 0.88 -85.9 0 0 592.29 21.67
  Z"
/>
<path fill="#ffffff" d="
  M 385.32 69.24
  A 0.26 0.26 0.0 0 0 385.80 69.19
  C 390.41 50.07 404.93 24.30 429.27 34.62
  C 445.55 41.53 458.16 60.32 465.64 76.10
  Q 473.46 92.57 478.55 110.20
  Q 480.40 116.61 480.26 121.74
  Q 480.20 123.76 478.26 128.31
  Q 476.39 132.72 471.71 135.14
  A 3.51 3.51 0.0 0 1 468.44 135.12
  Q 462.06 131.71 458.70 125.61
  Q 457.54 123.52 455.96 118.01
  C 451.15 101.27 444.41 85.10 435.80 70.19
  Q 429.77 59.77 422.33 53.49
  Q 419.23 50.88 416.55 50.10
  C 413.22 49.13 409.16 55.29 407.79 57.81
  C 402.87 66.84 400.76 77.55 400.09 87.76
  Q 399.04 103.62 401.29 122.20
  Q 402.04 128.38 403.01 133.26
  Q 403.74 136.92 405.15 144.36
  Q 406.22 149.97 405.19 153.21
  C 401.96 163.45 388.73 164.67 383.82 154.82
  Q 382.73 152.65 382.24 147.10
  Q 379.02 110.53 368.50 74.93
  Q 368.11 73.58 367.85 69.56
  A 3.43 3.13 -42.4 0 1 367.93 68.68
  C 369.98 60.37 380.10 58.82 384.11 66.63
  Q 384.13 66.66 385.32 69.24
  Z"
/>
<path fill="#ffffff" d="
  M 302.66 137.10
  Q 297.66 148.05 285.70 156.70
  C 271.10 167.25 251.28 171.24 234.42 163.57
  C 213.61 154.10 207.23 131.77 215.34 110.91
  Q 223.90 88.88 244.94 76.68
  Q 254.82 70.96 265.46 69.75
  Q 281.19 67.97 288.78 81.20
  Q 289.05 81.68 292.25 87.87
  A 0.77 0.76 72.2 0 0 293.04 88.28
  C 300.56 87.16 303.78 91.16 307.48 97.73
  Q 321.48 122.62 321.93 123.39
  Q 326.59 131.45 327.79 136.38
  Q 329.54 143.54 329.88 151.30
  A 2.16 2.09 34.6 0 0 330.02 152.00
  L 330.16 152.37
  A 0.91 0.91 0.0 0 1 329.02 153.55
  C 324.63 153.23 322.26 152.09 318.49 150.33
  Q 309.10 145.95 303.25 137.05
  A 0.34 0.34 0.0 0 0 302.66 137.10
  Z
  M 288.94 89.65
  Q 284.19 85.93 279.33 86.38
  C 264.72 87.74 251.56 96.48 242.97 108.43
  C 237.27 116.37 233.07 127.87 238.09 137.07
  C 240.41 141.31 246.31 144.29 250.75 145.12
  Q 266.46 148.05 280.96 140.14
  C 289.50 135.48 293.59 128.58 291.68 118.55
  Q 291.33 116.70 289.00 112.13
  C 285.38 105.06 280.73 96.36 288.93 90.28
  A 0.40 0.39 -44.2 0 0 288.94 89.65
  Z"
/>
<path fill="#ffffff" d="
  M 491.31 193.22
  L 490.04 193.13
  A 0.01 0.00 19.3 0 1 490.03 193.12
  Q 490.69 192.98 491.31 193.22
  Z"
/>
<path fill="#ffffff" d="
  M 491.31 193.22
  Q 491.49 193.21 491.66 193.25
  A 0.09 0.09 0.0 0 1 491.63 193.43
  Q 491.44 193.40 491.31 193.22
  Z"
/>
</svg>
