<?xml version="1.0" encoding="UTF-8" standalone="no"?>
<!DOCTYPE svg PUBLIC "-//W3C//DTD SVG 1.1//EN" "http://www.w3.org/Graphics/SVG/1.1/DTD/svg11.dtd">
<svg xmlns="http://www.w3.org/2000/svg" version="1.1" viewBox="-10.00 15.00 201.00 251.00">
<!-- Stroke path (drawn first) -->
<path fill="none" stroke="#000000" stroke-width="20" stroke-linejoin="round" stroke-linecap="round" d="
  M 80.26 255.00
  L 78.09 255.00
  Q 67.59 253.67 63.69 245.02
  Q 60.84 238.69 58.24 226.73
  Q 56.68 219.59 54.82 214.11
  C 44.25 183.00 31.00 148.51 19.09 115.33
  C 10.44 91.25 4.25 67.56 0.91 43.61
  C 0.21 38.54 1.39 30.91 6.14 27.85
  C 14.84 22.24 21.83 33.83 24.38 40.69
  C 38.08 77.54 49.13 107.68 63.51 139.43
  A 0.27 0.27 0.0 0 0 64.01 139.41
  C 69.51 124.08 77.71 107.01 93.58 101.95
  Q 99.53 100.05 106.04 101.26
  C 126.42 105.05 140.18 125.38 149.68 142.14
  Q 153.94 149.64 159.28 161.64
  C 165.97 176.65 173.03 192.17 179.07 207.96
  Q 181.49 214.31 178.98 220.97
  C 173.59 235.30 160.80 236.18 150.76 225.63
  Q 148.79 223.56 146.18 216.85
  Q 141.37 204.48 132.02 183.72
  Q 124.87 167.82 116.89 149.34
  C 113.61 141.73 109.42 133.22 103.42 127.70
  A 0.77 0.77 0.0 0 0 102.19 127.97
  Q 95.17 145.38 91.42 163.48
  Q 87.12 184.24 89.20 206.63
  C 89.88 213.94 93.16 222.07 95.06 228.47
  Q 96.61 233.64 96.46 236.78
  C 96.02 246.34 90.03 253.67 80.26 255.00
  Z"
/>
<!-- Fill path (drawn on top) -->
<path fill="#ffffff" stroke="#000000" stroke-width="6" stroke-linejoin="round" stroke-linecap="round" d="
  M 80.26 255.00
  L 78.09 255.00
  Q 67.59 253.67 63.69 245.02
  Q 60.84 238.69 58.24 226.73
  Q 56.68 219.59 54.82 214.11
  C 44.25 183.00 31.00 148.51 19.09 115.33
  C 10.44 91.25 4.25 67.56 0.91 43.61
  C 0.21 38.54 1.39 30.91 6.14 27.85
  C 14.84 22.24 21.83 33.83 24.38 40.69
  C 38.08 77.54 49.13 107.68 63.51 139.43
  A 0.27 0.27 0.0 0 0 64.01 139.41
  C 69.51 124.08 77.71 107.01 93.58 101.95
  Q 99.53 100.05 106.04 101.26
  C 126.42 105.05 140.18 125.38 149.68 142.14
  Q 153.94 149.64 159.28 161.64
  C 165.97 176.65 173.03 192.17 179.07 207.96
  Q 181.49 214.31 178.98 220.97
  C 173.59 235.30 160.80 236.18 150.76 225.63
  Q 148.79 223.56 146.18 216.85
  Q 141.37 204.48 132.02 183.72
  Q 124.87 167.82 116.89 149.34
  C 113.61 141.73 109.42 133.22 103.42 127.70
  A 0.77 0.77 0.0 0 0 102.19 127.97
  Q 95.17 145.38 91.42 163.48
  Q 87.12 184.24 89.20 206.63
  C 89.88 213.94 93.16 222.07 95.06 228.47
  Q 96.61 233.64 96.46 236.78
  C 96.02 246.34 90.03 253.67 80.26 255.00
  Z"
/>
</svg>
