<?xml version="1.0" encoding="UTF-8" standalone="no"?>
<!DOCTYPE svg PUBLIC "-//W3C//DTD SVG 1.1//EN" "http://www.w3.org/Graphics/SVG/1.1/DTD/svg11.dtd">
<svg xmlns="http://www.w3.org/2000/svg" version="1.1" viewBox="0.00 0.00 256.00 256.00">
<g stroke-width="2.00" fill="none" stroke-linecap="butt">
<path stroke="#754c82" vector-effect="non-scaling-stroke" d="
  M 144.59 53.70
  Q 130.92 61.29 127.71 77.77
  Q 126.28 85.15 129.37 92.25
  C 133.84 102.52 145.34 106.93 156.29 106.58
  Q 174.98 105.98 189.20 97.39
  C 196.27 93.12 201.34 86.44 200.25 77.76
  C 198.51 63.91 185.00 48.79 170.40 48.77
  Q 164.31 48.76 158.29 51.76
  A 1.52 1.47 37.0 0 1 157.34 51.88
  Q 150.41 50.46 144.59 53.70"
/>
<path stroke="#754c82" vector-effect="non-scaling-stroke" d="
  M 62.89 51.37
  Q 65.80 51.22 67.98 52.63
  A 0.30 0.29 55.7 0 1 67.88 53.17
  C 57.55 55.27 48.58 56.74 42.95 66.87
  C 35.31 80.64 35.80 98.64 49.66 107.74
  C 63.31 116.69 83.19 114.73 94.65 103.64
  Q 102.81 95.76 102.80 85.18
  C 102.77 70.19 93.26 56.36 79.47 50.63
  Q 71.75 47.42 62.83 51.12
  A 0.13 0.13 0.0 0 0 62.89 51.37"
/>
<path stroke="#754c82" vector-effect="non-scaling-stroke" d="
  M 222.48 188.43
  Q 216.05 193.15 207.74 195.01
  C 200.86 196.55 197.75 196.97 191.37 198.73
  Q 178.89 202.17 162.26 202.16
  Q 135.84 202.13 116.61 197.87
  C 99.08 193.99 85.81 186.48 75.71 172.30
  Q 69.26 163.26 66.13 157.65
  C 65.22 156.03 62.74 153.99 61.01 155.87
  Q 59.66 157.35 59.89 158.52
  Q 61.68 167.68 66.98 175.52
  Q 72.72 184.01 79.88 190.46
  A 3.51 3.51 0.0 0 0 80.51 190.91
  Q 82.74 192.18 84.87 194.22
  A 5.54 4.91 -3.5 0 0 85.61 194.80
  Q 95.78 201.32 106.10 204.43
  C 124.82 210.06 145.30 211.37 165.50 211.19
  C 179.43 211.07 195.31 209.31 206.60 201.09
  Q 213.88 195.79 222.50 188.46
  A 0.02 0.02 0.0 0 0 222.48 188.43"
/>
<path stroke="#754c82" vector-effect="non-scaling-stroke" d="
  M 158.62 62.95
  Q 158.68 61.27 158.28 60.21
  A 1.34 1.32 2.5 0 0 157.59 59.47
  C 154.56 58.07 151.06 59.42 148.50 61.23
  C 132.40 72.61 129.92 98.21 156.51 97.51
  C 165.41 97.27 189.16 92.80 191.30 81.27
  C 192.53 74.69 186.24 65.76 181.48 62.21
  Q 171.99 55.15 160.01 53.36
  A 0.28 0.28 0.0 0 0 159.77 53.84
  Q 160.72 54.79 161.19 55.89
  A 2.09 2.04 -52.3 0 1 161.33 57.08
  Q 160.81 60.00 159.06 63.07
  A 0.24 0.23 -29.4 0 1 158.62 62.95"
/>
<path stroke="#754c82" vector-effect="non-scaling-stroke" d="
  M 69.49 53.98
  C 60.71 56.24 53.52 63.28 49.58 71.24
  C 46.52 77.41 44.96 87.12 48.20 93.82
  C 54.83 107.54 74.15 107.49 85.27 100.34
  C 100.67 90.44 94.20 70.55 82.04 61.50
  Q 75.86 56.90 70.06 54.04
  A 0.88 0.84 -37.7 0 0 69.49 53.98"
/>
</g>
<path fill="#c691ff" d="
  M 256.00 0.00
  L 256.00 256.00
  L 0.00 256.00
  L 0.00 0.00
  L 256.00 0.00
  Z
  M 144.59 53.70
  Q 130.92 61.29 127.71 77.77
  Q 126.28 85.15 129.37 92.25
  C 133.84 102.52 145.34 106.93 156.29 106.58
  Q 174.98 105.98 189.20 97.39
  C 196.27 93.12 201.34 86.44 200.25 77.76
  C 198.51 63.91 185.00 48.79 170.40 48.77
  Q 164.31 48.76 158.29 51.76
  A 1.52 1.47 37.0 0 1 157.34 51.88
  Q 150.41 50.46 144.59 53.70
  Z
  M 62.89 51.37
  Q 65.80 51.22 67.98 52.63
  A 0.30 0.29 55.7 0 1 67.88 53.17
  C 57.55 55.27 48.58 56.74 42.95 66.87
  C 35.31 80.64 35.80 98.64 49.66 107.74
  C 63.31 116.69 83.19 114.73 94.65 103.64
  Q 102.81 95.76 102.80 85.18
  C 102.77 70.19 93.26 56.36 79.47 50.63
  Q 71.75 47.42 62.83 51.12
  A 0.13 0.13 0.0 0 0 62.89 51.37
  Z
  M 222.48 188.43
  Q 216.05 193.15 207.74 195.01
  C 200.86 196.55 197.75 196.97 191.37 198.73
  Q 178.89 202.17 162.26 202.16
  Q 135.84 202.13 116.61 197.87
  C 99.08 193.99 85.81 186.48 75.71 172.30
  Q 69.26 163.26 66.13 157.65
  C 65.22 156.03 62.74 153.99 61.01 155.87
  Q 59.66 157.35 59.89 158.52
  Q 61.68 167.68 66.98 175.52
  Q 72.72 184.01 79.88 190.46
  A 3.51 3.51 0.0 0 0 80.51 190.91
  Q 82.74 192.18 84.87 194.22
  A 5.54 4.91 -3.5 0 0 85.61 194.80
  Q 95.78 201.32 106.10 204.43
  C 124.82 210.06 145.30 211.37 165.50 211.19
  C 179.43 211.07 195.31 209.31 206.60 201.09
  Q 213.88 195.79 222.50 188.46
  A 0.02 0.02 0.0 0 0 222.48 188.43
  Z"
/>
<path fill="#240605" d="
  M 144.59 53.70
  Q 150.41 50.46 157.34 51.88
  A 1.52 1.47 37.0 0 0 158.29 51.76
  Q 164.31 48.76 170.40 48.77
  C 185.00 48.79 198.51 63.91 200.25 77.76
  C 201.34 86.44 196.27 93.12 189.20 97.39
  Q 174.98 105.98 156.29 106.58
  C 145.34 106.93 133.84 102.52 129.37 92.25
  Q 126.28 85.15 127.71 77.77
  Q 130.92 61.29 144.59 53.70
  Z
  M 158.62 62.95
  Q 158.68 61.27 158.28 60.21
  A 1.34 1.32 2.5 0 0 157.59 59.47
  C 154.56 58.07 151.06 59.42 148.50 61.23
  C 132.40 72.61 129.92 98.21 156.51 97.51
  C 165.41 97.27 189.16 92.80 191.30 81.27
  C 192.53 74.69 186.24 65.76 181.48 62.21
  Q 171.99 55.15 160.01 53.36
  A 0.28 0.28 0.0 0 0 159.77 53.84
  Q 160.72 54.79 161.19 55.89
  A 2.09 2.04 -52.3 0 1 161.33 57.08
  Q 160.81 60.00 159.06 63.07
  A 0.24 0.23 -29.4 0 1 158.62 62.95
  Z"
/>
<path fill="#240605" d="
  M 62.83 51.12
  Q 71.75 47.42 79.47 50.63
  C 93.26 56.36 102.77 70.19 102.80 85.18
  Q 102.81 95.76 94.65 103.64
  C 83.19 114.73 63.31 116.69 49.66 107.74
  C 35.80 98.64 35.31 80.64 42.95 66.87
  C 48.58 56.74 57.55 55.27 67.88 53.17
  A 0.30 0.29 55.7 0 0 67.98 52.63
  Q 65.80 51.22 62.89 51.37
  A 0.13 0.13 0.0 0 1 62.83 51.12
  Z
  M 69.49 53.98
  C 60.71 56.24 53.52 63.28 49.58 71.24
  C 46.52 77.41 44.96 87.12 48.20 93.82
  C 54.83 107.54 74.15 107.49 85.27 100.34
  C 100.67 90.44 94.20 70.55 82.04 61.50
  Q 75.86 56.90 70.06 54.04
  A 0.88 0.84 -37.7 0 0 69.49 53.98
  Z"
/>
<path fill="#c691ff" d="
  M 158.62 62.95
  A 0.24 0.23 -29.4 0 0 159.06 63.07
  Q 160.81 60.00 161.33 57.08
  A 2.09 2.04 -52.3 0 0 161.19 55.89
  Q 160.72 54.79 159.77 53.84
  A 0.28 0.28 0.0 0 1 160.01 53.36
  Q 171.99 55.15 181.48 62.21
  C 186.24 65.76 192.53 74.69 191.30 81.27
  C 189.16 92.80 165.41 97.27 156.51 97.51
  C 129.92 98.21 132.40 72.61 148.50 61.23
  C 151.06 59.42 154.56 58.07 157.59 59.47
  A 1.34 1.32 2.5 0 1 158.28 60.21
  Q 158.68 61.27 158.62 62.95
  Z"
/>
<path fill="#c691ff" d="
  M 69.49 53.98
  A 0.88 0.84 -37.7 0 1 70.06 54.04
  Q 75.86 56.90 82.04 61.50
  C 94.20 70.55 100.67 90.44 85.27 100.34
  C 74.15 107.49 54.83 107.54 48.20 93.82
  C 44.96 87.12 46.52 77.41 49.58 71.24
  C 53.52 63.28 60.71 56.24 69.49 53.98
  Z"
/>
<path fill="#240605" d="
  M 222.50 188.46
  Q 213.88 195.79 206.60 201.09
  C 195.31 209.31 179.43 211.07 165.50 211.19
  C 145.30 211.37 124.82 210.06 106.10 204.43
  Q 95.78 201.32 85.61 194.80
  A 5.54 4.91 -3.5 0 1 84.87 194.22
  Q 82.74 192.18 80.51 190.91
  A 3.51 3.51 0.0 0 1 79.88 190.46
  Q 72.72 184.01 66.98 175.52
  Q 61.68 167.68 59.89 158.52
  Q 59.66 157.35 61.01 155.87
  C 62.74 153.99 65.22 156.03 66.13 157.65
  Q 69.26 163.26 75.71 172.30
  C 85.81 186.48 99.08 193.99 116.61 197.87
  Q 135.84 202.13 162.26 202.16
  Q 178.89 202.17 191.37 198.73
  C 197.75 196.97 200.86 196.55 207.74 195.01
  Q 216.05 193.15 222.48 188.43
  A 0.02 0.02 0.0 0 1 222.50 188.46
  Z"
/>
</svg>
