<?xml version="1.0" encoding="UTF-8" standalone="no"?>
<!DOCTYPE svg PUBLIC "-//W3C//DTD SVG 1.1//EN" "http://www.w3.org/Graphics/SVG/1.1/DTD/svg11.dtd">
<svg xmlns="http://www.w3.org/2000/svg" version="1.1" viewBox="0.00 0.00 256.00 256.00">
<g stroke-width="2.00" fill="none" stroke-linecap="butt">
<path stroke="#ec7c49" vector-effect="non-scaling-stroke" d="
  M 218.57 79.64
  A 0.98 0.98 0.0 0 0 219.99 80.05
  Q 224.99 76.86 224.81 71.30
  C 224.37 57.60 219.47 39.85 209.15 30.84
  C 197.90 21.02 182.53 21.72 170.18 28.99
  Q 152.22 39.54 145.93 60.20
  C 144.28 65.62 142.74 75.91 146.28 81.01
  A 1.72 1.59 52.9 0 0 148.68 81.44
  Q 149.57 80.70 149.75 79.49
  C 151.62 67.51 154.44 57.03 161.98 47.53
  C 174.00 32.41 198.21 23.98 209.33 45.88
  Q 215.46 57.94 215.83 73.44
  A 1.45 1.41 -59.1 0 0 215.98 74.08
  L 218.57 79.64"
/>
<path stroke="#ec7c49" vector-effect="non-scaling-stroke" d="
  M 98.10 74.03
  Q 101.73 69.53 100.21 65.26
  Q 96.39 54.57 87.61 41.67
  C 80.07 30.62 68.58 23.28 55.45 28.79
  C 38.38 35.96 28.81 59.10 28.97 76.15
  C 29.01 81.58 30.96 88.41 35.43 91.85
  A 1.42 1.42 0.0 0 0 37.62 91.24
  Q 37.88 90.56 37.64 89.33
  Q 36.26 82.36 36.73 77.48
  C 37.69 67.35 41.19 56.51 46.68 47.97
  C 50.40 42.18 57.66 35.58 64.96 36.05
  C 73.67 36.62 79.74 45.29 83.94 52.56
  Q 89.40 62.01 92.29 69.28
  Q 93.02 71.14 97.15 74.16
  A 0.70 0.69 -52.3 0 0 98.10 74.03"
/>
<path stroke="#ec7c49" vector-effect="non-scaling-stroke" d="
  M 74.4034 118.2930
  A 13.45 11.52 -120.6 0 0 71.3343 135.7342
  A 13.45 11.52 -120.6 0 0 88.0966 141.4470
  A 13.45 11.52 -120.6 0 0 91.1657 124.0058
  A 13.45 11.52 -120.6 0 0 74.4034 118.2930"
/>
<path stroke="#ec7c49" vector-effect="non-scaling-stroke" d="
  M 158.13 119.59
  Q 151.34 115.46 142.80 119.36
  C 136.71 122.13 132.56 128.83 135.96 135.29
  Q 138.67 140.43 144.65 142.29
  Q 155.99 145.83 165.81 139.16
  C 174.38 133.34 170.85 120.03 159.99 120.11
  A 3.51 3.45 60.1 0 1 158.13 119.59"
/>
<path stroke="#ec7c49" vector-effect="non-scaling-stroke" d="
  M 183.86 194.10
  Q 181.39 190.29 176.63 190.70
  Q 143.76 193.49 122.51 193.70
  Q 103.97 193.88 96.67 193.10
  Q 79.15 191.23 67.04 191.29
  Q 64.31 191.31 62.52 192.59
  A 2.45 2.24 -33.7 0 0 61.75 195.71
  Q 62.90 197.59 65.49 198.07
  Q 91.62 202.91 115.50 202.87
  Q 139.25 202.84 178.57 199.72
  C 181.20 199.52 182.27 198.54 183.75 196.66
  A 2.20 2.20 0.0 0 0 183.86 194.10"
/>
<path stroke="#ec7c49" vector-effect="non-scaling-stroke" d="
  M 79.0092 125.9380
  A 4.48 2.63 -121.2 0 0 79.0804 131.1324
  A 4.48 2.63 -121.2 0 0 83.6508 133.6020
  A 4.48 2.63 -121.2 0 0 83.5796 128.4076
  A 4.48 2.63 -121.2 0 0 79.0092 125.9380"
/>
<path stroke="#ec7c49" vector-effect="non-scaling-stroke" d="
  M 159.65 124.80
  Q 158.44 125.93 157.49 125.85
  C 152.32 125.39 148.36 125.53 144.75 128.72
  A 2.46 2.35 -34.6 0 0 144.15 131.60
  Q 144.82 132.91 146.44 133.57
  C 151.04 135.45 157.22 135.11 161.40 131.72
  C 163.71 129.86 161.99 126.86 160.49 124.87
  A 0.57 0.57 0.0 0 0 159.65 124.80"
/>
</g>
<path fill="#febb71" d="
  M 256.00 0.00
  L 256.00 256.00
  L 0.00 256.00
  L 0.00 0.00
  L 256.00 0.00
  Z
  M 218.57 79.64
  A 0.98 0.98 0.0 0 0 219.99 80.05
  Q 224.99 76.86 224.81 71.30
  C 224.37 57.60 219.47 39.85 209.15 30.84
  C 197.90 21.02 182.53 21.72 170.18 28.99
  Q 152.22 39.54 145.93 60.20
  C 144.28 65.62 142.74 75.91 146.28 81.01
  A 1.72 1.59 52.9 0 0 148.68 81.44
  Q 149.57 80.70 149.75 79.49
  C 151.62 67.51 154.44 57.03 161.98 47.53
  C 174.00 32.41 198.21 23.98 209.33 45.88
  Q 215.46 57.94 215.83 73.44
  A 1.45 1.41 -59.1 0 0 215.98 74.08
  L 218.57 79.64
  Z
  M 98.10 74.03
  Q 101.73 69.53 100.21 65.26
  Q 96.39 54.57 87.61 41.67
  C 80.07 30.62 68.58 23.28 55.45 28.79
  C 38.38 35.96 28.81 59.10 28.97 76.15
  C 29.01 81.58 30.96 88.41 35.43 91.85
  A 1.42 1.42 0.0 0 0 37.62 91.24
  Q 37.88 90.56 37.64 89.33
  Q 36.26 82.36 36.73 77.48
  C 37.69 67.35 41.19 56.51 46.68 47.97
  C 50.40 42.18 57.66 35.58 64.96 36.05
  C 73.67 36.62 79.74 45.29 83.94 52.56
  Q 89.40 62.01 92.29 69.28
  Q 93.02 71.14 97.15 74.16
  A 0.70 0.69 -52.3 0 0 98.10 74.03
  Z
  M 74.4034 118.2930
  A 13.45 11.52 -120.6 0 0 71.3343 135.7342
  A 13.45 11.52 -120.6 0 0 88.0966 141.4470
  A 13.45 11.52 -120.6 0 0 91.1657 124.0058
  A 13.45 11.52 -120.6 0 0 74.4034 118.2930
  Z
  M 158.13 119.59
  Q 151.34 115.46 142.80 119.36
  C 136.71 122.13 132.56 128.83 135.96 135.29
  Q 138.67 140.43 144.65 142.29
  Q 155.99 145.83 165.81 139.16
  C 174.38 133.34 170.85 120.03 159.99 120.11
  A 3.51 3.45 60.1 0 1 158.13 119.59
  Z
  M 183.86 194.10
  Q 181.39 190.29 176.63 190.70
  Q 143.76 193.49 122.51 193.70
  Q 103.97 193.88 96.67 193.10
  Q 79.15 191.23 67.04 191.29
  Q 64.31 191.31 62.52 192.59
  A 2.45 2.24 -33.7 0 0 61.75 195.71
  Q 62.90 197.59 65.49 198.07
  Q 91.62 202.91 115.50 202.87
  Q 139.25 202.84 178.57 199.72
  C 181.20 199.52 182.27 198.54 183.75 196.66
  A 2.20 2.20 0.0 0 0 183.86 194.10
  Z"
/>
<path fill="#da3d21" d="
  M 218.57 79.64
  L 215.98 74.08
  A 1.45 1.41 -59.1 0 1 215.83 73.44
  Q 215.46 57.94 209.33 45.88
  C 198.21 23.98 174.00 32.41 161.98 47.53
  C 154.44 57.03 151.62 67.51 149.75 79.49
  Q 149.57 80.70 148.68 81.44
  A 1.72 1.59 52.9 0 1 146.28 81.01
  C 142.74 75.91 144.28 65.62 145.93 60.20
  Q 152.22 39.54 170.18 28.99
  C 182.53 21.72 197.90 21.02 209.15 30.84
  C 219.47 39.85 224.37 57.60 224.81 71.30
  Q 224.99 76.86 219.99 80.05
  A 0.98 0.98 0.0 0 1 218.57 79.64
  Z"
/>
<path fill="#da3d21" d="
  M 97.15 74.16
  Q 93.02 71.14 92.29 69.28
  Q 89.40 62.01 83.94 52.56
  C 79.74 45.29 73.67 36.62 64.96 36.05
  C 57.66 35.58 50.40 42.18 46.68 47.97
  C 41.19 56.51 37.69 67.35 36.73 77.48
  Q 36.26 82.36 37.64 89.33
  Q 37.88 90.56 37.62 91.24
  A 1.42 1.42 0.0 0 1 35.43 91.85
  C 30.96 88.41 29.01 81.58 28.97 76.15
  C 28.81 59.10 38.38 35.96 55.45 28.79
  C 68.58 23.28 80.07 30.62 87.61 41.67
  Q 96.39 54.57 100.21 65.26
  Q 101.73 69.53 98.10 74.03
  A 0.70 0.69 -52.3 0 1 97.15 74.16
  Z"
/>
<path fill="#da3d21" d="
  M 74.4034 118.2930
  A 13.45 11.52 -120.6 0 1 91.1657 124.0058
  A 13.45 11.52 -120.6 0 1 88.0966 141.4470
  A 13.45 11.52 -120.6 0 1 71.3343 135.7342
  A 13.45 11.52 -120.6 0 1 74.4034 118.2930
  Z
  M 79.0092 125.9380
  A 4.48 2.63 -121.2 0 0 79.0804 131.1324
  A 4.48 2.63 -121.2 0 0 83.6508 133.6020
  A 4.48 2.63 -121.2 0 0 83.5796 128.4076
  A 4.48 2.63 -121.2 0 0 79.0092 125.9380
  Z"
/>
<path fill="#da3d21" d="
  M 159.99 120.11
  C 170.85 120.03 174.38 133.34 165.81 139.16
  Q 155.99 145.83 144.65 142.29
  Q 138.67 140.43 135.96 135.29
  C 132.56 128.83 136.71 122.13 142.80 119.36
  Q 151.34 115.46 158.13 119.59
  A 3.51 3.45 60.1 0 0 159.99 120.11
  Z
  M 159.65 124.80
  Q 158.44 125.93 157.49 125.85
  C 152.32 125.39 148.36 125.53 144.75 128.72
  A 2.46 2.35 -34.6 0 0 144.15 131.60
  Q 144.82 132.91 146.44 133.57
  C 151.04 135.45 157.22 135.11 161.40 131.72
  C 163.71 129.86 161.99 126.86 160.49 124.87
  A 0.57 0.57 0.0 0 0 159.65 124.80
  Z"
/>
<path fill="#febb71" d="
  M 160.49 124.87
  C 161.99 126.86 163.71 129.86 161.40 131.72
  C 157.22 135.11 151.04 135.45 146.44 133.57
  Q 144.82 132.91 144.15 131.60
  A 2.46 2.35 -34.6 0 1 144.75 128.72
  C 148.36 125.53 152.32 125.39 157.49 125.85
  Q 158.44 125.93 159.65 124.80
  A 0.57 0.57 0.0 0 1 160.49 124.87
  Z"
/>
<ellipse fill="#febb71" cx="0.00" cy="0.00" transform="translate(81.33,129.77) rotate(-121.2)" rx="4.48" ry="2.63"/>
<path fill="#da3d21" d="
  M 183.86 194.10
  A 2.20 2.20 0.0 0 1 183.75 196.66
  C 182.27 198.54 181.20 199.52 178.57 199.72
  Q 139.25 202.84 115.50 202.87
  Q 91.62 202.91 65.49 198.07
  Q 62.90 197.59 61.75 195.71
  A 2.45 2.24 -33.7 0 1 62.52 192.59
  Q 64.31 191.31 67.04 191.29
  Q 79.15 191.23 96.67 193.10
  Q 103.97 193.88 122.51 193.70
  Q 143.76 193.49 176.63 190.70
  Q 181.39 190.29 183.86 194.10
  Z"
/>
</svg>
