<?xml version="1.0" encoding="UTF-8" standalone="no"?>
<!DOCTYPE svg PUBLIC "-//W3C//DTD SVG 1.1//EN" "http://www.w3.org/Graphics/SVG/1.1/DTD/svg11.dtd">
<svg xmlns="http://www.w3.org/2000/svg" version="1.1" viewBox="0.00 0.00 256.00 256.00">
<g stroke-width="2.00" fill="none" stroke-linecap="butt">
<path stroke="#504bdb" vector-effect="non-scaling-stroke" d="
  M 198.64 74.16
  Q 199.15 72.46 198.63 71.36
  C 197.99 69.98 196.47 67.92 194.73 68.10
  C 176.60 69.96 157.82 70.19 144.24 70.98
  C 139.95 71.22 136.24 75.22 141.02 78.78
  A 1.09 1.07 18.4 0 1 141.45 79.62
  Q 141.67 87.83 144.87 94.62
  C 150.43 106.42 163.97 108.96 174.96 103.69
  C 185.06 98.84 192.71 87.97 196.08 77.66
  A 2.66 2.60 -16.6 0 1 196.59 76.74
  L 198.39 74.62
  A 1.35 1.23 76.1 0 0 198.64 74.16"
/>
<path stroke="#504bdb" vector-effect="non-scaling-stroke" d="
  M 115.37 78.82
  C 116.03 76.85 114.55 75.05 113.01 73.75
  A 2.63 2.60 67.6 0 0 111.59 73.15
  Q 104.24 72.40 95.99 72.68
  Q 76.68 73.36 55.01 76.01
  C 51.65 76.41 48.51 77.43 48.62 81.07
  A 1.82 1.79 27.1 0 0 48.96 82.09
  Q 50.34 84.04 50.43 84.78
  Q 51.37 93.10 55.82 100.41
  C 62.28 111.01 73.08 114.06 85.09 112.05
  Q 98.09 109.86 105.59 98.83
  Q 111.63 89.93 115.37 78.82"
/>
<path stroke="#504bdb" vector-effect="non-scaling-stroke" d="
  M 71.54 157.67
  A 3.61 3.60 88.7 0 0 75.08 161.06
  Q 84.55 161.20 88.95 160.66
  Q 112.35 157.80 136.00 156.83
  A 0.85 0.85 0.0 0 1 136.85 157.42
  C 137.48 159.37 137.70 161.02 138.73 163.28
  Q 143.27 173.25 152.72 176.20
  C 166.50 180.51 179.72 173.06 185.08 159.80
  Q 186.91 155.29 185.64 150.80
  A 0.64 0.63 57.9 0 1 185.77 150.20
  Q 187.35 148.34 187.09 146.98
  A 1.11 1.10 -84.1 0 0 186.43 146.16
  Q 183.09 144.74 178.99 145.03
  Q 145.12 147.46 118.76 148.69
  Q 104.37 149.36 74.65 153.69
  A 3.65 3.65 0.0 0 0 71.53 157.52
  L 71.54 157.67"
/>
<path stroke="#504bdb" vector-effect="non-scaling-stroke" d="
  M 149.97 80.19
  C 151.35 85.73 152.03 90.49 154.85 93.59
  C 160.43 99.71 170.09 97.34 175.68 92.63
  Q 182.33 87.03 185.96 78.64
  A 0.35 0.35 0.0 0 0 185.62 78.15
  L 150.34 79.70
  A 0.40 0.39 -8.3 0 0 149.97 80.19"
/>
<path stroke="#504bdb" vector-effect="non-scaling-stroke" d="
  M 104.10 81.64
  Q 83.61 81.73 59.91 84.60
  A 0.51 0.51 0.0 0 0 59.47 85.21
  C 60.83 92.17 64.88 100.82 72.27 102.74
  C 80.46 104.86 90.48 103.12 96.21 96.19
  Q 101.23 90.12 104.43 82.13
  A 0.36 0.36 0.0 0 0 104.10 81.64"
/>
<path stroke="#504bdb" vector-effect="non-scaling-stroke" d="
  M 177.19 153.63
  Q 162.53 155.71 146.28 156.25
  A 0.46 0.46 0.0 0 0 145.86 156.87
  Q 146.84 159.49 147.98 161.51
  C 152.21 169.00 161.91 170.14 168.97 165.96
  Q 175.71 161.97 177.57 154.05
  A 0.34 0.34 0.0 0 0 177.19 153.63"
/>
</g>
<path fill="#5700b6" d="
  M 256.00 0.00
  L 256.00 256.00
  L 0.00 256.00
  L 0.00 0.00
  L 256.00 0.00
  Z
  M 198.64 74.16
  Q 199.15 72.46 198.63 71.36
  C 197.99 69.98 196.47 67.92 194.73 68.10
  C 176.60 69.96 157.82 70.19 144.24 70.98
  C 139.95 71.22 136.24 75.22 141.02 78.78
  A 1.09 1.07 18.4 0 1 141.45 79.62
  Q 141.67 87.83 144.87 94.62
  C 150.43 106.42 163.97 108.96 174.96 103.69
  C 185.06 98.84 192.71 87.97 196.08 77.66
  A 2.66 2.60 -16.6 0 1 196.59 76.74
  L 198.39 74.62
  A 1.35 1.23 76.1 0 0 198.64 74.16
  Z
  M 115.37 78.82
  C 116.03 76.85 114.55 75.05 113.01 73.75
  A 2.63 2.60 67.6 0 0 111.59 73.15
  Q 104.24 72.40 95.99 72.68
  Q 76.68 73.36 55.01 76.01
  C 51.65 76.41 48.51 77.43 48.62 81.07
  A 1.82 1.79 27.1 0 0 48.96 82.09
  Q 50.34 84.04 50.43 84.78
  Q 51.37 93.10 55.82 100.41
  C 62.28 111.01 73.08 114.06 85.09 112.05
  Q 98.09 109.86 105.59 98.83
  Q 111.63 89.93 115.37 78.82
  Z
  M 71.54 157.67
  A 3.61 3.60 88.7 0 0 75.08 161.06
  Q 84.55 161.20 88.95 160.66
  Q 112.35 157.80 136.00 156.83
  A 0.85 0.85 0.0 0 1 136.85 157.42
  C 137.48 159.37 137.70 161.02 138.73 163.28
  Q 143.27 173.25 152.72 176.20
  C 166.50 180.51 179.72 173.06 185.08 159.80
  Q 186.91 155.29 185.64 150.80
  A 0.64 0.63 57.9 0 1 185.77 150.20
  Q 187.35 148.34 187.09 146.98
  A 1.11 1.10 -84.1 0 0 186.43 146.16
  Q 183.09 144.74 178.99 145.03
  Q 145.12 147.46 118.76 148.69
  Q 104.37 149.36 74.65 153.69
  A 3.65 3.65 0.0 0 0 71.53 157.52
  L 71.54 157.67
  Z"
/>
<path fill="#4895ff" d="
  M 198.39 74.62
  L 196.59 76.74
  A 2.66 2.60 -16.6 0 0 196.08 77.66
  C 192.71 87.97 185.06 98.84 174.96 103.69
  C 163.97 108.96 150.43 106.42 144.87 94.62
  Q 141.67 87.83 141.45 79.62
  A 1.09 1.07 18.4 0 0 141.02 78.78
  C 136.24 75.22 139.95 71.22 144.24 70.98
  C 157.82 70.19 176.60 69.96 194.73 68.10
  C 196.47 67.92 197.99 69.98 198.63 71.36
  Q 199.15 72.46 198.64 74.16
  A 1.35 1.23 76.1 0 1 198.39 74.62
  Z
  M 149.97 80.19
  C 151.35 85.73 152.03 90.49 154.85 93.59
  C 160.43 99.71 170.09 97.34 175.68 92.63
  Q 182.33 87.03 185.96 78.64
  A 0.35 0.35 0.0 0 0 185.62 78.15
  L 150.34 79.70
  A 0.40 0.39 -8.3 0 0 149.97 80.19
  Z"
/>
<path fill="#4895ff" d="
  M 113.01 73.75
  C 114.55 75.05 116.03 76.85 115.37 78.82
  Q 111.63 89.93 105.59 98.83
  Q 98.09 109.86 85.09 112.05
  C 73.08 114.06 62.28 111.01 55.82 100.41
  Q 51.37 93.10 50.43 84.78
  Q 50.34 84.04 48.96 82.09
  A 1.82 1.79 27.1 0 1 48.62 81.07
  C 48.51 77.43 51.65 76.41 55.01 76.01
  Q 76.68 73.36 95.99 72.68
  Q 104.24 72.40 111.59 73.15
  A 2.63 2.60 67.6 0 1 113.01 73.75
  Z
  M 104.10 81.64
  Q 83.61 81.73 59.91 84.60
  A 0.51 0.51 0.0 0 0 59.47 85.21
  C 60.83 92.17 64.88 100.82 72.27 102.74
  C 80.46 104.86 90.48 103.12 96.21 96.19
  Q 101.23 90.12 104.43 82.13
  A 0.36 0.36 0.0 0 0 104.10 81.64
  Z"
/>
<path fill="#5700b6" d="
  M 149.97 80.19
  A 0.40 0.39 -8.3 0 1 150.34 79.70
  L 185.62 78.15
  A 0.35 0.35 0.0 0 1 185.96 78.64
  Q 182.33 87.03 175.68 92.63
  C 170.09 97.34 160.43 99.71 154.85 93.59
  C 152.03 90.49 151.35 85.73 149.97 80.19
  Z"
/>
<path fill="#5700b6" d="
  M 104.10 81.64
  A 0.36 0.36 0.0 0 1 104.43 82.13
  Q 101.23 90.12 96.21 96.19
  C 90.48 103.12 80.46 104.86 72.27 102.74
  C 64.88 100.82 60.83 92.17 59.47 85.21
  A 0.51 0.51 0.0 0 1 59.91 84.60
  Q 83.61 81.73 104.10 81.64
  Z"
/>
<path fill="#4895ff" d="
  M 71.54 157.67
  L 71.53 157.52
  A 3.65 3.65 0.0 0 1 74.65 153.69
  Q 104.37 149.36 118.76 148.69
  Q 145.12 147.46 178.99 145.03
  Q 183.09 144.74 186.43 146.16
  A 1.11 1.10 -84.1 0 1 187.09 146.98
  Q 187.35 148.34 185.77 150.20
  A 0.64 0.63 57.9 0 0 185.64 150.80
  Q 186.91 155.29 185.08 159.80
  C 179.72 173.06 166.50 180.51 152.72 176.20
  Q 143.27 173.25 138.73 163.28
  C 137.70 161.02 137.48 159.37 136.85 157.42
  A 0.85 0.85 0.0 0 0 136.00 156.83
  Q 112.35 157.80 88.95 160.66
  Q 84.55 161.20 75.08 161.06
  A 3.61 3.60 88.7 0 1 71.54 157.67
  Z
  M 177.19 153.63
  Q 162.53 155.71 146.28 156.25
  A 0.46 0.46 0.0 0 0 145.86 156.87
  Q 146.84 159.49 147.98 161.51
  C 152.21 169.00 161.91 170.14 168.97 165.96
  Q 175.71 161.97 177.57 154.05
  A 0.34 0.34 0.0 0 0 177.19 153.63
  Z"
/>
<path fill="#5700b6" d="
  M 177.57 154.05
  Q 175.71 161.97 168.97 165.96
  C 161.91 170.14 152.21 169.00 147.98 161.51
  Q 146.84 159.49 145.86 156.87
  A 0.46 0.46 0.0 0 1 146.28 156.25
  Q 162.53 155.71 177.19 153.63
  A 0.34 0.34 0.0 0 1 177.57 154.05
  Z"
/>
</svg>
