<?xml version="1.0" encoding="UTF-8" standalone="no"?>
<!DOCTYPE svg PUBLIC "-//W3C//DTD SVG 1.1//EN" "http://www.w3.org/Graphics/SVG/1.1/DTD/svg11.dtd">
<svg xmlns="http://www.w3.org/2000/svg" version="1.1" viewBox="0.00 0.00 256.00 256.00">
<g stroke-width="2.00" fill="none" stroke-linecap="butt">
<path stroke="#2f5b09" vector-effect="non-scaling-stroke" d="
  M 41.93 59.70
  C 32.11 62.71 29.90 70.95 26.67 80.14
  Q 24.02 87.71 26.91 95.02
  C 31.11 105.64 42.62 108.54 53.28 106.46
  C 65.20 104.12 76.09 97.29 79.99 85.55
  Q 82.26 78.70 80.34 73.35
  Q 78.26 67.52 77.96 66.65
  Q 76.48 62.35 74.57 60.54
  C 68.55 54.82 58.92 54.51 51.29 56.84
  Q 45.64 58.57 41.93 59.70"
/>
<path stroke="#2f5b09" vector-effect="non-scaling-stroke" d="
  M 148.04 67.01
  C 137.68 72.40 131.61 86.23 141.82 95.46
  Q 145.65 98.93 146.68 100.02
  Q 149.50 103.02 151.57 104.41
  C 161.30 110.90 174.87 109.77 184.03 103.04
  Q 185.09 102.25 189.30 97.95
  A 12.93 12.52 -85.2 0 1 190.73 96.70
  Q 195.60 93.08 197.44 90.39
  C 207.33 75.90 197.70 61.13 182.42 57.61
  Q 169.41 54.61 157.59 61.66
  Q 152.61 64.63 148.04 67.01"
/>
<path stroke="#2f5b09" vector-effect="non-scaling-stroke" d="
  M 108.05 159.11
  Q 108.80 160.80 109.48 160.86
  A 0.54 0.54 0.0 0 0 110.04 160.17
  Q 109.65 158.87 112.63 156.67
  Q 115.71 154.41 118.20 152.95
  C 122.17 150.62 126.31 154.09 128.45 157.33
  C 133.91 165.62 137.01 175.36 149.83 173.90
  Q 165.77 172.09 178.92 161.42
  C 182.19 158.76 187.67 152.26 187.11 147.72
  A 0.26 0.25 -28.7 0 0 186.66 147.59
  C 184.72 149.97 177.99 151.99 174.54 154.31
  C 166.47 159.73 157.59 164.46 147.79 165.37
  C 145.63 165.58 143.63 165.10 142.39 163.39
  Q 140.96 161.42 136.33 153.95
  C 133.04 148.66 127.07 143.80 120.64 144.12
  C 113.67 144.46 109.03 150.46 107.86 156.89
  A 0.33 0.33 0.0 0 1 107.25 157.00
  Q 107.21 156.94 107.31 156.69
  Q 107.43 156.41 107.16 155.85
  Q 103.88 149.06 96.80 146.42
  C 90.30 143.99 81.74 144.94 76.45 149.72
  C 72.01 153.72 70.62 158.92 68.57 165.15
  C 65.95 173.08 55.75 173.91 48.96 172.42
  Q 45.91 171.75 41.81 172.34
  Q 41.18 172.43 40.21 171.65
  A 0.31 0.31 0.0 0 0 39.71 171.89
  Q 39.76 177.01 43.59 179.97
  A 3.75 3.41 -12.7 0 0 44.40 180.43
  Q 52.19 183.55 61.73 181.23
  Q 73.77 178.30 77.30 167.57
  C 79.31 161.48 80.43 154.98 87.76 154.34
  Q 96.50 153.58 101.17 160.65
  Q 103.11 163.57 105.97 161.79
  A 1.92 1.90 -4.7 0 0 106.68 160.96
  L 107.47 159.11
  A 0.32 0.31 44.6 0 1 108.05 159.11"
/>
</g>
<path fill="#5d9100" d="
  M 256.00 0.00
  L 256.00 256.00
  L 0.00 256.00
  L 0.00 0.00
  L 256.00 0.00
  Z
  M 41.93 59.70
  C 32.11 62.71 29.90 70.95 26.67 80.14
  Q 24.02 87.71 26.91 95.02
  C 31.11 105.64 42.62 108.54 53.28 106.46
  C 65.20 104.12 76.09 97.29 79.99 85.55
  Q 82.26 78.70 80.34 73.35
  Q 78.26 67.52 77.96 66.65
  Q 76.48 62.35 74.57 60.54
  C 68.55 54.82 58.92 54.51 51.29 56.84
  Q 45.64 58.57 41.93 59.70
  Z
  M 148.04 67.01
  C 137.68 72.40 131.61 86.23 141.82 95.46
  Q 145.65 98.93 146.68 100.02
  Q 149.50 103.02 151.57 104.41
  C 161.30 110.90 174.87 109.77 184.03 103.04
  Q 185.09 102.25 189.30 97.95
  A 12.93 12.52 -85.2 0 1 190.73 96.70
  Q 195.60 93.08 197.44 90.39
  C 207.33 75.90 197.70 61.13 182.42 57.61
  Q 169.41 54.61 157.59 61.66
  Q 152.61 64.63 148.04 67.01
  Z
  M 108.05 159.11
  Q 108.80 160.80 109.48 160.86
  A 0.54 0.54 0.0 0 0 110.04 160.17
  Q 109.65 158.87 112.63 156.67
  Q 115.71 154.41 118.20 152.95
  C 122.17 150.62 126.31 154.09 128.45 157.33
  C 133.91 165.62 137.01 175.36 149.83 173.90
  Q 165.77 172.09 178.92 161.42
  C 182.19 158.76 187.67 152.26 187.11 147.72
  A 0.26 0.25 -28.7 0 0 186.66 147.59
  C 184.72 149.97 177.99 151.99 174.54 154.31
  C 166.47 159.73 157.59 164.46 147.79 165.37
  C 145.63 165.58 143.63 165.10 142.39 163.39
  Q 140.96 161.42 136.33 153.95
  C 133.04 148.66 127.07 143.80 120.64 144.12
  C 113.67 144.46 109.03 150.46 107.86 156.89
  A 0.33 0.33 0.0 0 1 107.25 157.00
  Q 107.21 156.94 107.31 156.69
  Q 107.43 156.41 107.16 155.85
  Q 103.88 149.06 96.80 146.42
  C 90.30 143.99 81.74 144.94 76.45 149.72
  C 72.01 153.72 70.62 158.92 68.57 165.15
  C 65.95 173.08 55.75 173.91 48.96 172.42
  Q 45.91 171.75 41.81 172.34
  Q 41.18 172.43 40.21 171.65
  A 0.31 0.31 0.0 0 0 39.71 171.89
  Q 39.76 177.01 43.59 179.97
  A 3.75 3.41 -12.7 0 0 44.40 180.43
  Q 52.19 183.55 61.73 181.23
  Q 73.77 178.30 77.30 167.57
  C 79.31 161.48 80.43 154.98 87.76 154.34
  Q 96.50 153.58 101.17 160.65
  Q 103.11 163.57 105.97 161.79
  A 1.92 1.90 -4.7 0 0 106.68 160.96
  L 107.47 159.11
  A 0.32 0.31 44.6 0 1 108.05 159.11
  Z"
/>
<path fill="#002411" d="
  M 26.67 80.14
  C 29.90 70.95 32.11 62.71 41.93 59.70
  Q 45.64 58.57 51.29 56.84
  C 58.92 54.51 68.55 54.82 74.57 60.54
  Q 76.48 62.35 77.96 66.65
  Q 78.26 67.52 80.34 73.35
  Q 82.26 78.70 79.99 85.55
  C 76.09 97.29 65.20 104.12 53.28 106.46
  C 42.62 108.54 31.11 105.64 26.91 95.02
  Q 24.02 87.71 26.67 80.14
  Z"
/>
<path fill="#002411" d="
  M 141.82 95.46
  C 131.61 86.23 137.68 72.40 148.04 67.01
  Q 152.61 64.63 157.59 61.66
  Q 169.41 54.61 182.42 57.61
  C 197.70 61.13 207.33 75.90 197.44 90.39
  Q 195.60 93.08 190.73 96.70
  A 12.93 12.52 -85.2 0 0 189.30 97.95
  Q 185.09 102.25 184.03 103.04
  C 174.87 109.77 161.30 110.90 151.57 104.41
  Q 149.50 103.02 146.68 100.02
  Q 145.65 98.93 141.82 95.46
  Z"
/>
<path fill="#002411" d="
  M 107.47 159.11
  L 106.68 160.96
  A 1.92 1.90 -4.7 0 1 105.97 161.79
  Q 103.11 163.57 101.17 160.65
  Q 96.50 153.58 87.76 154.34
  C 80.43 154.98 79.31 161.48 77.30 167.57
  Q 73.77 178.30 61.73 181.23
  Q 52.19 183.55 44.40 180.43
  A 3.75 3.41 -12.7 0 1 43.59 179.97
  Q 39.76 177.01 39.71 171.89
  A 0.31 0.31 0.0 0 1 40.21 171.65
  Q 41.18 172.43 41.81 172.34
  Q 45.91 171.75 48.96 172.42
  C 55.75 173.91 65.95 173.08 68.57 165.15
  C 70.62 158.92 72.01 153.72 76.45 149.72
  C 81.74 144.94 90.30 143.99 96.80 146.42
  Q 103.88 149.06 107.16 155.85
  Q 107.43 156.41 107.31 156.69
  Q 107.21 156.94 107.25 157.00
  A 0.33 0.33 0.0 0 0 107.86 156.89
  C 109.03 150.46 113.67 144.46 120.64 144.12
  C 127.07 143.80 133.04 148.66 136.33 153.95
  Q 140.96 161.42 142.39 163.39
  C 143.63 165.10 145.63 165.58 147.79 165.37
  C 157.59 164.46 166.47 159.73 174.54 154.31
  C 177.99 151.99 184.72 149.97 186.66 147.59
  A 0.26 0.25 -28.7 0 1 187.11 147.72
  C 187.67 152.26 182.19 158.76 178.92 161.42
  Q 165.77 172.09 149.83 173.90
  C 137.01 175.36 133.91 165.62 128.45 157.33
  C 126.31 154.09 122.17 150.62 118.20 152.95
  Q 115.71 154.41 112.63 156.67
  Q 109.65 158.87 110.04 160.17
  A 0.54 0.54 0.0 0 1 109.48 160.86
  Q 108.80 160.80 108.05 159.11
  A 0.32 0.31 44.6 0 0 107.47 159.11
  Z"
/>
</svg>
