<?xml version="1.0" encoding="UTF-8" standalone="no"?>
<!DOCTYPE svg PUBLIC "-//W3C//DTD SVG 1.1//EN" "http://www.w3.org/Graphics/SVG/1.1/DTD/svg11.dtd">
<svg xmlns="http://www.w3.org/2000/svg" version="1.1" viewBox="0.00 0.00 256.00 256.00">
<g stroke-width="2.00" fill="none" stroke-linecap="butt">
<path stroke="#b59499" vector-effect="non-scaling-stroke" d="
  M 95.17 126.04
  C 94.80 121.39 94.60 119.38 92.61 115.14
  Q 88.32 106.01 86.71 100.50
  Q 80.45 79.15 78.35 72.67
  Q 74.95 62.21 68.73 52.31
  A 3.34 3.33 60.9 0 0 64.44 51.08
  L 64.25 51.17
  A 3.16 3.15 64.9 0 0 62.76 55.29
  Q 67.52 65.94 69.87 74.70
  Q 75.44 95.42 79.76 108.00
  Q 81.93 114.32 85.07 119.97
  Q 88.00 125.24 94.23 126.83
  A 0.76 0.76 0.0 0 0 95.17 126.04"
/>
<path stroke="#b59499" vector-effect="non-scaling-stroke" d="
  M 135.27 121.89
  Q 138.18 114.30 136.41 108.06
  Q 131.08 89.25 128.62 76.60
  C 127.26 69.56 125.11 62.67 122.59 56.72
  Q 121.47 54.06 119.68 52.55
  A 1.72 1.71 32.7 0 0 117.01 53.13
  Q 116.05 55.21 116.42 58.02
  Q 119.98 84.90 127.88 110.82
  Q 128.06 111.42 129.21 113.91
  A 1.21 1.00 21.0 0 0 129.34 114.14
  L 134.79 121.95
  A 0.28 0.27 -51.7 0 0 135.27 121.89"
/>
<path stroke="#b59499" vector-effect="non-scaling-stroke" d="
  M 151.38 203.50
  Q 158.72 197.96 164.84 190.45
  Q 167.61 187.05 170.65 182.38
  Q 178.43 170.40 183.41 159.93
  C 184.95 156.69 185.83 151.42 181.00 150.62
  C 178.93 150.28 177.61 152.24 176.25 154.01
  A 1.45 1.45 0.0 0 1 175.38 154.56
  C 173.14 155.02 171.18 155.55 169.29 156.34
  C 148.46 165.02 123.45 166.14 101.53 162.71
  C 94.58 161.62 83.22 158.43 75.50 157.73
  Q 73.42 157.54 71.77 158.54
  A 2.25 2.23 -31.6 0 0 71.02 161.63
  Q 71.54 162.48 72.32 163.01
  A 0.63 0.63 0.0 0 1 72.54 163.80
  Q 71.99 164.99 72.43 165.76
  Q 76.50 172.85 83.76 187.64
  Q 89.27 198.86 99.13 208.01
  Q 108.32 216.54 120.15 216.71
  Q 127.35 216.81 135.72 213.21
  Q 143.42 209.89 149.58 205.06
  Q 150.42 204.41 150.96 203.86
  A 3.83 2.99 -78.6 0 1 151.38 203.50"
/>
<path stroke="#b59499" vector-effect="non-scaling-stroke" d="
  M 169.78 165.91
  C 145.23 175.29 116.04 175.45 90.89 169.87
  Q 85.62 168.70 80.83 166.74
  A 0.17 0.17 0.0 0 0 80.64 167.02
  Q 84.08 170.69 86.87 175.46
  C 94.42 188.41 103.37 206.41 118.49 207.35
  C 132.33 208.21 146.34 197.69 155.30 187.49
  Q 163.98 177.61 169.89 166.03
  A 0.09 0.09 0.0 0 0 169.78 165.91"
/>
</g>
<path fill="#6b2833" d="
  M 256.00 0.00
  L 256.00 256.00
  L 0.00 256.00
  L 0.00 0.00
  L 256.00 0.00
  Z
  M 95.17 126.04
  C 94.80 121.39 94.60 119.38 92.61 115.14
  Q 88.32 106.01 86.71 100.50
  Q 80.45 79.15 78.35 72.67
  Q 74.95 62.21 68.73 52.31
  A 3.34 3.33 60.9 0 0 64.44 51.08
  L 64.25 51.17
  A 3.16 3.15 64.9 0 0 62.76 55.29
  Q 67.52 65.94 69.87 74.70
  Q 75.44 95.42 79.76 108.00
  Q 81.93 114.32 85.07 119.97
  Q 88.00 125.24 94.23 126.83
  A 0.76 0.76 0.0 0 0 95.17 126.04
  Z
  M 135.27 121.89
  Q 138.18 114.30 136.41 108.06
  Q 131.08 89.25 128.62 76.60
  C 127.26 69.56 125.11 62.67 122.59 56.72
  Q 121.47 54.06 119.68 52.55
  A 1.72 1.71 32.7 0 0 117.01 53.13
  Q 116.05 55.21 116.42 58.02
  Q 119.98 84.90 127.88 110.82
  Q 128.06 111.42 129.21 113.91
  A 1.21 1.00 21.0 0 0 129.34 114.14
  L 134.79 121.95
  A 0.28 0.27 -51.7 0 0 135.27 121.89
  Z
  M 151.38 203.50
  Q 158.72 197.96 164.84 190.45
  Q 167.61 187.05 170.65 182.38
  Q 178.43 170.40 183.41 159.93
  C 184.95 156.69 185.83 151.42 181.00 150.62
  C 178.93 150.28 177.61 152.24 176.25 154.01
  A 1.45 1.45 0.0 0 1 175.38 154.56
  C 173.14 155.02 171.18 155.55 169.29 156.34
  C 148.46 165.02 123.45 166.14 101.53 162.71
  C 94.58 161.62 83.22 158.43 75.50 157.73
  Q 73.42 157.54 71.77 158.54
  A 2.25 2.23 -31.6 0 0 71.02 161.63
  Q 71.54 162.48 72.32 163.01
  A 0.63 0.63 0.0 0 1 72.54 163.80
  Q 71.99 164.99 72.43 165.76
  Q 76.50 172.85 83.76 187.64
  Q 89.27 198.86 99.13 208.01
  Q 108.32 216.54 120.15 216.71
  Q 127.35 216.81 135.72 213.21
  Q 143.42 209.89 149.58 205.06
  Q 150.42 204.41 150.96 203.86
  A 3.83 2.99 -78.6 0 1 151.38 203.50
  Z"
/>
<path fill="#ffffff" d="
  M 95.17 126.04
  A 0.76 0.76 0.0 0 1 94.23 126.83
  Q 88.00 125.24 85.07 119.97
  Q 81.93 114.32 79.76 108.00
  Q 75.44 95.42 69.87 74.70
  Q 67.52 65.94 62.76 55.29
  A 3.16 3.15 64.9 0 1 64.25 51.17
  L 64.44 51.08
  A 3.34 3.33 60.9 0 1 68.73 52.31
  Q 74.95 62.21 78.35 72.67
  Q 80.45 79.15 86.71 100.50
  Q 88.32 106.01 92.61 115.14
  C 94.60 119.38 94.80 121.39 95.17 126.04
  Z"
/>
<path fill="#ffffff" d="
  M 134.79 121.95
  L 129.34 114.14
  A 1.21 1.00 21.0 0 1 129.21 113.91
  Q 128.06 111.42 127.88 110.82
  Q 119.98 84.90 116.42 58.02
  Q 116.05 55.21 117.01 53.13
  A 1.72 1.71 32.7 0 1 119.68 52.55
  Q 121.47 54.06 122.59 56.72
  C 125.11 62.67 127.26 69.56 128.62 76.60
  Q 131.08 89.25 136.41 108.06
  Q 138.18 114.30 135.27 121.89
  A 0.28 0.27 -51.7 0 1 134.79 121.95
  Z"
/>
<path fill="#ffffff" d="
  M 150.96 203.86
  Q 150.42 204.41 149.58 205.06
  Q 143.42 209.89 135.72 213.21
  Q 127.35 216.81 120.15 216.71
  Q 108.32 216.54 99.13 208.01
  Q 89.27 198.86 83.76 187.64
  Q 76.50 172.85 72.43 165.76
  Q 71.99 164.99 72.54 163.80
  A 0.63 0.63 0.0 0 0 72.32 163.01
  Q 71.54 162.48 71.02 161.63
  A 2.25 2.23 -31.6 0 1 71.77 158.54
  Q 73.42 157.54 75.50 157.73
  C 83.22 158.43 94.58 161.62 101.53 162.71
  C 123.45 166.14 148.46 165.02 169.29 156.34
  C 171.18 155.55 173.14 155.02 175.38 154.56
  A 1.45 1.45 0.0 0 0 176.25 154.01
  C 177.61 152.24 178.93 150.28 181.00 150.62
  C 185.83 151.42 184.95 156.69 183.41 159.93
  Q 178.43 170.40 170.65 182.38
  Q 167.61 187.05 164.84 190.45
  Q 158.72 197.96 151.38 203.50
  A 3.83 2.99 -78.6 0 0 150.96 203.86
  Z
  M 169.78 165.91
  C 145.23 175.29 116.04 175.45 90.89 169.87
  Q 85.62 168.70 80.83 166.74
  A 0.17 0.17 0.0 0 0 80.64 167.02
  Q 84.08 170.69 86.87 175.46
  C 94.42 188.41 103.37 206.41 118.49 207.35
  C 132.33 208.21 146.34 197.69 155.30 187.49
  Q 163.98 177.61 169.89 166.03
  A 0.09 0.09 0.0 0 0 169.78 165.91
  Z"
/>
<path fill="#6b2833" d="
  M 169.78 165.91
  A 0.09 0.09 0.0 0 1 169.89 166.03
  Q 163.98 177.61 155.30 187.49
  C 146.34 197.69 132.33 208.21 118.49 207.35
  C 103.37 206.41 94.42 188.41 86.87 175.46
  Q 84.08 170.69 80.64 167.02
  A 0.17 0.17 0.0 0 1 80.83 166.74
  Q 85.62 168.70 90.89 169.87
  C 116.04 175.45 145.23 175.29 169.78 165.91
  Z"
/>
</svg>
