<?xml version="1.0" encoding="UTF-8" standalone="no"?>
<!DOCTYPE svg PUBLIC "-//W3C//DTD SVG 1.1//EN" "http://www.w3.org/Graphics/SVG/1.1/DTD/svg11.dtd">
<svg xmlns="http://www.w3.org/2000/svg" version="1.1" viewBox="0.00 0.00 256.00 256.00">
<g stroke-width="2.00" fill="none" stroke-linecap="butt">
<path stroke="#5285ed" vector-effect="non-scaling-stroke" d="
  M 155.04 54.84
  A 0.37 0.37 0.0 0 1 155.74 54.86
  Q 162.59 75.51 163.37 77.62
  C 165.45 83.33 169.17 91.60 176.36 90.26
  A 0.44 0.44 0.0 0 0 176.66 89.61
  Q 176.20 88.84 175.68 85.51
  Q 175.46 84.07 174.55 81.56
  Q 169.82 68.63 165.25 55.98
  Q 162.03 47.06 158.77 42.58
  Q 156.04 38.84 152.41 41.48
  A 4.02 3.82 -1.1 0 0 151.61 42.27
  Q 150.28 44.05 149.01 47.53
  Q 145.54 57.03 136.38 82.79
  Q 135.72 84.64 137.17 86.42
  C 139.19 88.92 142.30 86.06 143.26 83.99
  C 147.64 74.44 151.17 64.24 155.04 54.84"
/>
<path stroke="#5285ed" vector-effect="non-scaling-stroke" d="
  M 95.24 95.29
  C 93.89 94.30 93.45 91.89 92.52 88.83
  A 10.55 10.29 -68.9 0 0 91.60 86.68
  C 87.00 78.73 83.01 68.59 77.30 60.47
  Q 75.67 58.15 73.19 57.12
  A 1.50 1.47 -44.1 0 0 72.10 57.11
  L 70.93 57.57
  A 0.76 0.75 -29.6 0 1 70.08 57.34
  Q 68.57 55.48 66.15 56.63
  A 2.43 2.36 -81.6 0 0 65.34 57.25
  Q 64.07 58.75 63.35 61.58
  Q 59.12 78.28 56.54 91.51
  C 55.48 96.91 54.12 104.21 59.81 106.68
  A 1.59 1.58 -52.8 0 0 61.44 106.45
  Q 63.65 104.62 64.03 102.28
  Q 66.03 89.90 70.83 64.43
  A 0.19 0.19 0.0 0 1 71.20 64.40
  Q 77.18 80.04 82.68 89.10
  Q 86.78 95.86 95.01 95.96
  A 0.37 0.37 0.0 0 0 95.24 95.29"
/>
<path stroke="#5285ed" vector-effect="non-scaling-stroke" d="
  M 184.46 135.50
  Q 181.70 138.41 177.51 140.28
  C 170.92 143.22 165.87 144.53 158.94 147.46
  Q 148.87 151.72 135.50 152.94
  Q 108.74 155.36 85.61 145.40
  Q 84.45 144.90 82.61 144.49
  C 79.50 143.80 76.04 145.42 77.97 149.14
  C 79.56 152.23 86.45 155.23 89.20 156.35
  C 102.96 161.95 120.73 163.33 136.17 162.00
  Q 150.86 160.74 163.78 155.31
  C 172.48 151.66 180.05 143.64 184.75 135.72
  A 0.18 0.18 0.0 0 0 184.46 135.50"
/>
</g>
<path fill="#0079da" d="
  M 256.00 0.00
  L 256.00 256.00
  L 0.00 256.00
  L 0.00 0.00
  L 256.00 0.00
  Z
  M 155.04 54.84
  A 0.37 0.37 0.0 0 1 155.74 54.86
  Q 162.59 75.51 163.37 77.62
  C 165.45 83.33 169.17 91.60 176.36 90.26
  A 0.44 0.44 0.0 0 0 176.66 89.61
  Q 176.20 88.84 175.68 85.51
  Q 175.46 84.07 174.55 81.56
  Q 169.82 68.63 165.25 55.98
  Q 162.03 47.06 158.77 42.58
  Q 156.04 38.84 152.41 41.48
  A 4.02 3.82 -1.1 0 0 151.61 42.27
  Q 150.28 44.05 149.01 47.53
  Q 145.54 57.03 136.38 82.79
  Q 135.72 84.64 137.17 86.42
  C 139.19 88.92 142.30 86.06 143.26 83.99
  C 147.64 74.44 151.17 64.24 155.04 54.84
  Z
  M 95.24 95.29
  C 93.89 94.30 93.45 91.89 92.52 88.83
  A 10.55 10.29 -68.9 0 0 91.60 86.68
  C 87.00 78.73 83.01 68.59 77.30 60.47
  Q 75.67 58.15 73.19 57.12
  A 1.50 1.47 -44.1 0 0 72.10 57.11
  L 70.93 57.57
  A 0.76 0.75 -29.6 0 1 70.08 57.34
  Q 68.57 55.48 66.15 56.63
  A 2.43 2.36 -81.6 0 0 65.34 57.25
  Q 64.07 58.75 63.35 61.58
  Q 59.12 78.28 56.54 91.51
  C 55.48 96.91 54.12 104.21 59.81 106.68
  A 1.59 1.58 -52.8 0 0 61.44 106.45
  Q 63.65 104.62 64.03 102.28
  Q 66.03 89.90 70.83 64.43
  A 0.19 0.19 0.0 0 1 71.20 64.40
  Q 77.18 80.04 82.68 89.10
  Q 86.78 95.86 95.01 95.96
  A 0.37 0.37 0.0 0 0 95.24 95.29
  Z
  M 184.46 135.50
  Q 181.70 138.41 177.51 140.28
  C 170.92 143.22 165.87 144.53 158.94 147.46
  Q 148.87 151.72 135.50 152.94
  Q 108.74 155.36 85.61 145.40
  Q 84.45 144.90 82.61 144.49
  C 79.50 143.80 76.04 145.42 77.97 149.14
  C 79.56 152.23 86.45 155.23 89.20 156.35
  C 102.96 161.95 120.73 163.33 136.17 162.00
  Q 150.86 160.74 163.78 155.31
  C 172.48 151.66 180.05 143.64 184.75 135.72
  A 0.18 0.18 0.0 0 0 184.46 135.50
  Z"
/>
<path fill="#a491ff" d="
  M 155.04 54.84
  C 151.17 64.24 147.64 74.44 143.26 83.99
  C 142.30 86.06 139.19 88.92 137.17 86.42
  Q 135.72 84.64 136.38 82.79
  Q 145.54 57.03 149.01 47.53
  Q 150.28 44.05 151.61 42.27
  A 4.02 3.82 -1.1 0 1 152.41 41.48
  Q 156.04 38.84 158.77 42.58
  Q 162.03 47.06 165.25 55.98
  Q 169.82 68.63 174.55 81.56
  Q 175.46 84.07 175.68 85.51
  Q 176.20 88.84 176.66 89.61
  A 0.44 0.44 0.0 0 1 176.36 90.26
  C 169.17 91.60 165.45 83.33 163.37 77.62
  Q 162.59 75.51 155.74 54.86
  A 0.37 0.37 0.0 0 0 155.04 54.84
  Z"
/>
<path fill="#a491ff" d="
  M 95.24 95.29
  A 0.37 0.37 0.0 0 1 95.01 95.96
  Q 86.78 95.86 82.68 89.10
  Q 77.18 80.04 71.20 64.40
  A 0.19 0.19 0.0 0 0 70.83 64.43
  Q 66.03 89.90 64.03 102.28
  Q 63.65 104.62 61.44 106.45
  A 1.59 1.58 -52.8 0 1 59.81 106.68
  C 54.12 104.21 55.48 96.91 56.54 91.51
  Q 59.12 78.28 63.35 61.58
  Q 64.07 58.75 65.34 57.25
  A 2.43 2.36 -81.6 0 1 66.15 56.63
  Q 68.57 55.48 70.08 57.34
  A 0.76 0.75 -29.6 0 0 70.93 57.57
  L 72.10 57.11
  A 1.50 1.47 -44.1 0 1 73.19 57.12
  Q 75.67 58.15 77.30 60.47
  C 83.01 68.59 87.00 78.73 91.60 86.68
  A 10.55 10.29 -68.9 0 1 92.52 88.83
  C 93.45 91.89 93.89 94.30 95.24 95.29
  Z"
/>
<path fill="#a491ff" d="
  M 184.46 135.50
  A 0.18 0.18 0.0 0 1 184.75 135.72
  C 180.05 143.64 172.48 151.66 163.78 155.31
  Q 150.86 160.74 136.17 162.00
  C 120.73 163.33 102.96 161.95 89.20 156.35
  C 86.45 155.23 79.56 152.23 77.97 149.14
  C 76.04 145.42 79.50 143.80 82.61 144.49
  Q 84.45 144.90 85.61 145.40
  Q 108.74 155.36 135.50 152.94
  Q 148.87 151.72 158.94 147.46
  C 165.87 144.53 170.92 143.22 177.51 140.28
  Q 181.70 138.41 184.46 135.50
  Z"
/>
</svg>
