<?xml version="1.0" encoding="UTF-8" standalone="no"?>
<!DOCTYPE svg PUBLIC "-//W3C//DTD SVG 1.1//EN" "http://www.w3.org/Graphics/SVG/1.1/DTD/svg11.dtd">
<svg xmlns="http://www.w3.org/2000/svg" version="1.1" viewBox="0.00 0.00 256.00 256.00">
<g stroke-width="2.00" fill="none" stroke-linecap="butt">
<path stroke="#c0b3ca" vector-effect="non-scaling-stroke" d="
  M 212.70 59.51
  Q 211.76 62.42 209.09 63.99
  A 1.92 1.88 -60.9 0 1 208.21 64.25
  C 185.87 65.29 164.94 67.77 144.95 73.72
  A 1.53 1.44 -68.5 0 0 144.59 73.89
  L 142.98 74.91
  A 1.12 1.12 0.0 0 0 143.23 76.92
  Q 145.39 77.64 147.72 77.34
  A 0.72 0.72 0.0 0 1 148.50 77.84
  C 151.51 87.46 162.42 93.14 171.54 94.17
  C 186.09 95.83 202.59 84.56 211.28 73.45
  A 3.34 3.32 -86.5 0 1 212.19 72.64
  C 213.99 71.59 218.88 69.23 215.89 66.15
  Q 215.14 65.37 214.04 64.71
  A 0.80 0.79 -77.1 0 1 213.65 64.08
  L 213.26 59.57
  A 0.29 0.29 0.0 0 0 212.70 59.51"
/>
<path stroke="#c0b3ca" vector-effect="non-scaling-stroke" d="
  M 123.91 71.06
  L 123.47 70.84
  A 0.40 0.32 50.7 0 0 123.27 70.80
  Q 107.08 71.74 85.50 72.34
  Q 74.96 72.63 64.82 74.81
  C 60.55 75.73 55.53 76.40 54.65 80.30
  A 1.34 1.34 0.0 0 0 54.80 81.28
  Q 56.08 83.45 58.71 83.41
  A 0.55 0.54 -88.6 0 1 59.27 84.00
  Q 59.07 86.30 59.52 89.03
  C 62.72 108.37 78.19 111.30 95.17 106.85
  Q 111.00 102.71 122.93 90.14
  C 127.16 85.68 136.37 76.45 129.78 70.26
  C 127.38 67.99 124.88 66.33 122.37 64.38
  C 124.04 66.06 124.73 68.45 124.44 70.77
  A 0.37 0.37 0.0 0 1 123.91 71.06"
/>
<path stroke="#c0b3ca" vector-effect="non-scaling-stroke" d="
  M 141.02 120.47
  Q 131.41 122.08 124.68 126.93
  C 108.87 138.32 95.89 159.64 99.41 179.82
  Q 102.99 200.36 123.36 205.91
  C 139.99 210.43 161.06 205.44 176.57 198.83
  C 186.37 194.65 196.55 188.72 201.13 179.38
  C 206.98 167.44 199.77 153.49 191.84 144.11
  Q 183.30 134.00 171.18 126.34
  Q 156.66 117.17 139.75 118.84
  C 139.14 118.90 138.43 119.28 137.73 119.38
  A 0.27 0.27 0.0 0 0 137.50 119.70
  L 137.51 119.70
  A 0.13 0.13 0.0 0 0 137.60 119.76
  L 141.00 119.99
  A 0.24 0.24 0.0 0 1 141.02 120.47"
/>
<path stroke="#c0b3ca" vector-effect="non-scaling-stroke" d="
  M 199.31 73.29
  L 155.59 76.99
  A 0.22 0.22 0.0 0 0 155.44 77.36
  Q 160.11 82.43 166.86 84.66
  C 178.67 88.56 190.05 81.66 199.52 73.81
  A 0.29 0.29 0.0 0 0 199.31 73.29"
/>
<path stroke="#c0b3ca" vector-effect="non-scaling-stroke" d="
  M 119.13 80.10
  Q 110.98 80.66 91.21 81.19
  C 82.91 81.41 72.11 82.24 65.41 82.80
  A 0.49 0.49 0.0 0 0 64.99 83.45
  C 67.98 92.35 70.16 99.11 79.79 99.53
  C 95.13 100.21 109.78 92.48 119.39 80.59
  A 0.30 0.30 0.0 0 0 119.13 80.10"
/>
<path stroke="#c0b3ca" vector-effect="non-scaling-stroke" d="
  M 152.66 125.85
  C 141.68 126.35 131.80 130.70 123.85 139.06
  C 112.69 150.79 104.13 167.17 109.77 183.59
  C 114.59 197.65 131.70 199.72 144.19 198.14
  Q 160.88 196.04 175.77 189.24
  C 185.54 184.78 196.94 177.65 194.02 165.74
  C 189.70 148.11 169.95 134.33 154.62 126.28
  A 3.85 3.83 -32.4 0 0 152.66 125.85"
/>
</g>
<path fill="#fff994" d="
  M 256.00 0.00
  L 256.00 256.00
  L 0.00 256.00
  L 0.00 0.00
  L 256.00 0.00
  Z
  M 212.70 59.51
  Q 211.76 62.42 209.09 63.99
  A 1.92 1.88 -60.9 0 1 208.21 64.25
  C 185.87 65.29 164.94 67.77 144.95 73.72
  A 1.53 1.44 -68.5 0 0 144.59 73.89
  L 142.98 74.91
  A 1.12 1.12 0.0 0 0 143.23 76.92
  Q 145.39 77.64 147.72 77.34
  A 0.72 0.72 0.0 0 1 148.50 77.84
  C 151.51 87.46 162.42 93.14 171.54 94.17
  C 186.09 95.83 202.59 84.56 211.28 73.45
  A 3.34 3.32 -86.5 0 1 212.19 72.64
  C 213.99 71.59 218.88 69.23 215.89 66.15
  Q 215.14 65.37 214.04 64.71
  A 0.80 0.79 -77.1 0 1 213.65 64.08
  L 213.26 59.57
  A 0.29 0.29 0.0 0 0 212.70 59.51
  Z
  M 123.91 71.06
  L 123.47 70.84
  A 0.40 0.32 50.7 0 0 123.27 70.80
  Q 107.08 71.74 85.50 72.34
  Q 74.96 72.63 64.82 74.81
  C 60.55 75.73 55.53 76.40 54.65 80.30
  A 1.34 1.34 0.0 0 0 54.80 81.28
  Q 56.08 83.45 58.71 83.41
  A 0.55 0.54 -88.6 0 1 59.27 84.00
  Q 59.07 86.30 59.52 89.03
  C 62.72 108.37 78.19 111.30 95.17 106.85
  Q 111.00 102.71 122.93 90.14
  C 127.16 85.68 136.37 76.45 129.78 70.26
  C 127.38 67.99 124.88 66.33 122.37 64.38
  C 124.04 66.06 124.73 68.45 124.44 70.77
  A 0.37 0.37 0.0 0 1 123.91 71.06
  Z
  M 141.02 120.47
  Q 131.41 122.08 124.68 126.93
  C 108.87 138.32 95.89 159.64 99.41 179.82
  Q 102.99 200.36 123.36 205.91
  C 139.99 210.43 161.06 205.44 176.57 198.83
  C 186.37 194.65 196.55 188.72 201.13 179.38
  C 206.98 167.44 199.77 153.49 191.84 144.11
  Q 183.30 134.00 171.18 126.34
  Q 156.66 117.17 139.75 118.84
  C 139.14 118.90 138.43 119.28 137.73 119.38
  A 0.27 0.27 0.0 0 0 137.50 119.70
  L 137.51 119.70
  A 0.13 0.13 0.0 0 0 137.60 119.76
  L 141.00 119.99
  A 0.24 0.24 0.0 0 1 141.02 120.47
  Z"
/>
<path fill="#816dff" d="
  M 213.26 59.57
  L 213.65 64.08
  A 0.80 0.79 -77.1 0 0 214.04 64.71
  Q 215.14 65.37 215.89 66.15
  C 218.88 69.23 213.99 71.59 212.19 72.64
  A 3.34 3.32 -86.5 0 0 211.28 73.45
  C 202.59 84.56 186.09 95.83 171.54 94.17
  C 162.42 93.14 151.51 87.46 148.50 77.84
  A 0.72 0.72 0.0 0 0 147.72 77.34
  Q 145.39 77.64 143.23 76.92
  A 1.12 1.12 0.0 0 1 142.98 74.91
  L 144.59 73.89
  A 1.53 1.44 -68.5 0 1 144.95 73.72
  C 164.94 67.77 185.87 65.29 208.21 64.25
  A 1.92 1.88 -60.9 0 0 209.09 63.99
  Q 211.76 62.42 212.70 59.51
  A 0.29 0.29 0.0 0 1 213.26 59.57
  Z
  M 199.31 73.29
  L 155.59 76.99
  A 0.22 0.22 0.0 0 0 155.44 77.36
  Q 160.11 82.43 166.86 84.66
  C 178.67 88.56 190.05 81.66 199.52 73.81
  A 0.29 0.29 0.0 0 0 199.31 73.29
  Z"
/>
<path fill="#816dff" d="
  M 124.44 70.77
  C 124.73 68.45 124.04 66.06 122.37 64.38
  C 124.88 66.33 127.38 67.99 129.78 70.26
  C 136.37 76.45 127.16 85.68 122.93 90.14
  Q 111.00 102.71 95.17 106.85
  C 78.19 111.30 62.72 108.37 59.52 89.03
  Q 59.07 86.30 59.27 84.00
  A 0.55 0.54 -88.6 0 0 58.71 83.41
  Q 56.08 83.45 54.80 81.28
  A 1.34 1.34 0.0 0 1 54.65 80.30
  C 55.53 76.40 60.55 75.73 64.82 74.81
  Q 74.96 72.63 85.50 72.34
  Q 107.08 71.74 123.27 70.80
  A 0.40 0.32 50.7 0 1 123.47 70.84
  L 123.91 71.06
  A 0.37 0.37 0.0 0 0 124.44 70.77
  Z
  M 119.13 80.10
  Q 110.98 80.66 91.21 81.19
  C 82.91 81.41 72.11 82.24 65.41 82.80
  A 0.49 0.49 0.0 0 0 64.99 83.45
  C 67.98 92.35 70.16 99.11 79.79 99.53
  C 95.13 100.21 109.78 92.48 119.39 80.59
  A 0.30 0.30 0.0 0 0 119.13 80.10
  Z"
/>
<path fill="#fff994" d="
  M 199.52 73.81
  C 190.05 81.66 178.67 88.56 166.86 84.66
  Q 160.11 82.43 155.44 77.36
  A 0.22 0.22 0.0 0 1 155.59 76.99
  L 199.31 73.29
  A 0.29 0.29 0.0 0 1 199.52 73.81
  Z"
/>
<path fill="#fff994" d="
  M 119.39 80.59
  C 109.78 92.48 95.13 100.21 79.79 99.53
  C 70.16 99.11 67.98 92.35 64.99 83.45
  A 0.49 0.49 0.0 0 1 65.41 82.80
  C 72.11 82.24 82.91 81.41 91.21 81.19
  Q 110.98 80.66 119.13 80.10
  A 0.30 0.30 0.0 0 1 119.39 80.59
  Z"
/>
<path fill="#816dff" d="
  M 141.00 119.99
  L 137.60 119.76
  A 0.13 0.13 0.0 0 1 137.51 119.70
  L 137.50 119.70
  A 0.27 0.27 0.0 0 1 137.73 119.38
  C 138.43 119.28 139.14 118.90 139.75 118.84
  Q 156.66 117.17 171.18 126.34
  Q 183.30 134.00 191.84 144.11
  C 199.77 153.49 206.98 167.44 201.13 179.38
  C 196.55 188.72 186.37 194.65 176.57 198.83
  C 161.06 205.44 139.99 210.43 123.36 205.91
  Q 102.99 200.36 99.41 179.82
  C 95.89 159.64 108.87 138.32 124.68 126.93
  Q 131.41 122.08 141.02 120.47
  A 0.24 0.24 0.0 0 0 141.00 119.99
  Z
  M 152.66 125.85
  C 141.68 126.35 131.80 130.70 123.85 139.06
  C 112.69 150.79 104.13 167.17 109.77 183.59
  C 114.59 197.65 131.70 199.72 144.19 198.14
  Q 160.88 196.04 175.77 189.24
  C 185.54 184.78 196.94 177.65 194.02 165.74
  C 189.70 148.11 169.95 134.33 154.62 126.28
  A 3.85 3.83 -32.4 0 0 152.66 125.85
  Z"
/>
<path fill="#fff994" d="
  M 154.62 126.28
  C 169.95 134.33 189.70 148.11 194.02 165.74
  C 196.94 177.65 185.54 184.78 175.77 189.24
  Q 160.88 196.04 144.19 198.14
  C 131.70 199.72 114.59 197.65 109.77 183.59
  C 104.13 167.17 112.69 150.79 123.85 139.06
  C 131.80 130.70 141.68 126.35 152.66 125.85
  A 3.85 3.83 -32.4 0 1 154.62 126.28
  Z"
/>
</svg>
