<?xml version="1.0" encoding="UTF-8" standalone="no"?>
<!DOCTYPE svg PUBLIC "-//W3C//DTD SVG 1.1//EN" "http://www.w3.org/Graphics/SVG/1.1/DTD/svg11.dtd">
<svg xmlns="http://www.w3.org/2000/svg" version="1.1" viewBox="0.00 0.00 256.00 256.00">
<g stroke-width="2.00" fill="none" stroke-linecap="butt">
<path stroke="#5f60c8" vector-effect="non-scaling-stroke" d="
  M 127.16 65.42
  L 121.83 65.04
  A 2.11 2.07 -57.2 0 0 120.68 65.30
  Q 112.39 70.00 105.04 72.76
  C 100.12 74.61 94.93 75.95 91.17 72.07
  Q 85.03 65.74 82.67 63.58
  C 77.48 58.83 72.26 55.25 65.08 57.56
  C 57.80 59.90 48.28 66.76 45.69 74.93
  Q 44.91 77.38 45.32 79.60
  A 3.02 2.95 0.4 0 0 47.70 81.96
  Q 49.65 82.34 50.95 80.42
  C 54.90 74.61 62.22 66.99 69.05 65.95
  A 3.31 3.30 -38.1 0 1 70.81 66.16
  Q 73.21 67.17 75.56 69.37
  Q 78.32 71.93 85.52 79.20
  Q 89.03 82.74 94.95 83.57
  C 103.75 84.82 117.45 77.82 124.75 73.03
  C 127.76 71.06 126.42 67.53 127.35 65.75
  A 0.23 0.23 0.0 0 0 127.16 65.42"
/>
<path stroke="#5f60c8" vector-effect="non-scaling-stroke" d="
  M 221.44 58.89
  C 218.11 61.18 213.50 62.87 209.38 65.27
  C 204.23 68.27 200.44 71.05 196.28 71.54
  Q 189.82 72.29 183.66 68.34
  C 180.39 66.25 173.03 60.14 168.23 59.16
  Q 159.61 57.40 154.49 64.98
  Q 152.75 67.54 154.01 71.48
  A 0.39 0.38 -27.1 0 0 154.61 71.67
  Q 159.02 68.37 163.39 67.18
  A 3.95 3.94 -35.7 0 1 166.61 67.70
  Q 170.21 70.11 177.14 74.83
  C 182.95 78.79 189.66 81.72 196.63 80.58
  C 204.22 79.35 212.59 71.26 217.06 65.05
  Q 218.53 63.01 221.57 59.02
  A 0.09 0.09 0.0 0 0 221.44 58.89"
/>
<path stroke="#5f60c8" vector-effect="non-scaling-stroke" d="
  M 179.97 92.93
  L 177.54 88.83
  A 1.08 1.00 -87.6 0 0 177.32 88.57
  Q 173.31 85.27 170.07 86.99
  Q 164.05 90.18 164.93 97.72
  Q 165.16 99.73 167.17 101.03
  C 169.32 102.42 170.74 103.15 173.37 102.57
  Q 179.56 101.22 180.38 94.95
  A 3.12 3.10 33.7 0 0 179.97 92.93"
/>
<path stroke="#5f60c8" vector-effect="non-scaling-stroke" d="
  M 78.36 90.92
  Q 77.74 92.02 77.82 97.78
  C 77.87 101.12 80.38 103.03 83.21 103.54
  A 1.91 1.89 39.1 0 0 84.22 103.44
  Q 92.95 99.96 88.49 91.42
  A 3.45 3.24 -83.0 0 0 87.89 90.60
  C 85.31 88.09 80.54 87.09 78.36 90.92"
/>
<path stroke="#5f60c8" vector-effect="non-scaling-stroke" d="
  M 231.57 158.95
  C 233.89 156.12 232.14 152.91 228.92 151.97
  A 2.11 2.05 49.1 0 0 228.09 151.90
  Q 207.51 154.20 199.45 154.43
  C 171.11 155.22 144.54 156.40 117.40 160.61
  Q 114.77 161.02 112.84 162.41
  A 2.01 2.00 -5.8 0 0 112.19 163.20
  Q 111.02 165.86 113.68 167.44
  A 1.86 1.84 -27.0 0 0 114.53 167.71
  Q 117.68 167.97 119.26 167.82
  Q 150.23 164.77 183.44 164.04
  C 196.47 163.76 209.54 163.10 220.62 161.88
  C 223.93 161.52 229.53 161.44 231.57 158.95"
/>
</g>
<path fill="#2d0091" d="
  M 256.00 0.00
  L 256.00 256.00
  L 0.00 256.00
  L 0.00 0.00
  L 256.00 0.00
  Z
  M 127.16 65.42
  L 121.83 65.04
  A 2.11 2.07 -57.2 0 0 120.68 65.30
  Q 112.39 70.00 105.04 72.76
  C 100.12 74.61 94.93 75.95 91.17 72.07
  Q 85.03 65.74 82.67 63.58
  C 77.48 58.83 72.26 55.25 65.08 57.56
  C 57.80 59.90 48.28 66.76 45.69 74.93
  Q 44.91 77.38 45.32 79.60
  A 3.02 2.95 0.4 0 0 47.70 81.96
  Q 49.65 82.34 50.95 80.42
  C 54.90 74.61 62.22 66.99 69.05 65.95
  A 3.31 3.30 -38.1 0 1 70.81 66.16
  Q 73.21 67.17 75.56 69.37
  Q 78.32 71.93 85.52 79.20
  Q 89.03 82.74 94.95 83.57
  C 103.75 84.82 117.45 77.82 124.75 73.03
  C 127.76 71.06 126.42 67.53 127.35 65.75
  A 0.23 0.23 0.0 0 0 127.16 65.42
  Z
  M 221.44 58.89
  C 218.11 61.18 213.50 62.87 209.38 65.27
  C 204.23 68.27 200.44 71.05 196.28 71.54
  Q 189.82 72.29 183.66 68.34
  C 180.39 66.25 173.03 60.14 168.23 59.16
  Q 159.61 57.40 154.49 64.98
  Q 152.75 67.54 154.01 71.48
  A 0.39 0.38 -27.1 0 0 154.61 71.67
  Q 159.02 68.37 163.39 67.18
  A 3.95 3.94 -35.7 0 1 166.61 67.70
  Q 170.21 70.11 177.14 74.83
  C 182.95 78.79 189.66 81.72 196.63 80.58
  C 204.22 79.35 212.59 71.26 217.06 65.05
  Q 218.53 63.01 221.57 59.02
  A 0.09 0.09 0.0 0 0 221.44 58.89
  Z
  M 179.97 92.93
  L 177.54 88.83
  A 1.08 1.00 -87.6 0 0 177.32 88.57
  Q 173.31 85.27 170.07 86.99
  Q 164.05 90.18 164.93 97.72
  Q 165.16 99.73 167.17 101.03
  C 169.32 102.42 170.74 103.15 173.37 102.57
  Q 179.56 101.22 180.38 94.95
  A 3.12 3.10 33.7 0 0 179.97 92.93
  Z
  M 78.36 90.92
  Q 77.74 92.02 77.82 97.78
  C 77.87 101.12 80.38 103.03 83.21 103.54
  A 1.91 1.89 39.1 0 0 84.22 103.44
  Q 92.95 99.96 88.49 91.42
  A 3.45 3.24 -83.0 0 0 87.89 90.60
  C 85.31 88.09 80.54 87.09 78.36 90.92
  Z
  M 231.57 158.95
  C 233.89 156.12 232.14 152.91 228.92 151.97
  A 2.11 2.05 49.1 0 0 228.09 151.90
  Q 207.51 154.20 199.45 154.43
  C 171.11 155.22 144.54 156.40 117.40 160.61
  Q 114.77 161.02 112.84 162.41
  A 2.01 2.00 -5.8 0 0 112.19 163.20
  Q 111.02 165.86 113.68 167.44
  A 1.86 1.84 -27.0 0 0 114.53 167.71
  Q 117.68 167.97 119.26 167.82
  Q 150.23 164.77 183.44 164.04
  C 196.47 163.76 209.54 163.10 220.62 161.88
  C 223.93 161.52 229.53 161.44 231.57 158.95
  Z"
/>
<path fill="#91bfff" d="
  M 127.35 65.75
  C 126.42 67.53 127.76 71.06 124.75 73.03
  C 117.45 77.82 103.75 84.82 94.95 83.57
  Q 89.03 82.74 85.52 79.20
  Q 78.32 71.93 75.56 69.37
  Q 73.21 67.17 70.81 66.16
  A 3.31 3.30 -38.1 0 0 69.05 65.95
  C 62.22 66.99 54.90 74.61 50.95 80.42
  Q 49.65 82.34 47.70 81.96
  A 3.02 2.95 0.4 0 1 45.32 79.60
  Q 44.91 77.38 45.69 74.93
  C 48.28 66.76 57.80 59.90 65.08 57.56
  C 72.26 55.25 77.48 58.83 82.67 63.58
  Q 85.03 65.74 91.17 72.07
  C 94.93 75.95 100.12 74.61 105.04 72.76
  Q 112.39 70.00 120.68 65.30
  A 2.11 2.07 -57.2 0 1 121.83 65.04
  L 127.16 65.42
  A 0.23 0.23 0.0 0 1 127.35 65.75
  Z"
/>
<path fill="#91bfff" d="
  M 221.57 59.02
  Q 218.53 63.01 217.06 65.05
  C 212.59 71.26 204.22 79.35 196.63 80.58
  C 189.66 81.72 182.95 78.79 177.14 74.83
  Q 170.21 70.11 166.61 67.70
  A 3.95 3.94 -35.7 0 0 163.39 67.18
  Q 159.02 68.37 154.61 71.67
  A 0.39 0.38 -27.1 0 1 154.01 71.48
  Q 152.75 67.54 154.49 64.98
  Q 159.61 57.40 168.23 59.16
  C 173.03 60.14 180.39 66.25 183.66 68.34
  Q 189.82 72.29 196.28 71.54
  C 200.44 71.05 204.23 68.27 209.38 65.27
  C 213.50 62.87 218.11 61.18 221.44 58.89
  A 0.09 0.09 0.0 0 1 221.57 59.02
  Z"
/>
<path fill="#91bfff" d="
  M 179.97 92.93
  A 3.12 3.10 33.7 0 1 180.38 94.95
  Q 179.56 101.22 173.37 102.57
  C 170.74 103.15 169.32 102.42 167.17 101.03
  Q 165.16 99.73 164.93 97.72
  Q 164.05 90.18 170.07 86.99
  Q 173.31 85.27 177.32 88.57
  A 1.08 1.00 -87.6 0 1 177.54 88.83
  L 179.97 92.93
  Z"
/>
<path fill="#91bfff" d="
  M 78.36 90.92
  C 80.54 87.09 85.31 88.09 87.89 90.60
  A 3.45 3.24 -83.0 0 1 88.49 91.42
  Q 92.95 99.96 84.22 103.44
  A 1.91 1.89 39.1 0 1 83.21 103.54
  C 80.38 103.03 77.87 101.12 77.82 97.78
  Q 77.74 92.02 78.36 90.92
  Z"
/>
<path fill="#91bfff" d="
  M 228.92 151.97
  C 232.14 152.91 233.89 156.12 231.57 158.95
  C 229.53 161.44 223.93 161.52 220.62 161.88
  C 209.54 163.10 196.47 163.76 183.44 164.04
  Q 150.23 164.77 119.26 167.82
  Q 117.68 167.97 114.53 167.71
  A 1.86 1.84 -27.0 0 1 113.68 167.44
  Q 111.02 165.86 112.19 163.20
  A 2.01 2.00 -5.8 0 1 112.84 162.41
  Q 114.77 161.02 117.40 160.61
  C 144.54 156.40 171.11 155.22 199.45 154.43
  Q 207.51 154.20 228.09 151.90
  A 2.11 2.05 49.1 0 1 228.92 151.97
  Z"
/>
</svg>
