<?xml version="1.0" encoding="UTF-8" standalone="no"?>
<!DOCTYPE svg PUBLIC "-//W3C//DTD SVG 1.1//EN" "http://www.w3.org/Graphics/SVG/1.1/DTD/svg11.dtd">
<svg xmlns="http://www.w3.org/2000/svg" version="1.1" viewBox="0.00 0.00 256.00 256.00">
<g stroke-width="2.00" fill="none" stroke-linecap="butt">
<path stroke="#6d732c" vector-effect="non-scaling-stroke" d="
  M 193.24 108.08
  Q 193.14 108.22 193.18 108.32
  A 0.52 0.51 -45.5 0 0 194.17 108.30
  C 195.77 103.15 195.91 98.82 193.03 94.03
  C 188.55 86.56 182.47 79.77 176.16 73.05
  A 1.46 1.46 0.0 0 1 176.10 71.13
  Q 182.78 63.09 189.05 56.08
  Q 189.41 55.69 195.47 47.96
  C 197.85 44.93 200.48 37.80 195.07 36.14
  Q 194.24 35.89 192.75 36.37
  A 0.52 0.52 0.0 0 0 192.43 37.07
  Q 192.68 37.63 192.11 38.36
  Q 182.45 50.87 169.77 65.01
  A 0.59 0.58 -44.1 0 1 168.89 65.00
  L 150.30 43.61
  A 3.69 3.68 -41.0 0 0 145.11 43.25
  L 144.60 43.69
  A 4.35 4.35 0.0 0 0 144.17 49.82
  L 159.05 66.89
  A 0.39 0.18 25.1 0 1 159.10 66.95
  Q 160.81 69.43 162.17 70.63
  Q 163.96 72.20 162.44 73.86
  Q 159.69 76.84 156.79 79.69
  A 2.08 2.02 -12.8 0 0 156.29 80.46
  Q 156.19 80.70 156.15 80.84
  A 3.31 3.22 78.4 0 1 155.40 82.01
  L 143.57 93.90
  A 1.02 0.91 -8.0 0 0 143.40 94.10
  L 143.03 94.64
  A 1.79 1.73 -10.4 0 1 142.53 95.34
  C 140.27 97.28 134.21 101.82 136.44 104.97
  Q 137.82 106.94 139.67 107.17
  A 1.88 1.82 -53.3 0 0 140.71 107.00
  Q 144.56 105.20 149.63 100.12
  Q 155.49 94.24 164.27 84.97
  A 1.17 1.12 -14.8 0 0 164.52 84.56
  Q 164.91 83.48 165.78 82.75
  Q 167.33 81.46 168.40 79.57
  A 1.02 1.01 -53.1 0 1 169.99 79.34
  Q 173.68 82.94 174.74 84.41
  Q 177.57 88.32 179.22 90.17
  Q 183.38 94.83 187.48 101.57
  A 4.30 3.98 -84.0 0 0 188.04 102.32
  L 193.23 107.85
  A 0.18 0.18 0.0 0 1 193.24 108.08"
/>
<path stroke="#6d732c" vector-effect="non-scaling-stroke" d="
  M 65.96 93.27
  Q 68.02 91.87 69.09 89.68
  A 0.37 0.10 -41.4 0 1 69.15 89.59
  L 79.02 78.11
  A 1.15 1.14 42.2 0 1 80.69 78.03
  Q 91.18 88.19 99.78 97.18
  Q 102.99 100.53 107.52 99.76
  A 0.75 0.75 0.0 0 0 108.14 99.07
  C 108.32 95.47 107.08 92.54 104.57 89.54
  Q 96.42 79.81 86.55 71.50
  A 1.38 1.38 0.0 0 1 86.44 69.50
  Q 93.47 62.02 101.85 52.22
  C 105.77 47.63 109.95 43.12 108.91 37.29
  A 0.59 0.59 0.0 0 0 108.14 36.83
  C 101.23 39.16 97.25 43.92 91.93 50.22
  A 1.76 1.58 -80.6 0 1 91.42 50.63
  C 90.49 51.13 90.15 51.99 89.26 53.04
  Q 82.16 61.35 79.64 64.07
  A 0.94 0.94 0.0 0 1 78.33 64.13
  Q 68.74 55.56 60.81 44.21
  A 2.24 2.17 84.4 0 0 59.94 43.47
  Q 57.32 42.22 55.11 45.18
  C 53.92 46.77 55.29 50.86 56.25 52.31
  Q 63.11 62.71 72.17 70.37
  A 1.68 1.68 0.0 0 1 72.40 72.71
  C 69.89 75.82 67.17 78.16 64.84 81.05
  Q 56.83 90.99 55.98 91.99
  Q 55.40 92.67 55.17 93.68
  A 1.75 1.72 -18.0 0 1 54.79 94.41
  Q 48.48 101.72 47.32 104.30
  Q 46.07 107.08 48.78 108.89
  A 1.36 1.33 56.1 0 0 49.80 109.10
  C 52.27 108.64 54.31 106.47 55.80 104.80
  Q 61.05 98.92 65.88 93.34
  A 0.73 0.33 -65.6 0 1 65.96 93.27"
/>
<path stroke="#6d732c" vector-effect="non-scaling-stroke" d="
  M 59.32 189.64
  C 58.98 193.23 58.84 196.16 59.75 198.28
  A 1.71 1.68 32.0 0 1 59.88 198.82
  Q 60.37 206.37 64.62 214.88
  Q 69.13 223.90 76.68 229.25
  Q 81.87 232.92 88.92 235.14
  Q 96.31 237.46 102.27 237.75
  Q 127.22 238.97 149.84 227.87
  C 167.84 219.04 181.98 204.48 185.78 184.30
  C 186.45 180.76 186.12 178.07 186.16 174.10
  Q 186.20 170.17 185.38 166.47
  C 179.93 141.84 157.91 131.36 134.49 130.91
  Q 124.48 130.71 119.50 130.98
  C 93.91 132.34 71.87 150.28 63.05 173.84
  Q 60.42 180.87 60.00 187.03
  Q 59.95 187.70 59.61 188.69
  A 1.19 0.05 -70.5 0 0 59.32 189.64"
/>
<path stroke="#6d732c" vector-effect="non-scaling-stroke" d="
  M 159.98 146.00
  Q 154.09 142.84 151.46 142.52
  A 0.27 0.27 0.0 0 0 151.22 142.96
  Q 152.58 144.55 152.80 146.05
  A 0.41 0.41 0.0 0 1 152.19 146.47
  L 145.09 142.33
  A 1.05 1.05 0.0 0 1 144.75 141.99
  Q 144.70 141.88 144.39 141.78
  Q 137.74 139.45 127.25 140.25
  Q 113.69 141.28 105.13 142.91
  A 5.85 4.91 23.4 0 0 104.19 143.19
  Q 94.30 147.29 88.22 153.04
  Q 82.46 158.49 80.81 160.54
  Q 72.32 171.08 69.61 182.77
  Q 66.50 196.20 70.95 207.45
  C 82.03 235.43 118.37 231.19 140.43 222.40
  C 157.95 215.42 172.81 202.72 176.86 183.57
  Q 177.49 180.59 177.18 177.91
  A 4.91 4.74 44.0 0 1 177.15 177.09
  Q 178.06 161.20 166.66 150.38
  Q 164.77 148.58 159.98 146.00"
/>
</g>
<path fill="#0eca00" d="
  M 256.00 0.00
  L 256.00 256.00
  L 0.00 256.00
  L 0.00 0.00
  L 256.00 0.00
  Z
  M 193.24 108.08
  Q 193.14 108.22 193.18 108.32
  A 0.52 0.51 -45.5 0 0 194.17 108.30
  C 195.77 103.15 195.91 98.82 193.03 94.03
  C 188.55 86.56 182.47 79.77 176.16 73.05
  A 1.46 1.46 0.0 0 1 176.10 71.13
  Q 182.78 63.09 189.05 56.08
  Q 189.41 55.69 195.47 47.96
  C 197.85 44.93 200.48 37.80 195.07 36.14
  Q 194.24 35.89 192.75 36.37
  A 0.52 0.52 0.0 0 0 192.43 37.07
  Q 192.68 37.63 192.11 38.36
  Q 182.45 50.87 169.77 65.01
  A 0.59 0.58 -44.1 0 1 168.89 65.00
  L 150.30 43.61
  A 3.69 3.68 -41.0 0 0 145.11 43.25
  L 144.60 43.69
  A 4.35 4.35 0.0 0 0 144.17 49.82
  L 159.05 66.89
  A 0.39 0.18 25.1 0 1 159.10 66.95
  Q 160.81 69.43 162.17 70.63
  Q 163.96 72.20 162.44 73.86
  Q 159.69 76.84 156.79 79.69
  A 2.08 2.02 -12.8 0 0 156.29 80.46
  Q 156.19 80.70 156.15 80.84
  A 3.31 3.22 78.4 0 1 155.40 82.01
  L 143.57 93.90
  A 1.02 0.91 -8.0 0 0 143.40 94.10
  L 143.03 94.64
  A 1.79 1.73 -10.4 0 1 142.53 95.34
  C 140.27 97.28 134.21 101.82 136.44 104.97
  Q 137.82 106.94 139.67 107.17
  A 1.88 1.82 -53.3 0 0 140.71 107.00
  Q 144.56 105.20 149.63 100.12
  Q 155.49 94.24 164.27 84.97
  A 1.17 1.12 -14.8 0 0 164.52 84.56
  Q 164.91 83.48 165.78 82.75
  Q 167.33 81.46 168.40 79.57
  A 1.02 1.01 -53.1 0 1 169.99 79.34
  Q 173.68 82.94 174.74 84.41
  Q 177.57 88.32 179.22 90.17
  Q 183.38 94.83 187.48 101.57
  A 4.30 3.98 -84.0 0 0 188.04 102.32
  L 193.23 107.85
  A 0.18 0.18 0.0 0 1 193.24 108.08
  Z
  M 65.96 93.27
  Q 68.02 91.87 69.09 89.68
  A 0.37 0.10 -41.4 0 1 69.15 89.59
  L 79.02 78.11
  A 1.15 1.14 42.2 0 1 80.69 78.03
  Q 91.18 88.19 99.78 97.18
  Q 102.99 100.53 107.52 99.76
  A 0.75 0.75 0.0 0 0 108.14 99.07
  C 108.32 95.47 107.08 92.54 104.57 89.54
  Q 96.42 79.81 86.55 71.50
  A 1.38 1.38 0.0 0 1 86.44 69.50
  Q 93.47 62.02 101.85 52.22
  C 105.77 47.63 109.95 43.12 108.91 37.29
  A 0.59 0.59 0.0 0 0 108.14 36.83
  C 101.23 39.16 97.25 43.92 91.93 50.22
  A 1.76 1.58 -80.6 0 1 91.42 50.63
  C 90.49 51.13 90.15 51.99 89.26 53.04
  Q 82.16 61.35 79.64 64.07
  A 0.94 0.94 0.0 0 1 78.33 64.13
  Q 68.74 55.56 60.81 44.21
  A 2.24 2.17 84.4 0 0 59.94 43.47
  Q 57.32 42.22 55.11 45.18
  C 53.92 46.77 55.29 50.86 56.25 52.31
  Q 63.11 62.71 72.17 70.37
  A 1.68 1.68 0.0 0 1 72.40 72.71
  C 69.89 75.82 67.17 78.16 64.84 81.05
  Q 56.83 90.99 55.98 91.99
  Q 55.40 92.67 55.17 93.68
  A 1.75 1.72 -18.0 0 1 54.79 94.41
  Q 48.48 101.72 47.32 104.30
  Q 46.07 107.08 48.78 108.89
  A 1.36 1.33 56.1 0 0 49.80 109.10
  C 52.27 108.64 54.31 106.47 55.80 104.80
  Q 61.05 98.92 65.88 93.34
  A 0.73 0.33 -65.6 0 1 65.96 93.27
  Z
  M 59.32 189.64
  C 58.98 193.23 58.84 196.16 59.75 198.28
  A 1.71 1.68 32.0 0 1 59.88 198.82
  Q 60.37 206.37 64.62 214.88
  Q 69.13 223.90 76.68 229.25
  Q 81.87 232.92 88.92 235.14
  Q 96.31 237.46 102.27 237.75
  Q 127.22 238.97 149.84 227.87
  C 167.84 219.04 181.98 204.48 185.78 184.30
  C 186.45 180.76 186.12 178.07 186.16 174.10
  Q 186.20 170.17 185.38 166.47
  C 179.93 141.84 157.91 131.36 134.49 130.91
  Q 124.48 130.71 119.50 130.98
  C 93.91 132.34 71.87 150.28 63.05 173.84
  Q 60.42 180.87 60.00 187.03
  Q 59.95 187.70 59.61 188.69
  A 1.19 0.05 -70.5 0 0 59.32 189.64
  Z"
/>
<path fill="#cc1b57" d="
  M 193.23 107.85
  L 188.04 102.32
  A 4.30 3.98 -84.0 0 1 187.48 101.57
  Q 183.38 94.83 179.22 90.17
  Q 177.57 88.32 174.74 84.41
  Q 173.68 82.94 169.99 79.34
  A 1.02 1.01 -53.1 0 0 168.40 79.57
  Q 167.33 81.46 165.78 82.75
  Q 164.91 83.48 164.52 84.56
  A 1.17 1.12 -14.8 0 1 164.27 84.97
  Q 155.49 94.24 149.63 100.12
  Q 144.56 105.20 140.71 107.00
  A 1.88 1.82 -53.3 0 1 139.67 107.17
  Q 137.82 106.94 136.44 104.97
  C 134.21 101.82 140.27 97.28 142.53 95.34
  A 1.79 1.73 -10.4 0 0 143.03 94.64
  L 143.40 94.10
  A 1.02 0.91 -8.0 0 1 143.57 93.90
  L 155.40 82.01
  A 3.31 3.22 78.4 0 0 156.15 80.84
  Q 156.19 80.70 156.29 80.46
  A 2.08 2.02 -12.8 0 1 156.79 79.69
  Q 159.69 76.84 162.44 73.86
  Q 163.96 72.20 162.17 70.63
  Q 160.81 69.43 159.10 66.95
  A 0.39 0.18 25.1 0 0 159.05 66.89
  L 144.17 49.82
  A 4.35 4.35 0.0 0 1 144.60 43.69
  L 145.11 43.25
  A 3.69 3.68 -41.0 0 1 150.30 43.61
  L 168.89 65.00
  A 0.59 0.58 -44.1 0 0 169.77 65.01
  Q 182.45 50.87 192.11 38.36
  Q 192.68 37.63 192.43 37.07
  A 0.52 0.52 0.0 0 1 192.75 36.37
  Q 194.24 35.89 195.07 36.14
  C 200.48 37.80 197.85 44.93 195.47 47.96
  Q 189.41 55.69 189.05 56.08
  Q 182.78 63.09 176.10 71.13
  A 1.46 1.46 0.0 0 0 176.16 73.05
  C 182.47 79.77 188.55 86.56 193.03 94.03
  C 195.91 98.82 195.77 103.15 194.17 108.30
  A 0.52 0.51 -45.5 0 1 193.18 108.32
  Q 193.14 108.22 193.24 108.08
  A 0.18 0.18 0.0 0 0 193.23 107.85
  Z"
/>
<path fill="#cc1b57" d="
  M 65.88 93.34
  Q 61.05 98.92 55.80 104.80
  C 54.31 106.47 52.27 108.64 49.80 109.10
  A 1.36 1.33 56.1 0 1 48.78 108.89
  Q 46.07 107.08 47.32 104.30
  Q 48.48 101.72 54.79 94.41
  A 1.75 1.72 -18.0 0 0 55.17 93.68
  Q 55.40 92.67 55.98 91.99
  Q 56.83 90.99 64.84 81.05
  C 67.17 78.16 69.89 75.82 72.40 72.71
  A 1.68 1.68 0.0 0 0 72.17 70.37
  Q 63.11 62.71 56.25 52.31
  C 55.29 50.86 53.92 46.77 55.11 45.18
  Q 57.32 42.22 59.94 43.47
  A 2.24 2.17 84.4 0 1 60.81 44.21
  Q 68.74 55.56 78.33 64.13
  A 0.94 0.94 0.0 0 0 79.64 64.07
  Q 82.16 61.35 89.26 53.04
  C 90.15 51.99 90.49 51.13 91.42 50.63
  A 1.76 1.58 -80.6 0 0 91.93 50.22
  C 97.25 43.92 101.23 39.16 108.14 36.83
  A 0.59 0.59 0.0 0 1 108.91 37.29
  C 109.95 43.12 105.77 47.63 101.85 52.22
  Q 93.47 62.02 86.44 69.50
  A 1.38 1.38 0.0 0 0 86.55 71.50
  Q 96.42 79.81 104.57 89.54
  C 107.08 92.54 108.32 95.47 108.14 99.07
  A 0.75 0.75 0.0 0 1 107.52 99.76
  Q 102.99 100.53 99.78 97.18
  Q 91.18 88.19 80.69 78.03
  A 1.15 1.14 42.2 0 0 79.02 78.11
  L 69.15 89.59
  A 0.37 0.10 -41.4 0 0 69.09 89.68
  Q 68.02 91.87 65.96 93.27
  A 0.73 0.33 -65.6 0 0 65.88 93.34
  Z"
/>
<path fill="#cc1b57" d="
  M 59.61 188.69
  Q 59.95 187.70 60.00 187.03
  Q 60.42 180.87 63.05 173.84
  C 71.87 150.28 93.91 132.34 119.50 130.98
  Q 124.48 130.71 134.49 130.91
  C 157.91 131.36 179.93 141.84 185.38 166.47
  Q 186.20 170.17 186.16 174.10
  C 186.12 178.07 186.45 180.76 185.78 184.30
  C 181.98 204.48 167.84 219.04 149.84 227.87
  Q 127.22 238.97 102.27 237.75
  Q 96.31 237.46 88.92 235.14
  Q 81.87 232.92 76.68 229.25
  Q 69.13 223.90 64.62 214.88
  Q 60.37 206.37 59.88 198.82
  A 1.71 1.68 32.0 0 0 59.75 198.28
  C 58.84 196.16 58.98 193.23 59.32 189.64
  A 1.19 0.05 -70.5 0 1 59.61 188.69
  Z
  M 159.98 146.00
  Q 154.09 142.84 151.46 142.52
  A 0.27 0.27 0.0 0 0 151.22 142.96
  Q 152.58 144.55 152.80 146.05
  A 0.41 0.41 0.0 0 1 152.19 146.47
  L 145.09 142.33
  A 1.05 1.05 0.0 0 1 144.75 141.99
  Q 144.70 141.88 144.39 141.78
  Q 137.74 139.45 127.25 140.25
  Q 113.69 141.28 105.13 142.91
  A 5.85 4.91 23.4 0 0 104.19 143.19
  Q 94.30 147.29 88.22 153.04
  Q 82.46 158.49 80.81 160.54
  Q 72.32 171.08 69.61 182.77
  Q 66.50 196.20 70.95 207.45
  C 82.03 235.43 118.37 231.19 140.43 222.40
  C 157.95 215.42 172.81 202.72 176.86 183.57
  Q 177.49 180.59 177.18 177.91
  A 4.91 4.74 44.0 0 1 177.15 177.09
  Q 178.06 161.20 166.66 150.38
  Q 164.77 148.58 159.98 146.00
  Z"
/>
<path fill="#0eca00" d="
  M 159.98 146.00
  Q 164.77 148.58 166.66 150.38
  Q 178.06 161.20 177.15 177.09
  A 4.91 4.74 44.0 0 0 177.18 177.91
  Q 177.49 180.59 176.86 183.57
  C 172.81 202.72 157.95 215.42 140.43 222.40
  C 118.37 231.19 82.03 235.43 70.95 207.45
  Q 66.50 196.20 69.61 182.77
  Q 72.32 171.08 80.81 160.54
  Q 82.46 158.49 88.22 153.04
  Q 94.30 147.29 104.19 143.19
  A 5.85 4.91 23.4 0 1 105.13 142.91
  Q 113.69 141.28 127.25 140.25
  Q 137.74 139.45 144.39 141.78
  Q 144.70 141.88 144.75 141.99
  A 1.05 1.05 0.0 0 0 145.09 142.33
  L 152.19 146.47
  A 0.41 0.41 0.0 0 0 152.80 146.05
  Q 152.58 144.55 151.22 142.96
  A 0.27 0.27 0.0 0 1 151.46 142.52
  Q 154.09 142.84 159.98 146.00
  Z"
/>
</svg>
