<?xml version="1.0" encoding="UTF-8" standalone="no"?>
<!DOCTYPE svg PUBLIC "-//W3C//DTD SVG 1.1//EN" "http://www.w3.org/Graphics/SVG/1.1/DTD/svg11.dtd">
<svg xmlns="http://www.w3.org/2000/svg" version="1.1" viewBox="0.00 0.00 256.00 256.00">
<g stroke-width="2.00" fill="none" stroke-linecap="butt">
<path stroke="#80df90" vector-effect="non-scaling-stroke" d="
  M 192.19 36.97
  Q 192.28 37.05 192.62 37.21
  Q 192.87 37.32 192.23 38.14
  Q 182.10 51.09 169.84 65.03
  A 0.53 0.53 0.0 0 1 169.04 65.03
  L 150.34 43.66
  A 3.88 3.87 48.8 0 0 144.88 43.29
  L 144.51 43.62
  A 4.63 4.62 48.9 0 0 144.08 50.15
  L 163.09 71.89
  A 0.58 0.57 43.8 0 1 163.11 72.64
  Q 151.15 87.21 138.76 98.77
  C 136.51 100.86 134.66 103.06 136.82 105.87
  Q 137.52 106.79 139.47 107.28
  A 1.70 1.69 -48.5 0 0 140.53 107.21
  Q 143.34 106.02 145.14 104.37
  Q 157.06 93.38 168.77 79.28
  A 0.73 0.73 0.0 0 1 169.88 79.26
  C 176.18 86.32 181.52 92.18 186.03 99.62
  C 187.72 102.40 189.52 103.96 191.40 105.88
  Q 192.60 107.12 193.34 108.81
  A 0.32 0.32 0.0 0 0 193.93 108.79
  C 195.24 105.03 196.22 99.54 194.17 95.84
  C 189.54 87.49 182.57 79.95 175.79 72.45
  A 0.84 0.83 44.7 0 1 175.78 71.33
  Q 185.53 60.42 193.11 51.13
  Q 196.97 46.40 197.99 43.55
  C 199.58 39.13 197.25 35.20 192.42 36.16
  A 0.47 0.47 0.0 0 0 192.19 36.97"
/>
<path stroke="#80df90" vector-effect="non-scaling-stroke" d="
  M 86.11 70.21
  Q 87.32 68.74 101.30 52.95
  C 105.87 47.79 109.85 43.67 108.95 37.19
  A 0.57 0.57 0.0 0 0 108.20 36.73
  C 104.09 38.17 101.26 39.95 98.19 43.24
  Q 89.04 53.00 79.51 64.22
  A 0.57 0.56 40.5 0 1 78.70 64.28
  Q 69.11 55.86 61.88 45.64
  C 60.01 43.00 56.50 42.01 54.69 45.47
  C 51.55 51.49 68.52 67.27 72.75 71.01
  A 0.55 0.54 40.7 0 1 72.81 71.76
  L 47.57 102.95
  A 3.80 3.80 0.0 0 0 48.12 108.28
  L 48.22 108.35
  A 3.92 3.91 -52.0 0 0 53.41 107.71
  L 79.45 77.85
  A 0.52 0.52 0.0 0 1 80.19 77.79
  Q 89.82 85.89 97.51 95.04
  C 100.59 98.70 102.24 99.79 107.14 99.88
  A 1.05 1.05 0.0 0 0 108.22 98.76
  C 107.93 94.50 107.46 92.76 104.54 89.38
  Q 95.85 79.34 86.20 71.13
  A 0.66 0.65 -50.9 0 1 86.11 70.21"
/>
<path stroke="#80df90" vector-effect="non-scaling-stroke" d="
  M 122.24 130.74
  C 94.89 131.25 70.92 150.24 62.41 175.55
  C 54.01 200.53 63.73 228.08 90.47 235.68
  Q 98.02 237.82 104.43 237.95
  C 131.48 238.51 162.95 227.38 178.23 203.75
  C 195.27 177.39 185.43 143.02 154.33 133.93
  C 142.95 130.59 131.58 130.56 122.24 130.74"
/>
<path stroke="#80df90" vector-effect="non-scaling-stroke" d="
  M 151.26 142.99
  Q 153.02 144.80 152.92 146.56
  A 0.29 0.29 0.0 0 1 152.48 146.79
  L 146.09 142.64
  A 4.95 4.76 -17.1 0 0 145.20 142.19
  Q 136.86 139.08 126.87 140.13
  Q 121.60 140.69 107.89 142.41
  Q 104.35 142.85 100.58 144.81
  Q 82.29 154.30 73.70 171.70
  C 69.41 180.39 67.47 190.74 69.02 199.96
  C 72.59 221.15 90.34 229.81 110.19 228.89
  Q 134.39 227.77 153.76 215.39
  C 167.60 206.54 177.83 192.33 177.39 175.53
  Q 176.86 155.34 159.51 145.79
  Q 155.35 143.50 151.53 142.53
  A 0.28 0.28 0.0 0 0 151.26 142.99"
/>
</g>
<path fill="#00e0fd" d="
  M 256.00 0.00
  L 256.00 256.00
  L 0.00 256.00
  L 0.00 0.00
  L 256.00 0.00
  Z
  M 192.19 36.97
  Q 192.28 37.05 192.62 37.21
  Q 192.87 37.32 192.23 38.14
  Q 182.10 51.09 169.84 65.03
  A 0.53 0.53 0.0 0 1 169.04 65.03
  L 150.34 43.66
  A 3.88 3.87 48.8 0 0 144.88 43.29
  L 144.51 43.62
  A 4.63 4.62 48.9 0 0 144.08 50.15
  L 163.09 71.89
  A 0.58 0.57 43.8 0 1 163.11 72.64
  Q 151.15 87.21 138.76 98.77
  C 136.51 100.86 134.66 103.06 136.82 105.87
  Q 137.52 106.79 139.47 107.28
  A 1.70 1.69 -48.5 0 0 140.53 107.21
  Q 143.34 106.02 145.14 104.37
  Q 157.06 93.38 168.77 79.28
  A 0.73 0.73 0.0 0 1 169.88 79.26
  C 176.18 86.32 181.52 92.18 186.03 99.62
  C 187.72 102.40 189.52 103.96 191.40 105.88
  Q 192.60 107.12 193.34 108.81
  A 0.32 0.32 0.0 0 0 193.93 108.79
  C 195.24 105.03 196.22 99.54 194.17 95.84
  C 189.54 87.49 182.57 79.95 175.79 72.45
  A 0.84 0.83 44.7 0 1 175.78 71.33
  Q 185.53 60.42 193.11 51.13
  Q 196.97 46.40 197.99 43.55
  C 199.58 39.13 197.25 35.20 192.42 36.16
  A 0.47 0.47 0.0 0 0 192.19 36.97
  Z
  M 86.11 70.21
  Q 87.32 68.74 101.30 52.95
  C 105.87 47.79 109.85 43.67 108.95 37.19
  A 0.57 0.57 0.0 0 0 108.20 36.73
  C 104.09 38.17 101.26 39.95 98.19 43.24
  Q 89.04 53.00 79.51 64.22
  A 0.57 0.56 40.5 0 1 78.70 64.28
  Q 69.11 55.86 61.88 45.64
  C 60.01 43.00 56.50 42.01 54.69 45.47
  C 51.55 51.49 68.52 67.27 72.75 71.01
  A 0.55 0.54 40.7 0 1 72.81 71.76
  L 47.57 102.95
  A 3.80 3.80 0.0 0 0 48.12 108.28
  L 48.22 108.35
  A 3.92 3.91 -52.0 0 0 53.41 107.71
  L 79.45 77.85
  A 0.52 0.52 0.0 0 1 80.19 77.79
  Q 89.82 85.89 97.51 95.04
  C 100.59 98.70 102.24 99.79 107.14 99.88
  A 1.05 1.05 0.0 0 0 108.22 98.76
  C 107.93 94.50 107.46 92.76 104.54 89.38
  Q 95.85 79.34 86.20 71.13
  A 0.66 0.65 -50.9 0 1 86.11 70.21
  Z
  M 122.24 130.74
  C 94.89 131.25 70.92 150.24 62.41 175.55
  C 54.01 200.53 63.73 228.08 90.47 235.68
  Q 98.02 237.82 104.43 237.95
  C 131.48 238.51 162.95 227.38 178.23 203.75
  C 195.27 177.39 185.43 143.02 154.33 133.93
  C 142.95 130.59 131.58 130.56 122.24 130.74
  Z"
/>
<path fill="#ffdd22" d="
  M 192.42 36.16
  C 197.25 35.20 199.58 39.13 197.99 43.55
  Q 196.97 46.40 193.11 51.13
  Q 185.53 60.42 175.78 71.33
  A 0.84 0.83 44.7 0 0 175.79 72.45
  C 182.57 79.95 189.54 87.49 194.17 95.84
  C 196.22 99.54 195.24 105.03 193.93 108.79
  A 0.32 0.32 0.0 0 1 193.34 108.81
  Q 192.60 107.12 191.40 105.88
  C 189.52 103.96 187.72 102.40 186.03 99.62
  C 181.52 92.18 176.18 86.32 169.88 79.26
  A 0.73 0.73 0.0 0 0 168.77 79.28
  Q 157.06 93.38 145.14 104.37
  Q 143.34 106.02 140.53 107.21
  A 1.70 1.69 -48.5 0 1 139.47 107.28
  Q 137.52 106.79 136.82 105.87
  C 134.66 103.06 136.51 100.86 138.76 98.77
  Q 151.15 87.21 163.11 72.64
  A 0.58 0.57 43.8 0 0 163.09 71.89
  L 144.08 50.15
  A 4.63 4.62 48.9 0 1 144.51 43.62
  L 144.88 43.29
  A 3.88 3.87 48.8 0 1 150.34 43.66
  L 169.04 65.03
  A 0.53 0.53 0.0 0 0 169.84 65.03
  Q 182.10 51.09 192.23 38.14
  Q 192.87 37.32 192.62 37.21
  Q 192.28 37.05 192.19 36.97
  A 0.47 0.47 0.0 0 1 192.42 36.16
  Z"
/>
<path fill="#ffdd22" d="
  M 86.11 70.21
  A 0.66 0.65 -50.9 0 0 86.20 71.13
  Q 95.85 79.34 104.54 89.38
  C 107.46 92.76 107.93 94.50 108.22 98.76
  A 1.05 1.05 0.0 0 1 107.14 99.88
  C 102.24 99.79 100.59 98.70 97.51 95.04
  Q 89.82 85.89 80.19 77.79
  A 0.52 0.52 0.0 0 0 79.45 77.85
  L 53.41 107.71
  A 3.92 3.91 -52.0 0 1 48.22 108.35
  L 48.12 108.28
  A 3.80 3.80 0.0 0 1 47.57 102.95
  L 72.81 71.76
  A 0.55 0.54 40.7 0 0 72.75 71.01
  C 68.52 67.27 51.55 51.49 54.69 45.47
  C 56.50 42.01 60.01 43.00 61.88 45.64
  Q 69.11 55.86 78.70 64.28
  A 0.57 0.56 40.5 0 0 79.51 64.22
  Q 89.04 53.00 98.19 43.24
  C 101.26 39.95 104.09 38.17 108.20 36.73
  A 0.57 0.57 0.0 0 1 108.95 37.19
  C 109.85 43.67 105.87 47.79 101.30 52.95
  Q 87.32 68.74 86.11 70.21
  Z"
/>
<path fill="#ffdd22" d="
  M 62.41 175.55
  C 70.92 150.24 94.89 131.25 122.24 130.74
  C 131.58 130.56 142.95 130.59 154.33 133.93
  C 185.43 143.02 195.27 177.39 178.23 203.75
  C 162.95 227.38 131.48 238.51 104.43 237.95
  Q 98.02 237.82 90.47 235.68
  C 63.73 228.08 54.01 200.53 62.41 175.55
  Z
  M 151.26 142.99
  Q 153.02 144.80 152.92 146.56
  A 0.29 0.29 0.0 0 1 152.48 146.79
  L 146.09 142.64
  A 4.95 4.76 -17.1 0 0 145.20 142.19
  Q 136.86 139.08 126.87 140.13
  Q 121.60 140.69 107.89 142.41
  Q 104.35 142.85 100.58 144.81
  Q 82.29 154.30 73.70 171.70
  C 69.41 180.39 67.47 190.74 69.02 199.96
  C 72.59 221.15 90.34 229.81 110.19 228.89
  Q 134.39 227.77 153.76 215.39
  C 167.60 206.54 177.83 192.33 177.39 175.53
  Q 176.86 155.34 159.51 145.79
  Q 155.35 143.50 151.53 142.53
  A 0.28 0.28 0.0 0 0 151.26 142.99
  Z"
/>
<path fill="#00e0fd" d="
  M 151.53 142.53
  Q 155.35 143.50 159.51 145.79
  Q 176.86 155.34 177.39 175.53
  C 177.83 192.33 167.60 206.54 153.76 215.39
  Q 134.39 227.77 110.19 228.89
  C 90.34 229.81 72.59 221.15 69.02 199.96
  C 67.47 190.74 69.41 180.39 73.70 171.70
  Q 82.29 154.30 100.58 144.81
  Q 104.35 142.85 107.89 142.41
  Q 121.60 140.69 126.87 140.13
  Q 136.86 139.08 145.20 142.19
  A 4.95 4.76 -17.1 0 1 146.09 142.64
  L 152.48 146.79
  A 0.29 0.29 0.0 0 0 152.92 146.56
  Q 153.02 144.80 151.26 142.99
  A 0.28 0.28 0.0 0 1 151.53 142.53
  Z"
/>
</svg>
