<?xml version="1.0" encoding="UTF-8" standalone="no"?>
<!DOCTYPE svg PUBLIC "-//W3C//DTD SVG 1.1//EN" "http://www.w3.org/Graphics/SVG/1.1/DTD/svg11.dtd">
<svg xmlns="http://www.w3.org/2000/svg" version="1.1" viewBox="0.00 0.00 256.00 256.00">
<g stroke-width="2.00" fill="none" stroke-linecap="butt">
<path stroke="#72c847" vector-effect="non-scaling-stroke" d="
  M 75.11 43.98
  Q 81.77 56.52 87.90 67.11
  Q 93.43 76.68 107.00 94.86
  A 3.14 3.13 88.1 0 0 107.82 95.63
  Q 110.33 97.25 113.13 97.73
  A 0.73 0.73 0.0 0 0 113.93 97.28
  Q 116.12 91.91 113.21 88.08
  Q 97.18 67.03 87.08 46.99
  C 85.39 43.63 81.96 37.40 79.35 34.41
  C 76.41 31.04 71.31 29.08 68.84 34.37
  Q 66.66 39.03 64.85 45.09
  Q 57.55 69.51 55.70 97.76
  Q 55.61 99.08 56.03 100.05
  A 0.64 0.64 0.0 0 0 57.20 100.08
  Q 57.73 98.99 61.62 88.29
  C 66.86 73.89 69.62 58.65 74.70 44.01
  A 0.22 0.22 0.0 0 1 75.11 43.98"
/>
<path stroke="#72c847" vector-effect="non-scaling-stroke" d="
  M 174.20 48.39
  C 176.49 63.59 180.07 76.48 184.66 91.65
  C 186.55 97.90 186.63 100.27 191.35 103.80
  A 0.58 0.58 0.0 0 0 192.11 103.74
  Q 196.77 99.17 194.34 92.00
  Q 186.36 68.47 182.35 42.74
  C 181.67 38.36 179.30 30.23 173.23 33.16
  C 171.96 33.77 170.43 36.31 169.93 37.16
  C 163.97 47.37 159.90 55.00 153.79 63.86
  Q 143.81 78.34 131.40 94.43
  A 4.07 4.06 -51.1 0 0 131.99 100.02
  L 132.11 100.12
  A 3.96 3.96 0.0 0 0 137.67 99.68
  Q 158.84 75.15 173.88 48.33
  A 0.17 0.17 0.0 0 1 174.20 48.39"
/>
<path stroke="#72c847" vector-effect="non-scaling-stroke" d="
  M 158.0244 136.0784
  A 11.70 10.07 -20.0 0 0 143.5859 130.6173
  A 11.70 10.07 -20.0 0 0 136.0356 144.0816
  A 11.70 10.07 -20.0 0 0 150.4741 149.5427
  A 11.70 10.07 -20.0 0 0 158.0244 136.0784"
/>
<path stroke="#72c847" vector-effect="non-scaling-stroke" d="
  M 93.97 130.95
  C 88.96 131.87 86.07 136.28 86.06 141.37
  C 86.06 147.55 91.84 150.53 97.39 149.51
  C 102.94 148.48 107.28 143.64 105.07 137.87
  C 103.25 133.12 98.97 130.03 93.97 130.95"
/>
<path stroke="#72c847" vector-effect="non-scaling-stroke" d="
  M 132.32 200.09
  Q 147.36 193.53 152.61 190.84
  Q 155.10 189.55 156.63 186.43
  A 2.23 2.18 59.6 0 0 156.87 185.47
  C 157.05 180.85 151.78 181.28 149.05 182.56
  Q 134.45 189.42 119.56 195.82
  Q 117.76 196.59 116.00 195.99
  Q 106.48 192.76 94.32 187.79
  A 4.27 4.25 -67.2 0 0 88.80 190.05
  L 88.68 190.35
  A 4.52 4.51 21.7 0 0 91.21 196.23
  L 105.13 201.75
  A 0.27 0.26 44.2 0 1 105.14 202.24
  Q 90.07 208.85 88.31 209.81
  Q 86.42 210.84 85.59 212.23
  A 2.38 2.37 -64.2 0 0 86.78 215.67
  Q 89.35 216.64 92.83 215.84
  C 101.86 213.76 109.31 210.37 117.45 206.64
  A 3.06 3.03 40.0 0 1 119.52 206.47
  Q 130.49 209.51 139.22 211.49
  C 147.88 213.45 152.93 215.27 159.53 210.53
  A 0.30 0.29 -42.8 0 0 159.55 210.07
  C 155.59 206.66 153.40 205.09 148.00 204.10
  Q 142.13 203.04 132.35 200.51
  A 0.22 0.22 0.0 0 1 132.32 200.09"
/>
</g>
<path fill="#009145" d="
  M 256.00 0.00
  L 256.00 256.00
  L 0.00 256.00
  L 0.00 0.00
  L 256.00 0.00
  Z
  M 75.11 43.98
  Q 81.77 56.52 87.90 67.11
  Q 93.43 76.68 107.00 94.86
  A 3.14 3.13 88.1 0 0 107.82 95.63
  Q 110.33 97.25 113.13 97.73
  A 0.73 0.73 0.0 0 0 113.93 97.28
  Q 116.12 91.91 113.21 88.08
  Q 97.18 67.03 87.08 46.99
  C 85.39 43.63 81.96 37.40 79.35 34.41
  C 76.41 31.04 71.31 29.08 68.84 34.37
  Q 66.66 39.03 64.85 45.09
  Q 57.55 69.51 55.70 97.76
  Q 55.61 99.08 56.03 100.05
  A 0.64 0.64 0.0 0 0 57.20 100.08
  Q 57.73 98.99 61.62 88.29
  C 66.86 73.89 69.62 58.65 74.70 44.01
  A 0.22 0.22 0.0 0 1 75.11 43.98
  Z
  M 174.20 48.39
  C 176.49 63.59 180.07 76.48 184.66 91.65
  C 186.55 97.90 186.63 100.27 191.35 103.80
  A 0.58 0.58 0.0 0 0 192.11 103.74
  Q 196.77 99.17 194.34 92.00
  Q 186.36 68.47 182.35 42.74
  C 181.67 38.36 179.30 30.23 173.23 33.16
  C 171.96 33.77 170.43 36.31 169.93 37.16
  C 163.97 47.37 159.90 55.00 153.79 63.86
  Q 143.81 78.34 131.40 94.43
  A 4.07 4.06 -51.1 0 0 131.99 100.02
  L 132.11 100.12
  A 3.96 3.96 0.0 0 0 137.67 99.68
  Q 158.84 75.15 173.88 48.33
  A 0.17 0.17 0.0 0 1 174.20 48.39
  Z
  M 158.0244 136.0784
  A 11.70 10.07 -20.0 0 0 143.5859 130.6173
  A 11.70 10.07 -20.0 0 0 136.0356 144.0816
  A 11.70 10.07 -20.0 0 0 150.4741 149.5427
  A 11.70 10.07 -20.0 0 0 158.0244 136.0784
  Z
  M 93.97 130.95
  C 88.96 131.87 86.07 136.28 86.06 141.37
  C 86.06 147.55 91.84 150.53 97.39 149.51
  C 102.94 148.48 107.28 143.64 105.07 137.87
  C 103.25 133.12 98.97 130.03 93.97 130.95
  Z
  M 132.32 200.09
  Q 147.36 193.53 152.61 190.84
  Q 155.10 189.55 156.63 186.43
  A 2.23 2.18 59.6 0 0 156.87 185.47
  C 157.05 180.85 151.78 181.28 149.05 182.56
  Q 134.45 189.42 119.56 195.82
  Q 117.76 196.59 116.00 195.99
  Q 106.48 192.76 94.32 187.79
  A 4.27 4.25 -67.2 0 0 88.80 190.05
  L 88.68 190.35
  A 4.52 4.51 21.7 0 0 91.21 196.23
  L 105.13 201.75
  A 0.27 0.26 44.2 0 1 105.14 202.24
  Q 90.07 208.85 88.31 209.81
  Q 86.42 210.84 85.59 212.23
  A 2.38 2.37 -64.2 0 0 86.78 215.67
  Q 89.35 216.64 92.83 215.84
  C 101.86 213.76 109.31 210.37 117.45 206.64
  A 3.06 3.03 40.0 0 1 119.52 206.47
  Q 130.49 209.51 139.22 211.49
  C 147.88 213.45 152.93 215.27 159.53 210.53
  A 0.30 0.29 -42.8 0 0 159.55 210.07
  C 155.59 206.66 153.40 205.09 148.00 204.10
  Q 142.13 203.04 132.35 200.51
  A 0.22 0.22 0.0 0 1 132.32 200.09
  Z"
/>
<path fill="#e3ff48" d="
  M 75.11 43.98
  A 0.22 0.22 0.0 0 0 74.70 44.01
  C 69.62 58.65 66.86 73.89 61.62 88.29
  Q 57.73 98.99 57.20 100.08
  A 0.64 0.64 0.0 0 1 56.03 100.05
  Q 55.61 99.08 55.70 97.76
  Q 57.55 69.51 64.85 45.09
  Q 66.66 39.03 68.84 34.37
  C 71.31 29.08 76.41 31.04 79.35 34.41
  C 81.96 37.40 85.39 43.63 87.08 46.99
  Q 97.18 67.03 113.21 88.08
  Q 116.12 91.91 113.93 97.28
  A 0.73 0.73 0.0 0 1 113.13 97.73
  Q 110.33 97.25 107.82 95.63
  A 3.14 3.13 88.1 0 1 107.00 94.86
  Q 93.43 76.68 87.90 67.11
  Q 81.77 56.52 75.11 43.98
  Z"
/>
<path fill="#e3ff48" d="
  M 173.88 48.33
  Q 158.84 75.15 137.67 99.68
  A 3.96 3.96 0.0 0 1 132.11 100.12
  L 131.99 100.02
  A 4.07 4.06 -51.1 0 1 131.40 94.43
  Q 143.81 78.34 153.79 63.86
  C 159.90 55.00 163.97 47.37 169.93 37.16
  C 170.43 36.31 171.96 33.77 173.23 33.16
  C 179.30 30.23 181.67 38.36 182.35 42.74
  Q 186.36 68.47 194.34 92.00
  Q 196.77 99.17 192.11 103.74
  A 0.58 0.58 0.0 0 1 191.35 103.80
  C 186.63 100.27 186.55 97.90 184.66 91.65
  C 180.07 76.48 176.49 63.59 174.20 48.39
  A 0.17 0.17 0.0 0 0 173.88 48.33
  Z"
/>
<ellipse fill="#e3ff48" cx="0.00" cy="0.00" transform="translate(147.03,140.08) rotate(-20.0)" rx="11.70" ry="10.07"/>
<path fill="#e3ff48" d="
  M 97.39 149.51
  C 91.84 150.53 86.06 147.55 86.06 141.37
  C 86.07 136.28 88.96 131.87 93.97 130.95
  C 98.97 130.03 103.25 133.12 105.07 137.87
  C 107.28 143.64 102.94 148.48 97.39 149.51
  Z"
/>
<path fill="#e3ff48" d="
  M 132.35 200.51
  Q 142.13 203.04 148.00 204.10
  C 153.40 205.09 155.59 206.66 159.55 210.07
  A 0.30 0.29 -42.8 0 1 159.53 210.53
  C 152.93 215.27 147.88 213.45 139.22 211.49
  Q 130.49 209.51 119.52 206.47
  A 3.06 3.03 40.0 0 0 117.45 206.64
  C 109.31 210.37 101.86 213.76 92.83 215.84
  Q 89.35 216.64 86.78 215.67
  A 2.38 2.37 -64.2 0 1 85.59 212.23
  Q 86.42 210.84 88.31 209.81
  Q 90.07 208.85 105.14 202.24
  A 0.27 0.26 44.2 0 0 105.13 201.75
  L 91.21 196.23
  A 4.52 4.51 21.7 0 1 88.68 190.35
  L 88.80 190.05
  A 4.27 4.25 -67.2 0 1 94.32 187.79
  Q 106.48 192.76 116.00 195.99
  Q 117.76 196.59 119.56 195.82
  Q 134.45 189.42 149.05 182.56
  C 151.78 181.28 157.05 180.85 156.87 185.47
  A 2.23 2.18 59.6 0 1 156.63 186.43
  Q 155.10 189.55 152.61 190.84
  Q 147.36 193.53 132.32 200.09
  A 0.22 0.22 0.0 0 0 132.35 200.51
  Z"
/>
</svg>
