<?xml version="1.0" encoding="UTF-8" standalone="no"?>
<!DOCTYPE svg PUBLIC "-//W3C//DTD SVG 1.1//EN" "http://www.w3.org/Graphics/SVG/1.1/DTD/svg11.dtd">
<svg xmlns="http://www.w3.org/2000/svg" version="1.1" viewBox="0.00 0.00 256.00 256.00">
<g stroke-width="2.00" fill="none" stroke-linecap="butt">
<path stroke="#9f80bf" vector-effect="non-scaling-stroke" d="
  M 70.13 68.64
  Q 69.28 67.07 67.00 67.14
  Q 59.32 67.37 52.81 72.36
  C 31.49 88.72 25.86 122.09 55.59 134.23
  C 67.79 139.21 83.71 140.50 95.63 136.13
  C 105.72 132.43 113.41 124.90 113.88 113.96
  C 114.51 99.22 105.93 85.36 94.19 76.77
  Q 83.66 69.07 70.87 69.08
  A 0.84 0.84 0.0 0 1 70.13 68.64"
/>
<path stroke="#9f80bf" vector-effect="non-scaling-stroke" d="
  M 129.78 102.66
  C 125.15 118.43 134.58 132.17 149.35 137.43
  C 168.37 144.20 195.46 141.76 210.98 128.00
  C 221.34 118.80 223.18 106.10 215.76 94.31
  Q 206.04 78.86 188.15 72.85
  Q 184.64 71.67 178.64 71.99
  A 6.16 6.12 49.8 0 1 176.90 71.84
  C 155.51 66.77 135.53 83.02 129.78 102.66"
/>
<path stroke="#9f80bf" vector-effect="non-scaling-stroke" d="
  M 190.81 184.31
  A 4.34 4.32 -76.2 0 0 187.60 178.99
  Q 173.91 175.83 161.17 173.86
  C 136.96 170.12 113.41 171.74 89.00 174.99
  Q 79.06 176.31 70.41 178.39
  C 67.84 179.01 63.41 180.48 64.17 183.81
  C 64.86 186.82 69.14 186.71 71.33 186.41
  C 102.00 182.18 129.65 178.34 158.78 182.66
  Q 169.69 184.27 185.39 187.78
  A 4.53 4.52 -76.4 0 0 190.76 184.50
  L 190.81 184.31"
/>
<path stroke="#9f80bf" vector-effect="non-scaling-stroke" d="
  M 58.28 78.06
  C 48.94 86.08 39.74 102.97 46.25 115.22
  C 54.61 130.95 87.79 134.34 100.35 123.09
  C 107.75 116.46 104.86 104.71 100.70 97.28
  C 95.20 87.48 85.39 79.37 74.00 78.28
  Q 71.57 78.05 64.01 77.19
  Q 59.84 76.72 58.28 78.06"
/>
<path stroke="#9f80bf" vector-effect="non-scaling-stroke" d="
  M 163.49 81.94
  Q 163.94 81.41 165.10 80.47
  A 0.26 0.25 -71.3 0 0 164.88 80.02
  Q 152.87 83.10 145.22 92.21
  C 139.06 99.54 134.59 111.81 140.56 120.25
  C 151.80 136.11 184.81 133.87 199.14 125.40
  C 211.37 118.16 215.35 108.15 206.01 96.00
  Q 199.25 87.20 188.75 82.59
  A 0.60 0.60 0.0 0 0 187.92 83.06
  Q 187.91 83.13 187.90 83.14
  A 0.78 0.78 0.0 0 1 186.87 83.71
  Q 185.99 83.38 183.30 82.25
  C 177.42 79.77 169.01 78.04 163.60 82.07
  A 0.09 0.08 -86.5 0 1 163.49 81.94"
/>
<path stroke="#9f80bf" vector-effect="non-scaling-stroke" d="
  M 85.09 96.92
  L 78.70 98.29
  A 1.97 1.92 -67.5 0 0 77.98 98.60
  L 71.63 103.00
  A 0.73 0.73 0.0 0 1 70.71 102.93
  Q 63.38 96.01 63.22 95.87
  Q 60.69 93.56 58.44 94.79
  C 54.43 96.98 61.98 106.06 63.71 108.09
  A 0.47 0.47 0.0 0 1 63.60 108.80
  Q 59.99 111.09 57.66 113.41
  C 55.20 115.85 56.72 120.01 59.86 120.64
  C 62.65 121.19 67.48 117.10 69.63 115.51
  A 0.59 0.58 51.0 0 1 70.42 115.60
  Q 73.54 119.09 76.08 121.11
  Q 78.78 123.26 83.28 121.86
  A 0.82 0.82 0.0 0 0 83.85 121.05
  Q 83.72 116.64 80.77 113.48
  Q 77.94 110.46 77.84 110.39
  A 0.39 0.38 44.2 0 1 77.83 109.78
  L 81.93 106.56
  A 4.30 3.85 -86.8 0 0 82.65 105.84
  Q 85.40 102.47 85.55 97.31
  A 0.38 0.38 0.0 0 0 85.09 96.92"
/>
<path stroke="#9f80bf" vector-effect="non-scaling-stroke" d="
  M 178.90 105.36
  Q 182.87 100.97 180.83 96.39
  A 0.99 0.99 0.0 0 0 179.52 95.88
  Q 174.78 97.99 171.74 101.69
  A 0.82 0.82 0.0 0 1 170.78 101.93
  C 166.52 100.11 159.01 96.72 156.10 102.31
  A 1.48 1.45 48.5 0 0 156.04 103.53
  C 157.39 106.91 160.77 107.89 164.14 108.86
  A 0.38 0.38 0.0 0 1 164.29 109.50
  C 162.01 111.65 156.92 116.19 156.72 119.17
  A 2.12 2.11 2.4 0 0 158.80 121.42
  C 162.45 121.47 168.79 115.60 171.49 113.00
  A 0.72 0.69 36.4 0 1 172.31 112.89
  Q 177.16 115.46 183.10 118.84
  C 186.46 120.76 191.60 118.68 190.10 114.22
  Q 189.31 111.89 187.26 110.78
  Q 183.23 108.59 179.05 106.26
  A 0.59 0.58 -54.7 0 1 178.90 105.36"
/>
</g>
<path fill="#3f007f" d="
  M 256.00 0.00
  L 256.00 256.00
  L 0.00 256.00
  L 0.00 0.00
  L 256.00 0.00
  Z
  M 70.13 68.64
  Q 69.28 67.07 67.00 67.14
  Q 59.32 67.37 52.81 72.36
  C 31.49 88.72 25.86 122.09 55.59 134.23
  C 67.79 139.21 83.71 140.50 95.63 136.13
  C 105.72 132.43 113.41 124.90 113.88 113.96
  C 114.51 99.22 105.93 85.36 94.19 76.77
  Q 83.66 69.07 70.87 69.08
  A 0.84 0.84 0.0 0 1 70.13 68.64
  Z
  M 129.78 102.66
  C 125.15 118.43 134.58 132.17 149.35 137.43
  C 168.37 144.20 195.46 141.76 210.98 128.00
  C 221.34 118.80 223.18 106.10 215.76 94.31
  Q 206.04 78.86 188.15 72.85
  Q 184.64 71.67 178.64 71.99
  A 6.16 6.12 49.8 0 1 176.90 71.84
  C 155.51 66.77 135.53 83.02 129.78 102.66
  Z
  M 190.81 184.31
  A 4.34 4.32 -76.2 0 0 187.60 178.99
  Q 173.91 175.83 161.17 173.86
  C 136.96 170.12 113.41 171.74 89.00 174.99
  Q 79.06 176.31 70.41 178.39
  C 67.84 179.01 63.41 180.48 64.17 183.81
  C 64.86 186.82 69.14 186.71 71.33 186.41
  C 102.00 182.18 129.65 178.34 158.78 182.66
  Q 169.69 184.27 185.39 187.78
  A 4.53 4.52 -76.4 0 0 190.76 184.50
  L 190.81 184.31
  Z"
/>
<path fill="#ffffff" d="
  M 70.87 69.08
  Q 83.66 69.07 94.19 76.77
  C 105.93 85.36 114.51 99.22 113.88 113.96
  C 113.41 124.90 105.72 132.43 95.63 136.13
  C 83.71 140.50 67.79 139.21 55.59 134.23
  C 25.86 122.09 31.49 88.72 52.81 72.36
  Q 59.32 67.37 67.00 67.14
  Q 69.28 67.07 70.13 68.64
  A 0.84 0.84 0.0 0 0 70.87 69.08
  Z
  M 58.28 78.06
  C 48.94 86.08 39.74 102.97 46.25 115.22
  C 54.61 130.95 87.79 134.34 100.35 123.09
  C 107.75 116.46 104.86 104.71 100.70 97.28
  C 95.20 87.48 85.39 79.37 74.00 78.28
  Q 71.57 78.05 64.01 77.19
  Q 59.84 76.72 58.28 78.06
  Z"
/>
<path fill="#ffffff" d="
  M 149.35 137.43
  C 134.58 132.17 125.15 118.43 129.78 102.66
  C 135.53 83.02 155.51 66.77 176.90 71.84
  A 6.16 6.12 49.8 0 0 178.64 71.99
  Q 184.64 71.67 188.15 72.85
  Q 206.04 78.86 215.76 94.31
  C 223.18 106.10 221.34 118.80 210.98 128.00
  C 195.46 141.76 168.37 144.20 149.35 137.43
  Z
  M 163.49 81.94
  Q 163.94 81.41 165.10 80.47
  A 0.26 0.25 -71.3 0 0 164.88 80.02
  Q 152.87 83.10 145.22 92.21
  C 139.06 99.54 134.59 111.81 140.56 120.25
  C 151.80 136.11 184.81 133.87 199.14 125.40
  C 211.37 118.16 215.35 108.15 206.01 96.00
  Q 199.25 87.20 188.75 82.59
  A 0.60 0.60 0.0 0 0 187.92 83.06
  Q 187.91 83.13 187.90 83.14
  A 0.78 0.78 0.0 0 1 186.87 83.71
  Q 185.99 83.38 183.30 82.25
  C 177.42 79.77 169.01 78.04 163.60 82.07
  A 0.09 0.08 -86.5 0 1 163.49 81.94
  Z"
/>
<path fill="#3f007f" d="
  M 58.28 78.06
  Q 59.84 76.72 64.01 77.19
  Q 71.57 78.05 74.00 78.28
  C 85.39 79.37 95.20 87.48 100.70 97.28
  C 104.86 104.71 107.75 116.46 100.35 123.09
  C 87.79 134.34 54.61 130.95 46.25 115.22
  C 39.74 102.97 48.94 86.08 58.28 78.06
  Z
  M 85.09 96.92
  L 78.70 98.29
  A 1.97 1.92 -67.5 0 0 77.98 98.60
  L 71.63 103.00
  A 0.73 0.73 0.0 0 1 70.71 102.93
  Q 63.38 96.01 63.22 95.87
  Q 60.69 93.56 58.44 94.79
  C 54.43 96.98 61.98 106.06 63.71 108.09
  A 0.47 0.47 0.0 0 1 63.60 108.80
  Q 59.99 111.09 57.66 113.41
  C 55.20 115.85 56.72 120.01 59.86 120.64
  C 62.65 121.19 67.48 117.10 69.63 115.51
  A 0.59 0.58 51.0 0 1 70.42 115.60
  Q 73.54 119.09 76.08 121.11
  Q 78.78 123.26 83.28 121.86
  A 0.82 0.82 0.0 0 0 83.85 121.05
  Q 83.72 116.64 80.77 113.48
  Q 77.94 110.46 77.84 110.39
  A 0.39 0.38 44.2 0 1 77.83 109.78
  L 81.93 106.56
  A 4.30 3.85 -86.8 0 0 82.65 105.84
  Q 85.40 102.47 85.55 97.31
  A 0.38 0.38 0.0 0 0 85.09 96.92
  Z"
/>
<path fill="#3f007f" d="
  M 163.60 82.07
  C 169.01 78.04 177.42 79.77 183.30 82.25
  Q 185.99 83.38 186.87 83.71
  A 0.78 0.78 0.0 0 0 187.90 83.14
  Q 187.91 83.13 187.92 83.06
  A 0.60 0.60 0.0 0 1 188.75 82.59
  Q 199.25 87.20 206.01 96.00
  C 215.35 108.15 211.37 118.16 199.14 125.40
  C 184.81 133.87 151.80 136.11 140.56 120.25
  C 134.59 111.81 139.06 99.54 145.22 92.21
  Q 152.87 83.10 164.88 80.02
  A 0.26 0.25 -71.3 0 1 165.10 80.47
  Q 163.94 81.41 163.49 81.94
  A 0.09 0.08 -86.5 0 0 163.60 82.07
  Z
  M 178.90 105.36
  Q 182.87 100.97 180.83 96.39
  A 0.99 0.99 0.0 0 0 179.52 95.88
  Q 174.78 97.99 171.74 101.69
  A 0.82 0.82 0.0 0 1 170.78 101.93
  C 166.52 100.11 159.01 96.72 156.10 102.31
  A 1.48 1.45 48.5 0 0 156.04 103.53
  C 157.39 106.91 160.77 107.89 164.14 108.86
  A 0.38 0.38 0.0 0 1 164.29 109.50
  C 162.01 111.65 156.92 116.19 156.72 119.17
  A 2.12 2.11 2.4 0 0 158.80 121.42
  C 162.45 121.47 168.79 115.60 171.49 113.00
  A 0.72 0.69 36.4 0 1 172.31 112.89
  Q 177.16 115.46 183.10 118.84
  C 186.46 120.76 191.60 118.68 190.10 114.22
  Q 189.31 111.89 187.26 110.78
  Q 183.23 108.59 179.05 106.26
  A 0.59 0.58 -54.7 0 1 178.90 105.36
  Z"
/>
<path fill="#ffffff" d="
  M 85.55 97.31
  Q 85.40 102.47 82.65 105.84
  A 4.30 3.85 -86.8 0 1 81.93 106.56
  L 77.83 109.78
  A 0.39 0.38 44.2 0 0 77.84 110.39
  Q 77.94 110.46 80.77 113.48
  Q 83.72 116.64 83.85 121.05
  A 0.82 0.82 0.0 0 1 83.28 121.86
  Q 78.78 123.26 76.08 121.11
  Q 73.54 119.09 70.42 115.60
  A 0.59 0.58 51.0 0 0 69.63 115.51
  C 67.48 117.10 62.65 121.19 59.86 120.64
  C 56.72 120.01 55.20 115.85 57.66 113.41
  Q 59.99 111.09 63.60 108.80
  A 0.47 0.47 0.0 0 0 63.71 108.09
  C 61.98 106.06 54.43 96.98 58.44 94.79
  Q 60.69 93.56 63.22 95.87
  Q 63.38 96.01 70.71 102.93
  A 0.73 0.73 0.0 0 0 71.63 103.00
  L 77.98 98.60
  A 1.97 1.92 -67.5 0 1 78.70 98.29
  L 85.09 96.92
  A 0.38 0.38 0.0 0 1 85.55 97.31
  Z"
/>
<path fill="#ffffff" d="
  M 179.05 106.26
  Q 183.23 108.59 187.26 110.78
  Q 189.31 111.89 190.10 114.22
  C 191.60 118.68 186.46 120.76 183.10 118.84
  Q 177.16 115.46 172.31 112.89
  A 0.72 0.69 36.4 0 0 171.49 113.00
  C 168.79 115.60 162.45 121.47 158.80 121.42
  A 2.12 2.11 2.4 0 1 156.72 119.17
  C 156.92 116.19 162.01 111.65 164.29 109.50
  A 0.38 0.38 0.0 0 0 164.14 108.86
  C 160.77 107.89 157.39 106.91 156.04 103.53
  A 1.48 1.45 48.5 0 1 156.10 102.31
  C 159.01 96.72 166.52 100.11 170.78 101.93
  A 0.82 0.82 0.0 0 0 171.74 101.69
  Q 174.78 97.99 179.52 95.88
  A 0.99 0.99 0.0 0 1 180.83 96.39
  Q 182.87 100.97 178.90 105.36
  A 0.59 0.58 -54.7 0 0 179.05 106.26
  Z"
/>
<path fill="#ffffff" d="
  M 190.81 184.31
  L 190.76 184.50
  A 4.53 4.52 -76.4 0 1 185.39 187.78
  Q 169.69 184.27 158.78 182.66
  C 129.65 178.34 102.00 182.18 71.33 186.41
  C 69.14 186.71 64.86 186.82 64.17 183.81
  C 63.41 180.48 67.84 179.01 70.41 178.39
  Q 79.06 176.31 89.00 174.99
  C 113.41 171.74 136.96 170.12 161.17 173.86
  Q 173.91 175.83 187.60 178.99
  A 4.34 4.32 -76.2 0 1 190.81 184.31
  Z"
/>
</svg>
