<?xml version="1.0" encoding="UTF-8" standalone="no"?>
<!DOCTYPE svg PUBLIC "-//W3C//DTD SVG 1.1//EN" "http://www.w3.org/Graphics/SVG/1.1/DTD/svg11.dtd">
<svg xmlns="http://www.w3.org/2000/svg" version="1.1" viewBox="0.00 0.00 256.00 256.00">
<g stroke-width="2.00" fill="none" stroke-linecap="butt">
<path stroke="#a46566" vector-effect="non-scaling-stroke" d="
  M 104.37 101.82
  C 106.10 96.48 104.18 90.29 100.07 86.90
  Q 93.21 81.25 82.49 79.81
  C 76.68 79.03 72.50 80.91 69.09 85.33
  C 63.05 93.17 63.61 104.47 71.48 110.86
  C 81.54 119.02 100.15 114.86 104.37 101.82"
/>
<path stroke="#a46566" vector-effect="non-scaling-stroke" d="
  M 167.90 99.53
  C 169.37 91.12 158.23 85.72 151.04 83.27
  Q 149.04 82.60 145.18 83.60
  A 2.91 2.89 45.2 0 1 143.70 83.59
  C 129.69 79.69 115.59 100.33 128.47 110.85
  Q 134.18 115.51 142.98 115.26
  Q 156.36 114.88 165.09 105.39
  Q 167.29 102.99 167.90 99.53"
/>
<path stroke="#a46566" vector-effect="non-scaling-stroke" d="
  M 131.25 170.73
  Q 128.15 172.81 129.88 176.89
  C 131.86 181.56 135.47 187.12 141.23 182.97
  Q 146.29 179.32 147.58 173.26
  Q 147.79 172.28 146.80 170.07
  A 0.41 0.41 0.0 0 1 147.16 169.49
  Q 158.80 169.21 172.26 167.83
  Q 175.34 167.51 177.75 164.99
  C 179.44 163.23 179.53 160.30 176.81 159.33
  C 172.69 157.86 167.65 159.34 164.75 159.49
  Q 136.57 161.00 120.75 161.96
  C 97.45 163.37 83.87 164.42 72.25 164.02
  Q 70.12 163.95 68.31 164.46
  A 2.26 2.10 -71.3 0 0 67.46 164.92
  Q 64.27 167.69 66.78 170.95
  A 2.41 2.34 -3.0 0 0 67.49 171.57
  Q 70.64 173.30 76.16 173.14
  A 1.06 1.06 0.0 0 1 77.22 173.97
  Q 78.49 179.57 82.14 184.84
  Q 82.91 185.96 87.02 187.29
  A 1.66 1.63 45.6 0 0 87.96 187.31
  Q 93.14 185.86 95.35 180.07
  Q 96.88 176.08 95.93 172.98
  A 0.32 0.31 -10.4 0 1 96.21 172.58
  L 131.13 170.37
  A 0.20 0.20 0.0 0 1 131.25 170.73"
/>
<path stroke="#a46566" vector-effect="non-scaling-stroke" d="
  M 78.39 88.46
  A 2.53 2.51 -71.0 0 0 76.15 89.56
  C 71.79 95.93 73.31 105.36 82.23 106.28
  Q 90.61 107.14 95.15 101.41
  Q 96.86 99.25 96.14 96.46
  C 94.74 91.07 82.80 88.74 78.39 88.46"
/>
<path stroke="#a46566" vector-effect="non-scaling-stroke" d="
  M 158.63 97.81
  C 155.86 94.70 151.90 93.20 146.69 90.84
  A 1.01 0.97 -35.6 0 0 146.14 90.76
  L 140.47 91.49
  A 1.68 1.47 25.7 0 0 140.00 91.62
  Q 134.46 94.09 132.90 98.16
  C 130.88 103.45 136.02 105.68 140.21 106.07
  C 146.96 106.69 154.40 104.46 158.68 98.79
  A 0.77 0.77 0.0 0 0 158.63 97.81"
/>
<path stroke="#a46566" vector-effect="non-scaling-stroke" d="
  M 140.68 169.80
  L 133.69 170.24
  A 0.14 0.14 0.0 0 0 133.64 170.50
  L 135.91 171.61
  A 0.80 0.80 0.0 0 1 136.27 171.97
  Q 136.34 172.09 137.28 173.81
  A 0.31 0.31 0.0 0 0 137.79 173.85
  L 140.81 170.05
  A 0.16 0.15 -72.6 0 0 140.68 169.80"
/>
<path stroke="#a46566" vector-effect="non-scaling-stroke" d="
  M 87.48 175.53
  L 87.99 173.67
  A 0.60 0.60 0.0 0 0 87.44 172.91
  L 86.20 172.85
  A 0.47 0.47 0.0 0 0 85.77 173.56
  L 86.94 175.60
  A 0.30 0.30 0.0 0 0 87.48 175.53"
/>
</g>
<path fill="#ffb6c1" d="
  M 256.00 0.00
  L 256.00 256.00
  L 0.00 256.00
  L 0.00 0.00
  L 256.00 0.00
  Z
  M 104.37 101.82
  C 106.10 96.48 104.18 90.29 100.07 86.90
  Q 93.21 81.25 82.49 79.81
  C 76.68 79.03 72.50 80.91 69.09 85.33
  C 63.05 93.17 63.61 104.47 71.48 110.86
  C 81.54 119.02 100.15 114.86 104.37 101.82
  Z
  M 167.90 99.53
  C 169.37 91.12 158.23 85.72 151.04 83.27
  Q 149.04 82.60 145.18 83.60
  A 2.91 2.89 45.2 0 1 143.70 83.59
  C 129.69 79.69 115.59 100.33 128.47 110.85
  Q 134.18 115.51 142.98 115.26
  Q 156.36 114.88 165.09 105.39
  Q 167.29 102.99 167.90 99.53
  Z
  M 131.25 170.73
  Q 128.15 172.81 129.88 176.89
  C 131.86 181.56 135.47 187.12 141.23 182.97
  Q 146.29 179.32 147.58 173.26
  Q 147.79 172.28 146.80 170.07
  A 0.41 0.41 0.0 0 1 147.16 169.49
  Q 158.80 169.21 172.26 167.83
  Q 175.34 167.51 177.75 164.99
  C 179.44 163.23 179.53 160.30 176.81 159.33
  C 172.69 157.86 167.65 159.34 164.75 159.49
  Q 136.57 161.00 120.75 161.96
  C 97.45 163.37 83.87 164.42 72.25 164.02
  Q 70.12 163.95 68.31 164.46
  A 2.26 2.10 -71.3 0 0 67.46 164.92
  Q 64.27 167.69 66.78 170.95
  A 2.41 2.34 -3.0 0 0 67.49 171.57
  Q 70.64 173.30 76.16 173.14
  A 1.06 1.06 0.0 0 1 77.22 173.97
  Q 78.49 179.57 82.14 184.84
  Q 82.91 185.96 87.02 187.29
  A 1.66 1.63 45.6 0 0 87.96 187.31
  Q 93.14 185.86 95.35 180.07
  Q 96.88 176.08 95.93 172.98
  A 0.32 0.31 -10.4 0 1 96.21 172.58
  L 131.13 170.37
  A 0.20 0.20 0.0 0 1 131.25 170.73
  Z"
/>
<path fill="#48140b" d="
  M 104.37 101.82
  C 100.15 114.86 81.54 119.02 71.48 110.86
  C 63.61 104.47 63.05 93.17 69.09 85.33
  C 72.50 80.91 76.68 79.03 82.49 79.81
  Q 93.21 81.25 100.07 86.90
  C 104.18 90.29 106.10 96.48 104.37 101.82
  Z
  M 78.39 88.46
  A 2.53 2.51 -71.0 0 0 76.15 89.56
  C 71.79 95.93 73.31 105.36 82.23 106.28
  Q 90.61 107.14 95.15 101.41
  Q 96.86 99.25 96.14 96.46
  C 94.74 91.07 82.80 88.74 78.39 88.46
  Z"
/>
<path fill="#48140b" d="
  M 167.90 99.53
  Q 167.29 102.99 165.09 105.39
  Q 156.36 114.88 142.98 115.26
  Q 134.18 115.51 128.47 110.85
  C 115.59 100.33 129.69 79.69 143.70 83.59
  A 2.91 2.89 45.2 0 0 145.18 83.60
  Q 149.04 82.60 151.04 83.27
  C 158.23 85.72 169.37 91.12 167.90 99.53
  Z
  M 158.63 97.81
  C 155.86 94.70 151.90 93.20 146.69 90.84
  A 1.01 0.97 -35.6 0 0 146.14 90.76
  L 140.47 91.49
  A 1.68 1.47 25.7 0 0 140.00 91.62
  Q 134.46 94.09 132.90 98.16
  C 130.88 103.45 136.02 105.68 140.21 106.07
  C 146.96 106.69 154.40 104.46 158.68 98.79
  A 0.77 0.77 0.0 0 0 158.63 97.81
  Z"
/>
<path fill="#ffb6c1" d="
  M 78.39 88.46
  C 82.80 88.74 94.74 91.07 96.14 96.46
  Q 96.86 99.25 95.15 101.41
  Q 90.61 107.14 82.23 106.28
  C 73.31 105.36 71.79 95.93 76.15 89.56
  A 2.53 2.51 -71.0 0 1 78.39 88.46
  Z"
/>
<path fill="#ffb6c1" d="
  M 158.68 98.79
  C 154.40 104.46 146.96 106.69 140.21 106.07
  C 136.02 105.68 130.88 103.45 132.90 98.16
  Q 134.46 94.09 140.00 91.62
  A 1.68 1.47 25.7 0 1 140.47 91.49
  L 146.14 90.76
  A 1.01 0.97 -35.6 0 1 146.69 90.84
  C 151.90 93.20 155.86 94.70 158.63 97.81
  A 0.77 0.77 0.0 0 1 158.68 98.79
  Z"
/>
<path fill="#48140b" d="
  M 131.25 170.73
  A 0.20 0.20 0.0 0 0 131.13 170.37
  L 96.21 172.58
  A 0.32 0.31 -10.4 0 0 95.93 172.98
  Q 96.88 176.08 95.35 180.07
  Q 93.14 185.86 87.96 187.31
  A 1.66 1.63 45.6 0 1 87.02 187.29
  Q 82.91 185.96 82.14 184.84
  Q 78.49 179.57 77.22 173.97
  A 1.06 1.06 0.0 0 0 76.16 173.14
  Q 70.64 173.30 67.49 171.57
  A 2.41 2.34 -3.0 0 1 66.78 170.95
  Q 64.27 167.69 67.46 164.92
  A 2.26 2.10 -71.3 0 1 68.31 164.46
  Q 70.12 163.95 72.25 164.02
  C 83.87 164.42 97.45 163.37 120.75 161.96
  Q 136.57 161.00 164.75 159.49
  C 167.65 159.34 172.69 157.86 176.81 159.33
  C 179.53 160.30 179.44 163.23 177.75 164.99
  Q 175.34 167.51 172.26 167.83
  Q 158.80 169.21 147.16 169.49
  A 0.41 0.41 0.0 0 0 146.80 170.07
  Q 147.79 172.28 147.58 173.26
  Q 146.29 179.32 141.23 182.97
  C 135.47 187.12 131.86 181.56 129.88 176.89
  Q 128.15 172.81 131.25 170.73
  Z
  M 140.68 169.80
  L 133.69 170.24
  A 0.14 0.14 0.0 0 0 133.64 170.50
  L 135.91 171.61
  A 0.80 0.80 0.0 0 1 136.27 171.97
  Q 136.34 172.09 137.28 173.81
  A 0.31 0.31 0.0 0 0 137.79 173.85
  L 140.81 170.05
  A 0.16 0.15 -72.6 0 0 140.68 169.80
  Z
  M 87.48 175.53
  L 87.99 173.67
  A 0.60 0.60 0.0 0 0 87.44 172.91
  L 86.20 172.85
  A 0.47 0.47 0.0 0 0 85.77 173.56
  L 86.94 175.60
  A 0.30 0.30 0.0 0 0 87.48 175.53
  Z"
/>
<path fill="#ffb6c1" d="
  M 140.81 170.05
  L 137.79 173.85
  A 0.31 0.31 0.0 0 1 137.28 173.81
  Q 136.34 172.09 136.27 171.97
  A 0.80 0.80 0.0 0 0 135.91 171.61
  L 133.64 170.50
  A 0.14 0.14 0.0 0 1 133.69 170.24
  L 140.68 169.80
  A 0.16 0.15 -72.6 0 1 140.81 170.05
  Z"
/>
<path fill="#ffb6c1" d="
  M 86.94 175.60
  L 85.77 173.56
  A 0.47 0.47 0.0 0 1 86.20 172.85
  L 87.44 172.91
  A 0.60 0.60 0.0 0 1 87.99 173.67
  L 87.48 175.53
  A 0.30 0.30 0.0 0 1 86.94 175.60
  Z"
/>
</svg>
