<?xml version="1.0" encoding="UTF-8" standalone="no"?>
<!DOCTYPE svg PUBLIC "-//W3C//DTD SVG 1.1//EN" "http://www.w3.org/Graphics/SVG/1.1/DTD/svg11.dtd">
<svg xmlns="http://www.w3.org/2000/svg" version="1.1" viewBox="0.00 0.00 256.00 256.00">
<g stroke-width="2.00" fill="none" stroke-linecap="butt">
<path stroke="#646d37" vector-effect="non-scaling-stroke" d="
  M 118.02 88.74
  Q 114.76 81.47 108.78 77.84
  Q 72.48 55.80 49.46 38.35
  A 3.76 3.75 36.2 0 0 44.13 39.17
  L 44.00 39.36
  A 4.32 4.32 0.0 0 0 44.61 45.04
  Q 51.78 51.58 58.72 56.29
  Q 86.56 75.16 106.26 86.78
  Q 110.31 89.17 117.65 89.31
  A 0.40 0.40 0.0 0 0 118.02 88.74"
/>
<path stroke="#646d37" vector-effect="non-scaling-stroke" d="
  M 208.69 45.68
  Q 207.54 46.20 199.43 49.45
  Q 194.04 51.61 183.65 57.91
  Q 170.29 66.02 147.89 81.64
  Q 146.01 82.95 145.15 84.87
  A 2.40 2.30 21.6 0 0 146.59 88.03
  C 149.30 88.96 154.79 85.72 158.09 83.82
  Q 168.30 77.91 195.43 60.17
  C 200.74 56.70 206.72 51.60 209.13 46.12
  A 0.33 0.33 0.0 0 0 208.69 45.68"
/>
<path stroke="#646d37" vector-effect="non-scaling-stroke" d="
  M 60.82 80.14
  C 45.48 80.57 36.36 96.94 46.82 109.54
  Q 57.30 122.17 74.07 120.13
  C 85.81 118.69 95.53 110.20 91.02 97.43
  C 87.85 88.46 77.74 77.90 67.19 78.34
  C 64.95 78.44 63.54 79.45 61.91 79.96
  A 3.83 3.75 35.0 0 1 60.82 80.14"
/>
<path stroke="#646d37" vector-effect="non-scaling-stroke" d="
  M 189.05 83.73
  Q 186.50 81.85 186.22 81.74
  C 175.82 77.72 163.71 88.59 158.77 96.73
  C 148.99 112.87 159.29 125.57 176.55 125.61
  C 188.03 125.64 203.64 119.40 205.65 106.24
  C 207.21 96.07 200.28 86.58 190.25 84.28
  A 3.24 3.18 -19.9 0 1 189.05 83.73"
/>
<path stroke="#646d37" vector-effect="non-scaling-stroke" d="
  M 75.79 158.53
  L 76.61 159.94
  A 1.34 1.33 -60.3 0 1 76.79 160.61
  Q 76.80 162.87 78.21 165.04
  C 87.34 179.15 101.44 188.77 116.35 196.56
  C 127.63 202.46 138.94 207.49 151.01 208.28
  C 171.86 209.66 192.05 203.29 210.92 192.95
  Q 217.07 189.59 221.60 185.86
  C 224.62 183.37 228.23 177.01 226.90 172.97
  Q 225.91 169.97 222.21 169.12
  C 198.52 163.69 174.14 159.18 150.45 156.58
  Q 138.47 155.27 119.37 154.93
  Q 88.48 154.40 88.25 154.41
  C 84.16 154.59 76.83 154.55 75.72 157.79
  A 0.93 0.90 40.6 0 0 75.79 158.53"
/>
<path stroke="#646d37" vector-effect="non-scaling-stroke" d="
  M 79.67 108.91
  C 87.60 104.83 80.25 95.10 76.50 91.60
  Q 72.86 88.22 67.94 87.13
  Q 60.54 85.49 54.53 91.21
  C 48.07 97.36 52.86 104.98 59.04 108.47
  Q 69.29 114.25 79.67 108.91"
/>
<path stroke="#646d37" vector-effect="non-scaling-stroke" d="
  M 180.52 88.90
  Q 171.91 93.06 166.74 101.01
  C 162.98 106.80 162.40 113.90 170.71 115.76
  Q 182.99 118.51 193.58 111.60
  C 200.90 106.82 198.57 98.24 191.85 94.10
  Q 191.54 93.91 182.61 88.96
  A 2.25 2.24 46.6 0 0 180.52 88.90"
/>
<path stroke="#646d37" vector-effect="non-scaling-stroke" d="
  M 218.63 177.55
  C 193.99 172.19 170.11 167.68 146.06 165.28
  C 132.06 163.88 116.51 163.90 102.75 163.83
  Q 93.52 163.78 85.13 162.63
  L 85.12 162.63
  Q 85.21 162.66 85.44 162.74
  A 3.31 3.21 -12.7 0 1 86.57 163.43
  C 91.87 168.33 97.03 173.61 101.77 176.97
  Q 119.32 189.43 135.80 195.57
  Q 152.92 201.96 171.82 198.02
  Q 195.75 193.03 214.92 179.83
  C 215.74 179.27 217.49 178.51 218.67 178.01
  A 0.24 0.24 0.0 0 0 218.63 177.55"
/>
</g>
<path fill="#6cda00" d="
  M 256.00 0.00
  L 256.00 256.00
  L 0.00 256.00
  L 0.00 0.00
  L 256.00 0.00
  Z
  M 118.02 88.74
  Q 114.76 81.47 108.78 77.84
  Q 72.48 55.80 49.46 38.35
  A 3.76 3.75 36.2 0 0 44.13 39.17
  L 44.00 39.36
  A 4.32 4.32 0.0 0 0 44.61 45.04
  Q 51.78 51.58 58.72 56.29
  Q 86.56 75.16 106.26 86.78
  Q 110.31 89.17 117.65 89.31
  A 0.40 0.40 0.0 0 0 118.02 88.74
  Z
  M 208.69 45.68
  Q 207.54 46.20 199.43 49.45
  Q 194.04 51.61 183.65 57.91
  Q 170.29 66.02 147.89 81.64
  Q 146.01 82.95 145.15 84.87
  A 2.40 2.30 21.6 0 0 146.59 88.03
  C 149.30 88.96 154.79 85.72 158.09 83.82
  Q 168.30 77.91 195.43 60.17
  C 200.74 56.70 206.72 51.60 209.13 46.12
  A 0.33 0.33 0.0 0 0 208.69 45.68
  Z
  M 60.82 80.14
  C 45.48 80.57 36.36 96.94 46.82 109.54
  Q 57.30 122.17 74.07 120.13
  C 85.81 118.69 95.53 110.20 91.02 97.43
  C 87.85 88.46 77.74 77.90 67.19 78.34
  C 64.95 78.44 63.54 79.45 61.91 79.96
  A 3.83 3.75 35.0 0 1 60.82 80.14
  Z
  M 189.05 83.73
  Q 186.50 81.85 186.22 81.74
  C 175.82 77.72 163.71 88.59 158.77 96.73
  C 148.99 112.87 159.29 125.57 176.55 125.61
  C 188.03 125.64 203.64 119.40 205.65 106.24
  C 207.21 96.07 200.28 86.58 190.25 84.28
  A 3.24 3.18 -19.9 0 1 189.05 83.73
  Z
  M 75.79 158.53
  L 76.61 159.94
  A 1.34 1.33 -60.3 0 1 76.79 160.61
  Q 76.80 162.87 78.21 165.04
  C 87.34 179.15 101.44 188.77 116.35 196.56
  C 127.63 202.46 138.94 207.49 151.01 208.28
  C 171.86 209.66 192.05 203.29 210.92 192.95
  Q 217.07 189.59 221.60 185.86
  C 224.62 183.37 228.23 177.01 226.90 172.97
  Q 225.91 169.97 222.21 169.12
  C 198.52 163.69 174.14 159.18 150.45 156.58
  Q 138.47 155.27 119.37 154.93
  Q 88.48 154.40 88.25 154.41
  C 84.16 154.59 76.83 154.55 75.72 157.79
  A 0.93 0.90 40.6 0 0 75.79 158.53
  Z"
/>
<path fill="#5b006d" d="
  M 117.65 89.31
  Q 110.31 89.17 106.26 86.78
  Q 86.56 75.16 58.72 56.29
  Q 51.78 51.58 44.61 45.04
  A 4.32 4.32 0.0 0 1 44.00 39.36
  L 44.13 39.17
  A 3.76 3.75 36.2 0 1 49.46 38.35
  Q 72.48 55.80 108.78 77.84
  Q 114.76 81.47 118.02 88.74
  A 0.40 0.40 0.0 0 1 117.65 89.31
  Z"
/>
<path fill="#5b006d" d="
  M 208.69 45.68
  A 0.33 0.33 0.0 0 1 209.13 46.12
  C 206.72 51.60 200.74 56.70 195.43 60.17
  Q 168.30 77.91 158.09 83.82
  C 154.79 85.72 149.30 88.96 146.59 88.03
  A 2.40 2.30 21.6 0 1 145.15 84.87
  Q 146.01 82.95 147.89 81.64
  Q 170.29 66.02 183.65 57.91
  Q 194.04 51.61 199.43 49.45
  Q 207.54 46.20 208.69 45.68
  Z"
/>
<path fill="#5b006d" d="
  M 61.91 79.96
  C 63.54 79.45 64.95 78.44 67.19 78.34
  C 77.74 77.90 87.85 88.46 91.02 97.43
  C 95.53 110.20 85.81 118.69 74.07 120.13
  Q 57.30 122.17 46.82 109.54
  C 36.36 96.94 45.48 80.57 60.82 80.14
  A 3.83 3.75 35.0 0 0 61.91 79.96
  Z
  M 79.67 108.91
  C 87.60 104.83 80.25 95.10 76.50 91.60
  Q 72.86 88.22 67.94 87.13
  Q 60.54 85.49 54.53 91.21
  C 48.07 97.36 52.86 104.98 59.04 108.47
  Q 69.29 114.25 79.67 108.91
  Z"
/>
<path fill="#5b006d" d="
  M 190.25 84.28
  C 200.28 86.58 207.21 96.07 205.65 106.24
  C 203.64 119.40 188.03 125.64 176.55 125.61
  C 159.29 125.57 148.99 112.87 158.77 96.73
  C 163.71 88.59 175.82 77.72 186.22 81.74
  Q 186.50 81.85 189.05 83.73
  A 3.24 3.18 -19.9 0 0 190.25 84.28
  Z
  M 180.52 88.90
  Q 171.91 93.06 166.74 101.01
  C 162.98 106.80 162.40 113.90 170.71 115.76
  Q 182.99 118.51 193.58 111.60
  C 200.90 106.82 198.57 98.24 191.85 94.10
  Q 191.54 93.91 182.61 88.96
  A 2.25 2.24 46.6 0 0 180.52 88.90
  Z"
/>
<path fill="#6cda00" d="
  M 76.50 91.60
  C 80.25 95.10 87.60 104.83 79.67 108.91
  Q 69.29 114.25 59.04 108.47
  C 52.86 104.98 48.07 97.36 54.53 91.21
  Q 60.54 85.49 67.94 87.13
  Q 72.86 88.22 76.50 91.60
  Z"
/>
<path fill="#6cda00" d="
  M 180.52 88.90
  A 2.25 2.24 46.6 0 1 182.61 88.96
  Q 191.54 93.91 191.85 94.10
  C 198.57 98.24 200.90 106.82 193.58 111.60
  Q 182.99 118.51 170.71 115.76
  C 162.40 113.90 162.98 106.80 166.74 101.01
  Q 171.91 93.06 180.52 88.90
  Z"
/>
<path fill="#5b006d" d="
  M 75.72 157.79
  C 76.83 154.55 84.16 154.59 88.25 154.41
  Q 88.48 154.40 119.37 154.93
  Q 138.47 155.27 150.45 156.58
  C 174.14 159.18 198.52 163.69 222.21 169.12
  Q 225.91 169.97 226.90 172.97
  C 228.23 177.01 224.62 183.37 221.60 185.86
  Q 217.07 189.59 210.92 192.95
  C 192.05 203.29 171.86 209.66 151.01 208.28
  C 138.94 207.49 127.63 202.46 116.35 196.56
  C 101.44 188.77 87.34 179.15 78.21 165.04
  Q 76.80 162.87 76.79 160.61
  A 1.34 1.33 -60.3 0 0 76.61 159.94
  L 75.79 158.53
  A 0.93 0.90 40.6 0 1 75.72 157.79
  Z
  M 218.63 177.55
  C 193.99 172.19 170.11 167.68 146.06 165.28
  C 132.06 163.88 116.51 163.90 102.75 163.83
  Q 93.52 163.78 85.13 162.63
  L 85.12 162.63
  Q 85.21 162.66 85.44 162.74
  A 3.31 3.21 -12.7 0 1 86.57 163.43
  C 91.87 168.33 97.03 173.61 101.77 176.97
  Q 119.32 189.43 135.80 195.57
  Q 152.92 201.96 171.82 198.02
  Q 195.75 193.03 214.92 179.83
  C 215.74 179.27 217.49 178.51 218.67 178.01
  A 0.24 0.24 0.0 0 0 218.63 177.55
  Z"
/>
<path fill="#6cda00" d="
  M 218.67 178.01
  C 217.49 178.51 215.74 179.27 214.92 179.83
  Q 195.75 193.03 171.82 198.02
  Q 152.92 201.96 135.80 195.57
  Q 119.32 189.43 101.77 176.97
  C 97.03 173.61 91.87 168.33 86.57 163.43
  A 3.31 3.21 -12.7 0 0 85.44 162.74
  Q 85.21 162.66 85.12 162.63
  L 85.13 162.63
  Q 93.52 163.78 102.75 163.83
  C 116.51 163.90 132.06 163.88 146.06 165.28
  C 170.11 167.68 193.99 172.19 218.63 177.55
  A 0.24 0.24 0.0 0 1 218.67 178.01
  Z"
/>
</svg>
