<?xml version="1.0" encoding="UTF-8" standalone="no"?>
<!DOCTYPE svg PUBLIC "-//W3C//DTD SVG 1.1//EN" "http://www.w3.org/Graphics/SVG/1.1/DTD/svg11.dtd">
<svg xmlns="http://www.w3.org/2000/svg" version="1.1" viewBox="0.00 0.00 256.00 256.00">
<g stroke-width="2.00" fill="none" stroke-linecap="butt">
<path stroke="#6d98a3" vector-effect="non-scaling-stroke" d="
  M 192.11 89.53
  C 194.77 88.24 195.06 85.71 196.13 83.54
  A 0.40 0.39 -53.8 0 1 196.77 83.44
  Q 199.91 86.80 201.43 87.05
  Q 205.14 87.65 207.02 84.92
  A 1.09 1.09 0.0 0 0 207.05 83.76
  Q 204.90 80.16 200.97 78.01
  C 198.50 76.65 195.46 77.16 195.27 80.30
  Q 195.13 82.53 193.34 83.96
  A 0.58 0.58 0.0 0 1 192.49 83.83
  Q 191.24 81.97 189.16 76.98
  Q 188.25 74.81 186.07 74.77
  A 1.09 1.07 17.4 0 0 185.19 75.22
  C 183.87 77.07 183.88 78.81 183.98 81.21
  A 1.21 1.21 0.0 0 1 181.96 82.16
  Q 178.73 79.25 176.54 74.47
  A 2.17 2.15 8.5 0 0 176.01 73.76
  Q 173.60 71.62 170.99 72.08
  A 1.31 1.30 -80.9 0 0 170.06 72.76
  C 167.95 76.88 166.73 79.45 164.15 82.52
  A 0.41 0.41 0.0 0 1 163.45 82.40
  L 161.38 76.83
  A 0.99 0.61 -88.0 0 0 161.26 76.62
  Q 158.99 73.84 156.59 74.42
  A 1.70 1.68 11.6 0 0 155.61 75.06
  C 153.41 77.98 154.65 80.03 153.95 82.87
  A 0.30 0.29 40.5 0 1 153.39 82.91
  L 149.40 73.58
  A 2.37 2.35 -85.4 0 0 148.47 72.48
  C 144.86 70.21 142.74 72.46 140.69 76.00
  Q 136.95 82.44 135.40 84.89
  A 0.31 0.31 0.0 0 1 134.86 84.86
  L 130.23 75.51
  A 0.76 0.60 -89.7 0 0 130.05 75.28
  Q 125.56 71.48 122.63 76.18
  A 0.47 0.46 70.7 0 0 122.57 76.31
  L 119.94 83.33
  A 0.33 0.33 0.0 0 1 119.33 83.34
  L 115.92 75.36
  A 1.58 1.57 3.9 0 0 115.29 74.64
  L 112.76 73.11
  A 2.99 2.99 0.0 0 0 108.42 74.59
  L 105.76 81.51
  A 0.41 0.41 0.0 0 1 105.00 81.53
  L 101.28 73.12
  A 1.19 1.08 15.6 0 0 101.16 72.93
  Q 99.19 70.72 96.95 70.82
  Q 94.05 70.95 93.22 73.74
  Q 91.47 79.61 89.75 84.11
  A 0.33 0.33 0.0 0 1 89.13 84.12
  Q 87.30 79.74 85.07 76.03
  Q 83.67 73.72 82.01 72.92
  C 79.17 71.56 77.39 74.26 75.52 76.83
  A 1.05 1.03 -17.8 0 0 75.42 77.02
  L 72.66 84.19
  A 0.25 0.25 0.0 0 1 72.19 84.19
  L 68.97 75.43
  A 1.53 1.49 -83.8 0 0 68.40 74.70
  Q 65.64 72.86 64.75 72.88
  Q 61.28 72.96 60.55 75.63
  Q 59.48 79.54 59.04 81.52
  A 0.06 0.06 0.0 0 1 58.93 81.52
  L 57.27 72.02
  A 1.88 1.85 21.4 0 0 56.90 71.19
  Q 56.20 70.26 54.07 69.97
  C 52.01 69.69 50.92 71.77 50.78 73.51
  C 50.46 77.65 49.52 96.59 56.41 96.47
  Q 61.81 96.38 64.33 91.11
  A 0.57 0.57 0.0 0 1 65.25 90.96
  Q 65.66 91.37 66.84 93.59
  Q 69.41 98.40 74.64 96.25
  Q 76.75 95.38 77.88 93.25
  Q 79.14 90.89 80.18 87.35
  A 0.24 0.24 0.0 0 1 80.62 87.30
  L 83.81 92.98
  A 2.25 2.15 -84.3 0 0 84.20 93.48
  C 86.41 95.58 88.86 97.13 91.72 95.47
  Q 92.05 95.28 94.43 92.79
  A 0.69 0.57 84.7 0 0 94.56 92.60
  L 97.17 87.28
  A 0.37 0.37 0.0 0 1 97.82 87.26
  Q 99.84 90.82 101.84 92.04
  C 105.40 94.18 109.28 90.99 111.21 88.00
  A 0.42 0.42 0.0 0 1 111.92 88.02
  Q 114.28 91.98 114.82 92.40
  Q 118.21 95.01 122.92 93.30
  A 1.32 1.32 0.0 0 0 123.63 92.69
  L 125.78 88.74
  A 0.33 0.33 0.0 0 1 126.35 88.73
  C 127.33 90.43 128.77 95.32 131.21 95.94
  Q 134.81 96.86 137.80 95.01
  A 1.77 1.66 -89.7 0 0 138.35 94.43
  Q 141.69 88.71 143.73 82.33
  A 0.31 0.31 0.0 0 1 144.32 82.33
  L 147.15 91.30
  A 1.21 1.21 0.0 0 0 147.62 91.92
  C 150.51 93.85 153.47 95.30 155.83 92.10
  A 1.59 1.57 65.7 0 0 156.15 91.24
  L 156.39 88.22
  A 0.35 0.34 28.0 0 1 157.00 88.04
  C 158.71 90.20 159.54 91.96 162.32 91.57
  Q 167.25 90.87 169.66 86.05
  Q 171.12 83.14 171.34 82.92
  A 0.43 0.42 53.8 0 1 172.03 83.03
  Q 174.17 87.52 178.53 89.92
  A 2.07 1.96 -28.2 0 0 179.49 90.18
  Q 182.71 90.28 185.29 88.01
  A 0.73 0.73 0.0 0 1 186.38 88.16
  Q 188.48 91.31 192.11 89.53"
/>
<path stroke="#6d98a3" vector-effect="non-scaling-stroke" d="
  M 158.70 109.91
  Q 158.07 109.99 157.75 110.28
  C 153.81 113.77 151.14 118.26 150.89 123.54
  Q 150.71 127.42 153.02 130.63
  Q 156.25 135.12 163.03 135.72
  C 172.17 136.53 183.56 131.92 184.47 121.52
  Q 184.77 118.06 181.82 114.06
  A 1.06 0.85 4.9 0 0 181.63 113.88
  L 177.55 111.13
  A 0.42 0.38 61.7 0 0 177.38 111.07
  Q 175.24 110.92 172.84 108.54
  A 2.46 2.35 76.0 0 0 171.94 107.97
  Q 165.78 105.76 159.77 108.99
  Q 158.91 109.46 158.91 109.69
  A 0.23 0.23 0.0 0 1 158.70 109.91"
/>
<path stroke="#6d98a3" vector-effect="non-scaling-stroke" d="
  M 82.74 137.18
  L 85.00 133.47
  A 2.03 1.94 -21.9 0 0 85.19 133.05
  Q 86.39 129.15 85.11 125.35
  Q 82.39 117.24 74.65 115.29
  C 72.77 114.82 70.76 114.83 67.99 114.64
  Q 64.69 114.42 61.67 116.81
  C 52.36 124.18 55.65 139.89 68.17 141.63
  Q 76.32 142.76 82.46 137.51
  A 1.22 1.21 -4.9 0 0 82.74 137.18"
/>
<path stroke="#6d98a3" vector-effect="non-scaling-stroke" d="
  M 153.66 177.81
  Q 153.77 177.78 153.80 177.78
  A 0.09 0.05 26.4 0 0 153.71 177.66
  Q 153.16 177.66 152.75 177.65
  A 3.20 3.18 -55.3 0 0 151.44 177.89
  Q 150.53 178.26 144.05 182.74
  C 132.67 190.60 113.62 194.88 104.09 181.53
  A 1.86 1.82 85.4 0 0 103.40 180.93
  Q 101.02 179.67 99.54 180.92
  C 97.87 182.32 98.39 184.16 99.21 185.82
  Q 102.75 192.98 110.36 196.38
  Q 121.47 201.34 133.75 197.61
  Q 144.91 194.21 153.91 186.66
  Q 154.71 185.99 156.57 183.84
  A 1.75 1.73 -19.1 0 0 156.98 183.01
  Q 157.79 178.83 153.71 177.86
  A 0.05 0.02 23.9 0 1 153.66 177.81"
/>
<path stroke="#6d98a3" vector-effect="non-scaling-stroke" d="
  M 159.94 123.47
  C 159.54 125.75 162.16 126.59 164.01 126.68
  Q 170.24 126.98 174.61 123.34
  A 3.37 3.03 -29.5 0 0 175.74 119.97
  Q 175.12 117.92 173.43 115.73
  A 1.50 1.47 -16.9 0 0 172.30 115.14
  Q 167.86 114.95 166.08 115.77
  Q 160.88 118.18 159.94 123.47"
/>
<path stroke="#6d98a3" vector-effect="non-scaling-stroke" d="
  M 69.04 121.48
  Q 65.16 123.34 65.24 127.75
  C 65.38 135.34 77.13 133.18 76.69 128.83
  C 76.36 125.60 72.64 123.17 70.14 121.55
  A 1.11 1.11 0.0 0 0 69.04 121.48"
/>
</g>
<path fill="#003548" d="
  M 256.00 0.00
  L 256.00 256.00
  L 0.00 256.00
  L 0.00 0.00
  L 256.00 0.00
  Z
  M 192.11 89.53
  C 194.77 88.24 195.06 85.71 196.13 83.54
  A 0.40 0.39 -53.8 0 1 196.77 83.44
  Q 199.91 86.80 201.43 87.05
  Q 205.14 87.65 207.02 84.92
  A 1.09 1.09 0.0 0 0 207.05 83.76
  Q 204.90 80.16 200.97 78.01
  C 198.50 76.65 195.46 77.16 195.27 80.30
  Q 195.13 82.53 193.34 83.96
  A 0.58 0.58 0.0 0 1 192.49 83.83
  Q 191.24 81.97 189.16 76.98
  Q 188.25 74.81 186.07 74.77
  A 1.09 1.07 17.4 0 0 185.19 75.22
  C 183.87 77.07 183.88 78.81 183.98 81.21
  A 1.21 1.21 0.0 0 1 181.96 82.16
  Q 178.73 79.25 176.54 74.47
  A 2.17 2.15 8.5 0 0 176.01 73.76
  Q 173.60 71.62 170.99 72.08
  A 1.31 1.30 -80.9 0 0 170.06 72.76
  C 167.95 76.88 166.73 79.45 164.15 82.52
  A 0.41 0.41 0.0 0 1 163.45 82.40
  L 161.38 76.83
  A 0.99 0.61 -88.0 0 0 161.26 76.62
  Q 158.99 73.84 156.59 74.42
  A 1.70 1.68 11.6 0 0 155.61 75.06
  C 153.41 77.98 154.65 80.03 153.95 82.87
  A 0.30 0.29 40.5 0 1 153.39 82.91
  L 149.40 73.58
  A 2.37 2.35 -85.4 0 0 148.47 72.48
  C 144.86 70.21 142.74 72.46 140.69 76.00
  Q 136.95 82.44 135.40 84.89
  A 0.31 0.31 0.0 0 1 134.86 84.86
  L 130.23 75.51
  A 0.76 0.60 -89.7 0 0 130.05 75.28
  Q 125.56 71.48 122.63 76.18
  A 0.47 0.46 70.7 0 0 122.57 76.31
  L 119.94 83.33
  A 0.33 0.33 0.0 0 1 119.33 83.34
  L 115.92 75.36
  A 1.58 1.57 3.9 0 0 115.29 74.64
  L 112.76 73.11
  A 2.99 2.99 0.0 0 0 108.42 74.59
  L 105.76 81.51
  A 0.41 0.41 0.0 0 1 105.00 81.53
  L 101.28 73.12
  A 1.19 1.08 15.6 0 0 101.16 72.93
  Q 99.19 70.72 96.95 70.82
  Q 94.05 70.95 93.22 73.74
  Q 91.47 79.61 89.75 84.11
  A 0.33 0.33 0.0 0 1 89.13 84.12
  Q 87.30 79.74 85.07 76.03
  Q 83.67 73.72 82.01 72.92
  C 79.17 71.56 77.39 74.26 75.52 76.83
  A 1.05 1.03 -17.8 0 0 75.42 77.02
  L 72.66 84.19
  A 0.25 0.25 0.0 0 1 72.19 84.19
  L 68.97 75.43
  A 1.53 1.49 -83.8 0 0 68.40 74.70
  Q 65.64 72.86 64.75 72.88
  Q 61.28 72.96 60.55 75.63
  Q 59.48 79.54 59.04 81.52
  A 0.06 0.06 0.0 0 1 58.93 81.52
  L 57.27 72.02
  A 1.88 1.85 21.4 0 0 56.90 71.19
  Q 56.20 70.26 54.07 69.97
  C 52.01 69.69 50.92 71.77 50.78 73.51
  C 50.46 77.65 49.52 96.59 56.41 96.47
  Q 61.81 96.38 64.33 91.11
  A 0.57 0.57 0.0 0 1 65.25 90.96
  Q 65.66 91.37 66.84 93.59
  Q 69.41 98.40 74.64 96.25
  Q 76.75 95.38 77.88 93.25
  Q 79.14 90.89 80.18 87.35
  A 0.24 0.24 0.0 0 1 80.62 87.30
  L 83.81 92.98
  A 2.25 2.15 -84.3 0 0 84.20 93.48
  C 86.41 95.58 88.86 97.13 91.72 95.47
  Q 92.05 95.28 94.43 92.79
  A 0.69 0.57 84.7 0 0 94.56 92.60
  L 97.17 87.28
  A 0.37 0.37 0.0 0 1 97.82 87.26
  Q 99.84 90.82 101.84 92.04
  C 105.40 94.18 109.28 90.99 111.21 88.00
  A 0.42 0.42 0.0 0 1 111.92 88.02
  Q 114.28 91.98 114.82 92.40
  Q 118.21 95.01 122.92 93.30
  A 1.32 1.32 0.0 0 0 123.63 92.69
  L 125.78 88.74
  A 0.33 0.33 0.0 0 1 126.35 88.73
  C 127.33 90.43 128.77 95.32 131.21 95.94
  Q 134.81 96.86 137.80 95.01
  A 1.77 1.66 -89.7 0 0 138.35 94.43
  Q 141.69 88.71 143.73 82.33
  A 0.31 0.31 0.0 0 1 144.32 82.33
  L 147.15 91.30
  A 1.21 1.21 0.0 0 0 147.62 91.92
  C 150.51 93.85 153.47 95.30 155.83 92.10
  A 1.59 1.57 65.7 0 0 156.15 91.24
  L 156.39 88.22
  A 0.35 0.34 28.0 0 1 157.00 88.04
  C 158.71 90.20 159.54 91.96 162.32 91.57
  Q 167.25 90.87 169.66 86.05
  Q 171.12 83.14 171.34 82.92
  A 0.43 0.42 53.8 0 1 172.03 83.03
  Q 174.17 87.52 178.53 89.92
  A 2.07 1.96 -28.2 0 0 179.49 90.18
  Q 182.71 90.28 185.29 88.01
  A 0.73 0.73 0.0 0 1 186.38 88.16
  Q 188.48 91.31 192.11 89.53
  Z
  M 158.70 109.91
  Q 158.07 109.99 157.75 110.28
  C 153.81 113.77 151.14 118.26 150.89 123.54
  Q 150.71 127.42 153.02 130.63
  Q 156.25 135.12 163.03 135.72
  C 172.17 136.53 183.56 131.92 184.47 121.52
  Q 184.77 118.06 181.82 114.06
  A 1.06 0.85 4.9 0 0 181.63 113.88
  L 177.55 111.13
  A 0.42 0.38 61.7 0 0 177.38 111.07
  Q 175.24 110.92 172.84 108.54
  A 2.46 2.35 76.0 0 0 171.94 107.97
  Q 165.78 105.76 159.77 108.99
  Q 158.91 109.46 158.91 109.69
  A 0.23 0.23 0.0 0 1 158.70 109.91
  Z
  M 82.74 137.18
  L 85.00 133.47
  A 2.03 1.94 -21.9 0 0 85.19 133.05
  Q 86.39 129.15 85.11 125.35
  Q 82.39 117.24 74.65 115.29
  C 72.77 114.82 70.76 114.83 67.99 114.64
  Q 64.69 114.42 61.67 116.81
  C 52.36 124.18 55.65 139.89 68.17 141.63
  Q 76.32 142.76 82.46 137.51
  A 1.22 1.21 -4.9 0 0 82.74 137.18
  Z
  M 153.66 177.81
  Q 153.77 177.78 153.80 177.78
  A 0.09 0.05 26.4 0 0 153.71 177.66
  Q 153.16 177.66 152.75 177.65
  A 3.20 3.18 -55.3 0 0 151.44 177.89
  Q 150.53 178.26 144.05 182.74
  C 132.67 190.60 113.62 194.88 104.09 181.53
  A 1.86 1.82 85.4 0 0 103.40 180.93
  Q 101.02 179.67 99.54 180.92
  C 97.87 182.32 98.39 184.16 99.21 185.82
  Q 102.75 192.98 110.36 196.38
  Q 121.47 201.34 133.75 197.61
  Q 144.91 194.21 153.91 186.66
  Q 154.71 185.99 156.57 183.84
  A 1.75 1.73 -19.1 0 0 156.98 183.01
  Q 157.79 178.83 153.71 177.86
  A 0.05 0.02 23.9 0 1 153.66 177.81
  Z"
/>
<path fill="#dafafe" d="
  M 192.11 89.53
  Q 188.48 91.31 186.38 88.16
  A 0.73 0.73 0.0 0 0 185.29 88.01
  Q 182.71 90.28 179.49 90.18
  A 2.07 1.96 -28.2 0 1 178.53 89.92
  Q 174.17 87.52 172.03 83.03
  A 0.43 0.42 53.8 0 0 171.34 82.92
  Q 171.12 83.14 169.66 86.05
  Q 167.25 90.87 162.32 91.57
  C 159.54 91.96 158.71 90.20 157.00 88.04
  A 0.35 0.34 28.0 0 0 156.39 88.22
  L 156.15 91.24
  A 1.59 1.57 65.7 0 1 155.83 92.10
  C 153.47 95.30 150.51 93.85 147.62 91.92
  A 1.21 1.21 0.0 0 1 147.15 91.30
  L 144.32 82.33
  A 0.31 0.31 0.0 0 0 143.73 82.33
  Q 141.69 88.71 138.35 94.43
  A 1.77 1.66 -89.7 0 1 137.80 95.01
  Q 134.81 96.86 131.21 95.94
  C 128.77 95.32 127.33 90.43 126.35 88.73
  A 0.33 0.33 0.0 0 0 125.78 88.74
  L 123.63 92.69
  A 1.32 1.32 0.0 0 1 122.92 93.30
  Q 118.21 95.01 114.82 92.40
  Q 114.28 91.98 111.92 88.02
  A 0.42 0.42 0.0 0 0 111.21 88.00
  C 109.28 90.99 105.40 94.18 101.84 92.04
  Q 99.84 90.82 97.82 87.26
  A 0.37 0.37 0.0 0 0 97.17 87.28
  L 94.56 92.60
  A 0.69 0.57 84.7 0 1 94.43 92.79
  Q 92.05 95.28 91.72 95.47
  C 88.86 97.13 86.41 95.58 84.20 93.48
  A 2.25 2.15 -84.3 0 1 83.81 92.98
  L 80.62 87.30
  A 0.24 0.24 0.0 0 0 80.18 87.35
  Q 79.14 90.89 77.88 93.25
  Q 76.75 95.38 74.64 96.25
  Q 69.41 98.40 66.84 93.59
  Q 65.66 91.37 65.25 90.96
  A 0.57 0.57 0.0 0 0 64.33 91.11
  Q 61.81 96.38 56.41 96.47
  C 49.52 96.59 50.46 77.65 50.78 73.51
  C 50.92 71.77 52.01 69.69 54.07 69.97
  Q 56.20 70.26 56.90 71.19
  A 1.88 1.85 21.4 0 1 57.27 72.02
  L 58.93 81.52
  A 0.06 0.06 0.0 0 0 59.04 81.52
  Q 59.48 79.54 60.55 75.63
  Q 61.28 72.96 64.75 72.88
  Q 65.64 72.86 68.40 74.70
  A 1.53 1.49 -83.8 0 1 68.97 75.43
  L 72.19 84.19
  A 0.25 0.25 0.0 0 0 72.66 84.19
  L 75.42 77.02
  A 1.05 1.03 -17.8 0 1 75.52 76.83
  C 77.39 74.26 79.17 71.56 82.01 72.92
  Q 83.67 73.72 85.07 76.03
  Q 87.30 79.74 89.13 84.12
  A 0.33 0.33 0.0 0 0 89.75 84.11
  Q 91.47 79.61 93.22 73.74
  Q 94.05 70.95 96.95 70.82
  Q 99.19 70.72 101.16 72.93
  A 1.19 1.08 15.6 0 1 101.28 73.12
  L 105.00 81.53
  A 0.41 0.41 0.0 0 0 105.76 81.51
  L 108.42 74.59
  A 2.99 2.99 0.0 0 1 112.76 73.11
  L 115.29 74.64
  A 1.58 1.57 3.9 0 1 115.92 75.36
  L 119.33 83.34
  A 0.33 0.33 0.0 0 0 119.94 83.33
  L 122.57 76.31
  A 0.47 0.46 70.7 0 1 122.63 76.18
  Q 125.56 71.48 130.05 75.28
  A 0.76 0.60 -89.7 0 1 130.23 75.51
  L 134.86 84.86
  A 0.31 0.31 0.0 0 0 135.40 84.89
  Q 136.95 82.44 140.69 76.00
  C 142.74 72.46 144.86 70.21 148.47 72.48
  A 2.37 2.35 -85.4 0 1 149.40 73.58
  L 153.39 82.91
  A 0.30 0.29 40.5 0 0 153.95 82.87
  C 154.65 80.03 153.41 77.98 155.61 75.06
  A 1.70 1.68 11.6 0 1 156.59 74.42
  Q 158.99 73.84 161.26 76.62
  A 0.99 0.61 -88.0 0 1 161.38 76.83
  L 163.45 82.40
  A 0.41 0.41 0.0 0 0 164.15 82.52
  C 166.73 79.45 167.95 76.88 170.06 72.76
  A 1.31 1.30 -80.9 0 1 170.99 72.08
  Q 173.60 71.62 176.01 73.76
  A 2.17 2.15 8.5 0 1 176.54 74.47
  Q 178.73 79.25 181.96 82.16
  A 1.21 1.21 0.0 0 0 183.98 81.21
  C 183.88 78.81 183.87 77.07 185.19 75.22
  A 1.09 1.07 17.4 0 1 186.07 74.77
  Q 188.25 74.81 189.16 76.98
  Q 191.24 81.97 192.49 83.83
  A 0.58 0.58 0.0 0 0 193.34 83.96
  Q 195.13 82.53 195.27 80.30
  C 195.46 77.16 198.50 76.65 200.97 78.01
  Q 204.90 80.16 207.05 83.76
  A 1.09 1.09 0.0 0 1 207.02 84.92
  Q 205.14 87.65 201.43 87.05
  Q 199.91 86.80 196.77 83.44
  A 0.40 0.39 -53.8 0 0 196.13 83.54
  C 195.06 85.71 194.77 88.24 192.11 89.53
  Z"
/>
<path fill="#dafafe" d="
  M 158.91 109.69
  Q 158.91 109.46 159.77 108.99
  Q 165.78 105.76 171.94 107.97
  A 2.46 2.35 76.0 0 1 172.84 108.54
  Q 175.24 110.92 177.38 111.07
  A 0.42 0.38 61.7 0 1 177.55 111.13
  L 181.63 113.88
  A 1.06 0.85 4.9 0 1 181.82 114.06
  Q 184.77 118.06 184.47 121.52
  C 183.56 131.92 172.17 136.53 163.03 135.72
  Q 156.25 135.12 153.02 130.63
  Q 150.71 127.42 150.89 123.54
  C 151.14 118.26 153.81 113.77 157.75 110.28
  Q 158.07 109.99 158.70 109.91
  A 0.23 0.23 0.0 0 0 158.91 109.69
  Z
  M 159.94 123.47
  C 159.54 125.75 162.16 126.59 164.01 126.68
  Q 170.24 126.98 174.61 123.34
  A 3.37 3.03 -29.5 0 0 175.74 119.97
  Q 175.12 117.92 173.43 115.73
  A 1.50 1.47 -16.9 0 0 172.30 115.14
  Q 167.86 114.95 166.08 115.77
  Q 160.88 118.18 159.94 123.47
  Z"
/>
<path fill="#dafafe" d="
  M 82.46 137.51
  Q 76.32 142.76 68.17 141.63
  C 55.65 139.89 52.36 124.18 61.67 116.81
  Q 64.69 114.42 67.99 114.64
  C 70.76 114.83 72.77 114.82 74.65 115.29
  Q 82.39 117.24 85.11 125.35
  Q 86.39 129.15 85.19 133.05
  A 2.03 1.94 -21.9 0 1 85.00 133.47
  L 82.74 137.18
  A 1.22 1.21 -4.9 0 1 82.46 137.51
  Z
  M 69.04 121.48
  Q 65.16 123.34 65.24 127.75
  C 65.38 135.34 77.13 133.18 76.69 128.83
  C 76.36 125.60 72.64 123.17 70.14 121.55
  A 1.11 1.11 0.0 0 0 69.04 121.48
  Z"
/>
<path fill="#003548" d="
  M 164.01 126.68
  C 162.16 126.59 159.54 125.75 159.94 123.47
  Q 160.88 118.18 166.08 115.77
  Q 167.86 114.95 172.30 115.14
  A 1.50 1.47 -16.9 0 1 173.43 115.73
  Q 175.12 117.92 175.74 119.97
  A 3.37 3.03 -29.5 0 1 174.61 123.34
  Q 170.24 126.98 164.01 126.68
  Z"
/>
<path fill="#003548" d="
  M 70.14 121.55
  C 72.64 123.17 76.36 125.60 76.69 128.83
  C 77.13 133.18 65.38 135.34 65.24 127.75
  Q 65.16 123.34 69.04 121.48
  A 1.11 1.11 0.0 0 1 70.14 121.55
  Z"
/>
<path fill="#dafafe" d="
  M 153.71 177.86
  Q 157.79 178.83 156.98 183.01
  A 1.75 1.73 -19.1 0 1 156.57 183.84
  Q 154.71 185.99 153.91 186.66
  Q 144.91 194.21 133.75 197.61
  Q 121.47 201.34 110.36 196.38
  Q 102.75 192.98 99.21 185.82
  C 98.39 184.16 97.87 182.32 99.54 180.92
  Q 101.02 179.67 103.40 180.93
  A 1.86 1.82 85.4 0 1 104.09 181.53
  C 113.62 194.88 132.67 190.60 144.05 182.74
  Q 150.53 178.26 151.44 177.89
  A 3.20 3.18 -55.3 0 1 152.75 177.65
  Q 153.16 177.66 153.71 177.66
  A 0.09 0.05 26.4 0 1 153.80 177.78
  Q 153.77 177.78 153.66 177.81
  A 0.05 0.02 23.9 0 0 153.71 177.86
  Z"
/>
</svg>
