<?xml version="1.0" encoding="UTF-8" standalone="no"?>
<!DOCTYPE svg PUBLIC "-//W3C//DTD SVG 1.1//EN" "http://www.w3.org/Graphics/SVG/1.1/DTD/svg11.dtd">
<svg xmlns="http://www.w3.org/2000/svg" version="1.1" viewBox="0.00 0.00 512.00 512.00">
<g stroke-width="2.00" fill="none" stroke-linecap="butt">
<path stroke="#9a49c8" vector-effect="non-scaling-stroke" d="
  M 119.13 65.02
  Q 120.73 64.55 120.91 64.44
  C 125.58 61.63 129.24 59.89 135.24 58.63
  C 138.78 57.89 144.65 55.81 148.50 55.93
  C 156.22 56.19 161.15 63.81 166.88 70.61
  Q 169.78 74.04 172.14 74.69
  Q 178.67 76.47 181.22 70.71
  Q 182.53 67.76 181.38 65.09
  Q 179.92 61.72 179.44 61.05
  C 168.04 45.09 153.54 37.33 135.04 48.03
  Q 125.44 53.59 120.25 60.30
  C 119.25 61.60 118.34 62.30 118.03 64.04
  A 0.87 0.87 0.0 0 0 119.13 65.02"
/>
<path stroke="#9a49c8" vector-effect="non-scaling-stroke" d="
  M 351.24 82.23
  A 1.15 1.14 9.4 0 0 352.57 81.29
  C 353.56 75.21 352.11 71.10 347.78 66.56
  C 340.64 59.07 327.20 49.97 316.34 50.42
  Q 309.11 50.71 303.72 53.54
  Q 296.18 57.49 292.81 59.84
  Q 288.40 62.92 285.87 65.83
  Q 285.32 66.45 285.36 68.16
  C 285.42 71.00 289.15 70.88 290.98 69.96
  C 296.80 67.03 301.35 65.81 308.10 63.37
  C 314.99 60.89 320.06 61.56 326.74 65.25
  Q 333.59 69.03 338.74 74.46
  C 342.99 78.94 345.55 81.22 351.24 82.23"
/>
<path stroke="#9a49c8" vector-effect="non-scaling-stroke" d="
  M 121.98 151.32
  C 122.11 174.28 146.50 181.10 164.73 175.49
  C 175.63 172.13 184.70 162.48 184.64 150.95
  C 184.57 139.43 175.39 129.88 164.45 126.65
  C 146.16 121.25 121.84 128.35 121.98 151.32"
/>
<path stroke="#9a49c8" vector-effect="non-scaling-stroke" d="
  M 298.39 135.32
  Q 300.43 134.55 301.01 134.88
  Q 303.45 136.23 305.89 138.59
  A 0.55 0.55 0.0 0 1 305.85 139.42
  C 300.09 143.91 296.67 151.15 296.89 158.48
  C 297.46 177.99 319.10 187.26 335.67 180.09
  C 344.23 176.39 349.93 167.50 347.95 157.99
  C 345.54 146.45 336.13 137.62 325.86 132.53
  C 318.41 128.84 311.68 128.16 303.88 130.66
  Q 300.71 131.68 298.11 134.94
  A 0.25 0.24 8.8 0 0 298.39 135.32"
/>
<path stroke="#9a49c8" vector-effect="non-scaling-stroke" d="
  M 266.27 275.09
  A 1.40 1.38 57.8 0 1 265.16 274.83
  Q 258.23 269.42 248.95 269.14
  C 218.80 268.22 193.16 297.62 188.42 325.68
  C 184.47 349.08 197.83 367.95 218.84 376.88
  Q 241.08 386.32 265.27 383.59
  C 298.99 379.77 328.73 353.00 327.64 317.16
  C 326.99 295.62 312.79 282.74 293.10 277.14
  C 283.64 274.46 275.62 273.27 266.27 275.09"
/>
<path stroke="#9a49c8" vector-effect="non-scaling-stroke" d="
  M 146.97 129.05
  C 138.52 130.61 131.87 137.25 131.67 146.12
  Q 131.58 150.16 132.13 151.96
  C 135.43 162.74 149.65 163.56 158.86 161.11
  Q 165.00 159.48 168.02 154.58
  C 172.69 146.99 154.13 132.96 148.93 129.46
  A 2.69 2.67 56.6 0 0 146.97 129.05"
/>
<path stroke="#9a49c8" vector-effect="non-scaling-stroke" d="
  M 328.90 166.01
  C 331.01 165.18 331.65 163.84 331.21 161.58
  C 330.27 156.79 324.10 151.66 319.83 149.16
  Q 317.98 148.09 316.19 149.36
  C 310.88 153.13 309.94 162.04 316.65 165.32
  Q 322.87 168.35 328.90 166.01"
/>
<path stroke="#9a49c8" vector-effect="non-scaling-stroke" d="
  M 269.38 289.57
  Q 269.14 290.25 268.87 290.56
  A 0.77 0.77 0.0 0 1 267.96 290.73
  Q 262.98 288.16 262.90 288.12
  C 256.25 284.59 248.98 283.94 241.62 285.89
  C 224.59 290.42 212.40 306.23 207.59 322.40
  C 201.73 342.07 211.57 354.99 229.45 361.83
  C 249.84 369.63 272.69 368.93 290.63 356.20
  C 303.41 347.12 310.45 334.90 310.53 319.51
  C 310.61 305.40 301.78 298.68 289.75 294.72
  Q 287.30 293.92 270.14 289.17
  A 0.64 0.63 16.9 0 0 269.38 289.57"
/>
</g>
<path fill="#d791ff" d="
  M 512.00 0.00
  L 512.00 512.00
  L 0.00 512.00
  L 0.00 0.00
  L 512.00 0.00
  Z
  M 119.13 65.02
  Q 120.73 64.55 120.91 64.44
  C 125.58 61.63 129.24 59.89 135.24 58.63
  C 138.78 57.89 144.65 55.81 148.50 55.93
  C 156.22 56.19 161.15 63.81 166.88 70.61
  Q 169.78 74.04 172.14 74.69
  Q 178.67 76.47 181.22 70.71
  Q 182.53 67.76 181.38 65.09
  Q 179.92 61.72 179.44 61.05
  C 168.04 45.09 153.54 37.33 135.04 48.03
  Q 125.44 53.59 120.25 60.30
  C 119.25 61.60 118.34 62.30 118.03 64.04
  A 0.87 0.87 0.0 0 0 119.13 65.02
  Z
  M 351.24 82.23
  A 1.15 1.14 9.4 0 0 352.57 81.29
  C 353.56 75.21 352.11 71.10 347.78 66.56
  C 340.64 59.07 327.20 49.97 316.34 50.42
  Q 309.11 50.71 303.72 53.54
  Q 296.18 57.49 292.81 59.84
  Q 288.40 62.92 285.87 65.83
  Q 285.32 66.45 285.36 68.16
  C 285.42 71.00 289.15 70.88 290.98 69.96
  C 296.80 67.03 301.35 65.81 308.10 63.37
  C 314.99 60.89 320.06 61.56 326.74 65.25
  Q 333.59 69.03 338.74 74.46
  C 342.99 78.94 345.55 81.22 351.24 82.23
  Z
  M 121.98 151.32
  C 122.11 174.28 146.50 181.10 164.73 175.49
  C 175.63 172.13 184.70 162.48 184.64 150.95
  C 184.57 139.43 175.39 129.88 164.45 126.65
  C 146.16 121.25 121.84 128.35 121.98 151.32
  Z
  M 298.39 135.32
  Q 300.43 134.55 301.01 134.88
  Q 303.45 136.23 305.89 138.59
  A 0.55 0.55 0.0 0 1 305.85 139.42
  C 300.09 143.91 296.67 151.15 296.89 158.48
  C 297.46 177.99 319.10 187.26 335.67 180.09
  C 344.23 176.39 349.93 167.50 347.95 157.99
  C 345.54 146.45 336.13 137.62 325.86 132.53
  C 318.41 128.84 311.68 128.16 303.88 130.66
  Q 300.71 131.68 298.11 134.94
  A 0.25 0.24 8.8 0 0 298.39 135.32
  Z
  M 266.27 275.09
  A 1.40 1.38 57.8 0 1 265.16 274.83
  Q 258.23 269.42 248.95 269.14
  C 218.80 268.22 193.16 297.62 188.42 325.68
  C 184.47 349.08 197.83 367.95 218.84 376.88
  Q 241.08 386.32 265.27 383.59
  C 298.99 379.77 328.73 353.00 327.64 317.16
  C 326.99 295.62 312.79 282.74 293.10 277.14
  C 283.64 274.46 275.62 273.27 266.27 275.09
  Z"
/>
<path fill="#5c0091" d="
  M 119.13 65.02
  A 0.87 0.87 0.0 0 1 118.03 64.04
  C 118.34 62.30 119.25 61.60 120.25 60.30
  Q 125.44 53.59 135.04 48.03
  C 153.54 37.33 168.04 45.09 179.44 61.05
  Q 179.92 61.72 181.38 65.09
  Q 182.53 67.76 181.22 70.71
  Q 178.67 76.47 172.14 74.69
  Q 169.78 74.04 166.88 70.61
  C 161.15 63.81 156.22 56.19 148.50 55.93
  C 144.65 55.81 138.78 57.89 135.24 58.63
  C 129.24 59.89 125.58 61.63 120.91 64.44
  Q 120.73 64.55 119.13 65.02
  Z"
/>
<path fill="#5c0091" d="
  M 351.24 82.23
  C 345.55 81.22 342.99 78.94 338.74 74.46
  Q 333.59 69.03 326.74 65.25
  C 320.06 61.56 314.99 60.89 308.10 63.37
  C 301.35 65.81 296.80 67.03 290.98 69.96
  C 289.15 70.88 285.42 71.00 285.36 68.16
  Q 285.32 66.45 285.87 65.83
  Q 288.40 62.92 292.81 59.84
  Q 296.18 57.49 303.72 53.54
  Q 309.11 50.71 316.34 50.42
  C 327.20 49.97 340.64 59.07 347.78 66.56
  C 352.11 71.10 353.56 75.21 352.57 81.29
  A 1.15 1.14 9.4 0 1 351.24 82.23
  Z"
/>
<path fill="#5c0091" d="
  M 184.64 150.95
  C 184.70 162.48 175.63 172.13 164.73 175.49
  C 146.50 181.10 122.11 174.28 121.98 151.32
  C 121.84 128.35 146.16 121.25 164.45 126.65
  C 175.39 129.88 184.57 139.43 184.64 150.95
  Z
  M 146.97 129.05
  C 138.52 130.61 131.87 137.25 131.67 146.12
  Q 131.58 150.16 132.13 151.96
  C 135.43 162.74 149.65 163.56 158.86 161.11
  Q 165.00 159.48 168.02 154.58
  C 172.69 146.99 154.13 132.96 148.93 129.46
  A 2.69 2.67 56.6 0 0 146.97 129.05
  Z"
/>
<path fill="#d791ff" d="
  M 146.97 129.05
  A 2.69 2.67 56.6 0 1 148.93 129.46
  C 154.13 132.96 172.69 146.99 168.02 154.58
  Q 165.00 159.48 158.86 161.11
  C 149.65 163.56 135.43 162.74 132.13 151.96
  Q 131.58 150.16 131.67 146.12
  C 131.87 137.25 138.52 130.61 146.97 129.05
  Z"
/>
<path fill="#5c0091" d="
  M 298.11 134.94
  Q 300.71 131.68 303.88 130.66
  C 311.68 128.16 318.41 128.84 325.86 132.53
  C 336.13 137.62 345.54 146.45 347.95 157.99
  C 349.93 167.50 344.23 176.39 335.67 180.09
  C 319.10 187.26 297.46 177.99 296.89 158.48
  C 296.67 151.15 300.09 143.91 305.85 139.42
  A 0.55 0.55 0.0 0 0 305.89 138.59
  Q 303.45 136.23 301.01 134.88
  Q 300.43 134.55 298.39 135.32
  A 0.25 0.24 8.8 0 1 298.11 134.94
  Z
  M 328.90 166.01
  C 331.01 165.18 331.65 163.84 331.21 161.58
  C 330.27 156.79 324.10 151.66 319.83 149.16
  Q 317.98 148.09 316.19 149.36
  C 310.88 153.13 309.94 162.04 316.65 165.32
  Q 322.87 168.35 328.90 166.01
  Z"
/>
<path fill="#d791ff" d="
  M 331.21 161.58
  C 331.65 163.84 331.01 165.18 328.90 166.01
  Q 322.87 168.35 316.65 165.32
  C 309.94 162.04 310.88 153.13 316.19 149.36
  Q 317.98 148.09 319.83 149.16
  C 324.10 151.66 330.27 156.79 331.21 161.58
  Z"
/>
<path fill="#5c0091" d="
  M 266.27 275.09
  C 275.62 273.27 283.64 274.46 293.10 277.14
  C 312.79 282.74 326.99 295.62 327.64 317.16
  C 328.73 353.00 298.99 379.77 265.27 383.59
  Q 241.08 386.32 218.84 376.88
  C 197.83 367.95 184.47 349.08 188.42 325.68
  C 193.16 297.62 218.80 268.22 248.95 269.14
  Q 258.23 269.42 265.16 274.83
  A 1.40 1.38 57.8 0 0 266.27 275.09
  Z
  M 269.38 289.57
  Q 269.14 290.25 268.87 290.56
  A 0.77 0.77 0.0 0 1 267.96 290.73
  Q 262.98 288.16 262.90 288.12
  C 256.25 284.59 248.98 283.94 241.62 285.89
  C 224.59 290.42 212.40 306.23 207.59 322.40
  C 201.73 342.07 211.57 354.99 229.45 361.83
  C 249.84 369.63 272.69 368.93 290.63 356.20
  C 303.41 347.12 310.45 334.90 310.53 319.51
  C 310.61 305.40 301.78 298.68 289.75 294.72
  Q 287.30 293.92 270.14 289.17
  A 0.64 0.63 16.9 0 0 269.38 289.57
  Z"
/>
<path fill="#d791ff" d="
  M 270.14 289.17
  Q 287.30 293.92 289.75 294.72
  C 301.78 298.68 310.61 305.40 310.53 319.51
  C 310.45 334.90 303.41 347.12 290.63 356.20
  C 272.69 368.93 249.84 369.63 229.45 361.83
  C 211.57 354.99 201.73 342.07 207.59 322.40
  C 212.40 306.23 224.59 290.42 241.62 285.89
  C 248.98 283.94 256.25 284.59 262.90 288.12
  Q 262.98 288.16 267.96 290.73
  A 0.77 0.77 0.0 0 0 268.87 290.56
  Q 269.14 290.25 269.38 289.57
  A 0.64 0.63 16.9 0 1 270.14 289.17
  Z"
/>
</svg>
