<?xml version="1.0" encoding="UTF-8" standalone="no"?>
<!DOCTYPE svg PUBLIC "-//W3C//DTD SVG 1.1//EN" "http://www.w3.org/Graphics/SVG/1.1/DTD/svg11.dtd">
<svg xmlns="http://www.w3.org/2000/svg" version="1.1" viewBox="0.00 0.00 512.00 512.00">
<g stroke-width="2.00" fill="none" stroke-linecap="butt">
<path stroke="#5ea266" vector-effect="non-scaling-stroke" d="
  M 315.13 123.14
  A 4.96 4.94 -72.1 0 1 312.89 124.29
  C 288.04 129.60 270.93 151.84 266.50 175.92
  C 262.38 198.31 270.67 220.66 287.93 235.01
  C 315.67 258.07 357.97 261.54 389.67 244.42
  C 413.32 231.65 426.90 212.50 429.48 185.75
  C 431.29 166.88 428.69 143.42 419.03 127.21
  C 404.44 102.71 379.64 96.42 352.56 102.95
  Q 331.80 107.95 315.13 123.14"
/>
<path stroke="#5ea266" vector-effect="non-scaling-stroke" d="
  M 165.11 117.61
  Q 158.56 113.14 150.30 113.88
  C 121.30 116.48 100.12 143.26 91.67 168.93
  C 84.04 192.14 86.78 223.55 109.33 238.20
  Q 118.23 243.98 127.23 246.04
  C 147.75 250.73 170.50 246.61 190.09 238.10
  C 210.17 229.38 226.59 214.67 230.73 192.28
  C 234.16 173.69 227.93 149.26 215.57 134.39
  Q 196.61 111.57 166.70 117.92
  A 2.09 2.09 0.0 0 1 165.11 117.61"
/>
<path stroke="#5ea266" vector-effect="non-scaling-stroke" d="
  M 205.88 357.79
  Q 207.19 359.24 209.28 359.42
  C 232.19 361.40 256.48 360.96 280.24 359.49
  Q 291.99 358.76 298.87 357.09
  Q 303.89 355.88 307.54 353.76
  C 309.40 352.68 313.82 348.72 313.92 345.95
  A 1.92 1.80 6.4 0 0 312.35 344.10
  C 303.65 342.51 296.59 343.24 285.92 344.14
  Q 276.50 344.94 253.39 346.56
  C 238.23 347.61 225.06 349.76 212.53 352.05
  C 210.34 352.45 205.62 353.99 205.51 356.79
  A 1.43 1.40 25.4 0 0 205.88 357.79"
/>
<path stroke="#5ea266" vector-effect="non-scaling-stroke" d="
  M 293.07 159.87
  A 0.15 0.15 0.0 0 0 292.80 159.75
  C 278.23 182.66 282.75 211.22 306.79 225.57
  C 332.51 240.93 365.98 239.57 390.19 221.81
  C 397.61 216.37 403.43 209.29 406.52 201.25
  C 412.97 184.47 412.15 165.18 407.32 147.71
  C 402.69 130.95 391.38 119.87 373.19 119.58
  Q 353.10 119.25 335.96 130.60
  A 0.50 0.50 0.0 0 0 335.86 131.35
  Q 338.26 133.95 339.30 137.36
  A 0.42 0.42 0.0 0 0 339.95 137.58
  C 348.75 131.17 360.02 127.66 370.72 130.90
  Q 386.78 135.75 392.47 152.76
  C 397.07 166.53 392.66 181.97 382.47 191.98
  Q 379.46 194.93 378.66 195.76
  A 6.68 6.53 -10.2 0 0 377.44 197.47
  Q 366.72 218.91 343.54 225.41
  C 334.65 227.91 324.66 227.75 315.99 224.77
  C 290.18 215.89 285.89 187.74 291.86 164.61
  Q 292.95 160.37 293.07 159.87"
/>
<path stroke="#5ea266" vector-effect="non-scaling-stroke" d="
  M 330.63 208.17
  A 0.32 0.32 0.0 0 0 330.82 207.60
  C 319.34 199.13 317.50 184.81 323.54 172.49
  Q 325.41 168.68 326.01 166.98
  A 3.89 3.73 -38.3 0 0 326.22 165.47
  Q 325.38 152.66 333.81 143.34
  A 0.65 0.65 0.0 0 0 333.43 142.26
  L 325.61 141.00
  A 2.39 2.39 0.0 0 0 323.37 141.86
  C 313.11 154.78 306.85 173.14 308.84 189.01
  C 310.39 201.35 318.33 208.31 330.63 208.17"
/>
<path stroke="#5ea266" vector-effect="non-scaling-stroke" d="
  M 377.15 160.93
  C 377.12 157.78 374.70 152.87 371.97 150.66
  Q 365.88 145.75 357.79 148.13
  A 0.19 0.19 0.0 0 0 357.83 148.50
  C 366.26 149.08 372.27 154.07 376.67 161.07
  A 0.26 0.26 0.0 0 0 377.15 160.93"
/>
<path stroke="#5ea266" vector-effect="non-scaling-stroke" d="
  M 363.74 178.11
  A 3.07 2.28 -6.3 0 0 361.05 176.54
  C 356.16 176.43 349.22 179.61 348.42 185.08
  A 2.40 2.40 0.0 0 0 350.41 187.79
  Q 356.45 188.78 361.92 185.82
  A 2.27 2.21 0.7 0 0 362.76 185.02
  Q 364.94 181.50 363.74 178.11"
/>
<path stroke="#5ea266" vector-effect="non-scaling-stroke" d="
  M 199.43 210.61
  C 205.63 205.10 210.34 198.47 211.79 190.31
  C 214.20 176.83 211.03 161.93 204.06 150.52
  C 192.45 131.48 172.56 132.60 155.55 142.71
  A 0.19 0.19 0.0 0 0 155.63 143.07
  Q 170.82 144.68 182.56 154.73
  Q 189.28 160.47 192.82 165.05
  C 201.08 175.74 206.28 194.14 200.47 206.88
  Q 199.16 209.77 199.00 210.34
  A 0.27 0.26 76.8 0 0 199.43 210.61"
/>
<path stroke="#5ea266" vector-effect="non-scaling-stroke" d="
  M 110.73 171.82
  Q 105.55 185.08 107.19 199.78
  C 108.70 213.32 115.77 222.79 128.95 226.80
  Q 137.23 229.32 146.91 229.04
  A 0.29 0.29 0.0 0 0 146.99 228.48
  Q 136.15 225.16 127.50 217.54
  Q 106.93 199.42 110.95 171.88
  A 0.12 0.11 59.9 0 0 110.73 171.82"
/>
<path stroke="#5ea266" vector-effect="non-scaling-stroke" d="
  M 148.88 181.17
  C 149.28 182.77 152.54 183.78 153.93 183.91
  Q 166.14 185.13 175.11 177.20
  Q 177.16 175.40 176.87 174.23
  Q 176.58 173.07 173.93 172.42
  Q 162.29 169.60 152.07 176.38
  C 150.90 177.15 148.49 179.57 148.88 181.17"
/>
<path stroke="#5ea266" vector-effect="non-scaling-stroke" d="
  M 179.58 206.00
  Q 160.26 211.48 141.98 202.74
  Q 141.16 202.35 136.21 199.54
  A 0.24 0.24 0.0 0 0 135.91 199.91
  C 147.65 213.11 163.31 217.76 178.75 207.50
  A 3.42 3.37 3.7 0 0 179.43 206.91
  L 179.85 206.43
  A 0.26 0.26 0.0 0 0 179.58 206.00"
/>
</g>
<path fill="#44bb44" d="
  M 512.00 0.00
  L 512.00 512.00
  L 0.00 512.00
  L 0.00 0.00
  L 512.00 0.00
  Z
  M 315.13 123.14
  A 4.96 4.94 -72.1 0 1 312.89 124.29
  C 288.04 129.60 270.93 151.84 266.50 175.92
  C 262.38 198.31 270.67 220.66 287.93 235.01
  C 315.67 258.07 357.97 261.54 389.67 244.42
  C 413.32 231.65 426.90 212.50 429.48 185.75
  C 431.29 166.88 428.69 143.42 419.03 127.21
  C 404.44 102.71 379.64 96.42 352.56 102.95
  Q 331.80 107.95 315.13 123.14
  Z
  M 165.11 117.61
  Q 158.56 113.14 150.30 113.88
  C 121.30 116.48 100.12 143.26 91.67 168.93
  C 84.04 192.14 86.78 223.55 109.33 238.20
  Q 118.23 243.98 127.23 246.04
  C 147.75 250.73 170.50 246.61 190.09 238.10
  C 210.17 229.38 226.59 214.67 230.73 192.28
  C 234.16 173.69 227.93 149.26 215.57 134.39
  Q 196.61 111.57 166.70 117.92
  A 2.09 2.09 0.0 0 1 165.11 117.61
  Z
  M 205.88 357.79
  Q 207.19 359.24 209.28 359.42
  C 232.19 361.40 256.48 360.96 280.24 359.49
  Q 291.99 358.76 298.87 357.09
  Q 303.89 355.88 307.54 353.76
  C 309.40 352.68 313.82 348.72 313.92 345.95
  A 1.92 1.80 6.4 0 0 312.35 344.10
  C 303.65 342.51 296.59 343.24 285.92 344.14
  Q 276.50 344.94 253.39 346.56
  C 238.23 347.61 225.06 349.76 212.53 352.05
  C 210.34 352.45 205.62 353.99 205.51 356.79
  A 1.43 1.40 25.4 0 0 205.88 357.79
  Z"
/>
<path fill="#778888" d="
  M 315.13 123.14
  Q 331.80 107.95 352.56 102.95
  C 379.64 96.42 404.44 102.71 419.03 127.21
  C 428.69 143.42 431.29 166.88 429.48 185.75
  C 426.90 212.50 413.32 231.65 389.67 244.42
  C 357.97 261.54 315.67 258.07 287.93 235.01
  C 270.67 220.66 262.38 198.31 266.50 175.92
  C 270.93 151.84 288.04 129.60 312.89 124.29
  A 4.96 4.94 -72.1 0 0 315.13 123.14
  Z
  M 293.07 159.87
  A 0.15 0.15 0.0 0 0 292.80 159.75
  C 278.23 182.66 282.75 211.22 306.79 225.57
  C 332.51 240.93 365.98 239.57 390.19 221.81
  C 397.61 216.37 403.43 209.29 406.52 201.25
  C 412.97 184.47 412.15 165.18 407.32 147.71
  C 402.69 130.95 391.38 119.87 373.19 119.58
  Q 353.10 119.25 335.96 130.60
  A 0.50 0.50 0.0 0 0 335.86 131.35
  Q 338.26 133.95 339.30 137.36
  A 0.42 0.42 0.0 0 0 339.95 137.58
  C 348.75 131.17 360.02 127.66 370.72 130.90
  Q 386.78 135.75 392.47 152.76
  C 397.07 166.53 392.66 181.97 382.47 191.98
  Q 379.46 194.93 378.66 195.76
  A 6.68 6.53 -10.2 0 0 377.44 197.47
  Q 366.72 218.91 343.54 225.41
  C 334.65 227.91 324.66 227.75 315.99 224.77
  C 290.18 215.89 285.89 187.74 291.86 164.61
  Q 292.95 160.37 293.07 159.87
  Z
  M 330.63 208.17
  A 0.32 0.32 0.0 0 0 330.82 207.60
  C 319.34 199.13 317.50 184.81 323.54 172.49
  Q 325.41 168.68 326.01 166.98
  A 3.89 3.73 -38.3 0 0 326.22 165.47
  Q 325.38 152.66 333.81 143.34
  A 0.65 0.65 0.0 0 0 333.43 142.26
  L 325.61 141.00
  A 2.39 2.39 0.0 0 0 323.37 141.86
  C 313.11 154.78 306.85 173.14 308.84 189.01
  C 310.39 201.35 318.33 208.31 330.63 208.17
  Z
  M 377.15 160.93
  C 377.12 157.78 374.70 152.87 371.97 150.66
  Q 365.88 145.75 357.79 148.13
  A 0.19 0.19 0.0 0 0 357.83 148.50
  C 366.26 149.08 372.27 154.07 376.67 161.07
  A 0.26 0.26 0.0 0 0 377.15 160.93
  Z
  M 363.74 178.11
  A 3.07 2.28 -6.3 0 0 361.05 176.54
  C 356.16 176.43 349.22 179.61 348.42 185.08
  A 2.40 2.40 0.0 0 0 350.41 187.79
  Q 356.45 188.78 361.92 185.82
  A 2.27 2.21 0.7 0 0 362.76 185.02
  Q 364.94 181.50 363.74 178.11
  Z"
/>
<path fill="#778888" d="
  M 165.11 117.61
  A 2.09 2.09 0.0 0 0 166.70 117.92
  Q 196.61 111.57 215.57 134.39
  C 227.93 149.26 234.16 173.69 230.73 192.28
  C 226.59 214.67 210.17 229.38 190.09 238.10
  C 170.50 246.61 147.75 250.73 127.23 246.04
  Q 118.23 243.98 109.33 238.20
  C 86.78 223.55 84.04 192.14 91.67 168.93
  C 100.12 143.26 121.30 116.48 150.30 113.88
  Q 158.56 113.14 165.11 117.61
  Z
  M 199.43 210.61
  C 205.63 205.10 210.34 198.47 211.79 190.31
  C 214.20 176.83 211.03 161.93 204.06 150.52
  C 192.45 131.48 172.56 132.60 155.55 142.71
  A 0.19 0.19 0.0 0 0 155.63 143.07
  Q 170.82 144.68 182.56 154.73
  Q 189.28 160.47 192.82 165.05
  C 201.08 175.74 206.28 194.14 200.47 206.88
  Q 199.16 209.77 199.00 210.34
  A 0.27 0.26 76.8 0 0 199.43 210.61
  Z
  M 110.73 171.82
  Q 105.55 185.08 107.19 199.78
  C 108.70 213.32 115.77 222.79 128.95 226.80
  Q 137.23 229.32 146.91 229.04
  A 0.29 0.29 0.0 0 0 146.99 228.48
  Q 136.15 225.16 127.50 217.54
  Q 106.93 199.42 110.95 171.88
  A 0.12 0.11 59.9 0 0 110.73 171.82
  Z
  M 148.88 181.17
  C 149.28 182.77 152.54 183.78 153.93 183.91
  Q 166.14 185.13 175.11 177.20
  Q 177.16 175.40 176.87 174.23
  Q 176.58 173.07 173.93 172.42
  Q 162.29 169.60 152.07 176.38
  C 150.90 177.15 148.49 179.57 148.88 181.17
  Z
  M 179.58 206.00
  Q 160.26 211.48 141.98 202.74
  Q 141.16 202.35 136.21 199.54
  A 0.24 0.24 0.0 0 0 135.91 199.91
  C 147.65 213.11 163.31 217.76 178.75 207.50
  A 3.42 3.37 3.7 0 0 179.43 206.91
  L 179.85 206.43
  A 0.26 0.26 0.0 0 0 179.58 206.00
  Z"
/>
<path fill="#44bb44" d="
  M 293.07 159.87
  Q 292.95 160.37 291.86 164.61
  C 285.89 187.74 290.18 215.89 315.99 224.77
  C 324.66 227.75 334.65 227.91 343.54 225.41
  Q 366.72 218.91 377.44 197.47
  A 6.68 6.53 -10.2 0 1 378.66 195.76
  Q 379.46 194.93 382.47 191.98
  C 392.66 181.97 397.07 166.53 392.47 152.76
  Q 386.78 135.75 370.72 130.90
  C 360.02 127.66 348.75 131.17 339.95 137.58
  A 0.42 0.42 0.0 0 1 339.30 137.36
  Q 338.26 133.95 335.86 131.35
  A 0.50 0.50 0.0 0 1 335.96 130.60
  Q 353.10 119.25 373.19 119.58
  C 391.38 119.87 402.69 130.95 407.32 147.71
  C 412.15 165.18 412.97 184.47 406.52 201.25
  C 403.43 209.29 397.61 216.37 390.19 221.81
  C 365.98 239.57 332.51 240.93 306.79 225.57
  C 282.75 211.22 278.23 182.66 292.80 159.75
  A 0.15 0.15 0.0 0 1 293.07 159.87
  Z"
/>
<path fill="#44bb44" d="
  M 199.43 210.61
  A 0.27 0.26 76.8 0 1 199.00 210.34
  Q 199.16 209.77 200.47 206.88
  C 206.28 194.14 201.08 175.74 192.82 165.05
  Q 189.28 160.47 182.56 154.73
  Q 170.82 144.68 155.63 143.07
  A 0.19 0.19 0.0 0 1 155.55 142.71
  C 172.56 132.60 192.45 131.48 204.06 150.52
  C 211.03 161.93 214.20 176.83 211.79 190.31
  C 210.34 198.47 205.63 205.10 199.43 210.61
  Z"
/>
<path fill="#44bb44" d="
  M 330.63 208.17
  C 318.33 208.31 310.39 201.35 308.84 189.01
  C 306.85 173.14 313.11 154.78 323.37 141.86
  A 2.39 2.39 0.0 0 1 325.61 141.00
  L 333.43 142.26
  A 0.65 0.65 0.0 0 1 333.81 143.34
  Q 325.38 152.66 326.22 165.47
  A 3.89 3.73 -38.3 0 1 326.01 166.98
  Q 325.41 168.68 323.54 172.49
  C 317.50 184.81 319.34 199.13 330.82 207.60
  A 0.32 0.32 0.0 0 1 330.63 208.17
  Z"
/>
<path fill="#44bb44" d="
  M 377.15 160.93
  A 0.26 0.26 0.0 0 1 376.67 161.07
  C 372.27 154.07 366.26 149.08 357.83 148.50
  A 0.19 0.19 0.0 0 1 357.79 148.13
  Q 365.88 145.75 371.97 150.66
  C 374.70 152.87 377.12 157.78 377.15 160.93
  Z"
/>
<path fill="#44bb44" d="
  M 110.73 171.82
  A 0.12 0.11 59.9 0 1 110.95 171.88
  Q 106.93 199.42 127.50 217.54
  Q 136.15 225.16 146.99 228.48
  A 0.29 0.29 0.0 0 1 146.91 229.04
  Q 137.23 229.32 128.95 226.80
  C 115.77 222.79 108.70 213.32 107.19 199.78
  Q 105.55 185.08 110.73 171.82
  Z"
/>
<path fill="#44bb44" d="
  M 176.87 174.23
  Q 177.16 175.40 175.11 177.20
  Q 166.14 185.13 153.93 183.91
  C 152.54 183.78 149.28 182.77 148.88 181.17
  C 148.49 179.57 150.90 177.15 152.07 176.38
  Q 162.29 169.60 173.93 172.42
  Q 176.58 173.07 176.87 174.23
  Z"
/>
<path fill="#44bb44" d="
  M 363.74 178.11
  Q 364.94 181.50 362.76 185.02
  A 2.27 2.21 0.7 0 1 361.92 185.82
  Q 356.45 188.78 350.41 187.79
  A 2.40 2.40 0.0 0 1 348.42 185.08
  C 349.22 179.61 356.16 176.43 361.05 176.54
  A 3.07 2.28 -6.3 0 1 363.74 178.11
  Z"
/>
<path fill="#44bb44" d="
  M 179.85 206.43
  L 179.43 206.91
  A 3.42 3.37 3.7 0 1 178.75 207.50
  C 163.31 217.76 147.65 213.11 135.91 199.91
  A 0.24 0.24 0.0 0 1 136.21 199.54
  Q 141.16 202.35 141.98 202.74
  Q 160.26 211.48 179.58 206.00
  A 0.26 0.26 0.0 0 1 179.85 206.43
  Z"
/>
<path fill="#778888" d="
  M 205.51 356.79
  C 205.62 353.99 210.34 352.45 212.53 352.05
  C 225.06 349.76 238.23 347.61 253.39 346.56
  Q 276.50 344.94 285.92 344.14
  C 296.59 343.24 303.65 342.51 312.35 344.10
  A 1.92 1.80 6.4 0 1 313.92 345.95
  C 313.82 348.72 309.40 352.68 307.54 353.76
  Q 303.89 355.88 298.87 357.09
  Q 291.99 358.76 280.24 359.49
  C 256.48 360.96 232.19 361.40 209.28 359.42
  Q 207.19 359.24 205.88 357.79
  A 1.43 1.40 25.4 0 1 205.51 356.79
  Z"
/>
</svg>
