<?xml version="1.0" encoding="UTF-8" standalone="no"?>
<!DOCTYPE svg PUBLIC "-//W3C//DTD SVG 1.1//EN" "http://www.w3.org/Graphics/SVG/1.1/DTD/svg11.dtd">
<svg xmlns="http://www.w3.org/2000/svg" version="1.1" viewBox="0.00 0.00 256.00 256.00">
<g stroke-width="2.00" fill="none" stroke-linecap="butt">
<path stroke="#974b77" vector-effect="non-scaling-stroke" d="
  M 74.40 51.53
  L 96.97 85.92
  A 4.30 4.30 0.0 0 0 102.64 87.33
  L 102.79 87.25
  A 4.26 4.25 60.4 0 0 104.39 81.42
  Q 99.72 73.30 87.87 55.53
  Q 83.05 48.31 79.22 43.89
  Q 77.39 41.78 76.06 40.93
  C 69.69 36.90 64.97 49.40 63.78 53.60
  Q 59.21 69.78 58.91 87.01
  A 3.69 3.68 3.3 0 0 62.24 90.74
  L 62.42 90.76
  A 3.46 3.45 -84.5 0 0 66.19 87.64
  Q 68.16 67.20 73.51 51.65
  A 0.50 0.50 0.0 0 1 74.40 51.53"
/>
<path stroke="#974b77" vector-effect="non-scaling-stroke" d="
  M 186.74 55.69
  Q 186.94 55.87 187.03 56.25
  Q 191.55 76.56 193.51 95.99
  Q 193.72 98.07 196.43 101.27
  A 0.67 0.66 -33.7 0 0 197.24 101.43
  Q 202.85 98.49 202.15 91.48
  Q 201.18 81.81 198.02 64.51
  C 197.27 60.37 193.84 37.10 185.06 43.87
  Q 182.52 45.82 181.69 46.97
  Q 164.33 71.10 150.77 88.26
  A 2.75 2.60 46.2 0 0 150.79 91.54
  Q 151.54 92.54 153.22 92.28
  A 1.89 1.79 21.3 0 0 153.98 91.97
  Q 159.69 87.94 164.73 81.97
  Q 174.90 69.93 186.17 55.75
  A 0.41 0.40 -50.5 0 1 186.74 55.69"
/>
<path stroke="#974b77" vector-effect="non-scaling-stroke" d="
  M 86.33 128.13
  Q 82.49 131.02 83.74 137.10
  C 85.08 143.68 91.64 146.86 97.24 142.64
  C 102.84 138.43 101.61 131.25 95.66 128.13
  Q 90.16 125.25 86.33 128.13"
/>
<path stroke="#974b77" vector-effect="non-scaling-stroke" d="
  M 148.1148 128.6538
  A 8.52 7.46 -129.9 0 0 147.8569 139.9752
  A 8.52 7.46 -129.9 0 0 159.0452 141.7262
  A 8.52 7.46 -129.9 0 0 159.3031 130.4048
  A 8.52 7.46 -129.9 0 0 148.1148 128.6538"
/>
<path stroke="#974b77" vector-effect="non-scaling-stroke" d="
  M 166.77 178.22
  Q 164.96 179.98 163.60 180.61
  Q 151.33 186.26 150.79 186.51
  Q 143.05 190.05 136.09 189.12
  C 129.39 188.23 126.06 184.47 121.54 179.78
  A 3.25 3.24 -27.0 0 0 118.60 178.83
  Q 114.05 179.66 109.78 182.24
  C 103.81 185.87 95.67 186.65 88.49 185.54
  C 82.68 184.65 79.78 182.61 74.79 178.77
  A 2.40 2.24 37.1 0 0 71.50 179.11
  Q 70.79 180.05 71.21 181.57
  C 74.28 192.72 86.59 195.52 97.06 195.03
  Q 108.60 194.50 118.24 187.53
  A 0.70 0.69 54.6 0 1 119.23 187.70
  C 126.14 198.06 138.98 200.32 150.36 196.33
  Q 163.37 191.77 167.09 178.41
  A 0.19 0.19 0.0 0 0 166.77 178.22"
/>
</g>
<path fill="#2f4476" d="
  M 256.00 0.00
  L 256.00 256.00
  L 0.00 256.00
  L 0.00 0.00
  L 256.00 0.00
  Z
  M 74.40 51.53
  L 96.97 85.92
  A 4.30 4.30 0.0 0 0 102.64 87.33
  L 102.79 87.25
  A 4.26 4.25 60.4 0 0 104.39 81.42
  Q 99.72 73.30 87.87 55.53
  Q 83.05 48.31 79.22 43.89
  Q 77.39 41.78 76.06 40.93
  C 69.69 36.90 64.97 49.40 63.78 53.60
  Q 59.21 69.78 58.91 87.01
  A 3.69 3.68 3.3 0 0 62.24 90.74
  L 62.42 90.76
  A 3.46 3.45 -84.5 0 0 66.19 87.64
  Q 68.16 67.20 73.51 51.65
  A 0.50 0.50 0.0 0 1 74.40 51.53
  Z
  M 186.74 55.69
  Q 186.94 55.87 187.03 56.25
  Q 191.55 76.56 193.51 95.99
  Q 193.72 98.07 196.43 101.27
  A 0.67 0.66 -33.7 0 0 197.24 101.43
  Q 202.85 98.49 202.15 91.48
  Q 201.18 81.81 198.02 64.51
  C 197.27 60.37 193.84 37.10 185.06 43.87
  Q 182.52 45.82 181.69 46.97
  Q 164.33 71.10 150.77 88.26
  A 2.75 2.60 46.2 0 0 150.79 91.54
  Q 151.54 92.54 153.22 92.28
  A 1.89 1.79 21.3 0 0 153.98 91.97
  Q 159.69 87.94 164.73 81.97
  Q 174.90 69.93 186.17 55.75
  A 0.41 0.40 -50.5 0 1 186.74 55.69
  Z
  M 86.33 128.13
  Q 82.49 131.02 83.74 137.10
  C 85.08 143.68 91.64 146.86 97.24 142.64
  C 102.84 138.43 101.61 131.25 95.66 128.13
  Q 90.16 125.25 86.33 128.13
  Z
  M 148.1148 128.6538
  A 8.52 7.46 -129.9 0 0 147.8569 139.9752
  A 8.52 7.46 -129.9 0 0 159.0452 141.7262
  A 8.52 7.46 -129.9 0 0 159.3031 130.4048
  A 8.52 7.46 -129.9 0 0 148.1148 128.6538
  Z
  M 166.77 178.22
  Q 164.96 179.98 163.60 180.61
  Q 151.33 186.26 150.79 186.51
  Q 143.05 190.05 136.09 189.12
  C 129.39 188.23 126.06 184.47 121.54 179.78
  A 3.25 3.24 -27.0 0 0 118.60 178.83
  Q 114.05 179.66 109.78 182.24
  C 103.81 185.87 95.67 186.65 88.49 185.54
  C 82.68 184.65 79.78 182.61 74.79 178.77
  A 2.40 2.24 37.1 0 0 71.50 179.11
  Q 70.79 180.05 71.21 181.57
  C 74.28 192.72 86.59 195.52 97.06 195.03
  Q 108.60 194.50 118.24 187.53
  A 0.70 0.69 54.6 0 1 119.23 187.70
  C 126.14 198.06 138.98 200.32 150.36 196.33
  Q 163.37 191.77 167.09 178.41
  A 0.19 0.19 0.0 0 0 166.77 178.22
  Z"
/>
<path fill="#ff5278" d="
  M 74.40 51.53
  A 0.50 0.50 0.0 0 0 73.51 51.65
  Q 68.16 67.20 66.19 87.64
  A 3.46 3.45 -84.5 0 1 62.42 90.76
  L 62.24 90.74
  A 3.69 3.68 3.3 0 1 58.91 87.01
  Q 59.21 69.78 63.78 53.60
  C 64.97 49.40 69.69 36.90 76.06 40.93
  Q 77.39 41.78 79.22 43.89
  Q 83.05 48.31 87.87 55.53
  Q 99.72 73.30 104.39 81.42
  A 4.26 4.25 60.4 0 1 102.79 87.25
  L 102.64 87.33
  A 4.30 4.30 0.0 0 1 96.97 85.92
  L 74.40 51.53
  Z"
/>
<path fill="#ff5278" d="
  M 186.74 55.69
  A 0.41 0.40 -50.5 0 0 186.17 55.75
  Q 174.90 69.93 164.73 81.97
  Q 159.69 87.94 153.98 91.97
  A 1.89 1.79 21.3 0 1 153.22 92.28
  Q 151.54 92.54 150.79 91.54
  A 2.75 2.60 46.2 0 1 150.77 88.26
  Q 164.33 71.10 181.69 46.97
  Q 182.52 45.82 185.06 43.87
  C 193.84 37.10 197.27 60.37 198.02 64.51
  Q 201.18 81.81 202.15 91.48
  Q 202.85 98.49 197.24 101.43
  A 0.67 0.66 -33.7 0 1 196.43 101.27
  Q 193.72 98.07 193.51 95.99
  Q 191.55 76.56 187.03 56.25
  Q 186.94 55.87 186.74 55.69
  Z"
/>
<path fill="#ff5278" d="
  M 97.24 142.64
  C 91.64 146.86 85.08 143.68 83.74 137.10
  Q 82.49 131.02 86.33 128.13
  Q 90.16 125.25 95.66 128.13
  C 101.61 131.25 102.84 138.43 97.24 142.64
  Z"
/>
<ellipse fill="#ff5278" cx="0.00" cy="0.00" transform="translate(153.58,135.19) rotate(-129.9)" rx="8.52" ry="7.46"/>
<path fill="#ff5278" d="
  M 167.09 178.41
  Q 163.37 191.77 150.36 196.33
  C 138.98 200.32 126.14 198.06 119.23 187.70
  A 0.70 0.69 54.6 0 0 118.24 187.53
  Q 108.60 194.50 97.06 195.03
  C 86.59 195.52 74.28 192.72 71.21 181.57
  Q 70.79 180.05 71.50 179.11
  A 2.40 2.24 37.1 0 1 74.79 178.77
  C 79.78 182.61 82.68 184.65 88.49 185.54
  C 95.67 186.65 103.81 185.87 109.78 182.24
  Q 114.05 179.66 118.60 178.83
  A 3.25 3.24 -27.0 0 1 121.54 179.78
  C 126.06 184.47 129.39 188.23 136.09 189.12
  Q 143.05 190.05 150.79 186.51
  Q 151.33 186.26 163.60 180.61
  Q 164.96 179.98 166.77 178.22
  A 0.19 0.19 0.0 0 1 167.09 178.41
  Z"
/>
</svg>
