<?xml version="1.0" encoding="UTF-8" standalone="no"?>
<!DOCTYPE svg PUBLIC "-//W3C//DTD SVG 1.1//EN" "http://www.w3.org/Graphics/SVG/1.1/DTD/svg11.dtd">
<svg xmlns="http://www.w3.org/2000/svg" version="1.1" viewBox="0.00 0.00 512.00 512.00">
<g stroke-width="2.00" fill="none" stroke-linecap="butt">
<path stroke="#aaa8b1" vector-effect="non-scaling-stroke" d="
  M 401.55 71.81
  Q 401.12 71.84 400.03 72.30
  Q 393.56 75.01 390.26 76.54
  C 383.62 79.61 377.75 83.46 371.33 88.45
  Q 350.75 104.47 327.20 123.95
  Q 312.60 136.02 302.36 148.84
  Q 297.20 155.30 296.58 157.69
  C 295.01 163.70 299.98 169.18 306.16 167.58
  Q 308.30 167.03 311.70 163.55
  C 315.01 160.16 319.55 155.42 323.19 152.25
  C 344.64 133.49 361.42 120.31 387.09 99.86
  Q 396.67 92.23 403.06 80.10
  A 2.69 2.65 62.0 0 0 403.35 79.12
  L 403.83 74.02
  A 2.03 2.03 0.0 0 0 401.55 71.81"
/>
<path stroke="#aaa8b1" vector-effect="non-scaling-stroke" d="
  M 237.79 159.97
  Q 235.32 159.02 233.84 157.30
  C 226.04 148.27 220.20 142.13 210.25 135.40
  Q 195.47 125.41 171.24 106.00
  Q 161.95 98.56 155.40 94.59
  C 150.71 91.75 131.62 81.58 130.78 91.47
  A 1.78 1.77 -58.0 0 0 131.02 92.53
  C 133.60 96.94 138.71 99.93 142.41 103.36
  C 161.21 120.76 178.01 136.43 198.41 150.07
  C 210.94 158.46 222.34 162.32 237.74 160.39
  A 0.22 0.22 0.0 0 0 237.79 159.97"
/>
<path stroke="#aaa8b1" vector-effect="non-scaling-stroke" d="
  M 172.71 236.46
  L 175.76 226.85
  A 1.76 1.72 -33.2 0 0 175.85 226.44
  Q 176.49 220.11 176.37 218.50
  C 175.42 205.05 174.48 192.47 175.56 179.82
  C 175.79 177.09 175.83 170.27 172.33 169.43
  C 170.23 168.92 168.05 171.26 167.60 172.86
  Q 166.38 177.18 164.61 184.07
  Q 161.08 197.88 162.60 212.43
  C 163.41 220.20 165.23 226.43 169.31 231.89
  Q 172.01 235.50 172.35 236.47
  A 0.19 0.19 0.0 0 0 172.71 236.46"
/>
<path stroke="#aaa8b1" vector-effect="non-scaling-stroke" d="
  M 321.62 225.78
  Q 322.54 223.09 324.62 217.97
  C 328.14 209.29 326.51 199.75 324.53 188.87
  C 324.12 186.57 323.79 184.67 322.26 182.90
  A 2.10 1.84 50.3 0 0 319.57 182.47
  C 317.35 184.19 316.48 187.85 316.26 190.44
  C 315.77 196.13 313.87 202.05 313.64 206.87
  C 313.32 213.77 315.47 221.17 321.03 225.95
  A 0.37 0.37 0.0 0 0 321.62 225.78"
/>
<path stroke="#aaa8b1" vector-effect="non-scaling-stroke" d="
  M 447.44 348.74
  Q 442.60 341.26 434.03 341.09
  Q 418.85 340.79 396.57 342.62
  Q 372.59 344.59 344.96 348.16
  Q 292.44 354.94 239.71 362.11
  Q 215.36 365.42 196.28 366.78
  C 177.06 368.15 161.88 368.14 143.52 366.31
  Q 139.07 365.86 129.77 366.18
  Q 126.42 366.30 123.67 367.88
  C 117.20 371.61 120.77 378.25 125.99 380.37
  C 132.11 382.85 138.93 384.77 145.24 385.45
  Q 165.75 387.69 186.98 386.38
  Q 214.18 384.70 242.38 380.90
  C 300.60 373.06 327.86 369.20 373.23 363.88
  Q 399.26 360.83 434.26 359.68
  Q 441.31 359.45 446.06 354.34
  Q 448.30 351.92 447.84 349.71
  A 2.72 2.58 24.2 0 0 447.44 348.74"
/>
</g>
<path fill="#5555aa" d="
  M 512.00 0.00
  L 512.00 512.00
  L 0.00 512.00
  L 0.00 0.00
  L 512.00 0.00
  Z
  M 401.55 71.81
  Q 401.12 71.84 400.03 72.30
  Q 393.56 75.01 390.26 76.54
  C 383.62 79.61 377.75 83.46 371.33 88.45
  Q 350.75 104.47 327.20 123.95
  Q 312.60 136.02 302.36 148.84
  Q 297.20 155.30 296.58 157.69
  C 295.01 163.70 299.98 169.18 306.16 167.58
  Q 308.30 167.03 311.70 163.55
  C 315.01 160.16 319.55 155.42 323.19 152.25
  C 344.64 133.49 361.42 120.31 387.09 99.86
  Q 396.67 92.23 403.06 80.10
  A 2.69 2.65 62.0 0 0 403.35 79.12
  L 403.83 74.02
  A 2.03 2.03 0.0 0 0 401.55 71.81
  Z
  M 237.79 159.97
  Q 235.32 159.02 233.84 157.30
  C 226.04 148.27 220.20 142.13 210.25 135.40
  Q 195.47 125.41 171.24 106.00
  Q 161.95 98.56 155.40 94.59
  C 150.71 91.75 131.62 81.58 130.78 91.47
  A 1.78 1.77 -58.0 0 0 131.02 92.53
  C 133.60 96.94 138.71 99.93 142.41 103.36
  C 161.21 120.76 178.01 136.43 198.41 150.07
  C 210.94 158.46 222.34 162.32 237.74 160.39
  A 0.22 0.22 0.0 0 0 237.79 159.97
  Z
  M 172.71 236.46
  L 175.76 226.85
  A 1.76 1.72 -33.2 0 0 175.85 226.44
  Q 176.49 220.11 176.37 218.50
  C 175.42 205.05 174.48 192.47 175.56 179.82
  C 175.79 177.09 175.83 170.27 172.33 169.43
  C 170.23 168.92 168.05 171.26 167.60 172.86
  Q 166.38 177.18 164.61 184.07
  Q 161.08 197.88 162.60 212.43
  C 163.41 220.20 165.23 226.43 169.31 231.89
  Q 172.01 235.50 172.35 236.47
  A 0.19 0.19 0.0 0 0 172.71 236.46
  Z
  M 321.62 225.78
  Q 322.54 223.09 324.62 217.97
  C 328.14 209.29 326.51 199.75 324.53 188.87
  C 324.12 186.57 323.79 184.67 322.26 182.90
  A 2.10 1.84 50.3 0 0 319.57 182.47
  C 317.35 184.19 316.48 187.85 316.26 190.44
  C 315.77 196.13 313.87 202.05 313.64 206.87
  C 313.32 213.77 315.47 221.17 321.03 225.95
  A 0.37 0.37 0.0 0 0 321.62 225.78
  Z
  M 447.44 348.74
  Q 442.60 341.26 434.03 341.09
  Q 418.85 340.79 396.57 342.62
  Q 372.59 344.59 344.96 348.16
  Q 292.44 354.94 239.71 362.11
  Q 215.36 365.42 196.28 366.78
  C 177.06 368.15 161.88 368.14 143.52 366.31
  Q 139.07 365.86 129.77 366.18
  Q 126.42 366.30 123.67 367.88
  C 117.20 371.61 120.77 378.25 125.99 380.37
  C 132.11 382.85 138.93 384.77 145.24 385.45
  Q 165.75 387.69 186.98 386.38
  Q 214.18 384.70 242.38 380.90
  C 300.60 373.06 327.86 369.20 373.23 363.88
  Q 399.26 360.83 434.26 359.68
  Q 441.31 359.45 446.06 354.34
  Q 448.30 351.92 447.84 349.71
  A 2.72 2.58 24.2 0 0 447.44 348.74
  Z"
/>
<path fill="#fffbb7" d="
  M 401.55 71.81
  A 2.03 2.03 0.0 0 1 403.83 74.02
  L 403.35 79.12
  A 2.69 2.65 62.0 0 1 403.06 80.10
  Q 396.67 92.23 387.09 99.86
  C 361.42 120.31 344.64 133.49 323.19 152.25
  C 319.55 155.42 315.01 160.16 311.70 163.55
  Q 308.30 167.03 306.16 167.58
  C 299.98 169.18 295.01 163.70 296.58 157.69
  Q 297.20 155.30 302.36 148.84
  Q 312.60 136.02 327.20 123.95
  Q 350.75 104.47 371.33 88.45
  C 377.75 83.46 383.62 79.61 390.26 76.54
  Q 393.56 75.01 400.03 72.30
  Q 401.12 71.84 401.55 71.81
  Z"
/>
<path fill="#fffbb7" d="
  M 237.74 160.39
  C 222.34 162.32 210.94 158.46 198.41 150.07
  C 178.01 136.43 161.21 120.76 142.41 103.36
  C 138.71 99.93 133.60 96.94 131.02 92.53
  A 1.78 1.77 -58.0 0 1 130.78 91.47
  C 131.62 81.58 150.71 91.75 155.40 94.59
  Q 161.95 98.56 171.24 106.00
  Q 195.47 125.41 210.25 135.40
  C 220.20 142.13 226.04 148.27 233.84 157.30
  Q 235.32 159.02 237.79 159.97
  A 0.22 0.22 0.0 0 1 237.74 160.39
  Z"
/>
<path fill="#fffbb7" d="
  M 172.35 236.47
  Q 172.01 235.50 169.31 231.89
  C 165.23 226.43 163.41 220.20 162.60 212.43
  Q 161.08 197.88 164.61 184.07
  Q 166.38 177.18 167.60 172.86
  C 168.05 171.26 170.23 168.92 172.33 169.43
  C 175.83 170.27 175.79 177.09 175.56 179.82
  C 174.48 192.47 175.42 205.05 176.37 218.50
  Q 176.49 220.11 175.85 226.44
  A 1.76 1.72 -33.2 0 1 175.76 226.85
  L 172.71 236.46
  A 0.19 0.19 0.0 0 1 172.35 236.47
  Z"
/>
<path fill="#fffbb7" d="
  M 321.03 225.95
  C 315.47 221.17 313.32 213.77 313.64 206.87
  C 313.87 202.05 315.77 196.13 316.26 190.44
  C 316.48 187.85 317.35 184.19 319.57 182.47
  A 2.10 1.84 50.3 0 1 322.26 182.90
  C 323.79 184.67 324.12 186.57 324.53 188.87
  C 326.51 199.75 328.14 209.29 324.62 217.97
  Q 322.54 223.09 321.62 225.78
  A 0.37 0.37 0.0 0 1 321.03 225.95
  Z"
/>
<path fill="#fffbb7" d="
  M 447.84 349.71
  Q 448.30 351.92 446.06 354.34
  Q 441.31 359.45 434.26 359.68
  Q 399.26 360.83 373.23 363.88
  C 327.86 369.20 300.60 373.06 242.38 380.90
  Q 214.18 384.70 186.98 386.38
  Q 165.75 387.69 145.24 385.45
  C 138.93 384.77 132.11 382.85 125.99 380.37
  C 120.77 378.25 117.20 371.61 123.67 367.88
  Q 126.42 366.30 129.77 366.18
  Q 139.07 365.86 143.52 366.31
  C 161.88 368.14 177.06 368.15 196.28 366.78
  Q 215.36 365.42 239.71 362.11
  Q 292.44 354.94 344.96 348.16
  Q 372.59 344.59 396.57 342.62
  Q 418.85 340.79 434.03 341.09
  Q 442.60 341.26 447.44 348.74
  A 2.72 2.58 24.2 0 1 447.84 349.71
  Z"
/>
</svg>
