<?xml version="1.0" encoding="UTF-8" standalone="no"?>
<!DOCTYPE svg PUBLIC "-//W3C//DTD SVG 1.1//EN" "http://www.w3.org/Graphics/SVG/1.1/DTD/svg11.dtd">
<svg xmlns="http://www.w3.org/2000/svg" version="1.1" viewBox="0.00 0.00 256.00 256.00">
<g stroke-width="2.00" fill="none" stroke-linecap="butt">
<path stroke="#3a7d10" vector-effect="non-scaling-stroke" d="
  M 142.39 69.01
  C 146.17 73.83 152.33 75.48 158.48 75.43
  C 166.97 75.35 177.26 71.18 177.98 61.72
  Q 178.70 52.30 170.46 45.79
  Q 166.26 42.47 164.97 41.96
  Q 158.56 39.44 152.61 41.62
  C 141.95 45.52 134.63 59.11 142.39 69.01"
/>
<path stroke="#3a7d10" vector-effect="non-scaling-stroke" d="
  M 67.91 55.82
  Q 68.11 55.82 68.14 55.84
  A 0.43 0.43 0.0 0 1 68.25 56.50
  Q 66.38 58.63 65.87 62.52
  C 64.68 71.54 72.09 77.48 80.68 74.91
  C 90.24 72.05 97.31 59.93 89.12 51.44
  Q 82.97 45.08 73.06 47.07
  Q 66.05 48.49 67.45 55.44
  A 0.48 0.47 -4.4 0 0 67.91 55.82"
/>
<path stroke="#3a7d10" vector-effect="non-scaling-stroke" d="
  M 222.70 111.04
  C 221.47 113.17 217.57 114.95 215.55 116.50
  A 6.27 5.97 -1.1 0 0 214.55 117.49
  Q 194.07 143.52 189.18 149.43
  C 177.68 163.33 164.46 175.61 148.30 183.21
  C 129.36 192.12 109.38 192.21 92.00 181.24
  C 72.89 169.18 63.40 145.55 64.98 123.34
  Q 65.10 121.54 63.48 120.53
  C 60.79 118.86 58.57 121.56 57.62 123.89
  C 54.14 132.40 56.76 144.38 59.90 153.13
  C 67.94 175.58 83.75 191.73 107.39 197.25
  C 142.36 205.43 174.49 181.32 195.45 155.95
  Q 203.75 145.90 216.41 129.73
  Q 222.32 122.18 222.63 121.44
  Q 224.55 116.79 223.24 111.12
  A 0.29 0.29 0.0 0 0 222.70 111.04"
/>
<path stroke="#3a7d10" vector-effect="non-scaling-stroke" d="
  M 162.17 48.42
  A 1.42 1.42 0.0 0 0 161.02 48.06
  Q 155.28 48.86 151.61 52.60
  C 148.93 55.34 146.84 60.22 149.50 63.46
  C 154.09 69.07 172.58 68.55 169.78 58.31
  C 168.68 54.30 165.53 51.56 162.17 48.42"
/>
<path stroke="#3a7d10" vector-effect="non-scaling-stroke" d="
  M 79.98 56.65
  Q 75.92 59.06 74.82 63.38
  A 2.57 2.17 -74.9 0 0 76.22 66.37
  C 78.53 67.05 82.02 64.26 82.89 62.49
  C 84.06 60.13 83.39 57.39 80.94 56.55
  A 1.17 1.15 -50.6 0 0 79.98 56.65"
/>
</g>
<path fill="#004320" d="
  M 256.00 0.00
  L 256.00 256.00
  L 0.00 256.00
  L 0.00 0.00
  L 256.00 0.00
  Z
  M 142.39 69.01
  C 146.17 73.83 152.33 75.48 158.48 75.43
  C 166.97 75.35 177.26 71.18 177.98 61.72
  Q 178.70 52.30 170.46 45.79
  Q 166.26 42.47 164.97 41.96
  Q 158.56 39.44 152.61 41.62
  C 141.95 45.52 134.63 59.11 142.39 69.01
  Z
  M 67.91 55.82
  Q 68.11 55.82 68.14 55.84
  A 0.43 0.43 0.0 0 1 68.25 56.50
  Q 66.38 58.63 65.87 62.52
  C 64.68 71.54 72.09 77.48 80.68 74.91
  C 90.24 72.05 97.31 59.93 89.12 51.44
  Q 82.97 45.08 73.06 47.07
  Q 66.05 48.49 67.45 55.44
  A 0.48 0.47 -4.4 0 0 67.91 55.82
  Z
  M 222.70 111.04
  C 221.47 113.17 217.57 114.95 215.55 116.50
  A 6.27 5.97 -1.1 0 0 214.55 117.49
  Q 194.07 143.52 189.18 149.43
  C 177.68 163.33 164.46 175.61 148.30 183.21
  C 129.36 192.12 109.38 192.21 92.00 181.24
  C 72.89 169.18 63.40 145.55 64.98 123.34
  Q 65.10 121.54 63.48 120.53
  C 60.79 118.86 58.57 121.56 57.62 123.89
  C 54.14 132.40 56.76 144.38 59.90 153.13
  C 67.94 175.58 83.75 191.73 107.39 197.25
  C 142.36 205.43 174.49 181.32 195.45 155.95
  Q 203.75 145.90 216.41 129.73
  Q 222.32 122.18 222.63 121.44
  Q 224.55 116.79 223.24 111.12
  A 0.29 0.29 0.0 0 0 222.70 111.04
  Z"
/>
<path fill="#74b600" d="
  M 142.39 69.01
  C 134.63 59.11 141.95 45.52 152.61 41.62
  Q 158.56 39.44 164.97 41.96
  Q 166.26 42.47 170.46 45.79
  Q 178.70 52.30 177.98 61.72
  C 177.26 71.18 166.97 75.35 158.48 75.43
  C 152.33 75.48 146.17 73.83 142.39 69.01
  Z
  M 162.17 48.42
  A 1.42 1.42 0.0 0 0 161.02 48.06
  Q 155.28 48.86 151.61 52.60
  C 148.93 55.34 146.84 60.22 149.50 63.46
  C 154.09 69.07 172.58 68.55 169.78 58.31
  C 168.68 54.30 165.53 51.56 162.17 48.42
  Z"
/>
<path fill="#74b600" d="
  M 67.45 55.44
  Q 66.05 48.49 73.06 47.07
  Q 82.97 45.08 89.12 51.44
  C 97.31 59.93 90.24 72.05 80.68 74.91
  C 72.09 77.48 64.68 71.54 65.87 62.52
  Q 66.38 58.63 68.25 56.50
  A 0.43 0.43 0.0 0 0 68.14 55.84
  Q 68.11 55.82 67.91 55.82
  A 0.48 0.47 -4.4 0 1 67.45 55.44
  Z
  M 79.98 56.65
  Q 75.92 59.06 74.82 63.38
  A 2.57 2.17 -74.9 0 0 76.22 66.37
  C 78.53 67.05 82.02 64.26 82.89 62.49
  C 84.06 60.13 83.39 57.39 80.94 56.55
  A 1.17 1.15 -50.6 0 0 79.98 56.65
  Z"
/>
<path fill="#004320" d="
  M 162.17 48.42
  C 165.53 51.56 168.68 54.30 169.78 58.31
  C 172.58 68.55 154.09 69.07 149.50 63.46
  C 146.84 60.22 148.93 55.34 151.61 52.60
  Q 155.28 48.86 161.02 48.06
  A 1.42 1.42 0.0 0 1 162.17 48.42
  Z"
/>
<path fill="#004320" d="
  M 80.94 56.55
  C 83.39 57.39 84.06 60.13 82.89 62.49
  C 82.02 64.26 78.53 67.05 76.22 66.37
  A 2.57 2.17 -74.9 0 1 74.82 63.38
  Q 75.92 59.06 79.98 56.65
  A 1.17 1.15 -50.6 0 1 80.94 56.55
  Z"
/>
<path fill="#74b600" d="
  M 222.70 111.04
  A 0.29 0.29 0.0 0 1 223.24 111.12
  Q 224.55 116.79 222.63 121.44
  Q 222.32 122.18 216.41 129.73
  Q 203.75 145.90 195.45 155.95
  C 174.49 181.32 142.36 205.43 107.39 197.25
  C 83.75 191.73 67.94 175.58 59.90 153.13
  C 56.76 144.38 54.14 132.40 57.62 123.89
  C 58.57 121.56 60.79 118.86 63.48 120.53
  Q 65.10 121.54 64.98 123.34
  C 63.40 145.55 72.89 169.18 92.00 181.24
  C 109.38 192.21 129.36 192.12 148.30 183.21
  C 164.46 175.61 177.68 163.33 189.18 149.43
  Q 194.07 143.52 214.55 117.49
  A 6.27 5.97 -1.1 0 1 215.55 116.50
  C 217.57 114.95 221.47 113.17 222.70 111.04
  Z"
/>
</svg>
