<?xml version="1.0" encoding="UTF-8" standalone="no"?>
<!DOCTYPE svg PUBLIC "-//W3C//DTD SVG 1.1//EN" "http://www.w3.org/Graphics/SVG/1.1/DTD/svg11.dtd">
<svg xmlns="http://www.w3.org/2000/svg" version="1.1" viewBox="0.00 0.00 256.00 256.00">
<g stroke-width="2.00" fill="none" stroke-linecap="butt">
<path stroke="#80826c" vector-effect="non-scaling-stroke" d="
  M 52.04 69.97
  C 51.48 67.22 50.15 65.42 48.82 63.13
  Q 43.70 54.28 39.30 48.23
  C 36.79 44.78 31.97 46.62 33.32 50.74
  C 35.03 55.95 42.33 72.10 48.87 74.69
  A 0.57 0.56 -65.5 0 1 49.16 75.47
  C 42.52 88.36 38.39 108.25 53.76 117.32
  C 63.75 123.22 79.53 121.34 89.75 116.65
  C 103.32 110.43 111.13 98.97 106.55 84.21
  Q 103.38 74.03 92.40 67.41
  A 0.54 0.54 0.0 0 1 92.19 66.70
  Q 92.66 65.76 93.04 64.40
  Q 94.79 58.11 96.01 46.01
  Q 96.24 43.71 95.41 41.74
  A 1.86 1.77 67.3 0 0 93.06 40.71
  C 88.17 42.74 84.83 59.44 84.41 63.93
  A 0.52 0.50 6.9 0 1 83.82 64.38
  L 81.00 63.94
  A 2.22 2.22 0.0 0 1 79.92 63.44
  Q 77.03 61.00 72.81 60.48
  A 0.75 0.73 0.1 0 1 72.16 59.84
  Q 71.16 51.63 68.95 43.59
  C 68.35 41.41 66.87 37.13 64.00 38.16
  C 61.27 39.13 61.85 43.52 62.08 45.97
  Q 62.70 52.61 64.56 60.55
  A 0.55 0.55 0.0 0 1 64.21 61.18
  Q 57.17 63.67 52.56 70.08
  A 0.29 0.29 0.0 0 1 52.04 69.97"
/>
<path stroke="#80826c" vector-effect="non-scaling-stroke" d="
  M 155.62 68.75
  Q 157.75 66.38 157.12 63.89
  Q 156.34 60.79 149.77 46.46
  C 148.40 43.47 147.23 41.26 144.23 40.59
  C 141.84 40.06 140.22 43.33 140.69 45.01
  Q 142.87 52.81 148.29 65.12
  Q 150.19 69.43 154.78 69.15
  A 1.25 1.24 -70.3 0 0 155.62 68.75"
/>
<path stroke="#80826c" vector-effect="non-scaling-stroke" d="
  M 176.07 66.04
  L 176.52 64.13
  A 4.30 4.12 -40.2 0 0 176.64 62.98
  Q 176.49 54.89 176.33 49.10
  C 176.27 46.80 175.59 44.99 173.97 43.51
  A 2.96 2.86 49.4 0 0 170.41 43.17
  Q 168.11 44.67 167.77 47.85
  Q 166.85 56.39 167.91 63.98
  A 0.54 0.54 0.0 0 1 167.44 64.59
  Q 162.86 65.21 161.01 66.02
  Q 149.57 71.02 144.95 81.75
  C 141.45 89.89 141.51 98.80 147.20 105.72
  C 160.38 121.77 197.85 116.66 200.60 93.61
  Q 201.70 84.49 197.45 76.53
  Q 196.98 75.67 195.27 72.95
  A 0.87 0.87 0.0 0 1 195.26 72.06
  C 200.01 63.74 203.58 58.27 206.28 50.52
  Q 207.01 48.42 206.62 46.19
  A 1.43 1.39 -75.7 0 0 206.13 45.34
  Q 203.86 43.45 201.94 45.21
  Q 199.05 47.83 195.56 53.55
  Q 191.08 60.89 188.17 66.40
  A 0.71 0.70 24.4 0 1 187.28 66.73
  Q 182.09 64.58 176.63 66.54
  A 0.43 0.42 -3.1 0 1 176.07 66.04"
/>
<path stroke="#80826c" vector-effect="non-scaling-stroke" d="
  M 161.01 165.67
  Q 158.20 166.73 157.53 167.04
  Q 139.58 175.28 115.16 185.42
  Q 111.98 186.74 110.87 190.79
  A 1.63 1.63 0.0 0 0 111.60 192.62
  Q 115.07 194.70 118.04 193.69
  Q 127.83 190.37 142.07 183.80
  Q 156.99 176.91 172.66 170.44
  Q 177.38 168.49 176.70 163.77
  C 176.13 159.77 170.22 158.38 166.53 157.43
  Q 161.92 156.25 150.03 153.63
  C 137.46 150.86 126.16 147.21 114.25 143.77
  Q 105.71 141.29 100.77 141.03
  C 96.53 140.80 95.50 146.31 99.74 147.77
  Q 110.24 151.39 118.89 154.31
  Q 140.01 161.41 160.97 165.21
  A 0.24 0.24 0.0 0 1 161.01 165.67"
/>
<path stroke="#80826c" vector-effect="non-scaling-stroke" d="
  M 67.74 69.51
  Q 62.79 71.01 59.57 75.67
  C 54.12 83.53 46.36 104.27 59.42 110.08
  C 72.28 115.81 103.66 107.43 98.41 88.56
  C 95.57 78.38 88.41 74.15 78.27 72.66
  A 6.10 5.90 61.7 0 1 76.38 72.06
  Q 73.80 70.76 68.76 69.49
  A 1.95 1.91 -45.6 0 0 67.74 69.51"
/>
<path stroke="#80826c" vector-effect="non-scaling-stroke" d="
  M 180.05 73.42
  L 179.46 77.16
  A 0.67 0.67 0.0 0 1 178.16 77.23
  C 177.67 75.42 175.78 74.85 173.69 74.31
  C 164.06 71.84 155.93 77.77 152.82 86.50
  C 148.52 98.60 156.59 104.71 167.68 106.17
  Q 177.24 107.43 185.65 102.48
  C 195.18 96.88 194.54 85.54 187.76 78.21
  Q 186.03 76.34 180.57 73.17
  A 0.35 0.35 0.0 0 0 180.05 73.42"
/>
</g>
<path fill="#ff9e22" d="
  M 256.00 0.00
  L 256.00 256.00
  L 0.00 256.00
  L 0.00 0.00
  L 256.00 0.00
  Z
  M 52.04 69.97
  C 51.48 67.22 50.15 65.42 48.82 63.13
  Q 43.70 54.28 39.30 48.23
  C 36.79 44.78 31.97 46.62 33.32 50.74
  C 35.03 55.95 42.33 72.10 48.87 74.69
  A 0.57 0.56 -65.5 0 1 49.16 75.47
  C 42.52 88.36 38.39 108.25 53.76 117.32
  C 63.75 123.22 79.53 121.34 89.75 116.65
  C 103.32 110.43 111.13 98.97 106.55 84.21
  Q 103.38 74.03 92.40 67.41
  A 0.54 0.54 0.0 0 1 92.19 66.70
  Q 92.66 65.76 93.04 64.40
  Q 94.79 58.11 96.01 46.01
  Q 96.24 43.71 95.41 41.74
  A 1.86 1.77 67.3 0 0 93.06 40.71
  C 88.17 42.74 84.83 59.44 84.41 63.93
  A 0.52 0.50 6.9 0 1 83.82 64.38
  L 81.00 63.94
  A 2.22 2.22 0.0 0 1 79.92 63.44
  Q 77.03 61.00 72.81 60.48
  A 0.75 0.73 0.1 0 1 72.16 59.84
  Q 71.16 51.63 68.95 43.59
  C 68.35 41.41 66.87 37.13 64.00 38.16
  C 61.27 39.13 61.85 43.52 62.08 45.97
  Q 62.70 52.61 64.56 60.55
  A 0.55 0.55 0.0 0 1 64.21 61.18
  Q 57.17 63.67 52.56 70.08
  A 0.29 0.29 0.0 0 1 52.04 69.97
  Z
  M 155.62 68.75
  Q 157.75 66.38 157.12 63.89
  Q 156.34 60.79 149.77 46.46
  C 148.40 43.47 147.23 41.26 144.23 40.59
  C 141.84 40.06 140.22 43.33 140.69 45.01
  Q 142.87 52.81 148.29 65.12
  Q 150.19 69.43 154.78 69.15
  A 1.25 1.24 -70.3 0 0 155.62 68.75
  Z
  M 176.07 66.04
  L 176.52 64.13
  A 4.30 4.12 -40.2 0 0 176.64 62.98
  Q 176.49 54.89 176.33 49.10
  C 176.27 46.80 175.59 44.99 173.97 43.51
  A 2.96 2.86 49.4 0 0 170.41 43.17
  Q 168.11 44.67 167.77 47.85
  Q 166.85 56.39 167.91 63.98
  A 0.54 0.54 0.0 0 1 167.44 64.59
  Q 162.86 65.21 161.01 66.02
  Q 149.57 71.02 144.95 81.75
  C 141.45 89.89 141.51 98.80 147.20 105.72
  C 160.38 121.77 197.85 116.66 200.60 93.61
  Q 201.70 84.49 197.45 76.53
  Q 196.98 75.67 195.27 72.95
  A 0.87 0.87 0.0 0 1 195.26 72.06
  C 200.01 63.74 203.58 58.27 206.28 50.52
  Q 207.01 48.42 206.62 46.19
  A 1.43 1.39 -75.7 0 0 206.13 45.34
  Q 203.86 43.45 201.94 45.21
  Q 199.05 47.83 195.56 53.55
  Q 191.08 60.89 188.17 66.40
  A 0.71 0.70 24.4 0 1 187.28 66.73
  Q 182.09 64.58 176.63 66.54
  A 0.43 0.42 -3.1 0 1 176.07 66.04
  Z
  M 161.01 165.67
  Q 158.20 166.73 157.53 167.04
  Q 139.58 175.28 115.16 185.42
  Q 111.98 186.74 110.87 190.79
  A 1.63 1.63 0.0 0 0 111.60 192.62
  Q 115.07 194.70 118.04 193.69
  Q 127.83 190.37 142.07 183.80
  Q 156.99 176.91 172.66 170.44
  Q 177.38 168.49 176.70 163.77
  C 176.13 159.77 170.22 158.38 166.53 157.43
  Q 161.92 156.25 150.03 153.63
  C 137.46 150.86 126.16 147.21 114.25 143.77
  Q 105.71 141.29 100.77 141.03
  C 96.53 140.80 95.50 146.31 99.74 147.77
  Q 110.24 151.39 118.89 154.31
  Q 140.01 161.41 160.97 165.21
  A 0.24 0.24 0.0 0 1 161.01 165.67
  Z"
/>
<path fill="#0065b6" d="
  M 52.04 69.97
  A 0.29 0.29 0.0 0 0 52.56 70.08
  Q 57.17 63.67 64.21 61.18
  A 0.55 0.55 0.0 0 0 64.56 60.55
  Q 62.70 52.61 62.08 45.97
  C 61.85 43.52 61.27 39.13 64.00 38.16
  C 66.87 37.13 68.35 41.41 68.95 43.59
  Q 71.16 51.63 72.16 59.84
  A 0.75 0.73 0.1 0 0 72.81 60.48
  Q 77.03 61.00 79.92 63.44
  A 2.22 2.22 0.0 0 0 81.00 63.94
  L 83.82 64.38
  A 0.52 0.50 6.9 0 0 84.41 63.93
  C 84.83 59.44 88.17 42.74 93.06 40.71
  A 1.86 1.77 67.3 0 1 95.41 41.74
  Q 96.24 43.71 96.01 46.01
  Q 94.79 58.11 93.04 64.40
  Q 92.66 65.76 92.19 66.70
  A 0.54 0.54 0.0 0 0 92.40 67.41
  Q 103.38 74.03 106.55 84.21
  C 111.13 98.97 103.32 110.43 89.75 116.65
  C 79.53 121.34 63.75 123.22 53.76 117.32
  C 38.39 108.25 42.52 88.36 49.16 75.47
  A 0.57 0.56 -65.5 0 0 48.87 74.69
  C 42.33 72.10 35.03 55.95 33.32 50.74
  C 31.97 46.62 36.79 44.78 39.30 48.23
  Q 43.70 54.28 48.82 63.13
  C 50.15 65.42 51.48 67.22 52.04 69.97
  Z
  M 67.74 69.51
  Q 62.79 71.01 59.57 75.67
  C 54.12 83.53 46.36 104.27 59.42 110.08
  C 72.28 115.81 103.66 107.43 98.41 88.56
  C 95.57 78.38 88.41 74.15 78.27 72.66
  A 6.10 5.90 61.7 0 1 76.38 72.06
  Q 73.80 70.76 68.76 69.49
  A 1.95 1.91 -45.6 0 0 67.74 69.51
  Z"
/>
<path fill="#0065b6" d="
  M 154.78 69.15
  Q 150.19 69.43 148.29 65.12
  Q 142.87 52.81 140.69 45.01
  C 140.22 43.33 141.84 40.06 144.23 40.59
  C 147.23 41.26 148.40 43.47 149.77 46.46
  Q 156.34 60.79 157.12 63.89
  Q 157.75 66.38 155.62 68.75
  A 1.25 1.24 -70.3 0 1 154.78 69.15
  Z"
/>
<path fill="#0065b6" d="
  M 176.07 66.04
  A 0.43 0.42 -3.1 0 0 176.63 66.54
  Q 182.09 64.58 187.28 66.73
  A 0.71 0.70 24.4 0 0 188.17 66.40
  Q 191.08 60.89 195.56 53.55
  Q 199.05 47.83 201.94 45.21
  Q 203.86 43.45 206.13 45.34
  A 1.43 1.39 -75.7 0 1 206.62 46.19
  Q 207.01 48.42 206.28 50.52
  C 203.58 58.27 200.01 63.74 195.26 72.06
  A 0.87 0.87 0.0 0 0 195.27 72.95
  Q 196.98 75.67 197.45 76.53
  Q 201.70 84.49 200.60 93.61
  C 197.85 116.66 160.38 121.77 147.20 105.72
  C 141.51 98.80 141.45 89.89 144.95 81.75
  Q 149.57 71.02 161.01 66.02
  Q 162.86 65.21 167.44 64.59
  A 0.54 0.54 0.0 0 0 167.91 63.98
  Q 166.85 56.39 167.77 47.85
  Q 168.11 44.67 170.41 43.17
  A 2.96 2.86 49.4 0 1 173.97 43.51
  C 175.59 44.99 176.27 46.80 176.33 49.10
  Q 176.49 54.89 176.64 62.98
  A 4.30 4.12 -40.2 0 1 176.52 64.13
  L 176.07 66.04
  Z
  M 180.05 73.42
  L 179.46 77.16
  A 0.67 0.67 0.0 0 1 178.16 77.23
  C 177.67 75.42 175.78 74.85 173.69 74.31
  C 164.06 71.84 155.93 77.77 152.82 86.50
  C 148.52 98.60 156.59 104.71 167.68 106.17
  Q 177.24 107.43 185.65 102.48
  C 195.18 96.88 194.54 85.54 187.76 78.21
  Q 186.03 76.34 180.57 73.17
  A 0.35 0.35 0.0 0 0 180.05 73.42
  Z"
/>
<path fill="#ff9e22" d="
  M 68.76 69.49
  Q 73.80 70.76 76.38 72.06
  A 6.10 5.90 61.7 0 0 78.27 72.66
  C 88.41 74.15 95.57 78.38 98.41 88.56
  C 103.66 107.43 72.28 115.81 59.42 110.08
  C 46.36 104.27 54.12 83.53 59.57 75.67
  Q 62.79 71.01 67.74 69.51
  A 1.95 1.91 -45.6 0 1 68.76 69.49
  Z"
/>
<path fill="#ff9e22" d="
  M 180.57 73.17
  Q 186.03 76.34 187.76 78.21
  C 194.54 85.54 195.18 96.88 185.65 102.48
  Q 177.24 107.43 167.68 106.17
  C 156.59 104.71 148.52 98.60 152.82 86.50
  C 155.93 77.77 164.06 71.84 173.69 74.31
  C 175.78 74.85 177.67 75.42 178.16 77.23
  A 0.67 0.67 0.0 0 0 179.46 77.16
  L 180.05 73.42
  A 0.35 0.35 0.0 0 1 180.57 73.17
  Z"
/>
<path fill="#0065b6" d="
  M 161.01 165.67
  A 0.24 0.24 0.0 0 0 160.97 165.21
  Q 140.01 161.41 118.89 154.31
  Q 110.24 151.39 99.74 147.77
  C 95.50 146.31 96.53 140.80 100.77 141.03
  Q 105.71 141.29 114.25 143.77
  C 126.16 147.21 137.46 150.86 150.03 153.63
  Q 161.92 156.25 166.53 157.43
  C 170.22 158.38 176.13 159.77 176.70 163.77
  Q 177.38 168.49 172.66 170.44
  Q 156.99 176.91 142.07 183.80
  Q 127.83 190.37 118.04 193.69
  Q 115.07 194.70 111.60 192.62
  A 1.63 1.63 0.0 0 1 110.87 190.79
  Q 111.98 186.74 115.16 185.42
  Q 139.58 175.28 157.53 167.04
  Q 158.20 166.73 161.01 165.67
  Z"
/>
</svg>
