<?xml version="1.0" encoding="UTF-8" standalone="no"?>
<!DOCTYPE svg PUBLIC "-//W3C//DTD SVG 1.1//EN" "http://www.w3.org/Graphics/SVG/1.1/DTD/svg11.dtd">
<svg xmlns="http://www.w3.org/2000/svg" version="1.1" viewBox="0.00 0.00 256.00 256.00">
<g stroke-width="2.00" fill="none" stroke-linecap="butt">
<path stroke="#80486f" vector-effect="non-scaling-stroke" d="
  M 177.26 41.98
  L 164.63 53.47
  A 0.26 0.26 0.0 0 1 164.28 53.47
  Q 160.22 49.64 155.41 46.67
  C 152.88 45.12 150.63 46.41 150.92 49.23
  C 151.33 53.22 155.22 57.73 158.28 60.03
  A 0.90 0.90 0.0 0 1 158.43 61.33
  Q 153.13 67.54 148.54 73.77
  C 146.00 77.23 140.40 85.23 145.18 88.09
  C 146.88 89.11 149.35 87.41 150.24 86.23
  Q 157.65 76.41 165.24 67.15
  A 0.96 0.95 -52.9 0 1 166.52 66.97
  L 176.37 73.90
  A 8.68 8.67 67.0 0 0 180.06 75.39
  L 189.12 76.80
  A 0.27 0.27 0.0 0 0 189.36 76.34
  C 186.45 73.30 184.35 68.75 180.77 66.15
  Q 173.67 60.99 172.13 59.85
  A 0.59 0.58 38.6 0 1 172.03 58.99
  C 175.82 54.63 179.10 48.22 177.95 42.22
  A 0.42 0.42 0.0 0 0 177.26 41.98"
/>
<path stroke="#80486f" vector-effect="non-scaling-stroke" d="
  M 88.74 82.56
  Q 87.23 81.22 86.73 80.60
  C 82.23 74.97 79.12 70.82 73.72 68.41
  A 0.61 0.61 0.0 0 1 73.46 67.52
  Q 77.25 61.83 79.90 56.42
  C 81.61 52.90 81.90 46.48 76.99 45.47
  A 0.29 0.28 10.7 0 0 76.65 45.70
  L 76.57 46.25
  A 0.76 0.73 -17.4 0 1 76.33 46.69
  Q 73.37 49.41 72.55 51.05
  Q 69.34 57.48 65.57 63.25
  A 0.74 0.74 0.0 0 1 64.66 63.53
  L 47.27 56.37
  A 4.59 4.58 -67.6 0 0 41.29 58.86
  L 41.26 58.94
  A 4.57 4.56 -68.9 0 0 43.82 64.74
  L 59.09 70.94
  A 0.67 0.67 0.0 0 1 59.35 71.99
  C 57.23 74.49 47.10 86.84 47.65 90.41
  C 48.13 93.47 51.49 94.85 53.75 92.53
  Q 60.95 85.12 67.33 76.11
  A 1.00 0.99 -56.6 0 1 68.66 75.83
  C 71.82 77.70 74.86 79.22 78.86 80.07
  Q 85.13 81.40 88.60 82.78
  A 0.13 0.13 0.0 0 0 88.74 82.56"
/>
<path stroke="#80486f" vector-effect="non-scaling-stroke" d="
  M 202.85 201.35
  C 216.26 197.04 229.53 188.89 235.16 176.36
  Q 243.41 158.01 233.31 140.17
  Q 222.02 120.26 198.97 113.09
  C 191.42 110.75 182.46 110.12 175.41 113.82
  Q 172.93 115.12 169.46 116.33
  C 147.61 123.98 125.93 142.03 123.61 166.51
  C 122.74 175.67 124.93 186.06 130.97 193.21
  C 147.54 212.83 181.27 208.29 202.85 201.35"
/>
<path stroke="#80486f" vector-effect="non-scaling-stroke" d="
  M 199.36 123.15
  Q 189.67 118.51 179.49 121.27
  C 159.05 126.82 135.51 143.31 132.79 166.00
  C 130.38 186.14 143.42 196.95 162.30 197.91
  Q 185.72 199.10 207.24 189.98
  C 221.03 184.15 231.00 172.85 229.61 157.43
  C 228.41 144.05 217.64 131.77 205.77 125.50
  Q 202.06 123.54 200.19 123.38
  A 2.45 2.32 -28.0 0 1 199.36 123.15"
/>
</g>
<path fill="#0065b6" d="
  M 256.00 0.00
  L 256.00 256.00
  L 0.00 256.00
  L 0.00 0.00
  L 256.00 0.00
  Z
  M 177.26 41.98
  L 164.63 53.47
  A 0.26 0.26 0.0 0 1 164.28 53.47
  Q 160.22 49.64 155.41 46.67
  C 152.88 45.12 150.63 46.41 150.92 49.23
  C 151.33 53.22 155.22 57.73 158.28 60.03
  A 0.90 0.90 0.0 0 1 158.43 61.33
  Q 153.13 67.54 148.54 73.77
  C 146.00 77.23 140.40 85.23 145.18 88.09
  C 146.88 89.11 149.35 87.41 150.24 86.23
  Q 157.65 76.41 165.24 67.15
  A 0.96 0.95 -52.9 0 1 166.52 66.97
  L 176.37 73.90
  A 8.68 8.67 67.0 0 0 180.06 75.39
  L 189.12 76.80
  A 0.27 0.27 0.0 0 0 189.36 76.34
  C 186.45 73.30 184.35 68.75 180.77 66.15
  Q 173.67 60.99 172.13 59.85
  A 0.59 0.58 38.6 0 1 172.03 58.99
  C 175.82 54.63 179.10 48.22 177.95 42.22
  A 0.42 0.42 0.0 0 0 177.26 41.98
  Z
  M 88.74 82.56
  Q 87.23 81.22 86.73 80.60
  C 82.23 74.97 79.12 70.82 73.72 68.41
  A 0.61 0.61 0.0 0 1 73.46 67.52
  Q 77.25 61.83 79.90 56.42
  C 81.61 52.90 81.90 46.48 76.99 45.47
  A 0.29 0.28 10.7 0 0 76.65 45.70
  L 76.57 46.25
  A 0.76 0.73 -17.4 0 1 76.33 46.69
  Q 73.37 49.41 72.55 51.05
  Q 69.34 57.48 65.57 63.25
  A 0.74 0.74 0.0 0 1 64.66 63.53
  L 47.27 56.37
  A 4.59 4.58 -67.6 0 0 41.29 58.86
  L 41.26 58.94
  A 4.57 4.56 -68.9 0 0 43.82 64.74
  L 59.09 70.94
  A 0.67 0.67 0.0 0 1 59.35 71.99
  C 57.23 74.49 47.10 86.84 47.65 90.41
  C 48.13 93.47 51.49 94.85 53.75 92.53
  Q 60.95 85.12 67.33 76.11
  A 1.00 0.99 -56.6 0 1 68.66 75.83
  C 71.82 77.70 74.86 79.22 78.86 80.07
  Q 85.13 81.40 88.60 82.78
  A 0.13 0.13 0.0 0 0 88.74 82.56
  Z
  M 202.85 201.35
  C 216.26 197.04 229.53 188.89 235.16 176.36
  Q 243.41 158.01 233.31 140.17
  Q 222.02 120.26 198.97 113.09
  C 191.42 110.75 182.46 110.12 175.41 113.82
  Q 172.93 115.12 169.46 116.33
  C 147.61 123.98 125.93 142.03 123.61 166.51
  C 122.74 175.67 124.93 186.06 130.97 193.21
  C 147.54 212.83 181.27 208.29 202.85 201.35
  Z"
/>
<path fill="#ff2b28" d="
  M 177.26 41.98
  A 0.42 0.42 0.0 0 1 177.95 42.22
  C 179.10 48.22 175.82 54.63 172.03 58.99
  A 0.59 0.58 38.6 0 0 172.13 59.85
  Q 173.67 60.99 180.77 66.15
  C 184.35 68.75 186.45 73.30 189.36 76.34
  A 0.27 0.27 0.0 0 1 189.12 76.80
  L 180.06 75.39
  A 8.68 8.67 67.0 0 1 176.37 73.90
  L 166.52 66.97
  A 0.96 0.95 -52.9 0 0 165.24 67.15
  Q 157.65 76.41 150.24 86.23
  C 149.35 87.41 146.88 89.11 145.18 88.09
  C 140.40 85.23 146.00 77.23 148.54 73.77
  Q 153.13 67.54 158.43 61.33
  A 0.90 0.90 0.0 0 0 158.28 60.03
  C 155.22 57.73 151.33 53.22 150.92 49.23
  C 150.63 46.41 152.88 45.12 155.41 46.67
  Q 160.22 49.64 164.28 53.47
  A 0.26 0.26 0.0 0 0 164.63 53.47
  L 177.26 41.98
  Z"
/>
<path fill="#ff2b28" d="
  M 88.60 82.78
  Q 85.13 81.40 78.86 80.07
  C 74.86 79.22 71.82 77.70 68.66 75.83
  A 1.00 0.99 -56.6 0 0 67.33 76.11
  Q 60.95 85.12 53.75 92.53
  C 51.49 94.85 48.13 93.47 47.65 90.41
  C 47.10 86.84 57.23 74.49 59.35 71.99
  A 0.67 0.67 0.0 0 0 59.09 70.94
  L 43.82 64.74
  A 4.57 4.56 -68.9 0 1 41.26 58.94
  L 41.29 58.86
  A 4.59 4.58 -67.6 0 1 47.27 56.37
  L 64.66 63.53
  A 0.74 0.74 0.0 0 0 65.57 63.25
  Q 69.34 57.48 72.55 51.05
  Q 73.37 49.41 76.33 46.69
  A 0.76 0.73 -17.4 0 0 76.57 46.25
  L 76.65 45.70
  A 0.29 0.28 10.7 0 1 76.99 45.47
  C 81.90 46.48 81.61 52.90 79.90 56.42
  Q 77.25 61.83 73.46 67.52
  A 0.61 0.61 0.0 0 0 73.72 68.41
  C 79.12 70.82 82.23 74.97 86.73 80.60
  Q 87.23 81.22 88.74 82.56
  A 0.13 0.13 0.0 0 1 88.60 82.78
  Z"
/>
<path fill="#ff2b28" d="
  M 235.16 176.36
  C 229.53 188.89 216.26 197.04 202.85 201.35
  C 181.27 208.29 147.54 212.83 130.97 193.21
  C 124.93 186.06 122.74 175.67 123.61 166.51
  C 125.93 142.03 147.61 123.98 169.46 116.33
  Q 172.93 115.12 175.41 113.82
  C 182.46 110.12 191.42 110.75 198.97 113.09
  Q 222.02 120.26 233.31 140.17
  Q 243.41 158.01 235.16 176.36
  Z
  M 199.36 123.15
  Q 189.67 118.51 179.49 121.27
  C 159.05 126.82 135.51 143.31 132.79 166.00
  C 130.38 186.14 143.42 196.95 162.30 197.91
  Q 185.72 199.10 207.24 189.98
  C 221.03 184.15 231.00 172.85 229.61 157.43
  C 228.41 144.05 217.64 131.77 205.77 125.50
  Q 202.06 123.54 200.19 123.38
  A 2.45 2.32 -28.0 0 1 199.36 123.15
  Z"
/>
<path fill="#0065b6" d="
  M 200.19 123.38
  Q 202.06 123.54 205.77 125.50
  C 217.64 131.77 228.41 144.05 229.61 157.43
  C 231.00 172.85 221.03 184.15 207.24 189.98
  Q 185.72 199.10 162.30 197.91
  C 143.42 196.95 130.38 186.14 132.79 166.00
  C 135.51 143.31 159.05 126.82 179.49 121.27
  Q 189.67 118.51 199.36 123.15
  A 2.45 2.32 -28.0 0 0 200.19 123.38
  Z"
/>
</svg>
