<?xml version="1.0" encoding="UTF-8" standalone="no"?>
<!DOCTYPE svg PUBLIC "-//W3C//DTD SVG 1.1//EN" "http://www.w3.org/Graphics/SVG/1.1/DTD/svg11.dtd">
<svg xmlns="http://www.w3.org/2000/svg" version="1.1" viewBox="0.00 0.00 256.00 256.00">
<g stroke-width="2.00" fill="none" stroke-linecap="butt">
<path stroke="#664318" vector-effect="non-scaling-stroke" d="
  M 193.19 80.63
  Q 194.48 91.98 195.13 102.93
  Q 197.39 141.02 199.42 180.18
  C 200.15 194.39 200.94 205.28 206.98 216.32
  Q 207.98 218.15 209.08 218.89
  A 1.72 1.71 -52.8 0 0 211.33 218.58
  C 217.48 211.44 218.21 200.70 217.66 191.25
  Q 214.05 128.96 212.84 110.23
  C 211.25 85.50 207.85 59.10 201.08 33.79
  C 200.15 30.32 198.72 28.19 195.66 26.82
  C 190.75 24.60 185.33 28.31 184.76 33.29
  Q 180.64 68.93 170.53 103.52
  Q 168.62 110.03 166.49 115.27
  A 1.45 1.45 0.0 0 1 165.21 116.17
  C 158.20 116.49 151.94 116.85 144.93 118.49
  Q 127.72 122.52 105.75 125.24
  Q 97.10 126.32 89.73 126.34
  A 0.75 0.74 79.9 0 1 89.03 125.85
  Q 76.46 91.36 61.36 54.31
  A 5.66 5.57 -57.8 0 1 60.94 52.39
  C 60.83 49.27 61.91 45.26 60.89 42.67
  C 58.74 37.24 51.76 37.58 49.51 42.79
  Q 46.40 49.99 44.24 59.49
  Q 39.89 78.56 37.60 99.88
  Q 33.76 135.50 32.18 173.75
  Q 31.35 193.82 34.31 212.48
  Q 35.05 217.14 36.54 221.02
  A 2.23 2.10 -80.6 0 0 37.07 221.81
  C 41.02 225.55 44.22 221.40 44.64 217.66
  C 45.24 212.18 44.81 204.52 45.23 197.44
  C 47.74 155.41 49.75 118.25 55.30 79.46
  A 0.26 0.26 0.0 0 1 55.80 79.42
  Q 62.76 99.76 69.50 118.48
  C 74.58 132.60 78.30 142.36 87.94 151.55
  A 0.90 0.89 29.3 0 0 89.42 151.14
  L 91.77 142.66
  A 0.33 0.33 0.0 0 1 92.11 142.42
  Q 106.09 143.35 114.51 142.74
  Q 131.04 141.56 151.86 136.14
  Q 156.95 134.81 163.62 129.90
  A 0.58 0.57 52.0 0 1 164.41 130.00
  C 167.24 133.55 171.92 134.09 175.24 130.82
  Q 176.51 129.58 178.08 126.05
  Q 187.33 105.24 192.98 80.62
  A 0.11 0.11 0.0 0 1 193.19 80.63"
/>
<path stroke="#664318" vector-effect="non-scaling-stroke" d="
  M 144.89 193.91
  C 150.65 193.74 154.80 186.22 153.28 181.07
  Q 152.47 178.30 151.50 173.56
  A 2.57 2.55 -66.6 0 0 151.17 172.72
  Q 148.74 168.74 144.04 169.36
  A 2.68 2.57 -62.9 0 0 143.06 169.70
  Q 138.36 172.44 137.59 173.71
  Q 133.84 179.92 135.39 186.85
  A 3.37 3.35 23.0 0 0 135.78 187.81
  C 137.35 190.49 141.33 194.02 144.89 193.91"
/>
<path stroke="#664318" vector-effect="non-scaling-stroke" d="
  M 95.52 176.77
  Q 92.94 177.01 92.00 178.06
  Q 87.65 182.95 90.31 189.25
  Q 92.17 193.66 96.76 193.90
  C 104.15 194.29 107.05 188.62 104.97 182.07
  Q 103.88 178.64 100.35 177.68
  Q 96.64 176.66 95.52 176.77"
/>
</g>
<path fill="#0f172a" d="
  M 256.00 0.00
  L 256.00 256.00
  L 0.00 256.00
  L 0.00 0.00
  L 256.00 0.00
  Z
  M 193.19 80.63
  Q 194.48 91.98 195.13 102.93
  Q 197.39 141.02 199.42 180.18
  C 200.15 194.39 200.94 205.28 206.98 216.32
  Q 207.98 218.15 209.08 218.89
  A 1.72 1.71 -52.8 0 0 211.33 218.58
  C 217.48 211.44 218.21 200.70 217.66 191.25
  Q 214.05 128.96 212.84 110.23
  C 211.25 85.50 207.85 59.10 201.08 33.79
  C 200.15 30.32 198.72 28.19 195.66 26.82
  C 190.75 24.60 185.33 28.31 184.76 33.29
  Q 180.64 68.93 170.53 103.52
  Q 168.62 110.03 166.49 115.27
  A 1.45 1.45 0.0 0 1 165.21 116.17
  C 158.20 116.49 151.94 116.85 144.93 118.49
  Q 127.72 122.52 105.75 125.24
  Q 97.10 126.32 89.73 126.34
  A 0.75 0.74 79.9 0 1 89.03 125.85
  Q 76.46 91.36 61.36 54.31
  A 5.66 5.57 -57.8 0 1 60.94 52.39
  C 60.83 49.27 61.91 45.26 60.89 42.67
  C 58.74 37.24 51.76 37.58 49.51 42.79
  Q 46.40 49.99 44.24 59.49
  Q 39.89 78.56 37.60 99.88
  Q 33.76 135.50 32.18 173.75
  Q 31.35 193.82 34.31 212.48
  Q 35.05 217.14 36.54 221.02
  A 2.23 2.10 -80.6 0 0 37.07 221.81
  C 41.02 225.55 44.22 221.40 44.64 217.66
  C 45.24 212.18 44.81 204.52 45.23 197.44
  C 47.74 155.41 49.75 118.25 55.30 79.46
  A 0.26 0.26 0.0 0 1 55.80 79.42
  Q 62.76 99.76 69.50 118.48
  C 74.58 132.60 78.30 142.36 87.94 151.55
  A 0.90 0.89 29.3 0 0 89.42 151.14
  L 91.77 142.66
  A 0.33 0.33 0.0 0 1 92.11 142.42
  Q 106.09 143.35 114.51 142.74
  Q 131.04 141.56 151.86 136.14
  Q 156.95 134.81 163.62 129.90
  A 0.58 0.57 52.0 0 1 164.41 130.00
  C 167.24 133.55 171.92 134.09 175.24 130.82
  Q 176.51 129.58 178.08 126.05
  Q 187.33 105.24 192.98 80.62
  A 0.11 0.11 0.0 0 1 193.19 80.63
  Z
  M 144.89 193.91
  C 150.65 193.74 154.80 186.22 153.28 181.07
  Q 152.47 178.30 151.50 173.56
  A 2.57 2.55 -66.6 0 0 151.17 172.72
  Q 148.74 168.74 144.04 169.36
  A 2.68 2.57 -62.9 0 0 143.06 169.70
  Q 138.36 172.44 137.59 173.71
  Q 133.84 179.92 135.39 186.85
  A 3.37 3.35 23.0 0 0 135.78 187.81
  C 137.35 190.49 141.33 194.02 144.89 193.91
  Z
  M 95.52 176.77
  Q 92.94 177.01 92.00 178.06
  Q 87.65 182.95 90.31 189.25
  Q 92.17 193.66 96.76 193.90
  C 104.15 194.29 107.05 188.62 104.97 182.07
  Q 103.88 178.64 100.35 177.68
  Q 96.64 176.66 95.52 176.77
  Z"
/>
<path fill="#bd6e05" d="
  M 192.98 80.62
  Q 187.33 105.24 178.08 126.05
  Q 176.51 129.58 175.24 130.82
  C 171.92 134.09 167.24 133.55 164.41 130.00
  A 0.58 0.57 52.0 0 0 163.62 129.90
  Q 156.95 134.81 151.86 136.14
  Q 131.04 141.56 114.51 142.74
  Q 106.09 143.35 92.11 142.42
  A 0.33 0.33 0.0 0 0 91.77 142.66
  L 89.42 151.14
  A 0.90 0.89 29.3 0 1 87.94 151.55
  C 78.30 142.36 74.58 132.60 69.50 118.48
  Q 62.76 99.76 55.80 79.42
  A 0.26 0.26 0.0 0 0 55.30 79.46
  C 49.75 118.25 47.74 155.41 45.23 197.44
  C 44.81 204.52 45.24 212.18 44.64 217.66
  C 44.22 221.40 41.02 225.55 37.07 221.81
  A 2.23 2.10 -80.6 0 1 36.54 221.02
  Q 35.05 217.14 34.31 212.48
  Q 31.35 193.82 32.18 173.75
  Q 33.76 135.50 37.60 99.88
  Q 39.89 78.56 44.24 59.49
  Q 46.40 49.99 49.51 42.79
  C 51.76 37.58 58.74 37.24 60.89 42.67
  C 61.91 45.26 60.83 49.27 60.94 52.39
  A 5.66 5.57 -57.8 0 0 61.36 54.31
  Q 76.46 91.36 89.03 125.85
  A 0.75 0.74 79.9 0 0 89.73 126.34
  Q 97.10 126.32 105.75 125.24
  Q 127.72 122.52 144.93 118.49
  C 151.94 116.85 158.20 116.49 165.21 116.17
  A 1.45 1.45 0.0 0 0 166.49 115.27
  Q 168.62 110.03 170.53 103.52
  Q 180.64 68.93 184.76 33.29
  C 185.33 28.31 190.75 24.60 195.66 26.82
  C 198.72 28.19 200.15 30.32 201.08 33.79
  C 207.85 59.10 211.25 85.50 212.84 110.23
  Q 214.05 128.96 217.66 191.25
  C 218.21 200.70 217.48 211.44 211.33 218.58
  A 1.72 1.71 -52.8 0 1 209.08 218.89
  Q 207.98 218.15 206.98 216.32
  C 200.94 205.28 200.15 194.39 199.42 180.18
  Q 197.39 141.02 195.13 102.93
  Q 194.48 91.98 193.19 80.63
  A 0.11 0.11 0.0 0 0 192.98 80.62
  Z"
/>
<path fill="#bd6e05" d="
  M 144.89 193.91
  C 141.33 194.02 137.35 190.49 135.78 187.81
  A 3.37 3.35 23.0 0 1 135.39 186.85
  Q 133.84 179.92 137.59 173.71
  Q 138.36 172.44 143.06 169.70
  A 2.68 2.57 -62.9 0 1 144.04 169.36
  Q 148.74 168.74 151.17 172.72
  A 2.57 2.55 -66.6 0 1 151.50 173.56
  Q 152.47 178.30 153.28 181.07
  C 154.80 186.22 150.65 193.74 144.89 193.91
  Z"
/>
<path fill="#bd6e05" d="
  M 95.52 176.77
  Q 96.64 176.66 100.35 177.68
  Q 103.88 178.64 104.97 182.07
  C 107.05 188.62 104.15 194.29 96.76 193.90
  Q 92.17 193.66 90.31 189.25
  Q 87.65 182.95 92.00 178.06
  Q 92.94 177.01 95.52 176.77
  Z"
/>
</svg>
