<?xml version="1.0" encoding="UTF-8" standalone="no"?>
<!DOCTYPE svg PUBLIC "-//W3C//DTD SVG 1.1//EN" "http://www.w3.org/Graphics/SVG/1.1/DTD/svg11.dtd">
<svg xmlns="http://www.w3.org/2000/svg" version="1.1" viewBox="0.00 0.00 256.00 256.00">
<g stroke-width="2.00" fill="none" stroke-linecap="butt">
<path stroke="#652485" vector-effect="non-scaling-stroke" d="
  M 77.87 92.48
  C 87.45 88.62 88.60 79.57 85.25 70.76
  C 82.21 62.75 69.68 38.17 57.71 44.06
  A 1.14 1.14 0.0 0 0 57.84 46.15
  C 65.64 48.86 72.02 60.81 75.14 68.40
  Q 79.56 79.18 79.04 88.82
  Q 78.93 90.85 77.71 92.26
  A 0.14 0.14 0.0 0 0 77.87 92.48"
/>
<path stroke="#652485" vector-effect="non-scaling-stroke" d="
  M 40.69 100.31
  L 39.02 93.00
  A 4.84 4.83 22.0 0 0 38.38 91.49
  C 30.54 79.43 25.07 67.09 31.62 53.08
  Q 32.81 50.52 34.77 48.33
  A 0.60 0.59 23.6 0 0 34.38 47.34
  C 28.36 46.78 22.84 52.19 20.95 57.43
  C 16.93 68.61 22.03 82.23 28.24 92.37
  C 30.78 96.51 31.87 98.31 35.68 99.59
  Q 37.82 100.31 40.44 100.58
  A 0.23 0.22 -2.6 0 0 40.69 100.31"
/>
<path stroke="#652485" vector-effect="non-scaling-stroke" d="
  M 145.77 84.42
  C 143.57 84.50 142.14 83.02 140.67 82.00
  A 5.97 5.79 71.1 0 0 139.35 81.33
  Q 130.81 78.35 130.66 68.54
  Q 130.53 60.20 138.76 52.18
  A 2.20 2.20 0.0 0 0 137.81 48.48
  L 137.31 48.34
  A 8.01 7.98 -55.5 0 0 130.44 49.62
  Q 125.75 53.09 123.96 57.45
  Q 120.57 65.68 121.91 72.90
  C 123.27 80.18 128.10 87.30 135.18 89.24
  Q 141.03 90.84 146.01 84.90
  A 0.30 0.29 18.9 0 0 145.77 84.42"
/>
<path stroke="#652485" vector-effect="non-scaling-stroke" d="
  M 179.07 82.19
  C 185.45 74.35 182.62 62.72 175.75 55.80
  C 172.88 52.92 165.44 46.53 161.63 50.28
  C 159.87 52.00 161.06 54.30 162.95 55.41
  C 170.02 59.58 176.99 68.11 172.11 76.59
  C 170.88 78.74 170.73 80.48 172.35 82.37
  C 174.18 84.50 177.34 84.31 179.07 82.19"
/>
<path stroke="#652485" vector-effect="non-scaling-stroke" d="
  M 186.06 139.67
  C 187.63 134.03 181.00 129.59 176.40 128.34
  Q 169.89 126.56 165.72 126.46
  Q 131.50 125.59 106.77 148.35
  C 102.14 152.61 96.75 159.60 96.64 166.13
  Q 96.63 166.86 97.02 167.42
  A 0.53 0.53 0.0 0 0 97.84 167.47
  C 100.59 164.40 102.67 161.74 105.67 159.13
  C 124.60 142.72 148.49 131.75 173.98 136.80
  Q 180.20 138.03 184.35 138.63
  Q 185.03 138.73 185.56 139.73
  A 0.27 0.27 0.0 0 0 186.06 139.67"
/>
<path stroke="#652485" vector-effect="non-scaling-stroke" d="
  M 204.38 147.55
  Q 203.52 148.41 203.31 150.25
  Q 203.15 151.71 195.80 157.79
  Q 179.20 171.51 161.54 179.51
  C 147.81 185.73 131.87 189.67 117.03 187.07
  C 111.82 186.15 107.75 183.57 102.74 180.46
  A 0.55 0.55 0.0 0 0 101.90 180.96
  C 102.12 184.64 108.56 189.18 111.74 191.06
  C 128.38 200.90 152.49 194.11 168.72 186.18
  C 178.62 181.35 187.38 175.76 194.10 167.43
  Q 202.60 156.89 205.36 148.15
  A 0.59 0.59 0.0 0 0 204.38 147.55"
/>
</g>
<path fill="#48000b" d="
  M 256.00 0.00
  L 256.00 256.00
  L 0.00 256.00
  L 0.00 0.00
  L 256.00 0.00
  Z
  M 77.87 92.48
  C 87.45 88.62 88.60 79.57 85.25 70.76
  C 82.21 62.75 69.68 38.17 57.71 44.06
  A 1.14 1.14 0.0 0 0 57.84 46.15
  C 65.64 48.86 72.02 60.81 75.14 68.40
  Q 79.56 79.18 79.04 88.82
  Q 78.93 90.85 77.71 92.26
  A 0.14 0.14 0.0 0 0 77.87 92.48
  Z
  M 40.69 100.31
  L 39.02 93.00
  A 4.84 4.83 22.0 0 0 38.38 91.49
  C 30.54 79.43 25.07 67.09 31.62 53.08
  Q 32.81 50.52 34.77 48.33
  A 0.60 0.59 23.6 0 0 34.38 47.34
  C 28.36 46.78 22.84 52.19 20.95 57.43
  C 16.93 68.61 22.03 82.23 28.24 92.37
  C 30.78 96.51 31.87 98.31 35.68 99.59
  Q 37.82 100.31 40.44 100.58
  A 0.23 0.22 -2.6 0 0 40.69 100.31
  Z
  M 145.77 84.42
  C 143.57 84.50 142.14 83.02 140.67 82.00
  A 5.97 5.79 71.1 0 0 139.35 81.33
  Q 130.81 78.35 130.66 68.54
  Q 130.53 60.20 138.76 52.18
  A 2.20 2.20 0.0 0 0 137.81 48.48
  L 137.31 48.34
  A 8.01 7.98 -55.5 0 0 130.44 49.62
  Q 125.75 53.09 123.96 57.45
  Q 120.57 65.68 121.91 72.90
  C 123.27 80.18 128.10 87.30 135.18 89.24
  Q 141.03 90.84 146.01 84.90
  A 0.30 0.29 18.9 0 0 145.77 84.42
  Z
  M 179.07 82.19
  C 185.45 74.35 182.62 62.72 175.75 55.80
  C 172.88 52.92 165.44 46.53 161.63 50.28
  C 159.87 52.00 161.06 54.30 162.95 55.41
  C 170.02 59.58 176.99 68.11 172.11 76.59
  C 170.88 78.74 170.73 80.48 172.35 82.37
  C 174.18 84.50 177.34 84.31 179.07 82.19
  Z
  M 186.06 139.67
  C 187.63 134.03 181.00 129.59 176.40 128.34
  Q 169.89 126.56 165.72 126.46
  Q 131.50 125.59 106.77 148.35
  C 102.14 152.61 96.75 159.60 96.64 166.13
  Q 96.63 166.86 97.02 167.42
  A 0.53 0.53 0.0 0 0 97.84 167.47
  C 100.59 164.40 102.67 161.74 105.67 159.13
  C 124.60 142.72 148.49 131.75 173.98 136.80
  Q 180.20 138.03 184.35 138.63
  Q 185.03 138.73 185.56 139.73
  A 0.27 0.27 0.0 0 0 186.06 139.67
  Z
  M 204.38 147.55
  Q 203.52 148.41 203.31 150.25
  Q 203.15 151.71 195.80 157.79
  Q 179.20 171.51 161.54 179.51
  C 147.81 185.73 131.87 189.67 117.03 187.07
  C 111.82 186.15 107.75 183.57 102.74 180.46
  A 0.55 0.55 0.0 0 0 101.90 180.96
  C 102.12 184.64 108.56 189.18 111.74 191.06
  C 128.38 200.90 152.49 194.11 168.72 186.18
  C 178.62 181.35 187.38 175.76 194.10 167.43
  Q 202.60 156.89 205.36 148.15
  A 0.59 0.59 0.0 0 0 204.38 147.55
  Z"
/>
<path fill="#8248ff" d="
  M 77.71 92.26
  Q 78.93 90.85 79.04 88.82
  Q 79.56 79.18 75.14 68.40
  C 72.02 60.81 65.64 48.86 57.84 46.15
  A 1.14 1.14 0.0 0 1 57.71 44.06
  C 69.68 38.17 82.21 62.75 85.25 70.76
  C 88.60 79.57 87.45 88.62 77.87 92.48
  A 0.14 0.14 0.0 0 1 77.71 92.26
  Z"
/>
<path fill="#8248ff" d="
  M 40.44 100.58
  Q 37.82 100.31 35.68 99.59
  C 31.87 98.31 30.78 96.51 28.24 92.37
  C 22.03 82.23 16.93 68.61 20.95 57.43
  C 22.84 52.19 28.36 46.78 34.38 47.34
  A 0.60 0.59 23.6 0 1 34.77 48.33
  Q 32.81 50.52 31.62 53.08
  C 25.07 67.09 30.54 79.43 38.38 91.49
  A 4.84 4.83 22.0 0 1 39.02 93.00
  L 40.69 100.31
  A 0.23 0.22 -2.6 0 1 40.44 100.58
  Z"
/>
<path fill="#8248ff" d="
  M 146.01 84.90
  Q 141.03 90.84 135.18 89.24
  C 128.10 87.30 123.27 80.18 121.91 72.90
  Q 120.57 65.68 123.96 57.45
  Q 125.75 53.09 130.44 49.62
  A 8.01 7.98 -55.5 0 1 137.31 48.34
  L 137.81 48.48
  A 2.20 2.20 0.0 0 1 138.76 52.18
  Q 130.53 60.20 130.66 68.54
  Q 130.81 78.35 139.35 81.33
  A 5.97 5.79 71.1 0 1 140.67 82.00
  C 142.14 83.02 143.57 84.50 145.77 84.42
  A 0.30 0.29 18.9 0 1 146.01 84.90
  Z"
/>
<path fill="#8248ff" d="
  M 179.07 82.19
  C 177.34 84.31 174.18 84.50 172.35 82.37
  C 170.73 80.48 170.88 78.74 172.11 76.59
  C 176.99 68.11 170.02 59.58 162.95 55.41
  C 161.06 54.30 159.87 52.00 161.63 50.28
  C 165.44 46.53 172.88 52.92 175.75 55.80
  C 182.62 62.72 185.45 74.35 179.07 82.19
  Z"
/>
<path fill="#8248ff" d="
  M 185.56 139.73
  Q 185.03 138.73 184.35 138.63
  Q 180.20 138.03 173.98 136.80
  C 148.49 131.75 124.60 142.72 105.67 159.13
  C 102.67 161.74 100.59 164.40 97.84 167.47
  A 0.53 0.53 0.0 0 1 97.02 167.42
  Q 96.63 166.86 96.64 166.13
  C 96.75 159.60 102.14 152.61 106.77 148.35
  Q 131.50 125.59 165.72 126.46
  Q 169.89 126.56 176.40 128.34
  C 181.00 129.59 187.63 134.03 186.06 139.67
  A 0.27 0.27 0.0 0 1 185.56 139.73
  Z"
/>
<path fill="#8248ff" d="
  M 205.36 148.15
  Q 202.60 156.89 194.10 167.43
  C 187.38 175.76 178.62 181.35 168.72 186.18
  C 152.49 194.11 128.38 200.90 111.74 191.06
  C 108.56 189.18 102.12 184.64 101.90 180.96
  A 0.55 0.55 0.0 0 1 102.74 180.46
  C 107.75 183.57 111.82 186.15 117.03 187.07
  C 131.87 189.67 147.81 185.73 161.54 179.51
  Q 179.20 171.51 195.80 157.79
  Q 203.15 151.71 203.31 150.25
  Q 203.52 148.41 204.38 147.55
  A 0.59 0.59 0.0 0 1 205.36 148.15
  Z"
/>
</svg>
