<?xml version="1.0" encoding="UTF-8" standalone="no"?>
<!DOCTYPE svg PUBLIC "-//W3C//DTD SVG 1.1//EN" "http://www.w3.org/Graphics/SVG/1.1/DTD/svg11.dtd">
<svg xmlns="http://www.w3.org/2000/svg" version="1.1" viewBox="0.00 0.00 256.00 256.00">
<g stroke-width="2.00" fill="none" stroke-linecap="butt">
<path stroke="#3e9a33" vector-effect="non-scaling-stroke" d="
  M 210.97 65.98
  Q 209.21 66.84 194.01 73.43
  C 184.04 77.76 174.74 82.58 165.24 87.51
  C 162.01 89.18 159.70 90.46 159.16 93.87
  Q 158.95 95.18 159.98 96.07
  C 162.72 98.46 165.22 97.83 168.35 96.11
  Q 186.08 86.36 214.03 74.56
  Q 217.94 72.91 220.56 70.28
  C 227.85 62.95 210.95 54.61 206.28 52.47
  Q 197.48 48.45 184.25 44.23
  Q 171.02 40.01 166.93 38.91
  C 163.50 37.98 160.37 38.36 159.37 42.28
  A 1.47 1.45 39.7 0 0 159.47 43.27
  Q 161.00 46.46 163.78 47.30
  Q 180.41 52.37 193.16 56.85
  Q 202.62 60.18 211.00 65.34
  A 0.37 0.36 47.8 0 1 210.97 65.98"
/>
<path stroke="#3e9a33" vector-effect="non-scaling-stroke" d="
  M 121.49 66.11
  Q 96.20 74.66 65.39 88.66
  A 3.99 3.99 0.0 0 0 63.59 94.29
  L 63.68 94.45
  A 4.90 4.89 -26.6 0 0 69.85 96.50
  C 94.41 85.96 104.76 81.36 124.79 74.56
  C 128.62 73.25 137.27 69.75 134.40 64.29
  C 131.18 58.17 121.62 55.71 115.06 53.91
  C 106.78 51.64 92.60 48.42 80.19 44.94
  C 72.70 42.83 58.53 38.28 53.58 42.12
  C 50.04 44.87 53.54 47.95 56.31 48.52
  Q 68.42 51.03 78.96 53.97
  C 92.76 57.83 101.78 59.74 113.76 62.97
  Q 118.49 64.24 121.51 65.67
  A 0.24 0.24 0.0 0 1 121.49 66.11"
/>
<path stroke="#3e9a33" vector-effect="non-scaling-stroke" d="
  M 189.18 171.22
  Q 178.38 175.28 166.20 181.19
  Q 142.08 192.89 113.07 207.59
  C 109.91 209.19 105.33 211.60 108.17 215.58
  C 110.32 218.60 114.05 217.16 116.79 215.78
  Q 145.34 201.49 163.00 192.75
  Q 179.65 184.51 194.76 178.75
  C 199.66 176.88 201.79 174.91 200.19 169.66
  A 2.48 2.42 -73.6 0 0 199.75 168.83
  C 189.66 156.39 171.69 150.06 156.31 145.19
  Q 144.06 141.32 123.19 136.12
  Q 117.59 134.72 112.15 134.69
  A 2.22 2.22 0.0 0 0 109.93 137.12
  Q 110.04 138.31 111.67 139.26
  Q 114.73 141.05 122.64 143.62
  Q 141.97 149.90 160.16 155.83
  C 170.31 159.14 180.93 163.98 189.27 170.64
  A 0.34 0.34 0.0 0 1 189.18 171.22"
/>
</g>
<path fill="#24ff66" d="
  M 256.00 0.00
  L 256.00 256.00
  L 0.00 256.00
  L 0.00 0.00
  L 256.00 0.00
  Z
  M 210.97 65.98
  Q 209.21 66.84 194.01 73.43
  C 184.04 77.76 174.74 82.58 165.24 87.51
  C 162.01 89.18 159.70 90.46 159.16 93.87
  Q 158.95 95.18 159.98 96.07
  C 162.72 98.46 165.22 97.83 168.35 96.11
  Q 186.08 86.36 214.03 74.56
  Q 217.94 72.91 220.56 70.28
  C 227.85 62.95 210.95 54.61 206.28 52.47
  Q 197.48 48.45 184.25 44.23
  Q 171.02 40.01 166.93 38.91
  C 163.50 37.98 160.37 38.36 159.37 42.28
  A 1.47 1.45 39.7 0 0 159.47 43.27
  Q 161.00 46.46 163.78 47.30
  Q 180.41 52.37 193.16 56.85
  Q 202.62 60.18 211.00 65.34
  A 0.37 0.36 47.8 0 1 210.97 65.98
  Z
  M 121.49 66.11
  Q 96.20 74.66 65.39 88.66
  A 3.99 3.99 0.0 0 0 63.59 94.29
  L 63.68 94.45
  A 4.90 4.89 -26.6 0 0 69.85 96.50
  C 94.41 85.96 104.76 81.36 124.79 74.56
  C 128.62 73.25 137.27 69.75 134.40 64.29
  C 131.18 58.17 121.62 55.71 115.06 53.91
  C 106.78 51.64 92.60 48.42 80.19 44.94
  C 72.70 42.83 58.53 38.28 53.58 42.12
  C 50.04 44.87 53.54 47.95 56.31 48.52
  Q 68.42 51.03 78.96 53.97
  C 92.76 57.83 101.78 59.74 113.76 62.97
  Q 118.49 64.24 121.51 65.67
  A 0.24 0.24 0.0 0 1 121.49 66.11
  Z
  M 189.18 171.22
  Q 178.38 175.28 166.20 181.19
  Q 142.08 192.89 113.07 207.59
  C 109.91 209.19 105.33 211.60 108.17 215.58
  C 110.32 218.60 114.05 217.16 116.79 215.78
  Q 145.34 201.49 163.00 192.75
  Q 179.65 184.51 194.76 178.75
  C 199.66 176.88 201.79 174.91 200.19 169.66
  A 2.48 2.42 -73.6 0 0 199.75 168.83
  C 189.66 156.39 171.69 150.06 156.31 145.19
  Q 144.06 141.32 123.19 136.12
  Q 117.59 134.72 112.15 134.69
  A 2.22 2.22 0.0 0 0 109.93 137.12
  Q 110.04 138.31 111.67 139.26
  Q 114.73 141.05 122.64 143.62
  Q 141.97 149.90 160.16 155.83
  C 170.31 159.14 180.93 163.98 189.27 170.64
  A 0.34 0.34 0.0 0 1 189.18 171.22
  Z"
/>
<path fill="#583400" d="
  M 210.97 65.98
  A 0.37 0.36 47.8 0 0 211.00 65.34
  Q 202.62 60.18 193.16 56.85
  Q 180.41 52.37 163.78 47.30
  Q 161.00 46.46 159.47 43.27
  A 1.47 1.45 39.7 0 1 159.37 42.28
  C 160.37 38.36 163.50 37.98 166.93 38.91
  Q 171.02 40.01 184.25 44.23
  Q 197.48 48.45 206.28 52.47
  C 210.95 54.61 227.85 62.95 220.56 70.28
  Q 217.94 72.91 214.03 74.56
  Q 186.08 86.36 168.35 96.11
  C 165.22 97.83 162.72 98.46 159.98 96.07
  Q 158.95 95.18 159.16 93.87
  C 159.70 90.46 162.01 89.18 165.24 87.51
  C 174.74 82.58 184.04 77.76 194.01 73.43
  Q 209.21 66.84 210.97 65.98
  Z"
/>
<path fill="#583400" d="
  M 121.51 65.67
  Q 118.49 64.24 113.76 62.97
  C 101.78 59.74 92.76 57.83 78.96 53.97
  Q 68.42 51.03 56.31 48.52
  C 53.54 47.95 50.04 44.87 53.58 42.12
  C 58.53 38.28 72.70 42.83 80.19 44.94
  C 92.60 48.42 106.78 51.64 115.06 53.91
  C 121.62 55.71 131.18 58.17 134.40 64.29
  C 137.27 69.75 128.62 73.25 124.79 74.56
  C 104.76 81.36 94.41 85.96 69.85 96.50
  A 4.90 4.89 -26.6 0 1 63.68 94.45
  L 63.59 94.29
  A 3.99 3.99 0.0 0 1 65.39 88.66
  Q 96.20 74.66 121.49 66.11
  A 0.24 0.24 0.0 0 0 121.51 65.67
  Z"
/>
<path fill="#583400" d="
  M 189.18 171.22
  A 0.34 0.34 0.0 0 0 189.27 170.64
  C 180.93 163.98 170.31 159.14 160.16 155.83
  Q 141.97 149.90 122.64 143.62
  Q 114.73 141.05 111.67 139.26
  Q 110.04 138.31 109.93 137.12
  A 2.22 2.22 0.0 0 1 112.15 134.69
  Q 117.59 134.72 123.19 136.12
  Q 144.06 141.32 156.31 145.19
  C 171.69 150.06 189.66 156.39 199.75 168.83
  A 2.48 2.42 -73.6 0 1 200.19 169.66
  C 201.79 174.91 199.66 176.88 194.76 178.75
  Q 179.65 184.51 163.00 192.75
  Q 145.34 201.49 116.79 215.78
  C 114.05 217.16 110.32 218.60 108.17 215.58
  C 105.33 211.60 109.91 209.19 113.07 207.59
  Q 142.08 192.89 166.20 181.19
  Q 178.38 175.28 189.18 171.22
  Z"
/>
</svg>
