<?xml version="1.0" encoding="UTF-8" standalone="no"?>
<!DOCTYPE svg PUBLIC "-//W3C//DTD SVG 1.1//EN" "http://www.w3.org/Graphics/SVG/1.1/DTD/svg11.dtd">
<svg xmlns="http://www.w3.org/2000/svg" version="1.1" viewBox="0.00 0.00 256.00 256.00">
<g stroke-width="2.00" fill="none" stroke-linecap="butt">
<path stroke="#807903" vector-effect="non-scaling-stroke" d="
  M 103.83 25.47
  C 103.23 22.99 101.30 22.45 99.54 21.09
  C 95.09 17.67 89.02 13.86 83.38 12.67
  C 74.45 10.77 66.95 16.54 62.04 23.81
  C 53.39 36.62 54.01 54.08 58.36 68.65
  C 59.50 72.46 66.43 87.93 72.30 84.37
  Q 74.71 82.91 74.32 80.26
  A 2.66 2.58 23.1 0 0 73.86 79.16
  C 64.70 66.95 61.24 46.84 67.34 32.88
  C 69.49 27.95 75.15 20.32 81.08 21.45
  Q 85.74 22.34 91.65 26.66
  A 0.60 0.59 -53.2 0 1 91.77 27.51
  Q 86.82 33.84 89.00 41.29
  A 3.46 3.34 -72.1 0 0 89.47 42.25
  Q 93.84 48.42 100.80 47.26
  C 106.81 46.26 111.16 40.56 112.22 34.74
  Q 112.87 31.12 111.16 27.35
  A 2.80 2.64 11.4 0 0 110.58 26.53
  Q 108.08 24.10 104.59 25.82
  A 0.54 0.53 -20.2 0 1 103.83 25.47"
/>
<path stroke="#807903" vector-effect="non-scaling-stroke" d="
  M 180.50 32.83
  C 177.87 38.54 179.20 44.95 185.32 46.96
  C 192.48 49.32 198.94 44.00 200.89 37.33
  Q 201.77 34.32 200.26 32.05
  Q 198.34 29.19 195.83 28.63
  A 0.86 0.85 -88.5 0 1 195.19 27.95
  C 194.58 24.30 190.24 25.75 187.67 24.90
  Q 179.52 22.20 171.28 20.46
  C 162.17 18.53 153.97 18.26 147.06 25.31
  C 136.82 35.75 134.58 52.21 137.27 66.50
  Q 139.06 76.05 144.87 88.54
  Q 146.27 91.55 149.84 91.29
  A 1.28 1.28 0.0 0 0 150.75 90.81
  Q 152.90 88.14 152.07 85.93
  C 145.98 69.73 140.37 48.12 152.10 33.15
  Q 155.84 28.38 160.85 28.33
  Q 167.07 28.28 180.12 32.00
  A 0.60 0.60 0.0 0 1 180.50 32.83"
/>
<path stroke="#807903" vector-effect="non-scaling-stroke" d="
  M 67.76 123.18
  Q 66.50 125.16 64.73 126.73
  C 60.81 130.20 58.61 135.65 58.39 140.50
  C 57.28 164.66 93.28 160.49 94.08 139.69
  C 94.49 129.18 86.39 121.14 76.26 119.99
  Q 72.07 119.52 68.20 122.68
  A 2.33 2.15 -5.9 0 0 67.76 123.18"
/>
<path stroke="#807903" vector-effect="non-scaling-stroke" d="
  M 152.07 122.99
  C 150.57 120.69 147.56 120.59 145.00 120.97
  Q 137.70 122.04 132.13 127.92
  C 125.18 135.25 121.83 147.00 129.22 154.84
  C 142.10 168.50 172.30 161.07 173.03 140.75
  C 173.34 132.20 168.18 125.02 159.65 123.45
  Q 158.38 123.22 152.88 123.41
  A 0.94 0.92 72.0 0 1 152.07 122.99"
/>
<path stroke="#807903" vector-effect="non-scaling-stroke" d="
  M 180.07 204.46
  C 177.15 202.80 173.38 200.37 169.62 200.15
  Q 102.62 196.28 100.48 196.12
  Q 95.94 195.78 87.75 194.20
  Q 84.72 193.62 83.89 193.96
  C 78.72 196.14 80.17 202.07 85.39 203.04
  Q 96.94 205.17 107.75 205.72
  Q 126.13 206.65 170.55 209.31
  A 4.15 4.11 -54.1 0 0 172.31 209.02
  L 179.96 206.01
  A 0.86 0.86 0.0 0 0 180.07 204.46"
/>
<path stroke="#807903" vector-effect="non-scaling-stroke" d="
  M 102.32 29.87
  C 101.29 30.96 99.67 31.01 98.61 32.33
  Q 97.30 33.95 96.96 36.66
  A 1.63 1.31 -81.1 0 0 97.96 38.39
  C 102.45 39.32 103.93 33.15 102.98 30.02
  A 0.39 0.39 0.0 0 0 102.32 29.87"
/>
<path stroke="#807903" vector-effect="non-scaling-stroke" d="
  M 191.5764 34.7425
  A 2.63 1.68 -48.1 0 0 188.5696 35.5780
  A 2.63 1.68 -48.1 0 0 188.0636 38.6575
  A 2.63 1.68 -48.1 0 0 191.0704 37.8220
  A 2.63 1.68 -48.1 0 0 191.5764 34.7425"
/>
<path stroke="#807903" vector-effect="non-scaling-stroke" d="
  M 66.84 137.40
  C 66.20 140.75 65.86 146.27 69.66 147.79
  C 75.52 150.13 84.13 148.01 85.47 140.94
  C 86.82 133.88 79.59 128.75 73.28 128.77
  C 69.19 128.78 67.47 134.05 66.84 137.40"
/>
<path stroke="#807903" vector-effect="non-scaling-stroke" d="
  M 152.42 127.06
  Q 152.21 127.15 151.69 127.84
  C 150.18 129.88 147.03 129.10 144.95 129.94
  Q 137.52 132.95 134.86 140.19
  C 133.23 144.63 134.40 148.78 138.64 150.88
  C 146.14 154.59 158.94 152.66 163.25 144.54
  Q 166.05 139.25 162.91 134.06
  A 4.40 4.39 -82.8 0 0 162.30 133.27
  Q 158.66 129.66 153.31 127.09
  A 1.11 1.11 0.0 0 0 152.42 127.06"
/>
</g>
<path fill="#fff206" d="
  M 256.00 0.00
  L 256.00 256.00
  L 0.00 256.00
  L 0.00 0.00
  L 256.00 0.00
  Z
  M 103.83 25.47
  C 103.23 22.99 101.30 22.45 99.54 21.09
  C 95.09 17.67 89.02 13.86 83.38 12.67
  C 74.45 10.77 66.95 16.54 62.04 23.81
  C 53.39 36.62 54.01 54.08 58.36 68.65
  C 59.50 72.46 66.43 87.93 72.30 84.37
  Q 74.71 82.91 74.32 80.26
  A 2.66 2.58 23.1 0 0 73.86 79.16
  C 64.70 66.95 61.24 46.84 67.34 32.88
  C 69.49 27.95 75.15 20.32 81.08 21.45
  Q 85.74 22.34 91.65 26.66
  A 0.60 0.59 -53.2 0 1 91.77 27.51
  Q 86.82 33.84 89.00 41.29
  A 3.46 3.34 -72.1 0 0 89.47 42.25
  Q 93.84 48.42 100.80 47.26
  C 106.81 46.26 111.16 40.56 112.22 34.74
  Q 112.87 31.12 111.16 27.35
  A 2.80 2.64 11.4 0 0 110.58 26.53
  Q 108.08 24.10 104.59 25.82
  A 0.54 0.53 -20.2 0 1 103.83 25.47
  Z
  M 180.50 32.83
  C 177.87 38.54 179.20 44.95 185.32 46.96
  C 192.48 49.32 198.94 44.00 200.89 37.33
  Q 201.77 34.32 200.26 32.05
  Q 198.34 29.19 195.83 28.63
  A 0.86 0.85 -88.5 0 1 195.19 27.95
  C 194.58 24.30 190.24 25.75 187.67 24.90
  Q 179.52 22.20 171.28 20.46
  C 162.17 18.53 153.97 18.26 147.06 25.31
  C 136.82 35.75 134.58 52.21 137.27 66.50
  Q 139.06 76.05 144.87 88.54
  Q 146.27 91.55 149.84 91.29
  A 1.28 1.28 0.0 0 0 150.75 90.81
  Q 152.90 88.14 152.07 85.93
  C 145.98 69.73 140.37 48.12 152.10 33.15
  Q 155.84 28.38 160.85 28.33
  Q 167.07 28.28 180.12 32.00
  A 0.60 0.60 0.0 0 1 180.50 32.83
  Z
  M 67.76 123.18
  Q 66.50 125.16 64.73 126.73
  C 60.81 130.20 58.61 135.65 58.39 140.50
  C 57.28 164.66 93.28 160.49 94.08 139.69
  C 94.49 129.18 86.39 121.14 76.26 119.99
  Q 72.07 119.52 68.20 122.68
  A 2.33 2.15 -5.9 0 0 67.76 123.18
  Z
  M 152.07 122.99
  C 150.57 120.69 147.56 120.59 145.00 120.97
  Q 137.70 122.04 132.13 127.92
  C 125.18 135.25 121.83 147.00 129.22 154.84
  C 142.10 168.50 172.30 161.07 173.03 140.75
  C 173.34 132.20 168.18 125.02 159.65 123.45
  Q 158.38 123.22 152.88 123.41
  A 0.94 0.92 72.0 0 1 152.07 122.99
  Z
  M 180.07 204.46
  C 177.15 202.80 173.38 200.37 169.62 200.15
  Q 102.62 196.28 100.48 196.12
  Q 95.94 195.78 87.75 194.20
  Q 84.72 193.62 83.89 193.96
  C 78.72 196.14 80.17 202.07 85.39 203.04
  Q 96.94 205.17 107.75 205.72
  Q 126.13 206.65 170.55 209.31
  A 4.15 4.11 -54.1 0 0 172.31 209.02
  L 179.96 206.01
  A 0.86 0.86 0.0 0 0 180.07 204.46
  Z"
/>
<path fill="#000000" d="
  M 104.59 25.82
  Q 108.08 24.10 110.58 26.53
  A 2.80 2.64 11.4 0 1 111.16 27.35
  Q 112.87 31.12 112.22 34.74
  C 111.16 40.56 106.81 46.26 100.80 47.26
  Q 93.84 48.42 89.47 42.25
  A 3.46 3.34 -72.1 0 1 89.00 41.29
  Q 86.82 33.84 91.77 27.51
  A 0.60 0.59 -53.2 0 0 91.65 26.66
  Q 85.74 22.34 81.08 21.45
  C 75.15 20.32 69.49 27.95 67.34 32.88
  C 61.24 46.84 64.70 66.95 73.86 79.16
  A 2.66 2.58 23.1 0 1 74.32 80.26
  Q 74.71 82.91 72.30 84.37
  C 66.43 87.93 59.50 72.46 58.36 68.65
  C 54.01 54.08 53.39 36.62 62.04 23.81
  C 66.95 16.54 74.45 10.77 83.38 12.67
  C 89.02 13.86 95.09 17.67 99.54 21.09
  C 101.30 22.45 103.23 22.99 103.83 25.47
  A 0.54 0.53 -20.2 0 0 104.59 25.82
  Z
  M 102.32 29.87
  C 101.29 30.96 99.67 31.01 98.61 32.33
  Q 97.30 33.95 96.96 36.66
  A 1.63 1.31 -81.1 0 0 97.96 38.39
  C 102.45 39.32 103.93 33.15 102.98 30.02
  A 0.39 0.39 0.0 0 0 102.32 29.87
  Z"
/>
<path fill="#000000" d="
  M 180.12 32.00
  Q 167.07 28.28 160.85 28.33
  Q 155.84 28.38 152.10 33.15
  C 140.37 48.12 145.98 69.73 152.07 85.93
  Q 152.90 88.14 150.75 90.81
  A 1.28 1.28 0.0 0 1 149.84 91.29
  Q 146.27 91.55 144.87 88.54
  Q 139.06 76.05 137.27 66.50
  C 134.58 52.21 136.82 35.75 147.06 25.31
  C 153.97 18.26 162.17 18.53 171.28 20.46
  Q 179.52 22.20 187.67 24.90
  C 190.24 25.75 194.58 24.30 195.19 27.95
  A 0.86 0.85 -88.5 0 0 195.83 28.63
  Q 198.34 29.19 200.26 32.05
  Q 201.77 34.32 200.89 37.33
  C 198.94 44.00 192.48 49.32 185.32 46.96
  C 179.20 44.95 177.87 38.54 180.50 32.83
  A 0.60 0.60 0.0 0 0 180.12 32.00
  Z
  M 191.5764 34.7425
  A 2.63 1.68 -48.1 0 0 188.5696 35.5780
  A 2.63 1.68 -48.1 0 0 188.0636 38.6575
  A 2.63 1.68 -48.1 0 0 191.0704 37.8220
  A 2.63 1.68 -48.1 0 0 191.5764 34.7425
  Z"
/>
<path fill="#fff206" d="
  M 102.98 30.02
  C 103.93 33.15 102.45 39.32 97.96 38.39
  A 1.63 1.31 -81.1 0 1 96.96 36.66
  Q 97.30 33.95 98.61 32.33
  C 99.67 31.01 101.29 30.96 102.32 29.87
  A 0.39 0.39 0.0 0 1 102.98 30.02
  Z"
/>
<ellipse fill="#fff206" cx="0.00" cy="0.00" transform="translate(189.82,36.70) rotate(-48.1)" rx="2.63" ry="1.68"/>
<path fill="#000000" d="
  M 68.20 122.68
  Q 72.07 119.52 76.26 119.99
  C 86.39 121.14 94.49 129.18 94.08 139.69
  C 93.28 160.49 57.28 164.66 58.39 140.50
  C 58.61 135.65 60.81 130.20 64.73 126.73
  Q 66.50 125.16 67.76 123.18
  A 2.33 2.15 -5.9 0 1 68.20 122.68
  Z
  M 66.84 137.40
  C 66.20 140.75 65.86 146.27 69.66 147.79
  C 75.52 150.13 84.13 148.01 85.47 140.94
  C 86.82 133.88 79.59 128.75 73.28 128.77
  C 69.19 128.78 67.47 134.05 66.84 137.40
  Z"
/>
<path fill="#000000" d="
  M 145.00 120.97
  C 147.56 120.59 150.57 120.69 152.07 122.99
  A 0.94 0.92 72.0 0 0 152.88 123.41
  Q 158.38 123.22 159.65 123.45
  C 168.18 125.02 173.34 132.20 173.03 140.75
  C 172.30 161.07 142.10 168.50 129.22 154.84
  C 121.83 147.00 125.18 135.25 132.13 127.92
  Q 137.70 122.04 145.00 120.97
  Z
  M 152.42 127.06
  Q 152.21 127.15 151.69 127.84
  C 150.18 129.88 147.03 129.10 144.95 129.94
  Q 137.52 132.95 134.86 140.19
  C 133.23 144.63 134.40 148.78 138.64 150.88
  C 146.14 154.59 158.94 152.66 163.25 144.54
  Q 166.05 139.25 162.91 134.06
  A 4.40 4.39 -82.8 0 0 162.30 133.27
  Q 158.66 129.66 153.31 127.09
  A 1.11 1.11 0.0 0 0 152.42 127.06
  Z"
/>
<path fill="#fff206" d="
  M 153.31 127.09
  Q 158.66 129.66 162.30 133.27
  A 4.40 4.39 -82.8 0 1 162.91 134.06
  Q 166.05 139.25 163.25 144.54
  C 158.94 152.66 146.14 154.59 138.64 150.88
  C 134.40 148.78 133.23 144.63 134.86 140.19
  Q 137.52 132.95 144.95 129.94
  C 147.03 129.10 150.18 129.88 151.69 127.84
  Q 152.21 127.15 152.42 127.06
  A 1.11 1.11 0.0 0 1 153.31 127.09
  Z"
/>
<path fill="#fff206" d="
  M 85.47 140.94
  C 84.13 148.01 75.52 150.13 69.66 147.79
  C 65.86 146.27 66.20 140.75 66.84 137.40
  C 67.47 134.05 69.19 128.78 73.28 128.77
  C 79.59 128.75 86.82 133.88 85.47 140.94
  Z"
/>
<path fill="#000000" d="
  M 180.07 204.46
  A 0.86 0.86 0.0 0 1 179.96 206.01
  L 172.31 209.02
  A 4.15 4.11 -54.1 0 1 170.55 209.31
  Q 126.13 206.65 107.75 205.72
  Q 96.94 205.17 85.39 203.04
  C 80.17 202.07 78.72 196.14 83.89 193.96
  Q 84.72 193.62 87.75 194.20
  Q 95.94 195.78 100.48 196.12
  Q 102.62 196.28 169.62 200.15
  C 173.38 200.37 177.15 202.80 180.07 204.46
  Z"
/>
</svg>
