<?xml version="1.0" encoding="UTF-8" standalone="no"?>
<!DOCTYPE svg PUBLIC "-//W3C//DTD SVG 1.1//EN" "http://www.w3.org/Graphics/SVG/1.1/DTD/svg11.dtd">
<svg xmlns="http://www.w3.org/2000/svg" version="1.1" viewBox="0.00 0.00 256.00 256.00">
<g stroke-width="2.00" fill="none" stroke-linecap="butt">
<path stroke="#49c8a8" vector-effect="non-scaling-stroke" d="
  M 66.66 57.90
  Q 60.77 56.13 56.50 59.54
  C 41.18 71.78 42.09 100.90 66.82 100.55
  Q 79.21 100.38 86.22 90.42
  C 95.51 77.20 87.44 62.16 73.19 58.26
  Q 72.70 58.12 68.14 58.12
  A 5.27 4.97 51.8 0 1 66.66 57.90"
/>
<path stroke="#49c8a8" vector-effect="non-scaling-stroke" d="
  M 156.80 70.46
  Q 155.99 68.59 153.66 67.61
  C 146.83 64.76 139.95 69.20 135.45 74.23
  C 124.59 86.35 125.69 105.99 140.63 114.11
  C 154.59 121.71 178.94 115.61 180.04 96.74
  C 180.64 86.32 174.79 75.69 165.00 71.53
  Q 163.07 70.71 157.68 71.00
  A 0.90 0.90 0.0 0 1 156.80 70.46"
/>
<path stroke="#49c8a8" vector-effect="non-scaling-stroke" d="
  M 112.96 195.62
  Q 119.16 201.79 127.33 203.58
  C 137.37 205.78 142.75 197.31 144.25 188.71
  Q 146.11 178.10 143.89 167.82
  C 143.11 164.24 141.55 159.50 137.19 160.50
  C 134.94 161.02 133.28 163.42 133.91 165.51
  C 136.43 173.81 137.09 183.66 133.89 191.84
  Q 132.34 195.81 128.26 194.54
  C 121.56 192.45 118.08 188.20 113.20 182.81
  Q 111.73 181.20 109.50 181.24
  C 106.65 181.29 105.19 183.66 104.97 186.47
  C 104.63 190.85 103.38 194.79 100.26 197.76
  C 95.55 202.24 87.83 203.38 85.16 195.69
  Q 80.09 181.10 80.77 164.38
  A 2.93 2.73 43.0 0 0 80.73 163.80
  Q 79.91 159.72 75.47 160.51
  A 1.72 1.70 -71.8 0 0 74.57 160.97
  Q 71.42 164.05 71.51 168.28
  Q 71.86 184.34 76.23 197.70
  C 79.29 207.01 87.14 212.41 96.96 209.64
  Q 107.66 206.63 112.16 195.78
  A 0.49 0.49 0.0 0 1 112.96 195.62"
/>
<path stroke="#49c8a8" vector-effect="non-scaling-stroke" d="
  M 60.47 67.13
  Q 59.16 68.23 57.87 70.86
  C 54.91 76.89 53.21 88.78 61.83 90.86
  Q 72.17 93.36 78.12 86.25
  C 85.10 77.92 78.67 66.60 68.32 67.21
  Q 67.16 67.27 61.98 66.68
  A 2.00 1.99 -61.4 0 0 60.47 67.13"
/>
<path stroke="#49c8a8" vector-effect="non-scaling-stroke" d="
  M 154.57 73.48
  C 136.61 74.30 128.77 104.01 150.43 107.96
  C 159.02 109.52 171.55 106.32 172.37 96.15
  C 173.13 86.86 163.09 79.12 156.67 74.14
  A 3.18 3.16 62.3 0 0 154.57 73.48"
/>
</g>
<path fill="#91ffc6" d="
  M 256.00 0.00
  L 256.00 256.00
  L 0.00 256.00
  L 0.00 0.00
  L 256.00 0.00
  Z
  M 66.66 57.90
  Q 60.77 56.13 56.50 59.54
  C 41.18 71.78 42.09 100.90 66.82 100.55
  Q 79.21 100.38 86.22 90.42
  C 95.51 77.20 87.44 62.16 73.19 58.26
  Q 72.70 58.12 68.14 58.12
  A 5.27 4.97 51.8 0 1 66.66 57.90
  Z
  M 156.80 70.46
  Q 155.99 68.59 153.66 67.61
  C 146.83 64.76 139.95 69.20 135.45 74.23
  C 124.59 86.35 125.69 105.99 140.63 114.11
  C 154.59 121.71 178.94 115.61 180.04 96.74
  C 180.64 86.32 174.79 75.69 165.00 71.53
  Q 163.07 70.71 157.68 71.00
  A 0.90 0.90 0.0 0 1 156.80 70.46
  Z
  M 112.96 195.62
  Q 119.16 201.79 127.33 203.58
  C 137.37 205.78 142.75 197.31 144.25 188.71
  Q 146.11 178.10 143.89 167.82
  C 143.11 164.24 141.55 159.50 137.19 160.50
  C 134.94 161.02 133.28 163.42 133.91 165.51
  C 136.43 173.81 137.09 183.66 133.89 191.84
  Q 132.34 195.81 128.26 194.54
  C 121.56 192.45 118.08 188.20 113.20 182.81
  Q 111.73 181.20 109.50 181.24
  C 106.65 181.29 105.19 183.66 104.97 186.47
  C 104.63 190.85 103.38 194.79 100.26 197.76
  C 95.55 202.24 87.83 203.38 85.16 195.69
  Q 80.09 181.10 80.77 164.38
  A 2.93 2.73 43.0 0 0 80.73 163.80
  Q 79.91 159.72 75.47 160.51
  A 1.72 1.70 -71.8 0 0 74.57 160.97
  Q 71.42 164.05 71.51 168.28
  Q 71.86 184.34 76.23 197.70
  C 79.29 207.01 87.14 212.41 96.96 209.64
  Q 107.66 206.63 112.16 195.78
  A 0.49 0.49 0.0 0 1 112.96 195.62
  Z"
/>
<path fill="#009189" d="
  M 68.14 58.12
  Q 72.70 58.12 73.19 58.26
  C 87.44 62.16 95.51 77.20 86.22 90.42
  Q 79.21 100.38 66.82 100.55
  C 42.09 100.90 41.18 71.78 56.50 59.54
  Q 60.77 56.13 66.66 57.90
  A 5.27 4.97 51.8 0 0 68.14 58.12
  Z
  M 60.47 67.13
  Q 59.16 68.23 57.87 70.86
  C 54.91 76.89 53.21 88.78 61.83 90.86
  Q 72.17 93.36 78.12 86.25
  C 85.10 77.92 78.67 66.60 68.32 67.21
  Q 67.16 67.27 61.98 66.68
  A 2.00 1.99 -61.4 0 0 60.47 67.13
  Z"
/>
<path fill="#91ffc6" d="
  M 61.98 66.68
  Q 67.16 67.27 68.32 67.21
  C 78.67 66.60 85.10 77.92 78.12 86.25
  Q 72.17 93.36 61.83 90.86
  C 53.21 88.78 54.91 76.89 57.87 70.86
  Q 59.16 68.23 60.47 67.13
  A 2.00 1.99 -61.4 0 1 61.98 66.68
  Z"
/>
<path fill="#009189" d="
  M 157.68 71.00
  Q 163.07 70.71 165.00 71.53
  C 174.79 75.69 180.64 86.32 180.04 96.74
  C 178.94 115.61 154.59 121.71 140.63 114.11
  C 125.69 105.99 124.59 86.35 135.45 74.23
  C 139.95 69.20 146.83 64.76 153.66 67.61
  Q 155.99 68.59 156.80 70.46
  A 0.90 0.90 0.0 0 0 157.68 71.00
  Z
  M 154.57 73.48
  C 136.61 74.30 128.77 104.01 150.43 107.96
  C 159.02 109.52 171.55 106.32 172.37 96.15
  C 173.13 86.86 163.09 79.12 156.67 74.14
  A 3.18 3.16 62.3 0 0 154.57 73.48
  Z"
/>
<path fill="#91ffc6" d="
  M 154.57 73.48
  A 3.18 3.16 62.3 0 1 156.67 74.14
  C 163.09 79.12 173.13 86.86 172.37 96.15
  C 171.55 106.32 159.02 109.52 150.43 107.96
  C 128.77 104.01 136.61 74.30 154.57 73.48
  Z"
/>
<path fill="#009189" d="
  M 112.96 195.62
  A 0.49 0.49 0.0 0 0 112.16 195.78
  Q 107.66 206.63 96.96 209.64
  C 87.14 212.41 79.29 207.01 76.23 197.70
  Q 71.86 184.34 71.51 168.28
  Q 71.42 164.05 74.57 160.97
  A 1.72 1.70 -71.8 0 1 75.47 160.51
  Q 79.91 159.72 80.73 163.80
  A 2.93 2.73 43.0 0 1 80.77 164.38
  Q 80.09 181.10 85.16 195.69
  C 87.83 203.38 95.55 202.24 100.26 197.76
  C 103.38 194.79 104.63 190.85 104.97 186.47
  C 105.19 183.66 106.65 181.29 109.50 181.24
  Q 111.73 181.20 113.20 182.81
  C 118.08 188.20 121.56 192.45 128.26 194.54
  Q 132.34 195.81 133.89 191.84
  C 137.09 183.66 136.43 173.81 133.91 165.51
  C 133.28 163.42 134.94 161.02 137.19 160.50
  C 141.55 159.50 143.11 164.24 143.89 167.82
  Q 146.11 178.10 144.25 188.71
  C 142.75 197.31 137.37 205.78 127.33 203.58
  Q 119.16 201.79 112.96 195.62
  Z"
/>
</svg>
