<?xml version="1.0" encoding="UTF-8" standalone="no"?>
<!DOCTYPE svg PUBLIC "-//W3C//DTD SVG 1.1//EN" "http://www.w3.org/Graphics/SVG/1.1/DTD/svg11.dtd">
<svg xmlns="http://www.w3.org/2000/svg" version="1.1" viewBox="0.00 0.00 256.00 256.00">
<g stroke-width="2.00" fill="none" stroke-linecap="butt">
<path stroke="#95333f" vector-effect="non-scaling-stroke" d="
  M 188.71 58.87
  C 186.06 62.99 186.67 67.55 185.44 71.50
  C 183.55 77.61 179.86 84.49 173.92 86.93
  C 164.32 90.87 150.68 90.72 144.20 81.67
  Q 139.35 74.89 139.63 66.93
  Q 139.75 63.54 139.30 62.77
  C 137.63 59.94 134.14 61.09 132.67 63.42
  C 129.04 69.21 131.80 78.66 135.16 84.35
  C 141.33 94.82 151.99 98.99 164.01 98.37
  Q 184.52 97.31 192.28 79.08
  C 193.98 75.09 196.59 67.75 194.95 63.07
  Q 193.51 58.95 189.38 58.54
  A 0.72 0.71 18.3 0 0 188.71 58.87"
/>
<path stroke="#95333f" vector-effect="non-scaling-stroke" d="
  M 90.93 60.73
  C 89.82 63.76 89.39 64.94 89.21 67.88
  C 88.69 76.45 84.12 85.95 74.84 87.58
  Q 59.47 90.28 54.22 76.01
  Q 51.39 68.33 50.68 60.54
  A 1.64 1.63 -9.9 0 0 48.65 59.12
  Q 47.53 59.40 46.79 60.81
  C 41.44 70.92 46.70 86.42 55.65 92.64
  C 65.32 99.36 78.63 98.30 87.49 91.25
  C 93.16 86.75 96.66 79.58 97.80 72.35
  C 98.47 68.17 98.82 65.42 96.24 62.19
  Q 94.51 60.01 91.44 60.33
  A 0.61 0.61 0.0 0 0 90.93 60.73"
/>
<path stroke="#95333f" vector-effect="non-scaling-stroke" d="
  M 112.99 189.10
  C 125.38 207.33 147.05 211.62 167.12 203.41
  C 179.79 198.23 189.16 187.64 190.33 174.06
  C 191.36 162.24 187.49 150.70 176.41 146.10
  Q 168.57 142.85 156.54 140.65
  A 8.61 8.53 -25.8 0 1 154.20 139.85
  C 147.31 136.29 136.14 140.42 129.08 143.86
  C 120.72 147.93 113.16 155.64 109.84 163.87
  Q 104.63 176.80 112.99 189.10"
/>
<path stroke="#95333f" vector-effect="non-scaling-stroke" d="
  M 146.83 145.19
  Q 129.19 147.75 119.98 162.81
  C 113.85 172.82 117.57 182.56 125.44 189.98
  C 133.89 197.95 146.54 200.02 157.73 197.18
  C 165.13 195.30 172.57 191.77 176.97 185.47
  Q 184.36 174.90 180.01 161.97
  Q 178.01 156.03 171.21 153.75
  Q 165.72 151.91 158.81 150.29
  C 155.24 149.45 152.42 147.82 149.82 145.93
  A 4.10 4.07 58.6 0 0 146.83 145.19"
/>
</g>
<path fill="#996666" d="
  M 256.00 0.00
  L 256.00 256.00
  L 0.00 256.00
  L 0.00 0.00
  L 256.00 0.00
  Z
  M 188.71 58.87
  C 186.06 62.99 186.67 67.55 185.44 71.50
  C 183.55 77.61 179.86 84.49 173.92 86.93
  C 164.32 90.87 150.68 90.72 144.20 81.67
  Q 139.35 74.89 139.63 66.93
  Q 139.75 63.54 139.30 62.77
  C 137.63 59.94 134.14 61.09 132.67 63.42
  C 129.04 69.21 131.80 78.66 135.16 84.35
  C 141.33 94.82 151.99 98.99 164.01 98.37
  Q 184.52 97.31 192.28 79.08
  C 193.98 75.09 196.59 67.75 194.95 63.07
  Q 193.51 58.95 189.38 58.54
  A 0.72 0.71 18.3 0 0 188.71 58.87
  Z
  M 90.93 60.73
  C 89.82 63.76 89.39 64.94 89.21 67.88
  C 88.69 76.45 84.12 85.95 74.84 87.58
  Q 59.47 90.28 54.22 76.01
  Q 51.39 68.33 50.68 60.54
  A 1.64 1.63 -9.9 0 0 48.65 59.12
  Q 47.53 59.40 46.79 60.81
  C 41.44 70.92 46.70 86.42 55.65 92.64
  C 65.32 99.36 78.63 98.30 87.49 91.25
  C 93.16 86.75 96.66 79.58 97.80 72.35
  C 98.47 68.17 98.82 65.42 96.24 62.19
  Q 94.51 60.01 91.44 60.33
  A 0.61 0.61 0.0 0 0 90.93 60.73
  Z
  M 112.99 189.10
  C 125.38 207.33 147.05 211.62 167.12 203.41
  C 179.79 198.23 189.16 187.64 190.33 174.06
  C 191.36 162.24 187.49 150.70 176.41 146.10
  Q 168.57 142.85 156.54 140.65
  A 8.61 8.53 -25.8 0 1 154.20 139.85
  C 147.31 136.29 136.14 140.42 129.08 143.86
  C 120.72 147.93 113.16 155.64 109.84 163.87
  Q 104.63 176.80 112.99 189.10
  Z"
/>
<path fill="#910017" d="
  M 189.38 58.54
  Q 193.51 58.95 194.95 63.07
  C 196.59 67.75 193.98 75.09 192.28 79.08
  Q 184.52 97.31 164.01 98.37
  C 151.99 98.99 141.33 94.82 135.16 84.35
  C 131.80 78.66 129.04 69.21 132.67 63.42
  C 134.14 61.09 137.63 59.94 139.30 62.77
  Q 139.75 63.54 139.63 66.93
  Q 139.35 74.89 144.20 81.67
  C 150.68 90.72 164.32 90.87 173.92 86.93
  C 179.86 84.49 183.55 77.61 185.44 71.50
  C 186.67 67.55 186.06 62.99 188.71 58.87
  A 0.72 0.71 18.3 0 1 189.38 58.54
  Z"
/>
<path fill="#910017" d="
  M 90.93 60.73
  A 0.61 0.61 0.0 0 1 91.44 60.33
  Q 94.51 60.01 96.24 62.19
  C 98.82 65.42 98.47 68.17 97.80 72.35
  C 96.66 79.58 93.16 86.75 87.49 91.25
  C 78.63 98.30 65.32 99.36 55.65 92.64
  C 46.70 86.42 41.44 70.92 46.79 60.81
  Q 47.53 59.40 48.65 59.12
  A 1.64 1.63 -9.9 0 1 50.68 60.54
  Q 51.39 68.33 54.22 76.01
  Q 59.47 90.28 74.84 87.58
  C 84.12 85.95 88.69 76.45 89.21 67.88
  C 89.39 64.94 89.82 63.76 90.93 60.73
  Z"
/>
<path fill="#910017" d="
  M 112.99 189.10
  Q 104.63 176.80 109.84 163.87
  C 113.16 155.64 120.72 147.93 129.08 143.86
  C 136.14 140.42 147.31 136.29 154.20 139.85
  A 8.61 8.53 -25.8 0 0 156.54 140.65
  Q 168.57 142.85 176.41 146.10
  C 187.49 150.70 191.36 162.24 190.33 174.06
  C 189.16 187.64 179.79 198.23 167.12 203.41
  C 147.05 211.62 125.38 207.33 112.99 189.10
  Z
  M 146.83 145.19
  Q 129.19 147.75 119.98 162.81
  C 113.85 172.82 117.57 182.56 125.44 189.98
  C 133.89 197.95 146.54 200.02 157.73 197.18
  C 165.13 195.30 172.57 191.77 176.97 185.47
  Q 184.36 174.90 180.01 161.97
  Q 178.01 156.03 171.21 153.75
  Q 165.72 151.91 158.81 150.29
  C 155.24 149.45 152.42 147.82 149.82 145.93
  A 4.10 4.07 58.6 0 0 146.83 145.19
  Z"
/>
<path fill="#996666" d="
  M 146.83 145.19
  A 4.10 4.07 58.6 0 1 149.82 145.93
  C 152.42 147.82 155.24 149.45 158.81 150.29
  Q 165.72 151.91 171.21 153.75
  Q 178.01 156.03 180.01 161.97
  Q 184.36 174.90 176.97 185.47
  C 172.57 191.77 165.13 195.30 157.73 197.18
  C 146.54 200.02 133.89 197.95 125.44 189.98
  C 117.57 182.56 113.85 172.82 119.98 162.81
  Q 129.19 147.75 146.83 145.19
  Z"
/>
</svg>
