<?xml version="1.0" encoding="UTF-8" standalone="no"?>
<!DOCTYPE svg PUBLIC "-//W3C//DTD SVG 1.1//EN" "http://www.w3.org/Graphics/SVG/1.1/DTD/svg11.dtd">
<svg xmlns="http://www.w3.org/2000/svg" version="1.1" viewBox="0.00 0.00 256.00 256.00">
<g stroke-width="2.00" fill="none" stroke-linecap="butt">
<path stroke="#ff662b" vector-effect="non-scaling-stroke" d="
  M 142.2681 93.6716
  A 10.65 9.72 -13.9 0 0 129.5950 86.7946
  A 10.65 9.72 -13.9 0 0 121.5919 98.7884
  A 10.65 9.72 -13.9 0 0 134.2650 105.6654
  A 10.65 9.72 -13.9 0 0 142.2681 93.6716"
/>
<path stroke="#ff662b" vector-effect="non-scaling-stroke" d="
  M 106.2923 91.5686
  A 11.94 10.38 -29.4 0 0 90.7944 88.3868
  A 11.94 10.38 -29.4 0 0 85.4877 103.2914
  A 11.94 10.38 -29.4 0 0 100.9856 106.4732
  A 11.94 10.38 -29.4 0 0 106.2923 91.5686"
/>
<path stroke="#ff662b" vector-effect="non-scaling-stroke" d="
  M 134.67 126.27
  Q 133.66 125.98 130.19 124.83
  C 127.84 124.05 124.43 124.15 121.93 124.44
  Q 113.77 125.38 105.54 125.84
  Q 103.44 125.96 102.26 127.67
  A 2.19 2.14 41.2 0 0 102.47 130.37
  Q 104.23 132.29 106.75 132.56
  Q 117.67 133.71 126.99 131.53
  Q 130.32 130.75 134.79 126.84
  A 0.33 0.33 0.0 0 0 134.67 126.27"
/>
</g>
<path fill="#ff0022" d="
  M 256.00 0.00
  L 256.00 256.00
  L 0.00 256.00
  L 0.00 0.00
  L 256.00 0.00
  Z
  M 142.2681 93.6716
  A 10.65 9.72 -13.9 0 0 129.5950 86.7946
  A 10.65 9.72 -13.9 0 0 121.5919 98.7884
  A 10.65 9.72 -13.9 0 0 134.2650 105.6654
  A 10.65 9.72 -13.9 0 0 142.2681 93.6716
  Z
  M 106.2923 91.5686
  A 11.94 10.38 -29.4 0 0 90.7944 88.3868
  A 11.94 10.38 -29.4 0 0 85.4877 103.2914
  A 11.94 10.38 -29.4 0 0 100.9856 106.4732
  A 11.94 10.38 -29.4 0 0 106.2923 91.5686
  Z
  M 134.67 126.27
  Q 133.66 125.98 130.19 124.83
  C 127.84 124.05 124.43 124.15 121.93 124.44
  Q 113.77 125.38 105.54 125.84
  Q 103.44 125.96 102.26 127.67
  A 2.19 2.14 41.2 0 0 102.47 130.37
  Q 104.23 132.29 106.75 132.56
  Q 117.67 133.71 126.99 131.53
  Q 130.32 130.75 134.79 126.84
  A 0.33 0.33 0.0 0 0 134.67 126.27
  Z"
/>
<ellipse fill="#ffcc33" cx="0.00" cy="0.00" transform="translate(131.93,96.23) rotate(-13.9)" rx="10.65" ry="9.72"/>
<ellipse fill="#ffcc33" cx="0.00" cy="0.00" transform="translate(95.89,97.43) rotate(-29.4)" rx="11.94" ry="10.38"/>
<path fill="#ffcc33" d="
  M 134.79 126.84
  Q 130.32 130.75 126.99 131.53
  Q 117.67 133.71 106.75 132.56
  Q 104.23 132.29 102.47 130.37
  A 2.19 2.14 41.2 0 1 102.26 127.67
  Q 103.44 125.96 105.54 125.84
  Q 113.77 125.38 121.93 124.44
  C 124.43 124.15 127.84 124.05 130.19 124.83
  Q 133.66 125.98 134.67 126.27
  A 0.33 0.33 0.0 0 1 134.79 126.84
  Z"
/>
</svg>
