<?xml version="1.0" encoding="UTF-8" standalone="no"?>
<!DOCTYPE svg PUBLIC "-//W3C//DTD SVG 1.1//EN" "http://www.w3.org/Graphics/SVG/1.1/DTD/svg11.dtd">
<svg xmlns="http://www.w3.org/2000/svg" version="1.1" viewBox="0.00 0.00 256.00 256.00">
<g stroke-width="2.00" fill="none" stroke-linecap="butt">
<path stroke="#808080" vector-effect="non-scaling-stroke" d="
  M 58.1226 65.7464
  A 11.83 10.79 -170.2 0 0 67.9434 78.3926
  A 11.83 10.79 -170.2 0 0 81.4374 69.7736
  A 11.83 10.79 -170.2 0 0 71.6166 57.1274
  A 11.83 10.79 -170.2 0 0 58.1226 65.7464"
/>
<path stroke="#808080" vector-effect="non-scaling-stroke" d="
  M 163.85 66.39
  C 161.60 60.30 155.28 56.39 149.07 59.84
  Q 143.85 62.73 142.55 64.53
  Q 137.64 71.30 142.63 76.69
  C 149.71 84.34 168.30 78.48 163.85 66.39"
/>
<path stroke="#808080" vector-effect="non-scaling-stroke" d="
  M 148.4093 133.0003
  A 7.42 4.26 -102.3 0 0 145.8278 141.1575
  A 7.42 4.26 -102.3 0 0 151.5707 147.4997
  A 7.42 4.26 -102.3 0 0 154.1522 139.3425
  A 7.42 4.26 -102.3 0 0 148.4093 133.0003"
/>
<path stroke="#808080" vector-effect="non-scaling-stroke" d="
  M 94.87 151.17
  Q 98.43 153.22 101.03 149.43
  A 2.32 2.29 -25.0 0 0 101.43 148.35
  Q 101.96 143.53 101.08 138.64
  A 3.34 3.19 27.2 0 0 100.73 137.63
  Q 99.30 135.02 98.62 134.57
  C 95.65 132.58 92.35 134.12 92.21 137.75
  Q 92.19 138.27 92.72 147.74
  Q 92.84 150.00 94.87 151.17"
/>
<path stroke="#808080" vector-effect="non-scaling-stroke" d="
  M 140.81 151.18
  Q 143.72 150.58 143.88 146.76
  Q 144.13 140.71 140.39 134.87
  Q 139.19 133.01 137.15 133.43
  Q 135.10 133.85 134.74 136.04
  Q 133.62 142.88 136.25 148.34
  Q 137.90 151.78 140.81 151.18"
/>
<path stroke="#808080" vector-effect="non-scaling-stroke" d="
  M 86.82 137.12
  C 87.18 134.01 84.06 133.38 82.35 135.33
  C 78.55 139.68 75.00 148.36 80.23 153.22
  A 2.52 2.25 42.1 0 0 83.67 153.24
  Q 84.57 152.21 85.03 150.31
  Q 85.50 148.42 86.82 137.12"
/>
<path stroke="#808080" vector-effect="non-scaling-stroke" d="
  M 109.2983 134.5629
  A 8.10 4.51 -102.2 0 0 106.6019 143.4331
  A 8.10 4.51 -102.2 0 0 112.7217 150.3971
  A 8.10 4.51 -102.2 0 0 115.4181 141.5269
  A 8.10 4.51 -102.2 0 0 109.2983 134.5629"
/>
<path stroke="#808080" vector-effect="non-scaling-stroke" d="
  M 122.0530 135.6359
  A 7.34 4.23 -106.6 0 0 120.0963 143.8785
  A 7.34 4.23 -106.6 0 0 126.2470 149.7041
  A 7.34 4.23 -106.6 0 0 128.2037 141.4615
  A 7.34 4.23 -106.6 0 0 122.0530 135.6359"
/>
</g>
<path fill="#000000" d="
  M 256.00 0.00
  L 256.00 256.00
  L 0.00 256.00
  L 0.00 0.00
  L 256.00 0.00
  Z
  M 58.1226 65.7464
  A 11.83 10.79 -170.2 0 0 67.9434 78.3926
  A 11.83 10.79 -170.2 0 0 81.4374 69.7736
  A 11.83 10.79 -170.2 0 0 71.6166 57.1274
  A 11.83 10.79 -170.2 0 0 58.1226 65.7464
  Z
  M 163.85 66.39
  C 161.60 60.30 155.28 56.39 149.07 59.84
  Q 143.85 62.73 142.55 64.53
  Q 137.64 71.30 142.63 76.69
  C 149.71 84.34 168.30 78.48 163.85 66.39
  Z
  M 148.4093 133.0003
  A 7.42 4.26 -102.3 0 0 145.8278 141.1575
  A 7.42 4.26 -102.3 0 0 151.5707 147.4997
  A 7.42 4.26 -102.3 0 0 154.1522 139.3425
  A 7.42 4.26 -102.3 0 0 148.4093 133.0003
  Z
  M 94.87 151.17
  Q 98.43 153.22 101.03 149.43
  A 2.32 2.29 -25.0 0 0 101.43 148.35
  Q 101.96 143.53 101.08 138.64
  A 3.34 3.19 27.2 0 0 100.73 137.63
  Q 99.30 135.02 98.62 134.57
  C 95.65 132.58 92.35 134.12 92.21 137.75
  Q 92.19 138.27 92.72 147.74
  Q 92.84 150.00 94.87 151.17
  Z
  M 140.81 151.18
  Q 143.72 150.58 143.88 146.76
  Q 144.13 140.71 140.39 134.87
  Q 139.19 133.01 137.15 133.43
  Q 135.10 133.85 134.74 136.04
  Q 133.62 142.88 136.25 148.34
  Q 137.90 151.78 140.81 151.18
  Z
  M 86.82 137.12
  C 87.18 134.01 84.06 133.38 82.35 135.33
  C 78.55 139.68 75.00 148.36 80.23 153.22
  A 2.52 2.25 42.1 0 0 83.67 153.24
  Q 84.57 152.21 85.03 150.31
  Q 85.50 148.42 86.82 137.12
  Z
  M 109.2983 134.5629
  A 8.10 4.51 -102.2 0 0 106.6019 143.4331
  A 8.10 4.51 -102.2 0 0 112.7217 150.3971
  A 8.10 4.51 -102.2 0 0 115.4181 141.5269
  A 8.10 4.51 -102.2 0 0 109.2983 134.5629
  Z
  M 122.0530 135.6359
  A 7.34 4.23 -106.6 0 0 120.0963 143.8785
  A 7.34 4.23 -106.6 0 0 126.2470 149.7041
  A 7.34 4.23 -106.6 0 0 128.2037 141.4615
  A 7.34 4.23 -106.6 0 0 122.0530 135.6359
  Z"
/>
<ellipse fill="#ffffff" cx="0.00" cy="0.00" transform="translate(69.78,67.76) rotate(-170.2)" rx="11.83" ry="10.79"/>
<path fill="#ffffff" d="
  M 163.85 66.39
  C 168.30 78.48 149.71 84.34 142.63 76.69
  Q 137.64 71.30 142.55 64.53
  Q 143.85 62.73 149.07 59.84
  C 155.28 56.39 161.60 60.30 163.85 66.39
  Z"
/>
<ellipse fill="#ffffff" cx="0.00" cy="0.00" transform="translate(149.99,140.25) rotate(-102.3)" rx="7.42" ry="4.26"/>
<path fill="#ffffff" d="
  M 94.87 151.17
  Q 92.84 150.00 92.72 147.74
  Q 92.19 138.27 92.21 137.75
  C 92.35 134.12 95.65 132.58 98.62 134.57
  Q 99.30 135.02 100.73 137.63
  A 3.34 3.19 27.2 0 1 101.08 138.64
  Q 101.96 143.53 101.43 148.35
  A 2.32 2.29 -25.0 0 1 101.03 149.43
  Q 98.43 153.22 94.87 151.17
  Z"
/>
<path fill="#ffffff" d="
  M 137.15 133.43
  Q 139.19 133.01 140.39 134.87
  Q 144.13 140.71 143.88 146.76
  Q 143.72 150.58 140.81 151.18
  Q 137.90 151.78 136.25 148.34
  Q 133.62 142.88 134.74 136.04
  Q 135.10 133.85 137.15 133.43
  Z"
/>
<path fill="#ffffff" d="
  M 82.35 135.33
  C 84.06 133.38 87.18 134.01 86.82 137.12
  Q 85.50 148.42 85.03 150.31
  Q 84.57 152.21 83.67 153.24
  A 2.52 2.25 42.1 0 1 80.23 153.22
  C 75.00 148.36 78.55 139.68 82.35 135.33
  Z"
/>
<ellipse fill="#ffffff" cx="0.00" cy="0.00" transform="translate(111.01,142.48) rotate(-102.2)" rx="8.10" ry="4.51"/>
<ellipse fill="#ffffff" cx="0.00" cy="0.00" transform="translate(124.15,142.67) rotate(-106.6)" rx="7.34" ry="4.23"/>
</svg>
