<?xml version="1.0" encoding="UTF-8" standalone="no"?>
<!DOCTYPE svg PUBLIC "-//W3C//DTD SVG 1.1//EN" "http://www.w3.org/Graphics/SVG/1.1/DTD/svg11.dtd">
<svg xmlns="http://www.w3.org/2000/svg" version="1.1" viewBox="0.00 0.00 256.00 256.00">
<g stroke-width="2.00" fill="none" stroke-linecap="butt">
<path stroke="#ff6f91" vector-effect="non-scaling-stroke" d="
  M 87.05 64.48
  Q 88.26 64.37 88.70 64.91
  A 0.66 0.66 0.0 0 1 88.64 65.81
  C 84.48 69.67 83.78 77.38 90.66 78.33
  C 98.06 79.35 105.25 71.08 100.14 64.27
  C 96.85 59.88 92.08 61.03 87.68 63.20
  Q 87.16 63.46 86.78 64.03
  A 0.29 0.29 0.0 0 0 87.05 64.48"
/>
<path stroke="#ff6f91" vector-effect="non-scaling-stroke" d="
  M 140.22 63.83
  C 142.37 70.81 137.17 77.69 129.95 77.86
  A 1.24 1.23 -83.6 0 1 128.73 76.32
  Q 130.43 69.65 135.96 68.94
  A 1.88 1.88 0.0 0 0 137.36 66.15
  C 134.98 61.90 130.90 62.25 127.24 64.73
  Q 121.44 68.66 120.68 76.10
  C 119.86 84.12 128.14 88.42 134.69 84.15
  C 141.23 79.90 144.07 70.93 140.50 63.72
  A 0.15 0.15 0.0 0 0 140.31 63.65
  L 140.30 63.65
  A 0.15 0.14 70.3 0 0 140.22 63.83"
/>
<path stroke="#ff6f91" vector-effect="non-scaling-stroke" d="
  M 190.17 115.63
  C 191.10 118.58 190.16 119.84 189.69 122.48
  A 6.45 6.09 49.7 0 0 189.61 123.98
  C 190.71 140.93 187.13 158.00 181.46 174.00
  C 174.30 194.18 164.48 210.56 146.19 221.63
  C 130.25 231.27 106.55 240.84 88.57 230.92
  C 66.29 218.63 54.01 192.84 51.94 168.27
  C 50.40 150.01 53.47 128.88 57.59 111.17
  C 58.92 105.47 53.46 103.36 50.77 108.42
  Q 48.49 112.74 47.51 116.76
  C 42.19 138.56 40.00 164.93 45.84 186.22
  C 51.34 206.23 61.96 223.92 78.97 235.67
  Q 96.62 247.86 118.55 242.76
  Q 131.95 239.64 145.64 232.38
  Q 169.90 219.53 182.23 195.22
  C 191.89 176.17 198.24 153.66 198.95 132.00
  C 199.04 129.09 199.05 122.53 196.98 120.49
  Q 194.13 117.69 190.79 115.19
  A 0.40 0.40 0.0 0 0 190.17 115.63"
/>
<path stroke="#ff6f91" vector-effect="non-scaling-stroke" d="
  M 90.31 66.30
  C 89.10 67.38 86.87 71.97 88.20 73.80
  C 89.58 75.69 92.63 73.62 93.81 72.27
  A 2.65 2.64 -47.0 0 0 93.69 68.67
  L 91.34 66.33
  A 0.75 0.75 0.0 0 0 90.31 66.30"
/>
</g>
<path fill="#ffbb44" d="
  M 256.00 0.00
  L 256.00 256.00
  L 0.00 256.00
  L 0.00 0.00
  L 256.00 0.00
  Z
  M 87.05 64.48
  Q 88.26 64.37 88.70 64.91
  A 0.66 0.66 0.0 0 1 88.64 65.81
  C 84.48 69.67 83.78 77.38 90.66 78.33
  C 98.06 79.35 105.25 71.08 100.14 64.27
  C 96.85 59.88 92.08 61.03 87.68 63.20
  Q 87.16 63.46 86.78 64.03
  A 0.29 0.29 0.0 0 0 87.05 64.48
  Z
  M 140.22 63.83
  C 142.37 70.81 137.17 77.69 129.95 77.86
  A 1.24 1.23 -83.6 0 1 128.73 76.32
  Q 130.43 69.65 135.96 68.94
  A 1.88 1.88 0.0 0 0 137.36 66.15
  C 134.98 61.90 130.90 62.25 127.24 64.73
  Q 121.44 68.66 120.68 76.10
  C 119.86 84.12 128.14 88.42 134.69 84.15
  C 141.23 79.90 144.07 70.93 140.50 63.72
  A 0.15 0.15 0.0 0 0 140.31 63.65
  L 140.30 63.65
  A 0.15 0.14 70.3 0 0 140.22 63.83
  Z
  M 190.17 115.63
  C 191.10 118.58 190.16 119.84 189.69 122.48
  A 6.45 6.09 49.7 0 0 189.61 123.98
  C 190.71 140.93 187.13 158.00 181.46 174.00
  C 174.30 194.18 164.48 210.56 146.19 221.63
  C 130.25 231.27 106.55 240.84 88.57 230.92
  C 66.29 218.63 54.01 192.84 51.94 168.27
  C 50.40 150.01 53.47 128.88 57.59 111.17
  C 58.92 105.47 53.46 103.36 50.77 108.42
  Q 48.49 112.74 47.51 116.76
  C 42.19 138.56 40.00 164.93 45.84 186.22
  C 51.34 206.23 61.96 223.92 78.97 235.67
  Q 96.62 247.86 118.55 242.76
  Q 131.95 239.64 145.64 232.38
  Q 169.90 219.53 182.23 195.22
  C 191.89 176.17 198.24 153.66 198.95 132.00
  C 199.04 129.09 199.05 122.53 196.98 120.49
  Q 194.13 117.69 190.79 115.19
  A 0.40 0.40 0.0 0 0 190.17 115.63
  Z"
/>
<path fill="#ff22dd" d="
  M 86.78 64.03
  Q 87.16 63.46 87.68 63.20
  C 92.08 61.03 96.85 59.88 100.14 64.27
  C 105.25 71.08 98.06 79.35 90.66 78.33
  C 83.78 77.38 84.48 69.67 88.64 65.81
  A 0.66 0.66 0.0 0 0 88.70 64.91
  Q 88.26 64.37 87.05 64.48
  A 0.29 0.29 0.0 0 1 86.78 64.03
  Z
  M 90.31 66.30
  C 89.10 67.38 86.87 71.97 88.20 73.80
  C 89.58 75.69 92.63 73.62 93.81 72.27
  A 2.65 2.64 -47.0 0 0 93.69 68.67
  L 91.34 66.33
  A 0.75 0.75 0.0 0 0 90.31 66.30
  Z"
/>
<path fill="#ff22dd" d="
  M 140.22 63.83
  A 0.15 0.14 70.3 0 1 140.30 63.65
  L 140.31 63.65
  A 0.15 0.15 0.0 0 1 140.50 63.72
  C 144.07 70.93 141.23 79.90 134.69 84.15
  C 128.14 88.42 119.86 84.12 120.68 76.10
  Q 121.44 68.66 127.24 64.73
  C 130.90 62.25 134.98 61.90 137.36 66.15
  A 1.88 1.88 0.0 0 1 135.96 68.94
  Q 130.43 69.65 128.73 76.32
  A 1.24 1.23 -83.6 0 0 129.95 77.86
  C 137.17 77.69 142.37 70.81 140.22 63.83
  Z"
/>
<path fill="#ffbb44" d="
  M 91.34 66.33
  L 93.69 68.67
  A 2.65 2.64 -47.0 0 1 93.81 72.27
  C 92.63 73.62 89.58 75.69 88.20 73.80
  C 86.87 71.97 89.10 67.38 90.31 66.30
  A 0.75 0.75 0.0 0 1 91.34 66.33
  Z"
/>
<path fill="#ff22dd" d="
  M 190.17 115.63
  A 0.40 0.40 0.0 0 1 190.79 115.19
  Q 194.13 117.69 196.98 120.49
  C 199.05 122.53 199.04 129.09 198.95 132.00
  C 198.24 153.66 191.89 176.17 182.23 195.22
  Q 169.90 219.53 145.64 232.38
  Q 131.95 239.64 118.55 242.76
  Q 96.62 247.86 78.97 235.67
  C 61.96 223.92 51.34 206.23 45.84 186.22
  C 40.00 164.93 42.19 138.56 47.51 116.76
  Q 48.49 112.74 50.77 108.42
  C 53.46 103.36 58.92 105.47 57.59 111.17
  C 53.47 128.88 50.40 150.01 51.94 168.27
  C 54.01 192.84 66.29 218.63 88.57 230.92
  C 106.55 240.84 130.25 231.27 146.19 221.63
  C 164.48 210.56 174.30 194.18 181.46 174.00
  C 187.13 158.00 190.71 140.93 189.61 123.98
  A 6.45 6.09 49.7 0 1 189.69 122.48
  C 190.16 119.84 191.10 118.58 190.17 115.63
  Z"
/>
</svg>
