<?xml version="1.0" encoding="UTF-8" standalone="no"?>
<!DOCTYPE svg PUBLIC "-//W3C//DTD SVG 1.1//EN" "http://www.w3.org/Graphics/SVG/1.1/DTD/svg11.dtd">
<svg xmlns="http://www.w3.org/2000/svg" version="1.1" viewBox="0.00 0.00 256.00 256.00">
<g stroke-width="2.00" fill="none" stroke-linecap="butt">
<path stroke="#a48078" vector-effect="non-scaling-stroke" d="
  M 62.33 61.79
  Q 61.19 62.41 52.14 67.60
  C 49.42 69.16 48.94 72.79 51.54 74.73
  A 1.88 1.85 -23.7 0 0 52.46 75.08
  C 58.24 75.62 62.53 72.34 67.82 68.82
  A 0.44 0.44 0.0 0 1 68.50 69.11
  Q 69.26 73.62 69.95 78.35
  C 70.54 82.41 74.07 84.39 77.49 81.27
  Q 79.61 79.34 78.71 75.56
  Q 78.46 74.51 77.68 68.62
  A 0.37 0.37 0.0 0 1 78.19 68.23
  Q 80.36 69.16 86.59 72.10
  Q 89.78 73.61 93.10 72.14
  A 1.48 1.48 0.0 0 0 93.84 71.40
  C 94.86 69.09 93.76 67.28 92.38 65.54
  C 90.52 63.18 85.10 61.35 82.39 60.26
  A 0.28 0.27 38.3 0 1 82.33 59.78
  L 90.65 54.08
  A 4.72 4.71 56.5 0 0 91.96 47.65
  L 91.75 47.35
  A 4.37 4.37 0.0 0 0 85.76 46.35
  L 75.57 53.35
  A 0.37 0.37 0.0 0 1 75.01 53.16
  L 72.63 45.35
  A 2.37 2.36 -3.8 0 0 70.75 43.71
  Q 67.55 43.18 66.62 45.85
  A 0.96 0.87 56.2 0 0 66.58 46.12
  L 66.76 52.71
  A 0.49 0.49 0.0 0 1 66.00 53.14
  C 63.67 51.64 56.60 47.80 54.18 50.48
  C 49.72 55.43 58.89 59.71 62.32 61.29
  A 0.28 0.28 0.0 0 1 62.33 61.79"
/>
<path stroke="#a48078" vector-effect="non-scaling-stroke" d="
  M 160.87 55.39
  Q 160.63 51.22 160.02 47.23
  C 159.67 44.92 156.95 42.54 154.52 44.09
  Q 152.43 45.43 152.09 47.79
  Q 151.55 51.49 151.72 57.65
  A 0.41 0.41 0.0 0 1 151.14 58.04
  C 148.43 56.83 143.40 53.05 138.70 52.77
  A 2.10 2.02 -53.8 0 0 137.77 52.93
  Q 134.25 54.38 135.74 58.15
  A 2.21 2.17 -79.7 0 0 136.27 58.93
  Q 140.39 62.84 146.25 65.65
  A 0.42 0.42 0.0 0 1 146.32 66.36
  C 142.83 68.98 135.49 73.54 138.54 78.00
  A 1.59 1.55 -5.3 0 0 139.23 78.56
  Q 142.88 80.09 146.12 77.80
  Q 150.52 74.69 151.92 73.27
  A 0.35 0.34 -25.2 0 1 152.51 73.48
  L 153.09 81.46
  A 3.77 3.76 85.7 0 0 157.12 84.94
  L 158.18 84.87
  A 4.20 4.20 0.0 0 0 162.06 80.37
  L 161.61 74.18
  A 0.42 0.41 -79.6 0 1 162.20 73.77
  L 170.56 77.68
  A 4.44 4.43 -63.6 0 0 176.37 75.72
  L 176.47 75.52
  A 4.44 4.44 0.0 0 0 174.38 69.51
  L 164.46 64.85
  A 0.37 0.37 0.0 0 1 164.42 64.20
  Q 169.34 61.07 174.70 57.00
  C 176.28 55.80 178.42 52.89 177.48 50.72
  C 176.14 47.64 173.21 47.66 170.50 49.22
  Q 166.35 51.61 161.20 55.54
  A 0.20 0.20 0.0 0 1 160.87 55.39"
/>
<path stroke="#a48078" vector-effect="non-scaling-stroke" d="
  M 113.89 180.74
  Q 113.42 181.03 113.46 181.46
  Q 113.51 181.87 114.11 182.13
  C 117.92 183.82 122.50 187.87 126.94 189.94
  C 138.25 195.20 150.95 197.11 163.26 197.38
  Q 189.31 197.94 211.43 189.48
  Q 221.24 185.73 228.97 180.21
  C 231.48 178.41 234.21 175.43 232.12 172.49
  Q 230.36 170.00 227.13 170.17
  Q 221.39 170.47 220.75 170.45
  Q 170.28 169.27 118.75 171.25
  Q 72.18 173.04 65.44 173.20
  A 4.09 4.09 0.0 0 0 61.44 177.24
  L 61.43 177.56
  A 4.15 4.14 1.6 0 0 65.39 181.75
  Q 74.94 182.16 85.94 181.65
  Q 101.50 180.94 113.80 180.43
  A 0.17 0.17 0.0 0 1 113.89 180.74"
/>
<path stroke="#a48078" vector-effect="non-scaling-stroke" d="
  M 117.44 180.61
  C 120.39 181.11 124.01 181.78 127.25 182.86
  Q 142.33 187.89 158.73 188.53
  C 177.91 189.28 195.09 186.93 212.57 179.66
  A 0.16 0.16 0.0 0 0 212.51 179.35
  Q 166.88 178.45 117.46 180.38
  A 0.12 0.11 -40.6 0 0 117.44 180.61"
/>
</g>
<path fill="#910000" d="
  M 256.00 0.00
  L 256.00 256.00
  L 0.00 256.00
  L 0.00 0.00
  L 256.00 0.00
  Z
  M 62.33 61.79
  Q 61.19 62.41 52.14 67.60
  C 49.42 69.16 48.94 72.79 51.54 74.73
  A 1.88 1.85 -23.7 0 0 52.46 75.08
  C 58.24 75.62 62.53 72.34 67.82 68.82
  A 0.44 0.44 0.0 0 1 68.50 69.11
  Q 69.26 73.62 69.95 78.35
  C 70.54 82.41 74.07 84.39 77.49 81.27
  Q 79.61 79.34 78.71 75.56
  Q 78.46 74.51 77.68 68.62
  A 0.37 0.37 0.0 0 1 78.19 68.23
  Q 80.36 69.16 86.59 72.10
  Q 89.78 73.61 93.10 72.14
  A 1.48 1.48 0.0 0 0 93.84 71.40
  C 94.86 69.09 93.76 67.28 92.38 65.54
  C 90.52 63.18 85.10 61.35 82.39 60.26
  A 0.28 0.27 38.3 0 1 82.33 59.78
  L 90.65 54.08
  A 4.72 4.71 56.5 0 0 91.96 47.65
  L 91.75 47.35
  A 4.37 4.37 0.0 0 0 85.76 46.35
  L 75.57 53.35
  A 0.37 0.37 0.0 0 1 75.01 53.16
  L 72.63 45.35
  A 2.37 2.36 -3.8 0 0 70.75 43.71
  Q 67.55 43.18 66.62 45.85
  A 0.96 0.87 56.2 0 0 66.58 46.12
  L 66.76 52.71
  A 0.49 0.49 0.0 0 1 66.00 53.14
  C 63.67 51.64 56.60 47.80 54.18 50.48
  C 49.72 55.43 58.89 59.71 62.32 61.29
  A 0.28 0.28 0.0 0 1 62.33 61.79
  Z
  M 160.87 55.39
  Q 160.63 51.22 160.02 47.23
  C 159.67 44.92 156.95 42.54 154.52 44.09
  Q 152.43 45.43 152.09 47.79
  Q 151.55 51.49 151.72 57.65
  A 0.41 0.41 0.0 0 1 151.14 58.04
  C 148.43 56.83 143.40 53.05 138.70 52.77
  A 2.10 2.02 -53.8 0 0 137.77 52.93
  Q 134.25 54.38 135.74 58.15
  A 2.21 2.17 -79.7 0 0 136.27 58.93
  Q 140.39 62.84 146.25 65.65
  A 0.42 0.42 0.0 0 1 146.32 66.36
  C 142.83 68.98 135.49 73.54 138.54 78.00
  A 1.59 1.55 -5.3 0 0 139.23 78.56
  Q 142.88 80.09 146.12 77.80
  Q 150.52 74.69 151.92 73.27
  A 0.35 0.34 -25.2 0 1 152.51 73.48
  L 153.09 81.46
  A 3.77 3.76 85.7 0 0 157.12 84.94
  L 158.18 84.87
  A 4.20 4.20 0.0 0 0 162.06 80.37
  L 161.61 74.18
  A 0.42 0.41 -79.6 0 1 162.20 73.77
  L 170.56 77.68
  A 4.44 4.43 -63.6 0 0 176.37 75.72
  L 176.47 75.52
  A 4.44 4.44 0.0 0 0 174.38 69.51
  L 164.46 64.85
  A 0.37 0.37 0.0 0 1 164.42 64.20
  Q 169.34 61.07 174.70 57.00
  C 176.28 55.80 178.42 52.89 177.48 50.72
  C 176.14 47.64 173.21 47.66 170.50 49.22
  Q 166.35 51.61 161.20 55.54
  A 0.20 0.20 0.0 0 1 160.87 55.39
  Z
  M 113.89 180.74
  Q 113.42 181.03 113.46 181.46
  Q 113.51 181.87 114.11 182.13
  C 117.92 183.82 122.50 187.87 126.94 189.94
  C 138.25 195.20 150.95 197.11 163.26 197.38
  Q 189.31 197.94 211.43 189.48
  Q 221.24 185.73 228.97 180.21
  C 231.48 178.41 234.21 175.43 232.12 172.49
  Q 230.36 170.00 227.13 170.17
  Q 221.39 170.47 220.75 170.45
  Q 170.28 169.27 118.75 171.25
  Q 72.18 173.04 65.44 173.20
  A 4.09 4.09 0.0 0 0 61.44 177.24
  L 61.43 177.56
  A 4.15 4.14 1.6 0 0 65.39 181.75
  Q 74.94 182.16 85.94 181.65
  Q 101.50 180.94 113.80 180.43
  A 0.17 0.17 0.0 0 1 113.89 180.74
  Z"
/>
<path fill="#b6fff0" d="
  M 62.33 61.79
  A 0.28 0.28 0.0 0 0 62.32 61.29
  C 58.89 59.71 49.72 55.43 54.18 50.48
  C 56.60 47.80 63.67 51.64 66.00 53.14
  A 0.49 0.49 0.0 0 0 66.76 52.71
  L 66.58 46.12
  A 0.96 0.87 56.2 0 1 66.62 45.85
  Q 67.55 43.18 70.75 43.71
  A 2.37 2.36 -3.8 0 1 72.63 45.35
  L 75.01 53.16
  A 0.37 0.37 0.0 0 0 75.57 53.35
  L 85.76 46.35
  A 4.37 4.37 0.0 0 1 91.75 47.35
  L 91.96 47.65
  A 4.72 4.71 56.5 0 1 90.65 54.08
  L 82.33 59.78
  A 0.28 0.27 38.3 0 0 82.39 60.26
  C 85.10 61.35 90.52 63.18 92.38 65.54
  C 93.76 67.28 94.86 69.09 93.84 71.40
  A 1.48 1.48 0.0 0 1 93.10 72.14
  Q 89.78 73.61 86.59 72.10
  Q 80.36 69.16 78.19 68.23
  A 0.37 0.37 0.0 0 0 77.68 68.62
  Q 78.46 74.51 78.71 75.56
  Q 79.61 79.34 77.49 81.27
  C 74.07 84.39 70.54 82.41 69.95 78.35
  Q 69.26 73.62 68.50 69.11
  A 0.44 0.44 0.0 0 0 67.82 68.82
  C 62.53 72.34 58.24 75.62 52.46 75.08
  A 1.88 1.85 -23.7 0 1 51.54 74.73
  C 48.94 72.79 49.42 69.16 52.14 67.60
  Q 61.19 62.41 62.33 61.79
  Z"
/>
<path fill="#b6fff0" d="
  M 160.87 55.39
  A 0.20 0.20 0.0 0 0 161.20 55.54
  Q 166.35 51.61 170.50 49.22
  C 173.21 47.66 176.14 47.64 177.48 50.72
  C 178.42 52.89 176.28 55.80 174.70 57.00
  Q 169.34 61.07 164.42 64.20
  A 0.37 0.37 0.0 0 0 164.46 64.85
  L 174.38 69.51
  A 4.44 4.44 0.0 0 1 176.47 75.52
  L 176.37 75.72
  A 4.44 4.43 -63.6 0 1 170.56 77.68
  L 162.20 73.77
  A 0.42 0.41 -79.6 0 0 161.61 74.18
  L 162.06 80.37
  A 4.20 4.20 0.0 0 1 158.18 84.87
  L 157.12 84.94
  A 3.77 3.76 85.7 0 1 153.09 81.46
  L 152.51 73.48
  A 0.35 0.34 -25.2 0 0 151.92 73.27
  Q 150.52 74.69 146.12 77.80
  Q 142.88 80.09 139.23 78.56
  A 1.59 1.55 -5.3 0 1 138.54 78.00
  C 135.49 73.54 142.83 68.98 146.32 66.36
  A 0.42 0.42 0.0 0 0 146.25 65.65
  Q 140.39 62.84 136.27 58.93
  A 2.21 2.17 -79.7 0 1 135.74 58.15
  Q 134.25 54.38 137.77 52.93
  A 2.10 2.02 -53.8 0 1 138.70 52.77
  C 143.40 53.05 148.43 56.83 151.14 58.04
  A 0.41 0.41 0.0 0 0 151.72 57.65
  Q 151.55 51.49 152.09 47.79
  Q 152.43 45.43 154.52 44.09
  C 156.95 42.54 159.67 44.92 160.02 47.23
  Q 160.63 51.22 160.87 55.39
  Z"
/>
<path fill="#b6fff0" d="
  M 113.89 180.74
  A 0.17 0.17 0.0 0 0 113.80 180.43
  Q 101.50 180.94 85.94 181.65
  Q 74.94 182.16 65.39 181.75
  A 4.15 4.14 1.6 0 1 61.43 177.56
  L 61.44 177.24
  A 4.09 4.09 0.0 0 1 65.44 173.20
  Q 72.18 173.04 118.75 171.25
  Q 170.28 169.27 220.75 170.45
  Q 221.39 170.47 227.13 170.17
  Q 230.36 170.00 232.12 172.49
  C 234.21 175.43 231.48 178.41 228.97 180.21
  Q 221.24 185.73 211.43 189.48
  Q 189.31 197.94 163.26 197.38
  C 150.95 197.11 138.25 195.20 126.94 189.94
  C 122.50 187.87 117.92 183.82 114.11 182.13
  Q 113.51 181.87 113.46 181.46
  Q 113.42 181.03 113.89 180.74
  Z
  M 117.44 180.61
  C 120.39 181.11 124.01 181.78 127.25 182.86
  Q 142.33 187.89 158.73 188.53
  C 177.91 189.28 195.09 186.93 212.57 179.66
  A 0.16 0.16 0.0 0 0 212.51 179.35
  Q 166.88 178.45 117.46 180.38
  A 0.12 0.11 -40.6 0 0 117.44 180.61
  Z"
/>
<path fill="#910000" d="
  M 117.44 180.61
  A 0.12 0.11 -40.6 0 1 117.46 180.38
  Q 166.88 178.45 212.51 179.35
  A 0.16 0.16 0.0 0 1 212.57 179.66
  C 195.09 186.93 177.91 189.28 158.73 188.53
  Q 142.33 187.89 127.25 182.86
  C 124.01 181.78 120.39 181.11 117.44 180.61
  Z"
/>
</svg>
