<?xml version="1.0" encoding="UTF-8" standalone="no"?>
<!DOCTYPE svg PUBLIC "-//W3C//DTD SVG 1.1//EN" "http://www.w3.org/Graphics/SVG/1.1/DTD/svg11.dtd">
<svg xmlns="http://www.w3.org/2000/svg" version="1.1" viewBox="0.00 0.00 256.00 256.00">
<g stroke-width="2.00" fill="none" stroke-linecap="butt">
<path stroke="#a24d37" vector-effect="non-scaling-stroke" d="
  M 172.42 45.85
  C 165.56 48.61 159.17 58.36 160.86 65.79
  C 163.29 76.45 175.42 78.17 184.03 74.70
  C 192.65 71.23 200.21 61.59 194.57 52.22
  C 190.64 45.69 179.28 43.09 172.42 45.85"
/>
<path stroke="#a24d37" vector-effect="non-scaling-stroke" d="
  M 74.67 71.34
  C 83.76 78.82 99.58 69.48 98.45 58.02
  Q 97.86 52.11 93.47 48.50
  Q 89.07 44.88 83.16 45.45
  C 71.70 46.54 65.58 63.86 74.67 71.34"
/>
<path stroke="#a24d37" vector-effect="non-scaling-stroke" d="
  M 182.34 163.71
  C 201.08 163.88 218.81 163.18 237.91 160.90
  Q 244.06 160.17 249.23 158.38
  A 4.23 4.22 73.1 0 0 251.93 153.31
  L 251.85 152.99
  A 4.22 4.22 0.0 0 0 246.86 149.94
  Q 235.01 152.54 222.24 153.43
  Q 202.30 154.82 182.42 154.64
  Q 162.53 154.46 142.63 152.71
  Q 129.87 151.58 118.07 148.76
  A 4.22 4.22 0.0 0 0 113.03 151.72
  L 112.94 152.04
  A 4.23 4.22 -72.0 0 0 115.55 157.16
  Q 120.69 159.04 126.82 159.89
  C 145.87 162.52 163.59 163.54 182.34 163.71"
/>
</g>
<path fill="#45006d" d="
  M 256.00 0.00
  L 256.00 256.00
  L 0.00 256.00
  L 0.00 0.00
  L 256.00 0.00
  Z
  M 172.42 45.85
  C 165.56 48.61 159.17 58.36 160.86 65.79
  C 163.29 76.45 175.42 78.17 184.03 74.70
  C 192.65 71.23 200.21 61.59 194.57 52.22
  C 190.64 45.69 179.28 43.09 172.42 45.85
  Z
  M 74.67 71.34
  C 83.76 78.82 99.58 69.48 98.45 58.02
  Q 97.86 52.11 93.47 48.50
  Q 89.07 44.88 83.16 45.45
  C 71.70 46.54 65.58 63.86 74.67 71.34
  Z
  M 182.34 163.71
  C 201.08 163.88 218.81 163.18 237.91 160.90
  Q 244.06 160.17 249.23 158.38
  A 4.23 4.22 73.1 0 0 251.93 153.31
  L 251.85 152.99
  A 4.22 4.22 0.0 0 0 246.86 149.94
  Q 235.01 152.54 222.24 153.43
  Q 202.30 154.82 182.42 154.64
  Q 162.53 154.46 142.63 152.71
  Q 129.87 151.58 118.07 148.76
  A 4.22 4.22 0.0 0 0 113.03 151.72
  L 112.94 152.04
  A 4.23 4.22 -72.0 0 0 115.55 157.16
  Q 120.69 159.04 126.82 159.89
  C 145.87 162.52 163.59 163.54 182.34 163.71
  Z"
/>
<path fill="#ff9900" d="
  M 184.03 74.70
  C 175.42 78.17 163.29 76.45 160.86 65.79
  C 159.17 58.36 165.56 48.61 172.42 45.85
  C 179.28 43.09 190.64 45.69 194.57 52.22
  C 200.21 61.59 192.65 71.23 184.03 74.70
  Z"
/>
<path fill="#ff9900" d="
  M 93.47 48.50
  Q 97.86 52.11 98.45 58.02
  C 99.58 69.48 83.76 78.82 74.67 71.34
  C 65.58 63.86 71.70 46.54 83.16 45.45
  Q 89.07 44.88 93.47 48.50
  Z"
/>
<path fill="#ff9900" d="
  M 182.42 154.64
  Q 202.30 154.82 222.24 153.43
  Q 235.01 152.54 246.86 149.94
  A 4.22 4.22 0.0 0 1 251.85 152.99
  L 251.93 153.31
  A 4.23 4.22 73.1 0 1 249.23 158.38
  Q 244.06 160.17 237.91 160.90
  C 218.81 163.18 201.08 163.88 182.34 163.71
  C 163.59 163.54 145.87 162.52 126.82 159.89
  Q 120.69 159.04 115.55 157.16
  A 4.23 4.22 -72.0 0 1 112.94 152.04
  L 113.03 151.72
  A 4.22 4.22 0.0 0 1 118.07 148.76
  Q 129.87 151.58 142.63 152.71
  Q 162.53 154.46 182.42 154.64
  Z"
/>
</svg>
