<?xml version="1.0" encoding="UTF-8" standalone="no"?>
<!DOCTYPE svg PUBLIC "-//W3C//DTD SVG 1.1//EN" "http://www.w3.org/Graphics/SVG/1.1/DTD/svg11.dtd">
<svg xmlns="http://www.w3.org/2000/svg" version="1.1" viewBox="0.00 0.00 256.00 256.00">
<g stroke-width="2.00" fill="none" stroke-linecap="butt">
<path stroke="#3a4ddb" vector-effect="non-scaling-stroke" d="
  M 41.93 86.38
  Q 44.10 88.21 46.68 88.24
  Q 58.12 88.41 62.50 88.28
  Q 99.74 87.16 149.25 84.39
  Q 178.09 82.78 236.13 80.20
  Q 239.06 80.07 240.19 79.58
  Q 242.12 78.76 243.20 76.81
  A 2.97 2.58 37.5 0 0 242.52 73.47
  C 241.00 72.01 238.77 71.25 236.48 71.28
  C 215.08 71.57 192.70 73.21 173.48 74.07
  A 1.64 1.63 70.1 0 1 172.10 73.42
  C 171.28 72.32 170.51 71.03 169.57 70.12
  Q 164.03 64.72 153.72 54.06
  Q 149.15 49.34 143.58 44.96
  C 116.32 23.59 81.23 29.95 56.56 51.49
  C 49.62 57.55 40.79 69.25 41.39 78.78
  Q 41.65 82.99 41.57 85.56
  A 1.02 1.01 -69.0 0 0 41.93 86.38"
/>
<path stroke="#3a4ddb" vector-effect="non-scaling-stroke" d="
  M 110.56 106.18
  C 103.73 101.06 95.05 108.68 92.34 114.79
  C 88.48 123.50 91.86 133.26 101.26 136.05
  Q 108.77 138.29 116.68 134.91
  C 124.22 131.70 130.19 124.00 125.53 115.72
  Q 122.02 109.49 115.45 107.11
  C 114.02 106.59 111.50 106.89 110.56 106.18"
/>
<path stroke="#3a4ddb" vector-effect="non-scaling-stroke" d="
  M 152.51 132.86
  C 160.67 133.00 170.63 129.40 170.50 119.65
  Q 170.46 116.43 167.97 113.36
  Q 162.52 106.65 153.32 109.94
  Q 153.25 109.96 152.92 109.96
  Q 152.59 109.95 152.52 109.92
  Q 143.44 106.31 137.75 112.82
  Q 135.15 115.80 135.00 119.02
  C 134.52 128.76 144.35 132.71 152.51 132.86"
/>
<path stroke="#3a4ddb" vector-effect="non-scaling-stroke" d="
  M 94.60 166.24
  C 89.31 177.75 99.51 188.15 110.69 189.08
  Q 120.72 189.92 129.47 183.90
  Q 136.29 179.20 139.17 174.09
  A 1.06 1.04 14.5 0 1 140.09 173.56
  Q 151.67 173.63 161.73 172.45
  C 166.24 171.92 172.63 171.36 174.16 167.34
  C 175.76 163.15 171.79 161.64 168.39 162.23
  Q 143.04 166.61 116.97 162.55
  Q 108.63 161.25 97.25 159.19
  C 94.17 158.63 89.96 160.96 93.34 164.20
  Q 94.27 165.10 94.47 165.33
  A 0.85 0.84 -53.4 0 1 94.60 166.24"
/>
<path stroke="#3a4ddb" vector-effect="non-scaling-stroke" d="
  M 161.10 74.31
  Q 152.44 65.66 145.15 58.37
  Q 121.04 34.25 89.67 43.16
  Q 81.67 45.44 74.23 49.76
  C 61.57 57.11 52.00 66.43 47.93 80.59
  A 0.45 0.45 0.0 0 0 48.44 81.16
  C 54.91 79.96 60.60 79.27 67.56 79.04
  Q 112.36 77.58 161.01 74.54
  A 0.14 0.13 -24.1 0 0 161.10 74.31"
/>
<path stroke="#3a4ddb" vector-effect="non-scaling-stroke" d="
  M 108.61 111.43
  Q 103.29 112.98 100.73 118.24
  C 98.60 122.64 100.23 127.32 105.53 127.75
  Q 111.60 128.23 115.87 125.00
  Q 120.24 121.69 115.85 117.85
  Q 111.93 114.41 109.28 111.61
  A 0.66 0.65 59.9 0 0 108.61 111.43"
/>
<path stroke="#3a4ddb" vector-effect="non-scaling-stroke" d="
  M 155.18 114.92
  L 154.79 115.59
  A 1.09 1.05 -80.6 0 1 154.09 116.11
  C 151.64 116.64 147.24 116.36 144.91 118.38
  A 2.10 1.93 -43.7 0 0 144.71 121.39
  C 148.21 124.61 158.88 124.78 161.89 120.77
  A 1.99 1.98 33.4 0 0 161.29 117.86
  L 155.88 114.74
  A 0.51 0.51 0.0 0 0 155.18 114.92"
/>
<path stroke="#3a4ddb" vector-effect="non-scaling-stroke" d="
  M 128.17 172.94
  Q 113.63 171.98 101.87 168.57
  A 0.41 0.41 0.0 0 0 101.34 168.99
  Q 101.82 175.62 106.11 178.33
  C 113.01 182.71 122.66 178.80 128.32 173.35
  A 0.24 0.24 0.0 0 0 128.17 172.94"
/>
</g>
<path fill="#7300b6" d="
  M 256.00 0.00
  L 256.00 256.00
  L 0.00 256.00
  L 0.00 0.00
  L 256.00 0.00
  Z
  M 41.93 86.38
  Q 44.10 88.21 46.68 88.24
  Q 58.12 88.41 62.50 88.28
  Q 99.74 87.16 149.25 84.39
  Q 178.09 82.78 236.13 80.20
  Q 239.06 80.07 240.19 79.58
  Q 242.12 78.76 243.20 76.81
  A 2.97 2.58 37.5 0 0 242.52 73.47
  C 241.00 72.01 238.77 71.25 236.48 71.28
  C 215.08 71.57 192.70 73.21 173.48 74.07
  A 1.64 1.63 70.1 0 1 172.10 73.42
  C 171.28 72.32 170.51 71.03 169.57 70.12
  Q 164.03 64.72 153.72 54.06
  Q 149.15 49.34 143.58 44.96
  C 116.32 23.59 81.23 29.95 56.56 51.49
  C 49.62 57.55 40.79 69.25 41.39 78.78
  Q 41.65 82.99 41.57 85.56
  A 1.02 1.01 -69.0 0 0 41.93 86.38
  Z
  M 110.56 106.18
  C 103.73 101.06 95.05 108.68 92.34 114.79
  C 88.48 123.50 91.86 133.26 101.26 136.05
  Q 108.77 138.29 116.68 134.91
  C 124.22 131.70 130.19 124.00 125.53 115.72
  Q 122.02 109.49 115.45 107.11
  C 114.02 106.59 111.50 106.89 110.56 106.18
  Z
  M 152.51 132.86
  C 160.67 133.00 170.63 129.40 170.50 119.65
  Q 170.46 116.43 167.97 113.36
  Q 162.52 106.65 153.32 109.94
  Q 153.25 109.96 152.92 109.96
  Q 152.59 109.95 152.52 109.92
  Q 143.44 106.31 137.75 112.82
  Q 135.15 115.80 135.00 119.02
  C 134.52 128.76 144.35 132.71 152.51 132.86
  Z
  M 94.60 166.24
  C 89.31 177.75 99.51 188.15 110.69 189.08
  Q 120.72 189.92 129.47 183.90
  Q 136.29 179.20 139.17 174.09
  A 1.06 1.04 14.5 0 1 140.09 173.56
  Q 151.67 173.63 161.73 172.45
  C 166.24 171.92 172.63 171.36 174.16 167.34
  C 175.76 163.15 171.79 161.64 168.39 162.23
  Q 143.04 166.61 116.97 162.55
  Q 108.63 161.25 97.25 159.19
  C 94.17 158.63 89.96 160.96 93.34 164.20
  Q 94.27 165.10 94.47 165.33
  A 0.85 0.84 -53.4 0 1 94.60 166.24
  Z"
/>
<path fill="#0099ff" d="
  M 41.93 86.38
  A 1.02 1.01 -69.0 0 1 41.57 85.56
  Q 41.65 82.99 41.39 78.78
  C 40.79 69.25 49.62 57.55 56.56 51.49
  C 81.23 29.95 116.32 23.59 143.58 44.96
  Q 149.15 49.34 153.72 54.06
  Q 164.03 64.72 169.57 70.12
  C 170.51 71.03 171.28 72.32 172.10 73.42
  A 1.64 1.63 70.1 0 0 173.48 74.07
  C 192.70 73.21 215.08 71.57 236.48 71.28
  C 238.77 71.25 241.00 72.01 242.52 73.47
  A 2.97 2.58 37.5 0 1 243.20 76.81
  Q 242.12 78.76 240.19 79.58
  Q 239.06 80.07 236.13 80.20
  Q 178.09 82.78 149.25 84.39
  Q 99.74 87.16 62.50 88.28
  Q 58.12 88.41 46.68 88.24
  Q 44.10 88.21 41.93 86.38
  Z
  M 161.10 74.31
  Q 152.44 65.66 145.15 58.37
  Q 121.04 34.25 89.67 43.16
  Q 81.67 45.44 74.23 49.76
  C 61.57 57.11 52.00 66.43 47.93 80.59
  A 0.45 0.45 0.0 0 0 48.44 81.16
  C 54.91 79.96 60.60 79.27 67.56 79.04
  Q 112.36 77.58 161.01 74.54
  A 0.14 0.13 -24.1 0 0 161.10 74.31
  Z"
/>
<path fill="#7300b6" d="
  M 161.10 74.31
  A 0.14 0.13 -24.1 0 1 161.01 74.54
  Q 112.36 77.58 67.56 79.04
  C 60.60 79.27 54.91 79.96 48.44 81.16
  A 0.45 0.45 0.0 0 1 47.93 80.59
  C 52.00 66.43 61.57 57.11 74.23 49.76
  Q 81.67 45.44 89.67 43.16
  Q 121.04 34.25 145.15 58.37
  Q 152.44 65.66 161.10 74.31
  Z"
/>
<path fill="#0099ff" d="
  M 110.56 106.18
  C 111.50 106.89 114.02 106.59 115.45 107.11
  Q 122.02 109.49 125.53 115.72
  C 130.19 124.00 124.22 131.70 116.68 134.91
  Q 108.77 138.29 101.26 136.05
  C 91.86 133.26 88.48 123.50 92.34 114.79
  C 95.05 108.68 103.73 101.06 110.56 106.18
  Z
  M 108.61 111.43
  Q 103.29 112.98 100.73 118.24
  C 98.60 122.64 100.23 127.32 105.53 127.75
  Q 111.60 128.23 115.87 125.00
  Q 120.24 121.69 115.85 117.85
  Q 111.93 114.41 109.28 111.61
  A 0.66 0.65 59.9 0 0 108.61 111.43
  Z"
/>
<path fill="#0099ff" d="
  M 152.92 109.96
  Q 153.25 109.96 153.32 109.94
  Q 162.52 106.65 167.97 113.36
  Q 170.46 116.43 170.50 119.65
  C 170.63 129.40 160.67 133.00 152.51 132.86
  C 144.35 132.71 134.52 128.76 135.00 119.02
  Q 135.15 115.80 137.75 112.82
  Q 143.44 106.31 152.52 109.92
  Q 152.59 109.95 152.92 109.96
  Z
  M 155.18 114.92
  L 154.79 115.59
  A 1.09 1.05 -80.6 0 1 154.09 116.11
  C 151.64 116.64 147.24 116.36 144.91 118.38
  A 2.10 1.93 -43.7 0 0 144.71 121.39
  C 148.21 124.61 158.88 124.78 161.89 120.77
  A 1.99 1.98 33.4 0 0 161.29 117.86
  L 155.88 114.74
  A 0.51 0.51 0.0 0 0 155.18 114.92
  Z"
/>
<path fill="#7300b6" d="
  M 108.61 111.43
  A 0.66 0.65 59.9 0 1 109.28 111.61
  Q 111.93 114.41 115.85 117.85
  Q 120.24 121.69 115.87 125.00
  Q 111.60 128.23 105.53 127.75
  C 100.23 127.32 98.60 122.64 100.73 118.24
  Q 103.29 112.98 108.61 111.43
  Z"
/>
<path fill="#7300b6" d="
  M 155.88 114.74
  L 161.29 117.86
  A 1.99 1.98 33.4 0 1 161.89 120.77
  C 158.88 124.78 148.21 124.61 144.71 121.39
  A 2.10 1.93 -43.7 0 1 144.91 118.38
  C 147.24 116.36 151.64 116.64 154.09 116.11
  A 1.09 1.05 -80.6 0 0 154.79 115.59
  L 155.18 114.92
  A 0.51 0.51 0.0 0 1 155.88 114.74
  Z"
/>
<path fill="#0099ff" d="
  M 94.47 165.33
  Q 94.27 165.10 93.34 164.20
  C 89.96 160.96 94.17 158.63 97.25 159.19
  Q 108.63 161.25 116.97 162.55
  Q 143.04 166.61 168.39 162.23
  C 171.79 161.64 175.76 163.15 174.16 167.34
  C 172.63 171.36 166.24 171.92 161.73 172.45
  Q 151.67 173.63 140.09 173.56
  A 1.06 1.04 14.5 0 0 139.17 174.09
  Q 136.29 179.20 129.47 183.90
  Q 120.72 189.92 110.69 189.08
  C 99.51 188.15 89.31 177.75 94.60 166.24
  A 0.85 0.84 -53.4 0 0 94.47 165.33
  Z
  M 128.17 172.94
  Q 113.63 171.98 101.87 168.57
  A 0.41 0.41 0.0 0 0 101.34 168.99
  Q 101.82 175.62 106.11 178.33
  C 113.01 182.71 122.66 178.80 128.32 173.35
  A 0.24 0.24 0.0 0 0 128.17 172.94
  Z"
/>
<path fill="#7300b6" d="
  M 128.17 172.94
  A 0.24 0.24 0.0 0 1 128.32 173.35
  C 122.66 178.80 113.01 182.71 106.11 178.33
  Q 101.82 175.62 101.34 168.99
  A 0.41 0.41 0.0 0 1 101.87 168.57
  Q 113.63 171.98 128.17 172.94
  Z"
/>
</svg>
