<?xml version="1.0" encoding="UTF-8" standalone="no"?>
<!DOCTYPE svg PUBLIC "-//W3C//DTD SVG 1.1//EN" "http://www.w3.org/Graphics/SVG/1.1/DTD/svg11.dtd">
<svg xmlns="http://www.w3.org/2000/svg" version="1.1" viewBox="0.00 0.00 256.00 256.00">
<g stroke-width="2.00" fill="none" stroke-linecap="butt">
<path stroke="#b3a8bd" vector-effect="non-scaling-stroke" d="
  M 78.27 64.17
  L 74.15 59.25
  A 11.44 11.40 85.3 0 0 71.17 56.71
  Q 61.67 51.12 52.29 45.24
  Q 46.93 41.89 43.39 41.15
  C 40.17 40.47 37.37 45.14 40.49 47.50
  Q 51.17 55.55 65.14 63.64
  C 69.70 66.28 73.33 65.83 78.07 64.76
  A 0.37 0.36 63.8 0 0 78.27 64.17"
/>
<path stroke="#b3a8bd" vector-effect="non-scaling-stroke" d="
  M 170.01 48.71
  Q 168.23 50.21 166.79 50.36
  C 154.91 51.57 146.98 54.66 133.26 59.72
  C 129.10 61.25 121.28 65.35 125.85 70.58
  A 3.06 3.06 0.0 0 0 129.45 71.33
  Q 138.19 67.21 149.01 63.75
  C 158.55 60.70 166.02 56.90 170.18 48.84
  A 0.11 0.11 0.0 0 0 170.01 48.71"
/>
<path stroke="#b3a8bd" vector-effect="non-scaling-stroke" d="
  M 157.60 87.47
  C 155.65 82.39 150.98 80.83 146.12 82.83
  Q 144.79 83.38 141.15 84.46
  A 3.67 3.51 17.2 0 0 140.07 85.00
  C 135.99 88.00 133.30 93.47 136.83 97.82
  Q 138.65 100.07 141.42 100.52
  C 147.30 101.48 153.02 98.63 156.28 93.80
  C 157.41 92.13 158.13 88.86 157.60 87.47"
/>
<path stroke="#b3a8bd" vector-effect="non-scaling-stroke" d="
  M 77.6284 87.1332
  A 8.13 7.67 -28.0 0 0 66.8492 84.1778
  A 8.13 7.67 -28.0 0 0 63.2716 94.7668
  A 8.13 7.67 -28.0 0 0 74.0508 97.7222
  A 8.13 7.67 -28.0 0 0 77.6284 87.1332"
/>
<path stroke="#b3a8bd" vector-effect="non-scaling-stroke" d="
  M 164.51 172.20
  L 155.22 172.20
  A 0.61 0.60 -2.0 0 1 154.61 171.64
  C 154.37 168.27 154.36 158.33 149.23 158.30
  Q 147.55 158.29 146.14 160.04
  A 2.38 2.28 -18.6 0 0 145.71 160.86
  C 144.71 164.51 145.34 168.01 145.53 171.80
  A 0.51 0.50 -1.6 0 1 145.02 172.33
  L 127.99 172.33
  A 0.37 0.37 0.0 0 1 127.62 171.98
  C 127.44 169.06 127.59 164.29 126.37 162.30
  C 125.11 160.23 122.59 158.98 120.31 160.66
  Q 117.76 162.54 118.12 166.25
  Q 118.54 170.64 118.52 172.44
  A 0.57 0.57 0.0 0 1 117.99 173.00
  L 105.75 173.77
  A 0.49 0.49 0.0 0 1 105.23 173.31
  Q 105.00 169.72 103.44 166.08
  C 102.05 162.86 98.39 158.85 95.51 163.19
  A 2.53 2.47 -22.5 0 0 95.16 164.01
  C 94.46 167.20 95.49 170.46 96.31 174.08
  A 0.50 0.50 0.0 0 1 95.89 174.69
  L 79.96 176.82
  A 0.63 0.62 -8.6 0 1 79.26 176.31
  Q 78.11 169.93 74.78 164.32
  C 72.71 160.84 68.53 161.28 67.75 165.56
  A 1.04 0.93 -49.8 0 0 67.76 165.93
  L 70.58 177.39
  A 0.85 0.84 79.2 0 1 69.88 178.43
  C 65.18 179.08 60.75 178.72 56.96 181.41
  A 1.93 1.92 -5.4 0 0 56.29 182.22
  C 54.14 186.85 59.74 188.68 63.25 188.34
  Q 67.35 187.93 71.33 187.41
  A 0.49 0.49 0.0 0 1 71.89 187.89
  C 71.89 191.42 72.84 200.04 78.13 198.83
  Q 81.98 197.94 81.61 193.57
  Q 81.32 190.12 80.73 186.55
  A 0.68 0.67 -8.8 0 1 81.30 185.78
  L 97.08 183.68
  A 0.43 0.43 0.0 0 1 97.57 184.08
  Q 97.76 187.54 98.92 190.29
  C 100.84 194.80 106.20 194.41 106.97 189.41
  Q 107.28 187.43 106.55 183.66
  A 1.07 1.07 0.0 0 1 107.60 182.38
  L 118.84 182.38
  A 0.36 0.35 85.2 0 1 119.19 182.68
  Q 119.27 183.20 119.27 183.97
  C 119.30 186.81 121.41 189.52 123.71 190.91
  A 0.89 0.88 -49.2 0 0 124.74 190.83
  Q 128.99 187.33 128.18 182.00
  A 0.53 0.53 0.0 0 1 128.70 181.39
  L 145.50 181.39
  A 0.42 0.41 90.0 0 1 145.91 181.81
  C 145.88 183.49 145.69 187.99 146.83 189.44
  C 148.20 191.19 150.35 192.60 152.61 191.04
  C 156.06 188.65 154.89 185.20 154.96 181.79
  A 0.56 0.55 -89.5 0 1 155.51 181.24
  L 164.76 181.24
  A 0.69 0.68 87.2 0 1 165.44 181.86
  C 165.85 185.66 164.32 193.24 170.77 194.21
  A 1.41 1.40 32.5 0 0 171.78 193.99
  C 174.05 192.49 175.02 191.08 174.84 188.12
  Q 174.68 185.58 174.54 181.67
  A 0.50 0.49 -0.5 0 1 175.05 181.16
  Q 183.25 181.34 189.33 180.63
  Q 192.60 180.25 194.02 177.85
  C 195.51 175.32 193.72 172.55 191.19 171.69
  A 0.70 0.59 -31.7 0 0 190.91 171.65
  L 175.01 172.26
  A 0.82 0.81 -0.7 0 1 174.16 171.44
  C 174.18 167.01 174.62 161.84 172.06 159.68
  Q 169.30 157.34 166.87 160.15
  C 164.03 163.44 165.32 168.01 165.17 171.57
  A 0.66 0.65 0.9 0 1 164.51 172.20"
/>
</g>
<path fill="#666699" d="
  M 256.00 0.00
  L 256.00 256.00
  L 0.00 256.00
  L 0.00 0.00
  L 256.00 0.00
  Z
  M 78.27 64.17
  L 74.15 59.25
  A 11.44 11.40 85.3 0 0 71.17 56.71
  Q 61.67 51.12 52.29 45.24
  Q 46.93 41.89 43.39 41.15
  C 40.17 40.47 37.37 45.14 40.49 47.50
  Q 51.17 55.55 65.14 63.64
  C 69.70 66.28 73.33 65.83 78.07 64.76
  A 0.37 0.36 63.8 0 0 78.27 64.17
  Z
  M 170.01 48.71
  Q 168.23 50.21 166.79 50.36
  C 154.91 51.57 146.98 54.66 133.26 59.72
  C 129.10 61.25 121.28 65.35 125.85 70.58
  A 3.06 3.06 0.0 0 0 129.45 71.33
  Q 138.19 67.21 149.01 63.75
  C 158.55 60.70 166.02 56.90 170.18 48.84
  A 0.11 0.11 0.0 0 0 170.01 48.71
  Z
  M 157.60 87.47
  C 155.65 82.39 150.98 80.83 146.12 82.83
  Q 144.79 83.38 141.15 84.46
  A 3.67 3.51 17.2 0 0 140.07 85.00
  C 135.99 88.00 133.30 93.47 136.83 97.82
  Q 138.65 100.07 141.42 100.52
  C 147.30 101.48 153.02 98.63 156.28 93.80
  C 157.41 92.13 158.13 88.86 157.60 87.47
  Z
  M 77.6284 87.1332
  A 8.13 7.67 -28.0 0 0 66.8492 84.1778
  A 8.13 7.67 -28.0 0 0 63.2716 94.7668
  A 8.13 7.67 -28.0 0 0 74.0508 97.7222
  A 8.13 7.67 -28.0 0 0 77.6284 87.1332
  Z
  M 164.51 172.20
  L 155.22 172.20
  A 0.61 0.60 -2.0 0 1 154.61 171.64
  C 154.37 168.27 154.36 158.33 149.23 158.30
  Q 147.55 158.29 146.14 160.04
  A 2.38 2.28 -18.6 0 0 145.71 160.86
  C 144.71 164.51 145.34 168.01 145.53 171.80
  A 0.51 0.50 -1.6 0 1 145.02 172.33
  L 127.99 172.33
  A 0.37 0.37 0.0 0 1 127.62 171.98
  C 127.44 169.06 127.59 164.29 126.37 162.30
  C 125.11 160.23 122.59 158.98 120.31 160.66
  Q 117.76 162.54 118.12 166.25
  Q 118.54 170.64 118.52 172.44
  A 0.57 0.57 0.0 0 1 117.99 173.00
  L 105.75 173.77
  A 0.49 0.49 0.0 0 1 105.23 173.31
  Q 105.00 169.72 103.44 166.08
  C 102.05 162.86 98.39 158.85 95.51 163.19
  A 2.53 2.47 -22.5 0 0 95.16 164.01
  C 94.46 167.20 95.49 170.46 96.31 174.08
  A 0.50 0.50 0.0 0 1 95.89 174.69
  L 79.96 176.82
  A 0.63 0.62 -8.6 0 1 79.26 176.31
  Q 78.11 169.93 74.78 164.32
  C 72.71 160.84 68.53 161.28 67.75 165.56
  A 1.04 0.93 -49.8 0 0 67.76 165.93
  L 70.58 177.39
  A 0.85 0.84 79.2 0 1 69.88 178.43
  C 65.18 179.08 60.75 178.72 56.96 181.41
  A 1.93 1.92 -5.4 0 0 56.29 182.22
  C 54.14 186.85 59.74 188.68 63.25 188.34
  Q 67.35 187.93 71.33 187.41
  A 0.49 0.49 0.0 0 1 71.89 187.89
  C 71.89 191.42 72.84 200.04 78.13 198.83
  Q 81.98 197.94 81.61 193.57
  Q 81.32 190.12 80.73 186.55
  A 0.68 0.67 -8.8 0 1 81.30 185.78
  L 97.08 183.68
  A 0.43 0.43 0.0 0 1 97.57 184.08
  Q 97.76 187.54 98.92 190.29
  C 100.84 194.80 106.20 194.41 106.97 189.41
  Q 107.28 187.43 106.55 183.66
  A 1.07 1.07 0.0 0 1 107.60 182.38
  L 118.84 182.38
  A 0.36 0.35 85.2 0 1 119.19 182.68
  Q 119.27 183.20 119.27 183.97
  C 119.30 186.81 121.41 189.52 123.71 190.91
  A 0.89 0.88 -49.2 0 0 124.74 190.83
  Q 128.99 187.33 128.18 182.00
  A 0.53 0.53 0.0 0 1 128.70 181.39
  L 145.50 181.39
  A 0.42 0.41 90.0 0 1 145.91 181.81
  C 145.88 183.49 145.69 187.99 146.83 189.44
  C 148.20 191.19 150.35 192.60 152.61 191.04
  C 156.06 188.65 154.89 185.20 154.96 181.79
  A 0.56 0.55 -89.5 0 1 155.51 181.24
  L 164.76 181.24
  A 0.69 0.68 87.2 0 1 165.44 181.86
  C 165.85 185.66 164.32 193.24 170.77 194.21
  A 1.41 1.40 32.5 0 0 171.78 193.99
  C 174.05 192.49 175.02 191.08 174.84 188.12
  Q 174.68 185.58 174.54 181.67
  A 0.50 0.49 -0.5 0 1 175.05 181.16
  Q 183.25 181.34 189.33 180.63
  Q 192.60 180.25 194.02 177.85
  C 195.51 175.32 193.72 172.55 191.19 171.69
  A 0.70 0.59 -31.7 0 0 190.91 171.65
  L 175.01 172.26
  A 0.82 0.81 -0.7 0 1 174.16 171.44
  C 174.18 167.01 174.62 161.84 172.06 159.68
  Q 169.30 157.34 166.87 160.15
  C 164.03 163.44 165.32 168.01 165.17 171.57
  A 0.66 0.65 0.9 0 1 164.51 172.20
  Z"
/>
<path fill="#ffe9e0" d="
  M 78.07 64.76
  C 73.33 65.83 69.70 66.28 65.14 63.64
  Q 51.17 55.55 40.49 47.50
  C 37.37 45.14 40.17 40.47 43.39 41.15
  Q 46.93 41.89 52.29 45.24
  Q 61.67 51.12 71.17 56.71
  A 11.44 11.40 85.3 0 1 74.15 59.25
  L 78.27 64.17
  A 0.37 0.36 63.8 0 1 78.07 64.76
  Z"
/>
<path fill="#ffe9e0" d="
  M 170.18 48.84
  C 166.02 56.90 158.55 60.70 149.01 63.75
  Q 138.19 67.21 129.45 71.33
  A 3.06 3.06 0.0 0 1 125.85 70.58
  C 121.28 65.35 129.10 61.25 133.26 59.72
  C 146.98 54.66 154.91 51.57 166.79 50.36
  Q 168.23 50.21 170.01 48.71
  A 0.11 0.11 0.0 0 1 170.18 48.84
  Z"
/>
<path fill="#ffe9e0" d="
  M 157.60 87.47
  C 158.13 88.86 157.41 92.13 156.28 93.80
  C 153.02 98.63 147.30 101.48 141.42 100.52
  Q 138.65 100.07 136.83 97.82
  C 133.30 93.47 135.99 88.00 140.07 85.00
  A 3.67 3.51 17.2 0 1 141.15 84.46
  Q 144.79 83.38 146.12 82.83
  C 150.98 80.83 155.65 82.39 157.60 87.47
  Z"
/>
<ellipse fill="#ffe9e0" cx="0.00" cy="0.00" transform="translate(70.45,90.95) rotate(-28.0)" rx="8.13" ry="7.67"/>
<path fill="#ffe9e0" d="
  M 165.17 171.57
  C 165.32 168.01 164.03 163.44 166.87 160.15
  Q 169.30 157.34 172.06 159.68
  C 174.62 161.84 174.18 167.01 174.16 171.44
  A 0.82 0.81 -0.7 0 0 175.01 172.26
  L 190.91 171.65
  A 0.70 0.59 -31.7 0 1 191.19 171.69
  C 193.72 172.55 195.51 175.32 194.02 177.85
  Q 192.60 180.25 189.33 180.63
  Q 183.25 181.34 175.05 181.16
  A 0.50 0.49 -0.5 0 0 174.54 181.67
  Q 174.68 185.58 174.84 188.12
  C 175.02 191.08 174.05 192.49 171.78 193.99
  A 1.41 1.40 32.5 0 1 170.77 194.21
  C 164.32 193.24 165.85 185.66 165.44 181.86
  A 0.69 0.68 87.2 0 0 164.76 181.24
  L 155.51 181.24
  A 0.56 0.55 -89.5 0 0 154.96 181.79
  C 154.89 185.20 156.06 188.65 152.61 191.04
  C 150.35 192.60 148.20 191.19 146.83 189.44
  C 145.69 187.99 145.88 183.49 145.91 181.81
  A 0.42 0.41 -90.0 0 0 145.50 181.39
  L 128.70 181.39
  A 0.53 0.53 0.0 0 0 128.18 182.00
  Q 128.99 187.33 124.74 190.83
  A 0.89 0.88 -49.2 0 1 123.71 190.91
  C 121.41 189.52 119.30 186.81 119.27 183.97
  Q 119.27 183.20 119.19 182.68
  A 0.36 0.35 85.2 0 0 118.84 182.38
  L 107.60 182.38
  A 1.07 1.07 0.0 0 0 106.55 183.66
  Q 107.28 187.43 106.97 189.41
  C 106.20 194.41 100.84 194.80 98.92 190.29
  Q 97.76 187.54 97.57 184.08
  A 0.43 0.43 0.0 0 0 97.08 183.68
  L 81.30 185.78
  A 0.68 0.67 -8.8 0 0 80.73 186.55
  Q 81.32 190.12 81.61 193.57
  Q 81.98 197.94 78.13 198.83
  C 72.84 200.04 71.89 191.42 71.89 187.89
  A 0.49 0.49 0.0 0 0 71.33 187.41
  Q 67.35 187.93 63.25 188.34
  C 59.74 188.68 54.14 186.85 56.29 182.22
  A 1.93 1.92 -5.4 0 1 56.96 181.41
  C 60.75 178.72 65.18 179.08 69.88 178.43
  A 0.85 0.84 79.2 0 0 70.58 177.39
  L 67.76 165.93
  A 1.04 0.93 -49.8 0 1 67.75 165.56
  C 68.53 161.28 72.71 160.84 74.78 164.32
  Q 78.11 169.93 79.26 176.31
  A 0.63 0.62 -8.6 0 0 79.96 176.82
  L 95.89 174.69
  A 0.50 0.50 0.0 0 0 96.31 174.08
  C 95.49 170.46 94.46 167.20 95.16 164.01
  A 2.53 2.47 -22.5 0 1 95.51 163.19
  C 98.39 158.85 102.05 162.86 103.44 166.08
  Q 105.00 169.72 105.23 173.31
  A 0.49 0.49 0.0 0 0 105.75 173.77
  L 117.99 173.00
  A 0.57 0.57 0.0 0 0 118.52 172.44
  Q 118.54 170.64 118.12 166.25
  Q 117.76 162.54 120.31 160.66
  C 122.59 158.98 125.11 160.23 126.37 162.30
  C 127.59 164.29 127.44 169.06 127.62 171.98
  A 0.37 0.37 0.0 0 0 127.99 172.33
  L 145.02 172.33
  A 0.51 0.50 -1.6 0 0 145.53 171.80
  C 145.34 168.01 144.71 164.51 145.71 160.86
  A 2.38 2.28 -18.6 0 1 146.14 160.04
  Q 147.55 158.29 149.23 158.30
  C 154.36 158.33 154.37 168.27 154.61 171.64
  A 0.61 0.60 -2.0 0 0 155.22 172.20
  L 164.51 172.20
  A 0.66 0.65 0.9 0 0 165.17 171.57
  Z"
/>
</svg>
