<?xml version="1.0" encoding="UTF-8" standalone="no"?>
<!DOCTYPE svg PUBLIC "-//W3C//DTD SVG 1.1//EN" "http://www.w3.org/Graphics/SVG/1.1/DTD/svg11.dtd">
<svg xmlns="http://www.w3.org/2000/svg" version="1.1" viewBox="0.00 0.00 256.00 256.00">
<g stroke-width="2.00" fill="none" stroke-linecap="butt">
<path stroke="#ab5e7d" vector-effect="non-scaling-stroke" d="
  M 120.92 79.75
  A 4.39 4.39 0.0 0 0 115.31 77.04
  Q 82.42 88.63 61.71 95.45
  C 58.64 96.46 54.35 99.64 57.70 103.20
  A 1.84 1.77 -12.4 0 0 58.50 103.69
  Q 62.20 104.85 67.16 103.18
  Q 103.87 90.84 118.33 85.53
  A 4.43 4.42 70.3 0 0 120.98 79.93
  L 120.92 79.75"
/>
<path stroke="#ab5e7d" vector-effect="non-scaling-stroke" d="
  M 216.73 82.21
  A 4.00 4.00 0.0 0 0 211.78 78.98
  C 190.93 84.37 171.43 89.32 152.28 97.26
  Q 149.53 98.40 148.44 100.30
  C 146.18 104.24 150.63 106.30 153.85 105.52
  Q 156.15 104.96 160.31 103.53
  Q 183.02 95.70 191.23 93.70
  Q 201.29 91.24 213.29 87.84
  A 4.85 4.85 0.0 0 0 216.76 82.38
  L 216.73 82.21"
/>
<path stroke="#ab5e7d" vector-effect="non-scaling-stroke" d="
  M 101.5585 99.8180
  A 4.99 4.53 -70.1 0 0 95.6005 102.9681
  A 4.99 4.53 -70.1 0 0 98.1615 109.2020
  A 4.99 4.53 -70.1 0 0 104.1195 106.0519
  A 4.99 4.53 -70.1 0 0 101.5585 99.8180"
/>
<path stroke="#ab5e7d" vector-effect="non-scaling-stroke" d="
  M 192.2967 102.3182
  A 5.37 5.18 -148.8 0 0 194.2066 109.5308
  A 5.37 5.18 -148.8 0 0 201.4833 107.8818
  A 5.37 5.18 -148.8 0 0 199.5734 100.6692
  A 5.37 5.18 -148.8 0 0 192.2967 102.3182"
/>
<path stroke="#ab5e7d" vector-effect="non-scaling-stroke" d="
  M 189.05 173.30
  C 190.94 172.30 193.29 169.62 191.95 167.31
  Q 190.52 164.84 187.61 164.69
  Q 147.87 162.61 122.51 162.47
  Q 104.67 162.38 91.76 163.34
  Q 76.07 164.50 69.25 164.41
  C 67.85 164.39 65.41 165.36 65.24 167.19
  C 64.91 170.78 70.06 171.83 72.76 172.04
  Q 80.86 172.67 87.00 172.39
  C 120.23 170.88 150.11 171.79 185.50 173.67
  Q 188.11 173.81 189.05 173.30"
/>
</g>
<path fill="#5700b6" d="
  M 256.00 0.00
  L 256.00 256.00
  L 0.00 256.00
  L 0.00 0.00
  L 256.00 0.00
  Z
  M 120.92 79.75
  A 4.39 4.39 0.0 0 0 115.31 77.04
  Q 82.42 88.63 61.71 95.45
  C 58.64 96.46 54.35 99.64 57.70 103.20
  A 1.84 1.77 -12.4 0 0 58.50 103.69
  Q 62.20 104.85 67.16 103.18
  Q 103.87 90.84 118.33 85.53
  A 4.43 4.42 70.3 0 0 120.98 79.93
  L 120.92 79.75
  Z
  M 216.73 82.21
  A 4.00 4.00 0.0 0 0 211.78 78.98
  C 190.93 84.37 171.43 89.32 152.28 97.26
  Q 149.53 98.40 148.44 100.30
  C 146.18 104.24 150.63 106.30 153.85 105.52
  Q 156.15 104.96 160.31 103.53
  Q 183.02 95.70 191.23 93.70
  Q 201.29 91.24 213.29 87.84
  A 4.85 4.85 0.0 0 0 216.76 82.38
  L 216.73 82.21
  Z
  M 101.5585 99.8180
  A 4.99 4.53 -70.1 0 0 95.6005 102.9681
  A 4.99 4.53 -70.1 0 0 98.1615 109.2020
  A 4.99 4.53 -70.1 0 0 104.1195 106.0519
  A 4.99 4.53 -70.1 0 0 101.5585 99.8180
  Z
  M 192.2967 102.3182
  A 5.37 5.18 -148.8 0 0 194.2066 109.5308
  A 5.37 5.18 -148.8 0 0 201.4833 107.8818
  A 5.37 5.18 -148.8 0 0 199.5734 100.6692
  A 5.37 5.18 -148.8 0 0 192.2967 102.3182
  Z
  M 189.05 173.30
  C 190.94 172.30 193.29 169.62 191.95 167.31
  Q 190.52 164.84 187.61 164.69
  Q 147.87 162.61 122.51 162.47
  Q 104.67 162.38 91.76 163.34
  Q 76.07 164.50 69.25 164.41
  C 67.85 164.39 65.41 165.36 65.24 167.19
  C 64.91 170.78 70.06 171.83 72.76 172.04
  Q 80.86 172.67 87.00 172.39
  C 120.23 170.88 150.11 171.79 185.50 173.67
  Q 188.11 173.81 189.05 173.30
  Z"
/>
<path fill="#ffbb44" d="
  M 120.92 79.75
  L 120.98 79.93
  A 4.43 4.42 70.3 0 1 118.33 85.53
  Q 103.87 90.84 67.16 103.18
  Q 62.20 104.85 58.50 103.69
  A 1.84 1.77 -12.4 0 1 57.70 103.20
  C 54.35 99.64 58.64 96.46 61.71 95.45
  Q 82.42 88.63 115.31 77.04
  A 4.39 4.39 0.0 0 1 120.92 79.75
  Z"
/>
<path fill="#ffbb44" d="
  M 216.73 82.21
  L 216.76 82.38
  A 4.85 4.85 0.0 0 1 213.29 87.84
  Q 201.29 91.24 191.23 93.70
  Q 183.02 95.70 160.31 103.53
  Q 156.15 104.96 153.85 105.52
  C 150.63 106.30 146.18 104.24 148.44 100.30
  Q 149.53 98.40 152.28 97.26
  C 171.43 89.32 190.93 84.37 211.78 78.98
  A 4.00 4.00 0.0 0 1 216.73 82.21
  Z"
/>
<ellipse fill="#ffbb44" cx="0.00" cy="0.00" transform="translate(99.86,104.51) rotate(-70.1)" rx="4.99" ry="4.53"/>
<ellipse fill="#ffbb44" cx="0.00" cy="0.00" transform="translate(196.89,105.10) rotate(-148.8)" rx="5.37" ry="5.18"/>
<path fill="#ffbb44" d="
  M 189.05 173.30
  Q 188.11 173.81 185.50 173.67
  C 150.11 171.79 120.23 170.88 87.00 172.39
  Q 80.86 172.67 72.76 172.04
  C 70.06 171.83 64.91 170.78 65.24 167.19
  C 65.41 165.36 67.85 164.39 69.25 164.41
  Q 76.07 164.50 91.76 163.34
  Q 104.67 162.38 122.51 162.47
  Q 147.87 162.61 187.61 164.69
  Q 190.52 164.84 191.95 167.31
  C 193.29 169.62 190.94 172.30 189.05 173.30
  Z"
/>
</svg>
