<?xml version="1.0" encoding="UTF-8" standalone="no"?>
<!DOCTYPE svg PUBLIC "-//W3C//DTD SVG 1.1//EN" "http://www.w3.org/Graphics/SVG/1.1/DTD/svg11.dtd">
<svg xmlns="http://www.w3.org/2000/svg" version="1.1" viewBox="0.00 0.00 256.00 256.00">
<g stroke-width="2.00" fill="none" stroke-linecap="butt">
<path stroke="#dbb668" vector-effect="non-scaling-stroke" d="
  M 80.20 11.55
  Q 75.30 13.07 71.80 16.87
  Q 62.00 27.54 55.12 34.88
  C 48.78 41.66 35.43 57.03 37.58 66.43
  Q 38.27 69.46 41.16 71.45
  A 0.61 0.60 35.6 0 1 41.31 72.31
  C 29.79 88.48 38.57 112.03 59.03 114.44
  C 75.76 116.42 87.20 104.67 85.56 88.17
  Q 84.38 76.35 78.18 66.06
  C 73.76 58.73 67.31 55.71 60.07 62.06
  A 2.11 2.08 22.6 0 1 58.81 62.57
  Q 52.53 62.88 48.19 65.96
  A 1.56 1.56 0.0 0 1 45.73 64.55
  Q 45.93 62.09 46.92 60.42
  C 54.13 48.24 62.70 39.84 74.74 27.00
  C 78.81 22.67 82.44 17.87 80.90 11.94
  A 0.56 0.55 73.9 0 0 80.20 11.55"
/>
<path stroke="#dbb668" vector-effect="non-scaling-stroke" d="
  M 186.82 80.12
  C 195.25 85.07 204.72 81.08 211.09 74.81
  Q 220.23 65.81 223.44 53.69
  C 225.45 46.09 226.61 38.67 224.80 31.73
  Q 223.53 26.87 223.36 25.02
  A 0.21 0.21 0.0 0 0 222.97 24.95
  Q 217.93 35.30 216.26 46.73
  Q 214.79 56.73 208.52 64.73
  C 204.87 69.38 199.43 74.16 193.53 74.34
  Q 190.64 74.43 186.24 73.35
  Q 183.53 72.69 182.76 75.02
  A 0.51 0.51 0.0 0 1 182.00 75.28
  Q 169.41 67.13 154.23 69.91
  Q 151.92 70.34 149.60 73.38
  A 1.10 1.09 -70.7 0 1 148.74 73.80
  C 136.26 73.84 122.07 73.94 111.77 75.05
  C 104.02 75.88 90.37 78.03 85.89 84.84
  A 1.44 1.44 0.0 0 0 85.64 85.77
  C 85.88 88.74 87.83 88.76 90.32 88.20
  Q 100.11 85.97 104.02 85.31
  C 117.06 83.11 130.02 83.07 143.65 82.89
  A 0.34 0.33 -78.6 0 1 143.96 83.36
  Q 141.72 88.31 140.92 93.64
  C 138.49 109.80 149.51 117.61 164.47 113.29
  Q 179.34 108.99 186.57 95.95
  Q 190.67 88.58 186.61 80.32
  A 0.15 0.15 0.0 0 1 186.82 80.12"
/>
<path stroke="#dbb668" vector-effect="non-scaling-stroke" d="
  M 108.80 139.91
  Q 108.74 139.95 108.63 140.02
  Q 108.42 140.15 108.60 140.49
  A 0.24 0.24 0.0 0 0 109.01 140.52
  Q 110.30 138.72 110.35 136.55
  A 1.34 1.33 -67.2 0 0 109.96 135.58
  C 107.20 132.85 102.45 134.97 99.69 136.68
  C 90.26 142.48 83.36 153.01 84.89 164.12
  Q 85.73 170.30 91.87 173.37
  A 3.54 3.30 62.3 0 0 92.70 173.66
  C 101.70 175.50 107.66 171.52 112.14 164.06
  A 0.24 0.24 0.0 0 0 111.86 163.71
  Q 110.56 164.11 104.50 164.20
  Q 103.28 164.22 98.70 164.88
  Q 95.57 165.32 94.77 164.55
  C 92.44 162.30 94.35 156.29 95.52 153.78
  Q 99.75 144.72 107.49 139.76
  Q 108.44 139.15 108.82 139.48
  A 0.28 0.28 0.0 0 1 108.80 139.91"
/>
<path stroke="#dbb668" vector-effect="non-scaling-stroke" d="
  M 129.36 210.77
  Q 129.17 210.76 128.77 210.95
  A 1.95 1.92 -52.3 0 1 127.67 211.10
  Q 118.44 209.65 107.64 210.52
  C 100.90 211.06 95.29 211.26 90.19 209.85
  Q 83.91 208.11 77.02 205.72
  C 73.58 204.53 70.15 207.47 73.86 210.38
  Q 78.38 213.94 83.53 216.24
  C 98.18 222.80 115.85 217.40 129.42 211.11
  A 0.18 0.18 0.0 0 0 129.36 210.77"
/>
<path stroke="#dbb668" vector-effect="non-scaling-stroke" d="
  M 72.00 73.51
  C 70.01 69.43 65.84 65.14 60.95 66.88
  C 51.00 70.41 44.04 79.71 45.41 90.63
  C 46.61 100.28 55.61 107.13 64.88 105.82
  C 81.27 103.51 77.24 84.20 72.00 73.51"
/>
<path stroke="#dbb668" vector-effect="non-scaling-stroke" d="
  M 159.08 78.79
  Q 157.41 80.84 154.26 82.00
  A 2.28 2.26 1.9 0 0 152.97 83.20
  C 150.53 88.64 145.38 105.47 156.03 105.37
  C 164.23 105.30 173.74 100.24 177.71 93.33
  C 179.99 89.36 180.59 85.17 176.51 82.49
  Q 169.57 77.94 159.92 78.37
  A 1.19 1.19 0.0 0 0 159.08 78.79"
/>
</g>
<path fill="#b67018" d="
  M 256.00 0.00
  L 256.00 256.00
  L 0.00 256.00
  L 0.00 0.00
  L 256.00 0.00
  Z
  M 80.20 11.55
  Q 75.30 13.07 71.80 16.87
  Q 62.00 27.54 55.12 34.88
  C 48.78 41.66 35.43 57.03 37.58 66.43
  Q 38.27 69.46 41.16 71.45
  A 0.61 0.60 35.6 0 1 41.31 72.31
  C 29.79 88.48 38.57 112.03 59.03 114.44
  C 75.76 116.42 87.20 104.67 85.56 88.17
  Q 84.38 76.35 78.18 66.06
  C 73.76 58.73 67.31 55.71 60.07 62.06
  A 2.11 2.08 22.6 0 1 58.81 62.57
  Q 52.53 62.88 48.19 65.96
  A 1.56 1.56 0.0 0 1 45.73 64.55
  Q 45.93 62.09 46.92 60.42
  C 54.13 48.24 62.70 39.84 74.74 27.00
  C 78.81 22.67 82.44 17.87 80.90 11.94
  A 0.56 0.55 73.9 0 0 80.20 11.55
  Z
  M 186.82 80.12
  C 195.25 85.07 204.72 81.08 211.09 74.81
  Q 220.23 65.81 223.44 53.69
  C 225.45 46.09 226.61 38.67 224.80 31.73
  Q 223.53 26.87 223.36 25.02
  A 0.21 0.21 0.0 0 0 222.97 24.95
  Q 217.93 35.30 216.26 46.73
  Q 214.79 56.73 208.52 64.73
  C 204.87 69.38 199.43 74.16 193.53 74.34
  Q 190.64 74.43 186.24 73.35
  Q 183.53 72.69 182.76 75.02
  A 0.51 0.51 0.0 0 1 182.00 75.28
  Q 169.41 67.13 154.23 69.91
  Q 151.92 70.34 149.60 73.38
  A 1.10 1.09 -70.7 0 1 148.74 73.80
  C 136.26 73.84 122.07 73.94 111.77 75.05
  C 104.02 75.88 90.37 78.03 85.89 84.84
  A 1.44 1.44 0.0 0 0 85.64 85.77
  C 85.88 88.74 87.83 88.76 90.32 88.20
  Q 100.11 85.97 104.02 85.31
  C 117.06 83.11 130.02 83.07 143.65 82.89
  A 0.34 0.33 -78.6 0 1 143.96 83.36
  Q 141.72 88.31 140.92 93.64
  C 138.49 109.80 149.51 117.61 164.47 113.29
  Q 179.34 108.99 186.57 95.95
  Q 190.67 88.58 186.61 80.32
  A 0.15 0.15 0.0 0 1 186.82 80.12
  Z
  M 108.80 139.91
  Q 108.74 139.95 108.63 140.02
  Q 108.42 140.15 108.60 140.49
  A 0.24 0.24 0.0 0 0 109.01 140.52
  Q 110.30 138.72 110.35 136.55
  A 1.34 1.33 -67.2 0 0 109.96 135.58
  C 107.20 132.85 102.45 134.97 99.69 136.68
  C 90.26 142.48 83.36 153.01 84.89 164.12
  Q 85.73 170.30 91.87 173.37
  A 3.54 3.30 62.3 0 0 92.70 173.66
  C 101.70 175.50 107.66 171.52 112.14 164.06
  A 0.24 0.24 0.0 0 0 111.86 163.71
  Q 110.56 164.11 104.50 164.20
  Q 103.28 164.22 98.70 164.88
  Q 95.57 165.32 94.77 164.55
  C 92.44 162.30 94.35 156.29 95.52 153.78
  Q 99.75 144.72 107.49 139.76
  Q 108.44 139.15 108.82 139.48
  A 0.28 0.28 0.0 0 1 108.80 139.91
  Z
  M 129.36 210.77
  Q 129.17 210.76 128.77 210.95
  A 1.95 1.92 -52.3 0 1 127.67 211.10
  Q 118.44 209.65 107.64 210.52
  C 100.90 211.06 95.29 211.26 90.19 209.85
  Q 83.91 208.11 77.02 205.72
  C 73.58 204.53 70.15 207.47 73.86 210.38
  Q 78.38 213.94 83.53 216.24
  C 98.18 222.80 115.85 217.40 129.42 211.11
  A 0.18 0.18 0.0 0 0 129.36 210.77
  Z"
/>
<path fill="#fffbb7" d="
  M 80.20 11.55
  A 0.56 0.55 73.9 0 1 80.90 11.94
  C 82.44 17.87 78.81 22.67 74.74 27.00
  C 62.70 39.84 54.13 48.24 46.92 60.42
  Q 45.93 62.09 45.73 64.55
  A 1.56 1.56 0.0 0 0 48.19 65.96
  Q 52.53 62.88 58.81 62.57
  A 2.11 2.08 22.6 0 0 60.07 62.06
  C 67.31 55.71 73.76 58.73 78.18 66.06
  Q 84.38 76.35 85.56 88.17
  C 87.20 104.67 75.76 116.42 59.03 114.44
  C 38.57 112.03 29.79 88.48 41.31 72.31
  A 0.61 0.60 35.6 0 0 41.16 71.45
  Q 38.27 69.46 37.58 66.43
  C 35.43 57.03 48.78 41.66 55.12 34.88
  Q 62.00 27.54 71.80 16.87
  Q 75.30 13.07 80.20 11.55
  Z
  M 72.00 73.51
  C 70.01 69.43 65.84 65.14 60.95 66.88
  C 51.00 70.41 44.04 79.71 45.41 90.63
  C 46.61 100.28 55.61 107.13 64.88 105.82
  C 81.27 103.51 77.24 84.20 72.00 73.51
  Z"
/>
<path fill="#fffbb7" d="
  M 186.61 80.32
  Q 190.67 88.58 186.57 95.95
  Q 179.34 108.99 164.47 113.29
  C 149.51 117.61 138.49 109.80 140.92 93.64
  Q 141.72 88.31 143.96 83.36
  A 0.34 0.33 -78.6 0 0 143.65 82.89
  C 130.02 83.07 117.06 83.11 104.02 85.31
  Q 100.11 85.97 90.32 88.20
  C 87.83 88.76 85.88 88.74 85.64 85.77
  A 1.44 1.44 0.0 0 1 85.89 84.84
  C 90.37 78.03 104.02 75.88 111.77 75.05
  C 122.07 73.94 136.26 73.84 148.74 73.80
  A 1.10 1.09 -70.7 0 0 149.60 73.38
  Q 151.92 70.34 154.23 69.91
  Q 169.41 67.13 182.00 75.28
  A 0.51 0.51 0.0 0 0 182.76 75.02
  Q 183.53 72.69 186.24 73.35
  Q 190.64 74.43 193.53 74.34
  C 199.43 74.16 204.87 69.38 208.52 64.73
  Q 214.79 56.73 216.26 46.73
  Q 217.93 35.30 222.97 24.95
  A 0.21 0.21 0.0 0 1 223.36 25.02
  Q 223.53 26.87 224.80 31.73
  C 226.61 38.67 225.45 46.09 223.44 53.69
  Q 220.23 65.81 211.09 74.81
  C 204.72 81.08 195.25 85.07 186.82 80.12
  A 0.15 0.15 0.0 0 0 186.61 80.32
  Z
  M 159.08 78.79
  Q 157.41 80.84 154.26 82.00
  A 2.28 2.26 1.9 0 0 152.97 83.20
  C 150.53 88.64 145.38 105.47 156.03 105.37
  C 164.23 105.30 173.74 100.24 177.71 93.33
  C 179.99 89.36 180.59 85.17 176.51 82.49
  Q 169.57 77.94 159.92 78.37
  A 1.19 1.19 0.0 0 0 159.08 78.79
  Z"
/>
<path fill="#b67018" d="
  M 60.95 66.88
  C 65.84 65.14 70.01 69.43 72.00 73.51
  C 77.24 84.20 81.27 103.51 64.88 105.82
  C 55.61 107.13 46.61 100.28 45.41 90.63
  C 44.04 79.71 51.00 70.41 60.95 66.88
  Z"
/>
<path fill="#b67018" d="
  M 159.92 78.37
  Q 169.57 77.94 176.51 82.49
  C 180.59 85.17 179.99 89.36 177.71 93.33
  C 173.74 100.24 164.23 105.30 156.03 105.37
  C 145.38 105.47 150.53 88.64 152.97 83.20
  A 2.28 2.26 1.9 0 1 154.26 82.00
  Q 157.41 80.84 159.08 78.79
  A 1.19 1.19 0.0 0 1 159.92 78.37
  Z"
/>
<path fill="#fffbb7" d="
  M 108.82 139.48
  Q 108.44 139.15 107.49 139.76
  Q 99.75 144.72 95.52 153.78
  C 94.35 156.29 92.44 162.30 94.77 164.55
  Q 95.57 165.32 98.70 164.88
  Q 103.28 164.22 104.50 164.20
  Q 110.56 164.11 111.86 163.71
  A 0.24 0.24 0.0 0 1 112.14 164.06
  C 107.66 171.52 101.70 175.50 92.70 173.66
  A 3.54 3.30 62.3 0 1 91.87 173.37
  Q 85.73 170.30 84.89 164.12
  C 83.36 153.01 90.26 142.48 99.69 136.68
  C 102.45 134.97 107.20 132.85 109.96 135.58
  A 1.34 1.33 -67.2 0 1 110.35 136.55
  Q 110.30 138.72 109.01 140.52
  A 0.24 0.24 0.0 0 1 108.60 140.49
  Q 108.42 140.15 108.63 140.02
  Q 108.74 139.95 108.80 139.91
  A 0.28 0.28 0.0 0 0 108.82 139.48
  Z"
/>
<path fill="#fffbb7" d="
  M 129.42 211.11
  C 115.85 217.40 98.18 222.80 83.53 216.24
  Q 78.38 213.94 73.86 210.38
  C 70.15 207.47 73.58 204.53 77.02 205.72
  Q 83.91 208.11 90.19 209.85
  C 95.29 211.26 100.90 211.06 107.64 210.52
  Q 118.44 209.65 127.67 211.10
  A 1.95 1.92 -52.3 0 0 128.77 210.95
  Q 129.17 210.76 129.36 210.77
  A 0.18 0.18 0.0 0 1 129.42 211.11
  Z"
/>
</svg>
