<?xml version="1.0" encoding="UTF-8" standalone="no"?>
<!DOCTYPE svg PUBLIC "-//W3C//DTD SVG 1.1//EN" "http://www.w3.org/Graphics/SVG/1.1/DTD/svg11.dtd">
<svg xmlns="http://www.w3.org/2000/svg" version="1.1" viewBox="0.00 0.00 256.00 256.00">
<g stroke-width="2.00" fill="none" stroke-linecap="butt">
<path stroke="#6f5ea0" vector-effect="non-scaling-stroke" d="
  M 142.98 103.17
  Q 143.30 102.19 142.30 95.98
  C 141.16 88.82 139.99 84.11 136.89 76.87
  C 132.78 67.26 131.41 59.90 129.51 48.52
  C 129.06 45.86 125.86 43.77 123.31 45.52
  Q 120.76 47.26 121.07 51.05
  Q 122.46 67.71 130.06 83.73
  C 132.82 89.54 137.01 94.09 140.31 98.95
  Q 141.60 100.84 142.61 103.19
  A 0.20 0.20 0.0 0 0 142.98 103.17"
/>
<path stroke="#6f5ea0" vector-effect="non-scaling-stroke" d="
  M 99.40 121.18
  C 98.11 113.14 97.97 108.54 95.57 100.74
  Q 88.42 77.54 82.00 55.51
  C 81.31 53.17 79.83 49.81 78.07 48.85
  C 73.44 46.32 71.77 51.95 72.69 55.30
  Q 78.76 77.33 87.01 103.48
  Q 90.30 113.92 98.49 121.67
  A 0.55 0.54 -73.1 0 0 99.40 121.18"
/>
<path stroke="#6f5ea0" vector-effect="non-scaling-stroke" d="
  M 208.14 117.30
  Q 204.29 118.97 199.49 124.25
  Q 194.96 129.22 184.61 140.85
  C 178.55 147.66 171.43 152.33 161.69 153.17
  C 150.86 154.10 142.54 153.62 136.94 164.47
  C 132.97 172.15 129.22 179.56 123.34 184.37
  Q 119.57 187.46 114.95 185.28
  C 106.60 181.35 99.15 175.62 93.17 171.86
  C 83.76 165.94 74.24 163.68 67.53 174.80
  C 64.85 179.25 57.46 193.97 61.18 198.21
  A 1.83 1.51 -43.1 0 0 63.61 198.06
  Q 65.01 196.71 65.54 195.53
  Q 68.72 188.49 72.31 181.81
  C 73.88 178.89 76.97 173.67 80.37 174.79
  Q 86.54 176.82 92.64 181.11
  Q 103.54 188.79 109.04 191.70
  C 115.75 195.26 122.40 196.05 128.48 190.95
  Q 135.62 184.95 139.95 175.68
  Q 142.62 169.96 144.56 166.30
  C 147.38 160.97 151.57 161.17 157.76 160.56
  Q 158.08 160.53 163.43 160.02
  C 171.04 159.31 177.67 156.60 183.50 151.47
  Q 197.07 139.54 204.59 123.11
  C 205.42 121.29 206.61 119.56 208.36 117.60
  A 0.19 0.19 0.0 0 0 208.14 117.30"
/>
</g>
<path fill="#7f00ff" d="
  M 256.00 0.00
  L 256.00 256.00
  L 0.00 256.00
  L 0.00 0.00
  L 256.00 0.00
  Z
  M 142.98 103.17
  Q 143.30 102.19 142.30 95.98
  C 141.16 88.82 139.99 84.11 136.89 76.87
  C 132.78 67.26 131.41 59.90 129.51 48.52
  C 129.06 45.86 125.86 43.77 123.31 45.52
  Q 120.76 47.26 121.07 51.05
  Q 122.46 67.71 130.06 83.73
  C 132.82 89.54 137.01 94.09 140.31 98.95
  Q 141.60 100.84 142.61 103.19
  A 0.20 0.20 0.0 0 0 142.98 103.17
  Z
  M 99.40 121.18
  C 98.11 113.14 97.97 108.54 95.57 100.74
  Q 88.42 77.54 82.00 55.51
  C 81.31 53.17 79.83 49.81 78.07 48.85
  C 73.44 46.32 71.77 51.95 72.69 55.30
  Q 78.76 77.33 87.01 103.48
  Q 90.30 113.92 98.49 121.67
  A 0.55 0.54 -73.1 0 0 99.40 121.18
  Z
  M 208.14 117.30
  Q 204.29 118.97 199.49 124.25
  Q 194.96 129.22 184.61 140.85
  C 178.55 147.66 171.43 152.33 161.69 153.17
  C 150.86 154.10 142.54 153.62 136.94 164.47
  C 132.97 172.15 129.22 179.56 123.34 184.37
  Q 119.57 187.46 114.95 185.28
  C 106.60 181.35 99.15 175.62 93.17 171.86
  C 83.76 165.94 74.24 163.68 67.53 174.80
  C 64.85 179.25 57.46 193.97 61.18 198.21
  A 1.83 1.51 -43.1 0 0 63.61 198.06
  Q 65.01 196.71 65.54 195.53
  Q 68.72 188.49 72.31 181.81
  C 73.88 178.89 76.97 173.67 80.37 174.79
  Q 86.54 176.82 92.64 181.11
  Q 103.54 188.79 109.04 191.70
  C 115.75 195.26 122.40 196.05 128.48 190.95
  Q 135.62 184.95 139.95 175.68
  Q 142.62 169.96 144.56 166.30
  C 147.38 160.97 151.57 161.17 157.76 160.56
  Q 158.08 160.53 163.43 160.02
  C 171.04 159.31 177.67 156.60 183.50 151.47
  Q 197.07 139.54 204.59 123.11
  C 205.42 121.29 206.61 119.56 208.36 117.60
  A 0.19 0.19 0.0 0 0 208.14 117.30
  Z"
/>
<path fill="#5ebc40" d="
  M 142.61 103.19
  Q 141.60 100.84 140.31 98.95
  C 137.01 94.09 132.82 89.54 130.06 83.73
  Q 122.46 67.71 121.07 51.05
  Q 120.76 47.26 123.31 45.52
  C 125.86 43.77 129.06 45.86 129.51 48.52
  C 131.41 59.90 132.78 67.26 136.89 76.87
  C 139.99 84.11 141.16 88.82 142.30 95.98
  Q 143.30 102.19 142.98 103.17
  A 0.20 0.20 0.0 0 1 142.61 103.19
  Z"
/>
<path fill="#5ebc40" d="
  M 99.40 121.18
  A 0.55 0.54 -73.1 0 1 98.49 121.67
  Q 90.30 113.92 87.01 103.48
  Q 78.76 77.33 72.69 55.30
  C 71.77 51.95 73.44 46.32 78.07 48.85
  C 79.83 49.81 81.31 53.17 82.00 55.51
  Q 88.42 77.54 95.57 100.74
  C 97.97 108.54 98.11 113.14 99.40 121.18
  Z"
/>
<path fill="#5ebc40" d="
  M 208.36 117.60
  C 206.61 119.56 205.42 121.29 204.59 123.11
  Q 197.07 139.54 183.50 151.47
  C 177.67 156.60 171.04 159.31 163.43 160.02
  Q 158.08 160.53 157.76 160.56
  C 151.57 161.17 147.38 160.97 144.56 166.30
  Q 142.62 169.96 139.95 175.68
  Q 135.62 184.95 128.48 190.95
  C 122.40 196.05 115.75 195.26 109.04 191.70
  Q 103.54 188.79 92.64 181.11
  Q 86.54 176.82 80.37 174.79
  C 76.97 173.67 73.88 178.89 72.31 181.81
  Q 68.72 188.49 65.54 195.53
  Q 65.01 196.71 63.61 198.06
  A 1.83 1.51 -43.1 0 1 61.18 198.21
  C 57.46 193.97 64.85 179.25 67.53 174.80
  C 74.24 163.68 83.76 165.94 93.17 171.86
  C 99.15 175.62 106.60 181.35 114.95 185.28
  Q 119.57 187.46 123.34 184.37
  C 129.22 179.56 132.97 172.15 136.94 164.47
  C 142.54 153.62 150.86 154.10 161.69 153.17
  C 171.43 152.33 178.55 147.66 184.61 140.85
  Q 194.96 129.22 199.49 124.25
  Q 204.29 118.97 208.14 117.30
  A 0.19 0.19 0.0 0 1 208.36 117.60
  Z"
/>
</svg>
