<?xml version="1.0" encoding="UTF-8" standalone="no"?>
<!DOCTYPE svg PUBLIC "-//W3C//DTD SVG 1.1//EN" "http://www.w3.org/Graphics/SVG/1.1/DTD/svg11.dtd">
<svg xmlns="http://www.w3.org/2000/svg" version="1.1" viewBox="0.00 0.00 256.00 256.00">
<g stroke-width="2.00" fill="none" stroke-linecap="butt">
<path stroke="#2460db" vector-effect="non-scaling-stroke" d="
  M 78.91 67.38
  Q 80.99 67.27 88.13 68.18
  Q 93.76 68.90 95.33 68.25
  Q 98.77 66.81 100.96 63.15
  A 0.46 0.45 15.8 0 0 100.57 62.46
  L 99.56 62.45
  A 2.34 2.25 61.8 0 1 98.29 62.04
  Q 95.49 60.09 93.51 59.77
  Q 74.22 56.69 52.85 58.56
  Q 51.13 58.71 50.05 59.62
  A 1.56 1.56 0.0 0 0 50.26 62.15
  Q 51.79 63.07 53.63 63.59
  Q 61.28 65.76 69.31 66.50
  A 0.89 0.89 0.0 0 1 70.11 67.23
  L 70.23 67.84
  A 2.88 2.87 16.6 0 0 71.07 69.39
  Q 73.55 71.75 76.42 74.82
  C 81.76 80.54 79.46 85.46 75.73 91.18
  C 74.12 93.65 73.92 96.17 76.46 97.77
  A 1.47 1.46 28.7 0 1 77.01 99.62
  Q 74.97 104.04 74.54 109.55
  A 0.63 0.63 0.0 0 0 75.13 110.23
  C 82.40 110.72 86.60 104.00 84.26 97.41
  Q 84.12 97.01 83.74 96.60
  Q 83.40 96.23 83.33 95.91
  A 1.15 1.14 -32.8 0 1 83.55 94.93
  Q 84.05 94.29 84.88 92.90
  C 90.93 82.68 86.89 74.71 78.75 67.84
  A 0.26 0.26 0.0 0 1 78.91 67.38"
/>
<path stroke="#2460db" vector-effect="non-scaling-stroke" d="
  M 166.26 106.95
  Q 167.71 105.37 169.54 102.59
  Q 171.85 99.10 172.25 97.89
  C 173.52 94.14 174.75 89.08 173.03 85.41
  C 171.10 81.29 167.61 80.34 163.14 78.53
  A 2.35 2.35 0.0 0 1 161.73 75.84
  Q 162.36 72.95 164.89 69.95
  A 1.07 1.05 -66.7 0 1 165.79 69.58
  Q 177.53 70.64 181.45 70.12
  Q 185.75 69.54 187.92 66.07
  A 1.84 1.83 -56.2 0 0 187.44 63.60
  C 184.79 61.70 183.13 61.18 179.69 61.18
  Q 169.41 61.18 164.28 60.16
  C 158.97 59.11 143.23 56.51 139.63 59.34
  A 1.52 1.52 0.0 0 0 140.04 61.96
  L 155.83 67.93
  A 0.28 0.28 0.0 0 1 155.95 68.38
  C 152.42 72.73 151.44 78.79 154.99 83.31
  C 157.25 86.19 160.80 87.35 164.51 88.47
  A 1.03 1.02 14.0 0 1 165.22 89.65
  C 164.33 94.29 161.63 99.71 166.24 103.53
  A 0.17 0.16 29.2 0 1 166.29 103.70
  L 165.46 106.49
  A 0.48 0.47 74.6 0 0 166.26 106.95"
/>
<path stroke="#2460db" vector-effect="non-scaling-stroke" d="
  M 203.64 156.42
  Q 199.46 149.61 191.70 148.27
  Q 185.30 147.17 175.28 147.24
  Q 167.27 147.30 144.77 148.10
  Q 125.97 148.76 99.01 148.81
  Q 87.55 148.84 77.54 153.00
  C 76.19 153.56 74.21 155.58 75.75 157.08
  Q 76.81 158.10 78.01 158.09
  Q 97.40 157.83 118.41 157.72
  C 135.47 157.63 146.87 157.09 165.75 156.46
  Q 179.07 156.01 188.93 156.96
  C 194.64 157.52 198.52 156.85 203.23 157.10
  A 0.45 0.45 0.0 0 0 203.64 156.42"
/>
</g>
<path fill="#4895ff" d="
  M 256.00 0.00
  L 256.00 256.00
  L 0.00 256.00
  L 0.00 0.00
  L 256.00 0.00
  Z
  M 78.91 67.38
  Q 80.99 67.27 88.13 68.18
  Q 93.76 68.90 95.33 68.25
  Q 98.77 66.81 100.96 63.15
  A 0.46 0.45 15.8 0 0 100.57 62.46
  L 99.56 62.45
  A 2.34 2.25 61.8 0 1 98.29 62.04
  Q 95.49 60.09 93.51 59.77
  Q 74.22 56.69 52.85 58.56
  Q 51.13 58.71 50.05 59.62
  A 1.56 1.56 0.0 0 0 50.26 62.15
  Q 51.79 63.07 53.63 63.59
  Q 61.28 65.76 69.31 66.50
  A 0.89 0.89 0.0 0 1 70.11 67.23
  L 70.23 67.84
  A 2.88 2.87 16.6 0 0 71.07 69.39
  Q 73.55 71.75 76.42 74.82
  C 81.76 80.54 79.46 85.46 75.73 91.18
  C 74.12 93.65 73.92 96.17 76.46 97.77
  A 1.47 1.46 28.7 0 1 77.01 99.62
  Q 74.97 104.04 74.54 109.55
  A 0.63 0.63 0.0 0 0 75.13 110.23
  C 82.40 110.72 86.60 104.00 84.26 97.41
  Q 84.12 97.01 83.74 96.60
  Q 83.40 96.23 83.33 95.91
  A 1.15 1.14 -32.8 0 1 83.55 94.93
  Q 84.05 94.29 84.88 92.90
  C 90.93 82.68 86.89 74.71 78.75 67.84
  A 0.26 0.26 0.0 0 1 78.91 67.38
  Z
  M 166.26 106.95
  Q 167.71 105.37 169.54 102.59
  Q 171.85 99.10 172.25 97.89
  C 173.52 94.14 174.75 89.08 173.03 85.41
  C 171.10 81.29 167.61 80.34 163.14 78.53
  A 2.35 2.35 0.0 0 1 161.73 75.84
  Q 162.36 72.95 164.89 69.95
  A 1.07 1.05 -66.7 0 1 165.79 69.58
  Q 177.53 70.64 181.45 70.12
  Q 185.75 69.54 187.92 66.07
  A 1.84 1.83 -56.2 0 0 187.44 63.60
  C 184.79 61.70 183.13 61.18 179.69 61.18
  Q 169.41 61.18 164.28 60.16
  C 158.97 59.11 143.23 56.51 139.63 59.34
  A 1.52 1.52 0.0 0 0 140.04 61.96
  L 155.83 67.93
  A 0.28 0.28 0.0 0 1 155.95 68.38
  C 152.42 72.73 151.44 78.79 154.99 83.31
  C 157.25 86.19 160.80 87.35 164.51 88.47
  A 1.03 1.02 14.0 0 1 165.22 89.65
  C 164.33 94.29 161.63 99.71 166.24 103.53
  A 0.17 0.16 29.2 0 1 166.29 103.70
  L 165.46 106.49
  A 0.48 0.47 74.6 0 0 166.26 106.95
  Z
  M 203.64 156.42
  Q 199.46 149.61 191.70 148.27
  Q 185.30 147.17 175.28 147.24
  Q 167.27 147.30 144.77 148.10
  Q 125.97 148.76 99.01 148.81
  Q 87.55 148.84 77.54 153.00
  C 76.19 153.56 74.21 155.58 75.75 157.08
  Q 76.81 158.10 78.01 158.09
  Q 97.40 157.83 118.41 157.72
  C 135.47 157.63 146.87 157.09 165.75 156.46
  Q 179.07 156.01 188.93 156.96
  C 194.64 157.52 198.52 156.85 203.23 157.10
  A 0.45 0.45 0.0 0 0 203.64 156.42
  Z"
/>
<path fill="#002ab6" d="
  M 78.75 67.84
  C 86.89 74.71 90.93 82.68 84.88 92.90
  Q 84.05 94.29 83.55 94.93
  A 1.15 1.14 -32.8 0 0 83.33 95.91
  Q 83.40 96.23 83.74 96.60
  Q 84.12 97.01 84.26 97.41
  C 86.60 104.00 82.40 110.72 75.13 110.23
  A 0.63 0.63 0.0 0 1 74.54 109.55
  Q 74.97 104.04 77.01 99.62
  A 1.47 1.46 28.7 0 0 76.46 97.77
  C 73.92 96.17 74.12 93.65 75.73 91.18
  C 79.46 85.46 81.76 80.54 76.42 74.82
  Q 73.55 71.75 71.07 69.39
  A 2.88 2.87 16.6 0 1 70.23 67.84
  L 70.11 67.23
  A 0.89 0.89 0.0 0 0 69.31 66.50
  Q 61.28 65.76 53.63 63.59
  Q 51.79 63.07 50.26 62.15
  A 1.56 1.56 0.0 0 1 50.05 59.62
  Q 51.13 58.71 52.85 58.56
  Q 74.22 56.69 93.51 59.77
  Q 95.49 60.09 98.29 62.04
  A 2.34 2.25 61.8 0 0 99.56 62.45
  L 100.57 62.46
  A 0.46 0.45 15.8 0 1 100.96 63.15
  Q 98.77 66.81 95.33 68.25
  Q 93.76 68.90 88.13 68.18
  Q 80.99 67.27 78.91 67.38
  A 0.26 0.26 0.0 0 0 78.75 67.84
  Z"
/>
<path fill="#002ab6" d="
  M 165.46 106.49
  L 166.29 103.70
  A 0.17 0.16 29.2 0 0 166.24 103.53
  C 161.63 99.71 164.33 94.29 165.22 89.65
  A 1.03 1.02 14.0 0 0 164.51 88.47
  C 160.80 87.35 157.25 86.19 154.99 83.31
  C 151.44 78.79 152.42 72.73 155.95 68.38
  A 0.28 0.28 0.0 0 0 155.83 67.93
  L 140.04 61.96
  A 1.52 1.52 0.0 0 1 139.63 59.34
  C 143.23 56.51 158.97 59.11 164.28 60.16
  Q 169.41 61.18 179.69 61.18
  C 183.13 61.18 184.79 61.70 187.44 63.60
  A 1.84 1.83 -56.2 0 1 187.92 66.07
  Q 185.75 69.54 181.45 70.12
  Q 177.53 70.64 165.79 69.58
  A 1.07 1.05 -66.7 0 0 164.89 69.95
  Q 162.36 72.95 161.73 75.84
  A 2.35 2.35 0.0 0 0 163.14 78.53
  C 167.61 80.34 171.10 81.29 173.03 85.41
  C 174.75 89.08 173.52 94.14 172.25 97.89
  Q 171.85 99.10 169.54 102.59
  Q 167.71 105.37 166.26 106.95
  A 0.48 0.47 74.6 0 1 165.46 106.49
  Z"
/>
<path fill="#002ab6" d="
  M 203.23 157.10
  C 198.52 156.85 194.64 157.52 188.93 156.96
  Q 179.07 156.01 165.75 156.46
  C 146.87 157.09 135.47 157.63 118.41 157.72
  Q 97.40 157.83 78.01 158.09
  Q 76.81 158.10 75.75 157.08
  C 74.21 155.58 76.19 153.56 77.54 153.00
  Q 87.55 148.84 99.01 148.81
  Q 125.97 148.76 144.77 148.10
  Q 167.27 147.30 175.28 147.24
  Q 185.30 147.17 191.70 148.27
  Q 199.46 149.61 203.64 156.42
  A 0.45 0.45 0.0 0 1 203.23 157.10
  Z"
/>
</svg>
