<?xml version="1.0" encoding="UTF-8" standalone="no"?>
<!DOCTYPE svg PUBLIC "-//W3C//DTD SVG 1.1//EN" "http://www.w3.org/Graphics/SVG/1.1/DTD/svg11.dtd">
<svg xmlns="http://www.w3.org/2000/svg" version="1.1" viewBox="0.00 0.00 256.00 256.00">
<g stroke-width="2.00" fill="none" stroke-linecap="butt">
<path stroke="#808227" vector-effect="non-scaling-stroke" d="
  M 59.82 58.16
  Q 61.62 57.30 66.25 56.94
  C 79.25 55.93 89.95 56.88 100.21 65.27
  C 103.58 68.02 109.26 74.92 106.06 79.56
  C 102.91 84.13 96.46 86.68 91.29 88.26
  Q 78.17 92.25 65.27 91.36
  C 47.54 90.14 44.56 75.67 51.60 61.82
  C 54.50 56.10 58.60 52.23 65.36 51.92
  A 0.18 0.18 0.0 0 0 65.53 51.75
  A 0.16 0.15 -85.9 0 0 65.40 51.59
  C 56.37 50.57 48.48 56.88 44.52 64.38
  C 36.47 79.60 45.02 96.11 62.30 97.95
  Q 80.95 99.94 99.32 92.83
  Q 103.96 91.04 107.86 87.89
  C 132.18 68.28 79.65 32.52 59.66 57.96
  A 0.13 0.13 0.0 0 0 59.82 58.16"
/>
<path stroke="#808227" vector-effect="non-scaling-stroke" d="
  M 149.96 69.60
  Q 151.60 72.15 155.30 71.95
  Q 182.00 70.49 200.07 67.29
  C 202.63 66.84 209.67 64.97 209.36 61.53
  A 1.57 1.55 -69.7 0 0 208.94 60.60
  C 206.66 58.19 201.83 58.07 198.74 58.49
  Q 181.20 60.86 163.69 62.66
  C 159.89 63.05 153.11 63.38 150.71 65.69
  Q 148.69 67.63 149.96 69.60"
/>
<path stroke="#808227" vector-effect="non-scaling-stroke" d="
  M 182.57 136.09
  Q 181.55 136.46 181.27 136.45
  Q 171.15 136.00 167.36 136.85
  Q 136.98 143.68 114.38 145.40
  Q 108.00 145.89 95.02 144.77
  Q 92.70 144.57 88.53 145.35
  A 1.53 1.53 0.0 0 1 87.40 145.13
  C 83.80 142.83 79.18 145.38 80.48 149.86
  Q 82.69 157.46 85.42 164.33
  C 90.09 176.10 101.42 182.35 113.76 184.58
  C 135.36 188.48 160.72 184.20 171.24 162.72
  Q 174.87 155.29 177.23 148.48
  Q 178.29 145.41 177.75 141.62
  A 0.95 0.94 -26.3 0 1 178.02 140.83
  L 182.65 136.20
  A 0.07 0.07 0.0 0 0 182.57 136.09"
/>
<path stroke="#808227" vector-effect="non-scaling-stroke" d="
  M 168.71 145.71
  Q 142.00 152.21 114.52 154.49
  Q 102.28 155.50 91.14 151.76
  A 0.35 0.35 0.0 0 0 90.70 152.19
  C 94.16 163.70 97.54 170.26 109.39 174.07
  C 126.32 179.50 152.44 178.11 162.22 160.47
  Q 163.44 158.27 169.03 146.10
  A 0.28 0.28 0.0 0 0 168.71 145.71"
/>
</g>
<path fill="#001148" d="
  M 256.00 0.00
  L 256.00 256.00
  L 0.00 256.00
  L 0.00 0.00
  L 256.00 0.00
  Z
  M 59.82 58.16
  Q 61.62 57.30 66.25 56.94
  C 79.25 55.93 89.95 56.88 100.21 65.27
  C 103.58 68.02 109.26 74.92 106.06 79.56
  C 102.91 84.13 96.46 86.68 91.29 88.26
  Q 78.17 92.25 65.27 91.36
  C 47.54 90.14 44.56 75.67 51.60 61.82
  C 54.50 56.10 58.60 52.23 65.36 51.92
  A 0.18 0.18 0.0 0 0 65.53 51.75
  A 0.16 0.15 -85.9 0 0 65.40 51.59
  C 56.37 50.57 48.48 56.88 44.52 64.38
  C 36.47 79.60 45.02 96.11 62.30 97.95
  Q 80.95 99.94 99.32 92.83
  Q 103.96 91.04 107.86 87.89
  C 132.18 68.28 79.65 32.52 59.66 57.96
  A 0.13 0.13 0.0 0 0 59.82 58.16
  Z
  M 149.96 69.60
  Q 151.60 72.15 155.30 71.95
  Q 182.00 70.49 200.07 67.29
  C 202.63 66.84 209.67 64.97 209.36 61.53
  A 1.57 1.55 -69.7 0 0 208.94 60.60
  C 206.66 58.19 201.83 58.07 198.74 58.49
  Q 181.20 60.86 163.69 62.66
  C 159.89 63.05 153.11 63.38 150.71 65.69
  Q 148.69 67.63 149.96 69.60
  Z
  M 182.57 136.09
  Q 181.55 136.46 181.27 136.45
  Q 171.15 136.00 167.36 136.85
  Q 136.98 143.68 114.38 145.40
  Q 108.00 145.89 95.02 144.77
  Q 92.70 144.57 88.53 145.35
  A 1.53 1.53 0.0 0 1 87.40 145.13
  C 83.80 142.83 79.18 145.38 80.48 149.86
  Q 82.69 157.46 85.42 164.33
  C 90.09 176.10 101.42 182.35 113.76 184.58
  C 135.36 188.48 160.72 184.20 171.24 162.72
  Q 174.87 155.29 177.23 148.48
  Q 178.29 145.41 177.75 141.62
  A 0.95 0.94 -26.3 0 1 178.02 140.83
  L 182.65 136.20
  A 0.07 0.07 0.0 0 0 182.57 136.09
  Z"
/>
<path fill="#fff206" d="
  M 59.66 57.96
  C 79.65 32.52 132.18 68.28 107.86 87.89
  Q 103.96 91.04 99.32 92.83
  Q 80.95 99.94 62.30 97.95
  C 45.02 96.11 36.47 79.60 44.52 64.38
  C 48.48 56.88 56.37 50.57 65.40 51.59
  A 0.16 0.15 -85.9 0 1 65.53 51.75
  A 0.18 0.18 0.0 0 1 65.36 51.92
  C 58.60 52.23 54.50 56.10 51.60 61.82
  C 44.56 75.67 47.54 90.14 65.27 91.36
  Q 78.17 92.25 91.29 88.26
  C 96.46 86.68 102.91 84.13 106.06 79.56
  C 109.26 74.92 103.58 68.02 100.21 65.27
  C 89.95 56.88 79.25 55.93 66.25 56.94
  Q 61.62 57.30 59.82 58.16
  A 0.13 0.13 0.0 0 1 59.66 57.96
  Z"
/>
<path fill="#fff206" d="
  M 149.96 69.60
  Q 148.69 67.63 150.71 65.69
  C 153.11 63.38 159.89 63.05 163.69 62.66
  Q 181.20 60.86 198.74 58.49
  C 201.83 58.07 206.66 58.19 208.94 60.60
  A 1.57 1.55 -69.7 0 1 209.36 61.53
  C 209.67 64.97 202.63 66.84 200.07 67.29
  Q 182.00 70.49 155.30 71.95
  Q 151.60 72.15 149.96 69.60
  Z"
/>
<path fill="#fff206" d="
  M 182.65 136.20
  L 178.02 140.83
  A 0.95 0.94 -26.3 0 0 177.75 141.62
  Q 178.29 145.41 177.23 148.48
  Q 174.87 155.29 171.24 162.72
  C 160.72 184.20 135.36 188.48 113.76 184.58
  C 101.42 182.35 90.09 176.10 85.42 164.33
  Q 82.69 157.46 80.48 149.86
  C 79.18 145.38 83.80 142.83 87.40 145.13
  A 1.53 1.53 0.0 0 0 88.53 145.35
  Q 92.70 144.57 95.02 144.77
  Q 108.00 145.89 114.38 145.40
  Q 136.98 143.68 167.36 136.85
  Q 171.15 136.00 181.27 136.45
  Q 181.55 136.46 182.57 136.09
  A 0.07 0.07 0.0 0 1 182.65 136.20
  Z
  M 168.71 145.71
  Q 142.00 152.21 114.52 154.49
  Q 102.28 155.50 91.14 151.76
  A 0.35 0.35 0.0 0 0 90.70 152.19
  C 94.16 163.70 97.54 170.26 109.39 174.07
  C 126.32 179.50 152.44 178.11 162.22 160.47
  Q 163.44 158.27 169.03 146.10
  A 0.28 0.28 0.0 0 0 168.71 145.71
  Z"
/>
<path fill="#001148" d="
  M 169.03 146.10
  Q 163.44 158.27 162.22 160.47
  C 152.44 178.11 126.32 179.50 109.39 174.07
  C 97.54 170.26 94.16 163.70 90.70 152.19
  A 0.35 0.35 0.0 0 1 91.14 151.76
  Q 102.28 155.50 114.52 154.49
  Q 142.00 152.21 168.71 145.71
  A 0.28 0.28 0.0 0 1 169.03 146.10
  Z"
/>
</svg>
