<?xml version="1.0" encoding="UTF-8" standalone="no"?>
<!DOCTYPE svg PUBLIC "-//W3C//DTD SVG 1.1//EN" "http://www.w3.org/Graphics/SVG/1.1/DTD/svg11.dtd">
<svg xmlns="http://www.w3.org/2000/svg" version="1.1" viewBox="0.00 0.00 256.00 256.00">
<g stroke-width="2.00" fill="none" stroke-linecap="butt">
<path stroke="#897b5c" vector-effect="non-scaling-stroke" d="
  M 157.24 78.32
  C 161.06 76.79 163.17 72.05 162.09 68.62
  C 161.32 66.16 158.92 62.08 156.44 60.10
  A 3.41 3.30 74.0 0 0 155.52 59.57
  C 149.91 57.39 145.87 58.52 141.20 61.96
  C 135.19 66.38 135.79 73.84 143.03 76.47
  Q 145.67 77.43 148.38 78.23
  C 151.75 79.23 154.11 79.58 157.24 78.32"
/>
<path stroke="#897b5c" vector-effect="non-scaling-stroke" d="
  M 62.0249 68.9461
  A 13.35 11.15 -175.3 0 0 74.4164 81.1525
  A 13.35 11.15 -175.3 0 0 88.6351 71.1339
  A 13.35 11.15 -175.3 0 0 76.2436 58.9275
  A 13.35 11.15 -175.3 0 0 62.0249 68.9461"
/>
<path stroke="#897b5c" vector-effect="non-scaling-stroke" d="
  M 154.09 191.36
  Q 166.82 186.82 177.33 176.86
  C 191.41 163.52 194.90 146.21 188.55 128.07
  A 0.56 0.56 0.0 0 1 188.96 127.34
  Q 195.39 125.98 200.96 123.17
  A 0.28 0.28 0.0 0 0 200.92 122.66
  Q 192.01 119.86 184.11 119.26
  A 2.87 2.86 -28.0 0 1 182.93 118.90
  C 180.33 117.43 179.18 115.96 175.53 115.80
  A 0.24 0.24 0.0 0 0 175.36 116.22
  Q 176.85 117.61 177.09 118.68
  A 0.57 0.56 81.8 0 1 176.59 119.36
  Q 162.04 120.45 160.16 120.70
  C 132.06 124.44 113.59 126.98 88.34 128.31
  C 80.90 128.71 74.43 129.42 67.38 130.85
  C 65.08 131.32 59.93 133.30 62.57 136.30
  A 1.47 1.41 -12.6 0 0 63.33 136.76
  L 64.01 136.90
  A 0.59 0.58 17.6 0 1 64.43 137.70
  L 63.55 139.80
  A 0.62 0.46 -36.7 0 0 63.52 139.90
  C 61.77 154.06 68.67 168.99 78.08 179.21
  C 96.33 199.04 130.69 199.71 154.09 191.36"
/>
<path stroke="#897b5c" vector-effect="non-scaling-stroke" d="
  M 88.88 176.94
  Q 88.88 176.95 88.87 177.00
  A 0.23 0.20 -66.2 0 0 88.94 177.22
  Q 99.04 184.05 111.28 186.23
  C 128.29 189.25 148.33 186.42 163.03 176.80
  C 180.68 165.24 187.08 148.81 179.20 128.74
  A 0.55 0.54 -11.6 0 0 178.68 128.40
  C 161.97 129.01 149.12 131.30 127.57 134.07
  Q 97.14 137.97 67.75 137.59
  A 0.44 0.44 0.0 0 0 67.31 138.12
  Q 70.99 155.63 80.21 168.47
  Q 83.31 172.79 88.82 176.87
  A 0.11 0.04 29.4 0 1 88.88 176.94"
/>
</g>
<path fill="#140c00" d="
  M 256.00 0.00
  L 256.00 256.00
  L 0.00 256.00
  L 0.00 0.00
  L 256.00 0.00
  Z
  M 157.24 78.32
  C 161.06 76.79 163.17 72.05 162.09 68.62
  C 161.32 66.16 158.92 62.08 156.44 60.10
  A 3.41 3.30 74.0 0 0 155.52 59.57
  C 149.91 57.39 145.87 58.52 141.20 61.96
  C 135.19 66.38 135.79 73.84 143.03 76.47
  Q 145.67 77.43 148.38 78.23
  C 151.75 79.23 154.11 79.58 157.24 78.32
  Z
  M 62.0249 68.9461
  A 13.35 11.15 -175.3 0 0 74.4164 81.1525
  A 13.35 11.15 -175.3 0 0 88.6351 71.1339
  A 13.35 11.15 -175.3 0 0 76.2436 58.9275
  A 13.35 11.15 -175.3 0 0 62.0249 68.9461
  Z
  M 154.09 191.36
  Q 166.82 186.82 177.33 176.86
  C 191.41 163.52 194.90 146.21 188.55 128.07
  A 0.56 0.56 0.0 0 1 188.96 127.34
  Q 195.39 125.98 200.96 123.17
  A 0.28 0.28 0.0 0 0 200.92 122.66
  Q 192.01 119.86 184.11 119.26
  A 2.87 2.86 -28.0 0 1 182.93 118.90
  C 180.33 117.43 179.18 115.96 175.53 115.80
  A 0.24 0.24 0.0 0 0 175.36 116.22
  Q 176.85 117.61 177.09 118.68
  A 0.57 0.56 81.8 0 1 176.59 119.36
  Q 162.04 120.45 160.16 120.70
  C 132.06 124.44 113.59 126.98 88.34 128.31
  C 80.90 128.71 74.43 129.42 67.38 130.85
  C 65.08 131.32 59.93 133.30 62.57 136.30
  A 1.47 1.41 -12.6 0 0 63.33 136.76
  L 64.01 136.90
  A 0.59 0.58 17.6 0 1 64.43 137.70
  L 63.55 139.80
  A 0.62 0.46 -36.7 0 0 63.52 139.90
  C 61.77 154.06 68.67 168.99 78.08 179.21
  C 96.33 199.04 130.69 199.71 154.09 191.36
  Z"
/>
<path fill="#fee9b8" d="
  M 157.24 78.32
  C 154.11 79.58 151.75 79.23 148.38 78.23
  Q 145.67 77.43 143.03 76.47
  C 135.79 73.84 135.19 66.38 141.20 61.96
  C 145.87 58.52 149.91 57.39 155.52 59.57
  A 3.41 3.30 74.0 0 1 156.44 60.10
  C 158.92 62.08 161.32 66.16 162.09 68.62
  C 163.17 72.05 161.06 76.79 157.24 78.32
  Z"
/>
<ellipse fill="#fee9b8" cx="0.00" cy="0.00" transform="translate(75.33,70.04) rotate(-175.3)" rx="13.35" ry="11.15"/>
<path fill="#fee9b8" d="
  M 154.09 191.36
  C 130.69 199.71 96.33 199.04 78.08 179.21
  C 68.67 168.99 61.77 154.06 63.52 139.90
  A 0.62 0.46 -36.7 0 1 63.55 139.80
  L 64.43 137.70
  A 0.59 0.58 17.6 0 0 64.01 136.90
  L 63.33 136.76
  A 1.47 1.41 -12.6 0 1 62.57 136.30
  C 59.93 133.30 65.08 131.32 67.38 130.85
  C 74.43 129.42 80.90 128.71 88.34 128.31
  C 113.59 126.98 132.06 124.44 160.16 120.70
  Q 162.04 120.45 176.59 119.36
  A 0.57 0.56 81.8 0 0 177.09 118.68
  Q 176.85 117.61 175.36 116.22
  A 0.24 0.24 0.0 0 1 175.53 115.80
  C 179.18 115.96 180.33 117.43 182.93 118.90
  A 2.87 2.86 -28.0 0 0 184.11 119.26
  Q 192.01 119.86 200.92 122.66
  A 0.28 0.28 0.0 0 1 200.96 123.17
  Q 195.39 125.98 188.96 127.34
  A 0.56 0.56 0.0 0 0 188.55 128.07
  C 194.90 146.21 191.41 163.52 177.33 176.86
  Q 166.82 186.82 154.09 191.36
  Z
  M 88.88 176.94
  Q 88.88 176.95 88.87 177.00
  A 0.23 0.20 -66.2 0 0 88.94 177.22
  Q 99.04 184.05 111.28 186.23
  C 128.29 189.25 148.33 186.42 163.03 176.80
  C 180.68 165.24 187.08 148.81 179.20 128.74
  A 0.55 0.54 -11.6 0 0 178.68 128.40
  C 161.97 129.01 149.12 131.30 127.57 134.07
  Q 97.14 137.97 67.75 137.59
  A 0.44 0.44 0.0 0 0 67.31 138.12
  Q 70.99 155.63 80.21 168.47
  Q 83.31 172.79 88.82 176.87
  A 0.11 0.04 29.4 0 1 88.88 176.94
  Z"
/>
<path fill="#140c00" d="
  M 88.82 176.87
  Q 83.31 172.79 80.21 168.47
  Q 70.99 155.63 67.31 138.12
  A 0.44 0.44 0.0 0 1 67.75 137.59
  Q 97.14 137.97 127.57 134.07
  C 149.12 131.30 161.97 129.01 178.68 128.40
  A 0.55 0.54 -11.6 0 1 179.20 128.74
  C 187.08 148.81 180.68 165.24 163.03 176.80
  C 148.33 186.42 128.29 189.25 111.28 186.23
  Q 99.04 184.05 88.94 177.22
  A 0.23 0.20 -66.2 0 1 88.87 177.00
  Q 88.88 176.95 88.88 176.94
  A 0.11 0.04 29.4 0 0 88.82 176.87
  Z"
/>
</svg>
