<?xml version="1.0" encoding="UTF-8" standalone="no"?>
<!DOCTYPE svg PUBLIC "-//W3C//DTD SVG 1.1//EN" "http://www.w3.org/Graphics/SVG/1.1/DTD/svg11.dtd">
<svg xmlns="http://www.w3.org/2000/svg" version="1.1" viewBox="0.00 0.00 256.00 256.00">
<g stroke-width="2.00" fill="none" stroke-linecap="butt">
<path stroke="#e1800e" vector-effect="non-scaling-stroke" d="
  M 119.71 82.36
  C 121.69 82.45 123.25 82.45 125.31 82.90
  Q 136.72 85.38 139.51 85.71
  Q 140.21 85.80 143.91 85.30
  A 0.44 0.44 0.0 0 1 144.41 85.74
  Q 144.40 88.92 145.33 89.95
  C 152.03 97.40 162.04 100.23 171.77 101.99
  C 185.41 104.45 200.16 99.50 210.33 90.88
  C 218.41 84.03 233.81 70.30 226.78 58.33
  A 0.66 0.66 0.0 0 1 226.99 57.44
  Q 229.37 55.89 229.81 53.30
  C 230.28 50.52 227.72 49.42 225.46 49.02
  A 1.68 1.66 -45.4 0 0 224.76 49.03
  Q 199.05 54.37 174.70 64.00
  Q 146.96 74.97 140.26 77.74
  A 1.60 1.42 27.8 0 1 139.77 77.86
  L 131.32 78.41
  A 3.94 3.56 33.8 0 0 130.77 78.49
  L 118.75 81.30
  A 1.15 1.13 52.7 0 1 117.93 81.18
  Q 115.40 79.76 111.88 80.60
  Q 88.26 86.27 65.66 95.68
  Q 55.06 100.09 43.92 104.94
  C 40.10 106.61 35.99 107.81 32.32 109.08
  A 3.32 3.30 11.1 0 0 30.97 109.98
  L 30.51 110.51
  A 1.99 1.98 18.2 0 1 29.21 111.16
  Q 22.71 111.80 14.34 113.26
  Q 12.24 113.63 11.23 114.53
  C 8.69 116.79 11.16 119.83 13.49 120.26
  Q 17.35 120.96 22.02 120.68
  Q 35.43 119.88 38.55 119.71
  A 1.29 1.29 0.0 0 1 39.60 120.17
  C 44.07 125.59 52.62 126.92 59.51 127.32
  C 81.39 128.58 109.07 123.80 120.56 103.06
  C 123.65 97.49 124.39 90.12 119.75 85.17
  A 0.99 0.95 17.4 0 1 119.51 84.73
  L 119.12 83.06
  A 0.57 0.57 0.0 0 1 119.71 82.36"
/>
<path stroke="#e1800e" vector-effect="non-scaling-stroke" d="
  M 190.68 145.91
  Q 189.68 145.82 188.82 146.75
  A 0.47 0.47 0.0 0 1 188.13 146.74
  Q 188.06 146.67 187.99 146.60
  A 0.69 0.68 -38.2 0 0 187.12 146.50
  Q 185.69 147.42 184.23 147.35
  Q 173.89 146.85 164.54 149.06
  Q 160.53 150.00 154.31 151.10
  Q 131.41 155.14 104.72 158.52
  C 98.79 159.27 93.54 160.70 88.08 162.59
  Q 86.19 163.24 85.01 164.64
  A 1.73 1.64 43.7 0 0 85.12 166.87
  C 88.94 170.97 105.63 167.56 111.93 166.67
  A 4.09 4.07 57.3 0 1 114.74 167.29
  C 129.98 177.17 145.56 185.38 163.13 174.87
  Q 174.06 168.33 184.68 156.17
  Q 186.61 153.97 187.87 148.76
  A 1.40 1.40 0.0 0 1 190.06 147.96
  Q 190.96 148.62 191.38 148.31
  A 1.34 1.34 0.0 0 0 190.68 145.91"
/>
<path stroke="#e1800e" vector-effect="non-scaling-stroke" d="
  M 150.72 83.62
  Q 151.48 83.65 152.20 84.32
  C 158.15 89.84 165.93 91.70 173.46 93.08
  C 184.49 95.09 194.01 91.00 203.77 85.27
  Q 219.56 75.99 224.28 58.92
  A 0.32 0.32 0.0 0 0 223.90 58.52
  Q 198.22 64.11 172.87 74.37
  Q 150.76 83.32 150.68 83.36
  A 0.14 0.13 -54.7 0 0 150.72 83.62"
/>
<path stroke="#e1800e" vector-effect="non-scaling-stroke" d="
  M 113.99 89.40
  C 89.66 95.40 70.06 103.21 46.08 113.90
  A 0.30 0.30 0.0 0 0 46.03 114.43
  Q 49.72 116.95 54.07 117.57
  C 72.60 120.23 97.51 117.70 110.21 102.50
  Q 114.47 97.40 114.44 89.76
  A 0.37 0.36 83.2 0 0 113.99 89.40"
/>
<path stroke="#e1800e" vector-effect="non-scaling-stroke" d="
  M 117.39 165.88
  Q 125.30 168.23 132.59 170.13
  C 142.20 172.62 150.72 172.56 159.01 166.99
  C 164.38 163.40 169.96 158.31 173.08 156.18
  A 0.04 0.03 15.3 0 0 173.04 156.12
  Q 170.46 157.08 168.93 157.40
  Q 143.32 162.74 117.39 165.88"
/>
</g>
<path fill="#ffff00" d="
  M 256.00 0.00
  L 256.00 256.00
  L 0.00 256.00
  L 0.00 0.00
  L 256.00 0.00
  Z
  M 119.71 82.36
  C 121.69 82.45 123.25 82.45 125.31 82.90
  Q 136.72 85.38 139.51 85.71
  Q 140.21 85.80 143.91 85.30
  A 0.44 0.44 0.0 0 1 144.41 85.74
  Q 144.40 88.92 145.33 89.95
  C 152.03 97.40 162.04 100.23 171.77 101.99
  C 185.41 104.45 200.16 99.50 210.33 90.88
  C 218.41 84.03 233.81 70.30 226.78 58.33
  A 0.66 0.66 0.0 0 1 226.99 57.44
  Q 229.37 55.89 229.81 53.30
  C 230.28 50.52 227.72 49.42 225.46 49.02
  A 1.68 1.66 -45.4 0 0 224.76 49.03
  Q 199.05 54.37 174.70 64.00
  Q 146.96 74.97 140.26 77.74
  A 1.60 1.42 27.8 0 1 139.77 77.86
  L 131.32 78.41
  A 3.94 3.56 33.8 0 0 130.77 78.49
  L 118.75 81.30
  A 1.15 1.13 52.7 0 1 117.93 81.18
  Q 115.40 79.76 111.88 80.60
  Q 88.26 86.27 65.66 95.68
  Q 55.06 100.09 43.92 104.94
  C 40.10 106.61 35.99 107.81 32.32 109.08
  A 3.32 3.30 11.1 0 0 30.97 109.98
  L 30.51 110.51
  A 1.99 1.98 18.2 0 1 29.21 111.16
  Q 22.71 111.80 14.34 113.26
  Q 12.24 113.63 11.23 114.53
  C 8.69 116.79 11.16 119.83 13.49 120.26
  Q 17.35 120.96 22.02 120.68
  Q 35.43 119.88 38.55 119.71
  A 1.29 1.29 0.0 0 1 39.60 120.17
  C 44.07 125.59 52.62 126.92 59.51 127.32
  C 81.39 128.58 109.07 123.80 120.56 103.06
  C 123.65 97.49 124.39 90.12 119.75 85.17
  A 0.99 0.95 17.4 0 1 119.51 84.73
  L 119.12 83.06
  A 0.57 0.57 0.0 0 1 119.71 82.36
  Z
  M 190.68 145.91
  Q 189.68 145.82 188.82 146.75
  A 0.47 0.47 0.0 0 1 188.13 146.74
  Q 188.06 146.67 187.99 146.60
  A 0.69 0.68 -38.2 0 0 187.12 146.50
  Q 185.69 147.42 184.23 147.35
  Q 173.89 146.85 164.54 149.06
  Q 160.53 150.00 154.31 151.10
  Q 131.41 155.14 104.72 158.52
  C 98.79 159.27 93.54 160.70 88.08 162.59
  Q 86.19 163.24 85.01 164.64
  A 1.73 1.64 43.7 0 0 85.12 166.87
  C 88.94 170.97 105.63 167.56 111.93 166.67
  A 4.09 4.07 57.3 0 1 114.74 167.29
  C 129.98 177.17 145.56 185.38 163.13 174.87
  Q 174.06 168.33 184.68 156.17
  Q 186.61 153.97 187.87 148.76
  A 1.40 1.40 0.0 0 1 190.06 147.96
  Q 190.96 148.62 191.38 148.31
  A 1.34 1.34 0.0 0 0 190.68 145.91
  Z"
/>
<path fill="#c2001b" d="
  M 119.12 83.06
  L 119.51 84.73
  A 0.99 0.95 17.4 0 0 119.75 85.17
  C 124.39 90.12 123.65 97.49 120.56 103.06
  C 109.07 123.80 81.39 128.58 59.51 127.32
  C 52.62 126.92 44.07 125.59 39.60 120.17
  A 1.29 1.29 0.0 0 0 38.55 119.71
  Q 35.43 119.88 22.02 120.68
  Q 17.35 120.96 13.49 120.26
  C 11.16 119.83 8.69 116.79 11.23 114.53
  Q 12.24 113.63 14.34 113.26
  Q 22.71 111.80 29.21 111.16
  A 1.99 1.98 18.2 0 0 30.51 110.51
  L 30.97 109.98
  A 3.32 3.30 11.1 0 1 32.32 109.08
  C 35.99 107.81 40.10 106.61 43.92 104.94
  Q 55.06 100.09 65.66 95.68
  Q 88.26 86.27 111.88 80.60
  Q 115.40 79.76 117.93 81.18
  A 1.15 1.13 52.7 0 0 118.75 81.30
  L 130.77 78.49
  A 3.94 3.56 33.8 0 1 131.32 78.41
  L 139.77 77.86
  A 1.60 1.42 27.8 0 0 140.26 77.74
  Q 146.96 74.97 174.70 64.00
  Q 199.05 54.37 224.76 49.03
  A 1.68 1.66 -45.4 0 1 225.46 49.02
  C 227.72 49.42 230.28 50.52 229.81 53.30
  Q 229.37 55.89 226.99 57.44
  A 0.66 0.66 0.0 0 0 226.78 58.33
  C 233.81 70.30 218.41 84.03 210.33 90.88
  C 200.16 99.50 185.41 104.45 171.77 101.99
  C 162.04 100.23 152.03 97.40 145.33 89.95
  Q 144.40 88.92 144.41 85.74
  A 0.44 0.44 0.0 0 0 143.91 85.30
  Q 140.21 85.80 139.51 85.71
  Q 136.72 85.38 125.31 82.90
  C 123.25 82.45 121.69 82.45 119.71 82.36
  A 0.57 0.57 0.0 0 0 119.12 83.06
  Z
  M 150.72 83.62
  Q 151.48 83.65 152.20 84.32
  C 158.15 89.84 165.93 91.70 173.46 93.08
  C 184.49 95.09 194.01 91.00 203.77 85.27
  Q 219.56 75.99 224.28 58.92
  A 0.32 0.32 0.0 0 0 223.90 58.52
  Q 198.22 64.11 172.87 74.37
  Q 150.76 83.32 150.68 83.36
  A 0.14 0.13 -54.7 0 0 150.72 83.62
  Z
  M 113.99 89.40
  C 89.66 95.40 70.06 103.21 46.08 113.90
  A 0.30 0.30 0.0 0 0 46.03 114.43
  Q 49.72 116.95 54.07 117.57
  C 72.60 120.23 97.51 117.70 110.21 102.50
  Q 114.47 97.40 114.44 89.76
  A 0.37 0.36 83.2 0 0 113.99 89.40
  Z"
/>
<path fill="#ffff00" d="
  M 150.72 83.62
  A 0.14 0.13 -54.7 0 1 150.68 83.36
  Q 150.76 83.32 172.87 74.37
  Q 198.22 64.11 223.90 58.52
  A 0.32 0.32 0.0 0 1 224.28 58.92
  Q 219.56 75.99 203.77 85.27
  C 194.01 91.00 184.49 95.09 173.46 93.08
  C 165.93 91.70 158.15 89.84 152.20 84.32
  Q 151.48 83.65 150.72 83.62
  Z"
/>
<path fill="#ffff00" d="
  M 114.44 89.76
  Q 114.47 97.40 110.21 102.50
  C 97.51 117.70 72.60 120.23 54.07 117.57
  Q 49.72 116.95 46.03 114.43
  A 0.30 0.30 0.0 0 1 46.08 113.90
  C 70.06 103.21 89.66 95.40 113.99 89.40
  A 0.37 0.36 83.2 0 1 114.44 89.76
  Z"
/>
<path fill="#c2001b" d="
  M 191.38 148.31
  Q 190.96 148.62 190.06 147.96
  A 1.40 1.40 0.0 0 0 187.87 148.76
  Q 186.61 153.97 184.68 156.17
  Q 174.06 168.33 163.13 174.87
  C 145.56 185.38 129.98 177.17 114.74 167.29
  A 4.09 4.07 57.3 0 0 111.93 166.67
  C 105.63 167.56 88.94 170.97 85.12 166.87
  A 1.73 1.64 43.7 0 1 85.01 164.64
  Q 86.19 163.24 88.08 162.59
  C 93.54 160.70 98.79 159.27 104.72 158.52
  Q 131.41 155.14 154.31 151.10
  Q 160.53 150.00 164.54 149.06
  Q 173.89 146.85 184.23 147.35
  Q 185.69 147.42 187.12 146.50
  A 0.69 0.68 -38.2 0 1 187.99 146.60
  Q 188.06 146.67 188.13 146.74
  A 0.47 0.47 0.0 0 0 188.82 146.75
  Q 189.68 145.82 190.68 145.91
  A 1.34 1.34 0.0 0 1 191.38 148.31
  Z
  M 117.39 165.88
  Q 125.30 168.23 132.59 170.13
  C 142.20 172.62 150.72 172.56 159.01 166.99
  C 164.38 163.40 169.96 158.31 173.08 156.18
  A 0.04 0.03 15.3 0 0 173.04 156.12
  Q 170.46 157.08 168.93 157.40
  Q 143.32 162.74 117.39 165.88
  Z"
/>
<path fill="#ffff00" d="
  M 117.39 165.88
  Q 143.32 162.74 168.93 157.40
  Q 170.46 157.08 173.04 156.12
  A 0.04 0.03 15.3 0 1 173.08 156.18
  C 169.96 158.31 164.38 163.40 159.01 166.99
  C 150.72 172.56 142.20 172.62 132.59 170.13
  Q 125.30 168.23 117.39 165.88
  Z"
/>
</svg>
