<?xml version="1.0" encoding="UTF-8" standalone="no"?>
<!DOCTYPE svg PUBLIC "-//W3C//DTD SVG 1.1//EN" "http://www.w3.org/Graphics/SVG/1.1/DTD/svg11.dtd">
<svg xmlns="http://www.w3.org/2000/svg" version="1.1" viewBox="0.00 0.00 256.00 256.00">
<g stroke-width="2.00" fill="none" stroke-linecap="butt">
<path stroke="#6c64b6" vector-effect="non-scaling-stroke" d="
  M 151.44 77.46
  C 149.68 77.96 147.23 78.86 146.35 80.76
  Q 144.89 83.97 147.88 85.87
  A 2.49 2.46 -25.6 0 0 148.95 86.24
  Q 151.99 86.57 161.19 84.21
  Q 181.79 78.92 211.38 71.66
  C 216.49 70.41 220.10 69.29 221.63 64.37
  A 2.07 2.07 0.0 0 0 219.94 61.70
  C 216.93 61.28 215.64 61.27 212.35 62.07
  Q 162.60 74.28 151.44 77.46"
/>
<path stroke="#6c64b6" vector-effect="non-scaling-stroke" d="
  M 128.91 67.92
  Q 124.77 64.68 119.51 65.44
  Q 90.59 69.65 64.88 76.66
  Q 57.16 78.76 50.04 82.02
  Q 47.10 83.36 45.24 85.08
  A 2.07 1.92 -48.1 0 0 45.29 88.16
  C 47.71 89.92 55.20 88.16 59.58 87.09
  Q 70.60 84.40 92.20 79.42
  Q 100.07 77.61 119.78 74.59
  C 124.31 73.90 127.26 72.83 129.14 68.89
  A 0.79 0.79 0.0 0 0 128.91 67.92"
/>
<path stroke="#6c64b6" vector-effect="non-scaling-stroke" d="
  M 189.70 136.52
  Q 188.92 137.87 187.14 138.19
  C 152.26 144.38 110.64 151.34 73.87 161.22
  A 6.14 6.13 39.1 0 1 72.00 161.41
  L 69.75 161.29
  A 1.58 1.57 -62.9 0 0 68.68 161.64
  C 65.07 164.50 68.80 168.74 71.29 171.34
  Q 82.89 183.48 99.54 184.79
  C 113.95 185.93 128.81 183.71 142.24 179.91
  Q 155.34 176.21 167.34 168.84
  Q 184.11 158.53 193.08 140.89
  A 1.25 1.25 0.0 0 0 192.78 139.37
  Q 190.58 137.49 190.33 136.60
  A 0.35 0.34 -37.4 0 0 189.70 136.52"
/>
<path stroke="#6c64b6" vector-effect="non-scaling-stroke" d="
  M 176.88 148.99
  Q 173.74 149.75 168.47 150.67
  Q 132.69 156.93 97.24 163.98
  Q 87.67 165.88 79.02 166.43
  A 0.14 0.14 0.0 0 0 78.94 166.67
  C 87.70 174.37 98.04 176.51 109.49 176.06
  C 134.05 175.08 160.46 167.31 176.97 149.14
  A 0.09 0.09 0.0 0 0 176.88 148.99"
/>
</g>
<path fill="#22006d" d="
  M 256.00 0.00
  L 256.00 256.00
  L 0.00 256.00
  L 0.00 0.00
  L 256.00 0.00
  Z
  M 151.44 77.46
  C 149.68 77.96 147.23 78.86 146.35 80.76
  Q 144.89 83.97 147.88 85.87
  A 2.49 2.46 -25.6 0 0 148.95 86.24
  Q 151.99 86.57 161.19 84.21
  Q 181.79 78.92 211.38 71.66
  C 216.49 70.41 220.10 69.29 221.63 64.37
  A 2.07 2.07 0.0 0 0 219.94 61.70
  C 216.93 61.28 215.64 61.27 212.35 62.07
  Q 162.60 74.28 151.44 77.46
  Z
  M 128.91 67.92
  Q 124.77 64.68 119.51 65.44
  Q 90.59 69.65 64.88 76.66
  Q 57.16 78.76 50.04 82.02
  Q 47.10 83.36 45.24 85.08
  A 2.07 1.92 -48.1 0 0 45.29 88.16
  C 47.71 89.92 55.20 88.16 59.58 87.09
  Q 70.60 84.40 92.20 79.42
  Q 100.07 77.61 119.78 74.59
  C 124.31 73.90 127.26 72.83 129.14 68.89
  A 0.79 0.79 0.0 0 0 128.91 67.92
  Z
  M 189.70 136.52
  Q 188.92 137.87 187.14 138.19
  C 152.26 144.38 110.64 151.34 73.87 161.22
  A 6.14 6.13 39.1 0 1 72.00 161.41
  L 69.75 161.29
  A 1.58 1.57 -62.9 0 0 68.68 161.64
  C 65.07 164.50 68.80 168.74 71.29 171.34
  Q 82.89 183.48 99.54 184.79
  C 113.95 185.93 128.81 183.71 142.24 179.91
  Q 155.34 176.21 167.34 168.84
  Q 184.11 158.53 193.08 140.89
  A 1.25 1.25 0.0 0 0 192.78 139.37
  Q 190.58 137.49 190.33 136.60
  A 0.35 0.34 -37.4 0 0 189.70 136.52
  Z"
/>
<path fill="#b6c7ff" d="
  M 146.35 80.76
  C 147.23 78.86 149.68 77.96 151.44 77.46
  Q 162.60 74.28 212.35 62.07
  C 215.64 61.27 216.93 61.28 219.94 61.70
  A 2.07 2.07 0.0 0 1 221.63 64.37
  C 220.10 69.29 216.49 70.41 211.38 71.66
  Q 181.79 78.92 161.19 84.21
  Q 151.99 86.57 148.95 86.24
  A 2.49 2.46 -25.6 0 1 147.88 85.87
  Q 144.89 83.97 146.35 80.76
  Z"
/>
<path fill="#b6c7ff" d="
  M 128.91 67.92
  A 0.79 0.79 0.0 0 1 129.14 68.89
  C 127.26 72.83 124.31 73.90 119.78 74.59
  Q 100.07 77.61 92.20 79.42
  Q 70.60 84.40 59.58 87.09
  C 55.20 88.16 47.71 89.92 45.29 88.16
  A 2.07 1.92 -48.1 0 1 45.24 85.08
  Q 47.10 83.36 50.04 82.02
  Q 57.16 78.76 64.88 76.66
  Q 90.59 69.65 119.51 65.44
  Q 124.77 64.68 128.91 67.92
  Z"
/>
<path fill="#b6c7ff" d="
  M 190.33 136.60
  Q 190.58 137.49 192.78 139.37
  A 1.25 1.25 0.0 0 1 193.08 140.89
  Q 184.11 158.53 167.34 168.84
  Q 155.34 176.21 142.24 179.91
  C 128.81 183.71 113.95 185.93 99.54 184.79
  Q 82.89 183.48 71.29 171.34
  C 68.80 168.74 65.07 164.50 68.68 161.64
  A 1.58 1.57 -62.9 0 1 69.75 161.29
  L 72.00 161.41
  A 6.14 6.13 39.1 0 0 73.87 161.22
  C 110.64 151.34 152.26 144.38 187.14 138.19
  Q 188.92 137.87 189.70 136.52
  A 0.35 0.34 -37.4 0 1 190.33 136.60
  Z
  M 176.88 148.99
  Q 173.74 149.75 168.47 150.67
  Q 132.69 156.93 97.24 163.98
  Q 87.67 165.88 79.02 166.43
  A 0.14 0.14 0.0 0 0 78.94 166.67
  C 87.70 174.37 98.04 176.51 109.49 176.06
  C 134.05 175.08 160.46 167.31 176.97 149.14
  A 0.09 0.09 0.0 0 0 176.88 148.99
  Z"
/>
<path fill="#22006d" d="
  M 176.97 149.14
  C 160.46 167.31 134.05 175.08 109.49 176.06
  C 98.04 176.51 87.70 174.37 78.94 166.67
  A 0.14 0.14 0.0 0 1 79.02 166.43
  Q 87.67 165.88 97.24 163.98
  Q 132.69 156.93 168.47 150.67
  Q 173.74 149.75 176.88 148.99
  A 0.09 0.09 0.0 0 1 176.97 149.14
  Z"
/>
</svg>
