<?xml version="1.0" encoding="UTF-8" standalone="no"?>
<!DOCTYPE svg PUBLIC "-//W3C//DTD SVG 1.1//EN" "http://www.w3.org/Graphics/SVG/1.1/DTD/svg11.dtd">
<svg xmlns="http://www.w3.org/2000/svg" version="1.1" viewBox="0.00 0.00 256.00 256.00">
<g stroke-width="2.00" fill="none" stroke-linecap="butt">
<path stroke="#807322" vector-effect="non-scaling-stroke" d="
  M 154.80 55.47
  Q 146.26 48.27 141.82 43.68
  C 140.18 41.98 135.46 38.33 132.80 41.13
  C 131.00 43.02 131.95 46.20 133.63 48.03
  Q 140.44 55.43 148.77 62.10
  A 0.27 0.26 55.2 0 1 148.69 62.56
  Q 142.87 64.45 136.78 64.62
  A 2.62 2.53 -61.7 0 0 135.43 65.05
  C 131.23 67.83 134.97 72.92 138.50 73.34
  C 143.13 73.89 149.47 71.88 154.74 69.94
  A 0.43 0.43 0.0 0 1 155.32 70.35
  C 155.22 77.39 153.83 83.33 158.66 88.15
  A 0.83 0.83 0.0 0 0 159.75 88.22
  Q 163.83 85.15 164.00 80.02
  Q 164.02 79.43 164.48 72.37
  A 0.37 0.37 0.0 0 1 165.03 72.06
  Q 173.46 76.71 180.95 78.64
  A 2.78 2.68 51.8 0 0 181.68 78.74
  L 191.12 78.93
  A 0.38 0.37 -20.3 0 0 191.41 78.31
  C 186.84 73.11 182.88 70.23 176.17 67.40
  Q 173.09 66.09 168.67 63.95
  A 0.28 0.28 0.0 0 1 168.67 63.45
  Q 178.17 58.83 186.38 53.15
  Q 192.12 49.17 193.72 42.16
  A 1.39 1.38 86.7 0 0 191.91 40.54
  Q 185.64 42.79 180.41 46.29
  C 175.44 49.61 171.36 51.82 165.15 55.21
  A 0.40 0.40 0.0 0 1 164.56 54.87
  Q 164.39 47.04 163.31 41.29
  Q 162.86 38.89 161.62 37.31
  A 2.00 1.93 -7.0 0 0 160.81 36.70
  C 157.61 35.45 154.75 37.55 154.96 40.88
  Q 155.50 49.19 155.41 55.19
  A 0.37 0.37 0.0 0 1 154.80 55.47"
/>
<path stroke="#807322" vector-effect="non-scaling-stroke" d="
  M 74.15 70.97
  L 95.00 79.04
  A 2.99 2.96 -31.2 0 0 95.83 79.24
  Q 100.89 79.70 107.72 78.47
  A 0.26 0.26 0.0 0 0 107.84 78.01
  L 99.90 71.40
  A 0.91 0.79 70.9 0 0 99.64 71.25
  L 79.50 63.36
  A 0.31 0.31 0.0 0 1 79.44 62.81
  Q 90.73 55.38 99.73 48.98
  Q 104.27 45.75 104.99 40.80
  A 2.32 2.32 0.0 0 0 102.43 38.17
  C 99.96 38.45 97.64 39.39 95.32 41.04
  Q 85.38 48.11 72.56 56.55
  A 0.30 0.30 0.0 0 1 72.10 56.32
  C 71.82 51.88 71.89 46.93 70.47 43.74
  A 2.50 2.27 68.8 0 0 67.60 42.31
  C 64.26 43.41 64.27 51.15 64.12 54.34
  A 0.43 0.43 0.0 0 1 63.44 54.67
  Q 53.99 48.11 48.41 45.94
  C 43.50 44.04 41.73 48.65 45.13 51.89
  Q 51.44 57.91 60.87 63.62
  A 0.40 0.40 0.0 0 1 60.88 64.30
  Q 53.75 69.00 44.98 73.74
  Q 42.51 75.07 41.00 77.26
  A 1.95 1.89 -24.8 0 0 40.68 78.09
  Q 40.22 81.60 42.92 82.70
  A 2.73 2.64 54.9 0 0 43.91 82.89
  Q 46.67 82.90 48.20 82.15
  Q 56.51 78.04 64.52 72.65
  A 0.30 0.29 -20.9 0 1 64.98 72.85
  Q 65.99 80.51 67.70 88.53
  Q 68.75 93.45 72.89 96.38
  A 1.16 1.15 -53.2 0 0 74.46 96.15
  Q 77.76 91.92 76.63 86.71
  Q 74.86 78.58 73.86 71.19
  A 0.21 0.21 0.0 0 1 74.15 70.97"
/>
<path stroke="#807322" vector-effect="non-scaling-stroke" d="
  M 115.35 172.67
  Q 113.53 168.47 109.52 160.57
  C 107.42 156.43 101.85 153.77 99.27 159.53
  Q 96.15 166.49 93.26 172.34
  A 0.41 0.41 0.0 0 1 92.51 172.31
  C 91.06 168.42 87.18 159.97 83.53 157.81
  Q 77.78 154.39 73.88 159.61
  Q 67.77 167.79 62.94 173.78
  A 0.51 0.51 0.0 0 1 62.08 173.69
  Q 59.17 167.91 56.04 162.22
  C 53.80 158.15 48.61 153.65 44.68 159.21
  Q 41.51 163.70 36.71 167.93
  C 35.11 169.33 33.48 171.45 34.84 173.35
  C 35.94 174.90 38.78 174.76 40.18 174.12
  Q 44.93 171.97 48.43 167.71
  A 0.53 0.52 -38.7 0 1 49.31 167.80
  Q 51.36 171.89 53.41 176.50
  Q 55.93 182.15 57.62 183.12
  Q 62.90 186.15 66.80 182.43
  Q 73.43 176.11 79.24 167.30
  A 0.49 0.49 0.0 0 1 80.08 167.34
  Q 83.01 172.87 85.79 178.99
  Q 87.15 181.98 88.29 182.76
  C 90.27 184.09 94.42 185.00 96.17 183.09
  Q 101.26 177.54 103.92 169.50
  A 0.46 0.46 0.0 0 1 104.79 169.49
  Q 106.74 175.15 109.20 179.48
  C 113.24 186.60 119.62 181.90 122.73 177.23
  Q 125.46 173.12 128.66 167.29
  A 0.75 0.74 -46.9 0 1 129.94 167.24
  Q 133.24 172.38 135.40 179.62
  A 3.33 3.04 24.0 0 0 135.71 180.33
  Q 137.10 182.70 138.29 183.79
  A 3.84 3.67 -34.6 0 0 142.33 184.43
  C 146.57 182.61 149.99 175.92 151.71 172.04
  A 0.56 0.56 0.0 0 1 152.69 171.95
  Q 154.91 175.23 157.39 179.40
  C 159.76 183.39 162.78 184.54 166.12 180.92
  A 1.59 1.54 74.5 0 0 166.49 180.24
  L 169.69 167.70
  A 0.50 0.49 33.2 0 1 170.56 167.52
  Q 173.86 171.73 179.01 180.46
  C 182.01 185.56 186.30 185.40 187.94 179.40
  C 188.75 176.47 190.26 172.08 192.14 169.88
  A 2.93 2.93 0.0 0 1 195.31 169.01
  C 201.83 171.25 203.14 181.88 209.82 181.44
  C 211.63 181.32 212.58 179.45 212.27 177.94
  C 210.74 170.27 203.73 168.98 196.61 167.35
  Q 191.38 166.14 189.20 170.94
  Q 188.36 172.80 186.05 175.83
  A 0.53 0.53 0.0 0 1 185.20 175.82
  Q 179.81 168.54 174.23 162.73
  C 172.82 161.27 170.70 160.96 169.08 161.82
  A 2.25 2.20 -2.0 0 0 168.12 162.83
  L 163.28 173.03
  A 0.19 0.19 0.0 0 1 162.95 173.05
  C 160.42 169.09 157.23 164.01 153.00 163.34
  Q 149.89 162.84 147.72 166.20
  Q 146.18 168.58 142.83 173.78
  A 0.35 0.35 0.0 0 1 142.21 173.72
  Q 138.65 164.60 134.00 160.72
  Q 130.56 157.84 126.15 159.79
  A 2.73 2.72 -80.3 0 0 125.29 160.40
  L 122.33 163.50
  A 1.92 1.39 -57.8 0 0 122.16 163.71
  L 116.17 172.74
  A 0.47 0.47 0.0 0 1 115.35 172.67"
/>
</g>
<path fill="#004822" d="
  M 256.00 0.00
  L 256.00 256.00
  L 0.00 256.00
  L 0.00 0.00
  L 256.00 0.00
  Z
  M 154.80 55.47
  Q 146.26 48.27 141.82 43.68
  C 140.18 41.98 135.46 38.33 132.80 41.13
  C 131.00 43.02 131.95 46.20 133.63 48.03
  Q 140.44 55.43 148.77 62.10
  A 0.27 0.26 55.2 0 1 148.69 62.56
  Q 142.87 64.45 136.78 64.62
  A 2.62 2.53 -61.7 0 0 135.43 65.05
  C 131.23 67.83 134.97 72.92 138.50 73.34
  C 143.13 73.89 149.47 71.88 154.74 69.94
  A 0.43 0.43 0.0 0 1 155.32 70.35
  C 155.22 77.39 153.83 83.33 158.66 88.15
  A 0.83 0.83 0.0 0 0 159.75 88.22
  Q 163.83 85.15 164.00 80.02
  Q 164.02 79.43 164.48 72.37
  A 0.37 0.37 0.0 0 1 165.03 72.06
  Q 173.46 76.71 180.95 78.64
  A 2.78 2.68 51.8 0 0 181.68 78.74
  L 191.12 78.93
  A 0.38 0.37 -20.3 0 0 191.41 78.31
  C 186.84 73.11 182.88 70.23 176.17 67.40
  Q 173.09 66.09 168.67 63.95
  A 0.28 0.28 0.0 0 1 168.67 63.45
  Q 178.17 58.83 186.38 53.15
  Q 192.12 49.17 193.72 42.16
  A 1.39 1.38 86.7 0 0 191.91 40.54
  Q 185.64 42.79 180.41 46.29
  C 175.44 49.61 171.36 51.82 165.15 55.21
  A 0.40 0.40 0.0 0 1 164.56 54.87
  Q 164.39 47.04 163.31 41.29
  Q 162.86 38.89 161.62 37.31
  A 2.00 1.93 -7.0 0 0 160.81 36.70
  C 157.61 35.45 154.75 37.55 154.96 40.88
  Q 155.50 49.19 155.41 55.19
  A 0.37 0.37 0.0 0 1 154.80 55.47
  Z
  M 74.15 70.97
  L 95.00 79.04
  A 2.99 2.96 -31.2 0 0 95.83 79.24
  Q 100.89 79.70 107.72 78.47
  A 0.26 0.26 0.0 0 0 107.84 78.01
  L 99.90 71.40
  A 0.91 0.79 70.9 0 0 99.64 71.25
  L 79.50 63.36
  A 0.31 0.31 0.0 0 1 79.44 62.81
  Q 90.73 55.38 99.73 48.98
  Q 104.27 45.75 104.99 40.80
  A 2.32 2.32 0.0 0 0 102.43 38.17
  C 99.96 38.45 97.64 39.39 95.32 41.04
  Q 85.38 48.11 72.56 56.55
  A 0.30 0.30 0.0 0 1 72.10 56.32
  C 71.82 51.88 71.89 46.93 70.47 43.74
  A 2.50 2.27 68.8 0 0 67.60 42.31
  C 64.26 43.41 64.27 51.15 64.12 54.34
  A 0.43 0.43 0.0 0 1 63.44 54.67
  Q 53.99 48.11 48.41 45.94
  C 43.50 44.04 41.73 48.65 45.13 51.89
  Q 51.44 57.91 60.87 63.62
  A 0.40 0.40 0.0 0 1 60.88 64.30
  Q 53.75 69.00 44.98 73.74
  Q 42.51 75.07 41.00 77.26
  A 1.95 1.89 -24.8 0 0 40.68 78.09
  Q 40.22 81.60 42.92 82.70
  A 2.73 2.64 54.9 0 0 43.91 82.89
  Q 46.67 82.90 48.20 82.15
  Q 56.51 78.04 64.52 72.65
  A 0.30 0.29 -20.9 0 1 64.98 72.85
  Q 65.99 80.51 67.70 88.53
  Q 68.75 93.45 72.89 96.38
  A 1.16 1.15 -53.2 0 0 74.46 96.15
  Q 77.76 91.92 76.63 86.71
  Q 74.86 78.58 73.86 71.19
  A 0.21 0.21 0.0 0 1 74.15 70.97
  Z
  M 115.35 172.67
  Q 113.53 168.47 109.52 160.57
  C 107.42 156.43 101.85 153.77 99.27 159.53
  Q 96.15 166.49 93.26 172.34
  A 0.41 0.41 0.0 0 1 92.51 172.31
  C 91.06 168.42 87.18 159.97 83.53 157.81
  Q 77.78 154.39 73.88 159.61
  Q 67.77 167.79 62.94 173.78
  A 0.51 0.51 0.0 0 1 62.08 173.69
  Q 59.17 167.91 56.04 162.22
  C 53.80 158.15 48.61 153.65 44.68 159.21
  Q 41.51 163.70 36.71 167.93
  C 35.11 169.33 33.48 171.45 34.84 173.35
  C 35.94 174.90 38.78 174.76 40.18 174.12
  Q 44.93 171.97 48.43 167.71
  A 0.53 0.52 -38.7 0 1 49.31 167.80
  Q 51.36 171.89 53.41 176.50
  Q 55.93 182.15 57.62 183.12
  Q 62.90 186.15 66.80 182.43
  Q 73.43 176.11 79.24 167.30
  A 0.49 0.49 0.0 0 1 80.08 167.34
  Q 83.01 172.87 85.79 178.99
  Q 87.15 181.98 88.29 182.76
  C 90.27 184.09 94.42 185.00 96.17 183.09
  Q 101.26 177.54 103.92 169.50
  A 0.46 0.46 0.0 0 1 104.79 169.49
  Q 106.74 175.15 109.20 179.48
  C 113.24 186.60 119.62 181.90 122.73 177.23
  Q 125.46 173.12 128.66 167.29
  A 0.75 0.74 -46.9 0 1 129.94 167.24
  Q 133.24 172.38 135.40 179.62
  A 3.33 3.04 24.0 0 0 135.71 180.33
  Q 137.10 182.70 138.29 183.79
  A 3.84 3.67 -34.6 0 0 142.33 184.43
  C 146.57 182.61 149.99 175.92 151.71 172.04
  A 0.56 0.56 0.0 0 1 152.69 171.95
  Q 154.91 175.23 157.39 179.40
  C 159.76 183.39 162.78 184.54 166.12 180.92
  A 1.59 1.54 74.5 0 0 166.49 180.24
  L 169.69 167.70
  A 0.50 0.49 33.2 0 1 170.56 167.52
  Q 173.86 171.73 179.01 180.46
  C 182.01 185.56 186.30 185.40 187.94 179.40
  C 188.75 176.47 190.26 172.08 192.14 169.88
  A 2.93 2.93 0.0 0 1 195.31 169.01
  C 201.83 171.25 203.14 181.88 209.82 181.44
  C 211.63 181.32 212.58 179.45 212.27 177.94
  C 210.74 170.27 203.73 168.98 196.61 167.35
  Q 191.38 166.14 189.20 170.94
  Q 188.36 172.80 186.05 175.83
  A 0.53 0.53 0.0 0 1 185.20 175.82
  Q 179.81 168.54 174.23 162.73
  C 172.82 161.27 170.70 160.96 169.08 161.82
  A 2.25 2.20 -2.0 0 0 168.12 162.83
  L 163.28 173.03
  A 0.19 0.19 0.0 0 1 162.95 173.05
  C 160.42 169.09 157.23 164.01 153.00 163.34
  Q 149.89 162.84 147.72 166.20
  Q 146.18 168.58 142.83 173.78
  A 0.35 0.35 0.0 0 1 142.21 173.72
  Q 138.65 164.60 134.00 160.72
  Q 130.56 157.84 126.15 159.79
  A 2.73 2.72 -80.3 0 0 125.29 160.40
  L 122.33 163.50
  A 1.92 1.39 -57.8 0 0 122.16 163.71
  L 116.17 172.74
  A 0.47 0.47 0.0 0 1 115.35 172.67
  Z"
/>
<path fill="#ff9e22" d="
  M 155.41 55.19
  Q 155.50 49.19 154.96 40.88
  C 154.75 37.55 157.61 35.45 160.81 36.70
  A 2.00 1.93 -7.0 0 1 161.62 37.31
  Q 162.86 38.89 163.31 41.29
  Q 164.39 47.04 164.56 54.87
  A 0.40 0.40 0.0 0 0 165.15 55.21
  C 171.36 51.82 175.44 49.61 180.41 46.29
  Q 185.64 42.79 191.91 40.54
  A 1.39 1.38 86.7 0 1 193.72 42.16
  Q 192.12 49.17 186.38 53.15
  Q 178.17 58.83 168.67 63.45
  A 0.28 0.28 0.0 0 0 168.67 63.95
  Q 173.09 66.09 176.17 67.40
  C 182.88 70.23 186.84 73.11 191.41 78.31
  A 0.38 0.37 -20.3 0 1 191.12 78.93
  L 181.68 78.74
  A 2.78 2.68 51.8 0 1 180.95 78.64
  Q 173.46 76.71 165.03 72.06
  A 0.37 0.37 0.0 0 0 164.48 72.37
  Q 164.02 79.43 164.00 80.02
  Q 163.83 85.15 159.75 88.22
  A 0.83 0.83 0.0 0 1 158.66 88.15
  C 153.83 83.33 155.22 77.39 155.32 70.35
  A 0.43 0.43 0.0 0 0 154.74 69.94
  C 149.47 71.88 143.13 73.89 138.50 73.34
  C 134.97 72.92 131.23 67.83 135.43 65.05
  A 2.62 2.53 -61.7 0 1 136.78 64.62
  Q 142.87 64.45 148.69 62.56
  A 0.27 0.26 55.2 0 0 148.77 62.10
  Q 140.44 55.43 133.63 48.03
  C 131.95 46.20 131.00 43.02 132.80 41.13
  C 135.46 38.33 140.18 41.98 141.82 43.68
  Q 146.26 48.27 154.80 55.47
  A 0.37 0.37 0.0 0 0 155.41 55.19
  Z"
/>
<path fill="#ff9e22" d="
  M 73.86 71.19
  Q 74.86 78.58 76.63 86.71
  Q 77.76 91.92 74.46 96.15
  A 1.16 1.15 -53.2 0 1 72.89 96.38
  Q 68.75 93.45 67.70 88.53
  Q 65.99 80.51 64.98 72.85
  A 0.30 0.29 -20.9 0 0 64.52 72.65
  Q 56.51 78.04 48.20 82.15
  Q 46.67 82.90 43.91 82.89
  A 2.73 2.64 54.9 0 1 42.92 82.70
  Q 40.22 81.60 40.68 78.09
  A 1.95 1.89 -24.8 0 1 41.00 77.26
  Q 42.51 75.07 44.98 73.74
  Q 53.75 69.00 60.88 64.30
  A 0.40 0.40 0.0 0 0 60.87 63.62
  Q 51.44 57.91 45.13 51.89
  C 41.73 48.65 43.50 44.04 48.41 45.94
  Q 53.99 48.11 63.44 54.67
  A 0.43 0.43 0.0 0 0 64.12 54.34
  C 64.27 51.15 64.26 43.41 67.60 42.31
  A 2.50 2.27 68.8 0 1 70.47 43.74
  C 71.89 46.93 71.82 51.88 72.10 56.32
  A 0.30 0.30 0.0 0 0 72.56 56.55
  Q 85.38 48.11 95.32 41.04
  C 97.64 39.39 99.96 38.45 102.43 38.17
  A 2.32 2.32 0.0 0 1 104.99 40.80
  Q 104.27 45.75 99.73 48.98
  Q 90.73 55.38 79.44 62.81
  A 0.31 0.31 0.0 0 0 79.50 63.36
  L 99.64 71.25
  A 0.91 0.79 70.9 0 1 99.90 71.40
  L 107.84 78.01
  A 0.26 0.26 0.0 0 1 107.72 78.47
  Q 100.89 79.70 95.83 79.24
  A 2.99 2.96 -31.2 0 1 95.00 79.04
  L 74.15 70.97
  A 0.21 0.21 0.0 0 0 73.86 71.19
  Z"
/>
<path fill="#ff9e22" d="
  M 116.17 172.74
  L 122.16 163.71
  A 1.92 1.39 -57.8 0 1 122.33 163.50
  L 125.29 160.40
  A 2.73 2.72 -80.3 0 1 126.15 159.79
  Q 130.56 157.84 134.00 160.72
  Q 138.65 164.60 142.21 173.72
  A 0.35 0.35 0.0 0 0 142.83 173.78
  Q 146.18 168.58 147.72 166.20
  Q 149.89 162.84 153.00 163.34
  C 157.23 164.01 160.42 169.09 162.95 173.05
  A 0.19 0.19 0.0 0 0 163.28 173.03
  L 168.12 162.83
  A 2.25 2.20 -2.0 0 1 169.08 161.82
  C 170.70 160.96 172.82 161.27 174.23 162.73
  Q 179.81 168.54 185.20 175.82
  A 0.53 0.53 0.0 0 0 186.05 175.83
  Q 188.36 172.80 189.20 170.94
  Q 191.38 166.14 196.61 167.35
  C 203.73 168.98 210.74 170.27 212.27 177.94
  C 212.58 179.45 211.63 181.32 209.82 181.44
  C 203.14 181.88 201.83 171.25 195.31 169.01
  A 2.93 2.93 0.0 0 0 192.14 169.88
  C 190.26 172.08 188.75 176.47 187.94 179.40
  C 186.30 185.40 182.01 185.56 179.01 180.46
  Q 173.86 171.73 170.56 167.52
  A 0.50 0.49 33.2 0 0 169.69 167.70
  L 166.49 180.24
  A 1.59 1.54 74.5 0 1 166.12 180.92
  C 162.78 184.54 159.76 183.39 157.39 179.40
  Q 154.91 175.23 152.69 171.95
  A 0.56 0.56 0.0 0 0 151.71 172.04
  C 149.99 175.92 146.57 182.61 142.33 184.43
  A 3.84 3.67 -34.6 0 1 138.29 183.79
  Q 137.10 182.70 135.71 180.33
  A 3.33 3.04 24.0 0 1 135.40 179.62
  Q 133.24 172.38 129.94 167.24
  A 0.75 0.74 -46.9 0 0 128.66 167.29
  Q 125.46 173.12 122.73 177.23
  C 119.62 181.90 113.24 186.60 109.20 179.48
  Q 106.74 175.15 104.79 169.49
  A 0.46 0.46 0.0 0 0 103.92 169.50
  Q 101.26 177.54 96.17 183.09
  C 94.42 185.00 90.27 184.09 88.29 182.76
  Q 87.15 181.98 85.79 178.99
  Q 83.01 172.87 80.08 167.34
  A 0.49 0.49 0.0 0 0 79.24 167.30
  Q 73.43 176.11 66.80 182.43
  Q 62.90 186.15 57.62 183.12
  Q 55.93 182.15 53.41 176.50
  Q 51.36 171.89 49.31 167.80
  A 0.53 0.52 -38.7 0 0 48.43 167.71
  Q 44.93 171.97 40.18 174.12
  C 38.78 174.76 35.94 174.90 34.84 173.35
  C 33.48 171.45 35.11 169.33 36.71 167.93
  Q 41.51 163.70 44.68 159.21
  C 48.61 153.65 53.80 158.15 56.04 162.22
  Q 59.17 167.91 62.08 173.69
  A 0.51 0.51 0.0 0 0 62.94 173.78
  Q 67.77 167.79 73.88 159.61
  Q 77.78 154.39 83.53 157.81
  C 87.18 159.97 91.06 168.42 92.51 172.31
  A 0.41 0.41 0.0 0 0 93.26 172.34
  Q 96.15 166.49 99.27 159.53
  C 101.85 153.77 107.42 156.43 109.52 160.57
  Q 113.53 168.47 115.35 172.67
  A 0.47 0.47 0.0 0 0 116.17 172.74
  Z"
/>
</svg>
