<?xml version="1.0" encoding="UTF-8" standalone="no"?>
<!DOCTYPE svg PUBLIC "-//W3C//DTD SVG 1.1//EN" "http://www.w3.org/Graphics/SVG/1.1/DTD/svg11.dtd">
<svg xmlns="http://www.w3.org/2000/svg" version="1.1" viewBox="0.00 0.00 256.00 256.00">
<g stroke-width="2.00" fill="none" stroke-linecap="butt">
<path stroke="#809486" vector-effect="non-scaling-stroke" d="
  M 154.58 96.14
  Q 152.74 97.01 151.08 96.24
  Q 146.48 94.08 147.11 88.83
  C 147.47 85.84 148.75 79.68 151.57 78.04
  Q 160.33 72.96 171.02 75.38
  Q 177.66 76.89 178.63 84.30
  Q 180.20 96.34 171.79 105.70
  C 164.77 113.53 153.71 111.93 145.69 106.27
  C 136.76 99.98 135.57 87.23 139.20 77.93
  C 142.06 70.63 149.54 66.01 156.80 63.84
  C 160.51 62.74 163.10 62.96 166.73 63.97
  A 2.08 2.08 0.0 0 0 169.35 62.22
  Q 169.88 57.80 165.58 55.85
  C 158.73 52.73 149.52 56.19 143.40 60.06
  Q 127.36 70.23 128.38 90.32
  Q 129.36 109.36 146.74 117.25
  Q 153.09 120.13 159.40 120.19
  Q 166.03 120.25 171.82 117.00
  C 183.65 110.36 190.36 94.16 187.21 81.02
  Q 184.14 68.19 170.28 65.96
  C 160.72 64.41 145.65 66.99 141.17 76.96
  Q 139.14 81.48 138.24 86.71
  C 136.84 94.86 141.08 102.42 148.71 105.07
  C 158.65 108.53 173.03 96.14 170.93 85.76
  Q 169.47 78.50 162.39 77.73
  C 157.66 77.21 153.00 80.56 151.69 84.90
  Q 149.72 91.48 154.63 95.73
  A 0.25 0.25 0.0 0 1 154.58 96.14"
/>
<path stroke="#809486" vector-effect="non-scaling-stroke" d="
  M 66.84 62.23
  Q 60.80 60.41 54.51 64.44
  C 43.97 71.21 37.34 85.40 35.87 97.59
  C 34.12 112.02 38.70 128.94 54.30 132.44
  Q 60.36 133.80 67.13 131.82
  C 82.11 127.46 90.22 113.76 89.35 98.39
  C 88.64 86.01 78.86 77.69 66.54 78.95
  C 56.21 80.01 51.11 86.75 50.52 97.04
  Q 50.04 105.47 50.62 110.36
  C 51.08 114.21 54.58 117.55 58.68 117.38
  C 64.38 117.14 69.74 113.68 72.74 109.20
  C 76.46 103.63 76.02 96.54 69.56 93.48
  Q 64.44 91.06 60.32 94.61
  A 0.27 0.27 0.0 0 1 59.88 94.36
  Q 60.64 90.09 64.35 88.73
  C 71.44 86.12 79.11 89.51 80.13 97.41
  C 81.49 107.96 76.52 119.35 65.99 122.70
  C 44.32 129.60 42.34 105.11 46.42 91.48
  Q 49.42 81.44 56.01 74.61
  Q 60.71 69.73 66.99 70.95
  A 1.92 1.87 39.7 0 0 68.00 70.87
  Q 71.10 69.73 70.97 66.47
  A 1.87 1.84 -65.9 0 0 70.58 65.42
  Q 68.45 62.72 66.84 62.23"
/>
<path stroke="#809486" vector-effect="non-scaling-stroke" d="
  M 160.74 222.88
  C 156.13 221.75 150.58 216.26 147.40 212.61
  Q 145.08 209.95 137.16 201.84
  Q 136.11 200.77 135.02 200.25
  C 129.29 197.54 127.25 203.66 130.54 207.46
  Q 137.89 215.97 145.49 223.50
  Q 150.31 228.28 156.80 231.13
  C 173.19 238.33 177.30 207.75 178.58 198.07
  Q 178.94 195.41 178.22 194.02
  Q 177.07 191.82 175.45 191.01
  A 1.27 1.26 44.3 0 0 174.28 191.02
  C 170.74 192.87 169.90 194.52 169.32 198.59
  C 168.18 206.64 166.70 215.01 162.80 221.99
  A 1.85 1.85 0.0 0 1 160.74 222.88"
/>
<path stroke="#809486" vector-effect="non-scaling-stroke" d="
  M 161.4461 86.8194
  A 0.99 0.84 -82.1 0 0 160.4780 87.6845
  A 0.99 0.84 -82.1 0 0 161.1739 88.7806
  A 0.99 0.84 -82.1 0 0 162.1420 87.9155
  A 0.99 0.84 -82.1 0 0 161.4461 86.8194"
/>
<path stroke="#809486" vector-effect="non-scaling-stroke" d="
  M 59.39 101.88
  L 59.39 107.75
  A 0.41 0.41 0.0 0 0 59.92 108.14
  Q 64.06 106.82 66.10 102.64
  A 0.56 0.56 0.0 0 0 65.30 101.92
  Q 62.28 103.83 59.95 101.64
  A 0.33 0.33 0.0 0 0 59.39 101.88"
/>
</g>
<path fill="#009189" d="
  M 256.00 0.00
  L 256.00 256.00
  L 0.00 256.00
  L 0.00 0.00
  L 256.00 0.00
  Z
  M 154.58 96.14
  Q 152.74 97.01 151.08 96.24
  Q 146.48 94.08 147.11 88.83
  C 147.47 85.84 148.75 79.68 151.57 78.04
  Q 160.33 72.96 171.02 75.38
  Q 177.66 76.89 178.63 84.30
  Q 180.20 96.34 171.79 105.70
  C 164.77 113.53 153.71 111.93 145.69 106.27
  C 136.76 99.98 135.57 87.23 139.20 77.93
  C 142.06 70.63 149.54 66.01 156.80 63.84
  C 160.51 62.74 163.10 62.96 166.73 63.97
  A 2.08 2.08 0.0 0 0 169.35 62.22
  Q 169.88 57.80 165.58 55.85
  C 158.73 52.73 149.52 56.19 143.40 60.06
  Q 127.36 70.23 128.38 90.32
  Q 129.36 109.36 146.74 117.25
  Q 153.09 120.13 159.40 120.19
  Q 166.03 120.25 171.82 117.00
  C 183.65 110.36 190.36 94.16 187.21 81.02
  Q 184.14 68.19 170.28 65.96
  C 160.72 64.41 145.65 66.99 141.17 76.96
  Q 139.14 81.48 138.24 86.71
  C 136.84 94.86 141.08 102.42 148.71 105.07
  C 158.65 108.53 173.03 96.14 170.93 85.76
  Q 169.47 78.50 162.39 77.73
  C 157.66 77.21 153.00 80.56 151.69 84.90
  Q 149.72 91.48 154.63 95.73
  A 0.25 0.25 0.0 0 1 154.58 96.14
  Z
  M 66.84 62.23
  Q 60.80 60.41 54.51 64.44
  C 43.97 71.21 37.34 85.40 35.87 97.59
  C 34.12 112.02 38.70 128.94 54.30 132.44
  Q 60.36 133.80 67.13 131.82
  C 82.11 127.46 90.22 113.76 89.35 98.39
  C 88.64 86.01 78.86 77.69 66.54 78.95
  C 56.21 80.01 51.11 86.75 50.52 97.04
  Q 50.04 105.47 50.62 110.36
  C 51.08 114.21 54.58 117.55 58.68 117.38
  C 64.38 117.14 69.74 113.68 72.74 109.20
  C 76.46 103.63 76.02 96.54 69.56 93.48
  Q 64.44 91.06 60.32 94.61
  A 0.27 0.27 0.0 0 1 59.88 94.36
  Q 60.64 90.09 64.35 88.73
  C 71.44 86.12 79.11 89.51 80.13 97.41
  C 81.49 107.96 76.52 119.35 65.99 122.70
  C 44.32 129.60 42.34 105.11 46.42 91.48
  Q 49.42 81.44 56.01 74.61
  Q 60.71 69.73 66.99 70.95
  A 1.92 1.87 39.7 0 0 68.00 70.87
  Q 71.10 69.73 70.97 66.47
  A 1.87 1.84 -65.9 0 0 70.58 65.42
  Q 68.45 62.72 66.84 62.23
  Z
  M 160.74 222.88
  C 156.13 221.75 150.58 216.26 147.40 212.61
  Q 145.08 209.95 137.16 201.84
  Q 136.11 200.77 135.02 200.25
  C 129.29 197.54 127.25 203.66 130.54 207.46
  Q 137.89 215.97 145.49 223.50
  Q 150.31 228.28 156.80 231.13
  C 173.19 238.33 177.30 207.75 178.58 198.07
  Q 178.94 195.41 178.22 194.02
  Q 177.07 191.82 175.45 191.01
  A 1.27 1.26 44.3 0 0 174.28 191.02
  C 170.74 192.87 169.90 194.52 169.32 198.59
  C 168.18 206.64 166.70 215.01 162.80 221.99
  A 1.85 1.85 0.0 0 1 160.74 222.88
  Z"
/>
<path fill="#ff9683" d="
  M 154.58 96.14
  A 0.25 0.25 0.0 0 0 154.63 95.73
  Q 149.72 91.48 151.69 84.90
  C 153.00 80.56 157.66 77.21 162.39 77.73
  Q 169.47 78.50 170.93 85.76
  C 173.03 96.14 158.65 108.53 148.71 105.07
  C 141.08 102.42 136.84 94.86 138.24 86.71
  Q 139.14 81.48 141.17 76.96
  C 145.65 66.99 160.72 64.41 170.28 65.96
  Q 184.14 68.19 187.21 81.02
  C 190.36 94.16 183.65 110.36 171.82 117.00
  Q 166.03 120.25 159.40 120.19
  Q 153.09 120.13 146.74 117.25
  Q 129.36 109.36 128.38 90.32
  Q 127.36 70.23 143.40 60.06
  C 149.52 56.19 158.73 52.73 165.58 55.85
  Q 169.88 57.80 169.35 62.22
  A 2.08 2.08 0.0 0 1 166.73 63.97
  C 163.10 62.96 160.51 62.74 156.80 63.84
  C 149.54 66.01 142.06 70.63 139.20 77.93
  C 135.57 87.23 136.76 99.98 145.69 106.27
  C 153.71 111.93 164.77 113.53 171.79 105.70
  Q 180.20 96.34 178.63 84.30
  Q 177.66 76.89 171.02 75.38
  Q 160.33 72.96 151.57 78.04
  C 148.75 79.68 147.47 85.84 147.11 88.83
  Q 146.48 94.08 151.08 96.24
  Q 152.74 97.01 154.58 96.14
  Z
  M 161.4461 86.8194
  A 0.99 0.84 -82.1 0 0 160.4780 87.6845
  A 0.99 0.84 -82.1 0 0 161.1739 88.7806
  A 0.99 0.84 -82.1 0 0 162.1420 87.9155
  A 0.99 0.84 -82.1 0 0 161.4461 86.8194
  Z"
/>
<path fill="#ff9683" d="
  M 66.84 62.23
  Q 68.45 62.72 70.58 65.42
  A 1.87 1.84 -65.9 0 1 70.97 66.47
  Q 71.10 69.73 68.00 70.87
  A 1.92 1.87 39.7 0 1 66.99 70.95
  Q 60.71 69.73 56.01 74.61
  Q 49.42 81.44 46.42 91.48
  C 42.34 105.11 44.32 129.60 65.99 122.70
  C 76.52 119.35 81.49 107.96 80.13 97.41
  C 79.11 89.51 71.44 86.12 64.35 88.73
  Q 60.64 90.09 59.88 94.36
  A 0.27 0.27 0.0 0 0 60.32 94.61
  Q 64.44 91.06 69.56 93.48
  C 76.02 96.54 76.46 103.63 72.74 109.20
  C 69.74 113.68 64.38 117.14 58.68 117.38
  C 54.58 117.55 51.08 114.21 50.62 110.36
  Q 50.04 105.47 50.52 97.04
  C 51.11 86.75 56.21 80.01 66.54 78.95
  C 78.86 77.69 88.64 86.01 89.35 98.39
  C 90.22 113.76 82.11 127.46 67.13 131.82
  Q 60.36 133.80 54.30 132.44
  C 38.70 128.94 34.12 112.02 35.87 97.59
  C 37.34 85.40 43.97 71.21 54.51 64.44
  Q 60.80 60.41 66.84 62.23
  Z
  M 59.39 101.88
  L 59.39 107.75
  A 0.41 0.41 0.0 0 0 59.92 108.14
  Q 64.06 106.82 66.10 102.64
  A 0.56 0.56 0.0 0 0 65.30 101.92
  Q 62.28 103.83 59.95 101.64
  A 0.33 0.33 0.0 0 0 59.39 101.88
  Z"
/>
<ellipse fill="#009189" cx="0.00" cy="0.00" transform="translate(161.31,87.80) rotate(-82.1)" rx="0.99" ry="0.84"/>
<path fill="#009189" d="
  M 59.95 101.64
  Q 62.28 103.83 65.30 101.92
  A 0.56 0.56 0.0 0 1 66.10 102.64
  Q 64.06 106.82 59.92 108.14
  A 0.41 0.41 0.0 0 1 59.39 107.75
  L 59.39 101.88
  A 0.33 0.33 0.0 0 1 59.95 101.64
  Z"
/>
<path fill="#ff9683" d="
  M 160.74 222.88
  A 1.85 1.85 0.0 0 0 162.80 221.99
  C 166.70 215.01 168.18 206.64 169.32 198.59
  C 169.90 194.52 170.74 192.87 174.28 191.02
  A 1.27 1.26 44.3 0 1 175.45 191.01
  Q 177.07 191.82 178.22 194.02
  Q 178.94 195.41 178.58 198.07
  C 177.30 207.75 173.19 238.33 156.80 231.13
  Q 150.31 228.28 145.49 223.50
  Q 137.89 215.97 130.54 207.46
  C 127.25 203.66 129.29 197.54 135.02 200.25
  Q 136.11 200.77 137.16 201.84
  Q 145.08 209.95 147.40 212.61
  C 150.58 216.26 156.13 221.75 160.74 222.88
  Z"
/>
</svg>
