<?xml version="1.0" encoding="UTF-8" standalone="no"?>
<!DOCTYPE svg PUBLIC "-//W3C//DTD SVG 1.1//EN" "http://www.w3.org/Graphics/SVG/1.1/DTD/svg11.dtd">
<svg xmlns="http://www.w3.org/2000/svg" version="1.1" viewBox="0.00 0.00 256.00 256.00">
<g stroke-width="2.00" fill="none" stroke-linecap="butt">
<path stroke="#7fa1c8" vector-effect="non-scaling-stroke" d="
  M 87.50 126.79
  C 96.83 118.18 93.64 104.98 85.87 96.76
  Q 70.82 80.84 49.60 82.36
  Q 43.27 82.81 39.10 86.55
  A 4.73 4.63 -9.9 0 0 37.95 88.15
  Q 36.64 91.09 34.77 94.09
  C 30.90 100.33 29.83 107.79 31.39 114.85
  C 34.12 127.18 44.04 133.13 55.96 134.79
  C 67.17 136.35 79.17 134.48 87.50 126.79"
/>
<path stroke="#7fa1c8" vector-effect="non-scaling-stroke" d="
  M 179.24 85.59
  C 173.62 84.12 166.70 85.64 162.13 89.40
  C 146.91 101.92 143.04 129.66 170.22 131.02
  C 187.20 131.86 207.34 122.26 211.41 104.53
  Q 213.71 94.47 207.53 88.06
  C 201.92 82.24 192.15 80.89 184.62 83.87
  Q 180.34 85.56 180.28 85.58
  A 2.08 2.06 -45.3 0 1 179.24 85.59"
/>
<path stroke="#7fa1c8" vector-effect="non-scaling-stroke" d="
  M 141.65 168.45
  A 4.48 4.48 0.0 0 0 135.66 170.02
  Q 128.85 181.07 121.87 187.22
  A 0.66 0.66 0.0 0 1 120.85 187.05
  Q 115.63 177.61 112.28 171.25
  Q 110.82 168.47 107.72 168.37
  A 1.46 1.39 -62.8 0 0 106.80 168.69
  Q 104.34 170.69 105.08 173.23
  C 106.79 179.07 112.34 194.67 118.45 196.69
  Q 122.59 198.06 126.50 194.93
  Q 135.77 187.53 143.47 174.36
  A 4.19 4.19 0.0 0 0 141.88 168.58
  L 141.65 168.45"
/>
<path stroke="#7fa1c8" vector-effect="non-scaling-stroke" d="
  M 47.90 92.21
  Q 48.61 96.35 44.66 96.89
  A 2.20 2.19 -74.7 0 0 43.23 97.71
  C 38.67 103.56 38.44 114.15 43.54 119.74
  Q 46.16 122.60 50.59 124.15
  C 59.99 127.44 71.54 127.29 79.96 121.36
  Q 83.32 119.00 83.95 115.82
  C 85.79 106.59 75.46 98.30 68.32 94.72
  Q 59.03 90.06 48.27 91.69
  A 0.45 0.45 0.0 0 0 47.90 92.21"
/>
<path stroke="#7fa1c8" vector-effect="non-scaling-stroke" d="
  M 185.01 90.58
  Q 184.67 92.76 182.00 92.61
  C 169.12 91.86 160.52 100.28 159.33 112.57
  C 158.60 120.05 165.07 121.58 170.99 121.95
  C 183.80 122.74 198.10 117.36 202.98 104.91
  Q 206.57 95.73 197.75 92.12
  Q 195.48 91.19 185.60 90.12
  A 0.55 0.54 -82.7 0 0 185.01 90.58"
/>
</g>
<path fill="#0073ff" d="
  M 256.00 0.00
  L 256.00 256.00
  L 0.00 256.00
  L 0.00 0.00
  L 256.00 0.00
  Z
  M 87.50 126.79
  C 96.83 118.18 93.64 104.98 85.87 96.76
  Q 70.82 80.84 49.60 82.36
  Q 43.27 82.81 39.10 86.55
  A 4.73 4.63 -9.9 0 0 37.95 88.15
  Q 36.64 91.09 34.77 94.09
  C 30.90 100.33 29.83 107.79 31.39 114.85
  C 34.12 127.18 44.04 133.13 55.96 134.79
  C 67.17 136.35 79.17 134.48 87.50 126.79
  Z
  M 179.24 85.59
  C 173.62 84.12 166.70 85.64 162.13 89.40
  C 146.91 101.92 143.04 129.66 170.22 131.02
  C 187.20 131.86 207.34 122.26 211.41 104.53
  Q 213.71 94.47 207.53 88.06
  C 201.92 82.24 192.15 80.89 184.62 83.87
  Q 180.34 85.56 180.28 85.58
  A 2.08 2.06 -45.3 0 1 179.24 85.59
  Z
  M 141.65 168.45
  A 4.48 4.48 0.0 0 0 135.66 170.02
  Q 128.85 181.07 121.87 187.22
  A 0.66 0.66 0.0 0 1 120.85 187.05
  Q 115.63 177.61 112.28 171.25
  Q 110.82 168.47 107.72 168.37
  A 1.46 1.39 -62.8 0 0 106.80 168.69
  Q 104.34 170.69 105.08 173.23
  C 106.79 179.07 112.34 194.67 118.45 196.69
  Q 122.59 198.06 126.50 194.93
  Q 135.77 187.53 143.47 174.36
  A 4.19 4.19 0.0 0 0 141.88 168.58
  L 141.65 168.45
  Z"
/>
<path fill="#fecf90" d="
  M 85.87 96.76
  C 93.64 104.98 96.83 118.18 87.50 126.79
  C 79.17 134.48 67.17 136.35 55.96 134.79
  C 44.04 133.13 34.12 127.18 31.39 114.85
  C 29.83 107.79 30.90 100.33 34.77 94.09
  Q 36.64 91.09 37.95 88.15
  A 4.73 4.63 -9.9 0 1 39.10 86.55
  Q 43.27 82.81 49.60 82.36
  Q 70.82 80.84 85.87 96.76
  Z
  M 47.90 92.21
  Q 48.61 96.35 44.66 96.89
  A 2.20 2.19 -74.7 0 0 43.23 97.71
  C 38.67 103.56 38.44 114.15 43.54 119.74
  Q 46.16 122.60 50.59 124.15
  C 59.99 127.44 71.54 127.29 79.96 121.36
  Q 83.32 119.00 83.95 115.82
  C 85.79 106.59 75.46 98.30 68.32 94.72
  Q 59.03 90.06 48.27 91.69
  A 0.45 0.45 0.0 0 0 47.90 92.21
  Z"
/>
<path fill="#fecf90" d="
  M 180.28 85.58
  Q 180.34 85.56 184.62 83.87
  C 192.15 80.89 201.92 82.24 207.53 88.06
  Q 213.71 94.47 211.41 104.53
  C 207.34 122.26 187.20 131.86 170.22 131.02
  C 143.04 129.66 146.91 101.92 162.13 89.40
  C 166.70 85.64 173.62 84.12 179.24 85.59
  A 2.08 2.06 -45.3 0 0 180.28 85.58
  Z
  M 185.01 90.58
  Q 184.67 92.76 182.00 92.61
  C 169.12 91.86 160.52 100.28 159.33 112.57
  C 158.60 120.05 165.07 121.58 170.99 121.95
  C 183.80 122.74 198.10 117.36 202.98 104.91
  Q 206.57 95.73 197.75 92.12
  Q 195.48 91.19 185.60 90.12
  A 0.55 0.54 -82.7 0 0 185.01 90.58
  Z"
/>
<path fill="#0073ff" d="
  M 185.60 90.12
  Q 195.48 91.19 197.75 92.12
  Q 206.57 95.73 202.98 104.91
  C 198.10 117.36 183.80 122.74 170.99 121.95
  C 165.07 121.58 158.60 120.05 159.33 112.57
  C 160.52 100.28 169.12 91.86 182.00 92.61
  Q 184.67 92.76 185.01 90.58
  A 0.55 0.54 -82.7 0 1 185.60 90.12
  Z"
/>
<path fill="#0073ff" d="
  M 47.90 92.21
  A 0.45 0.45 0.0 0 1 48.27 91.69
  Q 59.03 90.06 68.32 94.72
  C 75.46 98.30 85.79 106.59 83.95 115.82
  Q 83.32 119.00 79.96 121.36
  C 71.54 127.29 59.99 127.44 50.59 124.15
  Q 46.16 122.60 43.54 119.74
  C 38.44 114.15 38.67 103.56 43.23 97.71
  A 2.20 2.19 -74.7 0 1 44.66 96.89
  Q 48.61 96.35 47.90 92.21
  Z"
/>
<path fill="#fecf90" d="
  M 141.65 168.45
  L 141.88 168.58
  A 4.19 4.19 0.0 0 1 143.47 174.36
  Q 135.77 187.53 126.50 194.93
  Q 122.59 198.06 118.45 196.69
  C 112.34 194.67 106.79 179.07 105.08 173.23
  Q 104.34 170.69 106.80 168.69
  A 1.46 1.39 -62.8 0 1 107.72 168.37
  Q 110.82 168.47 112.28 171.25
  Q 115.63 177.61 120.85 187.05
  A 0.66 0.66 0.0 0 0 121.87 187.22
  Q 128.85 181.07 135.66 170.02
  A 4.48 4.48 0.0 0 1 141.65 168.45
  Z"
/>
</svg>
