<?xml version="1.0" encoding="UTF-8" standalone="no"?>
<!DOCTYPE svg PUBLIC "-//W3C//DTD SVG 1.1//EN" "http://www.w3.org/Graphics/SVG/1.1/DTD/svg11.dtd">
<svg xmlns="http://www.w3.org/2000/svg" version="1.1" viewBox="0.00 0.00 256.00 256.00">
<g stroke-width="2.00" fill="none" stroke-linecap="butt">
<path stroke="#c3a983" vector-effect="non-scaling-stroke" d="
  M 90.52 129.42
  Q 86.89 130.22 84.16 127.14
  Q 80.28 122.77 80.07 122.51
  C 77.33 119.13 77.17 111.82 77.77 107.01
  Q 79.85 90.50 87.02 75.53
  Q 88.46 72.52 92.25 67.67
  A 3.49 3.21 -16.1 0 0 92.65 67.01
  Q 94.11 63.93 91.50 62.33
  C 86.70 59.39 80.67 67.91 78.96 71.48
  Q 72.63 84.63 69.65 99.66
  Q 67.60 109.97 69.24 119.73
  C 69.92 123.77 73.19 130.15 77.55 132.03
  Q 79.69 132.95 80.87 132.85
  Q 85.75 132.41 90.74 130.05
  A 0.34 0.33 26.0 0 0 90.52 129.42"
/>
<path stroke="#c3a983" vector-effect="non-scaling-stroke" d="
  M 165.82 122.00
  C 163.91 122.21 162.97 119.40 161.76 117.15
  A 3.32 3.27 6.3 0 0 160.97 116.18
  Q 153.00 109.48 152.40 100.40
  C 151.66 89.36 155.27 80.08 160.63 70.31
  C 163.92 64.31 158.17 60.41 153.98 65.29
  C 147.62 72.68 144.28 83.85 143.37 93.34
  Q 141.58 111.92 155.36 123.23
  A 2.75 2.71 73.4 0 0 156.25 123.72
  Q 161.26 125.36 166.04 122.68
  A 0.37 0.36 27.2 0 0 165.82 122.00"
/>
<path stroke="#c3a983" vector-effect="non-scaling-stroke" d="
  M 74.55 180.25
  C 71.66 194.27 84.36 203.12 96.31 205.65
  C 108.04 208.14 120.39 207.72 131.75 203.78
  Q 134.19 202.93 137.00 201.98
  A 1.32 1.25 10.4 0 0 137.57 201.61
  Q 137.78 201.37 138.17 201.22
  Q 139.41 200.74 139.87 200.53
  Q 140.43 200.27 141.98 199.66
  Q 144.95 198.48 151.86 194.27
  Q 152.81 193.69 153.99 192.57
  Q 155.56 191.07 156.27 190.97
  A 1.01 1.00 8.6 0 0 157.02 190.42
  Q 157.04 190.39 159.85 187.61
  Q 164.32 183.19 165.19 177.70
  A 0.73 0.72 -80.2 0 1 166.03 177.10
  Q 168.55 177.52 170.79 175.29
  A 2.20 2.17 77.7 0 0 171.33 174.44
  Q 172.33 171.64 169.98 169.30
  A 1.98 1.94 -10.9 0 0 169.33 168.87
  C 155.52 163.53 140.45 160.96 125.49 160.33
  C 111.16 159.73 95.76 161.85 83.12 168.62
  C 81.15 169.68 72.58 175.10 71.77 178.19
  Q 71.46 179.38 72.38 179.67
  Q 72.76 179.79 74.07 179.70
  A 0.46 0.46 0.0 0 1 74.55 180.25"
/>
<path stroke="#c3a983" vector-effect="non-scaling-stroke" d="
  M 144.07 188.12
  Q 145.72 187.48 147.05 186.54
  Q 151.11 183.68 153.64 181.14
  Q 154.98 179.80 156.66 175.97
  A 1.13 1.13 0.0 0 1 157.16 175.44
  Q 157.44 175.29 157.48 175.22
  A 0.66 0.66 0.0 0 0 157.08 174.27
  C 141.00 169.91 122.84 167.83 106.81 170.43
  Q 95.79 172.22 83.19 176.57
  A 0.80 0.80 0.0 0 0 82.64 177.33
  C 82.63 183.00 82.56 186.96 86.05 190.76
  Q 88.72 193.66 93.29 195.25
  C 110.27 201.17 128.04 197.58 143.45 188.68
  Q 143.57 188.61 143.83 188.30
  A 0.59 0.51 4.1 0 1 144.07 188.12"
/>
</g>
<path fill="#8a5811" d="
  M 256.00 0.00
  L 256.00 256.00
  L 0.00 256.00
  L 0.00 0.00
  L 256.00 0.00
  Z
  M 90.52 129.42
  Q 86.89 130.22 84.16 127.14
  Q 80.28 122.77 80.07 122.51
  C 77.33 119.13 77.17 111.82 77.77 107.01
  Q 79.85 90.50 87.02 75.53
  Q 88.46 72.52 92.25 67.67
  A 3.49 3.21 -16.1 0 0 92.65 67.01
  Q 94.11 63.93 91.50 62.33
  C 86.70 59.39 80.67 67.91 78.96 71.48
  Q 72.63 84.63 69.65 99.66
  Q 67.60 109.97 69.24 119.73
  C 69.92 123.77 73.19 130.15 77.55 132.03
  Q 79.69 132.95 80.87 132.85
  Q 85.75 132.41 90.74 130.05
  A 0.34 0.33 26.0 0 0 90.52 129.42
  Z
  M 165.82 122.00
  C 163.91 122.21 162.97 119.40 161.76 117.15
  A 3.32 3.27 6.3 0 0 160.97 116.18
  Q 153.00 109.48 152.40 100.40
  C 151.66 89.36 155.27 80.08 160.63 70.31
  C 163.92 64.31 158.17 60.41 153.98 65.29
  C 147.62 72.68 144.28 83.85 143.37 93.34
  Q 141.58 111.92 155.36 123.23
  A 2.75 2.71 73.4 0 0 156.25 123.72
  Q 161.26 125.36 166.04 122.68
  A 0.37 0.36 27.2 0 0 165.82 122.00
  Z
  M 74.55 180.25
  C 71.66 194.27 84.36 203.12 96.31 205.65
  C 108.04 208.14 120.39 207.72 131.75 203.78
  Q 134.19 202.93 137.00 201.98
  A 1.32 1.25 10.4 0 0 137.57 201.61
  Q 137.78 201.37 138.17 201.22
  Q 139.41 200.74 139.87 200.53
  Q 140.43 200.27 141.98 199.66
  Q 144.95 198.48 151.86 194.27
  Q 152.81 193.69 153.99 192.57
  Q 155.56 191.07 156.27 190.97
  A 1.01 1.00 8.6 0 0 157.02 190.42
  Q 157.04 190.39 159.85 187.61
  Q 164.32 183.19 165.19 177.70
  A 0.73 0.72 -80.2 0 1 166.03 177.10
  Q 168.55 177.52 170.79 175.29
  A 2.20 2.17 77.7 0 0 171.33 174.44
  Q 172.33 171.64 169.98 169.30
  A 1.98 1.94 -10.9 0 0 169.33 168.87
  C 155.52 163.53 140.45 160.96 125.49 160.33
  C 111.16 159.73 95.76 161.85 83.12 168.62
  C 81.15 169.68 72.58 175.10 71.77 178.19
  Q 71.46 179.38 72.38 179.67
  Q 72.76 179.79 74.07 179.70
  A 0.46 0.46 0.0 0 1 74.55 180.25
  Z"
/>
<path fill="#fcfaf4" d="
  M 90.52 129.42
  A 0.34 0.33 26.0 0 1 90.74 130.05
  Q 85.75 132.41 80.87 132.85
  Q 79.69 132.95 77.55 132.03
  C 73.19 130.15 69.92 123.77 69.24 119.73
  Q 67.60 109.97 69.65 99.66
  Q 72.63 84.63 78.96 71.48
  C 80.67 67.91 86.70 59.39 91.50 62.33
  Q 94.11 63.93 92.65 67.01
  A 3.49 3.21 -16.1 0 1 92.25 67.67
  Q 88.46 72.52 87.02 75.53
  Q 79.85 90.50 77.77 107.01
  C 77.17 111.82 77.33 119.13 80.07 122.51
  Q 80.28 122.77 84.16 127.14
  Q 86.89 130.22 90.52 129.42
  Z"
/>
<path fill="#fcfaf4" d="
  M 165.82 122.00
  A 0.37 0.36 27.2 0 1 166.04 122.68
  Q 161.26 125.36 156.25 123.72
  A 2.75 2.71 73.4 0 1 155.36 123.23
  Q 141.58 111.92 143.37 93.34
  C 144.28 83.85 147.62 72.68 153.98 65.29
  C 158.17 60.41 163.92 64.31 160.63 70.31
  C 155.27 80.08 151.66 89.36 152.40 100.40
  Q 153.00 109.48 160.97 116.18
  A 3.32 3.27 6.3 0 1 161.76 117.15
  C 162.97 119.40 163.91 122.21 165.82 122.00
  Z"
/>
<path fill="#fcfaf4" d="
  M 74.07 179.70
  Q 72.76 179.79 72.38 179.67
  Q 71.46 179.38 71.77 178.19
  C 72.58 175.10 81.15 169.68 83.12 168.62
  C 95.76 161.85 111.16 159.73 125.49 160.33
  C 140.45 160.96 155.52 163.53 169.33 168.87
  A 1.98 1.94 -10.9 0 1 169.98 169.30
  Q 172.33 171.64 171.33 174.44
  A 2.20 2.17 77.7 0 1 170.79 175.29
  Q 168.55 177.52 166.03 177.10
  A 0.73 0.72 -80.2 0 0 165.19 177.70
  Q 164.32 183.19 159.85 187.61
  Q 157.04 190.39 157.02 190.42
  A 1.01 1.00 8.6 0 1 156.27 190.97
  Q 155.56 191.07 153.99 192.57
  Q 152.81 193.69 151.86 194.27
  Q 144.95 198.48 141.98 199.66
  Q 140.43 200.27 139.87 200.53
  Q 139.41 200.74 138.17 201.22
  Q 137.78 201.37 137.57 201.61
  A 1.32 1.25 10.4 0 1 137.00 201.98
  Q 134.19 202.93 131.75 203.78
  C 120.39 207.72 108.04 208.14 96.31 205.65
  C 84.36 203.12 71.66 194.27 74.55 180.25
  A 0.46 0.46 0.0 0 0 74.07 179.70
  Z
  M 144.07 188.12
  Q 145.72 187.48 147.05 186.54
  Q 151.11 183.68 153.64 181.14
  Q 154.98 179.80 156.66 175.97
  A 1.13 1.13 0.0 0 1 157.16 175.44
  Q 157.44 175.29 157.48 175.22
  A 0.66 0.66 0.0 0 0 157.08 174.27
  C 141.00 169.91 122.84 167.83 106.81 170.43
  Q 95.79 172.22 83.19 176.57
  A 0.80 0.80 0.0 0 0 82.64 177.33
  C 82.63 183.00 82.56 186.96 86.05 190.76
  Q 88.72 193.66 93.29 195.25
  C 110.27 201.17 128.04 197.58 143.45 188.68
  Q 143.57 188.61 143.83 188.30
  A 0.59 0.51 4.1 0 1 144.07 188.12
  Z"
/>
<path fill="#8a5811" d="
  M 143.83 188.30
  Q 143.57 188.61 143.45 188.68
  C 128.04 197.58 110.27 201.17 93.29 195.25
  Q 88.72 193.66 86.05 190.76
  C 82.56 186.96 82.63 183.00 82.64 177.33
  A 0.80 0.80 0.0 0 1 83.19 176.57
  Q 95.79 172.22 106.81 170.43
  C 122.84 167.83 141.00 169.91 157.08 174.27
  A 0.66 0.66 0.0 0 1 157.48 175.22
  Q 157.44 175.29 157.16 175.44
  A 1.13 1.13 0.0 0 0 156.66 175.97
  Q 154.98 179.80 153.64 181.14
  Q 151.11 183.68 147.05 186.54
  Q 145.72 187.48 144.07 188.12
  A 0.59 0.51 4.1 0 0 143.83 188.30
  Z"
/>
</svg>
