<?xml version="1.0" encoding="UTF-8" standalone="no"?>
<!DOCTYPE svg PUBLIC "-//W3C//DTD SVG 1.1//EN" "http://www.w3.org/Graphics/SVG/1.1/DTD/svg11.dtd">
<svg xmlns="http://www.w3.org/2000/svg" version="1.1" viewBox="0.00 0.00 256.00 256.00">
<g stroke-width="2.00" fill="none" stroke-linecap="butt">
<path stroke="#5b0f0e" vector-effect="non-scaling-stroke" d="
  M 146.54 54.22
  C 140.74 57.65 135.85 66.73 143.93 71.02
  A 2.43 2.40 -30.3 0 0 145.02 71.30
  Q 151.16 71.48 154.56 66.35
  C 158.29 60.71 154.76 53.74 147.90 53.83
  A 2.73 2.68 -60.6 0 0 146.54 54.22"
/>
<path stroke="#5b0f0e" vector-effect="non-scaling-stroke" d="
  M 83.31 70.05
  C 84.34 67.15 87.67 62.85 83.37 60.65
  C 77.30 57.55 70.28 60.39 69.41 67.47
  C 68.85 72.10 72.98 74.96 77.03 74.41
  C 79.51 74.08 82.62 71.99 83.31 70.05"
/>
<path stroke="#5b0f0e" vector-effect="non-scaling-stroke" d="
  M 194.41 125.96
  Q 188.12 124.25 183.51 123.53
  C 177.74 122.63 172.56 122.21 168.94 127.23
  A 2.10 2.00 74.6 0 0 168.71 127.66
  L 166.85 132.17
  A 4.32 4.23 76.7 0 1 166.14 133.35
  Q 158.35 142.44 147.90 144.38
  Q 145.69 144.79 144.57 143.21
  C 141.82 139.34 138.12 133.94 134.20 133.34
  Q 130.03 132.70 128.85 136.42
  A 0.76 0.76 0.0 0 0 129.91 137.34
  Q 132.26 136.19 133.37 138.35
  C 136.62 144.68 139.28 151.89 145.76 152.18
  Q 150.40 152.39 154.06 151.09
  C 162.26 148.17 173.04 141.29 175.11 132.51
  C 175.61 130.35 177.08 129.50 179.04 129.54
  C 183.55 129.65 189.89 130.65 194.56 126.63
  A 0.39 0.39 0.0 0 0 194.41 125.96"
/>
<path stroke="#5b0f0e" vector-effect="non-scaling-stroke" d="
  M 56.76 143.91
  Q 60.97 141.90 66.02 139.08
  Q 73.65 134.81 81.88 135.13
  Q 85.27 135.26 85.74 138.50
  C 86.28 142.29 86.78 146.70 88.81 149.61
  C 92.98 155.58 99.39 153.35 104.95 150.10
  Q 112.61 145.63 118.63 139.34
  A 2.18 2.11 -48.2 0 0 118.50 136.20
  Q 117.25 135.17 115.33 136.08
  Q 107.68 139.71 100.17 143.68
  Q 98.27 144.68 96.90 144.72
  A 1.39 1.38 -4.3 0 1 95.48 143.50
  Q 95.36 142.48 94.30 136.78
  C 91.29 120.60 70.23 126.54 61.29 132.00
  Q 54.61 136.08 56.38 143.73
  A 0.27 0.27 0.0 0 0 56.76 143.91"
/>
</g>
<path fill="#000000" d="
  M 256.00 0.00
  L 256.00 256.00
  L 0.00 256.00
  L 0.00 0.00
  L 256.00 0.00
  Z
  M 146.54 54.22
  C 140.74 57.65 135.85 66.73 143.93 71.02
  A 2.43 2.40 -30.3 0 0 145.02 71.30
  Q 151.16 71.48 154.56 66.35
  C 158.29 60.71 154.76 53.74 147.90 53.83
  A 2.73 2.68 -60.6 0 0 146.54 54.22
  Z
  M 83.31 70.05
  C 84.34 67.15 87.67 62.85 83.37 60.65
  C 77.30 57.55 70.28 60.39 69.41 67.47
  C 68.85 72.10 72.98 74.96 77.03 74.41
  C 79.51 74.08 82.62 71.99 83.31 70.05
  Z
  M 194.41 125.96
  Q 188.12 124.25 183.51 123.53
  C 177.74 122.63 172.56 122.21 168.94 127.23
  A 2.10 2.00 74.6 0 0 168.71 127.66
  L 166.85 132.17
  A 4.32 4.23 76.7 0 1 166.14 133.35
  Q 158.35 142.44 147.90 144.38
  Q 145.69 144.79 144.57 143.21
  C 141.82 139.34 138.12 133.94 134.20 133.34
  Q 130.03 132.70 128.85 136.42
  A 0.76 0.76 0.0 0 0 129.91 137.34
  Q 132.26 136.19 133.37 138.35
  C 136.62 144.68 139.28 151.89 145.76 152.18
  Q 150.40 152.39 154.06 151.09
  C 162.26 148.17 173.04 141.29 175.11 132.51
  C 175.61 130.35 177.08 129.50 179.04 129.54
  C 183.55 129.65 189.89 130.65 194.56 126.63
  A 0.39 0.39 0.0 0 0 194.41 125.96
  Z
  M 56.76 143.91
  Q 60.97 141.90 66.02 139.08
  Q 73.65 134.81 81.88 135.13
  Q 85.27 135.26 85.74 138.50
  C 86.28 142.29 86.78 146.70 88.81 149.61
  C 92.98 155.58 99.39 153.35 104.95 150.10
  Q 112.61 145.63 118.63 139.34
  A 2.18 2.11 -48.2 0 0 118.50 136.20
  Q 117.25 135.17 115.33 136.08
  Q 107.68 139.71 100.17 143.68
  Q 98.27 144.68 96.90 144.72
  A 1.39 1.38 -4.3 0 1 95.48 143.50
  Q 95.36 142.48 94.30 136.78
  C 91.29 120.60 70.23 126.54 61.29 132.00
  Q 54.61 136.08 56.38 143.73
  A 0.27 0.27 0.0 0 0 56.76 143.91
  Z"
/>
<path fill="#b61e1c" d="
  M 147.90 53.83
  C 154.76 53.74 158.29 60.71 154.56 66.35
  Q 151.16 71.48 145.02 71.30
  A 2.43 2.40 -30.3 0 1 143.93 71.02
  C 135.85 66.73 140.74 57.65 146.54 54.22
  A 2.73 2.68 -60.6 0 1 147.90 53.83
  Z"
/>
<path fill="#b61e1c" d="
  M 83.37 60.65
  C 87.67 62.85 84.34 67.15 83.31 70.05
  C 82.62 71.99 79.51 74.08 77.03 74.41
  C 72.98 74.96 68.85 72.10 69.41 67.47
  C 70.28 60.39 77.30 57.55 83.37 60.65
  Z"
/>
<path fill="#b61e1c" d="
  M 194.41 125.96
  A 0.39 0.39 0.0 0 1 194.56 126.63
  C 189.89 130.65 183.55 129.65 179.04 129.54
  C 177.08 129.50 175.61 130.35 175.11 132.51
  C 173.04 141.29 162.26 148.17 154.06 151.09
  Q 150.40 152.39 145.76 152.18
  C 139.28 151.89 136.62 144.68 133.37 138.35
  Q 132.26 136.19 129.91 137.34
  A 0.76 0.76 0.0 0 1 128.85 136.42
  Q 130.03 132.70 134.20 133.34
  C 138.12 133.94 141.82 139.34 144.57 143.21
  Q 145.69 144.79 147.90 144.38
  Q 158.35 142.44 166.14 133.35
  A 4.32 4.23 76.7 0 0 166.85 132.17
  L 168.71 127.66
  A 2.10 2.00 74.6 0 1 168.94 127.23
  C 172.56 122.21 177.74 122.63 183.51 123.53
  Q 188.12 124.25 194.41 125.96
  Z"
/>
<path fill="#b61e1c" d="
  M 56.76 143.91
  A 0.27 0.27 0.0 0 1 56.38 143.73
  Q 54.61 136.08 61.29 132.00
  C 70.23 126.54 91.29 120.60 94.30 136.78
  Q 95.36 142.48 95.48 143.50
  A 1.39 1.38 -4.3 0 0 96.90 144.72
  Q 98.27 144.68 100.17 143.68
  Q 107.68 139.71 115.33 136.08
  Q 117.25 135.17 118.50 136.20
  A 2.18 2.11 -48.2 0 1 118.63 139.34
  Q 112.61 145.63 104.95 150.10
  C 99.39 153.35 92.98 155.58 88.81 149.61
  C 86.78 146.70 86.28 142.29 85.74 138.50
  Q 85.27 135.26 81.88 135.13
  Q 73.65 134.81 66.02 139.08
  Q 60.97 141.90 56.76 143.91
  Z"
/>
</svg>
