<?xml version="1.0" encoding="UTF-8" standalone="no"?>
<!DOCTYPE svg PUBLIC "-//W3C//DTD SVG 1.1//EN" "http://www.w3.org/Graphics/SVG/1.1/DTD/svg11.dtd">
<svg xmlns="http://www.w3.org/2000/svg" version="1.1" viewBox="0.00 0.00 256.00 256.00">
<g stroke-width="2.00" fill="none" stroke-linecap="butt">
<path stroke="#7f987e" vector-effect="non-scaling-stroke" d="
  M 218.12 93.42
  Q 221.10 90.82 218.84 87.02
  Q 216.63 83.32 214.31 81.37
  Q 202.67 71.58 191.08 66.91
  Q 182.64 63.52 173.77 66.43
  C 165.03 69.31 155.34 74.72 151.25 82.99
  C 149.67 86.18 149.42 91.66 154.51 91.74
  A 1.64 1.64 0.0 0 0 155.43 91.48
  C 158.69 89.41 159.97 85.10 161.73 83.46
  Q 167.04 78.51 175.45 75.39
  Q 182.52 72.76 189.67 76.07
  Q 199.35 80.55 208.32 88.05
  A 9.32 9.18 -86.9 0 1 210.21 90.19
  L 211.88 92.79
  A 2.63 2.55 -89.1 0 0 212.49 93.44
  Q 215.51 95.69 218.12 93.42"
/>
<path stroke="#7f987e" vector-effect="non-scaling-stroke" d="
  M 126.24 90.17
  L 126.48 89.96
  A 4.37 4.37 0.0 0 0 127.13 84.06
  Q 122.62 77.94 119.30 75.66
  Q 103.64 64.93 85.48 65.75
  Q 80.65 65.97 75.78 67.75
  Q 60.88 73.20 47.77 81.21
  Q 45.75 82.45 44.93 85.21
  A 1.83 1.77 -45.9 0 0 44.93 86.26
  C 46.41 91.09 50.90 89.68 53.96 87.90
  Q 67.23 80.24 80.30 75.81
  Q 84.02 74.55 89.00 74.75
  Q 103.94 75.34 115.07 83.70
  A 3.05 2.44 82.3 0 1 115.48 84.09
  L 120.42 89.76
  A 4.13 4.12 49.0 0 0 126.24 90.17"
/>
<path stroke="#7f987e" vector-effect="non-scaling-stroke" d="
  M 86.70 139.79
  C 86.03 145.06 92.13 152.12 96.03 154.82
  C 117.91 169.96 146.77 160.81 168.99 151.24
  C 176.04 148.21 181.90 145.60 185.98 140.20
  Q 188.16 137.32 186.01 132.85
  A 0.90 0.89 -13.5 0 0 185.19 132.35
  Q 181.10 132.45 178.80 134.95
  C 176.71 137.23 174.65 138.70 171.99 139.99
  Q 155.10 148.14 137.89 152.11
  C 119.47 156.36 101.16 154.19 88.50 139.26
  A 1.03 1.02 28.5 0 0 86.70 139.79"
/>
</g>
<path fill="#fecf90" d="
  M 256.00 0.00
  L 256.00 256.00
  L 0.00 256.00
  L 0.00 0.00
  L 256.00 0.00
  Z
  M 218.12 93.42
  Q 221.10 90.82 218.84 87.02
  Q 216.63 83.32 214.31 81.37
  Q 202.67 71.58 191.08 66.91
  Q 182.64 63.52 173.77 66.43
  C 165.03 69.31 155.34 74.72 151.25 82.99
  C 149.67 86.18 149.42 91.66 154.51 91.74
  A 1.64 1.64 0.0 0 0 155.43 91.48
  C 158.69 89.41 159.97 85.10 161.73 83.46
  Q 167.04 78.51 175.45 75.39
  Q 182.52 72.76 189.67 76.07
  Q 199.35 80.55 208.32 88.05
  A 9.32 9.18 -86.9 0 1 210.21 90.19
  L 211.88 92.79
  A 2.63 2.55 -89.1 0 0 212.49 93.44
  Q 215.51 95.69 218.12 93.42
  Z
  M 126.24 90.17
  L 126.48 89.96
  A 4.37 4.37 0.0 0 0 127.13 84.06
  Q 122.62 77.94 119.30 75.66
  Q 103.64 64.93 85.48 65.75
  Q 80.65 65.97 75.78 67.75
  Q 60.88 73.20 47.77 81.21
  Q 45.75 82.45 44.93 85.21
  A 1.83 1.77 -45.9 0 0 44.93 86.26
  C 46.41 91.09 50.90 89.68 53.96 87.90
  Q 67.23 80.24 80.30 75.81
  Q 84.02 74.55 89.00 74.75
  Q 103.94 75.34 115.07 83.70
  A 3.05 2.44 82.3 0 1 115.48 84.09
  L 120.42 89.76
  A 4.13 4.12 49.0 0 0 126.24 90.17
  Z
  M 86.70 139.79
  C 86.03 145.06 92.13 152.12 96.03 154.82
  C 117.91 169.96 146.77 160.81 168.99 151.24
  C 176.04 148.21 181.90 145.60 185.98 140.20
  Q 188.16 137.32 186.01 132.85
  A 0.90 0.89 -13.5 0 0 185.19 132.35
  Q 181.10 132.45 178.80 134.95
  C 176.71 137.23 174.65 138.70 171.99 139.99
  Q 155.10 148.14 137.89 152.11
  C 119.47 156.36 101.16 154.19 88.50 139.26
  A 1.03 1.02 28.5 0 0 86.70 139.79
  Z"
/>
<path fill="#00606c" d="
  M 218.12 93.42
  Q 215.51 95.69 212.49 93.44
  A 2.63 2.55 -89.1 0 1 211.88 92.79
  L 210.21 90.19
  A 9.32 9.18 -86.9 0 0 208.32 88.05
  Q 199.35 80.55 189.67 76.07
  Q 182.52 72.76 175.45 75.39
  Q 167.04 78.51 161.73 83.46
  C 159.97 85.10 158.69 89.41 155.43 91.48
  A 1.64 1.64 0.0 0 1 154.51 91.74
  C 149.42 91.66 149.67 86.18 151.25 82.99
  C 155.34 74.72 165.03 69.31 173.77 66.43
  Q 182.64 63.52 191.08 66.91
  Q 202.67 71.58 214.31 81.37
  Q 216.63 83.32 218.84 87.02
  Q 221.10 90.82 218.12 93.42
  Z"
/>
<path fill="#00606c" d="
  M 126.24 90.17
  A 4.13 4.12 49.0 0 1 120.42 89.76
  L 115.48 84.09
  A 3.05 2.44 82.3 0 0 115.07 83.70
  Q 103.94 75.34 89.00 74.75
  Q 84.02 74.55 80.30 75.81
  Q 67.23 80.24 53.96 87.90
  C 50.90 89.68 46.41 91.09 44.93 86.26
  A 1.83 1.77 -45.9 0 1 44.93 85.21
  Q 45.75 82.45 47.77 81.21
  Q 60.88 73.20 75.78 67.75
  Q 80.65 65.97 85.48 65.75
  Q 103.64 64.93 119.30 75.66
  Q 122.62 77.94 127.13 84.06
  A 4.37 4.37 0.0 0 1 126.48 89.96
  L 126.24 90.17
  Z"
/>
<path fill="#00606c" d="
  M 86.70 139.79
  A 1.03 1.02 28.5 0 1 88.50 139.26
  C 101.16 154.19 119.47 156.36 137.89 152.11
  Q 155.10 148.14 171.99 139.99
  C 174.65 138.70 176.71 137.23 178.80 134.95
  Q 181.10 132.45 185.19 132.35
  A 0.90 0.89 -13.5 0 1 186.01 132.85
  Q 188.16 137.32 185.98 140.20
  C 181.90 145.60 176.04 148.21 168.99 151.24
  C 146.77 160.81 117.91 169.96 96.03 154.82
  C 92.13 152.12 86.03 145.06 86.70 139.79
  Z"
/>
</svg>
