<?xml version="1.0" encoding="UTF-8" standalone="no"?>
<!DOCTYPE svg PUBLIC "-//W3C//DTD SVG 1.1//EN" "http://www.w3.org/Graphics/SVG/1.1/DTD/svg11.dtd">
<svg xmlns="http://www.w3.org/2000/svg" version="1.1" viewBox="0.00 0.00 512.00 512.00">
<g stroke-width="2.00" fill="none" stroke-linecap="butt">
<path stroke="#00803d" vector-effect="non-scaling-stroke" d="
  M 253.53 113.09
  C 254.03 117.33 257.63 118.58 261.53 117.73
  Q 269.05 116.10 273.88 115.14
  C 286.22 112.67 297.75 113.51 310.71 117.47
  Q 332.29 124.06 351.96 133.00
  C 361.98 137.56 370.73 124.86 361.79 117.03
  Q 361.27 116.57 354.71 113.62
  Q 338.18 106.17 321.45 101.31
  C 304.41 96.35 288.03 94.15 270.81 99.27
  Q 262.06 101.87 255.66 108.38
  Q 255.35 108.70 253.69 112.13
  A 1.76 1.72 -36.2 0 0 253.53 113.09"
/>
<path stroke="#00803d" vector-effect="non-scaling-stroke" d="
  M 105.57 120.82
  Q 107.23 121.79 109.50 122.04
  C 120.27 123.25 127.44 124.27 136.32 123.38
  Q 149.85 122.03 166.38 119.54
  C 177.55 117.87 190.06 116.74 200.87 117.13
  Q 205.48 117.30 208.71 119.34
  A 2.44 2.15 65.3 0 0 209.34 119.62
  Q 214.82 121.23 218.52 117.69
  C 224.25 112.20 221.65 105.69 215.70 101.75
  Q 211.80 99.17 207.02 98.70
  Q 197.91 97.83 189.00 98.29
  Q 163.01 99.64 140.15 105.38
  Q 129.09 108.15 123.46 110.72
  Q 119.14 112.69 112.36 115.14
  Q 107.91 116.75 105.38 119.16
  A 1.05 1.04 -51.6 0 0 105.57 120.82"
/>
<path stroke="#00803d" vector-effect="non-scaling-stroke" d="
  M 299.29 239.69
  C 300.74 245.82 308.40 253.88 314.87 247.63
  Q 316.89 245.68 317.57 242.63
  Q 318.51 238.48 318.12 236.92
  Q 315.02 224.61 313.96 211.24
  Q 313.81 209.26 313.20 186.50
  Q 312.75 169.75 311.48 158.27
  C 310.97 153.63 307.82 147.95 302.62 150.03
  C 299.53 151.27 297.82 155.53 297.36 158.56
  C 293.21 185.95 293.10 213.38 299.29 239.69"
/>
<path stroke="#00803d" vector-effect="non-scaling-stroke" d="
  M 178.70 155.45
  C 175.94 160.10 177.16 167.93 178.00 172.95
  Q 179.64 182.69 186.71 221.77
  Q 187.90 228.31 189.73 234.28
  C 191.66 240.56 193.44 244.61 199.63 246.46
  C 203.61 247.66 208.23 246.04 209.36 242.12
  Q 210.81 237.05 209.47 233.52
  Q 206.86 226.64 205.69 220.26
  Q 200.42 191.65 195.25 161.48
  Q 194.66 158.05 193.08 155.43
  C 189.80 149.97 181.99 149.90 178.70 155.45"
/>
<path stroke="#00803d" vector-effect="non-scaling-stroke" d="
  M 282.22 370.45
  Q 288.29 380.78 297.90 389.15
  C 321.24 409.46 356.05 400.47 379.15 385.89
  Q 399.68 372.92 413.23 355.49
  Q 414.60 353.72 414.98 349.27
  Q 415.04 348.61 415.89 347.39
  C 419.81 341.78 416.86 334.76 410.66 332.92
  Q 408.73 332.34 403.70 333.13
  Q 398.22 333.98 388.06 335.70
  Q 370.66 338.63 295.87 349.14
  Q 273.24 352.32 248.78 354.61
  C 227.84 356.57 209.12 356.28 187.42 355.65
  C 182.20 355.50 177.58 356.29 172.28 355.59
  Q 169.51 355.22 166.73 355.93
  A 0.93 0.93 0.0 0 0 166.12 357.23
  Q 167.41 359.98 169.24 361.62
  Q 179.05 370.42 190.56 372.50
  Q 200.78 374.34 207.01 374.73
  Q 220.11 375.55 236.25 374.53
  Q 258.23 373.14 281.47 370.08
  A 0.77 0.76 -18.4 0 1 282.22 370.45"
/>
<path stroke="#00803d" vector-effect="non-scaling-stroke" d="
  M 387.66 355.06
  L 301.31 367.58
  A 0.19 0.19 0.0 0 0 301.20 367.90
  Q 304.44 371.33 309.89 375.15
  Q 323.71 384.82 341.55 381.09
  C 359.01 377.44 375.18 367.69 387.87 355.49
  A 0.25 0.25 0.0 0 0 387.66 355.06"
/>
</g>
<path fill="#000000" d="
  M 512.00 0.00
  L 512.00 512.00
  L 0.00 512.00
  L 0.00 0.00
  L 512.00 0.00
  Z
  M 253.53 113.09
  C 254.03 117.33 257.63 118.58 261.53 117.73
  Q 269.05 116.10 273.88 115.14
  C 286.22 112.67 297.75 113.51 310.71 117.47
  Q 332.29 124.06 351.96 133.00
  C 361.98 137.56 370.73 124.86 361.79 117.03
  Q 361.27 116.57 354.71 113.62
  Q 338.18 106.17 321.45 101.31
  C 304.41 96.35 288.03 94.15 270.81 99.27
  Q 262.06 101.87 255.66 108.38
  Q 255.35 108.70 253.69 112.13
  A 1.76 1.72 -36.2 0 0 253.53 113.09
  Z
  M 105.57 120.82
  Q 107.23 121.79 109.50 122.04
  C 120.27 123.25 127.44 124.27 136.32 123.38
  Q 149.85 122.03 166.38 119.54
  C 177.55 117.87 190.06 116.74 200.87 117.13
  Q 205.48 117.30 208.71 119.34
  A 2.44 2.15 65.3 0 0 209.34 119.62
  Q 214.82 121.23 218.52 117.69
  C 224.25 112.20 221.65 105.69 215.70 101.75
  Q 211.80 99.17 207.02 98.70
  Q 197.91 97.83 189.00 98.29
  Q 163.01 99.64 140.15 105.38
  Q 129.09 108.15 123.46 110.72
  Q 119.14 112.69 112.36 115.14
  Q 107.91 116.75 105.38 119.16
  A 1.05 1.04 -51.6 0 0 105.57 120.82
  Z
  M 299.29 239.69
  C 300.74 245.82 308.40 253.88 314.87 247.63
  Q 316.89 245.68 317.57 242.63
  Q 318.51 238.48 318.12 236.92
  Q 315.02 224.61 313.96 211.24
  Q 313.81 209.26 313.20 186.50
  Q 312.75 169.75 311.48 158.27
  C 310.97 153.63 307.82 147.95 302.62 150.03
  C 299.53 151.27 297.82 155.53 297.36 158.56
  C 293.21 185.95 293.10 213.38 299.29 239.69
  Z
  M 178.70 155.45
  C 175.94 160.10 177.16 167.93 178.00 172.95
  Q 179.64 182.69 186.71 221.77
  Q 187.90 228.31 189.73 234.28
  C 191.66 240.56 193.44 244.61 199.63 246.46
  C 203.61 247.66 208.23 246.04 209.36 242.12
  Q 210.81 237.05 209.47 233.52
  Q 206.86 226.64 205.69 220.26
  Q 200.42 191.65 195.25 161.48
  Q 194.66 158.05 193.08 155.43
  C 189.80 149.97 181.99 149.90 178.70 155.45
  Z
  M 282.22 370.45
  Q 288.29 380.78 297.90 389.15
  C 321.24 409.46 356.05 400.47 379.15 385.89
  Q 399.68 372.92 413.23 355.49
  Q 414.60 353.72 414.98 349.27
  Q 415.04 348.61 415.89 347.39
  C 419.81 341.78 416.86 334.76 410.66 332.92
  Q 408.73 332.34 403.70 333.13
  Q 398.22 333.98 388.06 335.70
  Q 370.66 338.63 295.87 349.14
  Q 273.24 352.32 248.78 354.61
  C 227.84 356.57 209.12 356.28 187.42 355.65
  C 182.20 355.50 177.58 356.29 172.28 355.59
  Q 169.51 355.22 166.73 355.93
  A 0.93 0.93 0.0 0 0 166.12 357.23
  Q 167.41 359.98 169.24 361.62
  Q 179.05 370.42 190.56 372.50
  Q 200.78 374.34 207.01 374.73
  Q 220.11 375.55 236.25 374.53
  Q 258.23 373.14 281.47 370.08
  A 0.77 0.76 -18.4 0 1 282.22 370.45
  Z"
/>
<path fill="#00ff7a" d="
  M 261.53 117.73
  C 257.63 118.58 254.03 117.33 253.53 113.09
  A 1.76 1.72 -36.2 0 1 253.69 112.13
  Q 255.35 108.70 255.66 108.38
  Q 262.06 101.87 270.81 99.27
  C 288.03 94.15 304.41 96.35 321.45 101.31
  Q 338.18 106.17 354.71 113.62
  Q 361.27 116.57 361.79 117.03
  C 370.73 124.86 361.98 137.56 351.96 133.00
  Q 332.29 124.06 310.71 117.47
  C 297.75 113.51 286.22 112.67 273.88 115.14
  Q 269.05 116.10 261.53 117.73
  Z"
/>
<path fill="#00ff7a" d="
  M 105.57 120.82
  A 1.05 1.04 -51.6 0 1 105.38 119.16
  Q 107.91 116.75 112.36 115.14
  Q 119.14 112.69 123.46 110.72
  Q 129.09 108.15 140.15 105.38
  Q 163.01 99.64 189.00 98.29
  Q 197.91 97.83 207.02 98.70
  Q 211.80 99.17 215.70 101.75
  C 221.65 105.69 224.25 112.20 218.52 117.69
  Q 214.82 121.23 209.34 119.62
  A 2.44 2.15 65.3 0 1 208.71 119.34
  Q 205.48 117.30 200.87 117.13
  C 190.06 116.74 177.55 117.87 166.38 119.54
  Q 149.85 122.03 136.32 123.38
  C 127.44 124.27 120.27 123.25 109.50 122.04
  Q 107.23 121.79 105.57 120.82
  Z"
/>
<path fill="#00ff7a" d="
  M 314.87 247.63
  C 308.40 253.88 300.74 245.82 299.29 239.69
  C 293.10 213.38 293.21 185.95 297.36 158.56
  C 297.82 155.53 299.53 151.27 302.62 150.03
  C 307.82 147.95 310.97 153.63 311.48 158.27
  Q 312.75 169.75 313.20 186.50
  Q 313.81 209.26 313.96 211.24
  Q 315.02 224.61 318.12 236.92
  Q 318.51 238.48 317.57 242.63
  Q 316.89 245.68 314.87 247.63
  Z"
/>
<path fill="#00ff7a" d="
  M 178.70 155.45
  C 181.99 149.90 189.80 149.97 193.08 155.43
  Q 194.66 158.05 195.25 161.48
  Q 200.42 191.65 205.69 220.26
  Q 206.86 226.64 209.47 233.52
  Q 210.81 237.05 209.36 242.12
  C 208.23 246.04 203.61 247.66 199.63 246.46
  C 193.44 244.61 191.66 240.56 189.73 234.28
  Q 187.90 228.31 186.71 221.77
  Q 179.64 182.69 178.00 172.95
  C 177.16 167.93 175.94 160.10 178.70 155.45
  Z"
/>
<path fill="#00ff7a" d="
  M 282.22 370.45
  A 0.77 0.76 -18.4 0 0 281.47 370.08
  Q 258.23 373.14 236.25 374.53
  Q 220.11 375.55 207.01 374.73
  Q 200.78 374.34 190.56 372.50
  Q 179.05 370.42 169.24 361.62
  Q 167.41 359.98 166.12 357.23
  A 0.93 0.93 0.0 0 1 166.73 355.93
  Q 169.51 355.22 172.28 355.59
  C 177.58 356.29 182.20 355.50 187.42 355.65
  C 209.12 356.28 227.84 356.57 248.78 354.61
  Q 273.24 352.32 295.87 349.14
  Q 370.66 338.63 388.06 335.70
  Q 398.22 333.98 403.70 333.13
  Q 408.73 332.34 410.66 332.92
  C 416.86 334.76 419.81 341.78 415.89 347.39
  Q 415.04 348.61 414.98 349.27
  Q 414.60 353.72 413.23 355.49
  Q 399.68 372.92 379.15 385.89
  C 356.05 400.47 321.24 409.46 297.90 389.15
  Q 288.29 380.78 282.22 370.45
  Z
  M 387.66 355.06
  L 301.31 367.58
  A 0.19 0.19 0.0 0 0 301.20 367.90
  Q 304.44 371.33 309.89 375.15
  Q 323.71 384.82 341.55 381.09
  C 359.01 377.44 375.18 367.69 387.87 355.49
  A 0.25 0.25 0.0 0 0 387.66 355.06
  Z"
/>
<path fill="#000000" d="
  M 387.87 355.49
  C 375.18 367.69 359.01 377.44 341.55 381.09
  Q 323.71 384.82 309.89 375.15
  Q 304.44 371.33 301.20 367.90
  A 0.19 0.19 0.0 0 1 301.31 367.58
  L 387.66 355.06
  A 0.25 0.25 0.0 0 1 387.87 355.49
  Z"
/>
</svg>
