<?xml version="1.0" encoding="UTF-8" standalone="no"?>
<!DOCTYPE svg PUBLIC "-//W3C//DTD SVG 1.1//EN" "http://www.w3.org/Graphics/SVG/1.1/DTD/svg11.dtd">
<svg xmlns="http://www.w3.org/2000/svg" version="1.1" viewBox="0.00 0.00 512.00 512.00">
<g stroke-width="2.00" fill="none" stroke-linecap="butt">
<path stroke="#b67280" vector-effect="non-scaling-stroke" d="
  M 287.69 162.83
  C 283.75 160.09 277.07 160.19 278.25 167.04
  Q 278.69 169.63 280.97 172.69
  C 300.13 198.32 337.97 193.31 364.22 182.93
  C 378.74 177.20 392.93 169.64 404.09 159.84
  Q 410.45 154.25 413.85 149.59
  C 417.53 144.55 418.40 137.64 413.37 132.96
  Q 412.21 131.87 410.51 132.06
  C 403.50 132.84 400.26 137.01 395.06 142.54
  Q 390.54 147.34 382.09 152.83
  C 365.55 163.58 344.78 171.46 325.02 172.95
  Q 304.43 174.50 287.69 162.83"
/>
<path stroke="#b67280" vector-effect="non-scaling-stroke" d="
  M 100.67 171.42
  C 99.29 174.36 102.25 177.60 104.52 179.22
  Q 118.14 188.96 134.39 193.61
  Q 140.27 195.29 147.23 195.15
  C 165.29 194.78 182.15 189.24 198.30 181.07
  Q 209.20 175.56 218.70 167.98
  Q 221.83 165.47 221.97 161.01
  C 222.18 153.96 213.52 148.39 207.64 152.95
  Q 195.70 162.21 180.60 168.45
  C 165.57 174.66 150.99 177.87 135.18 175.15
  Q 131.35 174.49 122.48 171.44
  Q 116.65 169.44 109.82 167.73
  Q 103.18 166.07 100.67 171.42"
/>
<path stroke="#b67280" vector-effect="non-scaling-stroke" d="
  M 256.34 344.92
  Q 259.19 347.55 262.85 347.51
  C 274.45 347.37 286.71 343.48 301.13 338.56
  Q 329.16 329.00 361.50 323.99
  C 384.82 320.38 410.72 316.64 436.32 312.41
  Q 446.12 310.79 453.85 306.12
  Q 458.46 303.32 458.93 298.35
  A 3.65 3.53 -74.4 0 0 457.00 294.79
  C 450.36 291.47 443.17 292.01 435.96 293.22
  C 410.23 297.58 385.49 301.09 356.78 305.57
  Q 322.91 310.87 293.66 321.19
  Q 275.35 327.65 261.43 337.20
  C 258.64 339.11 255.97 340.59 255.84 343.68
  A 1.58 1.57 -67.2 0 0 256.34 344.92"
/>
</g>
<path fill="#6d8fff" d="
  M 512.00 0.00
  L 512.00 512.00
  L 0.00 512.00
  L 0.00 0.00
  L 512.00 0.00
  Z
  M 287.69 162.83
  C 283.75 160.09 277.07 160.19 278.25 167.04
  Q 278.69 169.63 280.97 172.69
  C 300.13 198.32 337.97 193.31 364.22 182.93
  C 378.74 177.20 392.93 169.64 404.09 159.84
  Q 410.45 154.25 413.85 149.59
  C 417.53 144.55 418.40 137.64 413.37 132.96
  Q 412.21 131.87 410.51 132.06
  C 403.50 132.84 400.26 137.01 395.06 142.54
  Q 390.54 147.34 382.09 152.83
  C 365.55 163.58 344.78 171.46 325.02 172.95
  Q 304.43 174.50 287.69 162.83
  Z
  M 100.67 171.42
  C 99.29 174.36 102.25 177.60 104.52 179.22
  Q 118.14 188.96 134.39 193.61
  Q 140.27 195.29 147.23 195.15
  C 165.29 194.78 182.15 189.24 198.30 181.07
  Q 209.20 175.56 218.70 167.98
  Q 221.83 165.47 221.97 161.01
  C 222.18 153.96 213.52 148.39 207.64 152.95
  Q 195.70 162.21 180.60 168.45
  C 165.57 174.66 150.99 177.87 135.18 175.15
  Q 131.35 174.49 122.48 171.44
  Q 116.65 169.44 109.82 167.73
  Q 103.18 166.07 100.67 171.42
  Z
  M 256.34 344.92
  Q 259.19 347.55 262.85 347.51
  C 274.45 347.37 286.71 343.48 301.13 338.56
  Q 329.16 329.00 361.50 323.99
  C 384.82 320.38 410.72 316.64 436.32 312.41
  Q 446.12 310.79 453.85 306.12
  Q 458.46 303.32 458.93 298.35
  A 3.65 3.53 -74.4 0 0 457.00 294.79
  C 450.36 291.47 443.17 292.01 435.96 293.22
  C 410.23 297.58 385.49 301.09 356.78 305.57
  Q 322.91 310.87 293.66 321.19
  Q 275.35 327.65 261.43 337.20
  C 258.64 339.11 255.97 340.59 255.84 343.68
  A 1.58 1.57 -67.2 0 0 256.34 344.92
  Z"
/>
<path fill="#ff5500" d="
  M 278.25 167.04
  C 277.07 160.19 283.75 160.09 287.69 162.83
  Q 304.43 174.50 325.02 172.95
  C 344.78 171.46 365.55 163.58 382.09 152.83
  Q 390.54 147.34 395.06 142.54
  C 400.26 137.01 403.50 132.84 410.51 132.06
  Q 412.21 131.87 413.37 132.96
  C 418.40 137.64 417.53 144.55 413.85 149.59
  Q 410.45 154.25 404.09 159.84
  C 392.93 169.64 378.74 177.20 364.22 182.93
  C 337.97 193.31 300.13 198.32 280.97 172.69
  Q 278.69 169.63 278.25 167.04
  Z"
/>
<path fill="#ff5500" d="
  M 100.67 171.42
  Q 103.18 166.07 109.82 167.73
  Q 116.65 169.44 122.48 171.44
  Q 131.35 174.49 135.18 175.15
  C 150.99 177.87 165.57 174.66 180.60 168.45
  Q 195.70 162.21 207.64 152.95
  C 213.52 148.39 222.18 153.96 221.97 161.01
  Q 221.83 165.47 218.70 167.98
  Q 209.20 175.56 198.30 181.07
  C 182.15 189.24 165.29 194.78 147.23 195.15
  Q 140.27 195.29 134.39 193.61
  Q 118.14 188.96 104.52 179.22
  C 102.25 177.60 99.29 174.36 100.67 171.42
  Z"
/>
<path fill="#ff5500" d="
  M 255.84 343.68
  C 255.97 340.59 258.64 339.11 261.43 337.20
  Q 275.35 327.65 293.66 321.19
  Q 322.91 310.87 356.78 305.57
  C 385.49 301.09 410.23 297.58 435.96 293.22
  C 443.17 292.01 450.36 291.47 457.00 294.79
  A 3.65 3.53 -74.4 0 1 458.93 298.35
  Q 458.46 303.32 453.85 306.12
  Q 446.12 310.79 436.32 312.41
  C 410.72 316.64 384.82 320.38 361.50 323.99
  Q 329.16 329.00 301.13 338.56
  C 286.71 343.48 274.45 347.37 262.85 347.51
  Q 259.19 347.55 256.34 344.92
  A 1.58 1.57 -67.2 0 1 255.84 343.68
  Z"
/>
</svg>
