<?xml version="1.0" encoding="UTF-8" standalone="no"?>
<!DOCTYPE svg PUBLIC "-//W3C//DTD SVG 1.1//EN" "http://www.w3.org/Graphics/SVG/1.1/DTD/svg11.dtd">
<svg xmlns="http://www.w3.org/2000/svg" version="1.1" viewBox="0.00 0.00 512.00 512.00">
<g stroke-width="2.00" fill="none" stroke-linecap="butt">
<path stroke="#ffb642" vector-effect="non-scaling-stroke" d="
  M 212.09 108.36
  Q 202.04 102.55 193.00 110.41
  C 185.48 116.94 183.94 129.22 186.70 138.33
  C 191.93 155.59 208.15 163.06 225.37 162.10
  C 239.65 161.30 256.85 154.68 264.17 141.81
  C 269.80 131.92 265.62 122.09 257.95 115.02
  Q 248.50 106.29 235.84 105.04
  C 232.92 104.75 228.52 105.20 225.49 105.20
  Q 221.40 105.18 212.71 108.41
  A 0.75 0.71 -38.8 0 1 212.09 108.36"
/>
<path stroke="#ffb642" vector-effect="non-scaling-stroke" d="
  M 438.27 116.78
  C 433.24 109.27 422.90 107.63 415.06 111.63
  C 402.57 118.01 394.98 132.93 392.13 146.18
  C 387.42 168.06 399.96 186.09 422.76 186.91
  Q 435.38 187.36 446.42 183.15
  C 461.71 177.32 475.14 163.27 473.73 146.08
  C 473.10 138.49 468.23 130.56 462.42 125.80
  Q 452.43 117.62 439.30 117.34
  A 1.30 1.29 -16.2 0 1 438.27 116.78"
/>
<path stroke="#ffb642" vector-effect="non-scaling-stroke" d="
  M 466.90 307.88
  C 468.40 302.86 466.88 297.69 463.15 293.42
  C 443.60 271.03 416.19 258.73 387.37 252.39
  Q 368.67 248.28 349.75 246.30
  C 317.47 242.92 285.28 239.58 252.27 239.08
  Q 201.78 238.32 155.48 253.44
  C 130.56 261.57 106.05 271.63 84.08 286.06
  C 77.63 290.30 68.52 297.73 65.17 304.80
  C 63.81 307.67 60.68 309.06 61.44 312.79
  Q 62.22 316.63 65.38 319.87
  Q 65.92 320.44 77.06 330.78
  C 91.77 344.45 109.33 354.23 128.91 361.59
  Q 157.36 372.27 186.03 377.37
  Q 217.69 383.01 255.75 385.64
  Q 301.16 388.78 352.03 379.81
  C 382.89 374.36 412.72 364.35 439.50 347.49
  Q 454.78 337.87 464.68 322.95
  C 467.24 319.11 468.34 316.33 467.55 312.13
  Q 466.81 308.20 466.90 307.88"
/>
<path stroke="#ffb642" vector-effect="non-scaling-stroke" d="
  M 213.31 109.80
  C 214.35 111.10 215.30 111.77 215.65 113.46
  Q 216.54 117.85 212.22 120.41
  A 0.76 0.75 -67.4 0 1 211.96 120.52
  L 206.23 121.87
  A 1.75 1.74 -76.1 0 0 205.31 122.43
  Q 204.20 123.71 203.88 125.81
  C 201.76 139.84 212.75 144.51 224.50 143.72
  C 232.89 143.16 243.49 140.05 249.39 133.60
  A 2.78 2.76 50.1 0 0 249.68 130.24
  Q 247.55 126.88 244.30 124.68
  Q 236.47 119.38 225.28 113.46
  Q 220.07 110.71 213.65 109.25
  A 0.34 0.34 0.0 0 0 213.31 109.80"
/>
<path stroke="#ffb642" vector-effect="non-scaling-stroke" d="
  M 433.40 124.85
  C 427.54 125.43 424.03 125.62 420.76 129.44
  Q 411.65 140.08 410.18 153.95
  Q 409.09 164.26 418.62 167.50
  C 430.12 171.40 443.89 168.21 453.57 161.06
  C 458.75 157.24 463.45 151.25 460.09 144.63
  Q 457.85 140.23 453.45 137.29
  Q 441.44 129.28 435.08 125.25
  A 2.65 2.64 -31.5 0 0 433.40 124.85"
/>
<path stroke="#ffb642" vector-effect="non-scaling-stroke" d="
  M 78.82 310.63
  Q 80.08 311.31 80.16 311.37
  Q 94.35 321.90 105.60 329.16
  Q 118.86 337.71 135.58 343.90
  Q 165.43 354.96 196.01 359.93
  Q 213.46 362.77 237.95 365.20
  Q 260.93 367.47 280.12 367.45
  Q 326.99 367.38 371.81 356.06
  Q 402.36 348.34 428.60 332.11
  Q 437.45 326.63 444.63 318.38
  Q 445.62 317.25 451.34 309.43
  A 0.72 0.71 43.2 0 0 451.31 308.55
  C 438.30 292.88 420.78 281.95 401.41 275.86
  C 371.29 266.37 341.95 264.39 308.25 261.26
  C 265.03 257.26 222.07 255.17 180.10 266.07
  C 157.97 271.81 138.35 279.17 114.83 289.59
  Q 95.44 298.17 78.77 309.88
  A 0.44 0.44 0.0 0 0 78.82 310.63"
/>
</g>
<path fill="#ffff00" d="
  M 512.00 0.00
  L 512.00 512.00
  L 0.00 512.00
  L 0.00 0.00
  L 512.00 0.00
  Z
  M 212.09 108.36
  Q 202.04 102.55 193.00 110.41
  C 185.48 116.94 183.94 129.22 186.70 138.33
  C 191.93 155.59 208.15 163.06 225.37 162.10
  C 239.65 161.30 256.85 154.68 264.17 141.81
  C 269.80 131.92 265.62 122.09 257.95 115.02
  Q 248.50 106.29 235.84 105.04
  C 232.92 104.75 228.52 105.20 225.49 105.20
  Q 221.40 105.18 212.71 108.41
  A 0.75 0.71 -38.8 0 1 212.09 108.36
  Z
  M 438.27 116.78
  C 433.24 109.27 422.90 107.63 415.06 111.63
  C 402.57 118.01 394.98 132.93 392.13 146.18
  C 387.42 168.06 399.96 186.09 422.76 186.91
  Q 435.38 187.36 446.42 183.15
  C 461.71 177.32 475.14 163.27 473.73 146.08
  C 473.10 138.49 468.23 130.56 462.42 125.80
  Q 452.43 117.62 439.30 117.34
  A 1.30 1.29 -16.2 0 1 438.27 116.78
  Z
  M 466.90 307.88
  C 468.40 302.86 466.88 297.69 463.15 293.42
  C 443.60 271.03 416.19 258.73 387.37 252.39
  Q 368.67 248.28 349.75 246.30
  C 317.47 242.92 285.28 239.58 252.27 239.08
  Q 201.78 238.32 155.48 253.44
  C 130.56 261.57 106.05 271.63 84.08 286.06
  C 77.63 290.30 68.52 297.73 65.17 304.80
  C 63.81 307.67 60.68 309.06 61.44 312.79
  Q 62.22 316.63 65.38 319.87
  Q 65.92 320.44 77.06 330.78
  C 91.77 344.45 109.33 354.23 128.91 361.59
  Q 157.36 372.27 186.03 377.37
  Q 217.69 383.01 255.75 385.64
  Q 301.16 388.78 352.03 379.81
  C 382.89 374.36 412.72 364.35 439.50 347.49
  Q 454.78 337.87 464.68 322.95
  C 467.24 319.11 468.34 316.33 467.55 312.13
  Q 466.81 308.20 466.90 307.88
  Z"
/>
<path fill="#ff6d84" d="
  M 212.71 108.41
  Q 221.40 105.18 225.49 105.20
  C 228.52 105.20 232.92 104.75 235.84 105.04
  Q 248.50 106.29 257.95 115.02
  C 265.62 122.09 269.80 131.92 264.17 141.81
  C 256.85 154.68 239.65 161.30 225.37 162.10
  C 208.15 163.06 191.93 155.59 186.70 138.33
  C 183.94 129.22 185.48 116.94 193.00 110.41
  Q 202.04 102.55 212.09 108.36
  A 0.75 0.71 -38.8 0 0 212.71 108.41
  Z
  M 213.31 109.80
  C 214.35 111.10 215.30 111.77 215.65 113.46
  Q 216.54 117.85 212.22 120.41
  A 0.76 0.75 -67.4 0 1 211.96 120.52
  L 206.23 121.87
  A 1.75 1.74 -76.1 0 0 205.31 122.43
  Q 204.20 123.71 203.88 125.81
  C 201.76 139.84 212.75 144.51 224.50 143.72
  C 232.89 143.16 243.49 140.05 249.39 133.60
  A 2.78 2.76 50.1 0 0 249.68 130.24
  Q 247.55 126.88 244.30 124.68
  Q 236.47 119.38 225.28 113.46
  Q 220.07 110.71 213.65 109.25
  A 0.34 0.34 0.0 0 0 213.31 109.80
  Z"
/>
<path fill="#ffff00" d="
  M 213.65 109.25
  Q 220.07 110.71 225.28 113.46
  Q 236.47 119.38 244.30 124.68
  Q 247.55 126.88 249.68 130.24
  A 2.78 2.76 50.1 0 1 249.39 133.60
  C 243.49 140.05 232.89 143.16 224.50 143.72
  C 212.75 144.51 201.76 139.84 203.88 125.81
  Q 204.20 123.71 205.31 122.43
  A 1.75 1.74 -76.1 0 1 206.23 121.87
  L 211.96 120.52
  A 0.76 0.75 -67.4 0 0 212.22 120.41
  Q 216.54 117.85 215.65 113.46
  C 215.30 111.77 214.35 111.10 213.31 109.80
  A 0.34 0.34 0.0 0 1 213.65 109.25
  Z"
/>
<path fill="#ff6d84" d="
  M 438.27 116.78
  A 1.30 1.29 -16.2 0 0 439.30 117.34
  Q 452.43 117.62 462.42 125.80
  C 468.23 130.56 473.10 138.49 473.73 146.08
  C 475.14 163.27 461.71 177.32 446.42 183.15
  Q 435.38 187.36 422.76 186.91
  C 399.96 186.09 387.42 168.06 392.13 146.18
  C 394.98 132.93 402.57 118.01 415.06 111.63
  C 422.90 107.63 433.24 109.27 438.27 116.78
  Z
  M 433.40 124.85
  C 427.54 125.43 424.03 125.62 420.76 129.44
  Q 411.65 140.08 410.18 153.95
  Q 409.09 164.26 418.62 167.50
  C 430.12 171.40 443.89 168.21 453.57 161.06
  C 458.75 157.24 463.45 151.25 460.09 144.63
  Q 457.85 140.23 453.45 137.29
  Q 441.44 129.28 435.08 125.25
  A 2.65 2.64 -31.5 0 0 433.40 124.85
  Z"
/>
<path fill="#ffff00" d="
  M 435.08 125.25
  Q 441.44 129.28 453.45 137.29
  Q 457.85 140.23 460.09 144.63
  C 463.45 151.25 458.75 157.24 453.57 161.06
  C 443.89 168.21 430.12 171.40 418.62 167.50
  Q 409.09 164.26 410.18 153.95
  Q 411.65 140.08 420.76 129.44
  C 424.03 125.62 427.54 125.43 433.40 124.85
  A 2.65 2.64 -31.5 0 1 435.08 125.25
  Z"
/>
<path fill="#ff6d84" d="
  M 466.90 307.88
  Q 466.81 308.20 467.55 312.13
  C 468.34 316.33 467.24 319.11 464.68 322.95
  Q 454.78 337.87 439.50 347.49
  C 412.72 364.35 382.89 374.36 352.03 379.81
  Q 301.16 388.78 255.75 385.64
  Q 217.69 383.01 186.03 377.37
  Q 157.36 372.27 128.91 361.59
  C 109.33 354.23 91.77 344.45 77.06 330.78
  Q 65.92 320.44 65.38 319.87
  Q 62.22 316.63 61.44 312.79
  C 60.68 309.06 63.81 307.67 65.17 304.80
  C 68.52 297.73 77.63 290.30 84.08 286.06
  C 106.05 271.63 130.56 261.57 155.48 253.44
  Q 201.78 238.32 252.27 239.08
  C 285.28 239.58 317.47 242.92 349.75 246.30
  Q 368.67 248.28 387.37 252.39
  C 416.19 258.73 443.60 271.03 463.15 293.42
  C 466.88 297.69 468.40 302.86 466.90 307.88
  Z
  M 78.82 310.63
  Q 80.08 311.31 80.16 311.37
  Q 94.35 321.90 105.60 329.16
  Q 118.86 337.71 135.58 343.90
  Q 165.43 354.96 196.01 359.93
  Q 213.46 362.77 237.95 365.20
  Q 260.93 367.47 280.12 367.45
  Q 326.99 367.38 371.81 356.06
  Q 402.36 348.34 428.60 332.11
  Q 437.45 326.63 444.63 318.38
  Q 445.62 317.25 451.34 309.43
  A 0.72 0.71 43.2 0 0 451.31 308.55
  C 438.30 292.88 420.78 281.95 401.41 275.86
  C 371.29 266.37 341.95 264.39 308.25 261.26
  C 265.03 257.26 222.07 255.17 180.10 266.07
  C 157.97 271.81 138.35 279.17 114.83 289.59
  Q 95.44 298.17 78.77 309.88
  A 0.44 0.44 0.0 0 0 78.82 310.63
  Z"
/>
<path fill="#ffff00" d="
  M 78.82 310.63
  A 0.44 0.44 0.0 0 1 78.77 309.88
  Q 95.44 298.17 114.83 289.59
  C 138.35 279.17 157.97 271.81 180.10 266.07
  C 222.07 255.17 265.03 257.26 308.25 261.26
  C 341.95 264.39 371.29 266.37 401.41 275.86
  C 420.78 281.95 438.30 292.88 451.31 308.55
  A 0.72 0.71 43.2 0 1 451.34 309.43
  Q 445.62 317.25 444.63 318.38
  Q 437.45 326.63 428.60 332.11
  Q 402.36 348.34 371.81 356.06
  Q 326.99 367.38 280.12 367.45
  Q 260.93 367.47 237.95 365.20
  Q 213.46 362.77 196.01 359.93
  Q 165.43 354.96 135.58 343.90
  Q 118.86 337.71 105.60 329.16
  Q 94.35 321.90 80.16 311.37
  Q 80.08 311.31 78.82 310.63
  Z"
/>
</svg>
