<?xml version="1.0" encoding="UTF-8" standalone="no"?>
<!DOCTYPE svg PUBLIC "-//W3C//DTD SVG 1.1//EN" "http://www.w3.org/Graphics/SVG/1.1/DTD/svg11.dtd">
<svg xmlns="http://www.w3.org/2000/svg" version="1.1" viewBox="0.00 0.00 715.00 169.00">
<path fill="#bc0019" d="
  M 349.14 25.57
  A 0.12 0.11 20.1 0 1 349.00 25.63
  A 0.14 0.14 0.0 0 1 348.92 25.44
  Q 351.93 18.44 348.10 13.45
  C 343.43 7.36 330.43 19.63 326.85 22.81
  Q 310.22 37.55 306.32 60.28
  Q 304.27 72.27 304.53 84.96
  A 0.60 0.59 -87.8 0 0 305.05 85.53
  Q 318.53 87.30 330.59 86.08
  Q 334.77 85.66 338.08 83.06
  A 0.03 0.03 0.0 0 1 338.13 83.08
  Q 338.13 83.09 338.13 83.11
  A 0.07 0.07 0.0 0 1 338.11 83.16
  Q 333.79 87.65 330.66 89.89
  Q 325.65 93.47 322.60 95.81
  Q 316.97 100.12 305.54 105.40
  A 0.75 0.74 -13.8 0 0 305.11 106.10
  Q 306.04 127.04 308.79 145.49
  C 309.59 150.88 308.80 156.48 302.72 158.19
  C 295.67 160.17 291.38 151.19 289.78 145.47
  C 286.58 134.03 285.34 122.84 284.04 111.07
  A 0.60 0.60 0.0 0 0 283.35 110.54
  Q 274.34 112.07 270.74 112.45
  C 267.25 112.82 263.37 113.01 260.36 111.17
  C 253.50 106.96 252.90 97.37 260.03 93.04
  Q 262.92 91.28 267.76 90.24
  Q 274.57 88.78 281.68 87.77
  A 0.67 0.66 85.6 0 0 282.25 87.10
  Q 282.16 82.37 282.19 74.01
  Q 282.25 55.84 288.35 39.36
  Q 294.26 23.37 307.73 11.36
  C 317.12 2.99 330.05 -2.55 342.01 2.06
  C 352.34 6.04 353.16 16.60 349.14 25.57
  Z"
/>
<path fill="#bc0019" d="
  M 0.00 105.78
  L 0.00 100.04
  Q 1.03 89.40 3.46 82.21
  C 9.96 62.93 22.14 45.10 39.69 34.44
  Q 57.06 23.89 77.42 27.43
  A 0.04 0.04 0.0 0 0 77.45 27.35
  Q 67.09 20.31 55.11 16.11
  Q 44.62 12.42 36.24 20.50
  A 0.09 0.07 72.7 0 1 36.12 20.42
  Q 36.11 20.40 36.11 20.39
  A 0.07 0.07 0.0 0 1 36.13 20.34
  Q 43.36 11.83 53.96 8.07
  A 4.84 4.67 32.0 0 1 55.18 7.81
  C 59.82 7.41 64.81 6.39 69.46 6.57
  Q 87.19 7.26 103.11 17.18
  Q 120.16 27.79 135.72 44.25
  C 148.38 57.64 159.16 73.85 162.72 92.03
  C 165.85 108.02 161.95 123.76 151.22 135.79
  C 138.17 150.45 116.92 159.03 97.43 161.93
  Q 69.43 166.09 44.26 158.48
  Q 33.43 155.20 23.54 148.18
  Q 1.72 132.70 0.00 105.78
  Z
  M 95.59 40.40
  Q 92.42 43.97 87.27 44.04
  C 74.20 44.21 62.41 45.65 51.59 53.83
  C 37.87 64.20 25.98 82.07 24.23 99.49
  Q 22.20 119.73 39.64 130.37
  Q 46.02 134.27 52.27 135.94
  Q 82.14 143.96 111.29 133.78
  Q 123.19 129.62 131.47 121.96
  C 147.29 107.33 137.50 84.62 127.13 70.54
  Q 115.05 54.13 96.35 40.32
  A 0.58 0.57 38.6 0 0 95.59 40.40
  Z"
/>
<path fill="#bc0019" d="
  M 414.53 167.40
  A 2.52 2.52 0.0 0 1 410.74 167.87
  Q 407.51 164.94 405.35 160.46
  Q 400.57 150.52 400.49 138.51
  Q 400.15 87.53 398.84 58.58
  C 398.63 53.87 398.29 46.78 397.45 40.21
  Q 396.17 30.23 395.83 22.74
  C 395.71 19.98 396.78 16.26 399.42 14.74
  C 406.54 10.62 411.09 23.20 412.34 27.40
  Q 418.95 49.55 420.68 71.51
  Q 422.71 97.32 422.95 126.62
  Q 423.09 143.58 422.37 147.85
  Q 420.57 158.37 414.53 167.40
  Z"
/>
<path fill="#bc0019" d="
  M 250.16 76.92
  Q 250.18 77.08 247.28 79.52
  Q 237.35 87.89 226.02 93.50
  Q 220.08 96.44 213.61 97.56
  A 0.48 0.46 86.4 0 0 213.22 98.02
  Q 212.78 116.72 216.28 137.01
  Q 216.88 140.49 219.02 150.77
  C 219.37 152.49 219.33 154.39 219.35 156.23
  A 3.71 3.67 -37.1 0 1 219.20 157.27
  Q 217.72 162.24 212.94 163.10
  C 201.84 165.11 195.97 135.00 194.73 127.25
  Q 192.47 113.15 192.69 100.43
  A 0.56 0.56 0.0 0 0 192.12 99.86
  Q 183.11 100.16 181.32 99.91
  C 170.04 98.36 168.96 84.05 179.98 80.72
  Q 186.45 78.77 193.66 77.98
  A 1.11 1.10 -88.2 0 0 194.63 77.06
  C 197.66 59.74 205.95 42.42 218.98 30.50
  C 227.84 22.39 238.93 17.19 250.77 21.69
  C 258.51 24.63 265.23 32.66 262.65 41.39
  A 0.12 0.12 0.0 0 1 262.42 41.35
  Q 262.94 34.77 256.49 33.06
  C 250.91 31.58 241.55 37.48 237.01 40.93
  C 226.44 48.96 219.37 61.92 216.14 74.74
  A 0.46 0.46 0.0 0 0 216.55 75.31
  Q 223.62 75.81 225.29 76.14
  Q 234.24 77.93 245.50 77.89
  Q 248.68 77.88 249.70 76.77
  A 0.27 0.26 62.8 0 1 250.16 76.92
  Z"
/>
<path fill="#bc0019" d="
  M 477.37 30.85
  C 484.65 28.29 493.73 31.57 499.13 36.56
  C 507.78 44.55 508.45 57.50 499.03 65.24
  Q 492.64 70.50 483.58 68.54
  C 473.38 66.34 463.56 57.36 462.79 46.26
  A 4.49 3.85 51.9 0 1 462.83 45.34
  Q 463.15 43.50 463.35 42.21
  C 464.11 37.48 469.78 30.55 475.21 32.04
  A 1.63 1.62 22.1 0 1 476.21 34.38
  L 472.86 40.52
  A 1.50 1.37 66.4 0 0 472.69 41.02
  Q 471.90 46.16 473.19 48.36
  Q 477.58 55.82 485.60 55.61
  Q 491.68 55.45 490.10 49.70
  Q 487.45 40.09 481.77 33.57
  Q 480.40 31.99 477.39 31.24
  A 0.21 0.20 42.4 0 1 477.37 30.85
  Z"
/>
<path fill="#bc0019" d="
  M 261.97 43.11
  Q 262.02 42.99 262.08 42.88
  A 0.06 0.05 -31.2 0 1 262.18 42.90
  Q 262.17 43.05 262.12 43.18
  A 0.08 0.08 0.0 0 1 261.97 43.11
  Z"
/>
<path fill="#bc0019" d="
  M 702.72 159.94
  Q 688.07 166.07 677.35 166.95
  Q 666.26 167.85 655.99 166.00
  C 648.81 164.70 641.00 162.00 635.01 157.40
  Q 622.28 147.60 615.86 134.20
  C 608.79 119.43 608.39 101.19 619.01 87.87
  Q 629.55 74.66 645.48 71.84
  C 658.36 69.57 670.50 75.35 675.11 87.80
  C 677.98 95.56 674.43 104.30 668.38 109.62
  C 659.42 117.50 648.63 120.97 636.96 121.91
  A 0.29 0.29 0.0 0 0 636.72 122.31
  Q 640.02 130.41 646.79 136.20
  Q 654.58 142.85 663.61 149.63
  Q 675.47 158.53 689.53 160.86
  Q 694.69 161.71 702.57 159.51
  A 0.23 0.23 0.0 0 1 702.72 159.94
  Z
  M 635.52 111.06
  C 645.64 108.64 656.90 104.94 664.34 99.28
  Q 667.11 97.18 668.02 93.07
  C 669.17 87.90 663.27 86.26 659.57 87.03
  C 648.75 89.26 635.41 98.27 634.88 110.54
  A 0.52 0.51 -5.6 0 0 635.52 111.06
  Z"
/>
<path fill="#bc0019" d="
  M 539.12 88.41
  Q 542.99 80.57 546.59 76.80
  Q 550.51 72.71 556.07 73.68
  C 566.55 75.51 574.16 92.16 578.02 100.97
  Q 582.97 112.25 586.60 122.59
  Q 590.42 133.48 590.40 146.23
  Q 590.40 149.01 591.79 149.72
  A 0.33 0.33 0.0 0 1 591.78 150.31
  C 587.95 152.00 581.18 147.55 578.20 145.07
  C 569.79 138.06 565.76 130.31 561.73 119.53
  C 558.80 111.68 555.83 102.51 552.56 94.24
  Q 550.22 88.32 548.90 83.72
  A 0.22 0.21 -38.6 0 0 548.50 83.68
  Q 543.62 92.32 541.45 102.01
  C 540.79 105.00 540.82 107.52 540.22 110.35
  Q 539.90 111.84 539.82 113.68
  Q 539.21 128.87 538.63 142.94
  Q 538.27 151.89 530.14 154.28
  C 523.33 156.28 516.63 150.20 516.76 143.22
  A 4.25 3.99 55.3 0 1 516.92 142.15
  C 521.61 125.76 523.72 109.38 526.09 90.97
  Q 526.27 89.58 527.87 86.78
  C 529.83 83.34 532.99 81.96 536.26 84.62
  Q 537.35 85.51 538.56 88.39
  A 0.31 0.31 0.0 0 0 539.12 88.41
  Z"
/>
<path fill="#bc0019" d="
  M 478.58 149.33
  C 476.89 152.33 473.70 154.76 470.65 151.63
  C 464.21 145.03 462.62 135.33 463.25 126.49
  Q 464.88 103.51 466.31 97.03
  C 467.12 93.34 470.07 88.43 474.43 89.35
  C 478.18 90.13 480.21 95.29 480.48 98.81
  Q 481.71 114.93 482.19 133.98
  Q 482.41 142.49 478.58 149.33
  Z"
/>
<path fill="#bc0019" d="
  M 706.09 158.38
  Q 705.88 158.48 705.59 158.30
  Q 705.84 158.03 705.96 158.00
  A 0.20 0.20 0.0 0 1 706.09 158.38
  Z"
/>
</svg>
