<?xml version="1.0" encoding="UTF-8" standalone="no"?>
<!DOCTYPE svg PUBLIC "-//W3C//DTD SVG 1.1//EN" "http://www.w3.org/Graphics/SVG/1.1/DTD/svg11.dtd">
<svg xmlns="http://www.w3.org/2000/svg" version="1.1" viewBox="0.00 0.00 649.00 189.00">
<path fill="#bc0019" d="
  M 191.24 29.07
  Q 192.02 21.99 190.07 17.25
  Q 189.57 16.05 187.80 14.21
  C 179.16 5.26 169.65 18.04 165.13 24.14
  Q 149.23 45.58 146.09 72.29
  A 0.46 0.46 0.0 0 0 146.58 72.81
  C 156.59 71.99 166.31 74.53 176.54 77.50
  Q 180.16 78.55 183.19 80.69
  A 0.40 0.40 0.0 0 1 183.14 81.38
  C 178.87 83.50 175.20 86.33 171.30 88.57
  C 161.89 93.99 156.01 97.22 146.87 99.36
  A 0.83 0.83 0.0 0 0 146.23 100.28
  Q 148.48 117.50 154.21 135.30
  C 156.80 143.34 160.49 153.19 163.11 163.49
  C 164.06 167.19 165.11 170.27 163.32 174.08
  C 161.01 179.02 155.37 173.99 153.48 171.29
  Q 135.62 145.86 128.18 116.53
  Q 126.69 110.63 125.87 103.97
  A 0.47 0.46 -8.3 0 0 125.33 103.57
  Q 119.95 104.47 111.70 105.67
  Q 105.39 106.59 100.55 102.98
  C 96.27 99.79 94.28 93.58 96.43 88.29
  Q 98.88 82.27 104.93 80.40
  Q 113.57 77.74 123.55 76.22
  A 1.13 1.13 0.0 0 0 124.51 75.16
  Q 126.13 47.58 139.70 24.24
  C 145.79 13.77 155.42 3.36 167.77 1.22
  C 177.07 -0.39 185.87 3.32 190.10 11.95
  Q 194.05 20.03 191.67 29.15
  A 0.22 0.22 0.0 0 1 191.24 29.07
  Z"
/>
<path fill="#bc0019" d="
  M 284.16 49.69
  C 277.35 38.77 264.28 34.55 251.89 35.82
  Q 245.15 36.51 240.83 39.25
  C 233.99 43.60 230.02 51.89 227.95 59.48
  Q 223.00 77.60 225.72 96.71
  A 0.59 0.58 -3.4 0 0 226.29 97.21
  Q 240.09 97.27 250.49 96.57
  C 253.38 96.37 255.40 96.76 258.18 95.36
  A 0.15 0.15 0.0 0 1 258.34 95.61
  Q 252.88 100.39 249.15 103.16
  Q 247.95 104.05 246.77 104.98
  Q 238.67 111.40 229.14 116.43
  A 0.61 0.61 0.0 0 0 228.83 117.10
  C 232.75 134.57 238.65 150.03 245.42 168.36
  C 246.62 171.63 248.42 178.33 246.87 181.84
  C 243.65 189.12 234.29 190.29 229.79 183.38
  C 229.04 182.23 227.95 180.98 227.30 179.69
  Q 213.93 152.78 206.25 125.32
  A 0.62 0.62 0.0 0 0 205.53 124.89
  Q 197.66 126.58 191.15 127.60
  C 184.93 128.57 176.84 129.34 172.37 125.51
  C 166.46 120.46 167.44 111.76 174.25 108.01
  C 176.06 107.02 179.36 105.70 181.88 105.15
  Q 191.20 103.09 201.22 101.12
  A 0.48 0.47 -9.7 0 0 201.60 100.59
  C 199.07 80.39 199.87 61.76 207.65 43.66
  Q 212.17 33.14 220.11 26.13
  Q 224.62 22.15 231.08 19.92
  C 239.07 17.16 248.73 19.23 256.31 22.48
  Q 275.50 30.70 284.51 49.58
  A 0.14 0.14 0.0 0 1 284.45 49.76
  A 0.22 0.22 0.0 0 1 284.16 49.69
  Z"
/>
<path fill="#bc0019" d="
  M 284.99 50.51
  L 285.19 50.16
  A 0.13 0.04 -61.8 0 0 285.20 50.11
  Q 284.79 44.12 284.56 38.25
  C 284.39 33.89 285.34 27.88 288.99 25.00
  C 293.49 21.45 298.92 21.88 302.77 25.96
  C 306.55 29.97 307.56 37.44 308.48 44.24
  C 312.92 77.06 315.49 98.26 320.70 123.01
  Q 324.07 138.98 324.41 141.31
  Q 325.73 150.09 325.16 154.98
  Q 324.64 159.50 324.20 165.89
  C 323.92 170.05 318.74 168.58 316.48 167.26
  C 302.14 158.83 297.79 143.98 294.07 127.22
  C 288.76 103.27 287.25 80.62 285.50 54.02
  Q 285.43 53.04 284.93 50.96
  A 0.62 0.60 53.5 0 1 284.99 50.51
  Z"
/>
<path fill="#bc0019" d="
  M 380.81 31.65
  C 388.56 35.23 399.67 47.03 391.44 55.95
  C 383.57 64.50 364.15 63.39 357.57 53.59
  C 350.97 43.75 365.88 32.76 374.82 35.68
  A 0.94 0.93 83.8 0 1 375.34 36.10
  L 375.89 37.05
  A 1.66 1.66 0.0 0 1 374.85 39.49
  C 369.80 40.76 365.41 41.67 362.94 46.58
  C 361.12 50.19 366.36 52.98 369.16 53.87
  C 375.86 56.00 388.91 55.70 388.04 45.52
  Q 387.30 36.87 380.60 32.00
  A 0.21 0.20 -14.3 0 1 380.81 31.65
  Z"
/>
<path fill="#bc0019" d="
  M 641.76 122.56
  C 633.53 127.24 625.55 130.27 616.47 133.12
  Q 611.12 134.80 606.94 135.39
  C 582.50 138.82 557.14 133.32 540.94 114.60
  C 534.44 107.08 530.56 96.55 532.32 86.46
  C 536.07 64.98 560.69 57.62 579.51 58.33
  C 589.84 58.71 601.32 61.35 609.71 67.45
  Q 617.99 73.48 617.28 82.90
  A 5.33 5.08 57.6 0 1 617.06 84.01
  Q 614.41 92.36 608.07 97.88
  Q 597.40 107.20 581.50 113.73
  A 0.29 0.29 0.0 0 0 581.49 114.27
  Q 594.07 119.82 607.37 123.39
  C 611.63 124.54 616.29 125.00 621.01 125.57
  Q 629.46 126.59 637.28 124.30
  A 7.23 7.20 19.2 0 0 639.34 123.31
  Q 640.73 122.34 641.53 122.06
  A 0.28 0.28 0.0 0 1 641.76 122.56
  Z
  M 599.07 79.51
  Q 596.69 78.17 593.89 77.39
  Q 577.98 72.93 563.42 78.92
  Q 558.56 80.92 556.33 83.85
  C 551.73 89.89 556.36 97.73 561.51 102.23
  A 1.16 1.14 -35.9 0 0 562.74 102.42
  Q 577.74 95.62 589.66 87.92
  Q 595.00 84.48 599.18 80.29
  A 0.50 0.49 37.1 0 0 599.07 79.51
  Z"
/>
<path fill="#bc0019" d="
  M 442.83 93.64
  Q 444.31 88.78 445.71 85.23
  Q 449.64 75.32 456.26 68.82
  C 461.45 63.73 467.82 65.04 473.23 68.80
  C 488.49 79.45 499.38 98.41 505.51 115.97
  C 507.99 123.05 509.78 136.12 505.19 142.74
  Q 503.53 145.13 500.89 142.81
  Q 489.75 133.04 485.59 121.17
  Q 481.03 108.14 477.06 96.65
  C 473.78 87.14 470.25 78.42 465.03 71.09
  C 462.36 67.34 458.55 70.72 456.45 73.22
  C 449.80 81.15 446.31 91.83 445.01 102.26
  Q 444.54 106.08 445.03 111.25
  Q 445.93 120.48 448.34 136.68
  Q 448.99 141.06 448.02 142.68
  C 443.99 149.38 435.73 145.60 435.82 138.77
  Q 436.11 116.55 435.58 110.62
  Q 434.45 97.94 433.83 85.58
  C 433.72 83.45 434.59 80.20 437.55 80.46
  A 1.55 1.53 68.0 0 1 438.46 80.85
  C 441.37 83.47 441.63 88.30 442.44 93.61
  A 0.20 0.20 0.0 0 0 442.83 93.64
  Z"
/>
<path fill="#bc0019" d="
  M 367.46 99.48
  C 368.21 93.67 370.13 88.74 375.82 86.66
  Q 381.31 84.64 385.88 88.62
  C 389.29 91.59 389.88 94.34 390.47 99.09
  Q 390.80 101.73 390.95 105.46
  Q 391.63 123.33 394.62 141.12
  C 395.77 147.97 394.74 155.76 390.11 161.37
  Q 387.10 165.01 382.17 162.77
  C 372.46 158.35 368.98 148.25 367.60 138.40
  Q 364.93 119.17 367.46 99.48
  Z"
/>
<path fill="#bc0019" d="
  M 36.88 165.58
  C 9.41 162.72 -8.73 137.95 4.81 111.51
  Q 12.36 96.77 28.20 89.57
  Q 34.15 86.87 39.34 87.28
  Q 58.99 88.84 74.33 100.64
  C 85.54 109.26 95.14 121.54 91.15 136.25
  Q 88.50 145.98 79.91 153.03
  Q 61.48 168.14 36.88 165.58
  Z
  M 45.25 102.01
  C 35.08 106.43 24.40 115.33 22.92 126.55
  C 21.86 134.58 27.06 139.52 34.13 141.37
  Q 49.05 145.27 62.94 138.69
  C 68.19 136.20 76.14 130.64 72.37 124.12
  Q 69.03 118.35 62.44 113.59
  Q 53.23 106.96 45.81 102.06
  A 0.59 0.57 -38.8 0 0 45.25 102.01
  Z"
/>
</svg>
