<?xml version="1.0" encoding="UTF-8" standalone="no"?>
<!DOCTYPE svg PUBLIC "-//W3C//DTD SVG 1.1//EN" "http://www.w3.org/Graphics/SVG/1.1/DTD/svg11.dtd">
<svg xmlns="http://www.w3.org/2000/svg" version="1.1" viewBox="0.00 0.00 718.00 182.00">
<path fill="#bc0019" d="
  M 298.48 0.00
  C 311.29 0.59 322.79 8.30 325.68 20.96
  C 329.14 36.09 321.67 52.87 311.41 63.90
  A 0.02 0.02 0.0 0 1 311.38 63.91
  L 311.37 63.91
  Q 315.18 59.06 317.71 54.74
  C 321.16 48.87 323.46 41.23 323.11 34.11
  C 322.70 25.90 318.30 17.80 309.04 18.79
  Q 303.65 19.36 296.22 24.85
  Q 281.11 36.00 277.17 54.66
  Q 273.08 74.07 275.97 96.86
  A 0.54 0.54 0.0 0 0 276.61 97.32
  C 289.17 94.89 299.86 94.62 313.63 94.13
  Q 314.18 94.11 322.24 93.58
  Q 323.78 93.48 330.85 93.13
  Q 336.94 92.83 344.16 90.12
  L 344.16 90.13
  Q 334.08 94.60 324.25 100.22
  Q 314.73 105.67 311.14 107.50
  C 301.27 112.53 291.13 117.69 280.31 120.85
  A 0.39 0.39 0.0 0 0 280.05 121.31
  Q 284.58 139.81 293.07 157.57
  Q 295.15 161.94 293.22 166.71
  C 289.94 174.81 280.50 177.12 273.87 171.11
  C 272.08 169.48 269.52 165.52 268.40 163.32
  Q 259.86 146.62 255.15 127.47
  A 0.99 0.99 0.0 0 0 253.99 126.74
  Q 246.55 128.24 239.48 127.95
  Q 235.93 127.81 232.87 125.15
  C 227.27 120.27 229.45 112.97 235.13 109.64
  Q 238.46 107.69 249.97 104.21
  A 0.64 0.62 -12.4 0 0 250.41 103.54
  C 246.56 71.89 246.37 34.16 272.52 10.76
  Q 275.98 7.66 281.55 4.55
  Q 289.21 0.27 298.14 0.00
  Q 298.31 0.00 298.48 0.00
  Z"
/>
<path fill="#bc0019" d="
  M 225.20 51.90
  Q 225.59 51.39 228.89 48.43
  C 235.04 42.92 239.07 31.14 233.68 24.06
  C 229.02 17.95 220.21 19.17 213.81 21.85
  C 191.20 31.32 180.03 50.41 174.99 73.80
  A 0.47 0.47 0.0 0 0 175.37 74.36
  Q 193.82 77.33 206.75 77.86
  Q 213.16 78.13 214.26 77.23
  Q 214.30 77.19 214.53 77.19
  A 0.21 0.16 -43.8 0 1 214.47 77.56
  Q 208.13 79.08 193.26 85.98
  Q 189.37 87.78 171.51 94.52
  A 1.27 1.25 -5.9 0 0 170.72 95.48
  Q 165.70 125.25 166.38 145.75
  Q 166.83 159.40 168.08 174.99
  Q 168.23 176.82 167.33 178.71
  A 2.40 2.34 -59.9 0 1 163.84 179.68
  Q 162.43 178.70 161.70 176.57
  Q 159.71 170.74 158.09 158.91
  C 156.07 144.14 153.61 129.26 151.84 115.66
  C 151.15 110.36 150.78 103.63 150.41 99.42
  A 0.61 0.61 0.0 0 0 149.73 98.86
  Q 136.46 100.36 120.48 100.07
  Q 116.22 100.00 112.79 98.45
  C 105.82 95.32 102.60 88.35 108.94 82.16
  Q 112.71 78.48 120.32 77.34
  Q 134.38 75.23 150.52 73.98
  A 0.64 0.63 1.7 0 0 151.10 73.44
  Q 151.90 67.77 153.00 62.24
  C 157.85 37.79 173.88 11.00 199.39 3.65
  C 211.00 0.31 225.93 2.57 233.95 12.54
  C 244.87 26.13 237.84 42.53 225.42 52.12
  A 0.16 0.16 0.0 0 1 225.20 51.90
  Z"
/>
<path fill="#bc0019" d="
  M 404.72 178.23
  C 403.49 180.19 401.25 182.16 398.92 180.83
  Q 389.16 175.28 384.74 165.04
  C 382.35 159.50 380.57 150.72 379.73 143.49
  Q 376.64 116.79 378.87 89.37
  Q 379.67 79.43 383.88 56.70
  Q 389.67 25.51 389.94 24.19
  Q 390.86 19.81 393.51 16.89
  A 1.97 1.97 0.0 0 1 396.39 16.85
  Q 397.63 18.12 398.09 20.65
  C 399.66 29.44 399.47 36.26 399.75 47.25
  Q 400.00 57.12 400.94 65.14
  C 401.66 71.30 402.79 81.30 403.17 88.97
  Q 404.22 110.02 404.48 114.46
  C 405.39 129.73 406.91 141.19 409.13 155.32
  Q 411.12 168.00 404.72 178.23
  Z"
/>
<path fill="#bc0019" d="
  M 456.94 24.99
  Q 462.07 22.49 470.26 24.55
  Q 486.08 28.53 491.47 42.94
  C 493.38 48.03 493.76 54.22 491.05 59.02
  C 484.70 70.25 467.97 67.11 460.94 58.52
  C 454.05 50.11 458.38 40.70 464.17 33.41
  Q 466.19 30.86 468.57 29.76
  A 0.40 0.40 0.0 0 0 468.64 29.08
  Q 463.96 25.58 459.53 25.14
  Q 459.49 25.13 457.07 25.43
  A 0.23 0.23 0.0 0 1 456.94 24.99
  Z
  M 471.63 32.19
  Q 469.93 35.42 467.74 39.22
  C 465.65 42.87 463.33 48.74 465.93 52.20
  Q 470.17 57.86 478.28 57.98
  C 486.81 58.11 484.76 48.31 482.21 43.79
  Q 479.44 38.89 472.32 32.08
  A 0.44 0.44 0.0 0 0 471.63 32.19
  Z"
/>
<path fill="#bc0019" d="
  M 33.96 61.99
  A 0.10 0.10 0.0 0 1 34.01 61.81
  L 44.28 61.81
  A 4.30 4.23 31.4 0 0 46.17 61.37
  Q 57.66 55.77 70.48 55.10
  C 78.83 54.66 89.55 58.33 93.32 65.93
  C 97.94 75.27 102.26 83.51 104.51 93.54
  A 0.33 0.33 0.0 0 1 103.89 93.77
  C 100.31 86.93 96.96 80.22 91.68 75.36
  A 4.32 4.32 0.0 0 0 87.99 74.29
  L 83.35 75.13
  A 0.74 0.74 0.0 0 0 83.05 76.46
  Q 93.92 84.28 100.74 95.93
  C 112.12 115.36 111.71 138.57 96.96 155.93
  Q 86.83 167.85 71.43 172.70
  C 37.81 183.28 -1.20 165.18 0.89 125.46
  C 2.18 100.91 18.54 78.18 38.78 65.33
  A 0.33 0.33 0.0 0 0 38.76 64.76
  L 33.96 61.99
  Z
  M 59.26 84.88
  A 0.86 0.86 0.0 0 0 58.18 84.73
  Q 43.01 94.09 34.89 109.87
  C 29.49 120.36 25.51 137.17 38.32 143.66
  C 47.79 148.46 60.46 147.10 69.69 142.94
  C 75.94 140.13 81.53 134.60 82.75 128.11
  C 86.30 109.34 69.85 96.49 59.26 84.88
  Z"
/>
<path fill="#bc0019" d="
  M 578.97 151.07
  Q 579.46 150.76 579.17 149.27
  C 578.67 146.77 577.95 143.91 576.51 141.46
  Q 572.96 135.39 571.26 127.61
  C 567.98 112.57 560.93 98.69 551.52 86.68
  A 0.44 0.44 0.0 0 0 550.79 86.73
  C 543.56 99.78 541.60 113.76 542.02 128.75
  Q 542.20 134.83 542.95 151.71
  Q 543.22 157.64 542.16 160.16
  C 538.60 168.66 528.06 171.64 521.01 165.22
  C 516.41 161.03 516.15 156.80 516.74 150.17
  Q 517.60 140.63 518.55 128.76
  C 520.01 110.63 524.62 92.69 534.49 77.25
  C 538.22 71.40 543.74 65.74 550.80 65.16
  C 559.20 64.48 567.77 70.01 573.55 76.21
  Q 587.60 91.28 594.38 110.88
  C 596.22 116.21 597.43 123.06 596.92 129.26
  C 596.34 136.23 591.69 143.13 586.80 148.04
  Q 583.39 151.46 579.38 152.16
  A 0.59 0.59 0.0 0 1 578.97 151.07
  Z"
/>
<ellipse fill="#bc0019" cx="0.00" cy="0.00" transform="translate(215.50,77.14) rotate(-2.3)" rx="0.41" ry="0.07"/>
<path fill="#bc0019" d="
  M 712.25 147.95
  Q 700.73 156.43 690.38 159.37
  Q 676.65 163.27 662.96 163.70
  Q 650.17 164.10 638.04 158.01
  C 617.05 147.47 598.22 126.46 603.45 101.21
  C 605.01 93.67 609.71 85.83 616.29 81.64
  C 628.83 73.66 642.92 77.00 653.79 85.97
  Q 656.99 88.60 659.06 92.21
  C 665.68 103.74 643.72 112.54 636.06 114.36
  C 634.52 114.72 631.29 113.21 632.42 110.89
  Q 633.24 109.21 634.33 108.78
  C 641.18 106.08 648.01 103.57 652.83 98.64
  A 2.76 2.46 -38.6 0 0 653.36 95.55
  Q 652.73 94.45 650.97 93.86
  C 645.85 92.14 638.50 94.07 634.24 97.23
  Q 628.20 101.69 630.97 110.81
  C 634.82 123.54 645.31 129.78 656.40 134.78
  C 666.20 139.20 676.38 145.47 683.31 147.93
  C 690.60 150.51 703.45 153.70 710.22 148.87
  Q 711.55 147.92 712.14 147.74
  A 0.12 0.12 0.0 0 1 712.25 147.95
  Z"
/>
<path fill="#bc0019" d="
  M 462.06 165.83
  Q 456.99 160.33 455.20 154.77
  Q 453.79 150.39 454.12 141.59
  Q 454.85 122.13 459.47 101.96
  C 460.51 97.38 462.98 91.03 467.53 89.02
  C 472.22 86.96 477.30 89.50 479.16 94.07
  Q 480.58 97.57 480.78 102.76
  C 481.00 108.72 480.04 117.87 479.91 123.44
  Q 479.59 136.56 479.27 144.99
  C 478.93 153.72 475.89 161.20 467.97 165.44
  Q 465.73 166.64 463.04 166.33
  A 1.60 1.54 -17.0 0 1 462.06 165.83
  Z"
/>
</svg>
