<?xml version="1.0" encoding="UTF-8" standalone="no"?>
<!DOCTYPE svg PUBLIC "-//W3C//DTD SVG 1.1//EN" "http://www.w3.org/Graphics/SVG/1.1/DTD/svg11.dtd">
<svg xmlns="http://www.w3.org/2000/svg" version="1.1" viewBox="0.00 0.00 738.00 193.00">
<path fill="#bc0019" d="
  M 200.42 103.58
  Q 198.79 105.78 195.94 107.47
  Q 191.51 110.10 189.22 111.57
  C 183.03 115.55 176.94 117.81 169.75 118.79
  Q 163.67 119.62 158.10 119.97
  A 0.54 0.53 -8.2 0 0 157.61 120.62
  Q 161.04 135.28 167.89 151.86
  Q 168.40 153.11 175.37 169.19
  C 177.06 173.10 178.77 176.68 177.43 179.86
  Q 176.05 183.13 171.90 182.19
  Q 171.48 182.09 169.96 180.78
  Q 169.08 180.03 168.34 179.00
  Q 164.65 173.91 159.90 164.61
  Q 148.51 142.33 142.85 121.28
  A 0.84 0.82 85.3 0 0 142.14 120.67
  C 138.62 120.28 135.59 120.50 132.17 119.28
  C 127.95 117.78 126.02 113.33 128.15 109.35
  C 130.12 105.66 134.21 105.60 138.64 105.17
  A 0.47 0.46 82.0 0 0 139.05 104.62
  C 136.52 91.46 135.65 78.73 137.46 65.76
  C 140.68 42.56 153.44 23.50 173.55 11.33
  Q 187.33 3.00 203.24 1.20
  C 212.83 0.12 221.41 1.13 230.04 4.84
  Q 234.85 6.92 238.06 10.23
  C 254.45 27.18 228.86 52.45 215.73 61.46
  Q 215.54 61.59 215.51 61.60
  A 0.04 0.03 -74.1 0 1 215.48 61.54
  Q 221.59 56.50 223.72 54.50
  Q 232.96 45.81 237.57 34.87
  C 240.75 27.33 239.91 18.13 231.20 15.27
  C 220.44 11.74 208.35 13.41 197.49 17.12
  C 181.66 22.52 167.48 33.50 159.82 48.47
  C 151.13 65.47 151.51 85.60 154.34 104.01
  A 0.45 0.44 84.3 0 0 154.80 104.39
  Q 161.11 104.08 169.76 103.21
  C 172.67 102.91 177.54 103.01 181.73 103.65
  C 184.49 104.08 197.93 106.25 200.38 103.55
  A 0.03 0.02 -6.9 0 1 200.42 103.58
  Z"
/>
<path fill="#bc0019" d="
  M 459.30 38.50
  A 0.17 0.17 0.0 0 1 459.14 38.67
  L 459.13 38.67
  A 0.11 0.11 0.0 0 1 459.02 38.56
  Q 458.84 33.89 457.55 29.98
  Q 456.81 27.76 454.92 26.05
  A 0.50 0.49 -47.9 0 0 454.23 26.09
  C 449.64 31.07 446.47 41.12 455.13 44.09
  Q 460.53 45.94 467.28 43.32
  Q 476.09 39.90 475.31 30.45
  Q 474.55 21.24 469.53 15.29
  Q 466.76 12.01 461.68 11.90
  A 0.05 0.04 24.2 0 1 461.64 11.83
  Q 461.67 11.81 461.69 11.80
  A 0.33 0.29 21.7 0 1 461.80 11.76
  C 470.56 10.93 478.06 16.77 482.45 23.74
  Q 492.06 39.01 479.78 51.09
  C 468.47 62.20 445.50 62.13 437.99 46.44
  C 433.66 37.37 436.65 24.18 445.99 19.26
  Q 449.91 17.20 453.94 18.63
  A 2.73 2.63 -11.3 0 1 454.96 19.28
  Q 458.45 22.79 458.88 28.45
  Q 459.21 32.74 459.30 38.50
  Z"
/>
<path fill="#bc0019" d="
  M 346.44 56.93
  A 0.11 0.10 32.3 0 0 346.48 57.09
  L 346.49 57.09
  A 0.07 0.07 0.0 0 0 346.58 57.06
  C 352.88 44.94 349.45 30.84 335.12 27.13
  Q 332.33 26.41 327.38 26.63
  C 316.74 27.09 307.21 33.77 301.52 42.58
  Q 296.01 51.11 293.53 62.06
  C 290.19 76.81 289.99 93.26 291.98 107.71
  A 0.54 0.54 0.0 0 0 292.55 108.18
  Q 308.24 107.17 332.61 106.21
  Q 336.17 106.07 338.66 104.71
  A 0.02 0.02 0.0 0 1 338.68 104.75
  Q 337.47 105.75 334.38 107.37
  Q 326.23 111.65 317.73 115.35
  Q 316.29 115.97 314.84 116.54
  Q 304.46 120.62 294.77 122.88
  A 0.55 0.55 0.0 0 0 294.35 123.52
  C 297.36 139.79 301.36 153.53 306.69 173.03
  Q 308.74 180.53 309.01 184.25
  Q 309.22 187.21 306.70 189.95
  Q 303.59 193.35 299.07 191.17
  C 294.52 188.98 293.30 182.05 291.88 177.81
  Q 282.92 151.00 277.58 126.29
  A 0.69 0.69 0.0 0 0 276.82 125.75
  C 266.50 127.02 255.31 128.28 244.66 127.82
  Q 239.47 127.60 236.88 124.06
  A 3.11 3.05 -69.9 0 1 236.39 122.98
  C 234.79 115.75 242.42 114.07 247.95 113.46
  Q 260.16 112.11 274.49 110.47
  A 0.67 0.67 0.0 0 0 275.09 109.72
  C 272.29 87.35 273.21 64.66 281.68 43.92
  Q 282.99 40.69 286.47 35.22
  C 296.80 18.97 313.71 10.01 332.83 17.37
  C 341.81 20.82 349.23 28.69 350.54 38.42
  Q 351.93 48.73 346.44 56.93
  Z"
/>
<path fill="#bc0019" d="
  M 399.72 191.86
  Q 390.46 177.55 388.16 161.04
  C 383.09 124.60 380.38 87.66 379.16 50.00
  Q 378.97 44.39 379.13 39.72
  C 379.25 36.42 380.84 28.92 385.62 29.58
  C 389.73 30.14 391.81 33.65 392.44 37.54
  Q 393.40 43.44 393.73 47.75
  Q 397.70 99.33 404.38 153.43
  C 405.50 162.53 406.56 173.26 404.46 182.25
  Q 404.16 183.52 402.18 191.45
  A 1.36 1.36 0.0 0 1 399.72 191.86
  Z"
/>
<path fill="#bc0019" d="
  M 214.91 62.04
  Q 214.67 62.25 214.41 62.14
  Q 214.48 62.02 214.77 61.84
  A 0.12 0.12 0.0 0 1 214.91 62.04
  Z"
/>
<path fill="#bc0019" d="
  M 50.68 77.46
  L 41.84 68.63
  A 0.26 0.26 0.0 0 1 42.05 68.19
  C 49.95 69.03 56.61 71.46 65.37 74.23
  Q 72.98 76.63 78.00 79.35
  C 98.22 90.33 117.38 111.05 112.50 135.77
  C 108.15 157.77 87.75 174.55 67.36 181.89
  Q 54.27 186.59 41.00 186.73
  Q 35.11 186.80 27.49 185.01
  Q 17.00 182.54 9.83 175.17
  Q 1.85 166.96 0.92 154.72
  C -0.53 135.82 8.56 115.92 19.96 100.95
  C 27.25 91.38 38.74 80.94 50.54 77.96
  A 0.30 0.30 0.0 0 0 50.68 77.46
  Z
  M 63.75 90.13
  Q 54.86 92.51 47.54 98.78
  Q 29.76 114.03 22.02 137.00
  Q 19.37 144.87 19.81 152.85
  C 20.26 161.09 24.92 164.90 32.54 166.75
  Q 37.61 167.99 42.23 167.74
  Q 64.82 166.51 81.56 152.30
  C 91.91 143.52 99.12 130.35 92.54 117.68
  Q 88.24 109.39 81.29 103.69
  Q 75.23 98.72 64.18 90.22
  A 0.50 0.49 -32.4 0 0 63.75 90.13
  Z"
/>
<path fill="#bc0019" d="
  M 727.39 158.58
  Q 725.58 160.67 716.14 165.59
  Q 711.50 168.01 709.79 168.69
  Q 703.12 171.35 703.08 171.37
  A 10.18 9.83 -59.2 0 1 701.28 171.86
  C 696.79 172.65 693.15 174.16 688.65 174.89
  Q 674.61 177.18 661.95 175.61
  C 650.62 174.21 638.48 168.88 629.32 162.74
  C 617.41 154.74 608.17 143.29 605.59 128.96
  Q 602.68 112.77 612.40 98.87
  C 623.42 83.10 643.60 73.51 662.96 76.56
  C 672.96 78.13 681.88 84.76 684.33 94.86
  C 686.72 104.75 679.99 114.88 672.27 121.13
  Q 658.44 132.32 640.54 137.78
  Q 636.88 138.90 633.38 137.99
  C 629.69 137.02 629.45 133.66 631.76 131.12
  A 2.38 2.31 -82.8 0 1 632.41 130.60
  C 634.28 129.55 636.30 128.24 637.89 127.54
  Q 651.02 121.81 661.73 113.98
  C 665.85 110.98 672.02 105.28 672.45 100.00
  C 672.99 93.36 666.68 90.55 660.99 90.27
  C 645.40 89.48 627.75 100.40 624.44 116.50
  C 620.86 133.93 635.86 146.85 650.32 152.69
  C 661.39 157.16 674.66 161.37 687.66 163.98
  C 691.51 164.75 694.77 164.37 698.43 164.88
  C 702.31 165.41 706.50 164.65 710.47 164.40
  Q 714.06 164.18 715.30 163.64
  Q 722.43 160.53 726.70 157.78
  A 0.53 0.53 0.0 0 1 727.39 158.58
  Z"
/>
<path fill="#bc0019" d="
  M 525.06 89.75
  Q 527.61 84.64 532.17 80.47
  C 536.79 76.24 542.40 74.88 548.14 77.59
  C 551.56 79.21 555.93 82.93 558.39 86.10
  Q 565.69 95.49 570.26 105.49
  Q 577.61 121.58 581.72 136.52
  Q 583.28 142.16 584.01 149.39
  C 584.48 154.12 583.37 160.74 584.16 165.76
  A 1.20 1.20 0.0 0 1 582.08 166.75
  Q 572.58 156.17 567.33 140.69
  Q 559.62 117.95 555.07 107.65
  Q 552.02 100.76 547.19 93.56
  Q 545.12 90.47 542.45 88.60
  A 1.24 1.23 -45.2 0 0 541.01 88.61
  Q 538.90 90.18 537.32 92.59
  C 532.01 100.68 529.46 110.39 528.27 119.51
  Q 527.24 127.44 524.76 152.48
  C 523.98 160.42 513.05 161.94 511.11 153.87
  Q 510.71 152.20 511.51 147.63
  Q 513.23 137.84 515.45 120.50
  C 516.52 112.23 519.47 104.29 520.49 96.00
  Q 521.40 88.49 523.37 78.61
  A 1.56 1.55 -81.0 0 1 525.08 77.36
  L 525.58 77.42
  A 0.77 0.77 0.0 0 1 526.25 78.27
  L 524.88 89.69
  A 0.10 0.10 0.0 0 0 525.06 89.75
  Z"
/>
<path fill="#bc0019" d="
  M 462.39 170.76
  A 1.39 1.39 0.0 0 1 460.22 170.97
  C 456.40 167.02 454.32 160.11 453.59 154.75
  Q 450.31 130.62 454.46 104.19
  Q 455.76 95.90 458.40 87.88
  C 459.25 85.29 461.46 82.07 464.57 82.61
  A 1.81 1.69 68.6 0 1 465.43 83.02
  C 467.92 85.15 466.79 92.77 466.30 96.24
  Q 464.14 111.33 465.21 127.50
  Q 466.18 142.14 466.80 148.75
  C 467.52 156.26 466.69 164.07 462.39 170.76
  Z"
/>
</svg>
