<?xml version="1.0" encoding="UTF-8" standalone="no"?>
<!DOCTYPE svg PUBLIC "-//W3C//DTD SVG 1.1//EN" "http://www.w3.org/Graphics/SVG/1.1/DTD/svg11.dtd">
<svg xmlns="http://www.w3.org/2000/svg" version="1.1" viewBox="0.00 0.00 747.00 221.00">
<path fill="#bc0019" d="
  M 380.10 25.01
  Q 378.67 17.70 373.26 13.91
  Q 367.40 9.81 362.73 14.97
  C 346.39 33.04 339.76 54.86 338.66 78.89
  A 0.48 0.48 0.0 0 0 339.17 79.40
  Q 350.60 78.62 362.18 80.44
  Q 365.77 81.01 368.53 81.00
  A 5.99 5.53 47.3 0 1 369.65 81.09
  L 381.07 83.19
  A 0.08 0.08 0.0 0 1 381.09 83.34
  Q 373.93 86.88 367.85 91.33
  Q 365.67 92.92 354.62 98.84
  Q 346.74 103.06 338.71 105.22
  A 1.19 1.18 81.9 0 0 337.84 106.39
  Q 338.65 133.30 340.38 158.49
  Q 340.69 162.96 339.20 166.15
  C 338.03 168.67 335.03 170.06 332.44 168.10
  Q 330.24 166.45 328.82 163.43
  Q 324.89 155.06 322.36 145.67
  Q 317.83 128.90 316.94 111.42
  A 0.49 0.49 0.0 0 0 316.33 110.97
  C 307.60 113.15 299.44 115.64 291.73 112.47
  A 3.32 3.10 75.0 0 1 290.85 111.92
  C 282.32 104.32 289.43 96.73 296.72 92.73
  Q 302.08 89.79 315.79 85.10
  A 0.79 0.78 82.3 0 0 316.32 84.40
  C 316.95 74.17 317.61 64.29 319.69 53.72
  C 323.03 36.65 330.37 18.55 343.63 6.91
  Q 347.28 3.71 353.74 1.77
  Q 361.75 -0.64 369.31 4.16
  Q 373.59 6.88 376.15 11.72
  Q 381.85 22.50 381.47 24.99
  A 0.70 0.69 44.0 0 1 380.10 25.01
  Z"
/>
<path fill="#bc0019" d="
  M 36.18 35.30
  Q 49.44 25.65 66.69 25.00
  A 7.78 7.56 -53.7 0 0 68.77 24.65
  Q 77.71 21.91 85.44 21.14
  Q 108.72 18.82 128.93 31.61
  C 136.93 36.67 144.62 43.27 150.78 50.46
  C 169.69 72.55 182.28 100.69 183.62 129.90
  C 184.48 148.47 178.54 166.75 166.90 180.77
  C 143.28 209.25 102.75 226.94 65.60 217.53
  C 32.33 209.11 13.69 183.33 5.38 151.17
  Q -0.51 128.39 1.32 104.01
  C 3.34 77.16 14.53 51.07 36.18 35.30
  Z
  M 104.56 60.08
  Q 101.69 59.20 101.00 58.76
  C 96.26 55.71 90.55 51.87 85.43 50.26
  Q 68.21 44.87 54.23 53.93
  C 44.45 60.27 37.22 71.50 33.50 83.02
  C 28.73 97.79 28.13 113.77 30.13 129.29
  C 33.51 155.64 44.79 183.95 74.06 190.05
  C 96.96 194.83 121.76 185.16 138.42 169.62
  C 148.21 160.48 154.99 149.44 155.64 136.69
  Q 156.62 117.21 148.56 98.34
  C 139.68 77.54 126.43 60.06 107.39 49.43
  Q 102.02 46.43 96.31 43.79
  A 0.08 0.08 0.0 0 0 96.21 43.92
  Q 100.54 49.62 103.80 55.19
  Q 104.96 57.17 105.08 59.67
  A 0.41 0.40 -83.0 0 1 104.56 60.08
  Z"
/>
<path fill="#bc0019" d="
  M 425.24 191.63
  Q 423.05 190.24 421.10 187.18
  Q 415.93 179.09 414.39 176.55
  Q 408.11 166.21 405.46 151.76
  Q 399.04 116.65 395.19 86.84
  Q 391.59 58.92 391.55 36.30
  Q 391.54 31.45 394.24 25.70
  A 2.97 2.97 0.0 0 1 394.79 24.91
  Q 400.25 19.39 405.73 24.99
  C 409.33 28.67 410.71 37.21 411.95 43.51
  C 419.72 83.03 424.24 106.31 428.59 132.87
  Q 431.55 150.99 431.82 156.72
  Q 432.68 174.57 427.00 191.01
  A 1.19 1.19 0.0 0 1 425.24 191.63
  Z"
/>
<path fill="#bc0019" d="
  M 463.16 26.44
  Q 463.12 25.83 455.91 27.01
  A 0.04 0.03 75.1 0 1 455.88 26.99
  L 455.88 26.98
  A 0.17 0.17 0.0 0 1 455.98 26.77
  Q 463.01 23.90 468.76 24.02
  Q 480.30 24.27 489.92 29.99
  C 495.64 33.40 499.00 39.99 496.73 46.59
  C 494.91 51.89 490.61 56.01 485.68 58.13
  Q 472.19 63.94 458.88 58.38
  C 445.77 52.89 444.09 36.86 456.48 29.46
  Q 462.52 25.85 462.73 26.52
  A 0.22 0.22 0.0 0 0 463.16 26.44
  Z
  M 474.60 31.84
  L 474.60 34.65
  A 0.34 0.33 18.9 0 1 474.06 34.91
  C 471.68 33.07 470.04 31.06 466.81 32.77
  Q 465.46 33.49 464.16 35.36
  C 462.69 37.47 460.87 39.51 461.83 41.42
  A 1.59 1.55 -0.8 0 0 462.60 42.15
  Q 472.92 46.68 483.29 41.78
  A 1.51 1.50 -32.0 0 0 483.83 39.48
  Q 480.61 35.40 474.96 31.64
  A 0.24 0.23 -73.5 0 0 474.60 31.84
  Z"
/>
<path fill="#bc0019" d="
  M 285.59 59.19
  Q 284.12 52.24 280.19 47.04
  C 276.13 41.67 269.23 39.57 263.55 44.04
  Q 250.48 54.32 247.44 69.96
  Q 244.78 83.63 246.60 98.71
  A 0.69 0.69 0.0 0 0 247.30 99.32
  Q 253.57 99.18 259.83 99.91
  C 263.85 100.38 267.86 99.98 272.25 100.31
  Q 274.98 100.52 276.55 99.93
  A 0.26 0.26 0.0 0 1 276.88 100.26
  Q 276.12 102.24 275.49 102.96
  Q 264.80 115.06 250.61 122.24
  A 0.55 0.54 70.3 0 0 250.33 122.84
  C 252.40 132.72 254.66 142.05 255.93 151.23
  C 256.83 157.71 258.45 166.51 253.52 171.96
  A 3.33 3.27 -82.4 0 1 252.62 172.66
  C 243.89 177.21 239.79 168.25 237.21 161.38
  Q 231.40 145.88 226.74 129.19
  A 0.51 0.50 75.4 0 0 226.13 128.83
  Q 217.70 130.91 210.00 131.27
  C 206.06 131.46 202.18 129.26 199.97 125.89
  Q 195.60 119.18 201.20 112.22
  Q 202.99 109.99 208.14 108.10
  Q 213.49 106.13 221.12 104.24
  A 0.60 0.59 -10.6 0 0 221.57 103.60
  C 218.72 78.90 220.28 52.97 237.81 34.59
  C 245.38 26.65 256.58 22.34 267.17 27.16
  Q 277.96 32.08 282.11 43.50
  Q 286.42 55.35 286.30 59.13
  A 0.36 0.36 0.0 0 1 285.59 59.19
  Z"
/>
<path fill="#bc0019" d="
  M 551.41 82.68
  Q 556.05 68.96 557.66 65.41
  Q 559.83 60.65 564.61 57.96
  A 2.49 2.43 -60.7 0 1 565.70 57.64
  Q 571.06 57.27 574.84 58.93
  C 586.33 63.96 595.13 75.14 601.04 86.21
  Q 611.71 106.20 616.31 127.93
  Q 618.37 137.68 617.94 143.76
  C 617.45 150.69 615.21 159.93 611.00 166.32
  A 1.70 1.70 0.0 0 1 608.30 166.50
  Q 601.80 159.03 596.85 151.44
  Q 593.89 146.90 591.13 138.12
  Q 588.96 131.20 579.95 94.80
  C 577.99 86.90 574.58 76.06 570.02 68.52
  Q 569.29 67.32 568.80 67.07
  A 1.72 1.72 0.0 0 0 566.42 67.91
  Q 559.53 83.73 557.68 102.63
  Q 556.97 109.98 556.82 121.91
  Q 556.67 133.08 557.64 141.21
  Q 558.26 146.39 557.50 148.61
  Q 556.01 152.96 552.81 154.45
  C 546.53 157.37 541.42 152.96 540.04 147.03
  Q 539.68 145.48 540.02 142.48
  Q 541.74 127.25 542.91 119.11
  Q 544.46 108.27 544.49 102.30
  Q 544.57 89.06 545.34 74.46
  Q 545.43 72.69 546.55 69.23
  A 1.10 1.10 0.0 0 1 547.15 68.56
  Q 548.52 67.93 549.54 68.45
  A 1.25 1.21 6.7 0 1 550.16 69.21
  C 551.30 73.42 550.84 76.65 550.95 82.61
  A 0.24 0.24 0.0 0 0 551.41 82.68
  Z"
/>
<path fill="#bc0019" d="
  M 740.92 150.02
  Q 735.35 153.98 729.78 157.00
  Q 726.19 158.95 722.87 159.84
  Q 718.97 160.88 716.39 162.04
  A 3.30 3.26 32.3 0 1 715.11 162.32
  Q 713.46 162.35 700.28 163.61
  Q 689.95 164.59 680.02 162.35
  A 4.29 4.25 -25.3 0 1 679.08 162.02
  C 659.90 152.76 644.74 135.59 639.70 114.53
  Q 633.29 87.72 654.46 71.45
  C 665.94 62.63 683.97 57.90 697.55 64.92
  C 705.99 69.29 710.13 77.99 708.77 87.30
  C 706.57 102.28 686.08 114.69 673.82 120.42
  A 0.32 0.31 -30.0 0 0 673.69 120.88
  Q 677.85 126.97 684.41 131.83
  C 689.11 135.33 692.80 137.09 697.36 141.01
  Q 701.68 144.73 704.81 146.68
  Q 708.68 149.11 714.68 151.59
  Q 724.54 155.67 734.78 153.08
  A 1.19 1.08 21.3 0 0 734.99 153.00
  L 740.87 149.94
  A 0.05 0.05 0.0 0 1 740.92 150.02
  Z
  M 670.83 116.02
  A 0.64 0.63 -27.6 0 0 671.68 116.28
  C 681.65 110.91 701.47 99.36 702.92 86.98
  C 703.21 84.49 702.05 81.35 699.43 81.01
  Q 690.18 79.80 680.58 84.37
  C 675.03 87.02 669.82 91.00 668.17 96.51
  C 666.19 103.10 667.66 110.04 670.83 116.02
  Z"
/>
<circle fill="#bc0019" cx="95.52" cy="78.78" r="12.82"/>
<path fill="#bc0019" d="
  M 480.54 169.44
  Q 480.76 169.26 481.25 169.42
  A 0.23 0.23 0.0 0 0 481.54 169.12
  Q 480.58 166.48 479.75 165.48
  C 471.08 155.18 467.84 143.29 465.69 129.92
  Q 462.92 112.72 464.37 94.60
  C 464.80 89.17 465.63 81.95 468.48 77.34
  C 471.20 72.94 475.74 71.33 479.24 76.51
  Q 480.85 78.90 481.75 85.02
  Q 482.38 89.28 483.24 96.67
  Q 484.18 104.76 485.03 108.32
  Q 490.38 130.84 492.58 138.91
  Q 494.91 147.46 494.15 153.24
  C 493.29 159.79 490.85 165.92 485.27 169.80
  Q 483.12 171.29 480.68 170.31
  A 0.52 0.51 35.9 0 1 480.54 169.44
  Z"
/>
<circle fill="#bc0019" cx="70.95" cy="90.55" r="8.92"/>
<path fill="#bc0019" d="
  M 129.73 137.08
  Q 128.90 137.36 127.81 137.17
  C 119.09 135.64 111.65 131.80 104.19 127.07
  C 100.41 124.67 97.40 126.35 94.48 128.74
  Q 93.14 129.85 81.90 140.11
  Q 81.40 140.57 78.31 142.00
  C 74.37 143.82 70.78 141.72 70.02 137.54
  C 69.00 131.82 80.30 120.29 85.03 116.09
  C 93.85 108.27 104.55 107.98 114.14 114.71
  C 121.34 119.76 125.71 127.50 128.70 135.62
  A 1.51 1.48 4.0 0 0 129.43 136.44
  Q 129.50 136.48 129.75 136.58
  A 0.27 0.27 0.0 0 1 129.73 137.08
  Z"
/>
</svg>
