<?xml version="1.0" encoding="UTF-8" standalone="no"?>
<!DOCTYPE svg PUBLIC "-//W3C//DTD SVG 1.1//EN" "http://www.w3.org/Graphics/SVG/1.1/DTD/svg11.dtd">
<svg xmlns="http://www.w3.org/2000/svg" version="1.1" viewBox="0.00 0.00 743.00 174.00">
<path fill="#bc0019" d="
  M 374.13 28.29
  Q 371.90 20.32 365.63 16.30
  C 358.88 11.98 351.47 14.01 345.34 18.34
  C 327.58 30.87 321.48 53.12 321.33 73.78
  A 0.44 0.44 0.0 0 0 321.84 74.22
  C 328.85 73.03 332.13 72.19 337.77 72.04
  Q 349.60 71.73 360.61 76.48
  A 1.29 1.28 -57.1 0 1 361.04 78.52
  C 350.97 89.58 337.68 94.19 323.38 97.03
  A 0.78 0.77 -10.0 0 0 322.77 97.89
  C 325.27 116.10 330.13 132.37 336.48 152.02
  Q 337.79 156.08 336.30 159.66
  A 2.55 2.36 15.8 0 1 333.58 161.04
  C 331.46 160.69 329.78 159.55 328.40 157.90
  Q 313.97 140.63 307.29 119.47
  Q 304.96 112.07 302.79 101.81
  A 0.65 0.65 0.0 0 0 302.04 101.31
  C 294.78 102.63 285.99 104.29 278.26 103.80
  C 272.99 103.47 267.14 99.10 269.76 93.25
  Q 271.58 89.17 276.58 87.27
  Q 287.82 83.00 299.44 80.24
  A 0.78 0.77 81.9 0 0 300.03 79.45
  C 299.20 62.56 301.44 46.09 308.40 30.65
  C 315.14 15.71 329.38 -1.48 347.57 0.28
  C 359.34 1.42 368.48 9.16 372.79 20.25
  Q 374.57 24.84 374.56 28.23
  A 0.22 0.22 0.0 0 1 374.13 28.29
  Z"
/>
<path fill="#bc0019" d="
  M 402.69 5.70
  C 404.09 3.56 407.27 0.94 410.28 1.15
  C 416.09 1.57 418.07 8.86 417.87 13.76
  Q 417.03 33.78 417.92 52.51
  C 419.15 78.42 418.25 103.51 421.33 128.43
  Q 422.00 133.81 424.22 144.12
  A 6.89 6.75 -50.7 0 1 424.36 145.68
  Q 424.09 155.38 419.12 161.87
  C 417.99 163.35 415.54 163.05 413.86 162.35
  Q 403.85 158.19 400.66 147.98
  Q 399.36 143.82 397.48 130.38
  Q 395.83 118.56 395.25 101.50
  C 394.68 84.87 394.23 64.12 395.33 45.76
  Q 396.38 28.31 399.44 14.20
  Q 400.57 8.94 402.69 5.70
  Z"
/>
<path fill="#bc0019" d="
  M 254.48 60.74
  Q 259.51 51.10 258.35 41.48
  C 257.48 34.22 254.55 27.75 248.45 24.32
  C 240.48 19.83 234.59 25.30 230.32 31.82
  C 220.63 46.62 215.72 65.86 214.35 83.49
  A 0.39 0.38 -4.0 0 0 214.82 83.89
  Q 226.11 81.41 236.51 82.19
  Q 245.38 82.86 258.13 85.51
  A 0.13 0.13 0.0 0 1 258.13 85.76
  Q 254.72 86.64 247.13 91.83
  Q 233.83 100.92 214.48 104.99
  A 0.58 0.58 0.0 0 0 214.02 105.57
  Q 214.44 129.18 223.57 149.09
  Q 226.19 154.80 226.00 156.89
  Q 225.57 161.50 222.46 163.95
  C 215.86 169.15 209.81 165.14 206.03 158.97
  C 198.06 145.95 194.31 129.30 192.89 114.01
  Q 192.69 111.80 192.38 110.16
  A 0.56 0.56 0.0 0 0 191.71 109.72
  Q 183.58 111.57 177.50 112.32
  C 173.11 112.87 166.09 111.62 166.67 105.90
  C 167.05 102.20 171.75 99.04 175.22 97.46
  Q 183.58 93.65 191.47 90.99
  A 0.61 0.61 0.0 0 0 191.89 90.41
  C 192.39 65.16 198.67 39.53 212.68 18.46
  Q 214.44 15.82 219.38 11.15
  C 225.13 5.72 233.29 2.74 241.11 5.11
  C 248.64 7.39 254.82 14.34 257.88 21.30
  Q 262.54 31.90 260.35 44.91
  Q 258.48 56.02 254.96 61.04
  A 0.29 0.28 76.6 0 1 254.48 60.74
  Z"
/>
<path fill="#bc0019" d="
  M 498.21 16.11
  C 508.44 19.77 517.65 26.48 518.82 37.76
  Q 519.62 45.39 514.29 51.42
  Q 510.33 55.89 503.00 57.42
  Q 494.00 59.30 485.14 54.57
  C 469.45 46.20 467.77 24.73 484.13 15.79
  A 2.48 2.45 4.5 0 0 484.88 15.16
  Q 484.94 15.10 485.02 15.00
  A 1.22 1.18 10.0 0 1 485.61 14.60
  Q 487.47 14.07 488.65 13.41
  C 491.40 11.85 496.33 11.03 498.85 13.11
  A 0.61 0.61 0.0 0 1 498.95 13.95
  L 497.95 15.25
  A 0.56 0.56 0.0 0 0 498.21 16.11
  Z
  M 491.15 23.28
  L 489.30 28.39
  A 9.78 9.76 -47.1 0 0 489.56 35.64
  C 491.00 39.29 496.57 40.83 500.40 39.69
  A 0.96 0.96 0.0 0 0 501.04 38.47
  Q 498.40 30.45 494.38 23.03
  A 1.78 1.77 -49.4 0 0 491.15 23.28
  Z"
/>
<path fill="#bc0019" d="
  M 0.00 116.21
  L 0.00 110.59
  Q 1.62 88.98 14.38 70.14
  Q 33.56 41.79 65.84 32.11
  C 85.61 26.18 115.42 27.19 117.55 54.42
  A 4.14 4.14 0.0 0 0 118.79 57.07
  C 134.01 71.90 146.12 92.63 146.12 114.24
  C 146.12 138.30 129.92 156.47 108.45 165.54
  Q 84.66 175.58 58.18 172.73
  C 45.60 171.38 33.01 167.26 22.87 159.73
  Q 2.02 144.26 0.00 116.21
  Z
  M 83.85 51.07
  C 58.75 54.98 33.93 75.07 26.27 99.42
  Q 22.60 111.08 24.89 121.71
  C 28.62 139.05 43.79 147.00 60.35 148.86
  C 77.82 150.81 97.21 147.36 111.31 136.37
  C 124.41 126.16 125.26 110.71 118.57 96.44
  C 114.09 86.89 107.77 78.90 100.65 71.03
  C 94.78 64.55 90.41 58.48 86.10 52.06
  A 2.29 2.29 0.0 0 0 83.85 51.07
  Z"
/>
<path fill="#bc0019" d="
  M 374.23 30.63
  Q 374.15 30.49 374.20 30.15
  A 0.31 0.31 0.0 0 1 374.78 30.04
  Q 374.87 30.21 374.82 30.53
  A 0.32 0.31 -54.3 0 1 374.23 30.63
  Z"
/>
<path fill="#bc0019" d="
  M 731.65 150.57
  Q 716.39 156.30 714.84 156.32
  Q 712.63 156.36 705.79 158.22
  A 13.75 13.41 35.2 0 1 703.10 158.65
  Q 695.76 159.03 691.25 159.39
  C 677.82 160.44 666.59 155.64 656.32 147.21
  C 642.97 136.26 637.10 120.10 638.97 103.02
  C 640.35 90.33 645.30 78.65 654.12 69.41
  C 661.84 61.31 673.19 57.54 684.20 58.29
  C 696.35 59.11 708.22 65.45 712.54 77.24
  Q 713.81 80.69 713.25 85.03
  C 711.02 102.23 690.69 111.76 675.97 114.68
  C 669.39 115.98 662.68 112.09 665.64 104.53
  C 666.40 102.61 670.05 99.95 672.55 98.69
  Q 682.37 93.73 686.12 91.63
  C 689.74 89.60 695.81 85.75 697.22 82.12
  A 1.66 1.66 0.0 0 0 696.29 79.98
  C 689.80 77.38 681.72 78.36 675.65 82.37
  Q 669.45 86.47 666.11 93.33
  C 662.24 101.27 661.12 113.19 665.19 121.02
  Q 668.99 128.33 676.96 132.57
  Q 685.42 137.07 697.01 143.99
  Q 701.58 146.72 707.27 148.42
  Q 714.02 150.43 718.39 151.11
  Q 722.84 151.80 731.51 150.08
  A 0.26 0.26 0.0 0 1 731.65 150.57
  Z"
/>
<path fill="#bc0019" d="
  M 548.06 70.02
  Q 552.19 64.31 555.68 61.95
  C 575.98 48.23 597.59 84.03 604.76 98.29
  Q 610.78 110.26 613.62 122.52
  Q 615.63 131.20 614.70 136.32
  Q 613.41 143.31 608.15 148.34
  A 3.02 3.02 0.0 0 1 604.66 148.83
  Q 594.86 143.69 591.91 132.78
  Q 585.51 109.10 573.55 88.69
  Q 568.86 80.67 561.96 73.25
  A 0.69 0.69 0.0 0 0 560.89 73.31
  Q 553.91 82.69 551.58 94.68
  A 8.43 8.38 49.4 0 0 551.43 96.72
  C 552.11 111.01 550.54 125.32 548.54 139.27
  C 547.18 148.82 535.35 152.89 528.36 145.83
  Q 524.00 141.42 525.01 134.49
  Q 525.17 133.37 527.76 118.66
  Q 528.31 115.55 530.86 104.73
  Q 533.27 94.54 533.80 84.76
  C 534.15 78.18 533.82 73.44 535.62 67.63
  Q 535.87 66.82 538.12 65.02
  A 2.68 2.68 0.0 0 1 539.01 64.55
  C 542.94 63.42 546.39 65.90 547.33 69.87
  A 0.41 0.41 0.0 0 0 548.06 70.02
  Z"
/>
<path fill="#bc0019" d="
  M 474.18 70.14
  Q 480.48 65.07 485.82 71.28
  A 2.77 2.73 -74.3 0 1 486.37 72.28
  Q 487.75 76.75 487.77 78.02
  Q 488.15 97.95 491.55 118.99
  Q 492.05 122.07 492.22 130.72
  A 3.27 3.27 0.0 0 1 492.09 131.70
  Q 490.72 136.29 490.51 136.74
  Q 488.40 141.35 484.18 143.65
  C 482.05 144.82 480.90 144.73 478.88 143.17
  Q 471.83 137.75 470.53 127.26
  C 468.54 111.16 467.70 94.84 470.39 79.11
  Q 471.06 75.21 473.37 71.10
  A 3.51 3.29 -6.7 0 1 474.18 70.14
  Z"
/>
</svg>
