<?xml version="1.0" encoding="UTF-8" standalone="no"?>
<!DOCTYPE svg PUBLIC "-//W3C//DTD SVG 1.1//EN" "http://www.w3.org/Graphics/SVG/1.1/DTD/svg11.dtd">
<svg xmlns="http://www.w3.org/2000/svg" version="1.1" viewBox="0.00 0.00 420.00 182.00">
<path fill="#00bf2d" d="
  M 0.00 122.34
  L 0.00 107.37
  C 0.57 95.87 0.99 83.98 1.84 72.89
  Q 4.17 42.62 4.40 17.66
  C 4.43 14.99 4.97 13.05 5.24 10.50
  Q 5.39 9.15 6.08 7.74
  C 11.06 -2.38 23.98 -1.82 28.14 8.62
  Q 30.16 13.70 30.82 19.65
  Q 33.07 39.92 31.66 60.75
  Q 29.98 85.77 29.28 103.00
  Q 28.38 125.17 30.16 139.22
  Q 32.64 158.91 32.79 160.01
  C 33.74 167.33 30.32 173.76 25.67 179.15
  Q 23.01 182.24 19.50 180.49
  Q 12.13 176.80 8.35 171.98
  C 5.45 168.27 4.13 162.07 3.21 156.29
  Q 0.53 139.44 0.00 122.34
  Z"
/>
<path fill="#00bf2d" d="
  M 95.96 41.67
  Q 99.65 36.89 100.72 36.19
  Q 120.89 22.87 136.40 40.35
  Q 141.45 46.05 142.56 55.13
  A 3.95 3.88 -44.5 0 1 142.54 56.31
  L 141.47 62.78
  A 0.60 0.49 65.7 0 1 141.43 62.93
  Q 135.60 76.43 121.47 79.64
  Q 108.90 82.50 99.68 74.53
  C 94.85 70.35 92.30 63.42 93.32 56.85
  Q 94.69 48.09 102.11 42.62
  A 0.38 0.37 -45.3 0 0 102.11 42.01
  Q 98.93 39.76 96.15 41.86
  A 0.14 0.14 0.0 0 1 95.96 41.67
  Z
  M 117.75 55.66
  L 110.71 49.83
  A 0.53 0.53 0.0 0 0 109.85 50.24
  L 109.85 55.04
  A 2.21 2.19 17.7 0 0 110.79 56.84
  Q 113.48 58.73 117.64 56.63
  A 0.58 0.58 0.0 0 0 117.75 55.66
  Z"
/>
<path fill="#00bf2d" d="
  M 411.98 127.96
  Q 409.03 131.85 397.19 140.32
  C 396.06 141.13 394.63 143.09 392.76 144.24
  Q 387.35 147.57 380.38 150.85
  C 368.72 156.33 357.34 160.19 344.19 158.36
  C 320.10 155.01 296.33 141.09 289.60 116.22
  Q 282.66 90.56 300.62 72.36
  C 309.27 63.59 321.86 59.55 333.98 63.41
  C 345.94 67.22 358.52 77.95 358.03 91.77
  C 357.46 107.39 339.64 117.58 326.68 121.06
  A 0.31 0.30 55.8 0 0 326.58 121.60
  Q 333.61 126.70 342.59 128.61
  C 350.79 130.36 355.73 130.78 365.08 132.67
  Q 376.21 134.93 379.26 135.09
  Q 392.90 135.82 400.17 133.73
  Q 405.42 132.22 411.42 127.41
  A 0.40 0.39 89.4 0 1 411.98 127.96
  Z
  M 317.37 101.36
  Q 324.58 98.17 331.53 93.29
  Q 332.98 92.27 334.27 90.80
  A 0.95 0.94 -49.0 0 0 334.18 89.46
  C 324.53 81.14 318.14 93.13 316.77 100.90
  A 0.43 0.43 0.0 0 0 317.37 101.36
  Z"
/>
<path fill="#00bf2d" d="
  M 226.93 132.46
  A 0.50 0.50 0.0 0 0 227.74 132.36
  Q 231.26 125.79 233.02 118.28
  Q 235.91 105.93 236.02 100.70
  C 236.18 92.66 237.32 84.02 241.48 76.98
  Q 245.07 70.89 248.10 66.64
  Q 249.23 65.06 250.70 65.17
  A 1.23 1.20 71.6 0 1 251.53 65.60
  Q 255.03 69.79 258.83 75.16
  Q 265.27 84.25 265.18 95.76
  Q 265.05 111.33 260.29 128.28
  Q 257.08 139.69 250.44 150.39
  C 246.42 156.87 237.37 165.76 228.94 164.75
  C 224.52 164.21 220.19 163.52 216.90 160.61
  C 212.93 157.10 210.65 153.66 207.34 149.23
  Q 193.61 130.94 183.66 112.12
  Q 179.09 103.49 176.72 96.56
  C 174.32 89.56 181.26 81.37 188.59 82.56
  C 194.27 83.48 197.00 87.67 199.70 92.57
  C 207.39 106.52 216.23 120.54 226.93 132.46
  Z"
/>
<path fill="#00bf2d" d="
  M 122.81 170.89
  C 117.88 173.42 112.50 171.65 109.06 167.17
  Q 105.26 162.22 104.39 156.31
  C 102.15 141.03 102.26 130.04 102.39 110.77
  C 102.41 106.56 102.63 100.44 104.76 97.31
  C 107.23 93.70 111.35 92.13 115.50 93.75
  C 120.32 95.63 121.89 101.43 122.80 106.24
  Q 126.30 124.69 130.38 150.99
  Q 131.55 158.49 128.59 164.47
  Q 126.31 169.08 122.81 170.89
  Z"
/>
</svg>
