<?xml version="1.0" encoding="UTF-8" standalone="no"?>
<!DOCTYPE svg PUBLIC "-//W3C//DTD SVG 1.1//EN" "http://www.w3.org/Graphics/SVG/1.1/DTD/svg11.dtd">
<svg xmlns="http://www.w3.org/2000/svg" version="1.1" viewBox="0.00 0.00 391.00 188.00">
<path fill="#00bf2d" d="
  M 30.10 186.99
  A 0.43 0.43 0.0 0 1 29.60 187.65
  C 26.53 186.52 24.11 184.53 21.99 182.15
  Q 10.26 168.95 6.32 150.20
  Q 4.11 139.67 3.24 130.24
  Q -1.80 76.14 4.32 19.76
  Q 4.96 13.84 6.42 8.18
  C 7.96 2.26 12.90 -2.33 18.64 3.39
  Q 20.28 5.03 21.21 9.26
  Q 22.54 15.29 22.86 19.47
  C 24.31 38.36 25.63 53.04 26.60 68.85
  Q 28.40 98.11 31.77 140.76
  Q 33.32 160.44 30.38 179.23
  Q 29.57 184.45 29.57 185.44
  A 2.05 2.02 -61.1 0 0 29.94 186.76
  L 30.10 186.99
  Z"
/>
<path fill="#00bf2d" d="
  M 103.81 9.67
  Q 105.32 6.58 109.48 5.71
  Q 121.27 3.24 129.55 9.46
  Q 136.73 14.84 137.97 23.75
  C 139.76 36.67 130.58 48.27 119.12 53.36
  C 106.87 58.81 91.39 57.31 83.22 45.98
  C 78.61 39.57 78.35 30.92 82.04 23.71
  Q 88.12 11.82 102.98 10.25
  A 1.06 1.04 -79.5 0 0 103.81 9.67
  Z
  M 111.48 18.19
  C 105.05 21.10 101.23 23.36 99.08 29.91
  C 97.77 33.89 98.83 35.95 103.02 36.20
  C 109.16 36.56 116.24 33.56 117.97 27.24
  A 1.59 1.59 0.0 0 0 117.94 26.27
  C 116.94 23.38 114.45 20.78 112.47 18.42
  A 0.84 0.84 0.0 0 0 111.48 18.19
  Z"
/>
<path fill="#00bf2d" d="
  M 219.13 133.02
  Q 224.13 125.39 227.79 113.29
  C 233.93 92.97 237.55 79.83 245.66 65.39
  Q 246.83 63.32 251.09 55.82
  Q 252.75 52.91 255.82 49.86
  A 0.50 0.50 0.0 0 1 256.66 50.11
  Q 257.91 56.30 258.81 62.99
  Q 259.20 65.89 259.07 77.34
  Q 259.00 83.98 257.83 91.63
  Q 255.29 108.03 250.82 123.55
  Q 246.77 137.61 239.32 149.05
  Q 235.63 154.73 228.02 159.08
  A 4.47 4.31 21.6 0 1 227.07 159.47
  C 222.70 160.63 218.08 161.43 214.07 159.56
  Q 206.81 156.17 202.70 148.40
  Q 193.35 130.72 189.77 110.47
  Q 187.78 99.17 187.17 92.00
  C 186.74 86.89 186.04 80.05 188.65 75.60
  A 2.33 2.32 88.1 0 1 189.33 74.87
  Q 193.76 71.75 197.13 76.01
  A 2.52 2.50 16.5 0 1 197.54 76.76
  Q 198.65 80.06 198.72 80.57
  Q 200.35 91.47 202.78 100.49
  Q 207.60 118.40 218.45 133.04
  A 0.42 0.41 43.0 0 0 219.13 133.02
  Z"
/>
<path fill="#00bf2d" d="
  M 382.06 154.25
  Q 378.29 157.37 372.84 160.31
  C 369.60 162.06 365.88 164.09 362.26 165.19
  Q 351.80 168.36 342.23 168.74
  Q 325.47 169.41 311.47 161.51
  Q 298.52 154.21 289.00 141.57
  C 278.39 127.50 273.69 109.02 280.12 92.31
  C 287.43 73.33 306.03 59.73 326.60 59.12
  C 335.17 58.87 344.90 62.07 350.91 68.52
  C 361.26 79.61 359.27 94.02 351.35 106.16
  C 343.56 118.11 332.61 126.03 319.55 131.77
  A 0.30 0.30 0.0 0 0 319.49 132.29
  Q 327.82 138.38 338.22 143.99
  C 346.75 148.59 354.79 152.89 362.58 154.89
  Q 363.46 155.11 368.85 155.86
  Q 374.57 156.65 375.17 155.96
  Q 377.65 153.17 381.29 152.57
  A 0.96 0.96 0.0 0 1 382.06 154.25
  Z
  M 311.34 122.81
  C 320.57 116.00 329.25 108.50 335.34 99.36
  C 338.35 94.83 343.43 84.45 334.53 82.98
  C 323.14 81.10 310.37 88.23 306.48 99.24
  C 303.80 106.83 306.60 116.09 310.97 122.75
  A 0.26 0.25 -35.4 0 0 311.34 122.81
  Z"
/>
<path fill="#00bf2d" d="
  M 112.41 167.42
  Q 103.50 163.65 101.02 153.41
  Q 98.52 143.09 98.87 126.21
  Q 99.37 101.82 99.98 88.50
  C 100.26 82.60 102.06 77.69 108.70 75.54
  A 2.58 2.57 41.8 0 1 110.02 75.47
  Q 115.55 76.56 117.36 79.70
  Q 120.81 85.66 122.19 93.87
  Q 125.89 115.91 126.85 137.56
  C 127.33 148.26 128.09 163.50 115.04 167.55
  A 3.88 3.87 -42.1 0 1 112.41 167.42
  Z"
/>
</svg>
