<?xml version="1.0" encoding="UTF-8" standalone="no"?>
<!DOCTYPE svg PUBLIC "-//W3C//DTD SVG 1.1//EN" "http://www.w3.org/Graphics/SVG/1.1/DTD/svg11.dtd">
<svg xmlns="http://www.w3.org/2000/svg" version="1.1" viewBox="0.00 0.00 477.00 228.00">
<path fill="#00bf2d" d="
  M 26.88 0.00
  Q 37.15 1.37 39.58 10.46
  Q 40.76 14.87 40.35 22.63
  Q 38.79 52.11 36.52 76.00
  Q 32.70 116.24 31.25 136.00
  C 29.44 160.74 29.14 182.27 32.53 205.48
  Q 33.45 211.76 30.45 217.46
  Q 27.69 222.70 26.70 225.91
  A 1.57 1.57 0.0 0 1 25.83 226.89
  Q 23.93 227.76 21.57 226.64
  Q 21.26 226.49 14.44 223.06
  Q 8.48 220.07 5.82 213.65
  Q 3.99 209.24 3.62 207.12
  Q 2.11 198.33 1.41 186.66
  C 0.43 170.43 1.15 151.47 2.59 130.82
  Q 3.30 120.60 4.68 106.19
  Q 9.75 52.92 10.92 29.75
  Q 11.44 19.48 12.36 13.61
  Q 14.23 1.66 25.83 0.00
  L 26.88 0.00
  Z"
/>
<path fill="#00bf2d" d="
  M 125.38 34.13
  C 128.71 29.88 133.20 26.38 138.98 25.47
  C 144.41 24.61 147.31 24.41 152.35 25.73
  C 164.43 28.87 172.78 42.75 168.58 54.88
  C 165.01 65.20 154.97 72.10 144.05 71.95
  C 132.94 71.80 123.63 64.19 123.23 52.83
  C 122.97 45.78 126.80 37.95 133.49 34.79
  A 2.03 2.02 -52.9 0 1 134.68 34.62
  Q 139.72 35.39 139.27 40.82
  Q 138.69 47.64 138.90 50.14
  A 4.02 3.93 34.0 0 0 139.09 51.06
  C 141.51 57.90 150.66 54.94 152.51 49.30
  A 2.48 2.48 0.0 0 0 152.59 48.10
  Q 152.11 45.44 150.05 43.39
  Q 144.53 37.86 136.70 34.12
  Q 130.48 31.15 125.61 34.38
  A 0.17 0.17 0.0 0 1 125.38 34.13
  Z"
/>
<path fill="#00bf2d" d="
  M 144.24 103.67
  C 149.51 102.51 150.94 109.97 150.64 113.76
  Q 150.03 121.44 149.79 123.00
  Q 145.68 149.60 145.07 162.77
  Q 144.33 178.52 144.99 199.49
  Q 145.24 207.64 140.08 213.79
  C 137.44 216.92 132.61 218.68 129.39 215.39
  C 124.79 210.71 122.67 204.70 122.05 198.18
  C 119.51 171.45 124.01 144.72 133.15 119.88
  C 135.15 114.44 138.05 107.91 143.23 104.12
  A 2.75 2.71 -68.6 0 1 144.24 103.67
  Z"
/>
<path fill="#00bf2d" d="
  M 253.21 169.27
  C 259.50 152.83 263.08 141.80 270.72 131.43
  Q 276.98 122.92 279.42 120.16
  Q 281.10 118.26 283.68 116.85
  A 0.41 0.41 0.0 0 1 284.27 117.07
  C 291.14 136.84 289.59 155.12 282.06 175.01
  Q 277.01 188.36 271.00 200.02
  Q 267.67 206.46 262.92 209.05
  C 255.74 212.96 248.02 213.12 242.51 206.75
  Q 240.89 204.88 238.20 197.85
  Q 222.50 156.91 215.36 139.17
  C 214.59 137.28 212.95 132.87 213.12 130.67
  Q 213.66 123.32 220.75 122.03
  C 226.98 120.89 231.95 128.67 234.69 133.51
  Q 242.43 147.18 252.72 169.29
  A 0.27 0.27 0.0 0 0 253.21 169.27
  Z"
/>
<path fill="#00bf2d" d="
  M 462.10 203.59
  Q 461.79 203.88 424.09 208.75
  Q 415.85 209.81 410.14 210.21
  Q 392.63 211.44 380.76 209.78
  C 370.78 208.38 360.12 205.48 352.34 199.38
  C 338.15 188.26 335.59 170.62 341.53 154.16
  C 348.80 134.01 368.01 117.85 390.35 118.94
  C 400.35 119.44 411.72 125.71 414.76 135.91
  C 418.42 148.18 406.79 158.89 397.75 164.66
  C 386.75 171.69 374.50 176.36 361.40 179.10
  A 0.34 0.33 64.8 0 0 361.21 179.64
  C 365.99 185.79 374.29 189.49 381.90 191.81
  Q 399.81 197.28 420.30 199.94
  Q 434.80 201.82 436.73 202.03
  Q 457.32 204.33 461.50 202.65
  A 0.57 0.57 0.0 0 1 462.10 203.59
  Z
  M 362.84 155.16
  Q 379.51 150.61 393.12 140.14
  A 0.49 0.48 -52.9 0 0 393.01 139.31
  C 381.52 134.73 367.52 144.77 362.44 154.66
  A 0.35 0.35 0.0 0 0 362.84 155.16
  Z"
/>
<ellipse fill="#00bf2d" cx="0.00" cy="0.00" transform="translate(466.44,202.10) rotate(-10.0)" rx="1.53" ry="0.13"/>
</svg>
