<?xml version="1.0" encoding="UTF-8" standalone="no"?>
<!DOCTYPE svg PUBLIC "-//W3C//DTD SVG 1.1//EN" "http://www.w3.org/Graphics/SVG/1.1/DTD/svg11.dtd">
<svg xmlns="http://www.w3.org/2000/svg" version="1.1" viewBox="0.00 0.00 427.00 192.00">
<path fill="#00bf2d" d="
  M 11.39 0.00
  Q 17.34 1.63 19.36 6.88
  Q 21.28 11.88 22.32 17.68
  Q 27.75 47.79 29.92 78.25
  C 31.95 106.80 33.15 127.20 37.32 149.86
  Q 39.23 160.21 38.68 164.80
  Q 37.57 174.30 32.81 181.53
  C 30.07 185.68 26.93 184.30 23.54 181.69
  Q 11.69 172.56 9.04 156.56
  Q 1.47 110.86 1.38 71.98
  Q 1.31 45.19 0.95 19.56
  C 0.83 11.72 0.12 3.16 9.10 0.00
  L 11.39 0.00
  Z"
/>
<path fill="#00bf2d" d="
  M 144.80 10.84
  A 1.42 1.40 -84.5 0 0 145.75 12.01
  Q 155.68 15.26 160.24 23.43
  C 166.11 33.98 161.18 46.68 151.72 53.02
  Q 144.74 57.69 136.52 57.10
  C 123.59 56.18 114.35 45.06 113.13 32.37
  C 112.20 22.75 116.04 13.28 122.51 6.22
  C 126.00 2.42 132.64 -0.40 137.57 1.21
  Q 143.92 3.29 144.80 10.84
  Z
  M 138.73 21.20
  A 0.45 0.45 0.0 0 0 137.98 21.14
  Q 133.66 26.71 135.70 32.19
  C 136.70 34.88 139.76 34.94 141.13 32.49
  C 142.66 29.79 140.12 23.87 138.73 21.20
  Z"
/>
<path fill="#00bf2d" d="
  M 418.25 147.47
  Q 408.08 155.28 398.66 157.60
  Q 390.73 159.55 378.76 159.23
  Q 369.23 158.98 359.95 154.99
  C 347.47 149.63 336.17 136.87 329.09 125.21
  Q 319.63 109.66 317.31 92.29
  C 315.83 81.26 317.93 67.16 325.59 58.52
  Q 337.61 44.96 355.03 50.86
  C 366.64 54.78 380.46 66.60 383.46 78.61
  C 387.60 95.15 372.00 109.78 357.74 115.04
  A 0.53 0.52 61.6 0 0 357.50 115.85
  Q 361.24 120.81 366.22 125.03
  Q 381.86 138.25 387.81 142.42
  Q 397.76 149.38 408.55 149.74
  Q 412.42 149.87 418.02 147.10
  A 0.22 0.22 0.0 0 1 418.25 147.47
  Z
  M 348.98 100.61
  A 0.39 0.39 0.0 0 0 349.47 100.85
  C 356.23 98.54 369.12 90.52 367.03 81.74
  A 4.19 3.94 26.1 0 0 366.66 80.76
  C 363.65 75.00 355.11 71.92 349.01 72.94
  A 3.46 3.46 0.0 0 0 346.26 75.42
  Q 345.13 79.55 345.44 84.25
  Q 345.99 92.50 348.98 100.61
  Z"
/>
<path fill="#00bf2d" d="
  M 256.17 129.71
  C 258.69 117.05 258.84 103.83 258.97 90.50
  Q 259.08 79.67 263.50 70.71
  Q 265.09 67.50 266.95 63.89
  C 269.70 58.55 272.65 55.77 277.24 52.40
  A 0.20 0.14 -35.4 0 1 277.47 52.40
  Q 277.48 52.43 277.49 52.46
  A 0.11 0.07 -34.1 0 1 277.45 52.56
  C 273.59 55.85 274.94 60.40 276.97 64.36
  Q 281.86 73.84 283.27 76.96
  C 288.63 88.86 288.32 104.09 287.07 117.84
  C 285.87 131.14 283.50 144.14 278.37 156.39
  Q 275.16 164.05 268.05 168.71
  C 260.67 173.54 252.57 170.34 246.59 165.22
  Q 243.85 162.87 239.55 156.20
  C 231.30 143.40 225.36 127.79 219.25 111.96
  C 216.90 105.87 213.10 98.38 210.70 91.60
  A 4.56 4.55 31.9 0 1 210.45 90.53
  C 209.22 80.20 220.39 72.56 229.05 79.38
  Q 231.45 81.28 234.11 85.52
  Q 239.14 93.57 244.62 105.51
  Q 247.54 111.88 255.75 129.76
  A 0.22 0.22 0.0 0 0 256.17 129.71
  Z"
/>
<path fill="#00bf2d" d="
  M 140.77 94.63
  Q 142.10 99.67 141.86 102.77
  C 140.30 122.83 139.05 142.96 141.03 162.00
  Q 141.10 162.74 142.44 174.90
  A 6.28 6.27 -42.8 0 1 142.37 176.73
  C 140.91 184.71 135.97 192.99 127.09 191.15
  C 121.90 190.08 116.55 184.59 114.77 179.54
  C 113.42 175.74 112.46 168.92 112.12 164.74
  Q 109.43 131.77 113.43 101.73
  Q 114.10 96.68 117.31 91.32
  C 123.34 81.24 137.59 82.64 140.77 94.63
  Z"
/>
<path fill="#00bf2d" d="
  M 421.74 144.72
  Q 421.16 145.34 419.92 146.18
  A 0.07 0.07 0.0 0 1 419.84 146.07
  Q 421.55 144.43 421.56 144.43
  A 0.18 0.18 0.0 0 1 421.74 144.72
  Z"
/>
</svg>
