<?xml version="1.0" encoding="UTF-8" standalone="no"?>
<!DOCTYPE svg PUBLIC "-//W3C//DTD SVG 1.1//EN" "http://www.w3.org/Graphics/SVG/1.1/DTD/svg11.dtd">
<svg xmlns="http://www.w3.org/2000/svg" version="1.1" viewBox="0.00 0.00 368.00 183.00">
<path fill="#00bf2d" d="
  M 11.45 1.19
  C 19.54 3.18 22.98 19.68 24.55 27.40
  Q 28.93 48.83 29.85 71.43
  C 30.61 89.98 30.96 122.96 33.96 146.25
  Q 35.08 154.87 35.33 159.17
  C 35.78 166.60 33.85 175.13 28.34 180.53
  C 23.78 185.01 17.41 180.68 14.00 176.77
  C 8.10 169.99 6.59 161.45 5.53 152.50
  Q 3.15 132.27 2.36 113.50
  C 1.52 93.46 1.00 75.74 1.35 52.84
  Q 1.68 31.36 0.60 13.76
  C 0.46 11.45 0.98 6.58 2.68 4.41
  C 4.83 1.68 8.10 0.36 11.45 1.19
  Z"
/>
<path fill="#00bf2d" d="
  M 109.60 22.96
  Q 118.65 24.62 123.30 32.66
  C 127.18 39.35 127.11 47.77 121.75 53.64
  C 114.54 61.54 102.76 61.40 95.09 54.14
  C 85.94 45.46 86.00 30.34 94.15 20.89
  C 95.42 19.41 99.46 16.77 101.71 16.39
  C 104.99 15.85 112.03 17.48 112.54 21.86
  A 0.65 0.65 0.0 0 1 111.90 22.59
  L 109.63 22.59
  A 0.19 0.19 0.0 0 0 109.60 22.96
  Z
  M 106.85 24.18
  A 1.34 1.34 0.0 0 0 104.96 24.85
  Q 102.43 31.01 104.19 38.90
  A 5.91 5.90 86.5 0 0 109.39 43.50
  L 109.82 43.54
  A 3.32 3.32 0.0 0 0 113.39 39.57
  Q 111.59 30.63 107.79 25.44
  Q 106.88 24.19 106.85 24.18
  Z"
/>
<path fill="#00bf2d" d="
  M 356.82 138.46
  Q 347.65 143.83 346.33 143.62
  Q 345.77 143.53 341.25 146.30
  Q 338.45 148.02 336.17 148.90
  Q 326.15 152.75 318.16 153.09
  Q 300.72 153.85 287.88 142.88
  C 270.46 128.01 267.75 103.41 276.95 83.19
  C 282.56 70.85 293.42 60.37 306.76 57.64
  C 319.05 55.13 331.43 60.20 338.91 69.86
  C 349.08 83.03 345.48 96.45 333.17 105.91
  Q 321.43 114.93 305.99 118.29
  Q 303.69 118.79 300.85 118.90
  A 0.42 0.42 0.0 0 0 300.55 119.60
  Q 304.90 124.58 310.74 127.85
  Q 323.96 135.24 334.49 137.89
  Q 339.56 139.17 342.57 139.34
  Q 349.85 139.76 350.32 139.16
  Q 353.07 135.69 356.10 135.73
  A 1.47 1.47 0.0 0 1 356.82 138.46
  Z
  M 296.26 109.43
  Q 311.77 105.91 324.99 96.24
  C 329.33 93.06 333.89 87.43 331.09 81.66
  C 327.16 73.55 317.59 68.42 308.67 71.00
  A 4.04 3.80 20.2 0 0 307.73 71.40
  C 295.47 78.43 292.82 96.38 295.48 108.93
  A 0.65 0.64 -12.2 0 0 296.26 109.43
  Z"
/>
<path fill="#00bf2d" d="
  M 230.26 76.48
  Q 230.25 77.28 230.51 77.52
  Q 243.35 88.92 242.71 107.53
  C 242.18 122.90 238.40 138.53 229.34 150.78
  Q 223.56 158.60 214.50 161.47
  C 211.15 162.53 209.22 162.04 205.54 161.20
  Q 198.95 159.71 194.23 153.75
  C 188.38 146.37 183.60 135.94 180.90 128.11
  Q 175.41 112.19 170.73 98.04
  Q 168.68 91.81 172.34 87.76
  C 175.55 84.22 180.43 83.79 184.34 86.71
  Q 186.20 88.10 188.34 91.66
  Q 190.80 95.77 193.54 101.46
  Q 203.82 122.88 204.08 123.40
  Q 206.79 128.74 209.16 132.34
  A 0.49 0.48 -48.6 0 0 210.00 132.28
  Q 214.58 122.95 216.20 111.73
  Q 216.51 109.61 217.50 101.23
  C 218.62 91.76 221.31 84.88 227.43 77.91
  Q 228.43 76.77 229.76 76.16
  A 0.35 0.35 0.0 0 1 230.26 76.48
  Z"
/>
<path fill="#00bf2d" d="
  M 121.26 176.26
  Q 119.09 176.66 116.37 174.66
  Q 109.34 169.49 106.16 161.11
  Q 102.98 152.75 101.38 143.42
  Q 97.20 119.17 98.98 94.62
  C 99.30 90.12 103.55 83.46 108.24 81.86
  Q 115.40 79.42 120.75 85.79
  Q 124.97 90.82 125.30 98.78
  Q 126.34 124.12 130.83 148.01
  Q 131.11 149.50 131.32 156.16
  Q 131.47 160.74 130.41 164.26
  C 129.10 168.62 126.03 175.36 121.26 176.26
  Z"
/>
</svg>
