<?xml version="1.0" encoding="UTF-8" standalone="no"?>
<!DOCTYPE svg PUBLIC "-//W3C//DTD SVG 1.1//EN" "http://www.w3.org/Graphics/SVG/1.1/DTD/svg11.dtd">
<svg xmlns="http://www.w3.org/2000/svg" version="1.1" viewBox="0.00 0.00 342.00 163.00">
<path fill="#00bf2d" d="
  M 18.33 162.32
  Q 16.59 159.93 15.61 157.64
  Q 11.29 147.44 9.38 140.91
  Q 7.96 136.04 6.81 123.28
  Q 2.10 71.22 1.63 58.99
  Q 0.91 40.27 0.30 22.26
  Q -0.11 10.17 0.68 4.19
  Q 0.82 3.13 2.61 1.18
  A 1.65 1.62 -74.5 0 1 3.46 0.69
  C 7.96 -0.26 10.75 7.26 11.65 10.57
  Q 15.45 24.55 18.43 42.04
  Q 20.25 52.64 21.70 74.04
  Q 23.07 94.19 26.40 129.89
  Q 26.74 133.60 25.32 141.96
  Q 23.53 152.46 19.29 162.21
  A 0.56 0.56 0.0 0 1 18.33 162.32
  Z"
/>
<path fill="#00bf2d" d="
  M 78.45 26.99
  A 5.14 5.11 -60.7 0 1 81.58 26.10
  Q 92.26 26.55 101.73 30.50
  Q 110.62 34.20 112.56 43.28
  C 113.46 47.51 111.23 53.06 107.75 56.10
  C 97.06 65.40 79.64 64.33 73.14 50.59
  C 69.45 42.79 71.22 31.93 78.45 26.99
  Z
  M 87.76 31.85
  C 86.96 35.43 84.49 39.94 87.03 44.19
  C 88.65 46.90 93.18 46.56 95.61 45.37
  A 0.88 0.88 0.0 0 0 96.00 44.17
  Q 92.38 37.14 88.12 31.77
  A 0.21 0.20 32.1 0 0 87.76 31.85
  Z"
/>
<path fill="#00bf2d" d="
  M 180.91 121.42
  Q 183.33 118.43 185.34 113.59
  C 189.56 103.42 192.34 91.55 195.68 79.95
  Q 197.12 74.95 200.71 67.13
  Q 204.87 58.06 206.52 54.04
  Q 207.25 52.25 206.90 51.07
  A 0.19 0.19 0.0 0 1 207.23 50.90
  Q 208.74 52.73 209.66 55.55
  C 212.86 65.23 213.55 75.43 211.63 85.78
  Q 208.55 102.35 203.28 116.99
  Q 200.88 123.65 196.79 130.04
  Q 192.58 136.60 185.81 139.27
  C 183.30 140.26 178.39 140.03 175.57 138.57
  Q 170.90 136.15 168.41 133.35
  C 156.88 120.39 149.30 104.72 142.59 87.90
  Q 140.93 83.75 141.56 80.97
  C 142.72 75.81 147.22 74.64 151.34 77.48
  Q 153.47 78.95 155.56 82.73
  Q 161.64 93.72 169.68 107.32
  Q 174.17 114.92 179.73 121.44
  A 0.77 0.77 0.0 0 0 180.91 121.42
  Z"
/>
<path fill="#00bf2d" d="
  M 333.61 120.25
  Q 324.94 126.01 320.48 127.74
  Q 316.92 129.12 312.62 130.96
  A 4.81 4.74 -62.1 0 1 311.67 131.26
  C 306.21 132.38 300.74 134.19 295.78 134.64
  Q 285.96 135.54 278.04 134.46
  C 262.20 132.29 247.09 121.62 242.06 105.99
  C 237.93 93.15 242.21 80.04 251.97 70.99
  C 261.71 61.97 277.05 56.98 290.62 60.83
  C 299.33 63.31 305.92 69.89 305.80 79.31
  C 305.69 87.95 299.56 95.88 292.76 101.28
  Q 282.66 109.29 269.78 112.75
  A 0.24 0.24 0.0 0 0 269.71 113.18
  Q 281.76 120.68 296.00 124.36
  C 300.05 125.41 304.98 125.89 309.00 126.22
  Q 319.41 127.07 328.93 122.85
  A 5.17 5.10 -74.4 0 0 329.82 122.34
  Q 332.31 120.59 333.51 120.08
  A 0.10 0.10 0.0 0 1 333.61 120.25
  Z
  M 259.07 99.11
  C 270.03 96.17 279.41 92.31 287.60 84.60
  C 289.84 82.50 294.47 76.66 289.02 75.27
  Q 281.00 73.23 272.50 76.26
  C 263.02 79.65 255.82 88.28 258.29 98.65
  A 0.63 0.63 0.0 0 0 259.07 99.11
  Z"
/>
<path fill="#00bf2d" d="
  M 79.38 87.93
  C 80.66 76.96 94.32 75.21 97.11 86.26
  A 3.78 3.37 -55.8 0 1 97.21 87.02
  Q 97.28 89.02 96.78 114.75
  Q 96.53 127.48 98.44 140.00
  Q 98.74 141.97 97.34 146.62
  C 96.10 150.72 91.47 153.66 87.16 152.16
  C 82.51 150.54 80.32 145.20 79.42 140.85
  Q 77.88 133.37 77.84 114.78
  Q 77.80 101.51 79.38 87.93
  Z"
/>
</svg>
