<?xml version="1.0" encoding="UTF-8" standalone="no"?>
<!DOCTYPE svg PUBLIC "-//W3C//DTD SVG 1.1//EN" "http://www.w3.org/Graphics/SVG/1.1/DTD/svg11.dtd">
<svg xmlns="http://www.w3.org/2000/svg" version="1.1" viewBox="0.00 0.00 346.00 158.00">
<path fill="#00bf2d" d="
  M 79.38 4.07
  Q 80.26 4.01 83.58 2.59
  Q 90.31 -0.29 98.31 0.68
  C 106.23 1.64 112.13 5.97 114.42 13.37
  C 117.97 24.84 108.85 41.07 96.01 41.25
  C 88.34 41.36 82.94 33.17 81.98 26.53
  Q 80.37 15.36 86.02 5.53
  A 0.56 0.56 0.0 0 0 85.58 4.69
  L 79.38 4.14
  A 0.04 0.03 45.3 0 1 79.38 4.07
  Z
  M 89.34 6.80
  C 87.65 12.05 86.40 18.19 88.15 23.32
  C 89.69 27.85 94.71 30.78 98.59 26.59
  Q 101.75 23.19 101.89 18.63
  A 3.05 2.91 39.2 0 0 101.78 17.76
  C 100.59 13.50 93.39 8.66 89.72 6.64
  A 0.27 0.27 0.0 0 0 89.34 6.80
  Z"
/>
<path fill="#00bf2d" d="
  M 33.18 156.17
  A 1.81 1.80 -73.3 0 1 30.55 157.59
  Q 23.59 153.93 18.53 147.21
  Q 15.17 142.74 12.50 132.60
  Q 8.72 118.25 6.74 106.51
  C 3.30 86.08 1.32 65.39 1.14 43.33
  Q 1.06 32.59 0.46 13.01
  C 0.36 9.92 0.88 5.83 3.39 3.58
  Q 6.26 0.99 10.07 2.58
  C 14.30 4.35 15.03 9.19 15.66 14.28
  Q 17.41 28.30 21.55 74.03
  Q 24.33 104.68 32.77 135.40
  Q 34.12 140.31 33.92 145.27
  Q 33.69 150.98 33.18 156.17
  Z"
/>
<path fill="#00bf2d" d="
  M 219.99 59.87
  C 220.61 65.17 220.94 69.66 221.58 75.85
  Q 222.81 87.84 220.54 98.07
  Q 217.10 113.60 208.89 127.17
  C 205.13 133.39 198.41 141.96 190.39 141.11
  Q 183.51 140.38 179.53 134.73
  Q 176.93 131.05 175.20 127.54
  Q 163.93 104.66 160.55 79.50
  Q 160.00 75.38 162.48 72.39
  A 2.16 2.12 -77.6 0 1 163.52 71.71
  C 168.51 70.32 170.88 76.10 172.11 80.21
  C 176.34 94.40 181.00 108.50 189.18 121.08
  A 0.67 0.67 0.0 0 0 190.28 121.12
  Q 194.78 115.04 197.77 107.54
  C 202.42 95.85 204.87 88.12 210.05 78.12
  Q 215.72 67.16 218.99 61.49
  Q 219.25 61.04 219.61 59.84
  A 0.20 0.19 -40.3 0 1 219.99 59.87
  Z"
/>
<path fill="#00bf2d" d="
  M 92.30 65.82
  C 96.76 61.88 101.90 65.12 101.97 70.47
  Q 102.02 74.21 101.10 83.50
  C 99.61 98.54 101.89 114.03 103.40 129.02
  Q 103.93 134.22 101.31 138.78
  C 99.10 142.64 95.54 144.24 91.97 140.78
  C 87.06 136.04 86.09 129.22 85.29 122.50
  Q 82.41 98.30 88.35 74.59
  Q 89.47 70.14 91.79 66.42
  A 3.15 2.72 89.6 0 1 92.30 65.82
  Z"
/>
<path fill="#00bf2d" d="
  M 338.62 123.87
  Q 331.19 131.28 320.84 136.33
  Q 317.72 137.86 311.92 140.11
  Q 304.06 143.17 294.45 143.14
  Q 277.23 143.08 265.04 132.20
  C 255.11 123.33 250.75 109.10 252.27 95.71
  C 253.83 81.95 261.07 71.23 274.14 66.19
  C 281.69 63.28 289.87 63.48 297.04 67.16
  C 303.23 70.34 308.66 76.88 307.35 84.16
  Q 306.54 88.70 302.68 93.17
  Q 294.88 102.22 282.93 106.63
  Q 276.28 109.08 272.17 109.64
  A 0.64 0.63 74.0 0 0 271.68 110.54
  Q 276.36 120.48 286.61 124.48
  Q 298.05 128.96 308.74 130.26
  Q 314.32 130.93 323.61 129.85
  Q 331.96 128.88 338.50 123.74
  A 0.09 0.09 0.0 0 1 338.62 123.87
  Z
  M 269.93 102.08
  A 0.40 0.40 0.0 0 0 270.54 102.39
  Q 273.52 100.62 277.07 99.25
  Q 281.00 97.74 283.63 96.20
  Q 292.11 91.25 297.01 84.64
  Q 298.87 82.14 297.19 80.44
  A 1.89 1.70 -9.9 0 0 296.52 80.02
  Q 288.74 77.32 280.27 81.19
  C 271.63 85.13 269.14 93.29 269.93 102.08
  Z"
/>
</svg>
