<?xml version="1.0" encoding="UTF-8" standalone="no"?>
<!DOCTYPE svg PUBLIC "-//W3C//DTD SVG 1.1//EN" "http://www.w3.org/Graphics/SVG/1.1/DTD/svg11.dtd">
<svg xmlns="http://www.w3.org/2000/svg" version="1.1" viewBox="0.00 0.00 482.00 223.00">
<path fill="#00bf2d" d="
  M 31.51 223.00
  Q 31.44 222.99 31.37 223.00
  Q 19.04 222.14 13.57 211.19
  Q 12.22 208.50 9.76 198.03
  Q 7.05 186.54 5.39 169.68
  Q 3.84 153.86 3.22 137.50
  Q 1.90 102.66 0.70 63.83
  C 0.27 49.76 0.35 37.02 1.32 25.53
  Q 1.48 23.63 2.60 18.68
  C 3.80 13.40 7.25 8.67 10.76 5.46
  C 19.11 -2.18 31.18 -0.15 36.86 9.44
  Q 38.58 12.35 39.90 18.09
  Q 40.56 20.92 40.11 27.13
  Q 38.90 44.26 40.08 77.25
  Q 40.81 97.76 42.01 132.75
  Q 42.71 153.24 44.92 172.78
  Q 46.33 185.27 49.12 194.91
  Q 51.17 202.00 50.77 204.96
  C 49.38 215.19 41.92 222.29 31.51 223.00
  Z"
/>
<path fill="#00bf2d" d="
  M 168.92 47.13
  C 166.36 65.54 149.63 77.21 131.94 79.19
  Q 127.15 79.72 122.79 78.96
  Q 99.60 74.86 92.85 53.53
  Q 89.87 44.09 93.23 33.98
  Q 94.52 30.07 98.98 23.87
  Q 101.70 20.10 106.10 14.62
  Q 106.98 13.52 113.10 10.09
  C 136.61 -3.09 172.73 19.67 168.92 47.13
  Z
  M 101.35 22.44
  Q 101.51 22.71 104.33 20.76
  Q 104.46 20.67 104.41 20.59
  Q 104.37 20.51 104.23 20.59
  Q 101.18 22.17 101.35 22.44
  Z
  M 100.8596 22.8847
  A 0.35 0.01 -44.5 0 0 100.6030 23.1229
  A 0.35 0.01 -44.5 0 0 100.3604 23.3753
  A 0.35 0.01 -44.5 0 0 100.6170 23.1371
  A 0.35 0.01 -44.5 0 0 100.8596 22.8847
  Z
  M 125.43 28.71
  L 125.82 29.89
  A 0.85 0.85 0.0 0 1 125.82 30.43
  Q 123.69 36.43 123.19 42.01
  Q 123.07 43.33 123.98 45.33
  A 1.23 1.22 88.2 0 0 124.68 45.99
  C 130.14 48.03 136.67 45.31 140.86 41.88
  A 1.80 1.79 -37.4 0 0 141.19 39.47
  Q 139.79 37.49 138.21 36.34
  Q 134.33 33.50 125.85 28.38
  A 0.29 0.28 6.6 0 0 125.43 28.71
  Z"
/>
<path fill="#00bf2d" d="
  M 472.39 161.58
  A 0.26 0.25 64.9 0 1 472.73 161.71
  L 472.73 161.72
  A 0.24 0.24 0.0 0 1 472.61 162.04
  Q 464.23 165.74 460.01 167.56
  Q 457.18 168.78 449.40 172.46
  Q 431.61 180.88 412.52 181.65
  C 392.00 182.48 371.94 174.04 360.61 156.76
  C 345.65 133.95 353.26 105.94 370.30 86.85
  C 383.28 72.32 402.60 63.72 421.53 69.92
  C 438.97 75.64 449.94 92.84 444.27 111.03
  Q 440.92 121.79 432.84 130.35
  C 424.84 138.82 413.68 146.75 402.14 148.97
  A 0.20 0.20 0.0 0 0 402.08 149.35
  Q 421.32 159.08 441.69 163.81
  Q 446.02 164.82 456.47 165.03
  Q 464.04 165.18 472.39 161.58
  Z
  M 385.30 131.78
  Q 388.59 132.01 392.62 131.10
  C 406.04 128.05 419.88 117.26 425.20 104.25
  Q 429.34 94.14 419.60 90.95
  C 403.45 85.64 390.72 99.64 385.98 113.22
  Q 382.95 121.88 384.34 130.90
  A 1.05 1.05 0.0 0 0 385.30 131.78
  Z"
/>
<path fill="#00bf2d" d="
  M 296.06 82.66
  Q 296.04 85.16 297.21 87.55
  C 298.93 91.09 302.90 96.56 305.01 101.25
  Q 310.26 112.90 311.65 123.54
  C 314.12 142.48 307.52 163.33 294.01 177.24
  Q 284.25 187.28 272.95 189.40
  Q 267.92 190.34 263.59 189.45
  Q 258.10 188.33 254.76 186.26
  C 245.09 180.26 238.89 169.83 233.75 159.75
  Q 225.26 143.06 220.52 124.76
  Q 218.90 118.50 218.49 112.52
  Q 217.90 103.96 224.26 100.35
  Q 226.37 99.15 229.00 99.45
  C 234.34 100.05 238.13 105.52 240.73 110.33
  Q 249.04 125.69 259.75 144.25
  Q 263.18 150.18 267.02 154.50
  A 0.54 0.53 -40.7 0 0 267.76 154.55
  C 274.14 149.33 277.70 140.08 280.09 132.09
  Q 286.55 110.54 288.31 105.55
  Q 295.69 84.65 296.00 82.65
  A 0.03 0.03 0.0 0 1 296.06 82.66
  Z"
/>
<path fill="#00bf2d" d="
  M 126.76 96.02
  C 137.80 93.64 143.12 103.33 144.36 112.83
  Q 147.65 138.02 151.64 163.04
  Q 153.25 173.14 153.37 178.53
  Q 153.41 180.07 152.91 185.42
  C 152.35 191.32 148.58 196.71 144.23 199.81
  C 134.71 206.60 122.99 199.31 118.85 189.91
  Q 116.25 184.00 115.12 177.37
  C 111.72 157.43 112.48 137.25 114.58 116.09
  C 115.30 108.89 118.43 97.82 126.76 96.02
  Z"
/>
<path fill="#00bf2d" d="
  M 474.34 161.14
  Q 474.27 161.22 473.91 161.29
  A 0.26 0.26 0.0 0 1 473.79 160.79
  Q 474.05 160.71 474.25 160.78
  A 0.22 0.21 31.5 0 1 474.34 161.14
  Z"
/>
</svg>
