<?xml version="1.0" encoding="UTF-8" standalone="no"?>
<!DOCTYPE svg PUBLIC "-//W3C//DTD SVG 1.1//EN" "http://www.w3.org/Graphics/SVG/1.1/DTD/svg11.dtd">
<svg xmlns="http://www.w3.org/2000/svg" version="1.1" viewBox="0.00 0.00 434.00 217.00">
<path fill="#00bf2d" d="
  M 29.94 33.44
  Q 29.90 33.54 29.89 33.79
  C 29.39 49.29 30.18 62.49 31.26 85.76
  Q 32.47 111.69 35.07 136.24
  Q 37.67 160.74 43.71 186.50
  Q 45.86 195.63 42.47 204.18
  Q 39.87 210.73 39.34 211.93
  A 4.15 3.79 -17.6 0 1 38.81 212.85
  L 36.59 215.78
  A 2.37 2.37 0.0 0 1 33.07 216.06
  Q 25.97 209.28 23.69 207.14
  Q 17.85 201.68 15.47 192.06
  C 8.63 164.42 5.39 136.33 3.57 108.25
  Q 2.06 85.00 1.23 62.25
  Q 0.59 45.03 0.97 28.25
  Q 1.17 19.56 2.55 13.53
  C 4.02 7.11 10.25 -0.80 17.87 0.70
  C 24.69 2.05 27.40 6.16 29.16 12.86
  C 30.69 18.68 29.34 28.16 30.01 32.78
  A 1.40 1.00 60.6 0 1 29.94 33.44
  Z"
/>
<path fill="#00bf2d" d="
  M 98.18 19.47
  C 103.78 18.62 109.23 17.26 113.70 17.26
  Q 120.62 17.25 127.73 18.57
  C 140.14 20.86 150.30 29.21 153.32 41.66
  C 154.69 47.34 153.14 54.99 149.88 60.11
  C 144.06 69.26 133.49 74.75 122.53 73.01
  C 102.72 69.88 95.74 48.12 100.78 30.99
  Q 102.12 26.45 104.91 23.15
  A 0.59 0.58 -52.8 0 0 104.80 22.29
  Q 102.23 20.56 98.18 19.83
  A 0.18 0.18 0.0 0 1 98.18 19.47
  Z
  M 120.79 35.14
  C 120.10 38.82 119.93 46.38 122.56 49.45
  Q 123.83 50.92 124.47 51.05
  Q 128.38 51.82 130.67 48.86
  A 2.08 2.05 -20.3 0 0 131.07 48.01
  Q 131.51 46.09 130.92 45.01
  C 128.82 41.20 124.80 37.97 121.43 34.93
  A 0.39 0.39 0.0 0 0 120.79 35.14
  Z"
/>
<path fill="#00bf2d" d="
  M 428.28 169.55
  Q 420.68 177.54 412.75 182.39
  Q 401.84 189.08 388.22 190.46
  C 374.36 191.87 361.34 187.21 350.77 178.51
  Q 328.43 160.13 324.46 132.32
  Q 322.84 120.94 326.05 109.58
  C 330.88 92.45 345.83 79.42 364.21 79.87
  C 372.44 80.07 380.41 83.58 384.98 90.62
  C 390.48 99.08 388.15 109.06 382.87 117.36
  C 376.34 127.61 366.19 134.98 355.21 140.13
  A 0.62 0.62 0.0 0 0 354.94 141.01
  Q 362.35 153.27 374.51 160.99
  C 381.87 165.66 390.63 170.27 397.92 172.92
  Q 407.58 176.44 418.48 174.34
  Q 422.21 173.62 427.98 169.22
  A 0.22 0.22 0.0 0 1 428.28 169.55
  Z
  M 348.90 121.36
  Q 359.80 115.62 366.96 106.50
  Q 369.33 103.47 370.15 100.71
  A 1.57 1.56 -71.6 0 0 369.20 98.80
  Q 365.96 97.57 362.42 98.35
  Q 351.94 100.66 349.17 110.39
  Q 347.64 115.79 348.34 121.06
  A 0.39 0.38 72.6 0 0 348.90 121.36
  Z"
/>
<path fill="#00bf2d" d="
  M 277.89 80.65
  A 0.13 0.13 0.0 0 1 278.15 80.64
  Q 278.94 84.51 280.46 87.72
  C 286.56 100.61 291.44 110.59 291.96 122.75
  C 292.93 145.30 283.16 179.94 259.17 189.29
  A 4.10 4.00 30.4 0 1 258.24 189.52
  C 253.03 190.19 250.58 190.81 246.38 189.34
  Q 238.15 186.44 231.94 178.77
  Q 225.34 170.60 218.80 157.12
  Q 215.14 149.57 210.85 135.29
  Q 208.21 126.51 201.87 110.13
  C 199.29 103.48 204.49 99.55 209.35 105.65
  C 213.30 110.62 217.02 117.02 220.30 121.50
  Q 230.26 135.08 242.65 152.85
  C 244.58 155.61 247.96 159.78 250.29 161.68
  A 0.84 0.83 43.6 0 0 251.38 161.66
  C 257.69 155.90 261.53 144.37 263.06 136.29
  Q 264.41 129.14 266.25 118.00
  Q 267.79 108.58 272.70 96.15
  Q 273.15 95.00 274.73 89.93
  C 275.83 86.43 277.38 83.82 277.89 80.65
  Z"
/>
<path fill="#00bf2d" d="
  M 141.41 103.81
  Q 143.10 107.15 143.50 112.52
  Q 143.72 115.52 145.13 136.27
  Q 146.08 150.18 150.83 167.87
  Q 153.52 177.88 147.95 185.55
  C 141.86 193.92 132.46 189.39 127.11 182.86
  C 124.64 179.85 122.93 174.92 121.87 170.92
  Q 114.36 142.53 115.77 112.75
  C 116.07 106.45 118.37 100.62 124.32 97.83
  C 130.75 94.82 138.37 97.80 141.41 103.81
  Z"
/>
</svg>
