<?xml version="1.0" encoding="UTF-8" standalone="no"?>
<!DOCTYPE svg PUBLIC "-//W3C//DTD SVG 1.1//EN" "http://www.w3.org/Graphics/SVG/1.1/DTD/svg11.dtd">
<svg xmlns="http://www.w3.org/2000/svg" version="1.1" viewBox="0.00 0.00 393.00 200.00">
<path fill="#00bf2d" d="
  M 13.87 0.00
  C 19.23 1.74 21.29 6.10 21.68 11.53
  C 22.36 21.08 22.80 30.15 23.81 39.76
  C 26.20 62.63 26.61 78.86 27.69 109.18
  C 28.21 123.98 29.26 140.66 29.78 154.00
  C 30.36 168.95 30.27 180.96 23.21 193.37
  C 21.92 195.65 19.94 197.44 18.30 199.02
  A 0.96 0.96 0.0 0 1 16.92 198.97
  Q 6.24 187.28 3.33 171.44
  Q 1.75 162.82 1.21 154.50
  Q 0.44 142.68 0.00 126.51
  L 0.00 99.62
  Q 0.57 67.81 0.64 35.99
  C 0.65 31.33 1.01 24.66 1.35 19.04
  Q 1.66 13.76 3.31 7.78
  Q 4.95 1.82 10.75 0.00
  L 13.87 0.00
  Z"
/>
<path fill="#00bf2d" d="
  M 84.90 10.01
  C 88.98 7.03 94.31 6.55 99.29 7.73
  C 107.47 9.67 114.86 13.59 120.00 20.37
  Q 126.36 28.79 122.13 37.56
  A 4.67 4.55 79.7 0 1 121.43 38.60
  Q 116.36 44.36 110.45 44.89
  Q 95.96 46.19 87.47 36.58
  C 80.90 29.13 82.92 18.04 92.96 14.74
  A 0.31 0.31 0.0 0 0 93.08 14.22
  C 90.61 11.80 88.58 9.44 85.01 10.27
  A 0.15 0.14 -68.9 0 1 84.90 10.01
  Z
  M 107.93 29.27
  L 97.59 18.92
  A 0.80 0.79 -40.5 0 0 96.56 18.84
  C 94.76 20.14 92.89 21.64 93.62 24.33
  C 95.14 29.97 102.69 31.72 107.58 30.53
  A 0.75 0.75 0.0 0 0 107.93 29.27
  Z"
/>
<path fill="#00bf2d" d="
  M 249.03 67.86
  Q 252.96 66.97 254.82 69.15
  Q 260.21 75.44 260.41 85.30
  C 260.62 96.40 256.96 105.90 252.54 116.90
  C 247.72 128.89 242.45 144.47 239.33 152.85
  Q 235.98 161.84 232.45 167.95
  C 230.73 170.92 226.67 175.54 223.50 177.25
  C 215.37 181.66 207.08 177.44 202.04 169.89
  Q 191.80 154.58 185.82 136.44
  C 182.47 126.31 179.23 114.48 175.44 100.29
  Q 175.05 98.83 175.26 96.00
  Q 175.74 89.47 181.83 87.77
  C 186.92 86.35 191.15 91.63 193.25 95.99
  C 199.14 108.22 205.00 126.44 208.09 134.64
  Q 208.94 136.91 211.78 143.14
  A 0.25 0.25 0.0 0 0 212.24 143.12
  Q 220.19 119.87 228.50 99.26
  Q 235.35 82.28 249.22 70.28
  A 1.92 1.87 -34.1 0 0 249.69 68.00
  Q 249.65 67.90 249.04 67.95
  A 0.05 0.04 -52.2 0 1 249.03 67.86
  Z"
/>
<path fill="#00bf2d" d="
  M 101.77 167.14
  C 99.43 165.92 95.97 162.32 94.58 159.48
  C 90.35 150.85 89.81 140.43 90.42 131.00
  Q 91.68 111.33 96.81 89.80
  C 98.12 84.31 99.74 79.03 105.09 77.32
  C 109.94 75.76 114.58 78.59 116.51 83.25
  C 117.31 85.19 117.46 90.17 117.41 92.62
  Q 117.02 111.54 117.01 114.26
  Q 116.97 130.66 118.20 150.97
  Q 118.59 157.41 115.50 163.20
  Q 110.87 171.85 101.77 167.14
  Z"
/>
<path fill="#00bf2d" d="
  M 382.79 151.88
  Q 372.03 156.78 365.03 159.81
  C 362.99 160.69 361.14 161.91 359.31 162.65
  Q 349.72 166.52 339.79 168.74
  C 321.51 172.82 299.00 169.62 284.53 156.69
  C 270.08 143.78 269.37 126.09 277.99 109.50
  C 284.17 97.61 296.31 86.51 310.17 85.10
  Q 323.24 83.77 332.12 91.88
  Q 340.94 99.93 339.15 111.46
  C 336.99 125.35 320.55 135.84 307.97 139.45
  A 0.26 0.26 0.0 0 0 307.93 139.94
  Q 313.68 142.70 322.07 144.67
  Q 339.59 148.79 349.46 151.00
  Q 356.08 152.48 359.91 152.82
  Q 369.68 153.68 370.50 153.61
  Q 376.39 153.15 382.66 151.52
  A 0.19 0.19 0.0 0 1 382.79 151.88
  Z
  M 300.19 123.82
  Q 313.33 120.49 321.01 111.59
  C 323.56 108.64 322.13 105.77 318.51 105.14
  C 308.81 103.46 301.95 115.76 299.68 123.29
  A 0.42 0.42 0.0 0 0 300.19 123.82
  Z"
/>
</svg>
