<?xml version="1.0" encoding="UTF-8" standalone="no"?>
<!DOCTYPE svg PUBLIC "-//W3C//DTD SVG 1.1//EN" "http://www.w3.org/Graphics/SVG/1.1/DTD/svg11.dtd">
<svg xmlns="http://www.w3.org/2000/svg" version="1.1" viewBox="0.00 0.00 461.00 232.00">
<path fill="#00bf2d" d="
  M 17.63 0.00
  Q 22.10 1.58 23.38 4.68
  Q 26.04 11.14 27.26 24.51
  C 29.65 50.89 31.45 79.09 30.78 106.00
  Q 29.76 146.96 29.40 184.94
  Q 29.26 200.16 25.43 214.58
  C 23.74 220.96 22.77 224.88 20.58 230.60
  A 1.26 1.26 0.0 0 1 18.69 231.19
  C 16.33 229.58 15.31 227.67 13.96 225.26
  Q 6.09 211.28 3.57 199.72
  Q 1.80 191.59 1.26 178.52
  C 0.46 159.30 1.51 138.89 2.56 117.25
  Q 3.02 107.76 4.18 91.77
  Q 6.50 59.87 7.28 27.96
  Q 7.41 22.48 7.84 18.06
  C 8.50 11.13 8.48 3.10 15.63 0.00
  L 17.63 0.00
  Z"
/>
<path fill="#00bf2d" d="
  M 89.74 42.77
  L 92.61 38.68
  A 2.42 2.37 70.9 0 0 92.95 37.96
  C 93.81 34.68 94.22 30.84 95.65 28.45
  C 97.99 24.54 101.99 19.88 106.91 22.50
  A 0.46 0.46 0.0 0 1 107.10 23.13
  L 104.84 27.04
  A 0.20 0.20 0.0 0 0 105.09 27.32
  C 112.16 24.18 121.38 21.12 129.75 21.96
  C 141.16 23.11 149.61 32.62 150.83 43.79
  C 153.04 63.91 129.17 70.51 114.13 67.29
  C 101.31 64.55 92.27 53.41 93.10 40.13
  A 0.31 0.31 0.0 0 0 92.58 39.89
  L 89.74 42.77
  Z
  M 103.01 35.39
  Q 101.88 44.39 107.78 51.17
  C 112.57 56.67 122.12 57.23 128.52 55.04
  Q 130.74 54.28 131.09 52.29
  C 131.96 47.28 128.29 43.49 124.42 40.80
  Q 115.15 34.38 103.60 34.84
  A 0.63 0.62 -87.2 0 0 103.01 35.39
  Z"
/>
<path fill="#00bf2d" d="
  M 89.74 42.77
  Q 89.65 43.06 89.47 43.33
  A 0.11 0.10 -13.0 0 1 89.29 43.22
  Q 89.43 42.97 89.74 42.77
  Z"
/>
<path fill="#00bf2d" d="
  M 269.03 85.26
  A 0.54 0.54 0.0 0 1 269.98 85.50
  Q 271.45 92.95 272.28 97.99
  Q 275.91 120.01 272.22 136.72
  C 267.60 157.61 259.22 178.40 246.76 195.74
  C 239.78 205.46 230.17 215.69 218.73 217.26
  Q 214.49 217.85 210.01 216.37
  C 197.69 212.28 190.56 195.87 186.84 184.68
  Q 178.08 158.37 174.29 130.74
  Q 173.26 123.23 173.32 119.50
  C 173.37 115.52 173.50 111.07 176.32 108.45
  Q 179.01 105.94 181.61 106.39
  C 186.86 107.30 188.71 112.17 189.66 117.29
  Q 192.13 130.69 193.88 138.93
  Q 197.80 157.44 205.21 176.80
  C 207.23 182.08 210.51 188.63 214.70 192.92
  A 0.86 0.85 -40.1 0 0 215.83 193.01
  C 225.47 185.78 232.85 173.20 237.98 161.75
  C 244.51 147.20 249.19 130.35 252.70 119.45
  Q 254.72 113.19 260.37 101.47
  C 262.98 96.05 265.13 90.04 269.03 85.26
  Z"
/>
<path fill="#00bf2d" d="
  M 103.94 101.21
  C 111.51 90.73 126.54 98.66 123.74 110.78
  Q 120.88 123.13 119.36 130.06
  C 115.31 148.51 113.80 169.01 112.77 189.48
  Q 112.33 198.34 108.10 205.78
  Q 103.18 214.43 95.44 208.34
  C 86.68 201.45 85.72 188.71 86.24 178.00
  Q 87.89 144.30 98.29 112.79
  Q 100.59 105.84 103.94 101.21
  Z"
/>
<path fill="#00bf2d" d="
  M 453.73 175.47
  C 450.77 177.96 447.86 180.71 444.73 182.75
  Q 440.51 185.50 436.28 188.27
  Q 431.23 191.59 423.01 194.73
  C 414.45 197.99 406.71 200.89 398.39 202.34
  C 392.74 203.33 387.58 204.73 381.82 205.27
  Q 370.06 206.35 366.75 206.21
  Q 359.15 205.89 354.53 205.38
  C 335.99 203.38 317.62 195.39 304.42 181.93
  Q 296.22 173.57 292.13 161.08
  C 288.17 149.01 290.05 134.83 297.16 124.56
  C 310.69 105.02 341.39 99.40 361.45 112.54
  Q 368.41 117.10 371.27 124.71
  Q 371.87 126.30 372.08 129.64
  C 372.47 135.82 368.64 142.19 364.20 146.47
  C 354.45 155.85 341.06 161.71 327.94 164.29
  A 0.35 0.35 0.0 0 0 327.78 164.90
  C 335.35 171.31 344.01 175.49 353.83 178.52
  Q 377.98 185.98 403.31 187.89
  Q 408.80 188.30 414.78 187.94
  Q 422.63 187.47 426.23 187.06
  Q 435.16 186.04 443.95 181.89
  C 447.37 180.28 450.45 177.70 453.73 175.47
  Z
  M 318.50 148.44
  C 330.36 143.75 342.47 141.47 351.76 131.65
  A 0.76 0.76 0.0 0 0 351.51 130.43
  Q 341.88 126.34 331.79 129.04
  Q 317.15 132.96 318.12 148.20
  A 0.28 0.28 0.0 0 0 318.50 148.44
  Z"
/>
<path fill="#00bf2d" d="
  M 453.73 175.47
  Q 453.81 175.24 453.99 175.09
  A 0.08 0.08 0.0 0 1 454.10 175.20
  Q 453.93 175.36 453.73 175.47
  Z"
/>
</svg>
