<svg width="512" height="512" viewBox="0 0 512 512" xmlns="http://www.w3.org/2000/svg">
		<defs>
			<clipPath id="rounded-corner-default">
				<rect x="0" y="0" width="512" height="512" rx="140" ry="140" />
			</clipPath>
			<linearGradient id="background-gradient-default" x1="0%" y1="0%" x2="0%" y2="100%">
				<stop offset="0%" style="stop-color:#1a1a1a;stop-opacity:1" />
				<stop offset="100%" style="stop-color:#000000;stop-opacity:1" />
			</linearGradient>
		</defs>

		<g clip-path="url(#rounded-corner-default)" transform="translate(0, 0) scale(1)">
			<!-- Background -->
			<rect width="512" height="512" fill="url(#background-gradient-default)" />
			
			<!-- Shadow lines -->
			<g opacity="0.3">
				<path stroke="hsl(-60, 75%, 50%)" stroke-width="24" stroke-linecap="round" fill="none" d="M -130.8,-123.8 L -69.5,-47.3 L -8.2,-66.8 L 37.7,-54.3 L 66.8,-73.8 L 93.4,-29.3 L 133.8,-16.8 L 191.9,27.7 L 255.1,8.2 L 306.3,20.7 L 339.2,33.2 L 364.6,45.7 L 400.0,58.2 L 453.8,70.7 L 517.4,51.2 L 573.3,95.7 L 611.0,108.2" />
				<path stroke="hsl(0, 75%, 50%)" stroke-width="24" stroke-linecap="round" fill="none" d="M -114.0,57.0 L -52.7,37.5 L -6.8,50.0 L 22.3,62.5 L 48.9,75.0 L 89.3,87.5 L 147.4,100.0 L 210.6,80.5 L 261.8,125.0 L 294.7,137.5 L 320.1,182.0 L 355.5,162.5 L 409.3,175.0 L 472.9,155.5 L 528.8,200.0 L 566.5,212.5 L 592.2,225.0" />
				<path stroke="hsl(60, 75%, 50%)" stroke-width="24" stroke-linecap="round" fill="none" d="M -97.2,109.8 L -51.3,154.3 L -22.2,166.8 L 4.4,211.3 L 44.8,191.8 L 102.9,204.3 L 166.1,184.8 L 217.3,229.3 L 250.2,241.8 L 275.6,254.3 L 311.0,266.8 L 364.8,279.3 L 428.4,291.8 L 484.3,304.3 L 522.0,316.8 L 547.7,329.3 L 578.8,309.8" />
				<path stroke="hsl(120, 75%, 50%)" stroke-width="24" stroke-linecap="round" fill="none" d="M -95.8,243.2 L -66.7,255.7 L -40.1,268.2 L 0.3,280.7 L 58.4,293.2 L 121.6,305.7 L 172.8,318.2 L 205.7,330.7 L 231.1,343.2 L 266.5,323.7 L 320.3,368.2 L 383.9,380.7 L 439.8,425.2 L 477.5,405.7 L 503.2,418.2 L 534.3,430.7 L 583.0,443.2" />
				<path stroke="hsl(180, 75%, 50%)" stroke-width="24" stroke-linecap="round" fill="none" d="M -111.2,327.8 L -84.6,340.3 L -44.2,320.8 L 13.9,365.3 L 77.1,377.8 L 128.3,422.3 L 161.2,402.8 L 186.6,415.3 L 222.0,427.8 L 275.8,440.3 L 339.4,452.8 L 395.3,465.3 L 433.0,477.8 L 458.7,490.3 L 489.8,502.8 L 538.5,547.3 L 601.0,527.8" />
				<path stroke="hsl(240, 75%, 50%)" stroke-width="24" stroke-linecap="round" fill="none" d="M -129.1,409.9 L -88.7,422.4 L -30.6,434.9 L 32.6,447.4 L 83.8,459.9 L 116.7,472.4 L 142.1,484.9 L 177.5,497.4 L 231.3,541.9 L 294.9,522.4 L 350.8,534.9 L 388.5,515.4 L 414.2,559.9 L 445.3,572.4 L 494.0,616.9 L 556.5,597.4 L 616.3,609.9" />
				<path stroke="hsl(300, 75%, 50%)" stroke-width="24" stroke-linecap="round" fill="none" d="M -133.2,505.8 L -75.1,550.3 L -11.9,530.8 L 39.3,543.3 L 72.2,523.8 L 97.6,568.3 L 133.0,580.8 L 186.8,625.3 L 250.4,605.8 L 306.3,618.3 L 344.0,630.8 L 369.7,643.3 L 400.8,655.8 L 449.5,668.3 L 512.0,648.8 L 571.8,693.3 L 614.7,705.8" />
				<path stroke="hsl(0, 75%, 50%)" stroke-width="24" stroke-linecap="round" fill="none" d="M -119.6,651.4 L -56.4,631.9 L -5.2,644.4 L 27.7,656.9 L 53.1,669.4 L 88.5,681.9 L 142.3,694.4 L 205.9,674.9 L 261.8,719.4 L 299.5,731.9 L 325.2,776.4 L 356.3,756.9 L 405.0,769.4 L 467.5,749.9 L 527.3,794.4 L 570.2,806.9 L 597.8,819.4" />
			</g>

			<!-- Main lines -->
			<g>
				<path stroke="hsl(-60, 75%, 50%)" stroke-width="24" stroke-linecap="round" fill="none" d="M -116.8,-133.8 L -55.5,-57.3 L 5.8,-76.8 L 51.7,-64.3 L 80.8,-83.8 L 107.4,-39.3 L 147.8,-26.8 L 205.9,17.7 L 269.1,-1.8 L 320.3,10.7 L 353.2,23.2 L 378.6,35.7 L 414.0,48.2 L 467.8,60.7 L 531.4,41.2 L 587.3,85.7 L 625.0,98.2" />
				<path stroke="hsl(0, 75%, 50%)" stroke-width="24" stroke-linecap="round" fill="none" d="M -100.0,47.0 L -38.7,27.5 L 7.2,40.0 L 36.3,52.5 L 62.9,65.0 L 103.3,77.5 L 161.4,90.0 L 224.6,70.5 L 275.8,115.0 L 308.7,127.5 L 334.1,172.0 L 369.5,152.5 L 423.3,165.0 L 486.9,145.5 L 542.8,190.0 L 580.5,202.5 L 606.2,215.0" />
				<path stroke="hsl(60, 75%, 50%)" stroke-width="24" stroke-linecap="round" fill="none" d="M -83.2,99.8 L -37.3,144.3 L -8.2,156.8 L 18.4,201.3 L 58.8,181.8 L 116.9,194.3 L 180.1,174.8 L 231.3,219.3 L 264.2,231.8 L 289.6,244.3 L 325.0,256.8 L 378.8,269.3 L 442.4,281.8 L 498.3,294.3 L 536.0,306.8 L 561.7,319.3 L 592.8,299.8" />
				<path stroke="hsl(120, 75%, 50%)" stroke-width="24" stroke-linecap="round" fill="none" d="M -81.8,233.2 L -52.7,245.7 L -26.1,258.2 L 14.3,270.7 L 72.4,283.2 L 135.6,295.7 L 186.8,308.2 L 219.7,320.7 L 245.1,333.2 L 280.5,313.7 L 334.3,358.2 L 397.9,370.7 L 453.8,415.2 L 491.5,395.7 L 517.2,408.2 L 548.3,420.7 L 597.0,433.2" />
				<path stroke="hsl(180, 75%, 50%)" stroke-width="24" stroke-linecap="round" fill="none" d="M -97.2,317.8 L -70.6,330.3 L -30.2,310.8 L 27.9,355.3 L 91.1,367.8 L 142.3,412.3 L 175.2,392.8 L 200.6,405.3 L 236.0,417.8 L 289.8,430.3 L 353.4,442.8 L 409.3,455.3 L 447.0,467.8 L 472.7,480.3 L 503.8,492.8 L 552.5,537.3 L 615.0,517.8" />
				<path stroke="hsl(240, 75%, 50%)" stroke-width="24" stroke-linecap="round" fill="none" d="M -115.1,399.9 L -74.7,412.4 L -16.6,424.9 L 46.6,437.4 L 97.8,449.9 L 130.7,462.4 L 156.1,474.9 L 191.5,487.4 L 245.3,531.9 L 308.9,512.4 L 364.8,524.9 L 402.5,505.4 L 428.2,549.9 L 459.3,562.4 L 508.0,606.9 L 570.5,587.4 L 630.3,599.9" />
				<path stroke="hsl(300, 75%, 50%)" stroke-width="24" stroke-linecap="round" fill="none" d="M -119.2,495.8 L -61.1,540.3 L 2.1,520.8 L 53.3,533.3 L 86.2,513.8 L 111.6,558.3 L 147.0,570.8 L 200.8,615.3 L 264.4,595.8 L 320.3,608.3 L 358.0,620.8 L 383.7,633.3 L 414.8,645.8 L 463.5,658.3 L 526.0,638.8 L 585.8,683.3 L 628.7,695.8" />
				<path stroke="hsl(0, 75%, 50%)" stroke-width="24" stroke-linecap="round" fill="none" d="M -105.6,641.4 L -42.4,621.9 L 8.8,634.4 L 41.7,646.9 L 67.1,659.4 L 102.5,671.9 L 156.3,684.4 L 219.9,664.9 L 275.8,709.4 L 313.5,721.9 L 339.2,766.4 L 370.3,746.9 L 419.0,759.4 L 481.5,739.9 L 541.3,784.4 L 584.2,796.9 L 611.8,809.4" />
			</g>

			<!-- Border -->
			<rect x="20" y="20" width="472" height="472" rx="120" ry="120" stroke="black" stroke-width="40" fill="none" />
		</g>

		<!-- H SVG -->
		<g transform="translate(0, 0) scale(1)">
			<g transform="translate(81.59362549800798, -30.59760956175299) scale(2.039840637450199)">
		<path fill="none" stroke="#000000" stroke-width="20" stroke-linejoin="round" stroke-linecap="round" d="
			M 80.26 255.00
			L 78.09 255.00
			Q 67.59 253.67 63.69 245.02
			Q 60.84 238.69 58.24 226.73
			Q 56.68 219.59 54.82 214.11
			C 44.25 183.00 31.00 148.51 19.09 115.33
			C 10.44 91.25 4.25 67.56 0.91 43.61
			C 0.21 38.54 1.39 30.91 6.14 27.85
			C 14.84 22.24 21.83 33.83 24.38 40.69
			C 38.08 77.54 49.13 107.68 63.51 139.43
			A 0.27 0.27 0.0 0 0 64.01 139.41
			C 69.51 124.08 77.71 107.01 93.58 101.95
			Q 99.53 100.05 106.04 101.26
			C 126.42 105.05 140.18 125.38 149.68 142.14
			Q 153.94 149.64 159.28 161.64
			C 165.97 176.65 173.03 192.17 179.07 207.96
			Q 181.49 214.31 178.98 220.97
			C 173.59 235.30 160.80 236.18 150.76 225.63
			Q 148.79 223.56 146.18 216.85
			Q 141.37 204.48 132.02 183.72
			Q 124.87 167.82 116.89 149.34
			C 113.61 141.73 109.42 133.22 103.42 127.70
			A 0.77 0.77 0.0 0 0 102.19 127.97
			Q 95.17 145.38 91.42 163.48
			Q 87.12 184.24 89.20 206.63
			C 89.88 213.94 93.16 222.07 95.06 228.47
			Q 96.61 233.64 96.46 236.78
			C 96.02 246.34 90.03 253.67 80.26 255.00
			Z"
		/>
		<path fill="#ffffff" stroke="#000000" stroke-width="10" stroke-linejoin="round" stroke-linecap="round" d="
			M 80.26 255.00
			L 78.09 255.00
			Q 67.59 253.67 63.69 245.02
			Q 60.84 238.69 58.24 226.73
			Q 56.68 219.59 54.82 214.11
			C 44.25 183.00 31.00 148.51 19.09 115.33
			C 10.44 91.25 4.25 67.56 0.91 43.61
			C 0.21 38.54 1.39 30.91 6.14 27.85
			C 14.84 22.24 21.83 33.83 24.38 40.69
			C 38.08 77.54 49.13 107.68 63.51 139.43
			A 0.27 0.27 0.0 0 0 64.01 139.41
			C 69.51 124.08 77.71 107.01 93.58 101.95
			Q 99.53 100.05 106.04 101.26
			C 126.42 105.05 140.18 125.38 149.68 142.14
			Q 153.94 149.64 159.28 161.64
			C 165.97 176.65 173.03 192.17 179.07 207.96
			Q 181.49 214.31 178.98 220.97
			C 173.59 235.30 160.80 236.18 150.76 225.63
			Q 148.79 223.56 146.18 216.85
			Q 141.37 204.48 132.02 183.72
			Q 124.87 167.82 116.89 149.34
			C 113.61 141.73 109.42 133.22 103.42 127.70
			A 0.77 0.77 0.0 0 0 102.19 127.97
			Q 95.17 145.38 91.42 163.48
			Q 87.12 184.24 89.20 206.63
			C 89.88 213.94 93.16 222.07 95.06 228.47
			Q 96.61 233.64 96.46 236.78
			C 96.02 246.34 90.03 253.67 80.26 255.00
			Z"
		/>
	</g>
		</g>
	</svg>