<?xml version="1.0" encoding="UTF-8" standalone="no"?>
<!DOCTYPE svg PUBLIC "-//W3C//DTD SVG 1.1//EN" "http://www.w3.org/Graphics/SVG/1.1/DTD/svg11.dtd">
<svg xmlns="http://www.w3.org/2000/svg" version="1.1" viewBox="0.00 0.00 1446.00 280.00">
<path fill="#00bf2d" d="
  M 1072.66 1.04
  C 1074.42 2.74 1075.21 4.83 1076.08 7.89
  Q 1077.24 11.99 1079.61 23.29
  C 1083.18 40.31 1086.61 59.55 1088.63 78.55
  Q 1090.48 96.09 1093.82 125.25
  Q 1097.10 153.92 1103.37 182.43
  C 1103.80 184.34 1104.11 188.89 1103.31 191.14
  C 1101.32 196.66 1095.64 200.18 1089.91 198.31
  C 1084.94 196.69 1082.66 192.22 1081.42 187.09
  Q 1078.02 173.06 1075.62 154.62
  Q 1070.73 116.97 1069.37 78.74
  Q 1068.92 66.12 1070.03 47.25
  C 1070.42 40.49 1070.46 27.18 1069.45 17.19
  Q 1069.01 12.79 1069.21 6.00
  Q 1069.28 3.52 1070.31 1.44
  A 1.48 1.48 0.0 0 1 1072.66 1.04
  Z"
/>
<path fill="#00bf2d" d="
  M 1161.59 18.92
  C 1168.99 16.26 1174.11 18.36 1180.65 22.08
  C 1189.26 26.97 1194.24 36.18 1191.30 45.98
  C 1186.16 63.04 1160.00 68.64 1147.82 56.15
  Q 1141.80 49.98 1143.41 41.18
  C 1145.42 30.28 1155.60 21.75 1166.89 21.90
  A 0.34 0.34 0.0 0 0 1167.16 21.35
  Q 1165.33 18.95 1161.63 19.11
  A 0.10 0.10 0.0 0 1 1161.59 18.92
  Z
  M 1170.35 32.60
  Q 1166.50 36.03 1163.76 41.24
  A 0.51 0.51 0.0 0 0 1164.17 41.99
  Q 1167.03 42.22 1169.95 40.74
  A 3.74 3.72 -13.6 0 0 1171.99 37.42
  L 1171.99 33.34
  A 0.99 0.98 69.2 0 0 1170.35 32.60
  Z"
/>
<path fill="#ffffff" d="
  M 192.32 65.74
  Q 205.39 86.51 207.40 110.51
  Q 210.18 143.59 208.78 175.50
  C 207.76 198.63 201.29 227.82 180.08 241.18
  C 170.41 247.27 160.38 247.91 150.38 241.47
  Q 143.80 237.22 137.72 231.18
  Q 126.05 219.58 115.35 209.88
  A 0.37 0.37 0.0 0 0 114.73 210.11
  C 112.54 230.17 108.74 252.31 97.35 269.17
  Q 91.57 277.73 81.77 279.17
  Q 78.80 279.61 75.41 278.06
  Q 68.12 274.73 63.89 268.09
  C 56.53 256.56 51.44 242.75 47.59 230.18
  C 36.47 193.84 28.16 166.14 16.18 134.68
  C 12.30 124.50 8.06 116.32 2.24 104.38
  C 1.42 102.70 0.15 99.16 0.27 97.47
  C 0.48 94.41 3.49 93.14 6.04 94.74
  Q 9.41 96.85 11.54 99.69
  C 23.98 116.24 33.51 135.59 41.47 156.04
  C 49.72 177.26 59.55 204.84 69.67 228.11
  Q 75.40 241.31 80.41 249.93
  A 0.31 0.31 0.0 0 0 80.96 249.90
  Q 87.06 235.99 89.19 220.49
  Q 90.45 211.33 91.65 202.18
  C 92.33 196.96 93.57 189.51 97.41 186.14
  C 100.55 183.39 106.61 180.94 110.87 182.68
  Q 115.53 184.59 120.75 188.55
  C 133.26 198.05 145.12 209.96 154.14 219.00
  Q 154.23 219.08 159.67 223.38
  Q 164.84 227.45 170.16 223.40
  C 185.58 211.67 187.91 187.68 188.35 170.29
  Q 188.97 145.74 187.20 112.25
  Q 186.43 97.57 189.35 82.51
  C 190.20 78.11 190.95 73.19 192.11 68.37
  A 4.03 3.90 -44.1 0 0 192.16 66.77
  L 192.01 65.86
  A 0.17 0.17 0.0 0 1 192.32 65.74
  Z"
/>
<path fill="#00bf2d" d="
  M 1435.29 151.53
  Q 1417.25 164.37 1395.84 169.02
  Q 1389.12 170.48 1380.18 170.12
  Q 1371.65 169.78 1364.77 167.11
  C 1339.25 157.24 1322.02 131.37 1332.54 103.73
  C 1342.10 78.65 1367.32 64.36 1393.69 72.55
  C 1399.54 74.37 1406.52 78.81 1409.48 84.30
  C 1415.60 95.64 1407.98 106.16 1398.90 113.16
  Q 1379.16 128.36 1354.51 131.80
  A 0.39 0.39 0.0 0 0 1354.23 132.39
  C 1361.09 143.15 1373.01 148.06 1384.54 152.45
  Q 1401.00 158.71 1418.43 156.94
  Q 1426.22 156.15 1435.08 151.19
  A 0.20 0.20 0.0 0 1 1435.29 151.53
  Z
  M 1351.29 114.20
  Q 1372.18 110.29 1389.03 96.76
  Q 1390.86 95.29 1392.01 93.62
  A 1.21 1.21 0.0 0 0 1391.57 91.86
  Q 1384.19 88.08 1375.77 89.04
  C 1362.66 90.54 1353.19 101.10 1350.80 113.71
  A 0.42 0.42 0.0 0 0 1351.29 114.20
  Z"
/>
<path fill="#00bf2d" d="
  M 1268.32 149.33
  C 1279.03 136.05 1282.16 117.63 1287.53 101.56
  Q 1288.70 98.08 1294.75 89.07
  A 4.37 4.05 -18.9 0 0 1295.18 88.27
  Q 1296.57 84.80 1299.19 82.81
  A 0.96 0.95 53.1 0 1 1300.54 83.01
  C 1302.30 85.42 1303.88 89.27 1305.12 92.29
  Q 1308.64 100.87 1308.23 108.28
  Q 1307.90 114.40 1305.28 124.01
  C 1302.08 135.76 1297.25 147.83 1290.84 157.90
  C 1288.16 162.11 1283.64 167.84 1280.17 170.17
  Q 1275.14 173.55 1272.44 174.24
  C 1268.95 175.12 1262.02 174.17 1259.19 171.67
  Q 1253.12 166.30 1249.79 158.29
  C 1243.52 143.26 1239.15 128.31 1234.26 112.74
  Q 1232.42 106.87 1231.62 101.51
  C 1231.15 98.37 1232.83 94.02 1236.89 94.86
  Q 1238.34 95.17 1241.09 97.96
  Q 1242.37 99.25 1244.55 104.17
  C 1250.95 118.59 1258.58 134.81 1267.53 149.28
  A 0.48 0.48 0.0 0 0 1268.32 149.33
  Z"
/>
<path fill="#00bf2d" d="
  M 1170.05 83.24
  C 1174.30 81.47 1177.51 84.99 1179.14 88.57
  Q 1180.98 92.60 1182.53 100.45
  C 1185.61 116.11 1187.28 131.21 1189.59 147.16
  Q 1190.80 155.51 1190.74 159.13
  A 16.81 16.69 50.5 0 1 1190.50 161.71
  Q 1190.37 162.48 1189.60 165.33
  C 1188.42 169.67 1184.41 174.51 1179.29 171.95
  C 1172.24 168.44 1169.91 160.51 1168.61 152.91
  C 1165.23 133.11 1164.97 115.37 1165.20 93.56
  Q 1165.26 87.22 1169.12 83.82
  A 3.39 3.24 -75.7 0 1 1170.05 83.24
  Z"
/>
<path fill="#ffffff" d="
  M 783.86 118.53
  Q 777.57 114.83 776.05 113.94
  C 766.48 108.35 752.09 103.93 741.22 108.25
  C 729.94 112.73 728.05 132.63 728.24 142.53
  C 728.52 156.59 732.02 170.92 735.71 183.62
  Q 737.35 189.26 736.81 192.46
  C 735.92 197.80 731.23 202.29 725.55 202.09
  C 719.90 201.90 716.04 197.57 714.37 192.13
  Q 710.94 180.95 708.20 168.27
  Q 706.95 162.49 706.43 158.02
  Q 705.63 151.22 704.86 147.73
  Q 701.13 130.95 698.55 121.00
  Q 697.60 117.31 699.46 114.66
  A 2.46 2.33 26.3 0 1 702.20 113.81
  C 705.62 114.96 706.46 118.25 708.03 121.46
  A 0.26 0.26 0.0 0 0 708.51 121.41
  Q 710.98 111.61 716.31 103.65
  C 724.06 92.06 737.53 86.08 750.97 90.62
  C 762.69 94.57 770.44 102.27 778.27 112.03
  C 780.36 114.64 782.22 116.43 784.16 118.12
  A 0.26 0.25 -9.0 0 1 783.86 118.53
  Z"
/>
<path fill="#ffffff" d="
  M 896.21 178.99
  Q 890.57 182.78 879.42 187.80
  Q 876.05 189.32 874.34 189.80
  C 871.90 190.47 869.98 191.68 867.52 192.32
  C 857.26 194.97 846.59 196.51 836.82 194.66
  C 816.06 190.73 797.16 175.52 793.58 153.79
  C 788.92 125.55 817.15 93.55 844.54 90.19
  Q 852.55 89.21 859.37 91.32
  C 870.73 94.84 879.52 105.63 879.58 117.50
  C 879.65 132.62 863.91 143.04 851.56 148.10
  Q 836.26 154.38 819.31 155.35
  A 0.45 0.45 0.0 0 0 818.95 156.03
  Q 823.35 163.54 831.38 167.89
  Q 848.50 177.15 867.35 181.81
  A 4.05 3.94 51.0 0 0 868.28 181.92
  C 872.01 181.94 875.71 182.80 879.92 182.69
  Q 888.20 182.49 896.06 178.73
  A 0.15 0.15 0.0 0 1 896.21 178.99
  Z
  M 818.57 138.54
  C 832.56 136.40 846.15 132.56 856.95 123.73
  Q 859.74 121.46 860.84 117.54
  A 1.79 1.75 44.4 0 0 860.82 116.50
  Q 859.03 110.96 852.91 110.13
  Q 847.24 109.35 842.98 111.31
  Q 825.21 119.50 818.24 138.13
  A 0.30 0.30 0.0 0 0 818.57 138.54
  Z"
/>
<path fill="#ffffff" d="
  M 630.65 127.41
  Q 636.64 125.47 640.74 128.90
  Q 643.74 131.42 646.76 135.75
  Q 647.67 137.07 660.09 156.44
  Q 666.11 165.81 674.49 176.52
  C 676.94 179.65 679.04 183.64 680.75 188.05
  C 682.47 192.47 684.17 197.27 687.40 200.00
  A 0.91 0.91 0.0 0 0 688.44 200.09
  L 689.05 199.74
  A 0.19 0.19 0.0 0 1 689.26 200.05
  Q 687.16 201.79 685.23 201.94
  Q 678.80 202.42 670.25 199.79
  C 659.63 196.52 652.47 188.06 646.70 178.91
  A 0.35 0.35 0.0 0 0 646.06 179.01
  Q 641.38 196.69 626.69 207.44
  C 612.48 217.84 593.00 219.04 578.54 209.42
  Q 565.93 201.03 563.34 185.99
  Q 562.16 179.09 563.12 172.05
  C 566.61 146.59 583.33 121.02 609.00 113.41
  Q 622.39 109.44 632.38 117.70
  Q 635.98 120.68 633.83 124.77
  A 3.07 3.02 89.5 0 1 632.63 126.01
  L 630.56 127.21
  A 0.11 0.11 0.0 0 0 630.65 127.41
  Z
  M 629.00 128.04
  Q 617.00 131.34 612.14 134.15
  Q 595.37 143.87 588.49 162.51
  Q 585.39 170.93 585.59 180.25
  C 585.83 191.54 597.69 194.59 606.93 192.61
  C 621.76 189.43 628.35 174.96 626.96 160.70
  Q 626.27 153.65 623.84 141.50
  Q 622.09 132.72 629.10 128.28
  A 0.13 0.13 0.0 0 0 629.00 128.04
  Z"
/>
<path fill="#ffffff" d="
  M 366.06 230.11
  A 0.07 0.06 48.6 0 1 366.14 230.12
  L 366.14 230.13
  A 0.14 0.14 0.0 0 1 366.12 230.33
  Q 352.72 241.10 338.97 248.56
  C 334.98 250.72 331.25 251.85 326.62 253.69
  Q 325.09 254.30 321.52 255.37
  Q 304.11 260.59 287.67 255.27
  Q 271.14 249.92 260.72 237.65
  C 247.49 222.07 243.98 197.47 250.80 178.34
  C 259.02 155.29 279.32 139.82 303.99 139.99
  C 316.42 140.07 330.13 144.88 336.11 156.33
  C 342.08 167.75 336.57 181.26 328.75 190.26
  Q 315.67 205.33 295.77 211.23
  Q 289.56 213.07 283.78 212.67
  Q 277.55 212.23 273.05 209.23
  A 0.26 0.25 10.2 0 0 272.66 209.50
  Q 275.85 222.58 287.16 229.10
  C 292.10 231.94 297.03 233.17 303.78 234.75
  Q 318.49 238.20 332.50 238.82
  Q 335.15 238.94 339.97 238.35
  C 349.79 237.15 357.84 235.90 366.06 230.11
  Z
  M 272.00 198.11
  Q 273.06 197.89 280.57 196.35
  Q 298.48 192.69 311.50 180.18
  C 314.19 177.60 316.76 173.89 317.96 170.44
  Q 319.60 165.74 314.76 163.99
  Q 310.16 162.32 306.52 162.25
  C 284.50 161.85 272.30 176.67 271.49 197.69
  A 0.42 0.42 0.0 0 0 272.00 198.11
  Z"
/>
<path fill="#00bf2d" d="
  M 1438.93 148.95
  Q 1438.84 149.15 1438.72 149.21
  A 0.18 0.17 14.3 0 1 1438.53 148.92
  Q 1438.62 148.87 1438.85 148.85
  A 0.07 0.07 0.0 0 1 1438.93 148.95
  Z"
/>
</svg>
