<?xml version="1.0" encoding="UTF-8" standalone="no"?>
<!DOCTYPE svg PUBLIC "-//W3C//DTD SVG 1.1//EN" "http://www.w3.org/Graphics/SVG/1.1/DTD/svg11.dtd">
<svg xmlns="http://www.w3.org/2000/svg" version="1.1" viewBox="0.00 0.00 1486.00 267.00">
<path fill="#00bf2d" d="
  M 1105.96 202.12
  Q 1103.84 202.12 1102.22 200.49
  C 1098.43 196.69 1093.60 190.95 1091.32 186.24
  Q 1087.49 178.33 1086.15 168.66
  Q 1084.15 154.15 1083.17 142.06
  Q 1079.72 99.33 1079.43 87.99
  C 1078.93 69.06 1078.84 52.17 1077.41 34.43
  Q 1076.79 26.85 1076.23 16.75
  C 1075.80 8.97 1078.70 -1.16 1088.52 1.38
  A 3.48 3.39 70.6 0 1 1089.81 2.02
  Q 1094.59 5.83 1095.64 9.46
  Q 1099.32 22.23 1100.97 32.22
  Q 1106.38 64.99 1108.44 92.28
  C 1110.08 114.04 1111.71 140.39 1114.89 165.82
  Q 1116.93 182.11 1109.69 196.95
  Q 1108.15 200.12 1106.86 201.69
  A 1.17 1.16 -70.2 0 1 1105.96 202.12
  Z"
/>
<path fill="#00bf2d" d="
  M 1167.46 27.12
  Q 1179.44 28.63 1185.93 35.55
  Q 1193.06 43.14 1191.14 52.92
  C 1190.11 58.19 1186.06 63.76 1181.17 66.40
  Q 1170.27 72.30 1159.27 67.39
  Q 1146.91 61.87 1143.87 49.00
  C 1141.52 39.08 1146.71 27.78 1156.31 23.84
  C 1159.85 22.39 1166.60 21.32 1167.03 26.67
  A 0.49 0.49 0.0 0 0 1167.46 27.12
  Z
  M 1166.15 28.96
  A 0.65 0.65 0.0 0 0 1165.16 29.04
  C 1161.86 33.63 1160.45 40.82 1164.17 45.51
  Q 1166.75 48.77 1171.77 48.05
  A 1.64 1.63 -4.8 0 0 1173.17 46.40
  Q 1173.00 35.94 1166.15 28.96
  Z"
/>
<path fill="#00bf2d" d="
  M 1316.10 71.32
  C 1319.80 80.31 1323.02 89.06 1323.73 99.09
  Q 1324.21 105.83 1322.51 113.88
  Q 1318.43 133.33 1309.03 150.25
  Q 1303.27 160.62 1294.62 168.32
  C 1287.73 174.45 1277.44 178.35 1268.41 175.59
  C 1258.76 172.64 1252.10 164.79 1246.42 156.57
  Q 1240.60 148.17 1236.52 138.75
  Q 1228.29 119.74 1223.04 99.96
  C 1221.71 94.97 1221.28 89.71 1225.76 86.13
  C 1229.43 83.20 1234.22 83.59 1237.63 86.69
  Q 1239.89 88.74 1241.47 93.01
  Q 1245.70 104.39 1249.79 114.98
  Q 1255.78 130.49 1265.92 142.57
  Q 1269.22 146.50 1272.53 148.71
  A 2.33 2.33 0.0 0 0 1275.07 148.74
  C 1280.14 145.52 1284.13 139.00 1286.78 133.53
  Q 1291.16 124.50 1293.87 115.90
  Q 1296.79 106.62 1298.72 101.20
  Q 1302.25 91.28 1309.62 81.30
  A 5.25 5.11 76.2 0 0 1310.12 80.45
  C 1311.64 77.22 1314.10 74.69 1315.69 71.31
  A 0.22 0.22 0.0 0 1 1316.10 71.32
  Z"
/>
<path fill="#00bf2d" d="
  M 1476.51 150.42
  Q 1475.98 150.75 1472.59 152.00
  Q 1452.31 159.43 1437.25 162.68
  Q 1423.44 165.65 1406.77 164.97
  Q 1386.89 164.15 1369.42 155.52
  C 1352.08 146.94 1338.28 130.55 1340.73 110.34
  Q 1342.44 96.16 1353.25 85.42
  C 1366.09 72.65 1386.99 68.04 1403.87 75.87
  C 1419.94 83.32 1428.10 100.66 1417.12 116.43
  C 1410.22 126.33 1399.90 132.06 1388.80 135.68
  A 0.21 0.21 0.0 0 0 1388.79 136.07
  Q 1411.88 145.37 1438.06 151.37
  Q 1440.16 151.85 1444.03 152.25
  Q 1446.15 152.47 1450.01 152.96
  Q 1460.10 154.25 1470.84 151.98
  Q 1473.62 151.39 1474.16 150.89
  Q 1474.81 150.29 1476.31 149.94
  A 0.26 0.26 0.0 0 1 1476.51 150.42
  Z
  M 1367.56 119.89
  Q 1368.82 119.16 1378.12 116.18
  C 1385.70 113.74 1395.60 109.37 1400.27 102.68
  C 1402.09 100.05 1400.01 97.63 1397.75 96.19
  Q 1390.32 91.46 1381.19 93.85
  C 1369.60 96.87 1361.42 107.99 1366.81 119.65
  A 0.53 0.53 0.0 0 0 1367.56 119.89
  Z"
/>
<path fill="#00bf2d" d="
  M 1164.22 90.89
  C 1170.86 84.02 1182.10 87.29 1183.94 96.68
  Q 1184.23 98.14 1184.17 100.84
  Q 1183.82 117.30 1184.03 120.26
  Q 1185.18 136.48 1186.77 153.74
  C 1187.32 159.68 1187.22 167.69 1183.74 172.72
  C 1181.13 176.49 1176.63 179.98 1171.96 178.34
  C 1167.60 176.81 1163.76 173.26 1162.14 168.71
  C 1161.66 167.37 1160.82 165.74 1160.46 164.04
  Q 1158.83 156.46 1158.31 148.50
  Q 1157.19 131.42 1158.35 115.26
  Q 1158.93 107.12 1160.30 100.28
  C 1160.94 97.10 1161.93 93.26 1164.22 90.89
  Z"
/>
<path fill="#ffffff" d="
  M 876.15 192.87
  Q 860.65 200.78 860.58 200.80
  Q 854.84 202.56 852.82 203.82
  A 3.23 3.14 23.0 0 1 851.76 204.23
  Q 841.51 206.18 839.50 206.39
  C 823.94 207.96 809.25 204.95 797.30 195.18
  C 775.43 177.30 765.53 148.02 778.24 121.72
  A 0.62 0.62 0.0 0 0 777.79 120.83
  C 767.31 118.97 757.02 118.22 746.67 118.77
  Q 735.01 119.39 726.05 122.82
  C 709.02 129.34 707.66 151.77 710.94 167.02
  Q 713.07 176.90 715.76 185.11
  C 717.74 191.16 718.37 196.78 714.22 201.36
  C 707.98 208.23 697.89 203.75 694.93 196.38
  Q 691.78 188.54 689.24 177.52
  C 686.46 165.50 685.58 155.96 686.81 146.52
  Q 687.31 142.73 687.14 141.94
  C 685.98 136.43 684.65 132.10 685.32 128.69
  A 0.83 0.83 0.0 0 1 686.80 128.35
  Q 688.44 130.50 689.07 133.35
  A 0.33 0.33 0.0 0 0 689.70 133.38
  Q 691.05 129.43 693.44 125.16
  Q 703.30 107.57 724.00 106.44
  C 732.07 105.99 739.67 107.45 747.46 109.08
  C 757.40 111.16 766.98 115.67 778.34 120.38
  A 0.49 0.49 0.0 0 0 778.95 120.16
  C 790.66 99.14 814.34 89.45 836.92 98.62
  C 850.52 104.15 865.63 118.45 863.09 134.66
  C 860.20 153.12 838.20 165.38 822.04 169.79
  Q 819.08 170.59 814.73 171.83
  A 0.31 0.31 0.0 0 0 814.60 172.35
  C 819.98 177.32 827.20 182.42 833.73 186.50
  Q 842.96 192.26 851.25 194.43
  Q 859.40 196.57 869.31 195.13
  Q 869.44 195.11 876.01 192.57
  A 0.17 0.16 20.5 0 1 876.15 192.87
  Z
  M 803.93 156.82
  C 811.64 154.01 844.22 140.76 843.00 130.25
  C 842.76 128.24 840.63 125.06 838.91 123.60
  Q 829.73 115.81 817.97 117.63
  C 810.82 118.74 805.25 123.97 803.05 130.33
  Q 798.48 143.50 803.65 156.70
  A 0.23 0.22 -21.0 0 0 803.93 156.82
  Z"
/>
<path fill="#ffffff" d="
  M 355.39 204.71
  Q 354.37 206.53 341.15 216.12
  C 338.55 218.00 336.96 219.38 335.10 220.38
  C 323.05 226.82 309.20 231.14 295.73 230.79
  C 266.64 230.06 237.13 212.35 230.44 182.35
  Q 227.21 167.87 232.19 153.66
  C 241.24 127.83 267.31 108.77 294.12 105.89
  Q 315.76 103.57 333.72 114.69
  C 347.31 123.12 351.47 139.12 342.05 152.59
  Q 336.37 160.70 327.96 167.02
  Q 302.50 186.15 272.04 195.72
  A 0.31 0.31 0.0 0 0 271.97 196.28
  Q 280.32 201.34 290.42 203.82
  Q 304.44 207.28 323.45 209.68
  Q 330.19 210.54 342.98 209.73
  Q 347.98 209.41 354.72 204.14
  A 0.45 0.45 0.0 0 1 355.39 204.71
  Z
  M 257.21 179.85
  Q 259.87 177.32 263.70 175.70
  Q 287.76 165.55 307.33 152.33
  C 313.70 148.03 321.03 142.65 324.69 136.31
  A 2.20 2.18 -49.5 0 0 324.50 133.83
  C 322.07 130.83 316.58 128.74 312.82 127.78
  C 290.27 122.00 263.65 134.79 255.72 157.18
  Q 251.75 168.38 256.55 179.71
  A 0.41 0.41 0.0 0 0 257.21 179.85
  Z"
/>
<path fill="#ffffff" d="
  M 671.63 189.23
  C 669.84 191.21 663.96 190.45 661.80 189.73
  Q 652.34 186.56 645.68 179.35
  A 0.34 0.33 30.8 0 0 645.11 179.49
  C 639.08 203.39 615.52 216.14 591.95 211.80
  C 569.52 207.68 555.82 191.24 554.08 168.77
  C 552.45 147.66 561.36 123.68 579.56 111.82
  C 587.16 106.87 597.22 105.44 605.35 110.68
  C 609.45 113.32 618.37 121.12 617.17 125.90
  A 1.37 1.37 0.0 0 1 615.54 126.91
  Q 611.86 126.10 606.94 125.38
  Q 594.31 123.54 587.06 133.80
  Q 576.30 149.04 577.92 167.69
  Q 579.51 185.92 598.00 188.15
  C 609.68 189.55 622.34 185.55 628.34 175.38
  Q 633.07 167.34 630.17 156.30
  A 4.99 4.90 -68.4 0 0 629.63 155.02
  Q 626.53 149.87 624.60 146.41
  Q 622.05 141.83 621.72 139.32
  C 621.09 134.42 622.32 129.68 627.11 127.29
  C 631.37 125.16 637.53 127.71 640.63 130.85
  Q 642.27 132.51 645.06 136.43
  Q 653.54 148.36 660.44 160.04
  Q 665.13 167.96 666.72 174.29
  Q 667.92 179.05 669.31 187.41
  Q 669.70 189.75 671.48 189.01
  A 0.14 0.13 -80.2 0 1 671.63 189.23
  Z"
/>
<path fill="#ffffff" d="
  M 68.80 267.00
  L 63.14 267.00
  C 44.92 265.11 31.67 253.04 22.93 237.75
  Q 1.95 201.07 0.88 159.22
  C 0.82 156.60 2.02 151.83 4.14 149.85
  C 8.80 145.53 14.97 146.53 18.36 151.84
  C 19.26 153.24 20.44 156.59 20.83 158.61
  Q 23.18 170.67 25.35 179.45
  Q 30.72 201.11 41.85 219.42
  C 48.60 230.51 59.16 241.93 73.33 236.57
  C 82.75 233.00 90.00 225.20 91.57 215.03
  C 92.43 209.53 92.51 205.76 96.92 201.67
  C 104.32 194.80 114.09 197.74 119.16 206.17
  Q 119.80 207.24 122.03 208.80
  Q 135.33 218.11 149.66 219.12
  C 164.41 220.17 173.38 215.11 173.40 199.23
  C 173.42 183.81 168.21 170.54 161.35 155.93
  Q 157.57 147.87 156.45 140.62
  Q 155.86 136.78 154.97 132.99
  A 1.91 1.91 0.0 0 1 156.48 130.68
  L 157.90 130.40
  A 2.59 2.53 -45.7 0 1 158.74 130.38
  Q 175.85 132.78 184.79 147.91
  Q 197.00 168.58 198.74 192.81
  C 199.53 203.73 197.47 215.92 191.40 224.98
  C 174.59 250.08 139.83 245.55 117.06 232.57
  A 0.54 0.53 27.0 0 0 116.31 232.81
  C 107.64 251.73 89.63 265.10 68.80 267.00
  Z"
/>
</svg>
