<?xml version="1.0" encoding="UTF-8" standalone="no"?>
<!DOCTYPE svg PUBLIC "-//W3C//DTD SVG 1.1//EN" "http://www.w3.org/Graphics/SVG/1.1/DTD/svg11.dtd">
<svg xmlns="http://www.w3.org/2000/svg" version="1.1" viewBox="0.00 0.00 1407.00 238.00">
<path fill="#00bf2d" d="
  M 1077.72 179.59
  Q 1077.70 179.42 1077.69 179.30
  A 1.39 1.38 -66.2 0 0 1077.43 178.63
  Q 1070.57 169.29 1068.01 164.77
  Q 1063.90 157.52 1060.93 147.82
  Q 1057.10 135.34 1054.28 122.98
  Q 1047.52 93.28 1039.06 52.45
  Q 1037.79 46.32 1031.28 19.51
  C 1030.21 15.11 1029.86 12.20 1029.91 8.05
  Q 1029.93 5.65 1031.77 3.51
  C 1034.85 -0.10 1039.73 0.15 1043.00 3.52
  C 1044.95 5.52 1047.23 10.16 1048.32 13.06
  Q 1060.46 45.26 1066.53 72.48
  Q 1072.85 100.80 1081.98 138.25
  C 1084.72 149.50 1085.79 159.48 1083.56 170.31
  Q 1082.45 175.69 1078.87 179.94
  A 0.66 0.65 -27.9 0 1 1077.72 179.59
  Z"
/>
<path fill="#00bf2d" d="
  M 1115.99 23.17
  Q 1117.23 18.48 1120.31 16.14
  C 1126.70 11.28 1135.39 9.54 1142.75 13.63
  C 1149.57 17.42 1154.51 23.07 1157.22 30.26
  Q 1159.48 36.25 1157.96 41.60
  C 1155.05 51.84 1145.66 54.22 1135.95 52.66
  Q 1124.40 50.79 1118.77 41.00
  C 1116.50 37.05 1115.95 29.02 1121.78 28.09
  A 0.93 0.93 0.0 0 1 1122.65 29.59
  Q 1120.13 32.70 1122.56 36.51
  C 1125.82 41.61 1132.92 46.62 1139.34 44.96
  A 0.84 0.84 0.0 0 0 1139.90 43.83
  C 1138.25 39.85 1136.36 36.71 1133.13 33.91
  Q 1128.08 29.53 1123.08 24.30
  C 1121.07 22.20 1118.33 20.29 1116.17 23.25
  A 0.10 0.10 0.0 0 1 1115.99 23.17
  Z"
/>
<path fill="#00bf2d" d="
  M 1389.18 84.27
  Q 1379.21 89.27 1365.81 95.54
  Q 1354.85 100.67 1348.04 102.68
  Q 1340.91 104.79 1329.31 106.45
  Q 1328.06 106.63 1322.08 106.61
  Q 1309.51 106.58 1298.69 100.53
  C 1279.34 89.71 1267.88 64.00 1276.48 42.74
  C 1282.32 28.30 1295.61 17.47 1311.62 18.10
  C 1318.79 18.39 1326.46 22.21 1330.12 28.62
  C 1336.44 39.69 1330.57 50.93 1321.69 58.22
  Q 1314.58 64.06 1304.98 69.00
  A 0.45 0.44 -32.9 0 0 1304.83 69.67
  Q 1309.75 75.70 1316.31 79.21
  Q 1333.65 88.48 1353.23 90.12
  Q 1355.05 90.27 1364.89 89.66
  Q 1374.94 89.03 1376.39 87.93
  Q 1381.61 83.94 1388.70 82.80
  A 0.78 0.78 0.0 0 1 1389.18 84.27
  Z
  M 1299.82 57.16
  A 0.36 0.35 -19.7 0 0 1300.36 57.41
  Q 1305.55 54.16 1309.73 50.98
  C 1314.21 47.57 1317.87 44.15 1319.03 38.82
  A 0.76 0.75 -70.7 0 0 1318.64 37.99
  C 1313.42 35.27 1307.21 38.15 1303.86 42.41
  Q 1298.80 48.84 1299.82 57.16
  Z"
/>
<path fill="#00bf2d" d="
  M 1243.96 34.05
  Q 1243.98 34.16 1247.96 42.08
  C 1251.99 50.10 1254.21 59.16 1254.36 67.86
  Q 1254.65 84.66 1248.79 102.76
  Q 1245.32 113.47 1237.33 119.64
  A 4.01 3.97 15.0 0 1 1236.42 120.16
  C 1229.06 123.11 1225.70 123.07 1218.93 119.60
  C 1212.75 116.43 1205.38 107.12 1200.88 100.63
  Q 1190.62 85.82 1183.10 67.28
  C 1182.38 65.50 1182.15 63.30 1181.65 62.09
  A 2.02 1.96 38.1 0 1 1181.51 61.06
  Q 1182.15 56.29 1184.70 54.69
  Q 1190.53 51.01 1195.14 55.71
  C 1198.93 59.58 1201.75 65.21 1207.58 74.96
  Q 1215.43 88.10 1225.53 98.55
  A 0.73 0.73 0.0 0 0 1226.74 98.29
  Q 1230.25 88.31 1231.75 77.00
  C 1232.69 69.83 1233.60 60.43 1235.82 52.54
  Q 1237.44 46.78 1240.09 39.59
  Q 1241.07 36.90 1243.50 33.94
  A 0.26 0.26 0.0 0 1 1243.96 34.05
  Z"
/>
<path fill="#ffffff" d="
  M 169.03 55.46
  C 177.87 63.87 186.87 75.39 191.69 87.17
  Q 193.96 92.72 195.25 101.12
  Q 198.33 121.11 198.25 139.49
  C 198.17 156.75 194.15 174.10 183.21 187.70
  Q 168.38 206.13 143.67 207.47
  C 130.35 208.19 116.08 204.25 103.32 198.98
  A 0.32 0.31 15.5 0 0 102.89 199.22
  C 101.19 209.63 97.38 220.83 90.23 228.73
  Q 83.74 235.89 74.15 237.44
  Q 71.21 237.91 68.89 237.34
  C 66.73 236.82 64.44 236.75 62.03 235.68
  C 52.99 231.68 46.10 224.01 41.00 215.74
  Q 31.50 200.35 25.28 181.48
  C 21.28 169.34 18.18 158.70 15.14 145.95
  Q 9.55 122.43 1.62 98.65
  Q -0.96 90.91 4.19 84.68
  C 9.49 78.28 19.48 81.81 23.27 87.94
  Q 25.88 92.17 28.58 98.65
  Q 32.93 109.12 36.88 121.63
  Q 39.22 129.03 50.93 167.04
  Q 55.76 182.72 62.26 195.01
  Q 65.94 201.95 70.07 206.69
  A 0.41 0.41 0.0 0 0 70.76 206.58
  C 74.21 198.64 74.95 191.37 76.39 181.40
  C 77.73 172.19 85.30 167.02 94.13 166.86
  Q 96.92 166.80 102.44 169.23
  Q 109.65 172.39 119.51 175.97
  Q 129.40 179.55 139.23 179.74
  C 158.02 180.09 167.24 164.10 168.83 147.39
  C 170.32 131.75 168.39 116.63 165.48 98.06
  Q 165.14 95.94 165.34 88.04
  Q 165.44 83.87 166.35 78.02
  Q 167.94 67.76 168.74 58.24
  Q 168.80 57.60 168.64 55.65
  A 0.23 0.23 0.0 0 1 169.03 55.46
  Z"
/>
<path fill="#00bf2d" d="
  M 1130.74 69.98
  Q 1134.71 72.44 1136.56 75.94
  Q 1147.84 97.24 1153.11 124.40
  Q 1154.88 133.52 1150.38 139.68
  C 1147.03 144.27 1142.45 146.08 1137.91 141.80
  Q 1132.43 136.65 1130.54 128.92
  Q 1127.61 116.93 1126.40 107.47
  Q 1124.99 96.46 1122.99 82.01
  C 1122.34 77.25 1122.49 69.10 1129.61 69.61
  A 2.42 2.38 62.7 0 1 1130.74 69.98
  Z"
/>
<path fill="#ffffff" d="
  M 862.59 147.24
  Q 845.25 158.62 835.84 162.55
  C 819.88 169.21 801.69 170.74 785.66 163.58
  Q 760.38 152.28 752.86 125.67
  C 746.37 102.73 758.64 78.98 781.61 71.98
  Q 797.29 67.20 813.02 74.70
  C 820.54 78.29 827.58 84.88 829.39 93.16
  C 831.95 104.93 821.37 115.30 812.68 121.18
  Q 800.45 129.46 785.98 132.60
  A 0.35 0.34 -31.0 0 0 785.83 133.20
  C 790.64 137.21 795.60 140.01 801.69 142.44
  C 810.04 145.77 817.74 148.71 825.89 150.85
  Q 830.85 152.15 835.93 152.44
  C 844.16 152.91 851.64 152.61 858.12 149.33
  Q 862.22 147.25 862.53 147.13
  A 0.06 0.06 0.0 0 1 862.59 147.24
  Z
  M 778.50 121.51
  Q 793.29 117.21 805.89 107.64
  Q 810.19 104.38 813.13 100.38
  Q 814.31 98.77 814.16 96.46
  A 1.40 1.40 0.0 0 0 813.78 95.58
  C 808.44 89.92 797.89 89.64 790.89 91.40
  C 781.41 93.79 775.24 101.25 775.52 111.02
  Q 775.69 116.98 777.60 121.10
  A 0.76 0.75 -20.2 0 0 778.50 121.51
  Z"
/>
<path fill="#ffffff" d="
  M 746.03 83.64
  Q 735.18 81.20 726.97 83.03
  C 721.40 84.27 719.19 85.54 713.19 88.21
  Q 708.35 90.36 702.46 95.69
  C 694.74 102.69 689.08 109.54 688.03 119.28
  C 686.58 132.79 690.52 147.19 694.92 160.42
  Q 697.19 167.26 696.77 170.17
  C 694.59 185.30 675.78 186.40 670.92 172.60
  C 666.38 159.71 662.03 144.92 661.53 131.25
  Q 661.32 125.55 661.28 124.98
  A 5.95 5.94 -57.8 0 0 660.92 123.39
  C 659.27 118.91 656.21 110.48 658.03 107.62
  C 659.58 105.20 662.62 108.65 663.33 110.12
  A 0.35 0.35 0.0 0 0 663.98 110.07
  C 670.73 88.10 688.13 75.60 710.76 75.36
  Q 711.26 75.36 718.52 75.78
  Q 722.78 76.02 726.29 76.94
  Q 739.15 80.28 746.23 82.97
  A 0.35 0.35 0.0 0 1 746.03 83.64
  Z"
/>
<path fill="#ffffff" d="
  M 610.86 164.56
  Q 610.53 165.03 610.17 165.20
  C 603.80 168.02 598.15 165.46 592.41 162.08
  A 0.63 0.63 0.0 0 0 591.57 162.27
  Q 579.22 180.62 556.72 183.97
  C 539.70 186.52 521.73 179.51 513.20 163.75
  C 500.29 139.93 509.27 111.80 530.89 96.79
  C 537.12 92.46 545.75 89.55 553.25 89.27
  Q 558.73 89.07 564.41 91.36
  Q 569.29 93.33 572.66 98.47
  Q 575.31 102.54 575.05 105.45
  A 0.43 0.43 0.0 0 0 575.59 105.91
  Q 583.74 103.84 588.86 109.25
  Q 591.69 112.23 595.66 119.69
  Q 601.15 129.98 605.23 139.31
  C 608.66 147.15 608.28 153.32 608.16 161.79
  C 608.13 163.32 608.95 164.72 610.62 164.22
  A 0.22 0.22 0.0 0 1 610.86 164.56
  Z
  M 567.79 119.80
  Q 567.67 119.65 563.40 116.85
  C 554.66 111.10 544.46 117.35 539.44 125.01
  Q 534.42 132.67 534.67 141.00
  C 534.82 145.71 536.62 151.51 540.91 154.17
  C 549.52 159.50 562.03 156.24 569.65 150.61
  Q 574.76 146.84 576.03 140.54
  A 5.35 5.30 38.1 0 0 575.61 137.19
  C 571.90 129.46 568.91 124.00 568.23 120.70
  A 2.05 1.93 20.7 0 0 567.79 119.80
  Z"
/>
<path fill="#ffffff" d="
  M 338.29 188.83
  Q 327.43 198.43 322.66 200.34
  Q 321.92 200.63 316.75 204.96
  Q 313.85 207.38 310.60 209.22
  Q 299.20 215.67 287.68 219.14
  Q 285.81 219.71 280.26 220.76
  C 252.90 225.94 229.14 210.46 222.88 183.37
  C 218.20 163.13 224.73 143.19 240.33 129.65
  C 253.21 118.46 272.35 112.26 289.23 117.46
  C 300.30 120.87 308.38 130.22 307.73 141.98
  C 307.16 152.24 300.84 160.99 293.59 167.86
  C 282.98 177.90 269.06 185.68 254.52 187.91
  A 0.29 0.28 63.8 0 0 254.36 188.39
  Q 258.88 193.11 265.70 195.00
  Q 294.22 202.93 321.53 195.66
  Q 327.79 193.99 337.71 188.03
  A 0.50 0.50 0.0 0 1 338.29 188.83
  Z
  M 248.52 165.25
  Q 267.17 159.85 279.20 145.86
  C 280.00 144.92 280.70 143.65 281.26 142.57
  A 0.57 0.57 0.0 0 0 280.84 141.74
  C 265.97 139.48 250.74 149.96 248.04 164.81
  A 0.39 0.38 87.2 0 0 248.52 165.25
  Z"
/>
</svg>
