<?xml version="1.0" encoding="UTF-8" standalone="no"?>
<!DOCTYPE svg PUBLIC "-//W3C//DTD SVG 1.1//EN" "http://www.w3.org/Graphics/SVG/1.1/DTD/svg11.dtd">
<svg xmlns="http://www.w3.org/2000/svg" version="1.1" viewBox="0.00 0.00 1393.00 220.00">
<path fill="#00bf2d" d="
  M 1034.24 146.98
  C 1031.69 150.80 1027.35 150.49 1023.65 148.33
  C 1010.53 140.66 1005.62 126.84 1002.48 112.30
  C 997.85 90.85 994.98 67.44 992.75 45.03
  C 991.75 34.99 989.32 21.28 988.35 14.44
  C 987.24 6.50 991.86 -3.31 1001.46 1.50
  C 1006.10 3.81 1008.42 9.10 1010.37 14.40
  C 1015.52 28.45 1018.27 42.88 1020.90 58.61
  Q 1026.96 94.76 1030.45 114.53
  Q 1032.52 126.24 1032.12 135.76
  Q 1031.81 143.25 1031.85 146.91
  A 0.62 0.61 74.7 0 0 1032.77 147.44
  L 1034.00 146.73
  A 0.18 0.18 0.0 0 1 1034.24 146.98
  Z"
/>
<path fill="#00bf2d" d="
  M 1072.06 5.54
  Q 1076.61 1.94 1081.71 2.24
  C 1088.70 2.65 1095.01 6.30 1098.01 12.73
  C 1106.56 31.11 1083.00 51.76 1068.25 33.81
  Q 1060.99 24.98 1066.75 13.06
  Q 1068.75 8.91 1072.23 6.77
  A 0.56 0.56 0.0 0 1 1073.01 7.54
  C 1069.15 13.86 1066.41 24.26 1075.09 27.92
  A 2.24 2.22 51.8 0 0 1076.31 28.07
  C 1082.97 27.03 1082.72 22.43 1081.23 17.21
  C 1080.34 14.11 1079.52 9.27 1076.75 6.80
  Q 1075.30 5.51 1072.34 6.13
  A 0.34 0.34 0.0 0 1 1072.06 5.54
  Z"
/>
<path fill="#00bf2d" d="
  M 1070.10 7.10
  Q 1070.12 7.01 1070.51 6.74
  A 0.13 0.10 -71.9 0 1 1070.58 6.96
  Q 1070.29 7.19 1070.21 7.20
  A 0.09 0.08 -0.5 0 1 1070.10 7.10
  Z"
/>
<path fill="#00bf2d" d="
  M 1379.40 89.70
  Q 1370.68 94.25 1361.77 96.70
  Q 1360.81 96.96 1353.39 100.17
  Q 1348.49 102.30 1344.92 103.36
  Q 1332.94 106.94 1323.93 108.28
  Q 1292.63 112.93 1265.09 99.21
  Q 1259.62 96.48 1253.08 90.99
  Q 1244.21 83.52 1239.90 72.43
  C 1232.37 53.02 1241.07 34.41 1257.60 23.33
  Q 1276.25 10.84 1298.22 13.43
  Q 1302.87 13.98 1308.88 16.88
  Q 1317.07 20.84 1319.47 28.99
  C 1321.45 35.74 1317.53 43.56 1312.97 48.98
  C 1303.10 60.68 1288.28 68.82 1273.71 73.21
  A 0.32 0.32 0.0 0 0 1273.64 73.80
  Q 1283.69 79.47 1294.94 82.35
  Q 1319.03 88.52 1342.13 92.22
  Q 1346.31 92.89 1350.93 92.83
  C 1354.11 92.78 1359.46 93.29 1362.70 92.72
  Q 1370.48 91.34 1379.12 88.97
  A 0.39 0.39 0.0 0 1 1379.40 89.70
  Z
  M 1261.57 59.27
  C 1274.60 54.25 1288.07 47.81 1298.12 38.88
  Q 1301.11 36.22 1302.90 33.44
  A 1.16 1.16 0.0 0 0 1302.59 31.87
  Q 1300.68 30.51 1298.18 30.00
  C 1284.62 27.23 1270.32 33.73 1263.04 45.23
  Q 1259.08 51.48 1261.17 59.07
  A 0.30 0.30 0.0 0 0 1261.57 59.27
  Z"
/>
<path fill="#00bf2d" d="
  M 1203.31 32.12
  A 0.55 0.55 0.0 0 1 1204.19 31.89
  Q 1212.69 39.17 1216.75 49.36
  Q 1220.07 57.66 1218.82 69.36
  Q 1216.65 89.69 1205.55 105.20
  C 1198.75 114.68 1188.08 123.58 1175.48 121.24
  C 1161.91 118.73 1153.50 103.35 1148.59 91.90
  Q 1143.40 79.78 1141.04 72.98
  C 1139.79 69.38 1137.82 63.16 1141.98 60.74
  Q 1144.71 59.15 1147.75 61.22
  A 2.95 2.87 86.4 0 1 1148.29 61.71
  C 1149.30 62.93 1150.81 64.57 1151.79 66.13
  C 1158.69 77.09 1163.91 85.06 1172.14 92.35
  Q 1174.39 94.35 1176.27 95.17
  A 3.09 3.09 0.0 0 0 1179.62 94.61
  C 1190.61 84.47 1192.15 68.39 1195.09 54.51
  Q 1195.92 50.55 1199.02 43.26
  Q 1200.68 39.36 1203.31 32.12
  Z"
/>
<path fill="#ffffff" d="
  M 61.97 180.99
  C 64.30 169.93 58.17 155.96 71.14 149.90
  Q 75.39 147.91 80.53 149.39
  Q 82.57 149.98 87.98 154.56
  Q 95.53 160.93 104.76 164.74
  C 114.29 168.68 121.00 164.96 124.54 155.51
  C 128.09 146.03 129.22 136.77 129.87 126.50
  Q 130.72 113.09 131.42 91.73
  Q 131.68 83.63 134.78 63.98
  C 135.29 60.74 135.40 56.23 134.93 53.12
  Q 134.60 50.94 132.80 50.56
  A 0.21 0.20 36.2 0 1 132.74 50.18
  Q 133.21 49.93 134.31 50.15
  Q 138.17 50.92 140.90 53.86
  C 150.61 64.30 155.64 79.12 157.32 93.70
  C 160.22 119.04 159.94 145.86 150.48 168.27
  C 146.78 177.04 139.99 185.56 131.48 190.20
  C 117.70 197.69 104.08 194.12 90.87 187.05
  A 0.39 0.39 0.0 0 0 90.30 187.33
  Q 88.17 201.41 80.21 210.75
  C 75.59 216.17 66.51 221.01 59.03 218.76
  Q 53.51 217.11 51.16 215.26
  Q 43.52 209.21 38.84 198.49
  Q 33.99 187.38 31.30 178.49
  Q 16.93 131.04 16.70 130.30
  C 11.30 112.53 4.99 88.91 1.61 76.13
  C 0.88 73.36 -0.36 67.76 0.98 64.33
  Q 3.05 59.00 8.28 61.67
  C 11.11 63.12 13.41 67.71 15.18 71.06
  Q 17.01 74.52 31.72 106.74
  Q 37.08 118.47 52.19 158.96
  Q 54.61 165.46 61.61 181.02
  A 0.19 0.19 0.0 0 0 61.97 180.99
  Z"
/>
<path fill="#ffffff" d="
  M 131.88 50.62
  Q 131.68 50.63 131.49 50.63
  Q 131.42 50.63 131.49 50.63
  Q 131.68 50.62 131.88 50.62
  Z"
/>
<path fill="#00bf2d" d="
  M 1094.59 61.91
  C 1098.51 64.29 1099.05 71.32 1098.84 75.40
  Q 1098.19 88.13 1099.97 102.02
  C 1100.54 106.49 1102.74 115.91 1101.93 122.75
  C 1101.23 128.62 1096.56 137.63 1089.27 133.75
  C 1082.18 129.98 1079.25 122.87 1077.73 115.02
  Q 1075.00 100.82 1076.08 85.77
  Q 1076.72 76.88 1079.58 69.06
  C 1081.68 63.32 1087.94 57.85 1094.59 61.91
  Z"
/>
<path fill="#ffffff" d="
  M 720.68 97.01
  Q 703.65 91.73 685.96 95.24
  C 676.77 97.06 669.19 101.56 665.44 110.22
  C 660.13 122.45 660.81 137.48 664.65 150.11
  Q 665.90 154.25 665.34 157.02
  C 663.83 164.39 656.33 169.03 649.07 166.36
  C 644.34 164.62 642.22 160.92 640.86 155.77
  Q 637.69 143.77 637.39 132.04
  C 637.29 127.67 638.09 122.97 638.28 118.94
  A 10.20 9.74 43.7 0 0 638.19 117.00
  C 637.58 112.88 636.73 109.67 638.53 106.50
  C 639.16 105.38 640.74 105.27 641.63 105.96
  A 0.46 0.46 0.0 0 0 642.34 105.74
  Q 643.09 103.61 645.43 99.46
  C 652.23 87.38 662.92 80.96 676.61 80.89
  Q 683.84 80.85 690.03 82.50
  Q 701.82 85.67 707.96 89.26
  Q 713.34 92.41 720.82 96.68
  A 0.18 0.18 0.0 0 1 720.68 97.01
  Z"
/>
<path fill="#ffffff" d="
  M 837.19 142.37
  C 829.57 147.43 820.86 152.06 812.54 156.75
  Q 808.58 158.97 806.18 159.77
  Q 800.47 161.69 799.51 161.99
  Q 791.71 164.43 782.93 164.87
  C 754.19 166.32 733.12 144.22 735.08 115.77
  C 736.30 98.07 748.98 85.47 766.37 82.33
  C 778.40 80.15 790.37 81.34 800.24 88.95
  C 812.90 98.72 805.51 112.08 794.99 119.03
  Q 780.36 128.68 762.26 127.83
  A 0.33 0.33 0.0 0 0 761.96 128.32
  Q 765.16 134.04 770.14 137.16
  Q 785.07 146.49 803.11 148.57
  Q 807.16 149.03 810.44 148.78
  Q 814.83 148.43 815.35 148.52
  Q 815.44 148.53 820.25 148.09
  Q 824.01 147.74 836.98 141.99
  A 0.22 0.22 0.0 0 1 837.19 142.37
  Z
  M 759.96 121.09
  Q 777.58 120.55 791.67 111.22
  Q 795.67 108.57 797.85 105.39
  C 802.93 97.99 794.74 93.12 788.75 91.44
  Q 780.72 89.17 772.59 92.39
  C 761.72 96.68 757.02 109.56 759.39 120.65
  A 0.56 0.56 0.0 0 0 759.96 121.09
  Z"
/>
<path fill="#00bf2d" d="
  M 1385.13 86.88
  Q 1384.76 87.16 1384.29 87.14
  Q 1384.66 86.85 1385.13 86.88
  Z"
/>
<path fill="#ffffff" d="
  M 613.29 156.71
  C 611.06 160.23 605.57 159.33 602.04 158.23
  Q 594.77 155.96 589.52 150.12
  A 0.31 0.30 34.8 0 0 589.01 150.21
  Q 584.60 160.83 577.66 166.18
  Q 560.64 179.31 540.15 173.54
  C 519.81 167.80 508.02 147.94 515.98 127.21
  C 522.17 111.07 538.28 97.80 555.97 96.66
  Q 568.43 95.85 576.04 104.93
  Q 579.15 108.65 578.57 112.95
  A 0.41 0.41 0.0 0 0 579.12 113.39
  C 585.33 111.05 590.24 115.66 593.95 120.06
  Q 597.64 124.42 602.41 130.54
  C 609.12 139.15 611.67 145.42 611.55 156.09
  A 0.75 0.74 -24.4 0 0 612.86 156.58
  Q 613.02 156.40 613.07 156.39
  A 0.21 0.21 0.0 0 1 613.29 156.71
  Z
  M 573.45 117.34
  Q 572.27 117.48 565.26 118.24
  Q 550.57 119.83 542.80 131.57
  C 539.80 136.10 537.92 142.95 543.08 146.67
  Q 545.69 148.55 548.62 149.12
  Q 561.44 151.58 569.36 143.17
  Q 572.91 139.39 573.85 135.10
  Q 574.88 130.41 572.74 125.95
  Q 571.06 122.46 573.72 117.73
  A 0.27 0.26 10.9 0 0 573.45 117.34
  Z"
/>
<path fill="#ffffff" d="
  M 224.46 162.27
  C 230.92 170.28 240.79 174.03 250.71 176.80
  Q 263.88 180.47 276.19 181.82
  Q 282.44 182.51 292.26 181.51
  Q 300.67 180.66 308.92 176.37
  Q 308.92 176.38 308.92 176.39
  Q 291.15 187.20 283.26 191.43
  Q 270.63 198.19 254.52 199.91
  Q 236.27 201.86 220.70 192.88
  Q 210.29 186.88 203.89 177.37
  C 182.51 145.58 204.09 106.79 242.76 109.09
  C 255.16 109.82 268.01 116.37 269.12 130.27
  Q 269.55 135.51 266.94 141.58
  C 262.15 152.72 249.42 160.47 237.97 163.19
  Q 231.01 164.84 224.61 162.06
  A 0.14 0.13 81.8 0 0 224.46 162.27
  Z
  M 219.51 149.14
  Q 220.51 147.56 222.10 147.07
  Q 228.72 145.01 233.26 143.27
  C 239.37 140.93 248.69 135.54 250.76 128.99
  A 0.77 0.76 22.9 0 0 250.39 128.09
  C 244.28 124.71 234.69 126.56 229.17 129.89
  Q 218.50 136.33 219.19 149.05
  A 0.17 0.17 0.0 0 0 219.51 149.14
  Z"
/>
</svg>
