<?xml version="1.0" encoding="UTF-8" standalone="no"?>
<!DOCTYPE svg PUBLIC "-//W3C//DTD SVG 1.1//EN" "http://www.w3.org/Graphics/SVG/1.1/DTD/svg11.dtd">
<svg xmlns="http://www.w3.org/2000/svg" version="1.1" viewBox="0.00 0.00 1095.00 547.00">
<path fill="#ffffff" d="
  M 1080.32 104.02
  Q 1075.34 106.55 1065.53 112.03
  C 1059.23 115.55 1054.62 117.27 1049.08 120.17
  Q 1046.97 121.27 1042.28 122.94
  Q 1027.00 128.36 1010.97 130.35
  Q 976.68 134.62 947.63 117.09
  Q 942.20 113.81 936.42 108.58
  C 918.05 91.98 910.86 67.71 916.55 43.49
  A 0.67 0.65 -67.2 0 0 916.27 42.78
  Q 909.44 38.44 899.01 33.75
  C 887.52 28.58 875.10 25.62 863.61 30.56
  Q 856.02 33.81 848.57 42.99
  Q 837.48 56.65 833.38 74.87
  C 830.10 89.46 830.31 104.49 831.07 119.01
  Q 832.02 137.34 831.86 142.21
  C 831.67 148.11 828.34 155.14 821.74 157.08
  Q 817.83 158.23 813.91 156.20
  C 808.73 153.51 806.88 147.86 806.51 142.24
  Q 805.93 133.58 805.48 125.10
  C 805.07 117.20 802.87 109.71 801.54 101.98
  C 800.89 98.19 799.50 91.80 802.64 90.09
  A 1.25 1.24 40.4 0 1 803.68 90.01
  L 804.41 90.28
  A 0.53 0.53 0.0 0 0 805.13 89.82
  Q 806.13 75.57 810.13 62.18
  C 815.10 45.58 825.60 27.21 842.33 19.67
  C 869.86 7.25 896.24 25.03 916.68 41.72
  A 0.30 0.29 27.6 0 0 917.15 41.58
  Q 923.75 19.47 941.93 7.90
  C 952.84 0.95 966.78 -1.40 979.13 1.90
  Q 997.35 6.77 1007.74 22.44
  C 1022.60 44.85 1006.75 65.69 987.70 77.20
  Q 974.61 85.10 959.86 90.19
  A 0.30 0.30 0.0 0 0 959.79 90.72
  Q 968.91 96.68 979.27 100.06
  Q 1006.90 109.06 1029.47 111.75
  Q 1045.78 113.70 1060.01 110.92
  Q 1069.95 108.98 1080.16 103.76
  A 0.15 0.15 0.0 0 1 1080.37 103.83
  L 1080.38 103.84
  A 0.13 0.13 0.0 0 1 1080.32 104.02
  Z
  M 944.67 71.18
  Q 964.54 64.93 981.09 54.11
  Q 987.14 50.15 991.18 45.50
  C 996.56 39.32 993.86 32.91 988.04 28.29
  C 977.21 19.71 961.67 20.80 951.82 30.12
  C 940.86 40.48 938.61 56.91 943.87 70.79
  A 0.65 0.64 70.5 0 0 944.67 71.18
  Z"
/>
<path fill="#ffffff" d="
  M 786.11 172.66
  Q 783.94 177.14 779.99 177.49
  Q 775.69 177.87 771.25 176.30
  C 759.97 172.32 751.61 164.85 745.90 154.15
  A 0.49 0.49 0.0 0 0 745.11 154.05
  Q 720.15 181.34 682.70 185.37
  Q 670.09 186.72 657.26 183.47
  C 631.96 177.07 616.77 154.12 623.49 128.22
  Q 628.12 110.35 641.59 96.04
  Q 662.88 73.42 692.75 64.48
  C 699.66 62.41 709.45 61.47 716.11 64.33
  Q 722.02 66.87 725.04 72.20
  Q 729.63 80.33 724.21 89.83
  A 0.46 0.45 31.7 0 1 723.57 89.98
  C 716.13 85.16 712.92 82.73 704.52 85.02
  C 683.38 90.80 658.20 109.29 650.88 131.25
  Q 648.38 138.76 649.81 144.43
  C 652.40 154.69 664.50 158.04 674.03 158.36
  Q 696.76 159.12 717.54 147.52
  Q 728.60 141.35 735.74 132.20
  A 1.51 1.51 0.0 0 0 735.96 130.74
  Q 730.72 117.08 728.19 104.31
  Q 727.72 101.97 728.52 96.13
  A 3.38 3.33 61.9 0 1 728.82 95.12
  C 733.02 86.32 743.66 84.46 749.97 92.47
  Q 758.74 103.63 759.96 117.33
  A 6.77 6.58 32.9 0 0 760.37 119.12
  Q 763.50 127.40 770.74 143.96
  C 774.08 151.59 776.02 157.99 778.52 166.48
  C 779.21 168.83 782.00 177.10 785.19 173.21
  Q 785.83 172.43 785.84 172.43
  A 0.18 0.18 0.0 0 1 786.11 172.66
  Z"
/>
<path fill="#ffffff" d="
  M 214.29 71.26
  C 217.16 70.83 221.54 74.56 223.64 76.89
  Q 235.26 89.83 241.90 105.84
  Q 247.03 118.23 250.09 131.63
  Q 255.75 156.40 257.78 181.75
  Q 259.02 197.17 257.84 212.99
  C 256.50 230.83 250.17 250.83 237.21 263.65
  Q 221.60 279.08 200.26 278.22
  C 182.67 277.51 166.70 267.57 153.01 255.06
  A 0.43 0.43 0.0 0 0 152.31 255.23
  Q 144.22 277.71 123.34 289.06
  Q 112.46 294.97 100.50 294.80
  C 86.56 294.61 73.50 286.67 64.48 276.24
  C 55.13 265.41 48.20 252.39 42.43 239.36
  C 30.29 211.96 21.41 182.70 10.36 154.56
  C 6.97 145.91 3.16 137.22 0.66 128.06
  C -0.78 122.80 1.37 117.74 6.67 116.22
  C 14.06 114.10 19.02 123.05 21.76 128.60
  C 33.36 152.10 41.56 173.42 52.91 201.86
  Q 58.32 215.42 64.65 228.57
  C 69.63 238.92 75.45 248.90 83.26 257.23
  Q 89.25 263.61 97.22 266.01
  Q 98.20 266.30 102.27 266.10
  C 107.90 265.82 113.91 261.87 117.44 258.15
  C 125.10 250.04 127.34 240.31 127.67 229.32
  Q 127.89 221.81 129.17 219.35
  C 135.55 207.10 151.35 210.25 154.28 223.13
  Q 154.83 225.58 158.22 229.01
  C 170.15 241.08 181.77 252.20 197.77 253.18
  C 228.33 255.05 231.59 211.86 230.79 191.39
  Q 229.87 167.77 227.24 149.49
  Q 222.61 117.31 219.55 89.17
  Q 219.18 85.72 218.39 82.16
  C 217.42 77.71 217.12 72.93 214.24 71.64
  A 0.20 0.20 0.0 0 1 214.29 71.26
  Z"
/>
<path fill="#ffffff" d="
  M 1081.44 103.11
  Q 1081.51 103.04 1081.93 102.88
  A 0.16 0.14 -63.1 0 1 1082.01 103.17
  Q 1081.88 103.22 1081.50 103.25
  A 0.08 0.08 0.0 0 1 1081.44 103.11
  Z"
/>
<path fill="#ffffff" d="
  M 458.94 208.33
  Q 458.02 209.43 457.27 210.03
  Q 449.44 216.34 438.64 224.53
  C 433.75 228.25 428.20 231.14 423.65 235.10
  A 5.34 5.02 8.1 0 1 422.71 235.76
  C 417.14 238.82 408.09 244.13 400.59 247.15
  Q 393.73 249.92 390.20 251.18
  Q 373.79 257.05 356.51 257.73
  Q 351.98 257.91 342.92 256.51
  Q 332.31 254.87 322.57 248.77
  C 305.10 237.85 298.84 218.00 304.56 198.52
  Q 308.41 185.41 317.58 173.57
  C 335.65 150.22 365.15 131.70 395.40 131.93
  C 403.76 131.99 413.92 134.75 418.07 142.43
  Q 422.74 151.08 418.75 161.03
  C 414.86 170.74 406.95 179.57 399.87 186.10
  Q 372.79 211.05 339.63 219.57
  C 335.29 220.69 330.31 221.70 326.78 220.94
  A 0.29 0.29 0.0 0 0 326.47 221.38
  C 331.56 229.13 341.16 232.65 350.10 233.57
  C 371.25 235.76 392.62 233.05 413.50 228.33
  Q 419.04 227.08 423.58 225.32
  C 427.60 223.76 432.01 222.78 436.88 220.81
  Q 447.28 216.60 456.58 210.13
  Q 458.12 209.05 458.13 209.04
  Q 458.29 208.14 458.66 207.97
  A 0.23 0.23 0.0 0 1 458.94 208.33
  Z
  M 326.48 201.00
  Q 342.27 196.28 352.50 191.25
  Q 374.86 180.27 392.32 160.57
  Q 393.99 158.68 396.66 154.21
  A 0.34 0.33 16.0 0 0 396.38 153.71
  Q 387.06 153.34 379.01 155.81
  Q 348.82 165.07 330.76 191.51
  Q 327.74 195.93 326.14 200.65
  A 0.27 0.27 0.0 0 0 326.48 201.00
  Z"
/>
<path fill="#ffffff" d="
  M 460.12 207.10
  Q 460.22 206.88 460.51 206.67
  A 0.20 0.13 -69.4 0 1 460.58 207.00
  Q 460.28 207.22 460.23 207.23
  A 0.09 0.09 0.0 0 1 460.12 207.10
  Z"
/>
<path fill="#00bf2d" d="
  M 462.60 355.34
  Q 465.42 350.07 471.03 344.43
  C 473.81 341.64 478.77 338.73 482.40 336.45
  Q 487.95 332.96 495.67 330.75
  Q 508.53 327.06 521.05 332.94
  C 535.00 339.49 541.50 353.12 538.24 368.06
  C 534.13 386.91 513.59 401.99 494.64 398.62
  C 474.09 394.96 464.57 371.77 477.74 355.26
  Q 480.28 352.07 483.23 350.64
  A 0.15 0.15 0.0 0 0 483.19 350.36
  Q 477.23 349.54 470.83 350.88
  Q 466.57 351.77 463.07 355.67
  A 0.29 0.29 0.0 0 1 462.60 355.34
  Z
  M 493.15 352.35
  Q 492.42 356.90 491.65 361.41
  C 490.74 366.74 492.45 373.50 499.29 372.77
  Q 505.89 372.07 510.13 366.38
  C 512.20 363.60 513.57 359.00 509.65 357.16
  Q 502.47 353.80 493.84 351.88
  A 0.57 0.57 0.0 0 0 493.15 352.35
  Z"
/>
<path fill="#00bf2d" d="
  M 434.98 543.63
  C 434.77 545.45 433.26 546.74 431.36 546.09
  Q 429.21 545.35 427.26 543.81
  C 423.93 541.16 418.40 537.60 415.41 534.84
  Q 409.40 529.29 405.38 520.35
  Q 393.55 494.02 385.12 466.35
  Q 374.96 433.01 369.32 402.97
  Q 365.22 381.14 364.97 356.75
  C 364.92 351.92 365.12 344.04 368.77 340.07
  C 375.06 333.22 384.15 335.27 388.13 343.35
  Q 388.93 344.97 389.99 350.46
  Q 390.84 354.87 391.19 357.71
  Q 398.82 418.99 419.31 477.70
  Q 425.30 494.86 432.21 509.83
  Q 436.04 518.10 435.94 526.52
  Q 435.82 536.41 434.98 543.63
  Z"
/>
<path fill="#00bf2d" d="
  M 840.08 446.47
  Q 830.56 454.17 823.53 458.56
  Q 820.17 460.66 810.76 465.75
  Q 804.10 469.36 799.10 470.61
  Q 789.82 472.94 781.19 474.40
  C 768.78 476.50 756.39 476.01 744.47 471.87
  Q 725.21 465.18 712.02 450.11
  C 699.95 436.31 694.12 417.71 698.77 399.93
  C 706.16 371.64 734.75 360.45 761.48 365.30
  C 770.51 366.94 780.41 371.43 783.68 380.21
  Q 786.16 386.86 783.74 393.24
  Q 779.42 404.66 769.58 413.12
  Q 754.26 426.29 734.05 431.19
  A 0.33 0.33 0.0 0 0 733.89 431.74
  Q 739.17 437.40 746.17 441.35
  Q 764.91 451.91 785.90 456.67
  Q 793.51 458.39 800.24 458.51
  Q 809.78 458.68 814.71 457.86
  Q 822.46 456.58 831.67 451.84
  C 834.97 450.14 837.29 447.81 839.96 446.29
  A 0.11 0.11 0.0 0 1 840.08 446.47
  Z
  M 724.44 407.08
  Q 735.75 404.99 745.95 399.25
  C 752.23 395.72 758.70 391.37 763.36 385.93
  A 0.50 0.50 0.0 0 0 763.14 385.13
  Q 761.54 384.63 759.25 384.38
  Q 745.90 382.90 734.63 389.36
  Q 725.50 394.61 723.74 406.41
  A 0.60 0.59 -0.8 0 0 724.44 407.08
  Z"
/>
<path fill="#00bf2d" d="
  M 642.09 365.57
  A 0.68 0.68 0.0 0 1 642.65 364.61
  C 647.24 364.15 652.48 368.72 657.33 372.21
  C 666.43 378.76 670.01 386.97 671.76 398.03
  Q 674.42 414.80 672.36 430.94
  C 669.85 450.68 660.33 474.53 639.96 481.91
  Q 629.08 485.85 618.56 480.63
  C 608.06 475.41 599.22 465.22 592.68 455.33
  Q 581.86 438.98 574.94 419.83
  Q 572.65 413.49 572.51 409.25
  Q 572.48 408.13 573.69 405.11
  A 1.95 1.91 -12.9 0 1 574.10 404.47
  C 577.30 401.23 581.72 405.15 583.33 407.99
  Q 585.21 411.30 589.94 420.32
  C 596.45 432.73 605.00 443.20 617.05 450.42
  Q 622.57 453.74 627.26 454.90
  C 634.41 456.68 640.10 442.56 641.59 437.31
  Q 645.34 424.03 643.90 408.24
  Q 643.60 404.87 641.57 392.96
  C 640.55 387.01 641.77 382.34 642.72 376.19
  Q 643.14 373.49 642.87 370.88
  Q 642.41 366.30 642.09 365.57
  Z"
/>
<path fill="#00bf2d" d="
  M 522.20 417.82
  Q 523.41 419.37 524.43 422.35
  Q 526.01 426.98 527.73 437.79
  Q 533.06 471.30 540.38 501.30
  Q 541.44 505.67 541.07 510.70
  C 540.70 515.74 537.94 522.12 532.79 523.99
  C 527.00 526.10 519.92 520.60 516.89 515.95
  Q 512.97 509.97 510.50 500.25
  Q 506.95 486.34 505.16 474.28
  Q 501.82 451.91 499.70 430.26
  Q 499.59 429.11 499.60 425.29
  C 499.61 420.28 503.39 415.03 507.39 413.11
  C 512.87 410.48 518.79 413.43 522.20 417.82
  Z"
/>
<path fill="#00bf2d" d="
  M 841.78 445.18
  Q 841.74 445.22 841.42 445.37
  A 0.08 0.08 0.0 0 1 841.31 445.29
  Q 841.34 445.13 841.61 444.93
  A 0.16 0.15 -81.0 0 1 841.78 445.18
  Z"
/>
</svg>
