<?xml version="1.0" encoding="UTF-8" standalone="no"?>
<!DOCTYPE svg PUBLIC "-//W3C//DTD SVG 1.1//EN" "http://www.w3.org/Graphics/SVG/1.1/DTD/svg11.dtd">
<svg xmlns="http://www.w3.org/2000/svg" version="1.1" viewBox="0.00 0.00 1332.00 632.00">
<path fill="#ffffff" d="
  M 276.42 0.84
  Q 278.42 0.32 281.89 1.05
  A 0.89 0.87 68.8 0 1 282.22 1.20
  L 287.21 4.98
  A 1.64 1.40 86.5 0 1 287.48 5.26
  Q 297.71 18.74 304.17 34.09
  Q 304.79 35.57 305.27 40.77
  Q 306.08 49.65 305.63 61.26
  Q 304.14 99.71 294.72 136.72
  C 287.80 163.89 276.34 190.78 258.45 212.43
  C 245.11 228.58 227.27 240.35 205.24 235.46
  Q 195.14 233.21 186.42 228.56
  Q 169.94 219.76 154.11 206.21
  A 0.32 0.32 0.0 0 0 153.59 206.40
  Q 153.30 208.08 152.73 212.75
  C 150.26 232.95 141.48 262.88 119.13 269.30
  Q 111.27 271.56 102.85 268.34
  C 84.30 261.27 71.87 237.45 64.91 220.62
  Q 56.45 200.17 50.18 178.31
  C 38.86 138.84 27.29 96.59 13.94 60.77
  Q 9.40 48.58 3.72 34.86
  Q 1.74 30.09 0.93 26.81
  C -0.63 20.53 3.94 14.26 9.91 12.82
  C 16.34 11.27 20.91 15.22 24.31 20.32
  Q 29.01 27.35 33.00 35.56
  Q 43.72 57.64 49.61 75.14
  C 59.71 105.17 68.56 137.10 77.50 168.87
  Q 78.86 173.71 82.45 184.80
  C 86.54 197.44 91.35 210.44 97.37 221.88
  C 100.88 228.55 105.55 236.33 111.79 240.64
  A 0.74 0.74 0.0 0 0 112.74 240.53
  C 115.40 237.60 117.53 233.92 118.91 230.16
  Q 123.99 216.33 124.86 200.97
  Q 126.01 180.72 126.10 179.57
  C 126.77 171.14 132.29 166.47 140.15 164.65
  Q 146.97 163.08 152.71 167.84
  Q 169.15 181.48 178.11 188.62
  Q 190.06 198.14 201.73 203.96
  C 205.78 205.98 211.62 207.83 215.73 207.62
  C 222.98 207.24 229.30 201.93 233.96 196.71
  C 243.94 185.50 251.33 172.53 257.20 158.23
  C 269.28 128.77 274.88 95.70 276.52 63.50
  Q 276.98 54.52 276.84 38.70
  A 5.71 5.42 53.0 0 1 277.00 37.29
  Q 277.22 36.36 279.83 23.85
  Q 282.29 12.11 279.71 3.33
  Q 279.18 1.54 276.44 1.15
  A 0.16 0.16 0.0 0 1 276.42 0.84
  Z"
/>
<path fill="#ffffff" d="
  M 1113.25 117.26
  Q 1084.24 113.37 1053.48 112.66
  Q 1046.32 112.50 1041.23 113.06
  Q 1025.89 114.75 1017.65 127.72
  Q 1008.32 142.40 1007.55 161.30
  Q 1007.00 174.65 1008.66 187.22
  Q 1009.51 193.68 1008.59 196.44
  C 1004.52 208.68 989.76 210.85 982.33 200.18
  Q 980.19 197.11 979.62 190.33
  C 979.24 185.94 978.33 179.94 978.06 175.21
  Q 977.04 157.42 976.12 144.01
  Q 975.86 140.27 976.56 133.45
  A 1.83 1.81 -23.8 0 1 976.92 132.53
  C 978.53 130.40 981.72 129.18 982.98 132.01
  A 0.46 0.46 0.0 0 0 983.83 131.97
  Q 987.32 121.55 993.28 112.32
  C 1001.94 98.93 1014.44 89.51 1029.94 85.67
  Q 1043.88 82.22 1059.57 85.92
  C 1076.06 89.81 1089.99 100.72 1103.30 111.19
  Q 1108.10 114.96 1113.34 116.89
  A 0.19 0.19 0.0 0 1 1113.25 117.26
  Z"
/>
<path fill="#ffffff" d="
  M 1320.15 181.27
  Q 1319.01 182.42 1317.53 183.54
  Q 1307.25 191.25 1295.48 198.20
  Q 1294.62 198.71 1285.07 203.20
  Q 1279.89 205.63 1274.35 207.48
  Q 1256.30 213.51 1248.99 215.17
  Q 1244.40 216.21 1234.53 215.66
  C 1206.49 214.07 1175.80 202.85 1157.61 180.48
  C 1140.13 158.97 1138.90 130.96 1153.63 107.62
  C 1164.73 90.03 1184.36 82.11 1204.72 84.96
  Q 1223.71 87.63 1238.23 98.46
  Q 1245.15 103.62 1246.99 112.18
  C 1248.57 119.56 1242.85 128.22 1237.42 132.45
  Q 1226.82 140.69 1213.62 144.92
  Q 1194.59 151.02 1174.24 150.74
  A 0.39 0.39 0.0 0 0 1173.87 151.26
  C 1181.21 172.69 1207.60 183.06 1228.04 185.95
  C 1237.69 187.31 1244.62 187.68 1253.82 189.66
  Q 1264.54 191.97 1276.28 192.36
  Q 1282.96 192.58 1293.27 191.42
  Q 1306.35 189.95 1317.50 183.14
  Q 1318.89 182.30 1319.08 181.97
  Q 1319.54 181.20 1319.96 181.00
  A 0.17 0.17 0.0 0 1 1320.15 181.27
  Z
  M 1177.47 124.84
  Q 1199.01 124.23 1217.10 115.02
  A 0.37 0.37 0.0 0 0 1217.07 114.34
  Q 1209.61 111.44 1201.74 111.00
  Q 1185.05 110.07 1177.21 124.41
  A 0.29 0.29 0.0 0 0 1177.47 124.84
  Z"
/>
<path fill="#ffffff" d="
  M 943.45 197.36
  Q 940.54 203.03 934.79 202.53
  Q 929.14 202.03 919.91 198.61
  Q 911.26 195.40 906.71 188.50
  Q 900.57 179.17 896.57 170.01
  A 0.25 0.24 50.2 0 0 896.14 169.97
  C 887.57 182.88 874.51 193.16 860.85 199.81
  Q 834.64 212.57 806.30 213.37
  Q 790.09 213.82 776.04 208.24
  C 757.46 200.87 746.65 183.45 750.77 163.00
  Q 753.74 148.31 763.55 136.02
  Q 782.48 112.31 811.89 99.95
  Q 827.07 93.57 842.74 92.43
  C 852.09 91.75 868.63 94.26 872.43 104.60
  C 874.41 109.99 870.68 113.73 865.70 114.67
  Q 860.30 115.70 855.02 116.05
  C 838.39 117.18 821.89 124.23 808.09 133.99
  C 795.71 142.75 778.66 156.34 778.82 173.20
  Q 778.83 174.03 780.08 176.52
  A 3.52 3.44 9.1 0 0 780.79 177.48
  C 787.26 183.52 798.00 184.81 806.89 184.36
  Q 838.75 182.75 864.40 164.10
  C 873.32 157.61 880.39 148.37 881.51 137.11
  A 6.17 6.09 37.2 0 0 881.10 134.26
  Q 878.47 127.75 876.78 122.77
  Q 875.87 120.07 876.17 114.68
  Q 876.61 106.66 883.92 102.89
  C 890.53 99.49 896.65 102.83 901.31 108.37
  Q 903.20 110.60 905.29 116.55
  Q 908.15 124.68 916.17 143.62
  Q 923.66 161.32 931.77 174.77
  C 933.63 177.86 934.48 182.26 935.20 187.48
  Q 935.90 192.46 937.97 196.56
  C 939.41 199.38 941.47 200.31 943.23 197.17
  A 0.11 0.10 30.1 0 1 943.38 197.14
  A 0.17 0.17 0.0 0 1 943.45 197.36
  Z"
/>
<path fill="#ffffff" d="
  M 500.95 218.06
  Q 488.38 228.24 480.67 233.85
  Q 474.22 238.53 468.12 242.01
  Q 458.93 247.25 442.52 253.51
  Q 429.30 258.56 414.29 258.65
  C 391.71 258.80 367.46 252.60 350.29 237.58
  C 325.90 216.24 324.46 181.17 344.68 156.42
  C 346.39 154.33 347.80 152.43 349.21 150.95
  C 365.79 133.72 388.63 121.36 412.75 119.55
  C 424.65 118.66 438.47 120.89 448.20 128.29
  Q 460.91 137.94 460.76 153.19
  C 460.61 169.95 445.93 184.87 433.51 194.21
  Q 407.53 213.72 376.29 220.64
  A 0.19 0.19 0.0 0 0 376.25 221.00
  Q 381.42 223.60 382.51 224.01
  Q 396.94 229.38 413.01 229.80
  C 422.40 230.04 436.24 231.14 447.42 231.15
  Q 458.86 231.15 461.26 230.96
  Q 469.36 230.32 479.28 228.01
  Q 491.49 225.17 500.68 217.95
  A 0.19 0.18 51.1 0 1 500.95 217.98
  L 500.96 217.99
  A 0.05 0.05 0.0 0 1 500.95 218.06
  Z
  M 360.26 196.15
  C 380.98 194.26 400.39 185.08 417.00 172.75
  C 423.45 167.96 432.20 160.32 433.60 153.13
  C 434.22 149.95 430.41 148.27 428.02 147.67
  C 412.57 143.80 396.08 149.44 383.23 158.16
  C 370.71 166.64 359.49 179.70 359.58 195.54
  A 0.62 0.62 0.0 0 0 360.26 196.15
  Z"
/>
<path fill="#00bf2d" d="
  M 408.81 631.77
  A 0.75 0.75 0.0 0 1 408.14 631.50
  Q 398.07 619.53 391.43 605.86
  Q 385.60 593.87 382.02 576.55
  Q 377.78 556.07 376.29 535.74
  Q 374.07 505.60 374.09 473.00
  Q 374.11 430.56 374.25 395.75
  Q 374.30 382.26 375.09 371.33
  Q 375.27 368.75 377.31 364.57
  C 379.25 360.57 383.51 357.93 388.04 359.23
  C 393.47 360.78 396.13 367.16 396.64 372.27
  Q 396.65 372.39 397.02 376.44
  Q 397.37 380.42 397.38 380.58
  Q 399.12 436.33 401.12 482.00
  C 402.24 507.75 403.25 528.03 406.11 549.73
  Q 407.20 558.00 411.52 585.72
  Q 413.47 598.21 412.56 612.99
  Q 412.04 621.35 410.11 630.51
  Q 409.88 631.65 408.81 631.77
  Z"
/>
<path fill="#00bf2d" d="
  M 474.69 411.78
  Q 481.74 401.64 489.76 395.27
  C 491.66 393.76 495.51 391.45 498.20 390.52
  C 502.17 389.16 504.79 387.90 508.68 387.11
  Q 525.23 383.75 540.03 392.99
  C 550.79 399.70 560.90 410.80 561.40 423.35
  Q 561.88 435.29 551.61 443.32
  C 528.77 461.16 483.80 444.87 490.77 411.36
  C 491.51 407.79 492.34 404.87 494.93 402.91
  C 499.94 399.12 503.08 405.94 502.53 410.25
  C 501.69 416.89 500.96 423.50 506.88 427.76
  C 513.40 432.46 523.86 432.93 532.27 430.77
  C 534.91 430.09 541.11 427.39 539.89 423.60
  C 538.91 420.54 536.32 417.20 533.93 415.11
  C 525.58 407.77 514.16 401.49 502.93 400.01
  Q 488.44 398.09 478.34 408.11
  Q 476.53 409.91 474.69 411.78
  Z"
/>
<path fill="#00bf2d" d="
  M 474.69 411.78
  Q 474.49 412.16 474.22 412.51
  A 0.10 0.09 -12.6 0 1 474.06 412.41
  Q 474.30 411.95 474.69 411.78
  Z"
/>
<path fill="#00bf2d" d="
  M 799.11 543.07
  C 807.49 554.40 820.50 561.68 833.95 565.54
  Q 841.74 567.78 847.54 568.63
  Q 858.10 570.18 867.86 570.06
  C 882.12 569.89 897.77 570.51 910.20 569.91
  Q 910.50 569.89 925.20 567.80
  C 932.60 566.74 937.99 564.67 945.69 562.51
  Q 949.22 561.52 953.68 559.64
  Q 966.38 554.28 977.27 545.89
  A 0.06 0.05 -13.4 0 1 977.36 545.94
  Q 977.33 546.09 977.22 546.18
  Q 970.67 551.36 956.69 561.53
  Q 950.77 565.84 946.47 568.49
  Q 940.75 572.01 939.58 573.07
  Q 936.91 575.50 932.63 577.40
  Q 932.60 577.42 920.39 583.56
  Q 915.80 585.87 908.83 588.91
  Q 899.53 592.97 897.06 593.79
  Q 891.86 595.51 883.62 597.59
  Q 877.73 599.08 869.83 599.06
  Q 857.45 599.02 843.83 597.44
  Q 841.80 597.21 831.51 594.81
  Q 814.74 590.92 799.27 581.46
  C 785.44 573.00 773.90 560.43 767.48 545.54
  C 761.22 531.05 759.78 514.85 764.93 499.85
  C 772.29 478.36 790.30 461.51 811.51 453.00
  C 827.02 446.78 845.45 445.81 860.62 453.34
  C 869.62 457.81 875.98 466.37 876.75 476.47
  C 878.18 495.22 861.01 513.35 846.53 523.03
  Q 828.11 535.34 807.29 542.31
  Q 803.49 543.58 799.34 542.71
  A 0.23 0.23 0.0 0 0 799.11 543.07
  Z
  M 793.27 530.91
  Q 794.11 528.12 796.22 526.44
  C 801.92 521.93 809.23 518.46 819.03 513.03
  Q 834.60 504.40 846.54 491.65
  C 849.71 488.26 858.54 477.19 851.41 473.39
  C 843.35 469.11 831.62 470.18 823.49 473.24
  Q 810.27 478.22 801.03 488.93
  C 793.63 497.51 790.60 506.76 790.79 518.25
  Q 790.92 526.55 792.85 530.93
  A 0.23 0.22 42.1 0 0 793.27 530.91
  Z"
/>
<path fill="#00bf2d" d="
  M 718.66 457.83
  C 715.20 459.63 714.40 464.48 714.35 468.01
  Q 714.24 476.31 715.27 490.74
  Q 715.46 493.42 714.95 499.26
  Q 714.58 503.44 713.73 507.68
  Q 709.06 530.91 701.95 553.68
  Q 695.54 574.19 686.15 590.63
  Q 680.56 600.40 673.67 607.18
  Q 667.12 613.62 658.26 615.22
  C 654.34 615.93 647.65 613.40 644.88 611.59
  Q 640.63 608.81 635.88 602.76
  C 622.98 586.33 613.61 566.30 606.45 546.59
  Q 602.55 535.86 592.66 504.58
  Q 590.51 497.76 589.85 492.74
  Q 589.68 491.37 590.50 487.36
  A 2.56 2.43 68.2 0 1 590.81 486.58
  Q 594.69 480.10 601.02 483.56
  C 604.79 485.62 607.44 490.77 609.48 495.27
  Q 613.16 503.38 622.55 525.47
  Q 631.13 545.65 640.88 563.22
  C 644.94 570.55 649.84 577.80 655.20 584.05
  A 0.49 0.49 0.0 0 0 655.95 584.04
  Q 658.13 581.34 661.08 576.35
  Q 667.97 564.66 673.42 547.93
  Q 678.86 531.22 681.91 517.46
  Q 684.37 506.40 686.48 498.16
  Q 690.02 484.39 700.43 471.93
  Q 705.84 465.45 707.19 464.01
  Q 712.03 458.81 718.61 457.67
  A 0.09 0.08 -62.8 0 1 718.66 457.83
  Z"
/>
<path fill="#00bf2d" d="
  M 525.27 479.68
  C 527.34 482.81 527.01 489.38 526.95 494.51
  Q 526.35 545.35 530.60 595.94
  C 531.27 603.89 529.93 611.85 526.43 619.00
  C 524.65 622.63 521.55 623.98 518.31 621.17
  C 509.53 613.59 506.55 604.05 505.18 592.54
  Q 503.95 582.19 503.73 569.25
  Q 503.17 537.64 507.18 505.99
  C 508.05 499.10 511.19 477.69 520.02 476.51
  Q 522.91 476.13 525.27 479.68
  Z"
/>
</svg>
