<?xml version="1.0" encoding="UTF-8" standalone="no"?>
<!DOCTYPE svg PUBLIC "-//W3C//DTD SVG 1.1//EN" "http://www.w3.org/Graphics/SVG/1.1/DTD/svg11.dtd">
<svg xmlns="http://www.w3.org/2000/svg" version="1.1" viewBox="0.00 0.00 1332.00 652.00">
<path fill="#ffffff" d="
  M 76.36 261.67
  Q 80.16 251.65 82.73 239.24
  Q 83.89 233.69 89.19 206.49
  Q 92.01 191.98 96.60 180.87
  Q 97.95 177.60 102.50 173.00
  Q 107.24 168.20 113.95 168.61
  Q 121.44 169.08 127.15 173.32
  Q 133.06 177.70 136.72 181.28
  Q 148.73 193.02 163.13 208.87
  C 169.44 215.82 178.66 224.20 187.97 229.78
  Q 192.33 232.39 196.22 232.68
  C 200.11 232.97 204.75 227.59 207.10 224.37
  Q 211.89 217.83 215.48 208.26
  Q 219.91 196.51 222.00 184.25
  C 227.62 151.36 228.30 116.49 227.02 83.01
  Q 226.77 76.52 225.30 61.83
  Q 224.81 56.97 225.25 53.17
  Q 225.71 49.16 226.63 44.57
  Q 230.01 27.75 230.45 26.14
  Q 231.20 23.38 231.30 21.91
  C 231.51 18.70 232.64 16.39 234.09 13.64
  A 0.57 0.57 0.0 0 1 235.10 13.64
  Q 242.38 27.13 250.15 44.62
  C 251.90 48.56 253.56 53.09 254.06 57.92
  Q 256.71 83.92 256.53 110.00
  C 256.34 136.06 255.06 162.65 250.79 187.76
  C 248.07 203.75 243.33 219.50 235.48 233.48
  C 224.58 252.89 205.29 268.59 181.76 258.72
  C 167.12 252.59 154.31 241.49 142.84 229.22
  Q 128.34 213.70 119.77 204.82
  A 0.39 0.38 -60.8 0 0 119.12 205.01
  Q 115.64 221.07 112.38 238.88
  Q 108.68 259.09 101.17 277.65
  Q 96.81 288.44 89.44 296.42
  C 87.49 298.53 81.88 301.19 79.44 301.89
  C 70.20 304.54 60.51 296.36 56.58 288.84
  Q 48.69 273.74 43.38 254.90
  Q 37.43 233.83 33.27 211.74
  Q 27.37 180.40 19.15 128.71
  Q 6.58 49.66 1.85 25.99
  Q 1.49 24.22 0.97 19.08
  C 0.29 12.47 -0.58 8.33 3.97 3.50
  C 9.55 -2.43 17.82 1.81 20.34 7.94
  C 21.71 11.27 23.16 15.39 24.30 19.78
  Q 35.42 62.55 44.48 108.74
  C 50.10 137.33 55.12 170.66 59.99 197.25
  C 64.35 221.08 68.50 240.00 75.91 261.66
  A 0.24 0.24 0.0 0 0 76.36 261.67
  Z"
/>
<path fill="#ffffff" d="
  M 1131.54 132.27
  Q 1121.60 130.21 1112.27 130.60
  Q 1084.57 131.76 1059.12 136.11
  C 1044.41 138.62 1032.70 144.73 1023.99 156.79
  C 1012.70 172.43 1008.95 190.55 1009.45 210.01
  Q 1009.97 230.60 1010.12 237.20
  Q 1010.28 243.81 1009.25 246.69
  C 1005.75 256.46 994.12 259.83 986.09 252.98
  Q 983.51 250.77 981.54 246.29
  C 976.57 235.05 974.83 224.90 972.22 211.80
  Q 969.78 199.51 968.70 191.64
  Q 965.44 167.85 965.07 142.38
  Q 965.01 138.02 966.87 134.55
  C 969.79 129.11 974.84 130.12 978.17 134.29
  Q 980.28 136.94 982.47 143.57
  Q 983.94 148.00 987.70 163.17
  A 0.19 0.19 0.0 0 0 988.07 163.19
  C 993.52 148.14 1003.60 133.53 1016.32 123.60
  Q 1033.26 110.38 1054.01 108.51
  C 1073.87 106.71 1092.52 114.09 1110.32 121.94
  Q 1112.90 123.08 1128.68 131.19
  A 2.61 2.45 65.3 0 0 1129.05 131.34
  L 1131.57 132.14
  A 0.07 0.07 0.0 0 1 1131.54 132.27
  Z"
/>
<path fill="#ffffff" d="
  M 1320.28 206.70
  Q 1317.39 208.62 1313.87 210.60
  Q 1296.94 220.08 1279.93 226.69
  C 1273.52 229.17 1266.22 230.80 1260.63 232.51
  C 1255.61 234.05 1250.30 234.51 1244.91 235.51
  Q 1242.62 235.93 1238.54 236.30
  Q 1209.04 238.94 1180.39 226.84
  C 1160.24 218.32 1141.53 202.83 1136.01 180.84
  C 1132.65 167.43 1135.42 152.69 1143.07 141.36
  C 1154.43 124.54 1173.55 115.95 1193.99 116.75
  C 1210.54 117.39 1234.40 127.82 1232.56 148.04
  C 1231.22 162.67 1218.99 176.02 1206.70 183.20
  Q 1194.30 190.45 1179.84 193.27
  A 0.38 0.38 0.0 0 0 1179.71 193.96
  C 1189.06 199.89 1198.51 203.36 1210.24 206.04
  Q 1232.66 211.15 1255.78 214.13
  C 1265.65 215.40 1275.57 216.35 1285.24 215.55
  Q 1288.81 215.26 1292.97 214.91
  Q 1304.63 213.95 1315.75 209.03
  A 3.39 2.99 11.7 0 0 1316.24 208.75
  Q 1318.31 207.25 1320.15 206.46
  A 0.14 0.14 0.0 0 1 1320.28 206.70
  Z
  M 1164.28 172.44
  Q 1177.00 169.56 1185.33 166.36
  Q 1198.22 161.43 1208.68 151.50
  Q 1211.66 148.67 1213.32 145.26
  A 2.82 2.82 0.0 0 0 1212.84 142.11
  C 1208.38 137.35 1198.55 136.41 1192.77 137.22
  Q 1181.91 138.75 1173.68 145.37
  C 1165.55 151.91 1161.09 161.56 1163.45 171.92
  A 0.70 0.70 0.0 0 0 1164.28 172.44
  Z"
/>
<path fill="#ffffff" d="
  M 870.50 155.12
  Q 873.77 152.09 876.76 152.16
  C 884.68 152.36 889.38 156.75 893.36 163.12
  Q 897.00 168.95 901.33 178.94
  C 906.03 189.77 910.27 204.98 915.55 217.87
  Q 919.03 226.34 918.42 235.74
  Q 918.29 237.68 919.68 244.59
  A 1.34 1.28 -76.1 0 0 920.08 245.29
  Q 920.33 245.50 920.33 245.51
  A 0.79 0.79 0.0 0 1 919.80 246.80
  Q 915.85 247.19 913.21 246.36
  Q 910.14 245.39 905.17 243.61
  Q 892.94 239.23 887.63 225.84
  Q 883.20 214.69 881.87 209.89
  A 0.31 0.31 0.0 0 0 881.30 209.82
  C 872.12 226.15 854.88 239.44 837.74 247.01
  C 819.76 254.96 800.43 258.16 781.81 252.71
  C 762.16 246.97 749.44 229.65 753.92 208.51
  C 756.36 196.96 762.13 186.71 769.48 177.72
  Q 787.07 156.23 812.89 144.63
  C 823.51 139.87 835.60 136.41 847.43 137.26
  C 856.23 137.89 870.89 143.96 870.11 154.93
  A 0.23 0.23 0.0 0 0 870.50 155.12
  Z
  M 867.96 157.52
  Q 863.43 157.35 860.04 157.02
  C 854.12 156.43 845.78 158.44 840.13 160.38
  C 820.34 167.17 802.46 179.15 789.66 195.89
  Q 784.02 203.27 781.66 210.95
  C 780.89 213.47 780.34 217.87 781.14 219.64
  C 784.88 228.02 801.19 228.75 809.01 228.01
  Q 830.94 225.94 849.30 214.02
  C 860.60 206.68 868.16 197.27 867.65 182.99
  Q 867.46 177.53 866.52 169.99
  Q 865.72 163.62 868.29 158.06
  A 0.38 0.38 0.0 0 0 867.96 157.52
  Z"
/>
<path fill="#ffffff" d="
  M 516.55 208.71
  A 0.12 0.12 0.0 0 1 516.72 208.72
  L 516.73 208.72
  A 0.11 0.11 0.0 0 1 516.73 208.86
  Q 516.05 209.70 499.36 226.36
  C 495.38 230.33 491.21 233.43 487.36 237.70
  Q 485.97 239.23 482.43 242.05
  Q 465.19 255.77 452.00 263.97
  C 421.28 283.06 386.60 294.38 350.81 298.33
  C 344.76 299.00 339.88 298.87 333.55 298.97
  Q 328.95 299.05 326.95 298.71
  C 321.77 297.83 317.92 297.87 313.04 296.47
  Q 306.48 294.60 305.83 294.37
  Q 294.51 290.35 286.64 282.02
  C 270.42 264.84 271.31 238.80 278.93 218.16
  C 292.35 181.77 331.01 144.47 372.97 148.77
  C 386.18 150.13 400.74 156.68 405.68 169.96
  C 411.02 184.31 399.67 198.44 388.72 206.22
  Q 367.23 221.49 340.49 224.17
  C 331.46 225.07 323.17 225.06 315.13 221.38
  Q 311.02 219.49 308.80 214.27
  A 0.32 0.32 0.0 0 0 308.22 214.24
  C 302.75 223.99 299.10 235.63 299.89 246.93
  C 300.85 260.62 308.60 265.97 321.05 268.61
  Q 331.81 270.89 345.00 269.73
  Q 367.70 267.73 391.20 260.42
  Q 415.51 252.86 438.36 245.60
  Q 464.61 237.27 475.76 232.85
  Q 481.23 230.68 484.65 228.87
  Q 485.23 228.56 493.44 224.69
  Q 506.16 218.71 516.55 208.71
  Z
  M 317.08 201.88
  C 321.79 200.87 326.67 200.81 333.73 200.01
  Q 356.19 197.48 373.12 185.64
  Q 377.82 182.35 380.73 178.39
  A 0.89 0.89 0.0 0 0 380.46 177.09
  C 373.36 172.97 364.62 173.07 356.26 174.67
  C 341.15 177.55 326.13 189.57 316.80 201.44
  A 0.28 0.28 0.0 0 0 317.08 201.88
  Z"
/>
<path fill="#00bf2d" d="
  M 399.52 652.00
  L 395.07 652.00
  Q 384.27 649.06 379.22 638.29
  Q 375.50 630.36 373.05 621.69
  Q 369.17 607.97 366.65 594.12
  Q 360.38 559.67 356.04 525.97
  C 353.73 507.99 352.68 487.14 351.01 470.01
  Q 349.45 454.09 349.72 442.52
  C 349.77 440.37 350.35 437.84 351.97 436.57
  A 2.14 2.13 49.1 0 1 354.83 436.78
  C 358.88 441.00 360.85 448.19 362.19 453.85
  Q 362.21 453.91 372.63 493.95
  Q 378.67 517.12 382.19 534.26
  Q 389.87 571.56 393.02 586.49
  Q 397.63 608.34 405.22 629.98
  Q 408.29 638.74 406.71 646.21
  Q 405.68 651.09 399.52 652.00
  Z"
/>
<path fill="#00bf2d" d="
  M 435.94 460.71
  C 440.21 454.62 447.38 450.62 454.91 451.93
  Q 457.57 452.39 461.48 451.94
  Q 464.55 451.58 468.04 452.10
  Q 480.32 453.94 486.42 464.11
  C 496.12 480.27 484.46 496.30 468.34 500.38
  C 455.90 503.53 443.17 498.56 436.09 487.92
  C 430.30 479.21 430.03 469.12 435.94 460.71
  Z
  M 459.47 470.02
  L 456.95 472.54
  A 1.71 1.71 0.0 0 0 457.30 475.22
  Q 460.43 477.06 463.97 475.68
  A 0.23 0.23 0.0 0 0 464.07 475.33
  L 460.25 470.08
  A 0.52 0.51 -40.3 0 0 459.47 470.02
  Z"
/>
<path fill="#00bf2d" d="
  M 624.10 465.92
  Q 624.65 465.07 626.07 465.24
  Q 628.63 465.54 630.90 467.78
  Q 642.11 478.87 643.84 494.20
  Q 644.34 498.63 643.75 506.24
  Q 642.83 518.06 639.49 533.99
  C 636.22 549.62 631.15 566.36 620.69 578.92
  C 616.16 584.37 608.28 588.89 601.03 588.92
  Q 593.46 588.94 586.74 584.25
  Q 581.76 580.77 576.59 574.68
  C 567.98 564.56 561.05 553.57 555.23 539.98
  Q 549.41 526.36 546.14 517.37
  C 544.16 511.94 543.00 502.72 550.98 502.03
  C 555.23 501.67 559.93 507.45 562.05 510.98
  Q 570.66 525.31 580.70 540.32
  Q 586.09 548.39 591.58 554.43
  Q 594.89 558.08 598.09 560.38
  A 0.83 0.83 0.0 0 0 599.21 560.23
  Q 601.45 557.51 603.17 553.94
  C 608.15 543.58 611.11 530.65 613.08 519.06
  Q 614.07 513.21 616.86 494.63
  C 617.29 491.78 618.12 488.77 619.02 485.58
  C 620.39 480.72 622.88 475.74 623.86 472.52
  A 1.14 0.94 -39.3 0 0 623.90 472.32
  L 624.67 467.05
  A 0.84 0.82 -62.7 0 0 624.46 466.36
  Q 624.45 466.36 624.25 466.31
  A 0.26 0.26 0.0 0 1 624.10 465.92
  Z"
/>
<path fill="#00bf2d" d="
  M 854.28 538.23
  Q 853.87 538.50 843.27 544.00
  C 835.46 548.05 828.62 552.08 820.26 556.15
  C 818.37 557.07 816.92 558.16 815.49 559.14
  A 7.29 7.26 16.0 0 1 814.42 559.73
  Q 808.11 562.51 801.19 565.58
  Q 793.61 568.95 789.06 570.41
  C 783.91 572.08 778.59 574.33 772.49 575.84
  Q 767.71 577.03 760.86 578.64
  C 755.59 579.88 751.39 579.94 746.21 580.74
  Q 744.25 581.04 740.29 581.01
  C 714.28 580.81 686.36 571.18 677.85 543.82
  C 672.32 526.04 678.31 506.57 690.00 492.22
  C 703.49 475.66 726.86 460.87 748.92 466.84
  C 755.90 468.72 763.21 473.63 766.90 480.13
  C 776.57 497.14 766.16 513.70 751.54 523.57
  Q 737.97 532.73 721.22 536.21
  Q 713.02 537.92 707.01 537.60
  A 0.43 0.43 0.0 0 0 706.60 538.23
  C 710.58 546.06 720.04 549.67 728.56 551.00
  C 752.52 554.76 779.18 554.20 803.52 551.38
  Q 809.35 550.71 814.86 549.53
  Q 822.31 547.95 826.04 547.12
  Q 844.75 543.00 854.07 537.88
  A 0.20 0.20 0.0 0 1 854.28 538.23
  Z
  M 708.02 513.00
  Q 721.25 510.83 732.38 504.91
  C 737.44 502.22 743.09 498.49 745.89 493.59
  A 2.15 2.14 -61.0 0 0 745.05 490.64
  Q 739.06 487.43 731.98 490.13
  Q 715.75 496.29 707.72 512.59
  A 0.29 0.28 -81.6 0 0 708.02 513.00
  Z"
/>
<path fill="#00bf2d" d="
  M 454.50 534.10
  C 457.28 523.78 468.77 520.72 476.07 528.64
  C 478.91 531.72 480.59 537.89 481.44 543.17
  Q 485.38 567.54 492.41 593.91
  Q 492.82 595.42 493.51 600.62
  C 494.37 607.13 493.02 613.02 489.64 618.63
  C 488.24 620.94 485.57 622.15 482.80 621.24
  C 470.87 617.31 466.51 606.24 463.35 594.87
  Q 456.18 569.07 453.40 541.26
  Q 453.17 539.02 454.50 534.10
  Z"
/>
</svg>
