<!-- Generated via pnpm tsx src/background.ts -->
<svg width="1920" height="1080" fill="black" viewBox="0 0 1920 1080" xmlns="http://www.w3.org/2000/svg">
		<g stroke-linecap="round" stroke-width="10" fill="none" stroke-opacity="0.25">
			<path stroke="hsl(0, 75%, 50%)" d="M -100.0, -112.0 L 40.9, -115.5 L 174.1, -103.0 L 298.9, -90.5 L 422.4, -78.0 L 552.9, -65.5 L 692.2, -53.0 L 834.1, -56.5 L 969.9, -28.0 L 1096.6, -15.5 L 1219.6, 13.0 L 1347.5, 9.5 L 1484.6, 22.0 L 1626.7, 18.5 L 1764.9, 47.0 L 1894.0, 59.5 L 2017.1, 72.0" />
<path stroke="hsl(25, 75%, 50%)" d="M -91.6, -71.6 L 41.6, -43.1 L 166.4, -30.6 L 289.9, -2.1 L 420.4, -5.6 L 559.7, 6.9 L 701.6, 3.4 L 837.4, 31.9 L 964.1, 44.4 L 1087.1, 56.9 L 1215.0, 69.4 L 1352.1, 81.9 L 1494.2, 94.4 L 1632.4, 106.9 L 1761.5, 119.4 L 1884.6, 131.9 L 2010.4, 128.4" />
<path stroke="hsl(50, 75%, 50%)" d="M -90.9, 9.1 L 33.9, 21.6 L 157.4, 34.1 L 287.9, 46.6 L 427.2, 59.1 L 569.1, 71.6 L 704.9, 84.1 L 831.6, 96.6 L 954.6, 109.1 L 1082.5, 105.6 L 1219.6, 134.1 L 1361.7, 146.6 L 1499.9, 175.1 L 1629.0, 171.6 L 1752.1, 184.1 L 1877.9, 196.6 L 2012.5, 209.1" />
<path stroke="hsl(75, 75%, 50%)" d="M -98.6, 65.4 L 24.9, 77.9 L 155.4, 74.4 L 294.7, 102.9 L 436.6, 115.4 L 572.4, 143.9 L 699.1, 140.4 L 822.1, 152.9 L 950.0, 165.4 L 1087.1, 177.9 L 1229.2, 190.4 L 1367.4, 202.9 L 1496.5, 215.4 L 1619.6, 227.9 L 1745.4, 240.4 L 1880.0, 268.9 L 2021.5, 265.4" />
<path stroke="hsl(100, 75%, 50%)" d="M -107.6, 120.4 L 22.9, 132.9 L 162.2, 145.4 L 304.1, 157.9 L 439.9, 170.4 L 566.6, 182.9 L 689.6, 195.4 L 817.5, 207.9 L 954.6, 236.4 L 1096.7, 232.9 L 1234.9, 245.4 L 1364.0, 241.9 L 1487.1, 270.4 L 1612.9, 282.9 L 1747.5, 311.4 L 1889.0, 307.9 L 2029.1, 320.4" />
<path stroke="hsl(125, 75%, 50%)" d="M -109.6, 182.4 L 29.7, 210.9 L 171.6, 207.4 L 307.4, 219.9 L 434.1, 216.4 L 557.1, 244.9 L 685.0, 257.4 L 822.1, 285.9 L 964.2, 282.4 L 1102.4, 294.9 L 1231.5, 307.4 L 1354.6, 319.9 L 1480.4, 332.4 L 1615.0, 344.9 L 1756.5, 341.4 L 1896.6, 369.9 L 2028.4, 382.4" />
<path stroke="hsl(150, 75%, 50%)" d="M -102.8, 269.2 L 39.1, 265.7 L 174.9, 278.2 L 301.6, 290.7 L 424.6, 303.2 L 552.5, 315.7 L 689.6, 328.2 L 831.7, 324.7 L 969.9, 353.2 L 1099.0, 365.7 L 1222.1, 394.2 L 1347.9, 390.7 L 1482.5, 403.2 L 1624.0, 399.7 L 1764.1, 428.2 L 1895.9, 440.7 L 2019.9, 453.2" />
<path stroke="hsl(175, 75%, 50%)" d="M -93.4, 310.6 L 42.4, 339.1 L 169.1, 351.6 L 292.1, 380.1 L 420.0, 376.6 L 557.1, 389.1 L 699.2, 385.6 L 837.4, 414.1 L 966.5, 426.6 L 1089.6, 439.1 L 1215.4, 451.6 L 1350.0, 464.1 L 1491.5, 476.6 L 1631.6, 489.1 L 1763.4, 501.6 L 1887.4, 514.1 L 2011.5, 510.6" />
<path stroke="hsl(200, 75%, 50%)" d="M -90.1, 393.9 L 36.6, 406.4 L 159.6, 418.9 L 287.5, 431.4 L 424.6, 443.9 L 566.7, 456.4 L 704.9, 468.9 L 834.0, 481.4 L 957.1, 493.9 L 1082.9, 490.4 L 1217.5, 518.9 L 1359.0, 531.4 L 1499.1, 559.9 L 1630.9, 556.4 L 1754.9, 568.9 L 1879.0, 565.4 L 2010.9, 593.9" />
<path stroke="hsl(225, 75%, 50%)" d="M -95.9, 452.1 L 27.1, 464.6 L 155.0, 461.1 L 292.1, 489.6 L 434.2, 502.1 L 572.4, 530.6 L 701.5, 527.1 L 824.6, 539.6 L 950.4, 536.1 L 1085.0, 564.6 L 1226.5, 577.1 L 1366.6, 589.6 L 1498.4, 602.1 L 1622.4, 614.6 L 1746.5, 627.1 L 1878.4, 655.6 L 2018.7, 652.1" />
<path stroke="hsl(250, 75%, 50%)" d="M -105.4, 506.6 L 22.5, 503.1 L 159.6, 531.6 L 301.7, 544.1 L 439.9, 556.6 L 569.0, 569.1 L 692.1, 581.6 L 817.9, 594.1 L 952.5, 622.6 L 1094.0, 619.1 L 1234.1, 631.6 L 1365.9, 628.1 L 1489.9, 656.6 L 1614.0, 669.1 L 1745.9, 697.6 L 1886.2, 694.1 L 2027.6, 706.6" />
<path stroke="hsl(275, 75%, 50%)" d="M -110.0, 566.0 L 27.1, 594.5 L 169.2, 591.0 L 307.4, 603.5 L 436.5, 600.0 L 559.6, 628.5 L 685.4, 641.0 L 820.0, 669.5 L 961.5, 666.0 L 1101.6, 678.5 L 1233.4, 691.0 L 1357.4, 703.5 L 1481.5, 716.0 L 1613.4, 728.5 L 1753.7, 741.0 L 1895.1, 753.5 L 2029.6, 766.0" />
<path stroke="hsl(300, 75%, 50%)" d="M -105.4, 650.6 L 36.7, 647.1 L 174.9, 659.6 L 304.0, 672.1 L 427.1, 684.6 L 552.9, 697.1 L 687.5, 709.6 L 829.0, 722.1 L 969.1, 734.6 L 1100.9, 747.1 L 1224.9, 775.6 L 1349.0, 772.1 L 1480.9, 784.6 L 1621.2, 781.1 L 1762.6, 809.6 L 1897.1, 822.1 L 2022.7, 850.6" />
<path stroke="hsl(325, 75%, 50%)" d="M -95.8, 708.2 L 42.4, 720.7 L 171.5, 733.2 L 294.6, 761.7 L 420.4, 758.2 L 555.0, 770.7 L 696.5, 767.2 L 836.6, 795.7 L 968.4, 808.2 L 1092.4, 836.7 L 1216.5, 833.2 L 1348.4, 845.7 L 1488.7, 858.2 L 1630.1, 870.7 L 1764.6, 883.2 L 1890.2, 895.7 L 2013.4, 892.2" />
<path stroke="hsl(350, 75%, 50%)" d="M -90.1, 777.9 L 39.0, 790.4 L 162.1, 818.9 L 287.9, 815.4 L 422.5, 827.9 L 564.0, 840.4 L 704.1, 852.9 L 835.9, 865.4 L 959.9, 877.9 L 1084.0, 874.4 L 1215.9, 902.9 L 1356.2, 915.4 L 1497.6, 943.9 L 1632.1, 940.4 L 1757.7, 952.9 L 1880.9, 949.4 L 2010.1, 977.9" />
<path stroke="hsl(15, 75%, 50%)" d="M -93.5, 838.5 L 29.6, 851.0 L 155.4, 847.5 L 290.0, 876.0 L 431.5, 888.5 L 571.6, 917.0 L 703.4, 913.5 L 827.4, 926.0 L 951.5, 922.5 L 1083.4, 951.0 L 1223.7, 963.5 L 1365.1, 976.0 L 1499.6, 988.5 L 1625.2, 1001.0 L 1748.4, 1013.5 L 1877.6, 1026.0 L 2016.0, 1038.5" />
<path stroke="hsl(40, 75%, 50%)" d="M -102.9, 893.1 L 22.9, 889.6 L 157.5, 918.1 L 299.0, 930.6 L 439.1, 943.1 L 570.9, 955.6 L 694.9, 968.1 L 819.0, 980.6 L 950.9, 993.1 L 1091.2, 1005.6 L 1232.6, 1018.1 L 1367.1, 1014.6 L 1492.7, 1043.1 L 1615.9, 1055.6 L 1745.1, 1084.1 L 1883.5, 1080.6 L 2025.5, 1093.1" />
<path stroke="hsl(65, 75%, 50%)" d="M -109.6, 950.4 L 25.0, 962.9 L 166.5, 975.4 L 306.6, 987.9 L 438.4, 984.4 L 562.4, 1012.9 L 686.5, 1025.4 L 818.4, 1053.9 L 958.7, 1050.4 L 1100.1, 1062.9 L 1234.6, 1075.4 L 1360.2, 1087.9 L 1483.4, 1100.4 L 1612.6, 1112.9 L 1751.0, 1125.4 L 1893.0, 1137.9 L 2030.0, 1150.4" />
<path stroke="hsl(90, 75%, 50%)" d="M -107.5, 1032.5 L 34.0, 1029.0 L 174.1, 1041.5 L 305.9, 1054.0 L 429.9, 1066.5 L 554.0, 1079.0 L 685.9, 1091.5 L 826.2, 1104.0 L 967.6, 1116.5 L 1102.1, 1129.0 L 1227.7, 1157.5 L 1350.9, 1154.0 L 1480.1, 1166.5 L 1618.5, 1163.0 L 1760.5, 1191.5 L 1897.5, 1204.0 L 2025.3, 1232.5" />
<path stroke="hsl(115, 75%, 50%)" d="M -98.5, 1089.5 L 41.6, 1102.0 L 173.4, 1114.5 L 297.4, 1143.0 L 421.5, 1139.5 L 553.4, 1152.0 L 693.7, 1148.5 L 835.1, 1177.0 L 969.6, 1189.5 L 1095.2, 1218.0 L 1218.4, 1214.5 L 1347.6, 1227.0 L 1486.0, 1239.5 L 1628.0, 1252.0 L 1765.0, 1264.5 L 1892.8, 1277.0 L 2015.7, 1273.5" />
<path stroke="hsl(140, 75%, 50%)" d="M -90.9, 1161.1 L 40.9, 1173.6 L 164.9, 1202.1 L 289.0, 1198.6 L 420.9, 1211.1 L 561.2, 1223.6 L 702.6, 1236.1 L 837.1, 1248.6 L 962.7, 1261.1 L 1085.9, 1257.6 L 1215.1, 1286.1 L 1353.5, 1298.6 L 1495.5, 1327.1 L 1632.5, 1323.6 L 1760.3, 1336.1 L 1883.2, 1332.6 L 2010.1, 1361.1" />
		</g>
	</svg>