<!-- Generated via pnpm tsx src/background.ts -->
	<svg width="256" height="256" viewBox="0 0 256 256" xmlns="http://www.w3.org/2000/svg">
		<defs>
			<clipPath id="rounded-corner">
				<rect x="0" y="0" width="100%" height="100%" rx="64" ry="64" />
			</clipPath>
		</defs>

		<g clip-path="url(#rounded-corner)">
			<rect width="100%" height="100%" fill="black" />
			<g stroke-linecap="round" stroke-width="20" fill="none" stroke-opacity="0.5">
				<path stroke="hsl(0, 75%, 50%)" d="M -100.0, -112.0 L -63.1, -115.5 L -33.9, -103.0 L -13.1, -90.5 L 6.4, -78.0 L 32.9, -65.5 L 68.2, -53.0 L 106.1, -56.5 L 137.9, -28.0 L 160.6, -15.5 L 179.6, 13.0 L 203.5, 9.5 L 236.6, 22.0 L 274.7, 18.5 L 308.9, 47.0 L 334.0, 59.5 L 353.1, 72.0" />
<path stroke="hsl(50, 75%, 50%)" d="M -91.6, -71.6 L -62.4, -43.1 L -41.6, -30.6 L -22.1, -2.1 L 4.4, -5.6 L 39.7, 6.9 L 77.6, 3.4 L 109.4, 31.9 L 132.1, 44.4 L 151.1, 56.9 L 175.0, 69.4 L 208.1, 81.9 L 246.2, 94.4 L 280.4, 106.9 L 305.5, 119.4 L 324.6, 131.9 L 346.4, 128.4" />
<path stroke="hsl(100, 75%, 50%)" d="M -90.9, 9.1 L -70.1, 21.6 L -50.6, 34.1 L -24.1, 46.6 L 11.2, 59.1 L 49.1, 71.6 L 80.9, 84.1 L 103.6, 96.6 L 122.6, 109.1 L 146.5, 105.6 L 179.6, 134.1 L 217.7, 146.6 L 251.9, 175.1 L 277.0, 171.6 L 296.1, 184.1 L 317.9, 196.6 L 348.5, 209.1" />
<path stroke="hsl(150, 75%, 50%)" d="M -98.6, 65.4 L -79.1, 77.9 L -52.6, 74.4 L -17.3, 102.9 L 20.6, 115.4 L 52.4, 143.9 L 75.1, 140.4 L 94.1, 152.9 L 118.0, 165.4 L 151.1, 177.9 L 189.2, 190.4 L 223.4, 202.9 L 248.5, 215.4 L 267.6, 227.9 L 289.4, 240.4 L 320.0, 268.9 L 357.5, 265.4" />
<path stroke="hsl(200, 75%, 50%)" d="M -107.6, 120.4 L -81.1, 132.9 L -45.8, 145.4 L -7.9, 157.9 L 23.9, 170.4 L 46.6, 182.9 L 65.6, 195.4 L 89.5, 207.9 L 122.6, 236.4 L 160.7, 232.9 L 194.9, 245.4 L 220.0, 241.9 L 239.1, 270.4 L 260.9, 282.9 L 291.5, 311.4 L 329.0, 307.9 L 365.1, 320.4" />
<path stroke="hsl(250, 75%, 50%)" d="M -109.6, 182.4 L -74.3, 210.9 L -36.4, 207.4 L -4.6, 219.9 L 18.1, 216.4 L 37.1, 244.9 L 61.0, 257.4 L 94.1, 285.9 L 132.2, 282.4 L 166.4, 294.9 L 191.5, 307.4 L 210.6, 319.9 L 232.4, 332.4 L 263.0, 344.9 L 300.5, 341.4 L 336.6, 369.9 L 364.4, 382.4" />
<path stroke="hsl(300, 75%, 50%)" d="M -102.8, 269.2 L -64.9, 265.7 L -33.1, 278.2 L -10.4, 290.7 L 8.6, 303.2 L 32.5, 315.7 L 65.6, 328.2 L 103.7, 324.7 L 137.9, 353.2 L 163.0, 365.7 L 182.1, 394.2 L 203.9, 390.7 L 234.5, 403.2 L 272.0, 399.7 L 308.1, 428.2 L 335.9, 440.7 L 355.9, 453.2" />
<path stroke="hsl(350, 75%, 50%)" d="M -93.4, 310.6 L -61.6, 339.1 L -38.9, 351.6 L -19.9, 380.1 L 4.0, 376.6 L 37.1, 389.1 L 75.2, 385.6 L 109.4, 414.1 L 134.5, 426.6 L 153.6, 439.1 L 175.4, 451.6 L 206.0, 464.1 L 243.5, 476.6 L 279.6, 489.1 L 307.4, 501.6 L 327.4, 514.1 L 347.5, 510.6" />
			</g>
			<text x="124" y="196" text-anchor="middle" dominant-baseline="middle" font-size="100" font-family="Monserrat, sans-serif" fill="white" stroke="black" stroke-width="10" paint-order="stroke" opacity="0.9">hang</text>
		</g>
	</svg>