<?xml version="1.0" encoding="UTF-8" standalone="no"?>
<!DOCTYPE svg PUBLIC "-//W3C//DTD SVG 1.1//EN" "http://www.w3.org/Graphics/SVG/1.1/DTD/svg11.dtd">
<svg xmlns="http://www.w3.org/2000/svg" version="1.1" viewBox="0.00 0.00 1920.00 1080.00">
<g stroke-width="2.00" fill="none" stroke-linecap="butt">
<path stroke="#808080" vector-effect="non-scaling-stroke" d="
  M 459.89 710.42
  Q 461.45 707.14 464.50 703.98
  A 7.72 7.65 -8.5 0 0 465.51 702.63
  C 472.23 691.01 477.93 677.49 474.67 664.56
  Q 467.70 636.96 457.15 610.84
  Q 448.68 589.88 437.24 572.04
  Q 414.67 536.85 377.43 516.39
  Q 357.95 505.68 339.23 503.65
  C 307.61 500.22 280.18 515.43 261.54 540.57
  Q 250.32 555.69 242.59 572.73
  A 0.23 0.22 55.4 0 1 242.16 572.65
  Q 242.07 571.12 242.06 569.50
  C 241.90 532.53 244.40 470.86 244.69 441.25
  C 245.12 398.65 244.78 359.60 241.72 319.01
  Q 237.59 264.24 225.29 210.64
  Q 223.46 202.64 221.09 191.63
  C 220.31 188.02 218.79 181.41 215.71 179.94
  A 0.48 0.48 0.0 0 0 215.03 180.25
  Q 214.45 182.44 214.58 184.26
  Q 215.43 195.59 215.63 204.74
  Q 215.83 214.12 214.78 221.96
  C 211.64 245.30 209.06 268.70 208.34 292.00
  Q 208.08 300.46 208.16 337.82
  C 208.23 364.30 207.84 386.86 207.06 409.51
  Q 205.05 468.31 204.05 508.76
  Q 202.14 585.90 204.14 655.74
  Q 204.91 682.76 205.54 702.24
  Q 205.91 713.88 215.94 719.67
  C 221.29 722.76 227.89 722.88 233.23 720.23
  Q 242.36 715.70 244.42 705.19
  Q 244.71 703.72 244.45 698.38
  A 16.53 15.97 -44.0 0 1 244.55 695.48
  C 250.21 649.91 257.24 603.71 282.93 564.44
  C 295.16 545.74 312.00 533.99 334.59 538.41
  C 346.73 540.79 358.60 547.91 369.11 555.65
  C 391.19 571.92 406.67 592.34 417.66 617.33
  Q 427.01 638.58 433.37 660.85
  Q 435.69 668.96 436.39 672.09
  C 438.26 680.33 443.66 688.67 448.35 694.15
  Q 454.98 701.89 457.95 707.06
  C 458.65 708.26 458.95 709.82 459.31 710.44
  A 0.33 0.33 0.0 0 0 459.89 710.42"
/>
<path stroke="#808080" vector-effect="non-scaling-stroke" d="
  M 728.43 656.31
  Q 726.61 655.27 726.27 654.15
  Q 726.17 653.82 723.60 640.88
  C 721.31 629.34 716.19 621.15 709.35 609.16
  Q 700.88 594.33 696.06 574.71
  Q 695.03 570.56 693.26 561.66
  C 692.49 557.80 690.22 551.56 688.00 549.06
  Q 679.54 539.53 667.95 544.65
  A 0.39 0.39 0.0 0 1 667.43 544.44
  C 659.19 524.47 632.86 520.74 614.22 524.78
  C 572.14 533.90 542.67 570.95 540.60 613.86
  C 539.36 639.50 549.89 663.47 573.38 675.35
  C 587.59 682.54 603.36 684.74 619.13 683.05
  C 648.67 679.87 673.96 666.16 681.10 635.81
  A 0.33 0.33 0.0 0 1 681.69 635.68
  Q 699.26 659.30 728.36 656.63
  A 0.17 0.17 0.0 0 0 728.43 656.31"
/>
<path stroke="#808080" vector-effect="non-scaling-stroke" d="
  M 804.66 564.00
  A 0.25 0.25 0.0 0 1 805.12 564.13
  C 805.34 574.87 804.12 588.05 804.06 599.95
  Q 803.96 622.29 804.67 639.98
  C 804.76 642.20 804.45 645.20 804.03 647.01
  Q 799.70 665.59 799.10 684.97
  C 799.05 686.55 798.77 688.54 798.52 690.09
  C 796.77 700.84 807.06 710.57 817.19 708.36
  Q 826.92 706.24 831.95 696.15
  A 4.66 4.51 64.6 0 0 832.35 694.97
  C 835.91 676.94 835.35 659.69 834.82 640.01
  Q 834.19 616.78 832.56 592.69
  A 5.82 5.78 -37.5 0 1 832.87 590.39
  Q 837.94 575.99 846.81 564.60
  C 857.88 550.40 875.40 541.93 892.70 549.51
  C 901.86 553.53 909.62 563.82 913.97 572.82
  C 919.26 583.78 921.49 594.29 923.80 607.07
  Q 925.27 615.18 929.26 654.94
  C 930.18 664.06 932.29 672.47 939.17 678.77
  Q 945.98 685.00 953.22 682.12
  C 964.05 677.81 968.07 664.48 967.79 654.00
  Q 967.54 644.81 966.25 635.00
  Q 962.54 606.75 955.16 583.83
  C 950.24 568.55 942.44 553.46 931.27 542.06
  C 918.97 529.50 902.31 522.44 884.85 524.65
  C 860.42 527.74 841.17 544.75 829.11 565.42
  A 0.27 0.27 0.0 0 1 828.62 565.35
  C 827.00 559.16 825.74 553.89 821.72 548.78
  C 818.84 545.12 812.78 542.79 808.91 546.40
  C 801.99 552.86 798.01 562.50 797.11 571.59
  Q 796.81 574.57 797.73 577.15
  A 0.79 0.79 0.0 0 0 799.15 577.28
  L 799.53 576.62
  A 0.66 0.58 -27.6 0 0 799.61 576.41
  Q 801.18 569.18 804.66 564.00"
/>
<path stroke="#808080" vector-effect="non-scaling-stroke" d="
  M 658.52 557.00
  Q 644.55 555.98 637.01 556.20
  C 607.13 557.07 584.52 581.66 580.04 610.26
  C 578.23 621.77 579.99 636.74 592.56 641.49
  C 610.93 648.43 631.59 647.05 650.45 640.56
  Q 666.57 635.01 671.54 619.51
  A 1.47 1.47 0.0 0 0 671.49 618.45
  Q 660.60 592.89 658.60 564.13
  C 658.43 561.64 659.21 559.60 659.13 557.63
  A 0.67 0.66 -89.5 0 0 658.52 557.00"
/>
<path stroke="#808080" vector-effect="non-scaling-stroke" d="
  M 1187.37 631.32
  C 1201.03 661.55 1205.52 695.76 1201.83 728.71
  Q 1199.35 750.90 1193.59 769.87
  C 1185.61 796.13 1169.96 819.85 1147.64 835.87
  Q 1136.63 843.77 1124.39 849.38
  C 1094.81 862.94 1067.65 875.76 1037.84 884.37
  C 1032.10 886.02 1025.54 886.75 1020.74 887.61
  Q 1013.93 888.83 1011.91 889.07
  Q 990.77 891.58 967.58 889.77
  A 0.30 0.30 0.0 0 0 967.25 890.04
  L 967.25 890.06
  A 0.32 0.32 0.0 0 0 967.54 890.40
  Q 992.47 892.76 1022.15 895.31
  C 1025.84 895.63 1030.20 896.48 1033.50 896.70
  Q 1044.60 897.43 1056.93 898.29
  Q 1061.43 898.61 1067.08 898.57
  C 1076.72 898.50 1082.46 898.70 1091.75 897.66
  Q 1105.48 896.12 1106.21 895.97
  Q 1109.46 895.28 1121.18 892.29
  Q 1127.61 890.66 1135.63 887.02
  Q 1148.02 881.40 1157.66 875.67
  Q 1191.52 855.55 1212.03 822.49
  C 1225.81 800.27 1235.12 774.26 1237.57 747.83
  Q 1241.07 710.05 1231.04 673.97
  Q 1227.77 662.20 1220.87 644.63
  Q 1204.71 603.50 1183.87 569.39
  Q 1179.69 562.55 1170.55 563.23
  A 0.74 0.73 74.6 0 1 1169.85 562.83
  Q 1161.42 545.85 1142.88 541.34
  Q 1132.19 538.74 1120.75 540.54
  Q 1092.01 545.05 1071.12 566.41
  C 1058.22 579.60 1048.98 598.16 1048.78 616.98
  C 1048.29 662.89 1093.03 686.80 1133.76 682.65
  C 1158.07 680.18 1176.54 666.58 1184.14 642.91
  Q 1185.86 637.55 1187.03 631.36
  A 0.18 0.18 0.0 0 1 1187.37 631.32"
/>
<path stroke="#808080" vector-effect="non-scaling-stroke" d="
  M 1163.41 566.55
  Q 1157.36 562.23 1150.19 563.08
  C 1125.19 566.02 1094.23 582.83 1086.94 608.91
  Q 1083.94 619.66 1088.27 628.89
  C 1093.29 639.57 1108.24 647.62 1119.98 650.26
  C 1133.46 653.30 1149.13 649.96 1157.83 638.82
  C 1166.39 627.87 1166.82 607.43 1164.71 593.76
  C 1164.20 590.47 1162.93 586.46 1161.63 582.54
  C 1159.65 576.57 1159.63 572.33 1163.54 567.53
  A 0.68 0.68 0.0 0 0 1163.41 566.55"
/>
</g>
<path fill="#000000" d="
  M 252.81 534.77
  Q 272.94 506.35 305.89 496.15
  Q 313.51 493.80 322.76 493.33
  C 338.67 492.52 352.66 493.95 367.30 500.12
  Q 416.88 521.00 445.42 565.32
  C 462.57 591.94 474.72 624.16 483.29 655.96
  Q 485.89 665.62 485.74 671.89
  Q 485.47 683.24 482.49 691.50
  Q 480.99 695.67 475.11 706.87
  Q 473.44 710.05 471.41 712.33
  Q 470.02 713.90 467.58 717.10
  A 3.87 3.67 -1.2 0 1 466.83 717.84
  Q 460.11 722.90 453.00 718.51
  A 5.50 5.43 2.6 0 1 451.02 716.37
  C 449.11 712.71 447.29 709.53 445.03 706.83
  C 438.60 699.14 434.57 693.76 429.98 684.91
  Q 427.75 680.61 426.09 674.05
  Q 419.10 646.33 408.03 621.19
  Q 389.88 579.96 351.37 556.39
  Q 341.65 550.45 330.96 548.29
  Q 321.21 546.31 312.14 550.71
  Q 306.11 553.62 300.74 559.25
  Q 291.11 569.34 283.85 583.34
  C 272.10 606.02 264.70 631.52 260.57 656.81
  Q 257.63 674.84 255.06 694.27
  C 254.51 698.42 254.62 702.03 254.59 705.71
  Q 254.57 708.08 253.96 710.14
  Q 250.95 720.31 243.50 726.38
  Q 242.65 727.07 236.84 729.95
  Q 233.04 731.83 229.75 732.04
  Q 221.36 732.56 217.06 731.46
  Q 214.93 730.91 209.19 727.83
  Q 203.62 724.83 200.76 719.98
  C 198.09 715.43 195.73 710.96 195.57 706.23
  Q 192.32 613.15 193.26 549.25
  Q 194.21 484.35 197.05 406.75
  C 198.27 373.16 198.16 339.58 198.13 308.12
  C 198.10 287.11 199.06 267.29 201.25 247.75
  Q 202.33 238.15 205.05 216.50
  C 206.19 207.34 205.38 198.87 204.55 187.01
  Q 204.30 183.38 204.87 177.76
  A 1.12 1.11 -11.0 0 1 205.47 176.88
  Q 206.18 176.49 206.04 175.59
  A 0.65 0.65 0.0 0 1 206.44 174.89
  Q 207.17 174.62 207.01 173.69
  A 0.58 0.58 0.0 0 1 207.43 173.02
  Q 207.94 172.89 207.96 172.44
  A 0.60 0.60 0.0 0 1 208.67 171.89
  Q 208.82 171.92 209.04 172.07
  Q 209.10 172.11 209.51 172.09
  Q 210.00 172.06 209.95 171.40
  A 0.50 0.49 1.9 0 1 210.51 170.88
  Q 210.70 170.91 211.00 171.10
  Q 211.01 171.11 211.54 171.07
  Q 211.90 171.05 211.92 170.52
  A 0.61 0.61 0.0 0 1 212.53 169.94
  L 217.83 169.94
  A 3.44 3.42 -31.5 0 1 219.38 170.31
  L 223.04 172.15
  A 6.34 6.32 88.6 0 1 225.67 174.66
  C 227.93 178.64 229.74 182.55 230.74 187.15
  Q 234.18 202.92 235.84 210.15
  C 249.05 267.71 254.17 326.34 254.70 386.26
  C 254.95 413.91 254.91 442.40 254.07 472.91
  Q 253.47 494.55 252.57 534.69
  A 0.13 0.13 0.0 0 0 252.81 534.77
  Z
  M 459.89 710.42
  Q 461.45 707.14 464.50 703.98
  A 7.72 7.65 -8.5 0 0 465.51 702.63
  C 472.23 691.01 477.93 677.49 474.67 664.56
  Q 467.70 636.96 457.15 610.84
  Q 448.68 589.88 437.24 572.04
  Q 414.67 536.85 377.43 516.39
  Q 357.95 505.68 339.23 503.65
  C 307.61 500.22 280.18 515.43 261.54 540.57
  Q 250.32 555.69 242.59 572.73
  A 0.23 0.22 55.4 0 1 242.16 572.65
  Q 242.07 571.12 242.06 569.50
  C 241.90 532.53 244.40 470.86 244.69 441.25
  C 245.12 398.65 244.78 359.60 241.72 319.01
  Q 237.59 264.24 225.29 210.64
  Q 223.46 202.64 221.09 191.63
  C 220.31 188.02 218.79 181.41 215.71 179.94
  A 0.48 0.48 0.0 0 0 215.03 180.25
  Q 214.45 182.44 214.58 184.26
  Q 215.43 195.59 215.63 204.74
  Q 215.83 214.12 214.78 221.96
  C 211.64 245.30 209.06 268.70 208.34 292.00
  Q 208.08 300.46 208.16 337.82
  C 208.23 364.30 207.84 386.86 207.06 409.51
  Q 205.05 468.31 204.05 508.76
  Q 202.14 585.90 204.14 655.74
  Q 204.91 682.76 205.54 702.24
  Q 205.91 713.88 215.94 719.67
  C 221.29 722.76 227.89 722.88 233.23 720.23
  Q 242.36 715.70 244.42 705.19
  Q 244.71 703.72 244.45 698.38
  A 16.53 15.97 -44.0 0 1 244.55 695.48
  C 250.21 649.91 257.24 603.71 282.93 564.44
  C 295.16 545.74 312.00 533.99 334.59 538.41
  C 346.73 540.79 358.60 547.91 369.11 555.65
  C 391.19 571.92 406.67 592.34 417.66 617.33
  Q 427.01 638.58 433.37 660.85
  Q 435.69 668.96 436.39 672.09
  C 438.26 680.33 443.66 688.67 448.35 694.15
  Q 454.98 701.89 457.95 707.06
  C 458.65 708.26 458.95 709.82 459.31 710.44
  A 0.33 0.33 0.0 0 0 459.89 710.42
  Z"
/>
<path fill="#ffffff" d="
  M 459.31 710.44
  C 458.95 709.82 458.65 708.26 457.95 707.06
  Q 454.98 701.89 448.35 694.15
  C 443.66 688.67 438.26 680.33 436.39 672.09
  Q 435.69 668.96 433.37 660.85
  Q 427.01 638.58 417.66 617.33
  C 406.67 592.34 391.19 571.92 369.11 555.65
  C 358.60 547.91 346.73 540.79 334.59 538.41
  C 312.00 533.99 295.16 545.74 282.93 564.44
  C 257.24 603.71 250.21 649.91 244.55 695.48
  A 16.53 15.97 -44.0 0 0 244.45 698.38
  Q 244.71 703.72 244.42 705.19
  Q 242.36 715.70 233.23 720.23
  C 227.89 722.88 221.29 722.76 215.94 719.67
  Q 205.91 713.88 205.54 702.24
  Q 204.91 682.76 204.14 655.74
  Q 202.14 585.90 204.05 508.76
  Q 205.05 468.31 207.06 409.51
  C 207.84 386.86 208.23 364.30 208.16 337.82
  Q 208.08 300.46 208.34 292.00
  C 209.06 268.70 211.64 245.30 214.78 221.96
  Q 215.83 214.12 215.63 204.74
  Q 215.43 195.59 214.58 184.26
  Q 214.45 182.44 215.03 180.25
  A 0.48 0.48 0.0 0 1 215.71 179.94
  C 218.79 181.41 220.31 188.02 221.09 191.63
  Q 223.46 202.64 225.29 210.64
  Q 237.59 264.24 241.72 319.01
  C 244.78 359.60 245.12 398.65 244.69 441.25
  C 244.40 470.86 241.90 532.53 242.06 569.50
  Q 242.07 571.12 242.16 572.65
  A 0.23 0.22 55.4 0 0 242.59 572.73
  Q 250.32 555.69 261.54 540.57
  C 280.18 515.43 307.61 500.22 339.23 503.65
  Q 357.95 505.68 377.43 516.39
  Q 414.67 536.85 437.24 572.04
  Q 448.68 589.88 457.15 610.84
  Q 467.70 636.96 474.67 664.56
  C 477.93 677.49 472.23 691.01 465.51 702.63
  A 7.72 7.65 -8.5 0 1 464.50 703.98
  Q 461.45 707.14 459.89 710.42
  A 0.33 0.33 0.0 0 1 459.31 710.44
  Z"
/>
<path fill="#000000" d="
  M 684.79 655.02
  C 679.81 666.67 669.15 676.34 658.34 682.13
  Q 641.98 690.88 623.51 692.89
  C 609.08 694.46 592.69 694.13 579.23 689.13
  C 563.80 683.42 550.52 675.09 542.02 660.96
  Q 531.01 642.68 530.38 621.76
  Q 529.44 591.03 544.55 564.08
  C 554.40 546.51 569.01 532.79 586.80 523.67
  C 596.62 518.65 607.32 514.71 617.76 513.73
  Q 625.48 513.01 635.55 513.44
  Q 647.22 513.94 659.54 520.74
  Q 668.12 525.47 672.61 532.28
  A 1.14 1.11 -16.4 0 0 673.55 532.78
  Q 680.95 532.73 682.97 533.54
  Q 688.78 535.85 692.15 538.31
  C 696.20 541.26 698.28 545.47 700.74 550.96
  C 703.55 557.25 704.41 564.47 705.93 571.10
  C 708.68 583.05 712.90 594.57 719.09 605.30
  Q 721.86 610.10 725.52 616.75
  Q 733.09 630.45 735.09 645.90
  Q 735.25 647.18 736.87 650.76
  C 739.07 655.67 738.81 659.48 735.45 664.04
  Q 735.09 664.53 731.25 666.31
  A 3.88 3.65 -56.8 0 1 729.84 666.65
  Q 717.25 667.19 713.74 666.72
  Q 701.76 665.11 689.33 657.67
  Q 687.51 656.59 685.59 654.84
  A 0.51 0.50 -57.4 0 0 684.79 655.02
  Z
  M 728.43 656.31
  Q 726.61 655.27 726.27 654.15
  Q 726.17 653.82 723.60 640.88
  C 721.31 629.34 716.19 621.15 709.35 609.16
  Q 700.88 594.33 696.06 574.71
  Q 695.03 570.56 693.26 561.66
  C 692.49 557.80 690.22 551.56 688.00 549.06
  Q 679.54 539.53 667.95 544.65
  A 0.39 0.39 0.0 0 1 667.43 544.44
  C 659.19 524.47 632.86 520.74 614.22 524.78
  C 572.14 533.90 542.67 570.95 540.60 613.86
  C 539.36 639.50 549.89 663.47 573.38 675.35
  C 587.59 682.54 603.36 684.74 619.13 683.05
  C 648.67 679.87 673.96 666.16 681.10 635.81
  A 0.33 0.33 0.0 0 1 681.69 635.68
  Q 699.26 659.30 728.36 656.63
  A 0.17 0.17 0.0 0 0 728.43 656.31
  Z"
/>
<path fill="#000000" d="
  M 794.22 588.04
  A 2.58 2.22 1.7 0 0 791.72 585.76
  Q 791.17 585.74 790.14 584.33
  Q 789.06 582.86 787.55 579.43
  A 4.87 4.71 -60.8 0 1 787.19 578.07
  Q 785.86 565.96 790.65 555.40
  C 794.06 547.90 797.44 541.04 804.07 537.01
  Q 808.56 534.27 814.43 534.47
  Q 824.80 534.83 831.07 543.55
  A 0.45 0.45 0.0 0 0 831.78 543.57
  Q 845.76 526.89 865.75 518.82
  C 877.34 514.15 888.95 513.40 901.00 514.74
  C 909.13 515.64 915.86 518.71 924.15 523.23
  C 934.91 529.10 944.25 539.25 950.48 549.27
  C 958.81 562.65 964.95 577.89 969.01 594.02
  Q 975.92 621.51 977.62 646.26
  Q 978.32 656.52 977.30 664.04
  Q 976.59 669.26 974.88 673.06
  C 972.12 679.20 968.88 684.85 963.61 688.32
  Q 961.05 690.00 954.68 692.70
  A 3.58 3.50 33.1 0 1 953.32 692.97
  L 943.96 692.97
  A 1.99 1.89 54.6 0 1 943.24 692.83
  C 935.13 689.62 930.72 686.83 926.28 679.72
  C 921.83 672.61 919.95 665.56 919.09 656.63
  C 916.71 632.19 915.31 615.66 911.05 596.22
  C 908.16 583.05 902.75 570.54 892.46 561.77
  C 885.18 555.57 876.02 555.72 867.84 560.10
  C 856.23 566.32 848.21 579.56 843.03 592.62
  A 2.87 2.85 -36.4 0 0 842.84 593.84
  Q 844.92 625.98 845.16 656.75
  C 845.28 670.82 845.24 684.58 842.33 697.96
  A 4.10 4.01 64.3 0 1 842.02 698.88
  C 840.73 701.60 839.10 705.58 836.92 708.09
  C 832.44 713.26 828.13 715.24 821.89 718.04
  A 3.97 3.88 -59.1 0 1 820.64 718.37
  Q 812.28 719.19 807.85 718.23
  Q 805.88 717.81 800.27 714.85
  C 794.67 711.89 791.90 707.06 789.53 701.38
  C 787.01 695.32 788.73 687.03 789.09 680.99
  Q 790.10 663.93 791.53 656.50
  Q 793.64 645.46 794.49 641.24
  A 4.06 3.73 -42.6 0 0 794.57 640.28
  Q 793.67 612.95 794.22 588.04
  Z
  M 804.66 564.00
  A 0.25 0.25 0.0 0 1 805.12 564.13
  C 805.34 574.87 804.12 588.05 804.06 599.95
  Q 803.96 622.29 804.67 639.98
  C 804.76 642.20 804.45 645.20 804.03 647.01
  Q 799.70 665.59 799.10 684.97
  C 799.05 686.55 798.77 688.54 798.52 690.09
  C 796.77 700.84 807.06 710.57 817.19 708.36
  Q 826.92 706.24 831.95 696.15
  A 4.66 4.51 64.6 0 0 832.35 694.97
  C 835.91 676.94 835.35 659.69 834.82 640.01
  Q 834.19 616.78 832.56 592.69
  A 5.82 5.78 -37.5 0 1 832.87 590.39
  Q 837.94 575.99 846.81 564.60
  C 857.88 550.40 875.40 541.93 892.70 549.51
  C 901.86 553.53 909.62 563.82 913.97 572.82
  C 919.26 583.78 921.49 594.29 923.80 607.07
  Q 925.27 615.18 929.26 654.94
  C 930.18 664.06 932.29 672.47 939.17 678.77
  Q 945.98 685.00 953.22 682.12
  C 964.05 677.81 968.07 664.48 967.79 654.00
  Q 967.54 644.81 966.25 635.00
  Q 962.54 606.75 955.16 583.83
  C 950.24 568.55 942.44 553.46 931.27 542.06
  C 918.97 529.50 902.31 522.44 884.85 524.65
  C 860.42 527.74 841.17 544.75 829.11 565.42
  A 0.27 0.27 0.0 0 1 828.62 565.35
  C 827.00 559.16 825.74 553.89 821.72 548.78
  C 818.84 545.12 812.78 542.79 808.91 546.40
  C 801.99 552.86 798.01 562.50 797.11 571.59
  Q 796.81 574.57 797.73 577.15
  A 0.79 0.79 0.0 0 0 799.15 577.28
  L 799.53 576.62
  A 0.66 0.58 -27.6 0 0 799.61 576.41
  Q 801.18 569.18 804.66 564.00
  Z"
/>
<path fill="#ffffff" d="
  M 728.36 656.63
  Q 699.26 659.30 681.69 635.68
  A 0.33 0.33 0.0 0 0 681.10 635.81
  C 673.96 666.16 648.67 679.87 619.13 683.05
  C 603.36 684.74 587.59 682.54 573.38 675.35
  C 549.89 663.47 539.36 639.50 540.60 613.86
  C 542.67 570.95 572.14 533.90 614.22 524.78
  C 632.86 520.74 659.19 524.47 667.43 544.44
  A 0.39 0.39 0.0 0 0 667.95 544.65
  Q 679.54 539.53 688.00 549.06
  C 690.22 551.56 692.49 557.80 693.26 561.66
  Q 695.03 570.56 696.06 574.71
  Q 700.88 594.33 709.35 609.16
  C 716.19 621.15 721.31 629.34 723.60 640.88
  Q 726.17 653.82 726.27 654.15
  Q 726.61 655.27 728.43 656.31
  A 0.17 0.17 0.0 0 1 728.36 656.63
  Z
  M 658.52 557.00
  Q 644.55 555.98 637.01 556.20
  C 607.13 557.07 584.52 581.66 580.04 610.26
  C 578.23 621.77 579.99 636.74 592.56 641.49
  C 610.93 648.43 631.59 647.05 650.45 640.56
  Q 666.57 635.01 671.54 619.51
  A 1.47 1.47 0.0 0 0 671.49 618.45
  Q 660.60 592.89 658.60 564.13
  C 658.43 561.64 659.21 559.60 659.13 557.63
  A 0.67 0.66 -89.5 0 0 658.52 557.00
  Z"
/>
<path fill="#ffffff" d="
  M 804.66 564.00
  Q 801.18 569.18 799.61 576.41
  A 0.66 0.58 -27.6 0 1 799.53 576.62
  L 799.15 577.28
  A 0.79 0.79 0.0 0 1 797.73 577.15
  Q 796.81 574.57 797.11 571.59
  C 798.01 562.50 801.99 552.86 808.91 546.40
  C 812.78 542.79 818.84 545.12 821.72 548.78
  C 825.74 553.89 827.00 559.16 828.62 565.35
  A 0.27 0.27 0.0 0 0 829.11 565.42
  C 841.17 544.75 860.42 527.74 884.85 524.65
  C 902.31 522.44 918.97 529.50 931.27 542.06
  C 942.44 553.46 950.24 568.55 955.16 583.83
  Q 962.54 606.75 966.25 635.00
  Q 967.54 644.81 967.79 654.00
  C 968.07 664.48 964.05 677.81 953.22 682.12
  Q 945.98 685.00 939.17 678.77
  C 932.29 672.47 930.18 664.06 929.26 654.94
  Q 925.27 615.18 923.80 607.07
  C 921.49 594.29 919.26 583.78 913.97 572.82
  C 909.62 563.82 901.86 553.53 892.70 549.51
  C 875.40 541.93 857.88 550.40 846.81 564.60
  Q 837.94 575.99 832.87 590.39
  A 5.82 5.78 -37.5 0 0 832.56 592.69
  Q 834.19 616.78 834.82 640.01
  C 835.35 659.69 835.91 676.94 832.35 694.97
  A 4.66 4.51 64.6 0 1 831.95 696.15
  Q 826.92 706.24 817.19 708.36
  C 807.06 710.57 796.77 700.84 798.52 690.09
  C 798.77 688.54 799.05 686.55 799.10 684.97
  Q 799.70 665.59 804.03 647.01
  C 804.45 645.20 804.76 642.20 804.67 639.98
  Q 803.96 622.29 804.06 599.95
  C 804.12 588.05 805.34 574.87 805.12 564.13
  A 0.25 0.25 0.0 0 0 804.66 564.00
  Z"
/>
<path fill="#000000" d="
  M 955.40 886.99
  Q 958.32 886.84 959.81 888.46
  A 1.17 1.17 0.0 0 0 961.82 887.86
  Q 962.11 886.16 963.51 884.25
  C 964.49 882.92 966.80 881.53 966.57 879.85
  A 0.45 0.44 -89.6 0 1 967.08 879.34
  Q 968.52 879.57 980.65 880.28
  C 988.54 880.75 994.50 880.17 1003.09 879.64
  Q 1009.72 879.23 1015.90 877.91
  C 1021.51 876.71 1027.09 876.49 1032.91 874.88
  Q 1055.40 868.68 1079.24 858.21
  Q 1095.98 850.85 1108.78 845.17
  Q 1127.87 836.70 1137.31 830.26
  Q 1171.22 807.15 1183.69 766.72
  C 1186.59 757.31 1189.02 745.22 1190.62 735.32
  Q 1196.55 698.72 1187.19 662.40
  A 0.30 0.30 0.0 0 0 1186.64 662.33
  Q 1179.54 674.61 1167.57 681.95
  Q 1153.48 690.59 1138.55 692.53
  Q 1131.94 693.39 1120.20 693.11
  C 1102.19 692.70 1085.71 687.53 1070.67 677.82
  Q 1052.66 666.19 1044.09 646.17
  Q 1039.24 634.84 1038.83 625.02
  C 1038.34 613.61 1038.86 603.17 1042.76 592.50
  C 1045.08 586.18 1049.45 577.13 1053.33 571.49
  Q 1064.49 555.28 1080.36 545.10
  Q 1084.68 542.33 1092.41 538.53
  C 1105.99 531.84 1120.34 529.08 1135.51 529.85
  Q 1148.30 530.50 1159.68 536.85
  Q 1169.74 542.47 1176.19 552.61
  A 1.10 1.08 -10.5 0 0 1176.90 553.09
  Q 1181.66 554.01 1186.65 557.12
  C 1190.32 559.40 1191.68 562.00 1194.52 566.80
  Q 1219.10 608.49 1235.91 655.07
  C 1242.85 674.27 1247.02 693.41 1248.12 714.03
  Q 1248.94 729.61 1247.93 746.50
  C 1246.51 770.36 1239.12 793.56 1227.94 815.48
  C 1211.42 847.88 1186.83 872.69 1154.73 889.22
  Q 1148.00 892.68 1137.99 897.33
  C 1128.93 901.55 1117.74 904.17 1108.97 905.96
  Q 1105.56 906.65 1095.34 907.64
  C 1084.64 908.68 1079.87 908.45 1068.87 908.61
  Q 1060.16 908.73 1049.17 907.98
  Q 1035.14 907.03 1029.49 906.48
  Q 1025.78 906.12 1021.98 905.74
  Q 997.41 903.25 965.39 900.62
  A 1.15 1.11 74.2 0 1 964.55 900.13
  Q 961.62 895.88 960.72 890.58
  A 1.68 1.67 74.8 0 0 958.48 889.29
  Q 955.09 890.55 954.91 890.48
  A 1.80 1.80 0.0 0 1 955.40 886.99
  Z
  M 1187.37 631.32
  C 1201.03 661.55 1205.52 695.76 1201.83 728.71
  Q 1199.35 750.90 1193.59 769.87
  C 1185.61 796.13 1169.96 819.85 1147.64 835.87
  Q 1136.63 843.77 1124.39 849.38
  C 1094.81 862.94 1067.65 875.76 1037.84 884.37
  C 1032.10 886.02 1025.54 886.75 1020.74 887.61
  Q 1013.93 888.83 1011.91 889.07
  Q 990.77 891.58 967.58 889.77
  A 0.30 0.30 0.0 0 0 967.25 890.04
  L 967.25 890.06
  A 0.32 0.32 0.0 0 0 967.54 890.40
  Q 992.47 892.76 1022.15 895.31
  C 1025.84 895.63 1030.20 896.48 1033.50 896.70
  Q 1044.60 897.43 1056.93 898.29
  Q 1061.43 898.61 1067.08 898.57
  C 1076.72 898.50 1082.46 898.70 1091.75 897.66
  Q 1105.48 896.12 1106.21 895.97
  Q 1109.46 895.28 1121.18 892.29
  Q 1127.61 890.66 1135.63 887.02
  Q 1148.02 881.40 1157.66 875.67
  Q 1191.52 855.55 1212.03 822.49
  C 1225.81 800.27 1235.12 774.26 1237.57 747.83
  Q 1241.07 710.05 1231.04 673.97
  Q 1227.77 662.20 1220.87 644.63
  Q 1204.71 603.50 1183.87 569.39
  Q 1179.69 562.55 1170.55 563.23
  A 0.74 0.73 74.6 0 1 1169.85 562.83
  Q 1161.42 545.85 1142.88 541.34
  Q 1132.19 538.74 1120.75 540.54
  Q 1092.01 545.05 1071.12 566.41
  C 1058.22 579.60 1048.98 598.16 1048.78 616.98
  C 1048.29 662.89 1093.03 686.80 1133.76 682.65
  C 1158.07 680.18 1176.54 666.58 1184.14 642.91
  Q 1185.86 637.55 1187.03 631.36
  A 0.18 0.18 0.0 0 1 1187.37 631.32
  Z"
/>
<path fill="#ffffff" d="
  M 1187.03 631.36
  Q 1185.86 637.55 1184.14 642.91
  C 1176.54 666.58 1158.07 680.18 1133.76 682.65
  C 1093.03 686.80 1048.29 662.89 1048.78 616.98
  C 1048.98 598.16 1058.22 579.60 1071.12 566.41
  Q 1092.01 545.05 1120.75 540.54
  Q 1132.19 538.74 1142.88 541.34
  Q 1161.42 545.85 1169.85 562.83
  A 0.74 0.73 74.6 0 0 1170.55 563.23
  Q 1179.69 562.55 1183.87 569.39
  Q 1204.71 603.50 1220.87 644.63
  Q 1227.77 662.20 1231.04 673.97
  Q 1241.07 710.05 1237.57 747.83
  C 1235.12 774.26 1225.81 800.27 1212.03 822.49
  Q 1191.52 855.55 1157.66 875.67
  Q 1148.02 881.40 1135.63 887.02
  Q 1127.61 890.66 1121.18 892.29
  Q 1109.46 895.28 1106.21 895.97
  Q 1105.48 896.12 1091.75 897.66
  C 1082.46 898.70 1076.72 898.50 1067.08 898.57
  Q 1061.43 898.61 1056.93 898.29
  Q 1044.60 897.43 1033.50 896.70
  C 1030.20 896.48 1025.84 895.63 1022.15 895.31
  Q 992.47 892.76 967.54 890.40
  A 0.32 0.32 0.0 0 1 967.25 890.06
  L 967.25 890.04
  A 0.30 0.30 0.0 0 1 967.58 889.77
  Q 990.77 891.58 1011.91 889.07
  Q 1013.93 888.83 1020.74 887.61
  C 1025.54 886.75 1032.10 886.02 1037.84 884.37
  C 1067.65 875.76 1094.81 862.94 1124.39 849.38
  Q 1136.63 843.77 1147.64 835.87
  C 1169.96 819.85 1185.61 796.13 1193.59 769.87
  Q 1199.35 750.90 1201.83 728.71
  C 1205.52 695.76 1201.03 661.55 1187.37 631.32
  A 0.18 0.18 0.0 0 0 1187.03 631.36
  Z
  M 1163.41 566.55
  Q 1157.36 562.23 1150.19 563.08
  C 1125.19 566.02 1094.23 582.83 1086.94 608.91
  Q 1083.94 619.66 1088.27 628.89
  C 1093.29 639.57 1108.24 647.62 1119.98 650.26
  C 1133.46 653.30 1149.13 649.96 1157.83 638.82
  C 1166.39 627.87 1166.82 607.43 1164.71 593.76
  C 1164.20 590.47 1162.93 586.46 1161.63 582.54
  C 1159.65 576.57 1159.63 572.33 1163.54 567.53
  A 0.68 0.68 0.0 0 0 1163.41 566.55
  Z"
/>
<path fill="#000000" d="
  M 659.13 557.63
  C 659.21 559.60 658.43 561.64 658.60 564.13
  Q 660.60 592.89 671.49 618.45
  A 1.47 1.47 0.0 0 1 671.54 619.51
  Q 666.57 635.01 650.45 640.56
  C 631.59 647.05 610.93 648.43 592.56 641.49
  C 579.99 636.74 578.23 621.77 580.04 610.26
  C 584.52 581.66 607.13 557.07 637.01 556.20
  Q 644.55 555.98 658.52 557.00
  A 0.67 0.66 -89.5 0 1 659.13 557.63
  Z
  M 648.14 566.56
  C 637.79 565.53 625.58 566.79 616.82 572.36
  Q 593.84 586.97 590.03 613.11
  Q 589.01 620.11 591.52 627.14
  A 3.63 3.12 22.2 0 0 591.94 627.96
  Q 594.37 631.47 599.16 632.84
  C 607.12 635.12 615.62 636.53 624.02 635.72
  Q 636.31 634.53 646.98 630.76
  Q 655.47 627.76 660.16 620.04
  A 1.61 1.61 0.0 0 0 660.28 618.62
  Q 650.55 594.50 648.59 567.03
  A 0.51 0.51 0.0 0 0 648.14 566.56
  Z"
/>
<path fill="#000000" d="
  M 1163.54 567.53
  C 1159.63 572.33 1159.65 576.57 1161.63 582.54
  C 1162.93 586.46 1164.20 590.47 1164.71 593.76
  C 1166.82 607.43 1166.39 627.87 1157.83 638.82
  C 1149.13 649.96 1133.46 653.30 1119.98 650.26
  C 1108.24 647.62 1093.29 639.57 1088.27 628.89
  Q 1083.94 619.66 1086.94 608.91
  C 1094.23 582.83 1125.19 566.02 1150.19 563.08
  Q 1157.36 562.23 1163.41 566.55
  A 0.68 0.68 0.0 0 1 1163.54 567.53
  Z
  M 1149.67 573.53
  Q 1126.19 577.20 1108.87 593.38
  C 1102.89 598.98 1097.74 606.36 1096.23 614.68
  C 1094.79 622.67 1099.30 627.69 1105.63 632.53
  Q 1112.09 637.46 1121.54 639.98
  C 1134.18 643.34 1149.24 638.75 1153.08 625.13
  Q 1157.00 611.23 1154.77 597.14
  C 1154.05 592.57 1152.01 586.88 1150.83 582.75
  A 11.03 10.90 36.2 0 1 1150.32 579.58
  L 1150.25 574.02
  A 0.50 0.50 0.0 0 0 1149.67 573.53
  Z"
/>
</svg>
