<!-- Generated via pnpm tsx src/icon.ts -->
	<svg width="512" height="512" viewBox="0 0 512 512" xmlns="http://www.w3.org/2000/svg">
		<defs>
			<clipPath id="rounded-corner">
				<rect x="0" y="0" width="100%" height="100%" rx="32" ry="32" />
			</clipPath>
		</defs>

		<g clip-path="url(#rounded-corner)">
			<rect width="100%" height="100%" fill="black" />
			<g stroke-linecap="round" stroke-width="16" fill="none">
				<path stroke="hsl(0, 75%, 50%)" d="M -100.0, -96.0 L -47.1, -99.5 L -1.9, -87.0 L 34.9, -74.5 L 70.4, -62.0 L 112.9, -49.5 L 164.2, -37.0 L 218.1, -40.5 L 265.9, -12.0 L 304.6, 0.5 L 339.6, 29.0 L 379.5, 25.5 L 428.6, 38.0 L 482.7, 34.5 L 532.9, 63.0 L 574.0, 75.5 L 609.1, 88.0" />
<path stroke="hsl(50, 75%, 50%)" d="M -91.6, -63.6 L -46.4, -35.1 L -9.6, -22.6 L 25.9, 5.9 L 68.4, 2.4 L 119.7, 14.9 L 173.6, 11.4 L 221.4, 39.9 L 260.1, 52.4 L 295.1, 64.9 L 335.0, 77.4 L 384.1, 89.9 L 438.2, 102.4 L 488.4, 114.9 L 529.5, 127.4 L 564.6, 139.9 L 602.4, 136.4" />
<path stroke="hsl(100, 75%, 50%)" d="M -90.9, 9.1 L -54.1, 21.6 L -18.6, 34.1 L 23.9, 46.6 L 75.2, 59.1 L 129.1, 71.6 L 176.9, 84.1 L 215.6, 96.6 L 250.6, 109.1 L 290.5, 105.6 L 339.6, 134.1 L 393.7, 146.6 L 443.9, 175.1 L 485.0, 171.6 L 520.1, 184.1 L 557.9, 196.6 L 604.5, 209.1" />
<path stroke="hsl(150, 75%, 50%)" d="M -98.6, 57.4 L -63.1, 69.9 L -20.6, 66.4 L 30.7, 94.9 L 84.6, 107.4 L 132.4, 135.9 L 171.1, 132.4 L 206.1, 144.9 L 246.0, 157.4 L 295.1, 169.9 L 349.2, 182.4 L 399.4, 194.9 L 440.5, 207.4 L 475.6, 219.9 L 513.4, 232.4 L 560.0, 260.9 L 613.5, 257.4" />
<path stroke="hsl(200, 75%, 50%)" d="M -107.6, 104.4 L -65.1, 116.9 L -13.8, 129.4 L 40.1, 141.9 L 87.9, 154.4 L 126.6, 166.9 L 161.6, 179.4 L 201.5, 191.9 L 250.6, 220.4 L 304.7, 216.9 L 354.9, 229.4 L 396.0, 225.9 L 431.1, 254.4 L 468.9, 266.9 L 515.5, 295.4 L 569.0, 291.9 L 621.1, 304.4" />
<path stroke="hsl(250, 75%, 50%)" d="M -109.6, 158.4 L -58.3, 186.9 L -4.4, 183.4 L 43.4, 195.9 L 82.1, 192.4 L 117.1, 220.9 L 157.0, 233.4 L 206.1, 261.9 L 260.2, 258.4 L 310.4, 270.9 L 351.5, 283.4 L 386.6, 295.9 L 424.4, 308.4 L 471.0, 320.9 L 524.5, 317.4 L 576.6, 345.9 L 620.4, 358.4" />
<path stroke="hsl(300, 75%, 50%)" d="M -102.8, 237.2 L -48.9, 233.7 L -1.1, 246.2 L 37.6, 258.7 L 72.6, 271.2 L 112.5, 283.7 L 161.6, 296.2 L 215.7, 292.7 L 265.9, 321.2 L 307.0, 333.7 L 342.1, 362.2 L 379.9, 358.7 L 426.5, 371.2 L 480.0, 367.7 L 532.1, 396.2 L 575.9, 408.7 L 611.9, 421.2" />
<path stroke="hsl(350, 75%, 50%)" d="M -93.4, 270.6 L -45.6, 299.1 L -6.9, 311.6 L 28.1, 340.1 L 68.0, 336.6 L 117.1, 349.1 L 171.2, 345.6 L 221.4, 374.1 L 262.5, 386.6 L 297.6, 399.1 L 335.4, 411.6 L 382.0, 424.1 L 435.5, 436.6 L 487.6, 449.1 L 531.4, 461.6 L 567.4, 474.1 L 603.5, 470.6" />
<path stroke="hsl(40, 75%, 50%)" d="M -90.1, 345.9 L -51.4, 358.4 L -16.4, 370.9 L 23.5, 383.4 L 72.6, 395.9 L 126.7, 408.4 L 176.9, 420.9 L 218.0, 433.4 L 253.1, 445.9 L 290.9, 442.4 L 337.5, 470.9 L 391.0, 483.4 L 443.1, 511.9 L 486.9, 508.4 L 522.9, 520.9 L 559.0, 517.4 L 602.9, 545.9" />
<path stroke="hsl(90, 75%, 50%)" d="M -95.9, 396.1 L -60.9, 408.6 L -21.0, 405.1 L 28.1, 433.6 L 82.2, 446.1 L 132.4, 474.6 L 173.5, 471.1 L 208.6, 483.6 L 246.4, 480.1 L 293.0, 508.6 L 346.5, 521.1 L 398.6, 533.6 L 442.4, 546.1 L 478.4, 558.6 L 514.5, 571.1 L 558.4, 599.6 L 610.7, 596.1" />
<path stroke="hsl(140, 75%, 50%)" d="M -105.4, 442.6 L -65.5, 439.1 L -16.4, 467.6 L 37.7, 480.1 L 87.9, 492.6 L 129.0, 505.1 L 164.1, 517.6 L 201.9, 530.1 L 248.5, 558.6 L 302.0, 555.1 L 354.1, 567.6 L 397.9, 564.1 L 433.9, 592.6 L 470.0, 605.1 L 513.9, 633.6 L 566.2, 630.1 L 619.6, 642.6" />
<path stroke="hsl(190, 75%, 50%)" d="M -110.0, 494.0 L -60.9, 522.5 L -6.8, 519.0 L 43.4, 531.5 L 84.5, 528.0 L 119.6, 556.5 L 157.4, 569.0 L 204.0, 597.5 L 257.5, 594.0 L 309.6, 606.5 L 353.4, 619.0 L 389.4, 631.5 L 425.5, 644.0 L 469.4, 656.5 L 521.7, 669.0 L 575.1, 681.5 L 621.6, 694.0" />
			</g>
			<text x="364" y="448" text-anchor="middle" dominant-baseline="middle" font-size="100" font-family="Monserrat, sans-serif" fill="white" stroke="black" stroke-width="30" paint-order="stroke">hang</text>
		</g>
	</svg>