<!-- Generated via pnpm tsx src/icon.ts -->
	<svg width="256" height="256" viewBox="0 0 256 256" xmlns="http://www.w3.org/2000/svg">
		<defs>
			<clipPath id="rounded-corner">
				<rect x="0" y="0" width="100%" height="100%" rx="48" ry="48" />
			</clipPath>
		</defs>

		<g clip-path="url(#rounded-corner)">
			<rect width="100%" height="100%" fill="black" />
			<g stroke-linecap="round" stroke-width="12" fill="none" opacity="0.3">
				<path stroke="hsl(0, 75%, 50%)" d="M -107.0, -91.0 L -70.1, -94.5 L -40.9, -82.0 L -20.1, -69.5 L -0.6, -57.0 L 25.9, -44.5 L 61.2, -32.0 L 99.1, -35.5 L 130.9, -7.0 L 153.6, 5.5 L 172.6, 34.0 L 196.5, 30.5 L 229.6, 43.0 L 267.7, 39.5 L 301.9, 68.0 L 327.0, 80.5 L 346.1, 93.0" />
<path stroke="hsl(50, 75%, 50%)" d="M -98.6, -58.6 L -69.4, -30.1 L -48.6, -17.6 L -29.1, 10.9 L -2.6, 7.4 L 32.7, 19.9 L 70.6, 16.4 L 102.4, 44.9 L 125.1, 57.4 L 144.1, 69.9 L 168.0, 82.4 L 201.1, 94.9 L 239.2, 107.4 L 273.4, 119.9 L 298.5, 132.4 L 317.6, 144.9 L 339.4, 141.4" />
<path stroke="hsl(100, 75%, 50%)" d="M -97.9, 14.1 L -77.1, 26.6 L -57.6, 39.1 L -31.1, 51.6 L 4.2, 64.1 L 42.1, 76.6 L 73.9, 89.1 L 96.6, 101.6 L 115.6, 114.1 L 139.5, 110.6 L 172.6, 139.1 L 210.7, 151.6 L 244.9, 180.1 L 270.0, 176.6 L 289.1, 189.1 L 310.9, 201.6 L 341.5, 214.1" />
<path stroke="hsl(150, 75%, 50%)" d="M -105.6, 62.4 L -86.1, 74.9 L -59.6, 71.4 L -24.3, 99.9 L 13.6, 112.4 L 45.4, 140.9 L 68.1, 137.4 L 87.1, 149.9 L 111.0, 162.4 L 144.1, 174.9 L 182.2, 187.4 L 216.4, 199.9 L 241.5, 212.4 L 260.6, 224.9 L 282.4, 237.4 L 313.0, 265.9 L 350.5, 262.4" />
<path stroke="hsl(200, 75%, 50%)" d="M -114.6, 109.4 L -88.1, 121.9 L -52.8, 134.4 L -14.9, 146.9 L 16.9, 159.4 L 39.6, 171.9 L 58.6, 184.4 L 82.5, 196.9 L 115.6, 225.4 L 153.7, 221.9 L 187.9, 234.4 L 213.0, 230.9 L 232.1, 259.4 L 253.9, 271.9 L 284.5, 300.4 L 322.0, 296.9 L 358.1, 309.4" />
<path stroke="hsl(250, 75%, 50%)" d="M -116.6, 163.4 L -81.3, 191.9 L -43.4, 188.4 L -11.6, 200.9 L 11.1, 197.4 L 30.1, 225.9 L 54.0, 238.4 L 87.1, 266.9 L 125.2, 263.4 L 159.4, 275.9 L 184.5, 288.4 L 203.6, 300.9 L 225.4, 313.4 L 256.0, 325.9 L 293.5, 322.4 L 329.6, 350.9 L 357.4, 363.4" />
<path stroke="hsl(300, 75%, 50%)" d="M -109.8, 242.2 L -71.9, 238.7 L -40.1, 251.2 L -17.4, 263.7 L 1.6, 276.2 L 25.5, 288.7 L 58.6, 301.2 L 96.7, 297.7 L 130.9, 326.2 L 156.0, 338.7 L 175.1, 367.2 L 196.9, 363.7 L 227.5, 376.2 L 265.0, 372.7 L 301.1, 401.2 L 328.9, 413.7 L 348.9, 426.2" />
			</g>
			<g stroke-linecap="round" stroke-width="12" fill="none" opacity="0.75">
				<path stroke="hsl(0, 75%, 50%)" d="M -100.0, -96.0 L -63.1, -99.5 L -33.9, -87.0 L -13.1, -74.5 L 6.4, -62.0 L 32.9, -49.5 L 68.2, -37.0 L 106.1, -40.5 L 137.9, -12.0 L 160.6, 0.5 L 179.6, 29.0 L 203.5, 25.5 L 236.6, 38.0 L 274.7, 34.5 L 308.9, 63.0 L 334.0, 75.5 L 353.1, 88.0" />
<path stroke="hsl(50, 75%, 50%)" d="M -91.6, -63.6 L -62.4, -35.1 L -41.6, -22.6 L -22.1, 5.9 L 4.4, 2.4 L 39.7, 14.9 L 77.6, 11.4 L 109.4, 39.9 L 132.1, 52.4 L 151.1, 64.9 L 175.0, 77.4 L 208.1, 89.9 L 246.2, 102.4 L 280.4, 114.9 L 305.5, 127.4 L 324.6, 139.9 L 346.4, 136.4" />
<path stroke="hsl(100, 75%, 50%)" d="M -90.9, 9.1 L -70.1, 21.6 L -50.6, 34.1 L -24.1, 46.6 L 11.2, 59.1 L 49.1, 71.6 L 80.9, 84.1 L 103.6, 96.6 L 122.6, 109.1 L 146.5, 105.6 L 179.6, 134.1 L 217.7, 146.6 L 251.9, 175.1 L 277.0, 171.6 L 296.1, 184.1 L 317.9, 196.6 L 348.5, 209.1" />
<path stroke="hsl(150, 75%, 50%)" d="M -98.6, 57.4 L -79.1, 69.9 L -52.6, 66.4 L -17.3, 94.9 L 20.6, 107.4 L 52.4, 135.9 L 75.1, 132.4 L 94.1, 144.9 L 118.0, 157.4 L 151.1, 169.9 L 189.2, 182.4 L 223.4, 194.9 L 248.5, 207.4 L 267.6, 219.9 L 289.4, 232.4 L 320.0, 260.9 L 357.5, 257.4" />
<path stroke="hsl(200, 75%, 50%)" d="M -107.6, 104.4 L -81.1, 116.9 L -45.8, 129.4 L -7.9, 141.9 L 23.9, 154.4 L 46.6, 166.9 L 65.6, 179.4 L 89.5, 191.9 L 122.6, 220.4 L 160.7, 216.9 L 194.9, 229.4 L 220.0, 225.9 L 239.1, 254.4 L 260.9, 266.9 L 291.5, 295.4 L 329.0, 291.9 L 365.1, 304.4" />
<path stroke="hsl(250, 75%, 50%)" d="M -109.6, 158.4 L -74.3, 186.9 L -36.4, 183.4 L -4.6, 195.9 L 18.1, 192.4 L 37.1, 220.9 L 61.0, 233.4 L 94.1, 261.9 L 132.2, 258.4 L 166.4, 270.9 L 191.5, 283.4 L 210.6, 295.9 L 232.4, 308.4 L 263.0, 320.9 L 300.5, 317.4 L 336.6, 345.9 L 364.4, 358.4" />
<path stroke="hsl(300, 75%, 50%)" d="M -102.8, 237.2 L -64.9, 233.7 L -33.1, 246.2 L -10.4, 258.7 L 8.6, 271.2 L 32.5, 283.7 L 65.6, 296.2 L 103.7, 292.7 L 137.9, 321.2 L 163.0, 333.7 L 182.1, 362.2 L 203.9, 358.7 L 234.5, 371.2 L 272.0, 367.7 L 308.1, 396.2 L 335.9, 408.7 L 355.9, 421.2" />
			</g>
			<text x="128" y="192" font-weight="bold" text-anchor="middle" dominant-baseline="middle" font-size="96" font-family="Monserrat, Helvetica, Arial, sans-serif" fill="white" stroke="black" stroke-width="30" paint-order="stroke">hang</text>
		</g>
	</svg>