<!-- Generated via pnpm tsx src/icon.ts -->
	<svg width="256" height="256" viewBox="0 0 256 256" xmlns="http://www.w3.org/2000/svg">
		<defs>
			<clipPath id="rounded-corner">
				<rect x="0" y="0" width="100%" height="100%" rx="32" ry="32" />
			</clipPath>
		</defs>

		<g clip-path="url(#rounded-corner)">
			<rect width="100%" height="100%" fill="black" />
			<g stroke-linecap="round" stroke-width="16" fill="none">
				<path stroke="hsl(0, 75%, 50%)" d="M -100.0, -176.0 L -63.1, -179.5 L -33.9, -167.0 L -13.1, -154.5 L 6.4, -142.0 L 32.9, -129.5 L 68.2, -117.0 L 106.1, -120.5 L 137.9, -92.0 L 160.6, -79.5 L 179.6, -51.0 L 203.5, -54.5 L 236.6, -42.0 L 274.7, -45.5 L 308.9, -17.0 L 334.0, -4.5 L 353.1, 8.0" />
<path stroke="hsl(50, 75%, 50%)" d="M -91.6, -151.6 L -62.4, -123.1 L -41.6, -110.6 L -22.1, -82.1 L 4.4, -85.6 L 39.7, -73.1 L 77.6, -76.6 L 109.4, -48.1 L 132.1, -35.6 L 151.1, -23.1 L 175.0, -10.6 L 208.1, 1.9 L 246.2, 14.4 L 280.4, 26.9 L 305.5, 39.4 L 324.6, 51.9 L 346.4, 48.4" />
<path stroke="hsl(100, 75%, 50%)" d="M -90.9, -86.9 L -70.1, -74.4 L -50.6, -61.9 L -24.1, -49.4 L 11.2, -36.9 L 49.1, -24.4 L 80.9, -11.9 L 103.6, 0.6 L 122.6, 13.1 L 146.5, 9.6 L 179.6, 38.1 L 217.7, 50.6 L 251.9, 79.1 L 277.0, 75.6 L 296.1, 88.1 L 317.9, 100.6 L 348.5, 113.1" />
<path stroke="hsl(150, 75%, 50%)" d="M -98.6, -46.6 L -79.1, -34.1 L -52.6, -37.6 L -17.3, -9.1 L 20.6, 3.4 L 52.4, 31.9 L 75.1, 28.4 L 94.1, 40.9 L 118.0, 53.4 L 151.1, 65.9 L 189.2, 78.4 L 223.4, 90.9 L 248.5, 103.4 L 267.6, 115.9 L 289.4, 128.4 L 320.0, 156.9 L 357.5, 153.4" />
<path stroke="hsl(200, 75%, 50%)" d="M -107.6, -7.6 L -81.1, 4.9 L -45.8, 17.4 L -7.9, 29.9 L 23.9, 42.4 L 46.6, 54.9 L 65.6, 67.4 L 89.5, 79.9 L 122.6, 108.4 L 160.7, 104.9 L 194.9, 117.4 L 220.0, 113.9 L 239.1, 142.4 L 260.9, 154.9 L 291.5, 183.4 L 329.0, 179.9 L 365.1, 192.4" />
<path stroke="hsl(250, 75%, 50%)" d="M -109.6, 38.4 L -74.3, 66.9 L -36.4, 63.4 L -4.6, 75.9 L 18.1, 72.4 L 37.1, 100.9 L 61.0, 113.4 L 94.1, 141.9 L 132.2, 138.4 L 166.4, 150.9 L 191.5, 163.4 L 210.6, 175.9 L 232.4, 188.4 L 263.0, 200.9 L 300.5, 197.4 L 336.6, 225.9 L 364.4, 238.4" />
<path stroke="hsl(300, 75%, 50%)" d="M -102.8, 109.2 L -64.9, 105.7 L -33.1, 118.2 L -10.4, 130.7 L 8.6, 143.2 L 32.5, 155.7 L 65.6, 168.2 L 103.7, 164.7 L 137.9, 193.2 L 163.0, 205.7 L 182.1, 234.2 L 203.9, 230.7 L 234.5, 243.2 L 272.0, 239.7 L 308.1, 268.2 L 335.9, 280.7 L 355.9, 293.2" />
<path stroke="hsl(350, 75%, 50%)" d="M -93.4, 134.6 L -61.6, 163.1 L -38.9, 175.6 L -19.9, 204.1 L 4.0, 200.6 L 37.1, 213.1 L 75.2, 209.6 L 109.4, 238.1 L 134.5, 250.6 L 153.6, 263.1 L 175.4, 275.6 L 206.0, 288.1 L 243.5, 300.6 L 279.6, 313.1 L 307.4, 325.6 L 327.4, 338.1 L 347.5, 334.6" />
<path stroke="hsl(40, 75%, 50%)" d="M -90.1, 201.9 L -67.4, 214.4 L -48.4, 226.9 L -24.5, 239.4 L 8.6, 251.9 L 46.7, 264.4 L 80.9, 276.9 L 106.0, 289.4 L 125.1, 301.9 L 146.9, 298.4 L 177.5, 326.9 L 215.0, 339.4 L 251.1, 367.9 L 278.9, 364.4 L 298.9, 376.9 L 319.0, 373.4 L 346.9, 401.9" />
<path stroke="hsl(90, 75%, 50%)" d="M -95.9, 244.1 L -76.9, 256.6 L -53.0, 253.1 L -19.9, 281.6 L 18.2, 294.1 L 52.4, 322.6 L 77.5, 319.1 L 96.6, 331.6 L 118.4, 328.1 L 149.0, 356.6 L 186.5, 369.1 L 222.6, 381.6 L 250.4, 394.1 L 270.4, 406.6 L 290.5, 419.1 L 318.4, 447.6 L 354.7, 444.1" />
			</g>
			<text x="128" y="192" text-anchor="middle" dominant-baseline="middle" font-size="100" font-family="Monserrat, sans-serif" fill="white" stroke="black" stroke-width="30" paint-order="stroke">hang</text>
		</g>
	</svg>